G04 #@! TF.GenerationSoftware,KiCad,Pcbnew,(6.0.7)*
G04 #@! TF.CreationDate,2022-08-14T23:45:14+02:00*
G04 #@! TF.ProjectId,picocart64_v1_lite,7069636f-6361-4727-9436-345f76315f6c,rev?*
G04 #@! TF.SameCoordinates,Original*
G04 #@! TF.FileFunction,Legend,Bot*
G04 #@! TF.FilePolarity,Positive*
%FSLAX46Y46*%
G04 Gerber Fmt 4.6, Leading zero omitted, Abs format (unit mm)*
G04 Created by KiCad (PCBNEW (6.0.7)) date 2022-08-14 23:45:14*
%MOMM*%
%LPD*%
G01*
G04 APERTURE LIST*
%ADD10C,0.300000*%
G04 APERTURE END LIST*
D10*
X170142857Y-109678571D02*
X170857142Y-109678571D01*
X170928571Y-110392857D01*
X170857142Y-110321428D01*
X170714285Y-110250000D01*
X170357142Y-110250000D01*
X170214285Y-110321428D01*
X170142857Y-110392857D01*
X170071428Y-110535714D01*
X170071428Y-110892857D01*
X170142857Y-111035714D01*
X170214285Y-111107142D01*
X170357142Y-111178571D01*
X170714285Y-111178571D01*
X170857142Y-111107142D01*
X170928571Y-111035714D01*
X158285714Y-111178571D02*
X159142857Y-111178571D01*
X158714285Y-111178571D02*
X158714285Y-109678571D01*
X158857142Y-109892857D01*
X159000000Y-110035714D01*
X159142857Y-110107142D01*
X157357142Y-109678571D02*
X157214285Y-109678571D01*
X157071428Y-109750000D01*
X157000000Y-109821428D01*
X156928571Y-109964285D01*
X156857142Y-110250000D01*
X156857142Y-110607142D01*
X156928571Y-110892857D01*
X157000000Y-111035714D01*
X157071428Y-111107142D01*
X157214285Y-111178571D01*
X157357142Y-111178571D01*
X157500000Y-111107142D01*
X157571428Y-111035714D01*
X157642857Y-110892857D01*
X157714285Y-110607142D01*
X157714285Y-110250000D01*
X157642857Y-109964285D01*
X157571428Y-109821428D01*
X157500000Y-109750000D01*
X157357142Y-109678571D01*
X145785714Y-111178571D02*
X146642857Y-111178571D01*
X146214285Y-111178571D02*
X146214285Y-109678571D01*
X146357142Y-109892857D01*
X146500000Y-110035714D01*
X146642857Y-110107142D01*
X144428571Y-109678571D02*
X145142857Y-109678571D01*
X145214285Y-110392857D01*
X145142857Y-110321428D01*
X145000000Y-110250000D01*
X144642857Y-110250000D01*
X144500000Y-110321428D01*
X144428571Y-110392857D01*
X144357142Y-110535714D01*
X144357142Y-110892857D01*
X144428571Y-111035714D01*
X144500000Y-111107142D01*
X144642857Y-111178571D01*
X145000000Y-111178571D01*
X145142857Y-111107142D01*
X145214285Y-111035714D01*
X134142857Y-109821428D02*
X134071428Y-109750000D01*
X133928571Y-109678571D01*
X133571428Y-109678571D01*
X133428571Y-109750000D01*
X133357142Y-109821428D01*
X133285714Y-109964285D01*
X133285714Y-110107142D01*
X133357142Y-110321428D01*
X134214285Y-111178571D01*
X133285714Y-111178571D01*
X132357142Y-109678571D02*
X132214285Y-109678571D01*
X132071428Y-109750000D01*
X132000000Y-109821428D01*
X131928571Y-109964285D01*
X131857142Y-110250000D01*
X131857142Y-110607142D01*
X131928571Y-110892857D01*
X132000000Y-111035714D01*
X132071428Y-111107142D01*
X132214285Y-111178571D01*
X132357142Y-111178571D01*
X132500000Y-111107142D01*
X132571428Y-111035714D01*
X132642857Y-110892857D01*
X132714285Y-110607142D01*
X132714285Y-110250000D01*
X132642857Y-109964285D01*
X132571428Y-109821428D01*
X132500000Y-109750000D01*
X132357142Y-109678571D01*
X121642857Y-109821428D02*
X121571428Y-109750000D01*
X121428571Y-109678571D01*
X121071428Y-109678571D01*
X120928571Y-109750000D01*
X120857142Y-109821428D01*
X120785714Y-109964285D01*
X120785714Y-110107142D01*
X120857142Y-110321428D01*
X121714285Y-111178571D01*
X120785714Y-111178571D01*
X119428571Y-109678571D02*
X120142857Y-109678571D01*
X120214285Y-110392857D01*
X120142857Y-110321428D01*
X120000000Y-110250000D01*
X119642857Y-110250000D01*
X119500000Y-110321428D01*
X119428571Y-110392857D01*
X119357142Y-110535714D01*
X119357142Y-110892857D01*
X119428571Y-111035714D01*
X119500000Y-111107142D01*
X119642857Y-111178571D01*
X120000000Y-111178571D01*
X120142857Y-111107142D01*
X120214285Y-111035714D01*
X179571428Y-111178571D02*
X180428571Y-111178571D01*
X180000000Y-111178571D02*
X180000000Y-109678571D01*
X180142857Y-109892857D01*
X180285714Y-110035714D01*
X180428571Y-110107142D01*
X179847092Y-104274761D02*
X179847092Y-102274761D01*
X178989949Y-104274761D02*
X178989949Y-103227142D01*
X179085187Y-103036666D01*
X179275663Y-102941428D01*
X179561378Y-102941428D01*
X179751854Y-103036666D01*
X179847092Y-103131904D01*
X178323283Y-102941428D02*
X177561378Y-102941428D01*
X178037568Y-102274761D02*
X178037568Y-103989047D01*
X177942330Y-104179523D01*
X177751854Y-104274761D01*
X177561378Y-104274761D01*
X177180425Y-102941428D02*
X176418521Y-102941428D01*
X176894711Y-102274761D02*
X176894711Y-103989047D01*
X176799473Y-104179523D01*
X176608997Y-104274761D01*
X176418521Y-104274761D01*
X175751854Y-102941428D02*
X175751854Y-104941428D01*
X175751854Y-103036666D02*
X175561378Y-102941428D01*
X175180425Y-102941428D01*
X174989949Y-103036666D01*
X174894711Y-103131904D01*
X174799473Y-103322380D01*
X174799473Y-103893809D01*
X174894711Y-104084285D01*
X174989949Y-104179523D01*
X175180425Y-104274761D01*
X175561378Y-104274761D01*
X175751854Y-104179523D01*
X173942330Y-104084285D02*
X173847092Y-104179523D01*
X173942330Y-104274761D01*
X174037568Y-104179523D01*
X173942330Y-104084285D01*
X173942330Y-104274761D01*
X173942330Y-103036666D02*
X173847092Y-103131904D01*
X173942330Y-103227142D01*
X174037568Y-103131904D01*
X173942330Y-103036666D01*
X173942330Y-103227142D01*
X171561378Y-102179523D02*
X173275663Y-104750952D01*
X169466140Y-102179523D02*
X171180425Y-104750952D01*
X168799473Y-102941428D02*
X168799473Y-104941428D01*
X168799473Y-103036666D02*
X168608997Y-102941428D01*
X168228044Y-102941428D01*
X168037568Y-103036666D01*
X167942330Y-103131904D01*
X167847092Y-103322380D01*
X167847092Y-103893809D01*
X167942330Y-104084285D01*
X168037568Y-104179523D01*
X168228044Y-104274761D01*
X168608997Y-104274761D01*
X168799473Y-104179523D01*
X166989949Y-104274761D02*
X166989949Y-102941428D01*
X166989949Y-102274761D02*
X167085187Y-102370000D01*
X166989949Y-102465238D01*
X166894711Y-102370000D01*
X166989949Y-102274761D01*
X166989949Y-102465238D01*
X165180425Y-104179523D02*
X165370902Y-104274761D01*
X165751854Y-104274761D01*
X165942330Y-104179523D01*
X166037568Y-104084285D01*
X166132806Y-103893809D01*
X166132806Y-103322380D01*
X166037568Y-103131904D01*
X165942330Y-103036666D01*
X165751854Y-102941428D01*
X165370902Y-102941428D01*
X165180425Y-103036666D01*
X164037568Y-104274761D02*
X164228044Y-104179523D01*
X164323283Y-104084285D01*
X164418521Y-103893809D01*
X164418521Y-103322380D01*
X164323283Y-103131904D01*
X164228044Y-103036666D01*
X164037568Y-102941428D01*
X163751854Y-102941428D01*
X163561378Y-103036666D01*
X163466140Y-103131904D01*
X163370902Y-103322380D01*
X163370902Y-103893809D01*
X163466140Y-104084285D01*
X163561378Y-104179523D01*
X163751854Y-104274761D01*
X164037568Y-104274761D01*
X161656616Y-104179523D02*
X161847092Y-104274761D01*
X162228044Y-104274761D01*
X162418521Y-104179523D01*
X162513759Y-104084285D01*
X162608997Y-103893809D01*
X162608997Y-103322380D01*
X162513759Y-103131904D01*
X162418521Y-103036666D01*
X162228044Y-102941428D01*
X161847092Y-102941428D01*
X161656616Y-103036666D01*
X160799473Y-104084285D02*
X160704235Y-104179523D01*
X160799473Y-104274761D01*
X160894711Y-104179523D01*
X160799473Y-104084285D01*
X160799473Y-104274761D01*
X158989949Y-104274761D02*
X158989949Y-103227142D01*
X159085187Y-103036666D01*
X159275663Y-102941428D01*
X159656616Y-102941428D01*
X159847092Y-103036666D01*
X158989949Y-104179523D02*
X159180425Y-104274761D01*
X159656616Y-104274761D01*
X159847092Y-104179523D01*
X159942330Y-103989047D01*
X159942330Y-103798571D01*
X159847092Y-103608095D01*
X159656616Y-103512857D01*
X159180425Y-103512857D01*
X158989949Y-103417619D01*
X158037568Y-104274761D02*
X158037568Y-102941428D01*
X158037568Y-103322380D02*
X157942330Y-103131904D01*
X157847092Y-103036666D01*
X157656616Y-102941428D01*
X157466140Y-102941428D01*
X157085187Y-102941428D02*
X156323283Y-102941428D01*
X156799473Y-102274761D02*
X156799473Y-103989047D01*
X156704235Y-104179523D01*
X156513759Y-104274761D01*
X156323283Y-104274761D01*
X154228044Y-102179523D02*
X155942330Y-104750952D01*
X190674285Y-107045142D02*
X191340952Y-107045142D01*
X191340952Y-108092761D02*
X191340952Y-106092761D01*
X190388571Y-106092761D01*
X189626666Y-108092761D02*
X189626666Y-106759428D01*
X189626666Y-107140380D02*
X189531428Y-106949904D01*
X189436190Y-106854666D01*
X189245714Y-106759428D01*
X189055238Y-106759428D01*
X188102857Y-108092761D02*
X188293333Y-107997523D01*
X188388571Y-107902285D01*
X188483809Y-107711809D01*
X188483809Y-107140380D01*
X188388571Y-106949904D01*
X188293333Y-106854666D01*
X188102857Y-106759428D01*
X187817142Y-106759428D01*
X187626666Y-106854666D01*
X187531428Y-106949904D01*
X187436190Y-107140380D01*
X187436190Y-107711809D01*
X187531428Y-107902285D01*
X187626666Y-107997523D01*
X187817142Y-108092761D01*
X188102857Y-108092761D01*
X186579047Y-106759428D02*
X186579047Y-108092761D01*
X186579047Y-106949904D02*
X186483809Y-106854666D01*
X186293333Y-106759428D01*
X186007619Y-106759428D01*
X185817142Y-106854666D01*
X185721904Y-107045142D01*
X185721904Y-108092761D01*
X185055238Y-106759428D02*
X184293333Y-106759428D01*
X184769523Y-106092761D02*
X184769523Y-107807047D01*
X184674285Y-107997523D01*
X184483809Y-108092761D01*
X184293333Y-108092761D01*
X179883809Y-107969761D02*
X179883809Y-105969761D01*
X179026666Y-107969761D02*
X179026666Y-106922142D01*
X179121904Y-106731666D01*
X179312380Y-106636428D01*
X179598095Y-106636428D01*
X179788571Y-106731666D01*
X179883809Y-106826904D01*
X178360000Y-106636428D02*
X177598095Y-106636428D01*
X178074285Y-105969761D02*
X178074285Y-107684047D01*
X177979047Y-107874523D01*
X177788571Y-107969761D01*
X177598095Y-107969761D01*
X177217142Y-106636428D02*
X176455238Y-106636428D01*
X176931428Y-105969761D02*
X176931428Y-107684047D01*
X176836190Y-107874523D01*
X176645714Y-107969761D01*
X176455238Y-107969761D01*
X175788571Y-106636428D02*
X175788571Y-108636428D01*
X175788571Y-106731666D02*
X175598095Y-106636428D01*
X175217142Y-106636428D01*
X175026666Y-106731666D01*
X174931428Y-106826904D01*
X174836190Y-107017380D01*
X174836190Y-107588809D01*
X174931428Y-107779285D01*
X175026666Y-107874523D01*
X175217142Y-107969761D01*
X175598095Y-107969761D01*
X175788571Y-107874523D01*
X174074285Y-107874523D02*
X173883809Y-107969761D01*
X173502857Y-107969761D01*
X173312380Y-107874523D01*
X173217142Y-107684047D01*
X173217142Y-107588809D01*
X173312380Y-107398333D01*
X173502857Y-107303095D01*
X173788571Y-107303095D01*
X173979047Y-107207857D01*
X174074285Y-107017380D01*
X174074285Y-106922142D01*
X173979047Y-106731666D01*
X173788571Y-106636428D01*
X173502857Y-106636428D01*
X173312380Y-106731666D01*
X172360000Y-107779285D02*
X172264761Y-107874523D01*
X172360000Y-107969761D01*
X172455238Y-107874523D01*
X172360000Y-107779285D01*
X172360000Y-107969761D01*
X172360000Y-106731666D02*
X172264761Y-106826904D01*
X172360000Y-106922142D01*
X172455238Y-106826904D01*
X172360000Y-106731666D01*
X172360000Y-106922142D01*
X169979047Y-105874523D02*
X171693333Y-108445952D01*
X167883809Y-105874523D02*
X169598095Y-108445952D01*
X166360000Y-106636428D02*
X166360000Y-108255476D01*
X166455238Y-108445952D01*
X166550476Y-108541190D01*
X166740952Y-108636428D01*
X167026666Y-108636428D01*
X167217142Y-108541190D01*
X166360000Y-107874523D02*
X166550476Y-107969761D01*
X166931428Y-107969761D01*
X167121904Y-107874523D01*
X167217142Y-107779285D01*
X167312380Y-107588809D01*
X167312380Y-107017380D01*
X167217142Y-106826904D01*
X167121904Y-106731666D01*
X166931428Y-106636428D01*
X166550476Y-106636428D01*
X166360000Y-106731666D01*
X165407619Y-107969761D02*
X165407619Y-106636428D01*
X165407619Y-105969761D02*
X165502857Y-106065000D01*
X165407619Y-106160238D01*
X165312380Y-106065000D01*
X165407619Y-105969761D01*
X165407619Y-106160238D01*
X164740952Y-106636428D02*
X163979047Y-106636428D01*
X164455238Y-105969761D02*
X164455238Y-107684047D01*
X164360000Y-107874523D01*
X164169523Y-107969761D01*
X163979047Y-107969761D01*
X163312380Y-107969761D02*
X163312380Y-105969761D01*
X162455238Y-107969761D02*
X162455238Y-106922142D01*
X162550476Y-106731666D01*
X162740952Y-106636428D01*
X163026666Y-106636428D01*
X163217142Y-106731666D01*
X163312380Y-106826904D01*
X160645714Y-106636428D02*
X160645714Y-107969761D01*
X161502857Y-106636428D02*
X161502857Y-107684047D01*
X161407619Y-107874523D01*
X161217142Y-107969761D01*
X160931428Y-107969761D01*
X160740952Y-107874523D01*
X160645714Y-107779285D01*
X159693333Y-107969761D02*
X159693333Y-105969761D01*
X159693333Y-106731666D02*
X159502857Y-106636428D01*
X159121904Y-106636428D01*
X158931428Y-106731666D01*
X158836190Y-106826904D01*
X158740952Y-107017380D01*
X158740952Y-107588809D01*
X158836190Y-107779285D01*
X158931428Y-107874523D01*
X159121904Y-107969761D01*
X159502857Y-107969761D01*
X159693333Y-107874523D01*
X157883809Y-107779285D02*
X157788571Y-107874523D01*
X157883809Y-107969761D01*
X157979047Y-107874523D01*
X157883809Y-107779285D01*
X157883809Y-107969761D01*
X156074285Y-107874523D02*
X156264761Y-107969761D01*
X156645714Y-107969761D01*
X156836190Y-107874523D01*
X156931428Y-107779285D01*
X157026666Y-107588809D01*
X157026666Y-107017380D01*
X156931428Y-106826904D01*
X156836190Y-106731666D01*
X156645714Y-106636428D01*
X156264761Y-106636428D01*
X156074285Y-106731666D01*
X154931428Y-107969761D02*
X155121904Y-107874523D01*
X155217142Y-107779285D01*
X155312380Y-107588809D01*
X155312380Y-107017380D01*
X155217142Y-106826904D01*
X155121904Y-106731666D01*
X154931428Y-106636428D01*
X154645714Y-106636428D01*
X154455238Y-106731666D01*
X154360000Y-106826904D01*
X154264761Y-107017380D01*
X154264761Y-107588809D01*
X154360000Y-107779285D01*
X154455238Y-107874523D01*
X154645714Y-107969761D01*
X154931428Y-107969761D01*
X153407619Y-107969761D02*
X153407619Y-106636428D01*
X153407619Y-106826904D02*
X153312380Y-106731666D01*
X153121904Y-106636428D01*
X152836190Y-106636428D01*
X152645714Y-106731666D01*
X152550476Y-106922142D01*
X152550476Y-107969761D01*
X152550476Y-106922142D02*
X152455238Y-106731666D01*
X152264761Y-106636428D01*
X151979047Y-106636428D01*
X151788571Y-106731666D01*
X151693333Y-106922142D01*
X151693333Y-107969761D01*
X149312380Y-105874523D02*
X151026666Y-108445952D01*
X148645714Y-107969761D02*
X148645714Y-105969761D01*
X148455238Y-107207857D02*
X147883809Y-107969761D01*
X147883809Y-106636428D02*
X148645714Y-107398333D01*
X147026666Y-107969761D02*
X147026666Y-105969761D01*
X147026666Y-106731666D02*
X146836190Y-106636428D01*
X146455238Y-106636428D01*
X146264761Y-106731666D01*
X146169523Y-106826904D01*
X146074285Y-107017380D01*
X146074285Y-107588809D01*
X146169523Y-107779285D01*
X146264761Y-107874523D01*
X146455238Y-107969761D01*
X146836190Y-107969761D01*
X147026666Y-107874523D01*
X144455238Y-107874523D02*
X144645714Y-107969761D01*
X145026666Y-107969761D01*
X145217142Y-107874523D01*
X145312380Y-107684047D01*
X145312380Y-106922142D01*
X145217142Y-106731666D01*
X145026666Y-106636428D01*
X144645714Y-106636428D01*
X144455238Y-106731666D01*
X144360000Y-106922142D01*
X144360000Y-107112619D01*
X145312380Y-107303095D01*
X142645714Y-107874523D02*
X142836190Y-107969761D01*
X143217142Y-107969761D01*
X143407619Y-107874523D01*
X143502857Y-107779285D01*
X143598095Y-107588809D01*
X143598095Y-107017380D01*
X143502857Y-106826904D01*
X143407619Y-106731666D01*
X143217142Y-106636428D01*
X142836190Y-106636428D01*
X142645714Y-106731666D01*
X141788571Y-107969761D02*
X141788571Y-105969761D01*
X141598095Y-107207857D02*
X141026666Y-107969761D01*
X141026666Y-106636428D02*
X141788571Y-107398333D01*
X140169523Y-107969761D02*
X140169523Y-106636428D01*
X140169523Y-106826904D02*
X140074285Y-106731666D01*
X139883809Y-106636428D01*
X139598095Y-106636428D01*
X139407619Y-106731666D01*
X139312380Y-106922142D01*
X139312380Y-107969761D01*
X139312380Y-106922142D02*
X139217142Y-106731666D01*
X139026666Y-106636428D01*
X138740952Y-106636428D01*
X138550476Y-106731666D01*
X138455238Y-106922142D01*
X138455238Y-107969761D01*
X136645714Y-107969761D02*
X136645714Y-106922142D01*
X136740952Y-106731666D01*
X136931428Y-106636428D01*
X137312380Y-106636428D01*
X137502857Y-106731666D01*
X136645714Y-107874523D02*
X136836190Y-107969761D01*
X137312380Y-107969761D01*
X137502857Y-107874523D01*
X137598095Y-107684047D01*
X137598095Y-107493571D01*
X137502857Y-107303095D01*
X137312380Y-107207857D01*
X136836190Y-107207857D01*
X136645714Y-107112619D01*
X135693333Y-106636428D02*
X135693333Y-107969761D01*
X135693333Y-106826904D02*
X135598095Y-106731666D01*
X135407619Y-106636428D01*
X135121904Y-106636428D01*
X134931428Y-106731666D01*
X134836190Y-106922142D01*
X134836190Y-107969761D01*
X133883809Y-106636428D02*
X133883809Y-107969761D01*
X133883809Y-106826904D02*
X133788571Y-106731666D01*
X133598095Y-106636428D01*
X133312380Y-106636428D01*
X133121904Y-106731666D01*
X133026666Y-106922142D01*
X133026666Y-107969761D01*
X130645714Y-105874523D02*
X132360000Y-108445952D01*
X129979047Y-107969761D02*
X129979047Y-105969761D01*
X129217142Y-105969761D01*
X129026666Y-106065000D01*
X128931428Y-106160238D01*
X128836190Y-106350714D01*
X128836190Y-106636428D01*
X128931428Y-106826904D01*
X129026666Y-106922142D01*
X129217142Y-107017380D01*
X129979047Y-107017380D01*
X127979047Y-107969761D02*
X127979047Y-106636428D01*
X127979047Y-105969761D02*
X128074285Y-106065000D01*
X127979047Y-106160238D01*
X127883809Y-106065000D01*
X127979047Y-105969761D01*
X127979047Y-106160238D01*
X126169523Y-107874523D02*
X126360000Y-107969761D01*
X126740952Y-107969761D01*
X126931428Y-107874523D01*
X127026666Y-107779285D01*
X127121904Y-107588809D01*
X127121904Y-107017380D01*
X127026666Y-106826904D01*
X126931428Y-106731666D01*
X126740952Y-106636428D01*
X126360000Y-106636428D01*
X126169523Y-106731666D01*
X125026666Y-107969761D02*
X125217142Y-107874523D01*
X125312380Y-107779285D01*
X125407619Y-107588809D01*
X125407619Y-107017380D01*
X125312380Y-106826904D01*
X125217142Y-106731666D01*
X125026666Y-106636428D01*
X124740952Y-106636428D01*
X124550476Y-106731666D01*
X124455238Y-106826904D01*
X124360000Y-107017380D01*
X124360000Y-107588809D01*
X124455238Y-107779285D01*
X124550476Y-107874523D01*
X124740952Y-107969761D01*
X125026666Y-107969761D01*
X122360000Y-107779285D02*
X122455238Y-107874523D01*
X122740952Y-107969761D01*
X122931428Y-107969761D01*
X123217142Y-107874523D01*
X123407619Y-107684047D01*
X123502857Y-107493571D01*
X123598095Y-107112619D01*
X123598095Y-106826904D01*
X123502857Y-106445952D01*
X123407619Y-106255476D01*
X123217142Y-106065000D01*
X122931428Y-105969761D01*
X122740952Y-105969761D01*
X122455238Y-106065000D01*
X122360000Y-106160238D01*
X120645714Y-107969761D02*
X120645714Y-106922142D01*
X120740952Y-106731666D01*
X120931428Y-106636428D01*
X121312380Y-106636428D01*
X121502857Y-106731666D01*
X120645714Y-107874523D02*
X120836190Y-107969761D01*
X121312380Y-107969761D01*
X121502857Y-107874523D01*
X121598095Y-107684047D01*
X121598095Y-107493571D01*
X121502857Y-107303095D01*
X121312380Y-107207857D01*
X120836190Y-107207857D01*
X120645714Y-107112619D01*
X119693333Y-107969761D02*
X119693333Y-106636428D01*
X119693333Y-107017380D02*
X119598095Y-106826904D01*
X119502857Y-106731666D01*
X119312380Y-106636428D01*
X119121904Y-106636428D01*
X118740952Y-106636428D02*
X117979047Y-106636428D01*
X118455238Y-105969761D02*
X118455238Y-107684047D01*
X118360000Y-107874523D01*
X118169523Y-107969761D01*
X117979047Y-107969761D01*
X116455238Y-105969761D02*
X116836190Y-105969761D01*
X117026666Y-106065000D01*
X117121904Y-106160238D01*
X117312380Y-106445952D01*
X117407619Y-106826904D01*
X117407619Y-107588809D01*
X117312380Y-107779285D01*
X117217142Y-107874523D01*
X117026666Y-107969761D01*
X116645714Y-107969761D01*
X116455238Y-107874523D01*
X116360000Y-107779285D01*
X116264761Y-107588809D01*
X116264761Y-107112619D01*
X116360000Y-106922142D01*
X116455238Y-106826904D01*
X116645714Y-106731666D01*
X117026666Y-106731666D01*
X117217142Y-106826904D01*
X117312380Y-106922142D01*
X117407619Y-107112619D01*
X114550476Y-106636428D02*
X114550476Y-107969761D01*
X115026666Y-105874523D02*
X115502857Y-107303095D01*
X114264761Y-107303095D01*
X194584047Y-91555238D02*
X194488809Y-91460000D01*
X194298333Y-91364761D01*
X193822142Y-91364761D01*
X193631666Y-91460000D01*
X193536428Y-91555238D01*
X193441190Y-91745714D01*
X193441190Y-91936190D01*
X193536428Y-92221904D01*
X194679285Y-93364761D01*
X193441190Y-93364761D01*
X192203095Y-91364761D02*
X192012619Y-91364761D01*
X191822142Y-91460000D01*
X191726904Y-91555238D01*
X191631666Y-91745714D01*
X191536428Y-92126666D01*
X191536428Y-92602857D01*
X191631666Y-92983809D01*
X191726904Y-93174285D01*
X191822142Y-93269523D01*
X192012619Y-93364761D01*
X192203095Y-93364761D01*
X192393571Y-93269523D01*
X192488809Y-93174285D01*
X192584047Y-92983809D01*
X192679285Y-92602857D01*
X192679285Y-92126666D01*
X192584047Y-91745714D01*
X192488809Y-91555238D01*
X192393571Y-91460000D01*
X192203095Y-91364761D01*
X190774523Y-91555238D02*
X190679285Y-91460000D01*
X190488809Y-91364761D01*
X190012619Y-91364761D01*
X189822142Y-91460000D01*
X189726904Y-91555238D01*
X189631666Y-91745714D01*
X189631666Y-91936190D01*
X189726904Y-92221904D01*
X190869761Y-93364761D01*
X189631666Y-93364761D01*
X188869761Y-91555238D02*
X188774523Y-91460000D01*
X188584047Y-91364761D01*
X188107857Y-91364761D01*
X187917380Y-91460000D01*
X187822142Y-91555238D01*
X187726904Y-91745714D01*
X187726904Y-91936190D01*
X187822142Y-92221904D01*
X188965000Y-93364761D01*
X187726904Y-93364761D01*
X186869761Y-92602857D02*
X185345952Y-92602857D01*
X184012619Y-91364761D02*
X183822142Y-91364761D01*
X183631666Y-91460000D01*
X183536428Y-91555238D01*
X183441190Y-91745714D01*
X183345952Y-92126666D01*
X183345952Y-92602857D01*
X183441190Y-92983809D01*
X183536428Y-93174285D01*
X183631666Y-93269523D01*
X183822142Y-93364761D01*
X184012619Y-93364761D01*
X184203095Y-93269523D01*
X184298333Y-93174285D01*
X184393571Y-92983809D01*
X184488809Y-92602857D01*
X184488809Y-92126666D01*
X184393571Y-91745714D01*
X184298333Y-91555238D01*
X184203095Y-91460000D01*
X184012619Y-91364761D01*
X182203095Y-92221904D02*
X182393571Y-92126666D01*
X182488809Y-92031428D01*
X182584047Y-91840952D01*
X182584047Y-91745714D01*
X182488809Y-91555238D01*
X182393571Y-91460000D01*
X182203095Y-91364761D01*
X181822142Y-91364761D01*
X181631666Y-91460000D01*
X181536428Y-91555238D01*
X181441190Y-91745714D01*
X181441190Y-91840952D01*
X181536428Y-92031428D01*
X181631666Y-92126666D01*
X181822142Y-92221904D01*
X182203095Y-92221904D01*
X182393571Y-92317142D01*
X182488809Y-92412380D01*
X182584047Y-92602857D01*
X182584047Y-92983809D01*
X182488809Y-93174285D01*
X182393571Y-93269523D01*
X182203095Y-93364761D01*
X181822142Y-93364761D01*
X181631666Y-93269523D01*
X181536428Y-93174285D01*
X181441190Y-92983809D01*
X181441190Y-92602857D01*
X181536428Y-92412380D01*
X181631666Y-92317142D01*
X181822142Y-92221904D01*
X180584047Y-92602857D02*
X179060238Y-92602857D01*
X177060238Y-93364761D02*
X178203095Y-93364761D01*
X177631666Y-93364761D02*
X177631666Y-91364761D01*
X177822142Y-91650476D01*
X178012619Y-91840952D01*
X178203095Y-91936190D01*
X175345952Y-92031428D02*
X175345952Y-93364761D01*
X175822142Y-91269523D02*
X176298333Y-92698095D01*
X175060238Y-92698095D01*
X194543732Y-97174761D02*
X194543732Y-95174761D01*
X193781827Y-95174761D01*
X193591351Y-95270000D01*
X193496113Y-95365238D01*
X193400875Y-95555714D01*
X193400875Y-95841428D01*
X193496113Y-96031904D01*
X193591351Y-96127142D01*
X193781827Y-96222380D01*
X194543732Y-96222380D01*
X192543732Y-97174761D02*
X192543732Y-95841428D01*
X192543732Y-95174761D02*
X192638970Y-95270000D01*
X192543732Y-95365238D01*
X192448494Y-95270000D01*
X192543732Y-95174761D01*
X192543732Y-95365238D01*
X190734208Y-97079523D02*
X190924684Y-97174761D01*
X191305637Y-97174761D01*
X191496113Y-97079523D01*
X191591351Y-96984285D01*
X191686589Y-96793809D01*
X191686589Y-96222380D01*
X191591351Y-96031904D01*
X191496113Y-95936666D01*
X191305637Y-95841428D01*
X190924684Y-95841428D01*
X190734208Y-95936666D01*
X189591351Y-97174761D02*
X189781827Y-97079523D01*
X189877065Y-96984285D01*
X189972303Y-96793809D01*
X189972303Y-96222380D01*
X189877065Y-96031904D01*
X189781827Y-95936666D01*
X189591351Y-95841428D01*
X189305637Y-95841428D01*
X189115161Y-95936666D01*
X189019923Y-96031904D01*
X188924684Y-96222380D01*
X188924684Y-96793809D01*
X189019923Y-96984285D01*
X189115161Y-97079523D01*
X189305637Y-97174761D01*
X189591351Y-97174761D01*
X186924684Y-96984285D02*
X187019923Y-97079523D01*
X187305637Y-97174761D01*
X187496113Y-97174761D01*
X187781827Y-97079523D01*
X187972303Y-96889047D01*
X188067542Y-96698571D01*
X188162780Y-96317619D01*
X188162780Y-96031904D01*
X188067542Y-95650952D01*
X187972303Y-95460476D01*
X187781827Y-95270000D01*
X187496113Y-95174761D01*
X187305637Y-95174761D01*
X187019923Y-95270000D01*
X186924684Y-95365238D01*
X185210399Y-97174761D02*
X185210399Y-96127142D01*
X185305637Y-95936666D01*
X185496113Y-95841428D01*
X185877065Y-95841428D01*
X186067542Y-95936666D01*
X185210399Y-97079523D02*
X185400875Y-97174761D01*
X185877065Y-97174761D01*
X186067542Y-97079523D01*
X186162780Y-96889047D01*
X186162780Y-96698571D01*
X186067542Y-96508095D01*
X185877065Y-96412857D01*
X185400875Y-96412857D01*
X185210399Y-96317619D01*
X184258018Y-97174761D02*
X184258018Y-95841428D01*
X184258018Y-96222380D02*
X184162780Y-96031904D01*
X184067542Y-95936666D01*
X183877065Y-95841428D01*
X183686589Y-95841428D01*
X183305637Y-95841428D02*
X182543732Y-95841428D01*
X183019923Y-95174761D02*
X183019923Y-96889047D01*
X182924684Y-97079523D01*
X182734208Y-97174761D01*
X182543732Y-97174761D01*
X181019923Y-95174761D02*
X181400875Y-95174761D01*
X181591351Y-95270000D01*
X181686589Y-95365238D01*
X181877065Y-95650952D01*
X181972303Y-96031904D01*
X181972303Y-96793809D01*
X181877065Y-96984285D01*
X181781827Y-97079523D01*
X181591351Y-97174761D01*
X181210399Y-97174761D01*
X181019923Y-97079523D01*
X180924684Y-96984285D01*
X180829446Y-96793809D01*
X180829446Y-96317619D01*
X180924684Y-96127142D01*
X181019923Y-96031904D01*
X181210399Y-95936666D01*
X181591351Y-95936666D01*
X181781827Y-96031904D01*
X181877065Y-96127142D01*
X181972303Y-96317619D01*
X179115161Y-95841428D02*
X179115161Y-97174761D01*
X179591351Y-95079523D02*
X180067542Y-96508095D01*
X178829446Y-96508095D01*
X178067542Y-96412857D02*
X176543732Y-96412857D01*
X175305637Y-97174761D02*
X175496113Y-97079523D01*
X175591351Y-96889047D01*
X175591351Y-95174761D01*
X174543732Y-97174761D02*
X174543732Y-95841428D01*
X174543732Y-95174761D02*
X174638970Y-95270000D01*
X174543732Y-95365238D01*
X174448494Y-95270000D01*
X174543732Y-95174761D01*
X174543732Y-95365238D01*
X173877065Y-95841428D02*
X173115161Y-95841428D01*
X173591351Y-95174761D02*
X173591351Y-96889047D01*
X173496113Y-97079523D01*
X173305637Y-97174761D01*
X173115161Y-97174761D01*
X171686589Y-97079523D02*
X171877065Y-97174761D01*
X172258018Y-97174761D01*
X172448494Y-97079523D01*
X172543732Y-96889047D01*
X172543732Y-96127142D01*
X172448494Y-95936666D01*
X172258018Y-95841428D01*
X171877065Y-95841428D01*
X171686589Y-95936666D01*
X171591351Y-96127142D01*
X171591351Y-96317619D01*
X172543732Y-96508095D01*
X169400875Y-95841428D02*
X168924684Y-97174761D01*
X168448494Y-95841428D01*
X166638970Y-97174761D02*
X167781827Y-97174761D01*
X167210399Y-97174761D02*
X167210399Y-95174761D01*
X167400875Y-95460476D01*
X167591351Y-95650952D01*
X167781827Y-95746190D01*
X165781827Y-96984285D02*
X165686589Y-97079523D01*
X165781827Y-97174761D01*
X165877065Y-97079523D01*
X165781827Y-96984285D01*
X165781827Y-97174761D01*
X165019923Y-95174761D02*
X163781827Y-95174761D01*
X164448494Y-95936666D01*
X164162780Y-95936666D01*
X163972303Y-96031904D01*
X163877065Y-96127142D01*
X163781827Y-96317619D01*
X163781827Y-96793809D01*
X163877065Y-96984285D01*
X163972303Y-97079523D01*
X164162780Y-97174761D01*
X164734208Y-97174761D01*
X164924684Y-97079523D01*
X165019923Y-96984285D01*
M02*
