G04 #@! TF.GenerationSoftware,KiCad,Pcbnew,(6.0.7)*
G04 #@! TF.CreationDate,2022-08-14T23:45:14+02:00*
G04 #@! TF.ProjectId,picocart64_v1_lite,7069636f-6361-4727-9436-345f76315f6c,rev?*
G04 #@! TF.SameCoordinates,Original*
G04 #@! TF.FileFunction,Soldermask,Top*
G04 #@! TF.FilePolarity,Negative*
%FSLAX46Y46*%
G04 Gerber Fmt 4.6, Leading zero omitted, Abs format (unit mm)*
G04 Created by KiCad (PCBNEW (6.0.7)) date 2022-08-14 23:45:14*
%MOMM*%
%LPD*%
G01*
G04 APERTURE LIST*
G04 Aperture macros list*
%AMRoundRect*
0 Rectangle with rounded corners*
0 $1 Rounding radius*
0 $2 $3 $4 $5 $6 $7 $8 $9 X,Y pos of 4 corners*
0 Add a 4 corners polygon primitive as box body*
4,1,4,$2,$3,$4,$5,$6,$7,$8,$9,$2,$3,0*
0 Add four circle primitives for the rounded corners*
1,1,$1+$1,$2,$3*
1,1,$1+$1,$4,$5*
1,1,$1+$1,$6,$7*
1,1,$1+$1,$8,$9*
0 Add four rect primitives between the rounded corners*
20,1,$1+$1,$2,$3,$4,$5,0*
20,1,$1+$1,$4,$5,$6,$7,0*
20,1,$1+$1,$6,$7,$8,$9,0*
20,1,$1+$1,$8,$9,$2,$3,0*%
%AMFreePoly0*
4,1,39,0.570283,0.859363,0.618252,0.804004,0.630000,0.750000,0.630000,-0.750000,0.609363,-0.820283,0.554004,-0.868252,0.500000,-0.880000,0.000000,-0.880000,-0.017963,-0.874725,-0.082323,-0.873546,-0.118708,-0.867653,-0.254023,-0.825378,-0.287292,-0.809510,-0.405302,-0.730955,-0.432779,-0.706387,-0.523999,-0.597868,-0.543477,-0.566576,-0.600572,-0.436817,-0.610484,-0.401316,-0.628067,-0.266856,
-0.626381,-0.266636,-0.630000,-0.250000,-0.630000,0.250000,-0.628679,0.254499,-0.628415,0.276110,-0.606604,0.416187,-0.595828,0.451434,-0.535580,0.579759,-0.515343,0.610567,-0.421499,0.716825,-0.393430,0.740714,-0.273535,0.816362,-0.239889,0.831412,-0.103582,0.870369,-0.067063,0.875372,-0.022526,0.875100,0.000000,0.880000,0.500000,0.880000,0.570283,0.859363,0.570283,0.859363,
$1*%
%AMFreePoly1*
4,1,39,0.017523,0.874855,0.074698,0.874506,0.111153,0.869058,0.246974,0.828439,0.280434,0.812978,0.399396,0.735871,0.427172,0.711640,0.519710,0.604243,0.539568,0.573192,0.598245,0.444140,0.608590,0.408762,0.628687,0.268429,0.630000,0.250000,0.630000,-0.250000,0.629990,-0.251586,0.629841,-0.263802,0.628049,-0.283784,0.604529,-0.423585,0.593323,-0.458700,0.531511,-0.586279,
0.510900,-0.616835,0.415765,-0.721939,0.387405,-0.745484,0.266595,-0.819661,0.232768,-0.834299,0.095995,-0.871588,0.059418,-0.876144,0.020966,-0.875439,0.000000,-0.880000,-0.500000,-0.880000,-0.570283,-0.859363,-0.618252,-0.804004,-0.630000,-0.750000,-0.630000,0.750000,-0.609363,0.820283,-0.554004,0.868252,-0.500000,0.880000,0.000000,0.880000,0.017523,0.874855,0.017523,0.874855,
$1*%
G04 Aperture macros list end*
%ADD10FreePoly0,180.000000*%
%ADD11FreePoly1,180.000000*%
%ADD12C,2.760000*%
%ADD13RoundRect,0.130000X0.850000X0.850000X-0.850000X0.850000X-0.850000X-0.850000X0.850000X-0.850000X0*%
%ADD14RoundRect,0.130000X0.850000X-0.850000X0.850000X0.850000X-0.850000X0.850000X-0.850000X-0.850000X0*%
%ADD15O,1.960000X1.960000*%
%ADD16RoundRect,0.555000X0.425000X-0.425000X0.425000X0.425000X-0.425000X0.425000X-0.425000X-0.425000X0*%
%ADD17RoundRect,0.367500X-0.237500X0.250000X-0.237500X-0.250000X0.237500X-0.250000X0.237500X0.250000X0*%
%ADD18O,2.060000X2.060000*%
%ADD19O,1.760000X1.760000*%
%ADD20RoundRect,0.130000X-0.850000X1.750000X-0.850000X-1.750000X0.850000X-1.750000X0.850000X1.750000X0*%
%ADD21RoundRect,0.130000X-0.850000X0.850000X-0.850000X-0.850000X0.850000X-0.850000X0.850000X0.850000X0*%
%ADD22RoundRect,0.130000X-1.750000X-0.850000X1.750000X-0.850000X1.750000X0.850000X-1.750000X0.850000X0*%
%ADD23RoundRect,0.280000X0.587500X0.150000X-0.587500X0.150000X-0.587500X-0.150000X0.587500X-0.150000X0*%
%ADD24C,1.060000*%
G04 APERTURE END LIST*
D10*
X187095000Y-91940000D03*
D11*
X185795000Y-91940000D03*
D12*
X102850000Y-112600000D03*
X197650000Y-112600000D03*
D13*
X197939990Y-65199997D03*
X186300000Y-71550000D03*
D14*
X110705000Y-95000000D03*
D15*
X113245000Y-95000000D03*
X115785000Y-95000000D03*
X118325000Y-95000000D03*
X115785000Y-74680000D03*
X110705000Y-79760000D03*
X108165000Y-89920000D03*
X115785000Y-72140000D03*
X108165000Y-82300000D03*
X110705000Y-84840000D03*
X115785000Y-84840000D03*
X123405000Y-77220000D03*
X118325000Y-72140000D03*
X108165000Y-72140000D03*
X120865000Y-77220000D03*
X108165000Y-84840000D03*
X110705000Y-72140000D03*
X123405000Y-82300000D03*
X113245000Y-74680000D03*
X108165000Y-77220000D03*
X115785000Y-79760000D03*
X118325000Y-77220000D03*
X115785000Y-82300000D03*
X120865000Y-89920000D03*
X120865000Y-87380000D03*
X120865000Y-84840000D03*
X113245000Y-77220000D03*
X115785000Y-87380000D03*
X110705000Y-82300000D03*
X108165000Y-87380000D03*
X118325000Y-79760000D03*
X110705000Y-74680000D03*
X108165000Y-79760000D03*
X123405000Y-79760000D03*
X113245000Y-87380000D03*
X115785000Y-89920000D03*
X110705000Y-77220000D03*
X123405000Y-72140000D03*
X120865000Y-72140000D03*
X113245000Y-79760000D03*
X113245000Y-72140000D03*
X123405000Y-87380000D03*
X115785000Y-77220000D03*
X123405000Y-84840000D03*
X113245000Y-84840000D03*
X113245000Y-82300000D03*
X118325000Y-89920000D03*
X118325000Y-87380000D03*
X118325000Y-82300000D03*
X108165000Y-74680000D03*
X110705000Y-89920000D03*
X110705000Y-87380000D03*
X113245000Y-89920000D03*
X120865000Y-79760000D03*
X123405000Y-74680000D03*
X120865000Y-82300000D03*
X120865000Y-74680000D03*
X123405000Y-89920000D03*
X118325000Y-84840000D03*
X118325000Y-74680000D03*
D16*
X105625000Y-79760000D03*
X105625000Y-72140000D03*
X105625000Y-87380000D03*
X105625000Y-89920000D03*
X105625000Y-84840000D03*
X105625000Y-82300000D03*
X105625000Y-74680000D03*
X105625000Y-77220000D03*
D14*
X125945000Y-87380000D03*
X125945000Y-74680000D03*
X125945000Y-72140000D03*
X125945000Y-89920000D03*
X125945000Y-84840000D03*
X125945000Y-82300000D03*
X125945000Y-77220000D03*
X125945000Y-79760000D03*
D17*
X192925000Y-93097500D03*
X192925000Y-94922500D03*
D18*
X195288600Y-76800000D03*
D19*
X192258600Y-76500000D03*
D18*
X195288600Y-71350000D03*
D19*
X192258600Y-71650000D03*
D20*
X195418600Y-64285000D03*
D15*
X195418600Y-65185000D03*
X192878600Y-65185000D03*
D20*
X192878600Y-64285000D03*
X190338600Y-64285000D03*
D21*
X190338600Y-65185000D03*
D15*
X187798600Y-65185000D03*
D20*
X187798600Y-64285000D03*
D15*
X185258600Y-65185000D03*
D20*
X185258600Y-64285000D03*
X182718600Y-64285000D03*
D15*
X182718600Y-65185000D03*
X180178600Y-65185000D03*
D20*
X180178600Y-64285000D03*
D21*
X177638600Y-65185000D03*
D20*
X177638600Y-64285000D03*
X175098600Y-64285000D03*
D15*
X175098600Y-65185000D03*
X172558600Y-65185000D03*
D20*
X172558600Y-64285000D03*
D15*
X170018600Y-65185000D03*
D20*
X170018600Y-64285000D03*
D15*
X167478600Y-65185000D03*
D20*
X167478600Y-64285000D03*
D21*
X164938600Y-65185000D03*
D20*
X164938600Y-64285000D03*
X162398600Y-64285000D03*
D15*
X162398600Y-65185000D03*
X159858600Y-65185000D03*
D20*
X159858600Y-64285000D03*
X157318600Y-64285000D03*
D15*
X157318600Y-65185000D03*
X154778600Y-65185000D03*
D20*
X154778600Y-64285000D03*
X152238600Y-64285000D03*
D21*
X152238600Y-65185000D03*
D15*
X149698600Y-65185000D03*
D20*
X149698600Y-64285000D03*
X147158600Y-64285000D03*
D15*
X147158600Y-65185000D03*
X147158600Y-82965000D03*
D20*
X147158600Y-83865000D03*
D15*
X149698600Y-82965000D03*
D20*
X149698600Y-83865000D03*
X152238600Y-83865000D03*
D21*
X152238600Y-82965000D03*
D20*
X154778600Y-83865000D03*
D15*
X154778600Y-82965000D03*
X157318600Y-82965000D03*
D20*
X157318600Y-83865000D03*
D15*
X159858600Y-82965000D03*
D20*
X159858600Y-83865000D03*
D15*
X162398600Y-82965000D03*
D20*
X162398600Y-83865000D03*
D21*
X164938600Y-82965000D03*
D20*
X164938600Y-83865000D03*
X167478600Y-83865000D03*
D15*
X167478600Y-82965000D03*
X170018600Y-82965000D03*
D20*
X170018600Y-83865000D03*
D15*
X172558600Y-82965000D03*
D20*
X172558600Y-83865000D03*
X175098600Y-83865000D03*
D15*
X175098600Y-82965000D03*
D21*
X177638600Y-82965000D03*
D20*
X177638600Y-83865000D03*
X180178600Y-83865000D03*
D15*
X180178600Y-82965000D03*
X182718600Y-82965000D03*
D20*
X182718600Y-83865000D03*
D15*
X185258600Y-82965000D03*
D20*
X185258600Y-83865000D03*
D15*
X187798600Y-82965000D03*
D20*
X187798600Y-83865000D03*
D21*
X190338600Y-82965000D03*
D20*
X190338600Y-83865000D03*
D15*
X192878600Y-82965000D03*
D20*
X192878600Y-83865000D03*
X195418600Y-83865000D03*
D15*
X195418600Y-82965000D03*
D22*
X146488600Y-71535000D03*
D15*
X147388600Y-71535000D03*
D21*
X147388600Y-74075000D03*
D22*
X146488600Y-74075000D03*
D15*
X147388600Y-76615000D03*
D22*
X146488600Y-76615000D03*
D14*
X108165000Y-67060000D03*
D15*
X110705000Y-67060000D03*
X113245000Y-67060000D03*
X115785000Y-67060000D03*
X118325000Y-67060000D03*
X120865000Y-67060000D03*
X123405000Y-67060000D03*
D23*
X192912500Y-91410000D03*
X192912500Y-89510000D03*
X191037500Y-90460000D03*
D24*
X180250000Y-111350000D03*
X180250000Y-108800000D03*
X177750000Y-111350000D03*
X177750000Y-108750000D03*
X167750000Y-108800000D03*
X167750000Y-110050000D03*
X127750000Y-111350000D03*
X127750000Y-108250000D03*
X125250000Y-108150000D03*
X125250000Y-111350000D03*
X120250000Y-111350000D03*
X120250000Y-108200000D03*
X130810000Y-63336550D03*
X141075000Y-91006500D03*
X140905318Y-73660000D03*
X181610000Y-68538966D03*
X115589704Y-102837791D03*
X190500000Y-87630000D03*
X105410000Y-63500000D03*
X101425000Y-92053295D03*
X177380000Y-80364914D03*
X192620000Y-80364914D03*
X110490000Y-107937495D03*
X115570000Y-107917791D03*
X197953903Y-92060000D03*
X157275000Y-78710000D03*
X168075000Y-100110000D03*
X180047000Y-92460000D03*
X189175000Y-108563500D03*
X181375000Y-96410000D03*
X137275000Y-79010000D03*
X138825000Y-107010000D03*
X105429704Y-102870000D03*
X148475000Y-89210000D03*
X164825000Y-78010000D03*
X129150000Y-100650000D03*
X125730000Y-102814488D03*
X183075000Y-80308167D03*
X152075000Y-78610000D03*
X102356903Y-77960000D03*
X110545560Y-98779704D03*
X102322855Y-75960000D03*
X179275000Y-98910000D03*
X115570000Y-63459124D03*
X162975000Y-88210000D03*
X101384142Y-89553295D03*
X176375000Y-68410000D03*
X197872187Y-87060000D03*
X132600000Y-88300000D03*
X101596097Y-107053295D03*
X173925000Y-97460000D03*
X179075000Y-78410000D03*
X167775000Y-91006500D03*
X102288806Y-73960000D03*
X187958792Y-80395000D03*
X120650000Y-63418266D03*
X172975000Y-80710000D03*
X164075000Y-108210000D03*
X162775000Y-80110000D03*
X197831329Y-84560000D03*
X115625560Y-98760000D03*
X149775000Y-98110000D03*
X147475000Y-103710000D03*
X171295000Y-68432806D03*
X195160000Y-80336540D03*
X176175000Y-75010000D03*
X195075000Y-67260000D03*
X102390951Y-79960000D03*
X185575000Y-94510000D03*
X159875000Y-78610000D03*
X139875000Y-87910000D03*
X173835000Y-68421403D03*
X149776384Y-74510000D03*
X149748011Y-72510000D03*
X190080000Y-80393288D03*
X195875000Y-97910000D03*
X163679048Y-68410000D03*
X120669704Y-102818088D03*
X168755000Y-68432805D03*
X137375000Y-83310000D03*
X139975000Y-104010000D03*
X144675000Y-91006500D03*
X197913045Y-89560000D03*
X169125000Y-88015000D03*
X198076477Y-99560000D03*
X129200000Y-82350000D03*
X120705560Y-97738088D03*
X135890000Y-63295692D03*
X183825000Y-76010000D03*
X197994761Y-94560000D03*
X159975000Y-88610000D03*
X152075000Y-71510000D03*
X195875000Y-102870000D03*
X101465858Y-94553295D03*
X181164600Y-89208800D03*
X182880000Y-87587963D03*
X191325000Y-69760000D03*
X169531400Y-106480800D03*
X101588432Y-102053295D03*
X198124999Y-104560000D03*
X154775000Y-78610000D03*
X192175000Y-108563500D03*
X198125000Y-107060000D03*
X102425000Y-85960000D03*
X152075000Y-88910000D03*
X102425000Y-81960000D03*
X149575000Y-78610000D03*
X101547574Y-99553295D03*
X170180000Y-80400496D03*
X140946176Y-68580000D03*
X186575000Y-74260000D03*
X150075000Y-106110000D03*
X166300000Y-106050000D03*
X142075000Y-84710000D03*
X140727800Y-98251200D03*
X125730000Y-63377408D03*
X105410000Y-107950000D03*
X186075000Y-108563500D03*
X132600000Y-82200000D03*
X173975000Y-88010000D03*
X187960000Y-97759352D03*
X105465560Y-97790000D03*
X110509704Y-102857495D03*
X160775000Y-68410000D03*
X101506716Y-97053295D03*
X198035619Y-97060000D03*
X151675000Y-75810000D03*
X167640000Y-80424141D03*
X163175000Y-91006500D03*
X166179048Y-68410000D03*
X139775000Y-81410000D03*
X101596096Y-104553295D03*
X198117335Y-102060000D03*
X155575000Y-68810000D03*
X149804758Y-76510000D03*
X129200000Y-91006500D03*
X125765856Y-97734488D03*
X110490000Y-63499982D03*
X140970000Y-63254834D03*
X174225000Y-102210000D03*
X130950000Y-104850000D03*
X136575000Y-111310000D03*
X142675000Y-81510000D03*
X160241000Y-110259000D03*
X140241000Y-110259000D03*
X140241000Y-111259000D03*
X160241000Y-111252000D03*
X144775000Y-80110000D03*
X133975000Y-110510000D03*
X194175000Y-106210000D03*
X191575000Y-104910000D03*
X189075000Y-102910000D03*
X186675000Y-104260000D03*
X165275000Y-99360000D03*
X166425000Y-96610000D03*
X146075000Y-101810000D03*
X147575000Y-98210000D03*
X142750000Y-110700000D03*
X164825000Y-95210000D03*
X145250000Y-110510000D03*
X161175000Y-97660000D03*
X151275000Y-111110000D03*
X154200000Y-111200000D03*
X158625000Y-100660000D03*
X181400000Y-77855000D03*
X178875000Y-88810000D03*
X176375000Y-92410000D03*
X161775000Y-110810000D03*
X148475000Y-106510000D03*
X149775000Y-110010000D03*
X157050000Y-110750000D03*
X157750000Y-109700000D03*
X157325000Y-104510000D03*
X132750000Y-90350000D03*
G36*
X199942121Y-90020002D02*
G01*
X199988614Y-90073658D01*
X200000000Y-90126000D01*
X200000000Y-109728000D01*
X199979998Y-109796121D01*
X199926342Y-109842614D01*
X199874000Y-109854000D01*
X196503088Y-109854000D01*
X196496906Y-109853848D01*
X196481291Y-109853081D01*
X196468985Y-109851869D01*
X196456574Y-109850028D01*
X196444448Y-109847616D01*
X196432267Y-109844565D01*
X196420435Y-109840976D01*
X196408629Y-109836752D01*
X196397202Y-109832019D01*
X196385859Y-109826654D01*
X196374948Y-109820822D01*
X196364190Y-109814373D01*
X196353921Y-109807511D01*
X196343837Y-109800033D01*
X196334267Y-109792179D01*
X196324975Y-109783756D01*
X196316244Y-109775025D01*
X196307821Y-109765733D01*
X196299967Y-109756163D01*
X196292489Y-109746079D01*
X196285627Y-109735810D01*
X196279178Y-109725052D01*
X196273346Y-109714141D01*
X196267981Y-109702798D01*
X196263248Y-109691371D01*
X196259024Y-109679565D01*
X196255435Y-109667733D01*
X196252650Y-109656614D01*
X196255501Y-109585674D01*
X196296253Y-109527538D01*
X196361966Y-109500663D01*
X196374874Y-109500000D01*
X196481885Y-109500000D01*
X196497124Y-109495525D01*
X196498329Y-109494135D01*
X196500000Y-109486452D01*
X196500000Y-90126000D01*
X196520002Y-90057879D01*
X196573658Y-90011386D01*
X196626000Y-90000000D01*
X199874000Y-90000000D01*
X199942121Y-90020002D01*
G37*
G36*
X103442121Y-88520002D02*
G01*
X103488614Y-88573658D01*
X103500000Y-88626000D01*
X103500000Y-109481885D01*
X103504475Y-109497124D01*
X103505865Y-109498329D01*
X103513548Y-109500000D01*
X103520838Y-109500000D01*
X103588959Y-109520002D01*
X103635452Y-109573658D01*
X103645556Y-109643932D01*
X103616062Y-109708512D01*
X103556336Y-109746896D01*
X103539329Y-109750636D01*
X103531018Y-109751869D01*
X103518709Y-109753081D01*
X103503094Y-109753848D01*
X103496912Y-109754000D01*
X100126000Y-109754000D01*
X100057879Y-109733998D01*
X100011386Y-109680342D01*
X100000000Y-109628000D01*
X100000000Y-88626000D01*
X100020002Y-88557879D01*
X100073658Y-88511386D01*
X100126000Y-88500000D01*
X103374000Y-88500000D01*
X103442121Y-88520002D01*
G37*
G36*
X182442121Y-113020002D02*
G01*
X182488614Y-113073658D01*
X182500000Y-113126000D01*
X182500000Y-118947810D01*
X182479998Y-119015931D01*
X182463095Y-119036905D01*
X181536905Y-119963095D01*
X181474593Y-119997121D01*
X181447810Y-120000000D01*
X119052190Y-120000000D01*
X118984069Y-119979998D01*
X118963095Y-119963095D01*
X118036905Y-119036905D01*
X118002879Y-118974593D01*
X118000000Y-118947810D01*
X118000000Y-113126000D01*
X118020002Y-113057879D01*
X118073658Y-113011386D01*
X118126000Y-113000000D01*
X182374000Y-113000000D01*
X182442121Y-113020002D01*
G37*
G36*
X199942121Y-109266002D02*
G01*
X199988614Y-109319658D01*
X200000000Y-109372000D01*
X200000000Y-115491742D01*
X199998922Y-115508188D01*
X199985128Y-115612963D01*
X199976615Y-115644735D01*
X199939361Y-115734674D01*
X199922914Y-115763160D01*
X199863651Y-115840393D01*
X199840393Y-115863651D01*
X199763160Y-115922914D01*
X199734674Y-115939361D01*
X199644735Y-115976615D01*
X199612963Y-115985128D01*
X199508188Y-115998922D01*
X199491742Y-116000000D01*
X194508258Y-116000000D01*
X194491812Y-115998922D01*
X194387037Y-115985128D01*
X194355265Y-115976615D01*
X194265326Y-115939361D01*
X194236840Y-115922914D01*
X194159607Y-115863651D01*
X194136349Y-115840393D01*
X194077086Y-115763160D01*
X194060639Y-115734674D01*
X194023385Y-115644735D01*
X194014872Y-115612963D01*
X194001078Y-115508188D01*
X194000000Y-115491742D01*
X194000000Y-109626000D01*
X194020002Y-109557879D01*
X194073658Y-109511386D01*
X194126000Y-109500000D01*
X196481885Y-109500000D01*
X196497124Y-109495525D01*
X196498329Y-109494135D01*
X196500000Y-109486452D01*
X196500000Y-109372000D01*
X196520002Y-109303879D01*
X196573658Y-109257386D01*
X196626000Y-109246000D01*
X199874000Y-109246000D01*
X199942121Y-109266002D01*
G37*
G36*
X103442121Y-109266002D02*
G01*
X103488614Y-109319658D01*
X103500000Y-109372000D01*
X103500000Y-109481885D01*
X103504475Y-109497124D01*
X103505865Y-109498329D01*
X103513548Y-109500000D01*
X106374000Y-109500000D01*
X106442121Y-109520002D01*
X106488614Y-109573658D01*
X106500000Y-109626000D01*
X106500000Y-115491742D01*
X106498922Y-115508188D01*
X106485128Y-115612963D01*
X106476615Y-115644735D01*
X106439361Y-115734674D01*
X106422914Y-115763160D01*
X106363651Y-115840393D01*
X106340393Y-115863651D01*
X106263160Y-115922914D01*
X106234674Y-115939361D01*
X106144735Y-115976615D01*
X106112963Y-115985128D01*
X106008188Y-115998922D01*
X105991742Y-116000000D01*
X100508258Y-116000000D01*
X100491812Y-115998922D01*
X100387037Y-115985128D01*
X100355265Y-115976615D01*
X100265326Y-115939361D01*
X100236840Y-115922914D01*
X100159607Y-115863651D01*
X100136349Y-115840393D01*
X100077086Y-115763160D01*
X100060639Y-115734674D01*
X100023385Y-115644735D01*
X100014872Y-115612963D01*
X100001078Y-115508188D01*
X100000000Y-115491742D01*
X100000000Y-109372000D01*
X100020002Y-109303879D01*
X100073658Y-109257386D01*
X100126000Y-109246000D01*
X103374000Y-109246000D01*
X103442121Y-109266002D01*
G37*
G36*
X182480771Y-112993068D02*
G01*
X182499430Y-112998068D01*
X182500718Y-112999356D01*
X182501000Y-112999356D01*
X182501932Y-113000570D01*
X182506932Y-113019231D01*
X182507000Y-113019749D01*
X182507000Y-118980253D01*
X182506932Y-118980771D01*
X182501932Y-118999432D01*
X182501510Y-118999854D01*
X182501535Y-118999879D01*
X182501535Y-119000915D01*
X182499000Y-119010375D01*
X182498654Y-119011075D01*
X182498167Y-119011709D01*
X182497995Y-119011905D01*
X181518916Y-119990984D01*
X181518502Y-119991302D01*
X181501769Y-120000963D01*
X181501169Y-120000963D01*
X181501169Y-120001000D01*
X181500437Y-120001732D01*
X181491957Y-120006628D01*
X181491219Y-120006879D01*
X181490431Y-120006983D01*
X181490169Y-120007000D01*
X119019749Y-120007000D01*
X119019231Y-120006932D01*
X119000571Y-120001932D01*
X119000146Y-120001507D01*
X119000119Y-120001533D01*
X118999083Y-120001533D01*
X118989625Y-119998999D01*
X118988926Y-119998654D01*
X118988290Y-119998166D01*
X118988093Y-119997993D01*
X118009016Y-119018916D01*
X118008698Y-119018502D01*
X117999037Y-119001769D01*
X117999037Y-119001169D01*
X117999000Y-119001169D01*
X117998268Y-119000437D01*
X117997599Y-118999279D01*
X118002000Y-118999279D01*
X118002183Y-118999355D01*
X119000904Y-119998076D01*
X119001089Y-119998000D01*
X181499279Y-119998000D01*
X181499355Y-119997817D01*
X182498076Y-118999096D01*
X182498000Y-118998914D01*
X182498000Y-113002000D01*
X118002000Y-113002000D01*
X118002000Y-118999279D01*
X117997599Y-118999279D01*
X117993372Y-118991957D01*
X117993121Y-118991219D01*
X117993017Y-118990431D01*
X117993000Y-118990169D01*
X117993000Y-113019749D01*
X117993068Y-113019231D01*
X117998068Y-113000570D01*
X117999356Y-112999282D01*
X117999356Y-112999000D01*
X118000570Y-112998068D01*
X118019231Y-112993068D01*
X118019749Y-112993000D01*
X182480253Y-112993000D01*
X182480771Y-112993068D01*
G37*
G36*
X197428783Y-89758770D02*
G01*
X197455798Y-89823990D01*
X197539705Y-89933340D01*
X197624510Y-89998413D01*
X197625275Y-90000261D01*
X197624057Y-90001848D01*
X197623292Y-90002000D01*
X196502000Y-90002000D01*
X196502000Y-109500000D01*
X196501000Y-109501732D01*
X196500000Y-109502000D01*
X194002000Y-109502000D01*
X194002000Y-115499868D01*
X194018986Y-115628888D01*
X194068733Y-115748990D01*
X194147874Y-115852126D01*
X194251010Y-115931267D01*
X194371112Y-115981014D01*
X194500132Y-115998000D01*
X199499868Y-115998000D01*
X199628888Y-115981014D01*
X199748990Y-115931267D01*
X199852126Y-115852126D01*
X199931267Y-115748990D01*
X199981014Y-115628888D01*
X199998000Y-115499868D01*
X199998000Y-90002000D01*
X198202798Y-90002000D01*
X198201066Y-90001000D01*
X198201066Y-89999000D01*
X198201580Y-89998413D01*
X198286385Y-89933340D01*
X198370292Y-89823990D01*
X198385012Y-89788451D01*
X198386599Y-89787233D01*
X198388447Y-89787998D01*
X198388846Y-89789456D01*
X198379602Y-89865844D01*
X198409646Y-89936279D01*
X198470939Y-89982299D01*
X198526249Y-89993000D01*
X199980253Y-89993000D01*
X199980771Y-89993068D01*
X199999430Y-89998068D01*
X200000718Y-89999356D01*
X200001000Y-89999356D01*
X200001932Y-90000570D01*
X200006932Y-90019231D01*
X200007000Y-90019749D01*
X200007000Y-115495088D01*
X200006996Y-115495219D01*
X200006312Y-115505649D01*
X200006299Y-115505779D01*
X199991186Y-115620576D01*
X199991135Y-115620833D01*
X199985751Y-115640926D01*
X199985667Y-115641173D01*
X199943243Y-115743595D01*
X199943127Y-115743830D01*
X199932727Y-115761842D01*
X199932582Y-115762060D01*
X199865089Y-115850018D01*
X199864916Y-115850214D01*
X199850214Y-115864916D01*
X199850018Y-115865089D01*
X199762060Y-115932582D01*
X199761842Y-115932727D01*
X199743830Y-115943127D01*
X199743595Y-115943243D01*
X199641173Y-115985667D01*
X199640926Y-115985751D01*
X199620833Y-115991135D01*
X199620576Y-115991186D01*
X199505779Y-116006299D01*
X199505649Y-116006312D01*
X199495219Y-116006996D01*
X199495088Y-116007000D01*
X194504912Y-116007000D01*
X194504781Y-116006996D01*
X194494351Y-116006312D01*
X194494221Y-116006299D01*
X194379424Y-115991186D01*
X194379167Y-115991135D01*
X194359074Y-115985751D01*
X194358827Y-115985667D01*
X194256405Y-115943243D01*
X194256170Y-115943127D01*
X194238158Y-115932727D01*
X194237940Y-115932582D01*
X194149982Y-115865089D01*
X194149786Y-115864916D01*
X194135084Y-115850214D01*
X194134911Y-115850018D01*
X194067418Y-115762060D01*
X194067273Y-115761842D01*
X194056873Y-115743830D01*
X194056757Y-115743595D01*
X194014333Y-115641173D01*
X194014249Y-115640926D01*
X194008865Y-115620833D01*
X194008814Y-115620576D01*
X193993701Y-115505779D01*
X193993688Y-115505649D01*
X193993004Y-115495219D01*
X193993000Y-115495088D01*
X193993000Y-109519749D01*
X193993068Y-109519231D01*
X193998068Y-109500570D01*
X193999356Y-109499282D01*
X193999356Y-109499000D01*
X194000570Y-109498068D01*
X194019231Y-109493068D01*
X194019749Y-109493000D01*
X196344737Y-109493000D01*
X196418967Y-109473110D01*
X196473110Y-109418967D01*
X196493000Y-109344737D01*
X196493000Y-103356626D01*
X196473110Y-103282397D01*
X196418967Y-103228253D01*
X196345001Y-103208434D01*
X196270863Y-103228299D01*
X196257639Y-103237644D01*
X196255648Y-103237827D01*
X196254493Y-103236194D01*
X196254898Y-103234793D01*
X196332247Y-103133990D01*
X196384992Y-103006652D01*
X196402983Y-102870000D01*
X196384992Y-102733348D01*
X196332247Y-102606010D01*
X196252746Y-102502402D01*
X196252485Y-102500419D01*
X196254072Y-102499201D01*
X196255232Y-102499397D01*
X196315003Y-102529458D01*
X196391449Y-102525051D01*
X196455450Y-102483011D01*
X196489930Y-102414452D01*
X196493000Y-102384498D01*
X196493000Y-98396626D01*
X196473110Y-98322397D01*
X196418967Y-98268253D01*
X196345001Y-98248434D01*
X196270863Y-98268299D01*
X196257639Y-98277644D01*
X196255648Y-98277827D01*
X196254493Y-98276194D01*
X196254898Y-98274793D01*
X196332247Y-98173990D01*
X196384992Y-98046652D01*
X196402983Y-97910000D01*
X196384992Y-97773348D01*
X196332247Y-97646010D01*
X196252746Y-97542402D01*
X196252485Y-97540419D01*
X196254072Y-97539201D01*
X196255232Y-97539397D01*
X196315003Y-97569458D01*
X196391449Y-97565051D01*
X196455450Y-97523011D01*
X196489930Y-97454452D01*
X196493000Y-97424498D01*
X196493000Y-90019749D01*
X196493068Y-90019231D01*
X196498068Y-90000570D01*
X196499356Y-89999282D01*
X196499356Y-89999000D01*
X196500570Y-89998068D01*
X196519231Y-89993068D01*
X196519749Y-89993000D01*
X197298220Y-89993000D01*
X197372450Y-89973110D01*
X197426593Y-89918967D01*
X197446436Y-89844911D01*
X197437409Y-89793974D01*
X197425057Y-89760222D01*
X197425401Y-89758252D01*
X197427279Y-89757565D01*
X197428783Y-89758770D01*
G37*
G36*
X103480771Y-88493068D02*
G01*
X103499430Y-88498068D01*
X103500718Y-88499356D01*
X103501000Y-88499356D01*
X103501932Y-88500570D01*
X103506932Y-88519231D01*
X103507000Y-88519749D01*
X103507000Y-109344737D01*
X103526890Y-109418967D01*
X103581034Y-109473110D01*
X103655263Y-109493000D01*
X106480253Y-109493000D01*
X106480771Y-109493068D01*
X106499430Y-109498068D01*
X106500718Y-109499356D01*
X106501000Y-109499356D01*
X106501932Y-109500570D01*
X106506932Y-109519231D01*
X106507000Y-109519749D01*
X106507000Y-115495088D01*
X106506996Y-115495219D01*
X106506312Y-115505649D01*
X106506299Y-115505779D01*
X106491186Y-115620576D01*
X106491135Y-115620833D01*
X106485751Y-115640926D01*
X106485667Y-115641173D01*
X106443243Y-115743595D01*
X106443127Y-115743830D01*
X106432727Y-115761842D01*
X106432582Y-115762060D01*
X106365089Y-115850018D01*
X106364916Y-115850214D01*
X106350214Y-115864916D01*
X106350018Y-115865089D01*
X106262060Y-115932582D01*
X106261842Y-115932727D01*
X106243830Y-115943127D01*
X106243595Y-115943243D01*
X106141173Y-115985667D01*
X106140926Y-115985751D01*
X106120833Y-115991135D01*
X106120576Y-115991186D01*
X106005779Y-116006299D01*
X106005649Y-116006312D01*
X105995219Y-116006996D01*
X105995088Y-116007000D01*
X100504912Y-116007000D01*
X100504781Y-116006996D01*
X100494351Y-116006312D01*
X100494221Y-116006299D01*
X100379424Y-115991186D01*
X100379167Y-115991135D01*
X100359074Y-115985751D01*
X100358827Y-115985667D01*
X100256405Y-115943243D01*
X100256170Y-115943127D01*
X100238158Y-115932727D01*
X100237940Y-115932582D01*
X100149982Y-115865089D01*
X100149786Y-115864916D01*
X100135084Y-115850214D01*
X100134911Y-115850018D01*
X100067418Y-115762060D01*
X100067273Y-115761842D01*
X100056873Y-115743830D01*
X100056757Y-115743595D01*
X100014333Y-115641173D01*
X100014249Y-115640926D01*
X100008865Y-115620833D01*
X100008814Y-115620576D01*
X99993701Y-115505779D01*
X99993688Y-115505649D01*
X99993309Y-115499868D01*
X100002000Y-115499868D01*
X100018986Y-115628888D01*
X100068733Y-115748990D01*
X100147874Y-115852126D01*
X100251010Y-115931267D01*
X100371112Y-115981014D01*
X100500132Y-115998000D01*
X105999868Y-115998000D01*
X106128888Y-115981014D01*
X106248990Y-115931267D01*
X106352126Y-115852126D01*
X106431267Y-115748990D01*
X106481014Y-115628888D01*
X106498000Y-115499868D01*
X106498000Y-109502000D01*
X103500000Y-109502000D01*
X103498268Y-109501000D01*
X103498000Y-109500000D01*
X103498000Y-88502000D01*
X100002000Y-88502000D01*
X100002000Y-115499868D01*
X99993309Y-115499868D01*
X99993004Y-115495219D01*
X99993000Y-115495088D01*
X99993000Y-88519749D01*
X99993068Y-88519231D01*
X99998068Y-88500570D01*
X99999356Y-88499282D01*
X99999356Y-88499000D01*
X100000570Y-88498068D01*
X100019231Y-88493068D01*
X100019749Y-88493000D01*
X103480253Y-88493000D01*
X103480771Y-88493068D01*
G37*
G36*
X139900220Y-110657324D02*
G01*
X139977010Y-110716247D01*
X140075763Y-110757152D01*
X140076981Y-110758739D01*
X140076216Y-110760587D01*
X140075763Y-110760848D01*
X139977010Y-110801753D01*
X139891097Y-110867676D01*
X139889114Y-110867937D01*
X139887896Y-110866350D01*
X139888219Y-110864974D01*
X139927289Y-110806830D01*
X139932498Y-110730435D01*
X139898715Y-110661477D01*
X139897573Y-110660310D01*
X139897076Y-110658373D01*
X139898505Y-110656974D01*
X139900220Y-110657324D01*
G37*
G36*
X159897826Y-110655487D02*
G01*
X159977010Y-110716247D01*
X160067314Y-110753652D01*
X160068532Y-110755239D01*
X160067767Y-110757087D01*
X160067314Y-110757348D01*
X159977010Y-110794753D01*
X159887740Y-110863252D01*
X159885757Y-110863513D01*
X159884539Y-110861926D01*
X159884862Y-110860549D01*
X159923362Y-110803257D01*
X159928570Y-110726863D01*
X159894812Y-110657954D01*
X159894948Y-110655958D01*
X159896744Y-110655079D01*
X159897826Y-110655487D01*
G37*
G36*
X140595406Y-110650651D02*
G01*
X140595071Y-110652045D01*
X140555373Y-110709806D01*
X140549366Y-110786144D01*
X140582419Y-110855441D01*
X140585209Y-110858290D01*
X140585706Y-110860227D01*
X140584277Y-110861626D01*
X140582562Y-110861276D01*
X140504990Y-110801753D01*
X140406237Y-110760848D01*
X140405019Y-110759261D01*
X140405784Y-110757413D01*
X140406237Y-110757152D01*
X140504990Y-110716247D01*
X140592205Y-110649325D01*
X140594188Y-110649064D01*
X140595406Y-110650651D01*
G37*
G36*
X160598910Y-110647962D02*
G01*
X160598575Y-110649356D01*
X160559385Y-110706380D01*
X160553377Y-110782718D01*
X160586429Y-110852012D01*
X160587265Y-110852866D01*
X160587762Y-110854803D01*
X160586334Y-110856203D01*
X160584618Y-110855853D01*
X160504990Y-110794753D01*
X160414686Y-110757348D01*
X160413468Y-110755761D01*
X160414233Y-110753913D01*
X160414686Y-110753652D01*
X160504990Y-110716247D01*
X160595709Y-110646636D01*
X160597692Y-110646375D01*
X160598910Y-110647962D01*
G37*
G36*
X157326447Y-110007901D02*
G01*
X157376660Y-110073340D01*
X157486010Y-110157247D01*
X157613348Y-110209992D01*
X157625557Y-110211600D01*
X157627144Y-110212818D01*
X157626883Y-110214801D01*
X157625306Y-110215583D01*
X157561106Y-110215919D01*
X157494991Y-110254553D01*
X157457054Y-110321066D01*
X157457456Y-110397739D01*
X157477299Y-110440489D01*
X157477121Y-110442481D01*
X157475307Y-110443323D01*
X157473898Y-110442549D01*
X157423340Y-110376660D01*
X157313990Y-110292753D01*
X157186652Y-110240008D01*
X157177604Y-110238817D01*
X157176017Y-110237599D01*
X157176278Y-110235617D01*
X157177834Y-110234834D01*
X157240331Y-110233851D01*
X157306034Y-110194528D01*
X157343275Y-110127619D01*
X157342070Y-110050944D01*
X157323046Y-110009961D01*
X157323224Y-110007969D01*
X157325038Y-110007127D01*
X157326447Y-110007901D01*
G37*
G36*
X167613348Y-109309992D02*
G01*
X167750000Y-109327983D01*
X167886652Y-109309992D01*
X167963195Y-109278287D01*
X167965178Y-109278548D01*
X167965943Y-109280396D01*
X167964859Y-109281922D01*
X167944780Y-109292020D01*
X167887407Y-109343137D01*
X167863363Y-109415840D01*
X167878891Y-109490822D01*
X167929976Y-109548160D01*
X167941833Y-109555172D01*
X167971088Y-109570662D01*
X167972151Y-109572357D01*
X167971215Y-109574124D01*
X167969387Y-109574278D01*
X167886652Y-109540008D01*
X167750000Y-109522017D01*
X167613348Y-109540008D01*
X167533646Y-109573022D01*
X167531663Y-109572761D01*
X167530898Y-109570913D01*
X167531964Y-109569397D01*
X167555296Y-109557354D01*
X167612135Y-109505634D01*
X167635415Y-109432687D01*
X167619103Y-109357870D01*
X167567409Y-109301060D01*
X167558252Y-109295644D01*
X167525971Y-109278117D01*
X167524926Y-109276411D01*
X167525880Y-109274654D01*
X167527690Y-109274511D01*
X167613348Y-109309992D01*
G37*
G36*
X186439881Y-91106665D02*
G01*
X186512366Y-91089616D01*
X186514281Y-91090193D01*
X186514739Y-91092140D01*
X186513935Y-91093226D01*
X186504518Y-91099518D01*
X186476781Y-91141030D01*
X186467000Y-91190199D01*
X186467000Y-92689801D01*
X186476781Y-92738970D01*
X186504518Y-92780482D01*
X186518560Y-92789865D01*
X186519445Y-92791659D01*
X186518334Y-92793322D01*
X186516872Y-92793443D01*
X186450119Y-92773335D01*
X186377634Y-92790384D01*
X186375719Y-92789807D01*
X186375261Y-92787860D01*
X186376065Y-92786774D01*
X186385482Y-92780482D01*
X186413219Y-92738970D01*
X186423000Y-92689801D01*
X186423000Y-91190199D01*
X186413219Y-91141030D01*
X186385482Y-91099518D01*
X186371440Y-91090135D01*
X186370555Y-91088341D01*
X186371666Y-91086678D01*
X186373128Y-91086557D01*
X186439881Y-91106665D01*
G37*
M02*
