M48
; DRILL file {KiCad (6.0.7)} date Sun 14 Aug 2022 11:45:17 PM CEST
; FORMAT={-:-/ absolute / inch / decimal}
; #@! TF.CreationDate,2022-08-14T23:45:17+02:00
; #@! TF.GenerationSoftware,Kicad,Pcbnew,(6.0.7)
; #@! TF.FileFunction,Plated,1,2,PTH
FMAT,2
INCH
; #@! TA.AperFunction,Plated,PTH,ViaDrill
T1C0.0157
; #@! TA.AperFunction,Plated,PTH,ComponentDrill
T2C0.0394
; #@! TA.AperFunction,Plated,PTH,ComponentDrill
T3C0.0402
; #@! TA.AperFunction,Plated,PTH,ComponentDrill
T4C0.0984
%
G90
G05
T1
X3.9915Y-3.5257
X3.9931Y-3.6241
X3.9947Y-3.7226
X3.9963Y-3.821
X3.9979Y-3.9194
X3.9995Y-4.0178
X3.9998Y-4.1163
X3.9998Y-4.2147
X4.0271Y-2.9118
X4.0285Y-2.9906
X4.0298Y-3.0693
X4.0311Y-3.148
X4.0325Y-3.2268
X4.0325Y-3.3843
X4.15Y-2.5
X4.15Y-4.25
X4.1508Y-4.05
X4.1522Y-3.85
X4.35Y-2.5
X4.35Y-4.2495
X4.3508Y-4.0495
X4.3522Y-3.889
X4.55Y-2.4984
X4.55Y-4.2487
X4.5508Y-4.0487
X4.5522Y-3.8882
X4.7343Y-4.2598
X4.7343Y-4.3839
X4.75Y-2.4968
X4.7508Y-4.048
X4.7522Y-3.848
X4.9311Y-4.2579
X4.9311Y-4.3839
X4.95Y-2.4952
X4.95Y-4.0478
X4.9514Y-3.8478
X5.0295Y-4.2618
X5.0295Y-4.3839
X5.0846Y-3.9626
X5.0866Y-3.2421
X5.0866Y-3.5829
X5.15Y-2.4936
X5.1555Y-4.128
X5.2205Y-3.2362
X5.2205Y-3.4764
X5.2264Y-3.5571
X5.2746Y-4.3508
X5.35Y-2.492
X5.377Y-4.3823
X5.4045Y-3.1106
X5.4085Y-3.2799
X5.4656Y-4.213
X5.503Y-3.2051
X5.5069Y-3.461
X5.5108Y-4.0949
X5.5213Y-4.3409
X5.5213Y-4.3803
X5.5405Y-3.8682
X5.5475Y-2.9
X5.5491Y-2.7
X5.55Y-2.4903
X5.5541Y-3.5829
X5.5935Y-3.335
X5.6171Y-3.2091
X5.6201Y-4.3583
X5.6959Y-3.5829
X5.6998Y-3.1539
X5.7185Y-4.3508
X5.751Y-4.0083
X5.8061Y-4.0831
X5.81Y-3.8665
X5.8455Y-3.5122
X5.8455Y-4.1933
X5.8888Y-3.0949
X5.8956Y-2.8547
X5.8967Y-3.8626
X5.8967Y-4.3311
X5.8967Y-2.9335
X5.8978Y-3.0122
X5.9085Y-4.1776
X5.9557Y-4.3744
X5.9715Y-2.9846
X5.9872Y-2.8154
X5.9872Y-3.0949
X5.9872Y-3.5004
X6.0709Y-4.378
X6.0935Y-3.0949
X6.125Y-2.7091
X6.1831Y-4.3602
X6.1919Y-3.0988
X6.1939Y-4.1146
X6.2106Y-4.3189
X6.2451Y-3.963
X6.2943Y-3.0949
X6.2982Y-3.4886
X6.3087Y-4.3409
X6.3087Y-4.38
X6.3297Y-2.6933
X6.3455Y-3.8449
X6.3691Y-4.3626
X6.4085Y-3.1539
X6.4163Y-3.4728
X6.4242Y-3.5829
X6.4441Y-2.6933
X6.4596Y-4.2602
X6.4892Y-3.0713
X6.4892Y-3.7484
X6.5069Y-3.9118
X6.5425Y-2.6933
X6.5472Y-4.1752
X6.5522Y-3.8035
X6.6Y-3.1663
X6.6043Y-4.2835
X6.6043Y-4.3327
X6.6053Y-3.5829
X6.6171Y-3.9413
X6.6439Y-2.6942
X6.6585Y-3.4652
X6.6745Y-4.1922
X6.7Y-3.1654
X6.7439Y-2.6942
X6.81Y-3.1776
X6.8439Y-2.6938
X6.8474Y-3.837
X6.8494Y-3.465
X6.8593Y-4.024
X6.936Y-2.9531
X6.9439Y-2.6933
X6.9439Y-3.6382
X6.9835Y-3.164
X6.998Y-4.2815
X6.998Y-4.3839
X7.0423Y-3.4965
X7.0502Y-3.087
X7.0581Y-3.8941
X7.0885Y-3.6402
X7.0965Y-4.2835
X7.0965Y-4.3839
X7.1325Y-3.5122
X7.1407Y-3.7957
X7.1417Y-3.0652
X7.15Y-2.6984
X7.2Y-3.4483
X7.2077Y-3.1617
X7.2372Y-2.9925
X7.3061Y-3.7209
X7.3258Y-4.2742
X7.3455Y-2.9236
X7.3494Y-4.1047
X7.4Y-3.1652
X7.4Y-3.8488
X7.4439Y-4.0516
X7.4478Y-4.2742
X7.4835Y-3.1651
X7.5Y-3.45
X7.5325Y-2.7465
X7.5423Y-4.1303
X7.5659Y-4.2742
X7.5835Y-3.164
X7.6447Y-4.1815
X7.6801Y-2.648
X7.6835Y-3.1629
X7.7116Y-3.8547
X7.7116Y-4.05
X7.7886Y-3.3291
X7.7902Y-3.4276
X7.7919Y-3.526
X7.7935Y-3.6244
X7.7951Y-3.7228
X7.7967Y-3.8213
X7.7983Y-3.9197
X7.7999Y-4.0181
X7.8002Y-4.1165
X7.8002Y-4.215
T2
X4.1585Y-2.8402
X4.1585Y-2.9402
X4.1585Y-3.0402
X4.1585Y-3.1402
X4.1585Y-3.2402
X4.1585Y-3.3402
X4.1585Y-3.4402
X4.1585Y-3.5402
X4.2585Y-2.6402
X4.2585Y-2.8402
X4.2585Y-2.9402
X4.2585Y-3.0402
X4.2585Y-3.1402
X4.2585Y-3.2402
X4.2585Y-3.3402
X4.2585Y-3.4402
X4.2585Y-3.5402
X4.3585Y-2.6402
X4.3585Y-2.8402
X4.3585Y-2.9402
X4.3585Y-3.0402
X4.3585Y-3.1402
X4.3585Y-3.2402
X4.3585Y-3.3402
X4.3585Y-3.4402
X4.3585Y-3.5402
X4.3585Y-3.7402
X4.4585Y-2.6402
X4.4585Y-2.8402
X4.4585Y-2.9402
X4.4585Y-3.0402
X4.4585Y-3.1402
X4.4585Y-3.2402
X4.4585Y-3.3402
X4.4585Y-3.4402
X4.4585Y-3.5402
X4.4585Y-3.7402
X4.5585Y-2.6402
X4.5585Y-2.8402
X4.5585Y-2.9402
X4.5585Y-3.0402
X4.5585Y-3.1402
X4.5585Y-3.2402
X4.5585Y-3.3402
X4.5585Y-3.4402
X4.5585Y-3.5402
X4.5585Y-3.7402
X4.6585Y-2.6402
X4.6585Y-2.8402
X4.6585Y-2.9402
X4.6585Y-3.0402
X4.6585Y-3.1402
X4.6585Y-3.2402
X4.6585Y-3.3402
X4.6585Y-3.4402
X4.6585Y-3.5402
X4.6585Y-3.7402
X4.7585Y-2.6402
X4.7585Y-2.8402
X4.7585Y-2.9402
X4.7585Y-3.0402
X4.7585Y-3.1402
X4.7585Y-3.2402
X4.7585Y-3.3402
X4.7585Y-3.4402
X4.7585Y-3.5402
X4.8585Y-2.6402
X4.8585Y-2.8402
X4.8585Y-2.9402
X4.8585Y-3.0402
X4.8585Y-3.1402
X4.8585Y-3.2402
X4.8585Y-3.3402
X4.8585Y-3.4402
X4.8585Y-3.5402
X4.9585Y-2.8402
X4.9585Y-2.9402
X4.9585Y-3.0402
X4.9585Y-3.1402
X4.9585Y-3.2402
X4.9585Y-3.3402
X4.9585Y-3.4402
X4.9585Y-3.5402
X7.3346Y-2.8169
X7.7929Y-2.5669
T3
X5.7936Y-2.5663
X5.7936Y-3.2663
X5.8027Y-2.8163
X5.8027Y-2.9163
X5.8027Y-3.0163
X5.8936Y-2.5663
X5.8936Y-3.2663
X5.9936Y-2.5663
X5.9936Y-3.2663
X6.0936Y-2.5663
X6.0936Y-3.2663
X6.1936Y-2.5663
X6.1936Y-3.2663
X6.2936Y-2.5663
X6.2936Y-3.2663
X6.3936Y-2.5663
X6.3936Y-3.2663
X6.4936Y-2.5663
X6.4936Y-3.2663
X6.5936Y-2.5663
X6.5936Y-3.2663
X6.6936Y-2.5663
X6.6936Y-3.2663
X6.7936Y-2.5663
X6.7936Y-3.2663
X6.8936Y-2.5663
X6.8936Y-3.2663
X6.9936Y-2.5663
X6.9936Y-3.2663
X7.0936Y-2.5663
X7.0936Y-3.2663
X7.1936Y-2.5663
X7.1936Y-3.2663
X7.2936Y-2.5663
X7.2936Y-3.2663
X7.3936Y-2.5663
X7.3936Y-3.2663
X7.4936Y-2.5663
X7.4936Y-3.2663
X7.5936Y-2.5663
X7.5936Y-3.2663
X7.6936Y-2.5663
X7.6936Y-3.2663
T4
X4.0492Y-4.4331
X7.7815Y-4.4331
T0
M30
