M48
; DRILL file {KiCad (6.0.6)} date Sun 26 Jun 2022 02:56:32 AM CEST
; FORMAT={-:-/ absolute / inch / decimal}
; #@! TF.CreationDate,2022-06-26T02:56:32+02:00
; #@! TF.GenerationSoftware,Kicad,Pcbnew,(6.0.6)
; #@! TF.FileFunction,Plated,1,2,PTH
FMAT,2
INCH
; #@! TA.AperFunction,Plated,PTH,ViaDrill
T1C0.0157
; #@! TA.AperFunction,Plated,PTH,ComponentDrill
T2C0.0394
; #@! TA.AperFunction,Plated,PTH,ComponentDrill
T3C0.0402
; #@! TA.AperFunction,Plated,PTH,ComponentDrill
T4C0.0984
%
G90
G05
T1
X4.02Y-4.14
X4.02Y-4.2
X4.15Y-2.5
X4.15Y-4.25
X4.1508Y-4.05
X4.1522Y-3.85
X4.35Y-2.5
X4.35Y-4.2495
X4.3508Y-4.0495
X4.3522Y-3.8495
X4.55Y-2.4984
X4.55Y-4.2487
X4.5508Y-4.0487
X4.5522Y-3.8487
X4.7343Y-4.2598
X4.7343Y-4.3839
X4.75Y-2.4968
X4.7508Y-4.048
X4.7522Y-3.848
X4.9311Y-4.2579
X4.9311Y-4.3839
X4.95Y-2.4952
X4.95Y-4.0478
X4.9514Y-3.8478
X5.0295Y-4.2618
X5.0295Y-4.3839
X5.0846Y-3.9626
X5.0866Y-3.2421
X5.0866Y-3.6398
X5.15Y-2.4936
X5.1555Y-4.128
X5.2205Y-3.2362
X5.2205Y-3.4764
X5.2264Y-3.5571
X5.2874Y-4.3406
X5.35Y-2.492
X5.3543Y-4.378
X5.4094Y-4.0906
X5.4331Y-3.9626
X5.4941Y-4.1772
X5.5213Y-4.3409
X5.5213Y-4.3803
X5.5475Y-2.9
X5.5475Y-3.1152
X5.5491Y-2.7
X5.55Y-2.4903
X5.561Y-4.1339
X5.5835Y-4.0652
X5.6201Y-4.3583
X5.622Y-3.4035
X5.6713Y-4.0866
X5.7185Y-4.3228
X5.725Y-3.55
X5.79Y-3.17
X5.8169Y-4.2205
X5.8169Y-4.3327
X5.85Y-3.55
X5.8585Y-4.0652
X5.8661Y-3.9331
X5.9Y-3.1691
X5.95Y-3.55
X5.9646Y-4.0098
X5.9803Y-3.9567
X5.9803Y-4.1122
X5.9823Y-4.376
X5.998Y-3.5
X6.0551Y-3.5906
X6.063Y-3.439
X6.0709Y-4.0768
X6.0709Y-4.378
X6.1Y-3.1682
X6.125Y-3.55
X6.1457Y-3.4273
X6.1693Y-3.9409
X6.1831Y-3.4705
X6.1831Y-4.3602
X6.2Y-3.1672
X6.2087Y-4.1791
X6.2106Y-4.3189
X6.2146Y-3.6299
X6.225Y-3.85
X6.2402Y-3.4685
X6.2835Y-3.6152
X6.3087Y-4.3409
X6.3087Y-4.38
X6.3091Y-3.4705
X6.325Y-3.9
X6.3585Y-3.6152
X6.3799Y-4.378
X6.4Y-3.1672
X6.4311Y-3.4705
X6.4335Y-3.6142
X6.45Y-4.0152
X6.5Y-2.7
X6.5098Y-3.6152
X6.5472Y-4.1752
X6.6Y-3.1663
X6.6Y-4.1
X6.6043Y-4.2835
X6.6043Y-4.3327
X6.65Y-2.6997
X6.6585Y-3.4652
X6.7Y-3.1654
X6.7085Y-3.5652
X6.75Y-2.6997
X6.8Y-3.1644
X6.8189Y-4.1575
X6.8209Y-4.0925
X6.85Y-2.6993
X6.872Y-4.2008
X6.9291Y-4.2382
X6.9429Y-4.0768
X6.95Y-2.6988
X6.95Y-3.775
X6.9835Y-3.164
X6.9921Y-3.6083
X6.998Y-4.2815
X6.998Y-4.3839
X7.0Y-4.124
X7.0394Y-3.5256
X7.075Y-4.175
X7.0835Y-3.1629
X7.0965Y-4.2835
X7.0965Y-4.3839
X7.1417Y-3.0652
X7.15Y-2.6984
X7.1835Y-3.1617
X7.2Y-3.4483
X7.3Y-3.4491
X7.4Y-3.1652
X7.4Y-3.4499
X7.4Y-3.8488
X7.4835Y-3.1651
X7.5Y-3.45
X7.575Y-2.75
X7.5835Y-3.164
X7.65Y-4.05
X7.6514Y-3.85
X7.6835Y-3.1629
X7.7953Y-4.252
X7.7953Y-4.2913
T2
X4.1585Y-2.8402
X4.1585Y-2.9402
X4.1585Y-3.0402
X4.1585Y-3.1402
X4.1585Y-3.2402
X4.1585Y-3.3402
X4.1585Y-3.4402
X4.1585Y-3.5402
X4.2585Y-2.6402
X4.2585Y-2.8402
X4.2585Y-2.9402
X4.2585Y-3.0402
X4.2585Y-3.1402
X4.2585Y-3.2402
X4.2585Y-3.3402
X4.2585Y-3.4402
X4.2585Y-3.5402
X4.3585Y-2.6402
X4.3585Y-2.8402
X4.3585Y-2.9402
X4.3585Y-3.0402
X4.3585Y-3.1402
X4.3585Y-3.2402
X4.3585Y-3.3402
X4.3585Y-3.4402
X4.3585Y-3.5402
X4.3585Y-3.7402
X4.4585Y-2.6402
X4.4585Y-2.8402
X4.4585Y-2.9402
X4.4585Y-3.0402
X4.4585Y-3.1402
X4.4585Y-3.2402
X4.4585Y-3.3402
X4.4585Y-3.4402
X4.4585Y-3.5402
X4.4585Y-3.7402
X4.5585Y-2.6402
X4.5585Y-2.8402
X4.5585Y-2.9402
X4.5585Y-3.0402
X4.5585Y-3.1402
X4.5585Y-3.2402
X4.5585Y-3.3402
X4.5585Y-3.4402
X4.5585Y-3.5402
X4.5585Y-3.7402
X4.6585Y-2.6402
X4.6585Y-2.8402
X4.6585Y-2.9402
X4.6585Y-3.0402
X4.6585Y-3.1402
X4.6585Y-3.2402
X4.6585Y-3.3402
X4.6585Y-3.4402
X4.6585Y-3.5402
X4.6585Y-3.7402
X4.7585Y-2.6402
X4.7585Y-2.8402
X4.7585Y-2.9402
X4.7585Y-3.0402
X4.7585Y-3.1402
X4.7585Y-3.2402
X4.7585Y-3.3402
X4.7585Y-3.4402
X4.7585Y-3.5402
X4.8585Y-2.6402
X4.8585Y-2.8402
X4.8585Y-2.9402
X4.8585Y-3.0402
X4.8585Y-3.1402
X4.8585Y-3.2402
X4.8585Y-3.3402
X4.8585Y-3.4402
X4.8585Y-3.5402
X4.9585Y-2.8402
X4.9585Y-2.9402
X4.9585Y-3.0402
X4.9585Y-3.1402
X4.9585Y-3.2402
X4.9585Y-3.3402
X4.9585Y-3.4402
X4.9585Y-3.5402
X7.3346Y-2.8169
X7.7929Y-2.5669
T3
X5.7936Y-2.5663
X5.7936Y-3.2663
X5.8027Y-2.8163
X5.8027Y-2.9163
X5.8027Y-3.0163
X5.8936Y-2.5663
X5.8936Y-3.2663
X5.9936Y-2.5663
X5.9936Y-3.2663
X6.0936Y-2.5663
X6.0936Y-3.2663
X6.1936Y-2.5663
X6.1936Y-3.2663
X6.2936Y-2.5663
X6.2936Y-3.2663
X6.3936Y-2.5663
X6.3936Y-3.2663
X6.4936Y-2.5663
X6.4936Y-3.2663
X6.5936Y-2.5663
X6.5936Y-3.2663
X6.6936Y-2.5663
X6.6936Y-3.2663
X6.7936Y-2.5663
X6.7936Y-3.2663
X6.8936Y-2.5663
X6.8936Y-3.2663
X6.9936Y-2.5663
X6.9936Y-3.2663
X7.0936Y-2.5663
X7.0936Y-3.2663
X7.1936Y-2.5663
X7.1936Y-3.2663
X7.2936Y-2.5663
X7.2936Y-3.2663
X7.3936Y-2.5663
X7.3936Y-3.2663
X7.4936Y-2.5663
X7.4936Y-3.2663
X7.5936Y-2.5663
X7.5936Y-3.2663
X7.6936Y-2.5663
X7.6936Y-3.2663
T4
X4.0492Y-4.4331
X7.7815Y-4.4331
T0
M30
