<?xml version="1.0" encoding="UTF-8" standalone="no"?>
<!-- Generator: Adobe Illustrator 16.0.0, SVG Export Plug-In . SVG Version: 6.00 Build 0)  -->

<svg
   xmlns:dc="http://purl.org/dc/elements/1.1/"
   xmlns:cc="http://creativecommons.org/ns#"
   xmlns:rdf="http://www.w3.org/1999/02/22-rdf-syntax-ns#"
   xmlns:svg="http://www.w3.org/2000/svg"
   xmlns="http://www.w3.org/2000/svg"
   xmlns:sodipodi="http://sodipodi.sourceforge.net/DTD/sodipodi-0.dtd"
   xmlns:inkscape="http://www.inkscape.org/namespaces/inkscape"
   version="1.1"
   id="svg4982"
   inkscape:version="0.92.4 5da689c313, 2019-01-14"
   sodipodi:docname="logo.svg"
   x="0px"
   y="0px"
   width="595.275px"
   height="841.89px"
   viewBox="0 0 595.275 841.89"
   enable-background="new 0 0 595.275 841.89"
   xml:space="preserve"><metadata
   id="metadata933"><rdf:RDF><cc:Work
       rdf:about=""><dc:format>image/svg+xml</dc:format><dc:type
         rdf:resource="http://purl.org/dc/dcmitype/StillImage" /></cc:Work></rdf:RDF></metadata><defs
   id="defs931" />
<sodipodi:namedview
   inkscape:zoom="16"
   inkscape:cx="7.015848"
   bordercolor="#666666"
   pagecolor="#ffffff"
   borderopacity="1.0"
   id="base"
   showgrid="false"
   inkscape:cy="22.143213"
   inkscape:window-maximized="0"
   inkscape:window-y="20"
   inkscape:window-x="0"
   inkscape:document-units="mm"
   inkscape:window-height="1396"
   inkscape:window-width="2556"
   inkscape:pageshadow="2"
   inkscape:current-layer="layer1"
   inkscape:pageopacity="0.0">
	</sodipodi:namedview>
<g
   id="layer1"
   inkscape:label="Layer 1"
   inkscape:groupmode="layer">
	<path
   d="m 5.722,840.658 -1.95,-0.32 v -0.813 c 0,-0.396 -0.048,-0.725 -0.143,-0.988 -0.098,-0.262 -0.253,-0.488 -0.467,-0.678 -0.198,-0.174 -0.429,-0.309 -0.693,-0.402 -0.266,-0.094 -0.546,-0.143 -0.839,-0.143 -0.479,0 -0.853,0.143 -1.122,0.426 -0.271,0.281 -0.407,0.674 -0.407,1.174 v 2.045 l 2.036,0.338 c 0,-0.344 0,-0.771 0,-1.234 l -0.986,-0.166 v -0.674 c 0,-0.207 0.054,-0.365 0.162,-0.475 0.108,-0.11 0.263,-0.166 0.467,-0.166 0.135,0 0.25,0.021 0.357,0.051 0,-0.452 0,-0.872 0,-1.188 0,0.315 0,0.735 0,1.188 0.135,0.037 0.253,0.094 0.343,0.18 0.161,0.154 0.241,0.375 0.241,0.666 v 0.682 l -0.584,-0.098 c 0,0.463 0,0.891 0,1.234 l 3.584,0.594 v -1.233 z"
   id="path894"
   inkscape:connector-curvature="0"
   style="stroke-width:0.00037795;stroke-miterlimit:4;stroke-dasharray:none" />
	<polygon
   points="4.626,836.316 3.339,836.105 3.339,834.14 2.244,833.957 2.244,835.923 1.197,835.75 1.197,833.662 0.102,833.48 0.102,836.8 5.722,837.73 5.722,834.335 4.626,834.16 "
   id="polygon896"
   style="stroke-width:0.00037795;stroke-miterlimit:4;stroke-dasharray:none" />
	<path
   d="m 1.152,831.906 v -0.51 c 0,-0.213 0.044,-0.369 0.132,-0.467 0.085,-0.1 0.221,-0.15 0.407,-0.15 0.178,0 0.321,0.035 0.447,0.088 0,-0.453 0,-0.872 0,-1.217 -0.201,-0.064 -0.42,-0.104 -0.669,-0.104 -0.449,0 -0.79,0.137 -1.021,0.406 -0.23,0.271 -0.346,0.67 -0.346,1.193 v 1.82 l 2.036,0.338 c 0,-0.343 0,-0.77 0,-1.232 z"
   id="path898"
   inkscape:connector-curvature="0"
   style="stroke-width:0.00037795;stroke-miterlimit:4;stroke-dasharray:none" />
	<path
   d="m 3.753,831.47 c 0.103,-0.105 0.294,-0.193 0.572,-0.266 l 1.396,-0.359 v -1.225 l -1.596,0.406 c -0.329,0.084 -0.572,0.18 -0.73,0.291 -0.161,0.111 -0.261,0.25 -0.301,0.416 -0.042,-0.365 -0.211,-0.654 -0.504,-0.867 -0.133,-0.096 -0.287,-0.164 -0.452,-0.217 0,0.345 0,0.764 0,1.217 0.084,0.034 0.165,0.072 0.226,0.131 0.153,0.143 0.23,0.354 0.23,0.633 v 0.518 l -0.456,-0.076 c 0,0.463 0,0.89 0,1.232 l 3.584,0.594 v -1.23 l -2.127,-0.355 v -0.395 c 0,-0.196 0.052,-0.346 0.158,-0.448 z"
   id="path900"
   inkscape:connector-curvature="0"
   style="stroke-width:0.00037795;stroke-miterlimit:4;stroke-dasharray:none" />
	<path
   id="path830"
   inkscape:connector-curvature="0"
   d="m 5.304,825.171 c 0.178,0.311 0.311,0.635 0.399,0.969 0.085,0.334 0.128,0.693 0.128,1.074 0,0.68 -0.202,1.213 -0.606,1.6 -0.407,0.389 -0.96,0.584 -1.66,0.584 -0.454,0 -0.88,-0.063 -1.276,-0.184 C 1.89,829.093 1.526,828.911 1.198,828.671 0.796,828.376 0.496,828.028 0.298,827.63 0.099,827.23 0,826.773 0,826.259 c 0,-0.287 0.035,-0.574 0.105,-0.865 0.07,-0.289 0.174,-0.574 0.313,-0.857 l 1.163,0.189 c -0.178,0.26 -0.311,0.516 -0.399,0.766 -0.088,0.246 -0.132,0.496 -0.132,0.748 0,0.551 0.216,0.998 0.647,1.344 0.431,0.346 0.986,0.518 1.664,0.518 0.449,0 0.798,-0.1 1.047,-0.301 0.249,-0.203 0.373,-0.486 0.373,-0.854 0,-0.119 -0.009,-0.238 -0.026,-0.359 -0.02,-0.119 -0.05,-0.238 -0.09,-0.361 l -1.092,-0.182 v 0.752 l -0.971,-0.156 v -1.914 z"
   style="stroke-width:0.00037795;stroke-miterlimit:4;stroke-dasharray:none" />
	<path
   d="m 4.773,822.445 c -0.01,0.282 -0.122,0.508 -0.35,0.668 -0.239,0.17 -0.574,0.254 -1.005,0.254 -0.678,0 -1.241,-0.145 -1.69,-0.432 -0.228,-0.146 -0.397,-0.31 -0.51,-0.49 -0.361,0 -0.736,0 -1.122,0 0.048,0.192 0.109,0.378 0.197,0.547 0.196,0.379 0.492,0.703 0.889,0.977 0.326,0.229 0.692,0.4 1.099,0.518 0.407,0.118 0.839,0.176 1.299,0.176 0.672,0 1.216,-0.193 1.63,-0.578 0.414,-0.387 0.621,-0.896 0.621,-1.529 0,-0.039 -0.01,-0.071 -0.012,-0.109 -0.358,-0.002 -0.707,-0.002 -1.046,-0.002 z"
   id="path903"
   inkscape:connector-curvature="0"
   style="stroke-width:0.00037795;stroke-miterlimit:4;stroke-dasharray:none" />
	<path
   d="m 1.05,821.859 c 0,-0.32 0.115,-0.566 0.346,-0.734 0.231,-0.172 0.567,-0.256 1.009,-0.256 0.301,0 0.595,0.035 0.881,0.105 0.286,0.068 0.543,0.166 0.772,0.293 0.238,0.135 0.419,0.299 0.542,0.49 0.121,0.189 0.181,0.408 0.181,0.652 0,0.014 -0.007,0.022 -0.008,0.035 0.339,0 0.688,0 1.046,0 -0.014,-0.448 -0.102,-0.852 -0.282,-1.199 -0.199,-0.379 -0.497,-0.709 -0.896,-0.986 -0.324,-0.225 -0.689,-0.396 -1.096,-0.514 -0.406,-0.119 -0.838,-0.18 -1.295,-0.18 -0.67,0 -1.212,0.193 -1.626,0.582 C 0.208,820.535 0,821.044 0,821.681 c 0,0.273 0.037,0.525 0.097,0.764 0.386,0 0.76,0 1.122,0 -0.113,-0.179 -0.169,-0.373 -0.169,-0.586 z"
   id="path905"
   inkscape:connector-curvature="0"
   style="stroke-width:0.00037795;stroke-miterlimit:4;stroke-dasharray:none" />
	<path
   id="path834"
   inkscape:connector-curvature="0"
   d="m 0.102,818.904 v -1.232 l 4.525,0.75 v -2.156 l 1.095,0.176 v 3.393 z"
   style="stroke-width:0.00037795;stroke-miterlimit:4;stroke-dasharray:none" />
	<path
   d="m 1.513,813.669 0.625,-0.083 c 0,-0.387 0,-0.774 0,-1.135 l -2.036,0.306 v 1.408 l 2.036,0.978 c 0,-0.344 0,-0.751 0,-1.187 z"
   id="path908"
   inkscape:connector-curvature="0"
   style="stroke-width:0.00037795;stroke-miterlimit:4;stroke-dasharray:none" />
	<path
   d="m 5.722,813.083 v -1.17 l -3.584,0.538 c 0,0.36 0,0.748 0,1.135 l 1.54,-0.204 v 1.283 l -1.54,-0.709 c 0,0.436 0,0.843 0,1.187 l 3.584,1.722 v -1.264 l -1.024,-0.473 v -1.906 z"
   id="path910"
   inkscape:connector-curvature="0"
   style="stroke-width:0.00037795;stroke-miterlimit:4;stroke-dasharray:none" />
	<path
   d="m 10.789,839.896 v -0.508 c 0,-0.213 0.044,-0.369 0.132,-0.467 0.052,-0.062 0.128,-0.098 0.217,-0.121 0,-0.475 0,-0.913 0,-1.258 -0.012,0 -0.021,-0.004 -0.033,-0.004 -0.449,0 -0.79,0.135 -1.021,0.406 -0.23,0.271 -0.346,0.67 -0.346,1.193 v 1.82 l 1.399,0.232 c 0,-0.354 0,-0.779 0,-1.235 z"
   id="path912"
   inkscape:connector-curvature="0"
   style="stroke-width:0.00037795;stroke-miterlimit:4;stroke-dasharray:none" />
	<path
   d="m 13.39,839.462 c 0.103,-0.105 0.294,-0.193 0.572,-0.266 l 1.396,-0.359 v -1.225 l -1.596,0.406 c -0.329,0.082 -0.572,0.18 -0.73,0.291 -0.161,0.111 -0.261,0.25 -0.301,0.416 -0.042,-0.365 -0.211,-0.654 -0.504,-0.867 -0.286,-0.207 -0.651,-0.311 -1.089,-0.316 0,0.345 0,0.783 0,1.258 0.058,-0.016 0.116,-0.029 0.189,-0.029 0.296,0 0.521,0.072 0.674,0.217 0.153,0.143 0.229,0.354 0.229,0.633 v 0.52 l -1.093,-0.185 c 0,0.456 0,0.882 0,1.235 l 4.221,0.699 v -1.232 l -2.127,-0.355 v -0.393 c 0,-0.198 0.053,-0.346 0.159,-0.448 z"
   id="path914"
   inkscape:connector-curvature="0"
   style="stroke-width:0.00037795;stroke-miterlimit:4;stroke-dasharray:none" />
	<polygon
   points="14.263,836.074 12.976,835.863 12.976,833.898 11.88,833.712 11.88,835.679 10.834,835.507 10.834,833.417 9.738,833.236 9.738,836.556 15.358,837.488 15.358,834.093 14.263,833.917 "
   id="polygon916"
   style="stroke-width:0.00037795;stroke-miterlimit:4;stroke-dasharray:none" />
	<path
   id="path842"
   inkscape:connector-curvature="0"
   d="m 9.738,833.294 v -1.172 l 4.201,-0.586 -4.201,-1.977 v -1.27 l 5.62,2.697 v 1.467 z"
   style="stroke-width:0.00037795;stroke-miterlimit:4;stroke-dasharray:none" />
	<path
   d="m 11.15,824.957 0.988,-0.131 c 0,-0.367 0,-0.739 0,-1.142 l -2.399,0.36 v 1.408 l 2.399,1.152 c 0,-0.43 0,-0.82 0,-1.194 z"
   id="path919"
   inkscape:connector-curvature="0"
   style="stroke-width:0.00037795;stroke-miterlimit:4;stroke-dasharray:none" />
	<path
   d="m 15.358,824.371 v -1.17 l -3.221,0.483 c 0,0.402 0,0.774 0,1.142 l 1.177,-0.156 v 1.281 l -1.177,-0.54 c 0,0.374 0,0.765 0,1.194 l 3.221,1.547 v -1.264 l -1.024,-0.473 v -1.906 z"
   id="path921"
   inkscape:connector-curvature="0"
   style="stroke-width:0.00037795;stroke-miterlimit:4;stroke-dasharray:none" />
	<path
   d="m 14.421,819.445 c 0.037,0.08 0.06,0.165 0.06,0.258 0,0.18 -0.066,0.313 -0.2,0.4 -0.135,0.088 -0.342,0.131 -0.621,0.131 -0.133,0 -0.296,-0.008 -0.489,-0.027 -0.193,-0.019 -0.403,-0.047 -0.628,-0.084 -0.246,-0.037 -0.473,-0.082 -0.682,-0.135 -0.208,-0.053 -0.394,-0.111 -0.557,-0.176 -0.228,-0.082 -0.397,-0.188 -0.508,-0.313 -0.015,-0.017 -0.021,-0.037 -0.034,-0.055 -0.371,0 -0.723,0 -1.062,0 0.047,0.188 0.116,0.368 0.218,0.533 0.188,0.303 0.467,0.564 0.836,0.783 0.351,0.211 0.764,0.373 1.238,0.49 0.472,0.115 0.954,0.172 1.446,0.172 0.655,0 1.157,-0.139 1.505,-0.414 0.349,-0.281 0.523,-0.682 0.523,-1.203 0,-0.127 -0.026,-0.243 -0.047,-0.361 -0.318,0.001 -0.651,0.001 -0.998,0.001 z"
   id="path923"
   inkscape:connector-curvature="0"
   style="stroke-width:0.00037795;stroke-miterlimit:4;stroke-dasharray:none" />
	<path
   d="m 10.627,819.06 c 0,-0.178 0.066,-0.311 0.199,-0.396 0.13,-0.084 0.336,-0.127 0.618,-0.127 0.133,0 0.293,0.01 0.481,0.027 0.188,0.02 0.394,0.047 0.618,0.084 0.276,0.043 0.516,0.088 0.719,0.137 0.201,0.049 0.38,0.104 0.539,0.164 0.223,0.084 0.393,0.191 0.508,0.32 0.05,0.055 0.084,0.114 0.113,0.176 0.346,0 0.68,0 1,0 -0.042,-0.234 -0.108,-0.458 -0.232,-0.66 -0.188,-0.305 -0.465,-0.564 -0.832,-0.779 -0.356,-0.213 -0.771,-0.377 -1.242,-0.494 -0.472,-0.117 -0.958,-0.176 -1.457,-0.176 -0.647,0 -1.146,0.141 -1.495,0.422 -0.351,0.281 -0.527,0.68 -0.527,1.197 0,0.172 0.025,0.334 0.064,0.49 0.339,0 0.69,0 1.062,0 -0.086,-0.114 -0.136,-0.239 -0.136,-0.385 z"
   id="path925"
   inkscape:connector-curvature="0"
   style="stroke-width:0.00037795;stroke-miterlimit:4;stroke-dasharray:none" />
	<path
   id="path848"
   inkscape:connector-curvature="0"
   d="m 13.902,817.201 v -1.15 l 1.457,0.24 v 1.154 z"
   style="stroke-width:0.00037795;stroke-miterlimit:4;stroke-dasharray:none" />
	<path
   id="path850"
   inkscape:connector-curvature="0"
   d="m 14.357,815.449 v -1.088 l -3.633,-0.598 0.271,1.16 -0.986,-0.162 -0.271,-1.156 v -1.17 l 4.619,0.758 v -1.082 l 1.001,0.164 v 3.344 z"
   style="stroke-width:0.00037795;stroke-miterlimit:4;stroke-dasharray:none" />
</g>
</svg>