G04 #@! TF.GenerationSoftware,KiCad,Pcbnew,(6.0.7)*
G04 #@! TF.CreationDate,2022-08-14T23:11:46+02:00*
G04 #@! TF.ProjectId,picocart64_v2,7069636f-6361-4727-9436-345f76322e6b,rev?*
G04 #@! TF.SameCoordinates,Original*
G04 #@! TF.FileFunction,Legend,Bot*
G04 #@! TF.FilePolarity,Positive*
%FSLAX46Y46*%
G04 Gerber Fmt 4.6, Leading zero omitted, Abs format (unit mm)*
G04 Created by KiCad (PCBNEW (6.0.7)) date 2022-08-14 23:11:46*
%MOMM*%
%LPD*%
G01*
G04 APERTURE LIST*
%ADD10C,0.150000*%
%ADD11C,0.300000*%
%ADD12C,0.120000*%
G04 APERTURE END LIST*
D10*
X195790000Y-101570000D02*
X195790000Y-99030000D01*
X175470000Y-101570000D02*
X195790000Y-101570000D01*
X175470000Y-99030000D02*
X175470000Y-101570000D01*
X195790000Y-99030000D02*
X175470000Y-99030000D01*
X175470000Y-81250000D02*
X175470000Y-83790000D01*
X195790000Y-81250000D02*
X175470000Y-81250000D01*
X195790000Y-83790000D02*
X195790000Y-81250000D01*
X195790000Y-83790000D02*
X175470000Y-83790000D01*
X147759404Y-100472380D02*
X147759404Y-99472380D01*
X147330833Y-100472380D02*
X147330833Y-99948571D01*
X147378452Y-99853333D01*
X147473690Y-99805714D01*
X147616547Y-99805714D01*
X147711785Y-99853333D01*
X147759404Y-99900952D01*
X146997500Y-99805714D02*
X146616547Y-99805714D01*
X146854642Y-99472380D02*
X146854642Y-100329523D01*
X146807023Y-100424761D01*
X146711785Y-100472380D01*
X146616547Y-100472380D01*
X146426071Y-99805714D02*
X146045119Y-99805714D01*
X146283214Y-99472380D02*
X146283214Y-100329523D01*
X146235595Y-100424761D01*
X146140357Y-100472380D01*
X146045119Y-100472380D01*
X145711785Y-99805714D02*
X145711785Y-100805714D01*
X145711785Y-99853333D02*
X145616547Y-99805714D01*
X145426071Y-99805714D01*
X145330833Y-99853333D01*
X145283214Y-99900952D01*
X145235595Y-99996190D01*
X145235595Y-100281904D01*
X145283214Y-100377142D01*
X145330833Y-100424761D01*
X145426071Y-100472380D01*
X145616547Y-100472380D01*
X145711785Y-100424761D01*
X144854642Y-100424761D02*
X144759404Y-100472380D01*
X144568928Y-100472380D01*
X144473690Y-100424761D01*
X144426071Y-100329523D01*
X144426071Y-100281904D01*
X144473690Y-100186666D01*
X144568928Y-100139047D01*
X144711785Y-100139047D01*
X144807023Y-100091428D01*
X144854642Y-99996190D01*
X144854642Y-99948571D01*
X144807023Y-99853333D01*
X144711785Y-99805714D01*
X144568928Y-99805714D01*
X144473690Y-99853333D01*
X143997500Y-100377142D02*
X143949880Y-100424761D01*
X143997500Y-100472380D01*
X144045119Y-100424761D01*
X143997500Y-100377142D01*
X143997500Y-100472380D01*
X143997500Y-99853333D02*
X143949880Y-99900952D01*
X143997500Y-99948571D01*
X144045119Y-99900952D01*
X143997500Y-99853333D01*
X143997500Y-99948571D01*
X142807023Y-99424761D02*
X143664166Y-100710476D01*
X141759404Y-99424761D02*
X142616547Y-100710476D01*
X140997500Y-99805714D02*
X140997500Y-100615238D01*
X141045119Y-100710476D01*
X141092738Y-100758095D01*
X141187976Y-100805714D01*
X141330833Y-100805714D01*
X141426071Y-100758095D01*
X140997500Y-100424761D02*
X141092738Y-100472380D01*
X141283214Y-100472380D01*
X141378452Y-100424761D01*
X141426071Y-100377142D01*
X141473690Y-100281904D01*
X141473690Y-99996190D01*
X141426071Y-99900952D01*
X141378452Y-99853333D01*
X141283214Y-99805714D01*
X141092738Y-99805714D01*
X140997500Y-99853333D01*
X140521309Y-100472380D02*
X140521309Y-99805714D01*
X140521309Y-99472380D02*
X140568928Y-99520000D01*
X140521309Y-99567619D01*
X140473690Y-99520000D01*
X140521309Y-99472380D01*
X140521309Y-99567619D01*
X140187976Y-99805714D02*
X139807023Y-99805714D01*
X140045119Y-99472380D02*
X140045119Y-100329523D01*
X139997500Y-100424761D01*
X139902261Y-100472380D01*
X139807023Y-100472380D01*
X139473690Y-100472380D02*
X139473690Y-99472380D01*
X139045119Y-100472380D02*
X139045119Y-99948571D01*
X139092738Y-99853333D01*
X139187976Y-99805714D01*
X139330833Y-99805714D01*
X139426071Y-99853333D01*
X139473690Y-99900952D01*
X138140357Y-99805714D02*
X138140357Y-100472380D01*
X138568928Y-99805714D02*
X138568928Y-100329523D01*
X138521309Y-100424761D01*
X138426071Y-100472380D01*
X138283214Y-100472380D01*
X138187976Y-100424761D01*
X138140357Y-100377142D01*
X137664166Y-100472380D02*
X137664166Y-99472380D01*
X137664166Y-99853333D02*
X137568928Y-99805714D01*
X137378452Y-99805714D01*
X137283214Y-99853333D01*
X137235595Y-99900952D01*
X137187976Y-99996190D01*
X137187976Y-100281904D01*
X137235595Y-100377142D01*
X137283214Y-100424761D01*
X137378452Y-100472380D01*
X137568928Y-100472380D01*
X137664166Y-100424761D01*
X136759404Y-100377142D02*
X136711785Y-100424761D01*
X136759404Y-100472380D01*
X136807023Y-100424761D01*
X136759404Y-100377142D01*
X136759404Y-100472380D01*
X135854642Y-100424761D02*
X135949880Y-100472380D01*
X136140357Y-100472380D01*
X136235595Y-100424761D01*
X136283214Y-100377142D01*
X136330833Y-100281904D01*
X136330833Y-99996190D01*
X136283214Y-99900952D01*
X136235595Y-99853333D01*
X136140357Y-99805714D01*
X135949880Y-99805714D01*
X135854642Y-99853333D01*
X135283214Y-100472380D02*
X135378452Y-100424761D01*
X135426071Y-100377142D01*
X135473690Y-100281904D01*
X135473690Y-99996190D01*
X135426071Y-99900952D01*
X135378452Y-99853333D01*
X135283214Y-99805714D01*
X135140357Y-99805714D01*
X135045119Y-99853333D01*
X134997500Y-99900952D01*
X134949880Y-99996190D01*
X134949880Y-100281904D01*
X134997500Y-100377142D01*
X135045119Y-100424761D01*
X135140357Y-100472380D01*
X135283214Y-100472380D01*
X134521309Y-100472380D02*
X134521309Y-99805714D01*
X134521309Y-99900952D02*
X134473690Y-99853333D01*
X134378452Y-99805714D01*
X134235595Y-99805714D01*
X134140357Y-99853333D01*
X134092738Y-99948571D01*
X134092738Y-100472380D01*
X134092738Y-99948571D02*
X134045119Y-99853333D01*
X133949880Y-99805714D01*
X133807023Y-99805714D01*
X133711785Y-99853333D01*
X133664166Y-99948571D01*
X133664166Y-100472380D01*
X132473690Y-99424761D02*
X133330833Y-100710476D01*
X132140357Y-100472380D02*
X132140357Y-99472380D01*
X132045119Y-100091428D02*
X131759404Y-100472380D01*
X131759404Y-99805714D02*
X132140357Y-100186666D01*
X131330833Y-100472380D02*
X131330833Y-99472380D01*
X131330833Y-99853333D02*
X131235595Y-99805714D01*
X131045119Y-99805714D01*
X130949880Y-99853333D01*
X130902261Y-99900952D01*
X130854642Y-99996190D01*
X130854642Y-100281904D01*
X130902261Y-100377142D01*
X130949880Y-100424761D01*
X131045119Y-100472380D01*
X131235595Y-100472380D01*
X131330833Y-100424761D01*
X130045119Y-100424761D02*
X130140357Y-100472380D01*
X130330833Y-100472380D01*
X130426071Y-100424761D01*
X130473690Y-100329523D01*
X130473690Y-99948571D01*
X130426071Y-99853333D01*
X130330833Y-99805714D01*
X130140357Y-99805714D01*
X130045119Y-99853333D01*
X129997500Y-99948571D01*
X129997500Y-100043809D01*
X130473690Y-100139047D01*
X129140357Y-100424761D02*
X129235595Y-100472380D01*
X129426071Y-100472380D01*
X129521309Y-100424761D01*
X129568928Y-100377142D01*
X129616547Y-100281904D01*
X129616547Y-99996190D01*
X129568928Y-99900952D01*
X129521309Y-99853333D01*
X129426071Y-99805714D01*
X129235595Y-99805714D01*
X129140357Y-99853333D01*
X128711785Y-100472380D02*
X128711785Y-99472380D01*
X128616547Y-100091428D02*
X128330833Y-100472380D01*
X128330833Y-99805714D02*
X128711785Y-100186666D01*
X127902261Y-100472380D02*
X127902261Y-99805714D01*
X127902261Y-99900952D02*
X127854642Y-99853333D01*
X127759404Y-99805714D01*
X127616547Y-99805714D01*
X127521309Y-99853333D01*
X127473690Y-99948571D01*
X127473690Y-100472380D01*
X127473690Y-99948571D02*
X127426071Y-99853333D01*
X127330833Y-99805714D01*
X127187976Y-99805714D01*
X127092738Y-99853333D01*
X127045119Y-99948571D01*
X127045119Y-100472380D01*
X126140357Y-100472380D02*
X126140357Y-99948571D01*
X126187976Y-99853333D01*
X126283214Y-99805714D01*
X126473690Y-99805714D01*
X126568928Y-99853333D01*
X126140357Y-100424761D02*
X126235595Y-100472380D01*
X126473690Y-100472380D01*
X126568928Y-100424761D01*
X126616547Y-100329523D01*
X126616547Y-100234285D01*
X126568928Y-100139047D01*
X126473690Y-100091428D01*
X126235595Y-100091428D01*
X126140357Y-100043809D01*
X125664166Y-99805714D02*
X125664166Y-100472380D01*
X125664166Y-99900952D02*
X125616547Y-99853333D01*
X125521309Y-99805714D01*
X125378452Y-99805714D01*
X125283214Y-99853333D01*
X125235595Y-99948571D01*
X125235595Y-100472380D01*
X124759404Y-99805714D02*
X124759404Y-100472380D01*
X124759404Y-99900952D02*
X124711785Y-99853333D01*
X124616547Y-99805714D01*
X124473690Y-99805714D01*
X124378452Y-99853333D01*
X124330833Y-99948571D01*
X124330833Y-100472380D01*
X123140357Y-99424761D02*
X123997500Y-100710476D01*
X122807023Y-100472380D02*
X122807023Y-99472380D01*
X122426071Y-99472380D01*
X122330833Y-99520000D01*
X122283214Y-99567619D01*
X122235595Y-99662857D01*
X122235595Y-99805714D01*
X122283214Y-99900952D01*
X122330833Y-99948571D01*
X122426071Y-99996190D01*
X122807023Y-99996190D01*
X121807023Y-100472380D02*
X121807023Y-99805714D01*
X121807023Y-99472380D02*
X121854642Y-99520000D01*
X121807023Y-99567619D01*
X121759404Y-99520000D01*
X121807023Y-99472380D01*
X121807023Y-99567619D01*
X120902261Y-100424761D02*
X120997500Y-100472380D01*
X121187976Y-100472380D01*
X121283214Y-100424761D01*
X121330833Y-100377142D01*
X121378452Y-100281904D01*
X121378452Y-99996190D01*
X121330833Y-99900952D01*
X121283214Y-99853333D01*
X121187976Y-99805714D01*
X120997500Y-99805714D01*
X120902261Y-99853333D01*
X120330833Y-100472380D02*
X120426071Y-100424761D01*
X120473690Y-100377142D01*
X120521309Y-100281904D01*
X120521309Y-99996190D01*
X120473690Y-99900952D01*
X120426071Y-99853333D01*
X120330833Y-99805714D01*
X120187976Y-99805714D01*
X120092738Y-99853333D01*
X120045119Y-99900952D01*
X119997500Y-99996190D01*
X119997500Y-100281904D01*
X120045119Y-100377142D01*
X120092738Y-100424761D01*
X120187976Y-100472380D01*
X120330833Y-100472380D01*
X118997500Y-100377142D02*
X119045119Y-100424761D01*
X119187976Y-100472380D01*
X119283214Y-100472380D01*
X119426071Y-100424761D01*
X119521309Y-100329523D01*
X119568928Y-100234285D01*
X119616547Y-100043809D01*
X119616547Y-99900952D01*
X119568928Y-99710476D01*
X119521309Y-99615238D01*
X119426071Y-99520000D01*
X119283214Y-99472380D01*
X119187976Y-99472380D01*
X119045119Y-99520000D01*
X118997500Y-99567619D01*
X118140357Y-100472380D02*
X118140357Y-99948571D01*
X118187976Y-99853333D01*
X118283214Y-99805714D01*
X118473690Y-99805714D01*
X118568928Y-99853333D01*
X118140357Y-100424761D02*
X118235595Y-100472380D01*
X118473690Y-100472380D01*
X118568928Y-100424761D01*
X118616547Y-100329523D01*
X118616547Y-100234285D01*
X118568928Y-100139047D01*
X118473690Y-100091428D01*
X118235595Y-100091428D01*
X118140357Y-100043809D01*
X117664166Y-100472380D02*
X117664166Y-99805714D01*
X117664166Y-99996190D02*
X117616547Y-99900952D01*
X117568928Y-99853333D01*
X117473690Y-99805714D01*
X117378452Y-99805714D01*
X117187976Y-99805714D02*
X116807023Y-99805714D01*
X117045119Y-99472380D02*
X117045119Y-100329523D01*
X116997500Y-100424761D01*
X116902261Y-100472380D01*
X116807023Y-100472380D01*
X116045119Y-99472380D02*
X116235595Y-99472380D01*
X116330833Y-99520000D01*
X116378452Y-99567619D01*
X116473690Y-99710476D01*
X116521309Y-99900952D01*
X116521309Y-100281904D01*
X116473690Y-100377142D01*
X116426071Y-100424761D01*
X116330833Y-100472380D01*
X116140357Y-100472380D01*
X116045119Y-100424761D01*
X115997500Y-100377142D01*
X115949880Y-100281904D01*
X115949880Y-100043809D01*
X115997500Y-99948571D01*
X116045119Y-99900952D01*
X116140357Y-99853333D01*
X116330833Y-99853333D01*
X116426071Y-99900952D01*
X116473690Y-99948571D01*
X116521309Y-100043809D01*
X115092738Y-99805714D02*
X115092738Y-100472380D01*
X115330833Y-99424761D02*
X115568928Y-100139047D01*
X114949880Y-100139047D01*
X147759404Y-102082380D02*
X147759404Y-101082380D01*
X147330833Y-102082380D02*
X147330833Y-101558571D01*
X147378452Y-101463333D01*
X147473690Y-101415714D01*
X147616547Y-101415714D01*
X147711785Y-101463333D01*
X147759404Y-101510952D01*
X146997500Y-101415714D02*
X146616547Y-101415714D01*
X146854642Y-101082380D02*
X146854642Y-101939523D01*
X146807023Y-102034761D01*
X146711785Y-102082380D01*
X146616547Y-102082380D01*
X146426071Y-101415714D02*
X146045119Y-101415714D01*
X146283214Y-101082380D02*
X146283214Y-101939523D01*
X146235595Y-102034761D01*
X146140357Y-102082380D01*
X146045119Y-102082380D01*
X145711785Y-101415714D02*
X145711785Y-102415714D01*
X145711785Y-101463333D02*
X145616547Y-101415714D01*
X145426071Y-101415714D01*
X145330833Y-101463333D01*
X145283214Y-101510952D01*
X145235595Y-101606190D01*
X145235595Y-101891904D01*
X145283214Y-101987142D01*
X145330833Y-102034761D01*
X145426071Y-102082380D01*
X145616547Y-102082380D01*
X145711785Y-102034761D01*
X144854642Y-102034761D02*
X144759404Y-102082380D01*
X144568928Y-102082380D01*
X144473690Y-102034761D01*
X144426071Y-101939523D01*
X144426071Y-101891904D01*
X144473690Y-101796666D01*
X144568928Y-101749047D01*
X144711785Y-101749047D01*
X144807023Y-101701428D01*
X144854642Y-101606190D01*
X144854642Y-101558571D01*
X144807023Y-101463333D01*
X144711785Y-101415714D01*
X144568928Y-101415714D01*
X144473690Y-101463333D01*
X143997500Y-101987142D02*
X143949880Y-102034761D01*
X143997500Y-102082380D01*
X144045119Y-102034761D01*
X143997500Y-101987142D01*
X143997500Y-102082380D01*
X143997500Y-101463333D02*
X143949880Y-101510952D01*
X143997500Y-101558571D01*
X144045119Y-101510952D01*
X143997500Y-101463333D01*
X143997500Y-101558571D01*
X142807023Y-101034761D02*
X143664166Y-102320476D01*
X141759404Y-101034761D02*
X142616547Y-102320476D01*
X141426071Y-101415714D02*
X141426071Y-102415714D01*
X141426071Y-101463333D02*
X141330833Y-101415714D01*
X141140357Y-101415714D01*
X141045119Y-101463333D01*
X140997500Y-101510952D01*
X140949880Y-101606190D01*
X140949880Y-101891904D01*
X140997500Y-101987142D01*
X141045119Y-102034761D01*
X141140357Y-102082380D01*
X141330833Y-102082380D01*
X141426071Y-102034761D01*
X140521309Y-102082380D02*
X140521309Y-101415714D01*
X140521309Y-101082380D02*
X140568928Y-101130000D01*
X140521309Y-101177619D01*
X140473690Y-101130000D01*
X140521309Y-101082380D01*
X140521309Y-101177619D01*
X139616547Y-102034761D02*
X139711785Y-102082380D01*
X139902261Y-102082380D01*
X139997500Y-102034761D01*
X140045119Y-101987142D01*
X140092738Y-101891904D01*
X140092738Y-101606190D01*
X140045119Y-101510952D01*
X139997500Y-101463333D01*
X139902261Y-101415714D01*
X139711785Y-101415714D01*
X139616547Y-101463333D01*
X139045119Y-102082380D02*
X139140357Y-102034761D01*
X139187976Y-101987142D01*
X139235595Y-101891904D01*
X139235595Y-101606190D01*
X139187976Y-101510952D01*
X139140357Y-101463333D01*
X139045119Y-101415714D01*
X138902261Y-101415714D01*
X138807023Y-101463333D01*
X138759404Y-101510952D01*
X138711785Y-101606190D01*
X138711785Y-101891904D01*
X138759404Y-101987142D01*
X138807023Y-102034761D01*
X138902261Y-102082380D01*
X139045119Y-102082380D01*
X137854642Y-102034761D02*
X137949880Y-102082380D01*
X138140357Y-102082380D01*
X138235595Y-102034761D01*
X138283214Y-101987142D01*
X138330833Y-101891904D01*
X138330833Y-101606190D01*
X138283214Y-101510952D01*
X138235595Y-101463333D01*
X138140357Y-101415714D01*
X137949880Y-101415714D01*
X137854642Y-101463333D01*
X137426071Y-101987142D02*
X137378452Y-102034761D01*
X137426071Y-102082380D01*
X137473690Y-102034761D01*
X137426071Y-101987142D01*
X137426071Y-102082380D01*
X136521309Y-102082380D02*
X136521309Y-101558571D01*
X136568928Y-101463333D01*
X136664166Y-101415714D01*
X136854642Y-101415714D01*
X136949880Y-101463333D01*
X136521309Y-102034761D02*
X136616547Y-102082380D01*
X136854642Y-102082380D01*
X136949880Y-102034761D01*
X136997500Y-101939523D01*
X136997500Y-101844285D01*
X136949880Y-101749047D01*
X136854642Y-101701428D01*
X136616547Y-101701428D01*
X136521309Y-101653809D01*
X136045119Y-102082380D02*
X136045119Y-101415714D01*
X136045119Y-101606190D02*
X135997500Y-101510952D01*
X135949880Y-101463333D01*
X135854642Y-101415714D01*
X135759404Y-101415714D01*
X135568928Y-101415714D02*
X135187976Y-101415714D01*
X135426071Y-101082380D02*
X135426071Y-101939523D01*
X135378452Y-102034761D01*
X135283214Y-102082380D01*
X135187976Y-102082380D01*
X134140357Y-101034761D02*
X134997500Y-102320476D01*
X136538000Y-77965000D02*
X136538000Y-61963000D01*
X142380000Y-61963000D02*
X142380000Y-77965000D01*
X144920000Y-62725000D02*
X142380000Y-62725000D01*
X142380000Y-77965000D02*
X136538000Y-77965000D01*
X136538000Y-61963000D02*
X142380000Y-61963000D01*
D11*
X170142857Y-110061971D02*
X170857142Y-110061971D01*
X170928571Y-110776257D01*
X170857142Y-110704828D01*
X170714285Y-110633400D01*
X170357142Y-110633400D01*
X170214285Y-110704828D01*
X170142857Y-110776257D01*
X170071428Y-110919114D01*
X170071428Y-111276257D01*
X170142857Y-111419114D01*
X170214285Y-111490542D01*
X170357142Y-111561971D01*
X170714285Y-111561971D01*
X170857142Y-111490542D01*
X170928571Y-111419114D01*
X158285714Y-111561971D02*
X159142857Y-111561971D01*
X158714285Y-111561971D02*
X158714285Y-110061971D01*
X158857142Y-110276257D01*
X159000000Y-110419114D01*
X159142857Y-110490542D01*
X157357142Y-110061971D02*
X157214285Y-110061971D01*
X157071428Y-110133400D01*
X157000000Y-110204828D01*
X156928571Y-110347685D01*
X156857142Y-110633400D01*
X156857142Y-110990542D01*
X156928571Y-111276257D01*
X157000000Y-111419114D01*
X157071428Y-111490542D01*
X157214285Y-111561971D01*
X157357142Y-111561971D01*
X157500000Y-111490542D01*
X157571428Y-111419114D01*
X157642857Y-111276257D01*
X157714285Y-110990542D01*
X157714285Y-110633400D01*
X157642857Y-110347685D01*
X157571428Y-110204828D01*
X157500000Y-110133400D01*
X157357142Y-110061971D01*
X145785714Y-111561971D02*
X146642857Y-111561971D01*
X146214285Y-111561971D02*
X146214285Y-110061971D01*
X146357142Y-110276257D01*
X146500000Y-110419114D01*
X146642857Y-110490542D01*
X144428571Y-110061971D02*
X145142857Y-110061971D01*
X145214285Y-110776257D01*
X145142857Y-110704828D01*
X145000000Y-110633400D01*
X144642857Y-110633400D01*
X144500000Y-110704828D01*
X144428571Y-110776257D01*
X144357142Y-110919114D01*
X144357142Y-111276257D01*
X144428571Y-111419114D01*
X144500000Y-111490542D01*
X144642857Y-111561971D01*
X145000000Y-111561971D01*
X145142857Y-111490542D01*
X145214285Y-111419114D01*
X134142857Y-110204828D02*
X134071428Y-110133400D01*
X133928571Y-110061971D01*
X133571428Y-110061971D01*
X133428571Y-110133400D01*
X133357142Y-110204828D01*
X133285714Y-110347685D01*
X133285714Y-110490542D01*
X133357142Y-110704828D01*
X134214285Y-111561971D01*
X133285714Y-111561971D01*
X132357142Y-110061971D02*
X132214285Y-110061971D01*
X132071428Y-110133400D01*
X132000000Y-110204828D01*
X131928571Y-110347685D01*
X131857142Y-110633400D01*
X131857142Y-110990542D01*
X131928571Y-111276257D01*
X132000000Y-111419114D01*
X132071428Y-111490542D01*
X132214285Y-111561971D01*
X132357142Y-111561971D01*
X132500000Y-111490542D01*
X132571428Y-111419114D01*
X132642857Y-111276257D01*
X132714285Y-110990542D01*
X132714285Y-110633400D01*
X132642857Y-110347685D01*
X132571428Y-110204828D01*
X132500000Y-110133400D01*
X132357142Y-110061971D01*
X121642857Y-110204828D02*
X121571428Y-110133400D01*
X121428571Y-110061971D01*
X121071428Y-110061971D01*
X120928571Y-110133400D01*
X120857142Y-110204828D01*
X120785714Y-110347685D01*
X120785714Y-110490542D01*
X120857142Y-110704828D01*
X121714285Y-111561971D01*
X120785714Y-111561971D01*
X119428571Y-110061971D02*
X120142857Y-110061971D01*
X120214285Y-110776257D01*
X120142857Y-110704828D01*
X120000000Y-110633400D01*
X119642857Y-110633400D01*
X119500000Y-110704828D01*
X119428571Y-110776257D01*
X119357142Y-110919114D01*
X119357142Y-111276257D01*
X119428571Y-111419114D01*
X119500000Y-111490542D01*
X119642857Y-111561971D01*
X120000000Y-111561971D01*
X120142857Y-111490542D01*
X120214285Y-111419114D01*
D10*
X141935476Y-74607380D02*
X141745000Y-74607380D01*
X141649761Y-74559761D01*
X141602142Y-74512142D01*
X141506904Y-74369285D01*
X141459285Y-74178809D01*
X141459285Y-73797857D01*
X141506904Y-73702619D01*
X141554523Y-73655000D01*
X141649761Y-73607380D01*
X141840238Y-73607380D01*
X141935476Y-73655000D01*
X141983095Y-73702619D01*
X142030714Y-73797857D01*
X142030714Y-74035952D01*
X141983095Y-74131190D01*
X141935476Y-74178809D01*
X141840238Y-74226428D01*
X141649761Y-74226428D01*
X141554523Y-74178809D01*
X141506904Y-74131190D01*
X141459285Y-74035952D01*
X141459285Y-64447380D02*
X142030714Y-64447380D01*
X141745000Y-64447380D02*
X141745000Y-63447380D01*
X141840238Y-63590238D01*
X141935476Y-63685476D01*
X142030714Y-63733095D01*
X175153149Y-72291943D02*
X175248387Y-72244323D01*
X175391244Y-72244323D01*
X175534101Y-72291943D01*
X175629339Y-72387181D01*
X175676958Y-72482419D01*
X175724577Y-72672895D01*
X175724577Y-72815752D01*
X175676958Y-73006228D01*
X175629339Y-73101466D01*
X175534101Y-73196704D01*
X175391244Y-73244323D01*
X175296006Y-73244323D01*
X175153149Y-73196704D01*
X175105530Y-73149085D01*
X175105530Y-72815752D01*
X175296006Y-72815752D01*
X135678595Y-76195000D02*
X135773833Y-76147380D01*
X135916690Y-76147380D01*
X136059547Y-76195000D01*
X136154785Y-76290238D01*
X136202404Y-76385476D01*
X136250023Y-76575952D01*
X136250023Y-76718809D01*
X136202404Y-76909285D01*
X136154785Y-77004523D01*
X136059547Y-77099761D01*
X135916690Y-77147380D01*
X135821452Y-77147380D01*
X135678595Y-77099761D01*
X135630976Y-77052142D01*
X135630976Y-76718809D01*
X135821452Y-76718809D01*
X135202404Y-77147380D02*
X135202404Y-76147380D01*
X134630976Y-77147380D01*
X134630976Y-76147380D01*
X134154785Y-77147380D02*
X134154785Y-76147380D01*
X133916690Y-76147380D01*
X133773833Y-76195000D01*
X133678595Y-76290238D01*
X133630976Y-76385476D01*
X133583357Y-76575952D01*
X133583357Y-76718809D01*
X133630976Y-76909285D01*
X133678595Y-77004523D01*
X133773833Y-77099761D01*
X133916690Y-77147380D01*
X134154785Y-77147380D01*
X137109523Y-66320714D02*
X137109523Y-66987380D01*
X137347619Y-65939761D02*
X137585714Y-66654047D01*
X136966666Y-66654047D01*
X170430292Y-72711896D02*
X170525530Y-72664277D01*
X170573149Y-72616658D01*
X170620768Y-72521420D01*
X170620768Y-72473801D01*
X170573149Y-72378563D01*
X170525530Y-72330944D01*
X170430292Y-72283324D01*
X170239815Y-72283324D01*
X170144577Y-72330944D01*
X170096958Y-72378563D01*
X170049339Y-72473801D01*
X170049339Y-72521420D01*
X170096958Y-72616658D01*
X170144577Y-72664277D01*
X170239815Y-72711896D01*
X170430292Y-72711896D01*
X170525530Y-72759515D01*
X170573149Y-72807134D01*
X170620768Y-72902372D01*
X170620768Y-73092848D01*
X170573149Y-73188086D01*
X170525530Y-73235705D01*
X170430292Y-73283324D01*
X170239815Y-73283324D01*
X170144577Y-73235705D01*
X170096958Y-73188086D01*
X170049339Y-73092848D01*
X170049339Y-72902372D01*
X170096958Y-72807134D01*
X170144577Y-72759515D01*
X170239815Y-72711896D01*
X147985595Y-76766428D02*
X147223690Y-76766428D01*
X147604642Y-77147380D02*
X147604642Y-76385476D01*
X146842738Y-76147380D02*
X146223690Y-76147380D01*
X146557023Y-76528333D01*
X146414166Y-76528333D01*
X146318928Y-76575952D01*
X146271309Y-76623571D01*
X146223690Y-76718809D01*
X146223690Y-76956904D01*
X146271309Y-77052142D01*
X146318928Y-77099761D01*
X146414166Y-77147380D01*
X146699880Y-77147380D01*
X146795119Y-77099761D01*
X146842738Y-77052142D01*
X145795119Y-77052142D02*
X145747500Y-77099761D01*
X145795119Y-77147380D01*
X145842738Y-77099761D01*
X145795119Y-77052142D01*
X145795119Y-77147380D01*
X145414166Y-76147380D02*
X144795119Y-76147380D01*
X145128452Y-76528333D01*
X144985595Y-76528333D01*
X144890357Y-76575952D01*
X144842738Y-76623571D01*
X144795119Y-76718809D01*
X144795119Y-76956904D01*
X144842738Y-77052142D01*
X144890357Y-77099761D01*
X144985595Y-77147380D01*
X145271309Y-77147380D01*
X145366547Y-77099761D01*
X145414166Y-77052142D01*
X144509404Y-76147380D02*
X144176071Y-77147380D01*
X143842738Y-76147380D01*
X167604577Y-72302825D02*
X167795054Y-72302825D01*
X167890292Y-72350445D01*
X167937911Y-72398064D01*
X168033149Y-72540921D01*
X168080768Y-72731397D01*
X168080768Y-73112349D01*
X168033149Y-73207587D01*
X167985530Y-73255206D01*
X167890292Y-73302825D01*
X167699815Y-73302825D01*
X167604577Y-73255206D01*
X167556958Y-73207587D01*
X167509339Y-73112349D01*
X167509339Y-72874254D01*
X167556958Y-72779016D01*
X167604577Y-72731397D01*
X167699815Y-72683778D01*
X167890292Y-72683778D01*
X167985530Y-72731397D01*
X168033149Y-72779016D01*
X168080768Y-72874254D01*
X142078333Y-65987380D02*
X141459285Y-65987380D01*
X141792619Y-66368333D01*
X141649761Y-66368333D01*
X141554523Y-66415952D01*
X141506904Y-66463571D01*
X141459285Y-66558809D01*
X141459285Y-66796904D01*
X141506904Y-66892142D01*
X141554523Y-66939761D01*
X141649761Y-66987380D01*
X141935476Y-66987380D01*
X142030714Y-66939761D01*
X142078333Y-66892142D01*
X171930090Y-89958571D02*
X171596757Y-89958571D01*
X171453900Y-90482380D02*
X171930090Y-90482380D01*
X171930090Y-89482380D01*
X171453900Y-89482380D01*
X171072947Y-90434761D02*
X170930090Y-90482380D01*
X170691995Y-90482380D01*
X170596757Y-90434761D01*
X170549138Y-90387142D01*
X170501519Y-90291904D01*
X170501519Y-90196666D01*
X170549138Y-90101428D01*
X170596757Y-90053809D01*
X170691995Y-90006190D01*
X170882471Y-89958571D01*
X170977709Y-89910952D01*
X171025328Y-89863333D01*
X171072947Y-89768095D01*
X171072947Y-89672857D01*
X171025328Y-89577619D01*
X170977709Y-89530000D01*
X170882471Y-89482380D01*
X170644376Y-89482380D01*
X170501519Y-89530000D01*
X170072947Y-90482380D02*
X170072947Y-89482380D01*
X169691995Y-89482380D01*
X169596757Y-89530000D01*
X169549138Y-89577619D01*
X169501519Y-89672857D01*
X169501519Y-89815714D01*
X169549138Y-89910952D01*
X169596757Y-89958571D01*
X169691995Y-90006190D01*
X170072947Y-90006190D01*
X169168186Y-89482380D02*
X168549138Y-89482380D01*
X168882471Y-89863333D01*
X168739614Y-89863333D01*
X168644376Y-89910952D01*
X168596757Y-89958571D01*
X168549138Y-90053809D01*
X168549138Y-90291904D01*
X168596757Y-90387142D01*
X168644376Y-90434761D01*
X168739614Y-90482380D01*
X169025328Y-90482380D01*
X169120566Y-90434761D01*
X169168186Y-90387142D01*
X168168186Y-89577619D02*
X168120566Y-89530000D01*
X168025328Y-89482380D01*
X167787233Y-89482380D01*
X167691995Y-89530000D01*
X167644376Y-89577619D01*
X167596757Y-89672857D01*
X167596757Y-89768095D01*
X167644376Y-89910952D01*
X168215805Y-90482380D01*
X167596757Y-90482380D01*
X167406281Y-90577619D02*
X166644376Y-90577619D01*
X166406281Y-90482380D02*
X166406281Y-89482380D01*
X166168186Y-89482380D01*
X166025328Y-89530000D01*
X165930090Y-89625238D01*
X165882471Y-89720476D01*
X165834852Y-89910952D01*
X165834852Y-90053809D01*
X165882471Y-90244285D01*
X165930090Y-90339523D01*
X166025328Y-90434761D01*
X166168186Y-90482380D01*
X166406281Y-90482380D01*
X164882471Y-90482380D02*
X165453900Y-90482380D01*
X165168186Y-90482380D02*
X165168186Y-89482380D01*
X165263424Y-89625238D01*
X165358662Y-89720476D01*
X165453900Y-89768095D01*
X164691995Y-90577619D02*
X163930090Y-90577619D01*
X163120566Y-90482380D02*
X163453900Y-90006190D01*
X163691995Y-90482380D02*
X163691995Y-89482380D01*
X163311043Y-89482380D01*
X163215805Y-89530000D01*
X163168186Y-89577619D01*
X163120566Y-89672857D01*
X163120566Y-89815714D01*
X163168186Y-89910952D01*
X163215805Y-89958571D01*
X163311043Y-90006190D01*
X163691995Y-90006190D01*
X162787233Y-89482380D02*
X162120566Y-90482380D01*
X162120566Y-89482380D02*
X162787233Y-90482380D01*
X160263424Y-89434761D02*
X161120566Y-90720476D01*
X159168186Y-90482380D02*
X159168186Y-89482380D01*
X158834852Y-90196666D01*
X158501519Y-89482380D01*
X158501519Y-90482380D01*
X157453900Y-90387142D02*
X157501519Y-90434761D01*
X157644376Y-90482380D01*
X157739614Y-90482380D01*
X157882471Y-90434761D01*
X157977709Y-90339523D01*
X158025328Y-90244285D01*
X158072947Y-90053809D01*
X158072947Y-89910952D01*
X158025328Y-89720476D01*
X157977709Y-89625238D01*
X157882471Y-89530000D01*
X157739614Y-89482380D01*
X157644376Y-89482380D01*
X157501519Y-89530000D01*
X157453900Y-89577619D01*
X157025328Y-89482380D02*
X157025328Y-90291904D01*
X156977709Y-90387142D01*
X156930090Y-90434761D01*
X156834852Y-90482380D01*
X156644376Y-90482380D01*
X156549138Y-90434761D01*
X156501519Y-90387142D01*
X156453900Y-90291904D01*
X156453900Y-89482380D01*
X156025328Y-89577619D02*
X155977709Y-89530000D01*
X155882471Y-89482380D01*
X155644376Y-89482380D01*
X155549138Y-89530000D01*
X155501519Y-89577619D01*
X155453900Y-89672857D01*
X155453900Y-89768095D01*
X155501519Y-89910952D01*
X156072947Y-90482380D01*
X155453900Y-90482380D01*
X155263424Y-90577619D02*
X154501519Y-90577619D01*
X153739614Y-89530000D02*
X153834852Y-89482380D01*
X153977709Y-89482380D01*
X154120566Y-89530000D01*
X154215805Y-89625238D01*
X154263424Y-89720476D01*
X154311043Y-89910952D01*
X154311043Y-90053809D01*
X154263424Y-90244285D01*
X154215805Y-90339523D01*
X154120566Y-90434761D01*
X153977709Y-90482380D01*
X153882471Y-90482380D01*
X153739614Y-90434761D01*
X153691995Y-90387142D01*
X153691995Y-90053809D01*
X153882471Y-90053809D01*
X153263424Y-90482380D02*
X153263424Y-89482380D01*
X152882471Y-89482380D01*
X152787233Y-89530000D01*
X152739614Y-89577619D01*
X152691995Y-89672857D01*
X152691995Y-89815714D01*
X152739614Y-89910952D01*
X152787233Y-89958571D01*
X152882471Y-90006190D01*
X153263424Y-90006190D01*
X152263424Y-90482380D02*
X152263424Y-89482380D01*
X151596757Y-89482380D02*
X151406281Y-89482380D01*
X151311043Y-89530000D01*
X151215805Y-89625238D01*
X151168186Y-89815714D01*
X151168186Y-90149047D01*
X151215805Y-90339523D01*
X151311043Y-90434761D01*
X151406281Y-90482380D01*
X151596757Y-90482380D01*
X151691995Y-90434761D01*
X151787233Y-90339523D01*
X151834852Y-90149047D01*
X151834852Y-89815714D01*
X151787233Y-89625238D01*
X151691995Y-89530000D01*
X151596757Y-89482380D01*
X150549138Y-89482380D02*
X150453900Y-89482380D01*
X150358662Y-89530000D01*
X150311043Y-89577619D01*
X150263424Y-89672857D01*
X150215805Y-89863333D01*
X150215805Y-90101428D01*
X150263424Y-90291904D01*
X150311043Y-90387142D01*
X150358662Y-90434761D01*
X150453900Y-90482380D01*
X150549138Y-90482380D01*
X150644376Y-90434761D01*
X150691995Y-90387142D01*
X150739614Y-90291904D01*
X150787233Y-90101428D01*
X150787233Y-89863333D01*
X150739614Y-89672857D01*
X150691995Y-89577619D01*
X150644376Y-89530000D01*
X150549138Y-89482380D01*
X149739614Y-90482380D02*
X149549138Y-90482380D01*
X149453900Y-90434761D01*
X149406281Y-90387142D01*
X149311043Y-90244285D01*
X149263424Y-90053809D01*
X149263424Y-89672857D01*
X149311043Y-89577619D01*
X149358662Y-89530000D01*
X149453900Y-89482380D01*
X149644376Y-89482380D01*
X149739614Y-89530000D01*
X149787233Y-89577619D01*
X149834852Y-89672857D01*
X149834852Y-89910952D01*
X149787233Y-90006190D01*
X149739614Y-90053809D01*
X149644376Y-90101428D01*
X149453900Y-90101428D01*
X149358662Y-90053809D01*
X149311043Y-90006190D01*
X149263424Y-89910952D01*
X138125476Y-74607380D02*
X138696904Y-74607380D01*
X138411190Y-74607380D02*
X138411190Y-73607380D01*
X138506428Y-73750238D01*
X138601666Y-73845476D01*
X138696904Y-73893095D01*
X137506428Y-73607380D02*
X137411190Y-73607380D01*
X137315952Y-73655000D01*
X137268333Y-73702619D01*
X137220714Y-73797857D01*
X137173095Y-73988333D01*
X137173095Y-74226428D01*
X137220714Y-74416904D01*
X137268333Y-74512142D01*
X137315952Y-74559761D01*
X137411190Y-74607380D01*
X137506428Y-74607380D01*
X137601666Y-74559761D01*
X137649285Y-74512142D01*
X137696904Y-74416904D01*
X137744523Y-74226428D01*
X137744523Y-73988333D01*
X137696904Y-73797857D01*
X137649285Y-73702619D01*
X137601666Y-73655000D01*
X137506428Y-73607380D01*
X137585714Y-63542619D02*
X137538095Y-63495000D01*
X137442857Y-63447380D01*
X137204761Y-63447380D01*
X137109523Y-63495000D01*
X137061904Y-63542619D01*
X137014285Y-63637857D01*
X137014285Y-63733095D01*
X137061904Y-63875952D01*
X137633333Y-64447380D01*
X137014285Y-64447380D01*
X170653333Y-62123324D02*
X169986666Y-62123324D01*
X170415238Y-63123324D01*
X171889404Y-82481428D02*
X171127500Y-82481428D01*
X171508452Y-82862380D02*
X171508452Y-82100476D01*
X170746547Y-81862380D02*
X170127500Y-81862380D01*
X170460833Y-82243333D01*
X170317976Y-82243333D01*
X170222738Y-82290952D01*
X170175119Y-82338571D01*
X170127500Y-82433809D01*
X170127500Y-82671904D01*
X170175119Y-82767142D01*
X170222738Y-82814761D01*
X170317976Y-82862380D01*
X170603690Y-82862380D01*
X170698928Y-82814761D01*
X170746547Y-82767142D01*
X169698928Y-82767142D02*
X169651309Y-82814761D01*
X169698928Y-82862380D01*
X169746547Y-82814761D01*
X169698928Y-82767142D01*
X169698928Y-82862380D01*
X169317976Y-81862380D02*
X168698928Y-81862380D01*
X169032261Y-82243333D01*
X168889404Y-82243333D01*
X168794166Y-82290952D01*
X168746547Y-82338571D01*
X168698928Y-82433809D01*
X168698928Y-82671904D01*
X168746547Y-82767142D01*
X168794166Y-82814761D01*
X168889404Y-82862380D01*
X169175119Y-82862380D01*
X169270357Y-82814761D01*
X169317976Y-82767142D01*
X168413214Y-81862380D02*
X168079880Y-82862380D01*
X167746547Y-81862380D01*
X136025718Y-66987380D02*
X136025718Y-65987380D01*
X135692385Y-66701666D01*
X135359052Y-65987380D01*
X135359052Y-66987380D01*
X134311433Y-66892142D02*
X134359052Y-66939761D01*
X134501909Y-66987380D01*
X134597147Y-66987380D01*
X134740004Y-66939761D01*
X134835242Y-66844523D01*
X134882861Y-66749285D01*
X134930480Y-66558809D01*
X134930480Y-66415952D01*
X134882861Y-66225476D01*
X134835242Y-66130238D01*
X134740004Y-66035000D01*
X134597147Y-65987380D01*
X134501909Y-65987380D01*
X134359052Y-66035000D01*
X134311433Y-66082619D01*
X133882861Y-65987380D02*
X133882861Y-66796904D01*
X133835242Y-66892142D01*
X133787623Y-66939761D01*
X133692385Y-66987380D01*
X133501909Y-66987380D01*
X133406671Y-66939761D01*
X133359052Y-66892142D01*
X133311433Y-66796904D01*
X133311433Y-65987380D01*
X132882861Y-66082619D02*
X132835242Y-66035000D01*
X132740004Y-65987380D01*
X132501909Y-65987380D01*
X132406671Y-66035000D01*
X132359052Y-66082619D01*
X132311433Y-66177857D01*
X132311433Y-66273095D01*
X132359052Y-66415952D01*
X132930480Y-66987380D01*
X132311433Y-66987380D01*
X132120956Y-67082619D02*
X131359052Y-67082619D01*
X130549528Y-66892142D02*
X130597147Y-66939761D01*
X130740004Y-66987380D01*
X130835242Y-66987380D01*
X130978099Y-66939761D01*
X131073337Y-66844523D01*
X131120956Y-66749285D01*
X131168575Y-66558809D01*
X131168575Y-66415952D01*
X131120956Y-66225476D01*
X131073337Y-66130238D01*
X130978099Y-66035000D01*
X130835242Y-65987380D01*
X130740004Y-65987380D01*
X130597147Y-66035000D01*
X130549528Y-66082619D01*
X130168575Y-66939761D02*
X130025718Y-66987380D01*
X129787623Y-66987380D01*
X129692385Y-66939761D01*
X129644766Y-66892142D01*
X129597147Y-66796904D01*
X129597147Y-66701666D01*
X129644766Y-66606428D01*
X129692385Y-66558809D01*
X129787623Y-66511190D01*
X129978099Y-66463571D01*
X130073337Y-66415952D01*
X130120956Y-66368333D01*
X130168575Y-66273095D01*
X130168575Y-66177857D01*
X130120956Y-66082619D01*
X130073337Y-66035000D01*
X129978099Y-65987380D01*
X129740004Y-65987380D01*
X129597147Y-66035000D01*
X154795119Y-64447380D02*
X154795119Y-63447380D01*
X154461785Y-64161666D01*
X154128452Y-63447380D01*
X154128452Y-64447380D01*
X153080833Y-64352142D02*
X153128452Y-64399761D01*
X153271309Y-64447380D01*
X153366547Y-64447380D01*
X153509404Y-64399761D01*
X153604642Y-64304523D01*
X153652261Y-64209285D01*
X153699880Y-64018809D01*
X153699880Y-63875952D01*
X153652261Y-63685476D01*
X153604642Y-63590238D01*
X153509404Y-63495000D01*
X153366547Y-63447380D01*
X153271309Y-63447380D01*
X153128452Y-63495000D01*
X153080833Y-63542619D01*
X152652261Y-63447380D02*
X152652261Y-64256904D01*
X152604642Y-64352142D01*
X152557023Y-64399761D01*
X152461785Y-64447380D01*
X152271309Y-64447380D01*
X152176071Y-64399761D01*
X152128452Y-64352142D01*
X152080833Y-64256904D01*
X152080833Y-63447380D01*
X151652261Y-63542619D02*
X151604642Y-63495000D01*
X151509404Y-63447380D01*
X151271309Y-63447380D01*
X151176071Y-63495000D01*
X151128452Y-63542619D01*
X151080833Y-63637857D01*
X151080833Y-63733095D01*
X151128452Y-63875952D01*
X151699880Y-64447380D01*
X151080833Y-64447380D01*
X150890357Y-64542619D02*
X150128452Y-64542619D01*
X149890357Y-63447380D02*
X149890357Y-64256904D01*
X149842738Y-64352142D01*
X149795119Y-64399761D01*
X149699880Y-64447380D01*
X149509404Y-64447380D01*
X149414166Y-64399761D01*
X149366547Y-64352142D01*
X149318928Y-64256904D01*
X149318928Y-63447380D01*
X148890357Y-64161666D02*
X148414166Y-64161666D01*
X148985595Y-64447380D02*
X148652261Y-63447380D01*
X148318928Y-64447380D01*
X147414166Y-64447380D02*
X147747500Y-63971190D01*
X147985595Y-64447380D02*
X147985595Y-63447380D01*
X147604642Y-63447380D01*
X147509404Y-63495000D01*
X147461785Y-63542619D01*
X147414166Y-63637857D01*
X147414166Y-63780714D01*
X147461785Y-63875952D01*
X147509404Y-63923571D01*
X147604642Y-63971190D01*
X147985595Y-63971190D01*
X147128452Y-63447380D02*
X146557023Y-63447380D01*
X146842738Y-64447380D02*
X146842738Y-63447380D01*
X146461785Y-64542619D02*
X145699880Y-64542619D01*
X144890357Y-64447380D02*
X145223690Y-63971190D01*
X145461785Y-64447380D02*
X145461785Y-63447380D01*
X145080833Y-63447380D01*
X144985595Y-63495000D01*
X144937976Y-63542619D01*
X144890357Y-63637857D01*
X144890357Y-63780714D01*
X144937976Y-63875952D01*
X144985595Y-63923571D01*
X145080833Y-63971190D01*
X145461785Y-63971190D01*
X144557023Y-63447380D02*
X143890357Y-64447380D01*
X143890357Y-63447380D02*
X144557023Y-64447380D01*
X136025718Y-64488262D02*
X136025718Y-63488262D01*
X135692385Y-64202548D01*
X135359052Y-63488262D01*
X135359052Y-64488262D01*
X134311433Y-64393024D02*
X134359052Y-64440643D01*
X134501909Y-64488262D01*
X134597147Y-64488262D01*
X134740004Y-64440643D01*
X134835242Y-64345405D01*
X134882861Y-64250167D01*
X134930480Y-64059691D01*
X134930480Y-63916834D01*
X134882861Y-63726358D01*
X134835242Y-63631120D01*
X134740004Y-63535882D01*
X134597147Y-63488262D01*
X134501909Y-63488262D01*
X134359052Y-63535882D01*
X134311433Y-63583501D01*
X133882861Y-63488262D02*
X133882861Y-64297786D01*
X133835242Y-64393024D01*
X133787623Y-64440643D01*
X133692385Y-64488262D01*
X133501909Y-64488262D01*
X133406671Y-64440643D01*
X133359052Y-64393024D01*
X133311433Y-64297786D01*
X133311433Y-63488262D01*
X132882861Y-63583501D02*
X132835242Y-63535882D01*
X132740004Y-63488262D01*
X132501909Y-63488262D01*
X132406671Y-63535882D01*
X132359052Y-63583501D01*
X132311433Y-63678739D01*
X132311433Y-63773977D01*
X132359052Y-63916834D01*
X132930480Y-64488262D01*
X132311433Y-64488262D01*
X132120956Y-64583501D02*
X131359052Y-64583501D01*
X130597147Y-63535882D02*
X130692385Y-63488262D01*
X130835242Y-63488262D01*
X130978099Y-63535882D01*
X131073337Y-63631120D01*
X131120956Y-63726358D01*
X131168575Y-63916834D01*
X131168575Y-64059691D01*
X131120956Y-64250167D01*
X131073337Y-64345405D01*
X130978099Y-64440643D01*
X130835242Y-64488262D01*
X130740004Y-64488262D01*
X130597147Y-64440643D01*
X130549528Y-64393024D01*
X130549528Y-64059691D01*
X130740004Y-64059691D01*
X130120956Y-64488262D02*
X130120956Y-63488262D01*
X129740004Y-63488262D01*
X129644766Y-63535882D01*
X129597147Y-63583501D01*
X129549528Y-63678739D01*
X129549528Y-63821596D01*
X129597147Y-63916834D01*
X129644766Y-63964453D01*
X129740004Y-64012072D01*
X130120956Y-64012072D01*
X129120956Y-64488262D02*
X129120956Y-63488262D01*
X128454290Y-63488262D02*
X128263814Y-63488262D01*
X128168575Y-63535882D01*
X128073337Y-63631120D01*
X128025718Y-63821596D01*
X128025718Y-64154929D01*
X128073337Y-64345405D01*
X128168575Y-64440643D01*
X128263814Y-64488262D01*
X128454290Y-64488262D01*
X128549528Y-64440643D01*
X128644766Y-64345405D01*
X128692385Y-64154929D01*
X128692385Y-63821596D01*
X128644766Y-63631120D01*
X128549528Y-63535882D01*
X128454290Y-63488262D01*
X127644766Y-63583501D02*
X127597147Y-63535882D01*
X127501909Y-63488262D01*
X127263814Y-63488262D01*
X127168575Y-63535882D01*
X127120956Y-63583501D01*
X127073337Y-63678739D01*
X127073337Y-63773977D01*
X127120956Y-63916834D01*
X127692385Y-64488262D01*
X127073337Y-64488262D01*
X126120956Y-64488262D02*
X126692385Y-64488262D01*
X126406671Y-64488262D02*
X126406671Y-63488262D01*
X126501909Y-63631120D01*
X126597147Y-63726358D01*
X126692385Y-63773977D01*
X171431386Y-99690000D02*
X171526624Y-99642380D01*
X171669481Y-99642380D01*
X171812338Y-99690000D01*
X171907576Y-99785238D01*
X171955195Y-99880476D01*
X172002814Y-100070952D01*
X172002814Y-100213809D01*
X171955195Y-100404285D01*
X171907576Y-100499523D01*
X171812338Y-100594761D01*
X171669481Y-100642380D01*
X171574243Y-100642380D01*
X171431386Y-100594761D01*
X171383767Y-100547142D01*
X171383767Y-100213809D01*
X171574243Y-100213809D01*
X170955195Y-100642380D02*
X170955195Y-99642380D01*
X170383767Y-100642380D01*
X170383767Y-99642380D01*
X169907576Y-100642380D02*
X169907576Y-99642380D01*
X169669481Y-99642380D01*
X169526624Y-99690000D01*
X169431386Y-99785238D01*
X169383767Y-99880476D01*
X169336148Y-100070952D01*
X169336148Y-100213809D01*
X169383767Y-100404285D01*
X169431386Y-100499523D01*
X169526624Y-100594761D01*
X169669481Y-100642380D01*
X169907576Y-100642380D01*
X136105358Y-72067380D02*
X136105358Y-71067380D01*
X135772025Y-71781666D01*
X135438692Y-71067380D01*
X135438692Y-72067380D01*
X134391073Y-71972142D02*
X134438692Y-72019761D01*
X134581549Y-72067380D01*
X134676787Y-72067380D01*
X134819644Y-72019761D01*
X134914882Y-71924523D01*
X134962501Y-71829285D01*
X135010120Y-71638809D01*
X135010120Y-71495952D01*
X134962501Y-71305476D01*
X134914882Y-71210238D01*
X134819644Y-71115000D01*
X134676787Y-71067380D01*
X134581549Y-71067380D01*
X134438692Y-71115000D01*
X134391073Y-71162619D01*
X133962501Y-71067380D02*
X133962501Y-71876904D01*
X133914882Y-71972142D01*
X133867263Y-72019761D01*
X133772025Y-72067380D01*
X133581549Y-72067380D01*
X133486311Y-72019761D01*
X133438692Y-71972142D01*
X133391073Y-71876904D01*
X133391073Y-71067380D01*
X132391073Y-72067380D02*
X132962501Y-72067380D01*
X132676787Y-72067380D02*
X132676787Y-71067380D01*
X132772025Y-71210238D01*
X132867263Y-71305476D01*
X132962501Y-71353095D01*
X132200596Y-72162619D02*
X131438692Y-72162619D01*
X131248215Y-72019761D02*
X131105358Y-72067380D01*
X130867263Y-72067380D01*
X130772025Y-72019761D01*
X130724406Y-71972142D01*
X130676787Y-71876904D01*
X130676787Y-71781666D01*
X130724406Y-71686428D01*
X130772025Y-71638809D01*
X130867263Y-71591190D01*
X131057739Y-71543571D01*
X131152977Y-71495952D01*
X131200596Y-71448333D01*
X131248215Y-71353095D01*
X131248215Y-71257857D01*
X131200596Y-71162619D01*
X131152977Y-71115000D01*
X131057739Y-71067380D01*
X130819644Y-71067380D01*
X130676787Y-71115000D01*
X130343454Y-71067380D02*
X130105358Y-72067380D01*
X129914882Y-71353095D01*
X129724406Y-72067380D01*
X129486311Y-71067380D01*
X128533930Y-71972142D02*
X128581549Y-72019761D01*
X128724406Y-72067380D01*
X128819644Y-72067380D01*
X128962501Y-72019761D01*
X129057739Y-71924523D01*
X129105358Y-71829285D01*
X129152977Y-71638809D01*
X129152977Y-71495952D01*
X129105358Y-71305476D01*
X129057739Y-71210238D01*
X128962501Y-71115000D01*
X128819644Y-71067380D01*
X128724406Y-71067380D01*
X128581549Y-71115000D01*
X128533930Y-71162619D01*
X127629168Y-72067380D02*
X128105358Y-72067380D01*
X128105358Y-71067380D01*
X127295834Y-72067380D02*
X127295834Y-71067380D01*
X126724406Y-72067380D02*
X127152977Y-71495952D01*
X126724406Y-71067380D02*
X127295834Y-71638809D01*
X142125952Y-76766428D02*
X141364047Y-76766428D01*
X141745000Y-77147380D02*
X141745000Y-76385476D01*
X171930090Y-95562380D02*
X171930090Y-94562380D01*
X171596757Y-95276666D01*
X171263424Y-94562380D01*
X171263424Y-95562380D01*
X170215805Y-95467142D02*
X170263424Y-95514761D01*
X170406281Y-95562380D01*
X170501519Y-95562380D01*
X170644376Y-95514761D01*
X170739614Y-95419523D01*
X170787233Y-95324285D01*
X170834852Y-95133809D01*
X170834852Y-94990952D01*
X170787233Y-94800476D01*
X170739614Y-94705238D01*
X170644376Y-94610000D01*
X170501519Y-94562380D01*
X170406281Y-94562380D01*
X170263424Y-94610000D01*
X170215805Y-94657619D01*
X169787233Y-94562380D02*
X169787233Y-95371904D01*
X169739614Y-95467142D01*
X169691995Y-95514761D01*
X169596757Y-95562380D01*
X169406281Y-95562380D01*
X169311043Y-95514761D01*
X169263424Y-95467142D01*
X169215805Y-95371904D01*
X169215805Y-94562380D01*
X168787233Y-94657619D02*
X168739614Y-94610000D01*
X168644376Y-94562380D01*
X168406281Y-94562380D01*
X168311043Y-94610000D01*
X168263424Y-94657619D01*
X168215805Y-94752857D01*
X168215805Y-94848095D01*
X168263424Y-94990952D01*
X168834852Y-95562380D01*
X168215805Y-95562380D01*
X168025328Y-95657619D02*
X167263424Y-95657619D01*
X167025328Y-94562380D02*
X167025328Y-95371904D01*
X166977709Y-95467142D01*
X166930090Y-95514761D01*
X166834852Y-95562380D01*
X166644376Y-95562380D01*
X166549138Y-95514761D01*
X166501519Y-95467142D01*
X166453900Y-95371904D01*
X166453900Y-94562380D01*
X166025328Y-95276666D02*
X165549138Y-95276666D01*
X166120566Y-95562380D02*
X165787233Y-94562380D01*
X165453900Y-95562380D01*
X164549138Y-95562380D02*
X164882471Y-95086190D01*
X165120566Y-95562380D02*
X165120566Y-94562380D01*
X164739614Y-94562380D01*
X164644376Y-94610000D01*
X164596757Y-94657619D01*
X164549138Y-94752857D01*
X164549138Y-94895714D01*
X164596757Y-94990952D01*
X164644376Y-95038571D01*
X164739614Y-95086190D01*
X165120566Y-95086190D01*
X164263424Y-94562380D02*
X163691995Y-94562380D01*
X163977709Y-95562380D02*
X163977709Y-94562380D01*
X163596757Y-95657619D02*
X162834852Y-95657619D01*
X162739614Y-94562380D02*
X162168186Y-94562380D01*
X162453900Y-95562380D02*
X162453900Y-94562380D01*
X161930090Y-94562380D02*
X161263424Y-95562380D01*
X161263424Y-94562380D02*
X161930090Y-95562380D01*
X159406281Y-94514761D02*
X160263424Y-95800476D01*
X158311043Y-95562380D02*
X158311043Y-94562380D01*
X157977709Y-95276666D01*
X157644376Y-94562380D01*
X157644376Y-95562380D01*
X156596757Y-95467142D02*
X156644376Y-95514761D01*
X156787233Y-95562380D01*
X156882471Y-95562380D01*
X157025328Y-95514761D01*
X157120566Y-95419523D01*
X157168186Y-95324285D01*
X157215805Y-95133809D01*
X157215805Y-94990952D01*
X157168186Y-94800476D01*
X157120566Y-94705238D01*
X157025328Y-94610000D01*
X156882471Y-94562380D01*
X156787233Y-94562380D01*
X156644376Y-94610000D01*
X156596757Y-94657619D01*
X156168186Y-94562380D02*
X156168186Y-95371904D01*
X156120566Y-95467142D01*
X156072947Y-95514761D01*
X155977709Y-95562380D01*
X155787233Y-95562380D01*
X155691995Y-95514761D01*
X155644376Y-95467142D01*
X155596757Y-95371904D01*
X155596757Y-94562380D01*
X155168186Y-94657619D02*
X155120566Y-94610000D01*
X155025328Y-94562380D01*
X154787233Y-94562380D01*
X154691995Y-94610000D01*
X154644376Y-94657619D01*
X154596757Y-94752857D01*
X154596757Y-94848095D01*
X154644376Y-94990952D01*
X155215805Y-95562380D01*
X154596757Y-95562380D01*
X154406281Y-95657619D02*
X153644376Y-95657619D01*
X152882471Y-94610000D02*
X152977709Y-94562380D01*
X153120566Y-94562380D01*
X153263424Y-94610000D01*
X153358662Y-94705238D01*
X153406281Y-94800476D01*
X153453900Y-94990952D01*
X153453900Y-95133809D01*
X153406281Y-95324285D01*
X153358662Y-95419523D01*
X153263424Y-95514761D01*
X153120566Y-95562380D01*
X153025328Y-95562380D01*
X152882471Y-95514761D01*
X152834852Y-95467142D01*
X152834852Y-95133809D01*
X153025328Y-95133809D01*
X152406281Y-95562380D02*
X152406281Y-94562380D01*
X152025328Y-94562380D01*
X151930090Y-94610000D01*
X151882471Y-94657619D01*
X151834852Y-94752857D01*
X151834852Y-94895714D01*
X151882471Y-94990952D01*
X151930090Y-95038571D01*
X152025328Y-95086190D01*
X152406281Y-95086190D01*
X151406281Y-95562380D02*
X151406281Y-94562380D01*
X150739614Y-94562380D02*
X150549138Y-94562380D01*
X150453900Y-94610000D01*
X150358662Y-94705238D01*
X150311043Y-94895714D01*
X150311043Y-95229047D01*
X150358662Y-95419523D01*
X150453900Y-95514761D01*
X150549138Y-95562380D01*
X150739614Y-95562380D01*
X150834852Y-95514761D01*
X150930090Y-95419523D01*
X150977709Y-95229047D01*
X150977709Y-94895714D01*
X150930090Y-94705238D01*
X150834852Y-94610000D01*
X150739614Y-94562380D01*
X149691995Y-94562380D02*
X149596757Y-94562380D01*
X149501519Y-94610000D01*
X149453900Y-94657619D01*
X149406281Y-94752857D01*
X149358662Y-94943333D01*
X149358662Y-95181428D01*
X149406281Y-95371904D01*
X149453900Y-95467142D01*
X149501519Y-95514761D01*
X149596757Y-95562380D01*
X149691995Y-95562380D01*
X149787233Y-95514761D01*
X149834852Y-95467142D01*
X149882471Y-95371904D01*
X149930090Y-95181428D01*
X149930090Y-94943333D01*
X149882471Y-94752857D01*
X149834852Y-94657619D01*
X149787233Y-94610000D01*
X149691995Y-94562380D01*
X148739614Y-94562380D02*
X148644376Y-94562380D01*
X148549138Y-94610000D01*
X148501519Y-94657619D01*
X148453900Y-94752857D01*
X148406281Y-94943333D01*
X148406281Y-95181428D01*
X148453900Y-95371904D01*
X148501519Y-95467142D01*
X148549138Y-95514761D01*
X148644376Y-95562380D01*
X148739614Y-95562380D01*
X148834852Y-95514761D01*
X148882471Y-95467142D01*
X148930090Y-95371904D01*
X148977709Y-95181428D01*
X148977709Y-94943333D01*
X148930090Y-94752857D01*
X148882471Y-94657619D01*
X148834852Y-94610000D01*
X148739614Y-94562380D01*
X162414285Y-63177380D02*
X162985714Y-63177380D01*
X162700000Y-63177380D02*
X162700000Y-62177380D01*
X162795238Y-62320238D01*
X162890476Y-62415476D01*
X162985714Y-62463095D01*
X165573333Y-62162325D02*
X164954285Y-62162325D01*
X165287619Y-62543278D01*
X165144761Y-62543278D01*
X165049523Y-62590897D01*
X165001904Y-62638516D01*
X164954285Y-62733754D01*
X164954285Y-62971849D01*
X165001904Y-63067087D01*
X165049523Y-63114706D01*
X165144761Y-63162325D01*
X165430476Y-63162325D01*
X165525714Y-63114706D01*
X165573333Y-63067087D01*
X136056834Y-69527380D02*
X136056834Y-68527380D01*
X135723501Y-69241666D01*
X135390168Y-68527380D01*
X135390168Y-69527380D01*
X134342549Y-69432142D02*
X134390168Y-69479761D01*
X134533025Y-69527380D01*
X134628263Y-69527380D01*
X134771120Y-69479761D01*
X134866358Y-69384523D01*
X134913977Y-69289285D01*
X134961596Y-69098809D01*
X134961596Y-68955952D01*
X134913977Y-68765476D01*
X134866358Y-68670238D01*
X134771120Y-68575000D01*
X134628263Y-68527380D01*
X134533025Y-68527380D01*
X134390168Y-68575000D01*
X134342549Y-68622619D01*
X133913977Y-68527380D02*
X133913977Y-69336904D01*
X133866358Y-69432142D01*
X133818739Y-69479761D01*
X133723501Y-69527380D01*
X133533025Y-69527380D01*
X133437787Y-69479761D01*
X133390168Y-69432142D01*
X133342549Y-69336904D01*
X133342549Y-68527380D01*
X132342549Y-69527380D02*
X132913977Y-69527380D01*
X132628263Y-69527380D02*
X132628263Y-68527380D01*
X132723501Y-68670238D01*
X132818739Y-68765476D01*
X132913977Y-68813095D01*
X132152072Y-69622619D02*
X131390168Y-69622619D01*
X131199691Y-69479761D02*
X131056834Y-69527380D01*
X130818739Y-69527380D01*
X130723501Y-69479761D01*
X130675882Y-69432142D01*
X130628263Y-69336904D01*
X130628263Y-69241666D01*
X130675882Y-69146428D01*
X130723501Y-69098809D01*
X130818739Y-69051190D01*
X131009215Y-69003571D01*
X131104453Y-68955952D01*
X131152072Y-68908333D01*
X131199691Y-68813095D01*
X131199691Y-68717857D01*
X131152072Y-68622619D01*
X131104453Y-68575000D01*
X131009215Y-68527380D01*
X130771120Y-68527380D01*
X130628263Y-68575000D01*
X130294930Y-68527380D02*
X130056834Y-69527380D01*
X129866358Y-68813095D01*
X129675882Y-69527380D01*
X129437787Y-68527380D01*
X129056834Y-69527380D02*
X129056834Y-68527380D01*
X128818739Y-68527380D01*
X128675882Y-68575000D01*
X128580644Y-68670238D01*
X128533025Y-68765476D01*
X128485406Y-68955952D01*
X128485406Y-69098809D01*
X128533025Y-69289285D01*
X128580644Y-69384523D01*
X128675882Y-69479761D01*
X128818739Y-69527380D01*
X129056834Y-69527380D01*
X128056834Y-69527380D02*
X128056834Y-68527380D01*
X127390168Y-68527380D02*
X127199691Y-68527380D01*
X127104453Y-68575000D01*
X127009215Y-68670238D01*
X126961596Y-68860714D01*
X126961596Y-69194047D01*
X127009215Y-69384523D01*
X127104453Y-69479761D01*
X127199691Y-69527380D01*
X127390168Y-69527380D01*
X127485406Y-69479761D01*
X127580644Y-69384523D01*
X127628263Y-69194047D01*
X127628263Y-68860714D01*
X127580644Y-68670238D01*
X127485406Y-68575000D01*
X127390168Y-68527380D01*
X141506904Y-68527380D02*
X141983095Y-68527380D01*
X142030714Y-69003571D01*
X141983095Y-68955952D01*
X141887857Y-68908333D01*
X141649761Y-68908333D01*
X141554523Y-68955952D01*
X141506904Y-69003571D01*
X141459285Y-69098809D01*
X141459285Y-69336904D01*
X141506904Y-69432142D01*
X141554523Y-69479761D01*
X141649761Y-69527380D01*
X141887857Y-69527380D01*
X141983095Y-69479761D01*
X142030714Y-69432142D01*
X175780952Y-62703371D02*
X175019047Y-62703371D01*
X175400000Y-63084323D02*
X175400000Y-62322419D01*
X137109523Y-68527380D02*
X137300000Y-68527380D01*
X137395238Y-68575000D01*
X137442857Y-68622619D01*
X137538095Y-68765476D01*
X137585714Y-68955952D01*
X137585714Y-69336904D01*
X137538095Y-69432142D01*
X137490476Y-69479761D01*
X137395238Y-69527380D01*
X137204761Y-69527380D01*
X137109523Y-69479761D01*
X137061904Y-69432142D01*
X137014285Y-69336904D01*
X137014285Y-69098809D01*
X137061904Y-69003571D01*
X137109523Y-68955952D01*
X137204761Y-68908333D01*
X137395238Y-68908333D01*
X137490476Y-68955952D01*
X137538095Y-69003571D01*
X137585714Y-69098809D01*
X153033214Y-69527380D02*
X153033214Y-68527380D01*
X152699880Y-69241666D01*
X152366547Y-68527380D01*
X152366547Y-69527380D01*
X151318928Y-69432142D02*
X151366547Y-69479761D01*
X151509404Y-69527380D01*
X151604642Y-69527380D01*
X151747500Y-69479761D01*
X151842738Y-69384523D01*
X151890357Y-69289285D01*
X151937976Y-69098809D01*
X151937976Y-68955952D01*
X151890357Y-68765476D01*
X151842738Y-68670238D01*
X151747500Y-68575000D01*
X151604642Y-68527380D01*
X151509404Y-68527380D01*
X151366547Y-68575000D01*
X151318928Y-68622619D01*
X150890357Y-68527380D02*
X150890357Y-69336904D01*
X150842738Y-69432142D01*
X150795119Y-69479761D01*
X150699880Y-69527380D01*
X150509404Y-69527380D01*
X150414166Y-69479761D01*
X150366547Y-69432142D01*
X150318928Y-69336904D01*
X150318928Y-68527380D01*
X149890357Y-68622619D02*
X149842738Y-68575000D01*
X149747500Y-68527380D01*
X149509404Y-68527380D01*
X149414166Y-68575000D01*
X149366547Y-68622619D01*
X149318928Y-68717857D01*
X149318928Y-68813095D01*
X149366547Y-68955952D01*
X149937976Y-69527380D01*
X149318928Y-69527380D01*
X149128452Y-69622619D02*
X148366547Y-69622619D01*
X148176071Y-69479761D02*
X148033214Y-69527380D01*
X147795119Y-69527380D01*
X147699880Y-69479761D01*
X147652261Y-69432142D01*
X147604642Y-69336904D01*
X147604642Y-69241666D01*
X147652261Y-69146428D01*
X147699880Y-69098809D01*
X147795119Y-69051190D01*
X147985595Y-69003571D01*
X148080833Y-68955952D01*
X148128452Y-68908333D01*
X148176071Y-68813095D01*
X148176071Y-68717857D01*
X148128452Y-68622619D01*
X148080833Y-68575000D01*
X147985595Y-68527380D01*
X147747500Y-68527380D01*
X147604642Y-68575000D01*
X147271309Y-68527380D02*
X147033214Y-69527380D01*
X146842738Y-68813095D01*
X146652261Y-69527380D01*
X146414166Y-68527380D01*
X146033214Y-69527380D02*
X146033214Y-68527380D01*
X145795119Y-68527380D01*
X145652261Y-68575000D01*
X145557023Y-68670238D01*
X145509404Y-68765476D01*
X145461785Y-68955952D01*
X145461785Y-69098809D01*
X145509404Y-69289285D01*
X145557023Y-69384523D01*
X145652261Y-69479761D01*
X145795119Y-69527380D01*
X146033214Y-69527380D01*
X145033214Y-69527380D02*
X145033214Y-68527380D01*
X144366547Y-68527380D02*
X144176071Y-68527380D01*
X144080833Y-68575000D01*
X143985595Y-68670238D01*
X143937976Y-68860714D01*
X143937976Y-69194047D01*
X143985595Y-69384523D01*
X144080833Y-69479761D01*
X144176071Y-69527380D01*
X144366547Y-69527380D01*
X144461785Y-69479761D01*
X144557023Y-69384523D01*
X144604642Y-69194047D01*
X144604642Y-68860714D01*
X144557023Y-68670238D01*
X144461785Y-68575000D01*
X144366547Y-68527380D01*
X171910659Y-87418571D02*
X171577326Y-87418571D01*
X171434469Y-87942380D02*
X171910659Y-87942380D01*
X171910659Y-86942380D01*
X171434469Y-86942380D01*
X171053516Y-87894761D02*
X170910659Y-87942380D01*
X170672564Y-87942380D01*
X170577326Y-87894761D01*
X170529707Y-87847142D01*
X170482088Y-87751904D01*
X170482088Y-87656666D01*
X170529707Y-87561428D01*
X170577326Y-87513809D01*
X170672564Y-87466190D01*
X170863040Y-87418571D01*
X170958278Y-87370952D01*
X171005897Y-87323333D01*
X171053516Y-87228095D01*
X171053516Y-87132857D01*
X171005897Y-87037619D01*
X170958278Y-86990000D01*
X170863040Y-86942380D01*
X170624945Y-86942380D01*
X170482088Y-86990000D01*
X170053516Y-87942380D02*
X170053516Y-86942380D01*
X169672564Y-86942380D01*
X169577326Y-86990000D01*
X169529707Y-87037619D01*
X169482088Y-87132857D01*
X169482088Y-87275714D01*
X169529707Y-87370952D01*
X169577326Y-87418571D01*
X169672564Y-87466190D01*
X170053516Y-87466190D01*
X169148755Y-86942380D02*
X168529707Y-86942380D01*
X168863040Y-87323333D01*
X168720183Y-87323333D01*
X168624945Y-87370952D01*
X168577326Y-87418571D01*
X168529707Y-87513809D01*
X168529707Y-87751904D01*
X168577326Y-87847142D01*
X168624945Y-87894761D01*
X168720183Y-87942380D01*
X169005897Y-87942380D01*
X169101135Y-87894761D01*
X169148755Y-87847142D01*
X168148755Y-87037619D02*
X168101135Y-86990000D01*
X168005897Y-86942380D01*
X167767802Y-86942380D01*
X167672564Y-86990000D01*
X167624945Y-87037619D01*
X167577326Y-87132857D01*
X167577326Y-87228095D01*
X167624945Y-87370952D01*
X168196374Y-87942380D01*
X167577326Y-87942380D01*
X167386850Y-88037619D02*
X166624945Y-88037619D01*
X166386850Y-87942380D02*
X166386850Y-86942380D01*
X166148755Y-86942380D01*
X166005897Y-86990000D01*
X165910659Y-87085238D01*
X165863040Y-87180476D01*
X165815421Y-87370952D01*
X165815421Y-87513809D01*
X165863040Y-87704285D01*
X165910659Y-87799523D01*
X166005897Y-87894761D01*
X166148755Y-87942380D01*
X166386850Y-87942380D01*
X165196374Y-86942380D02*
X165101135Y-86942380D01*
X165005897Y-86990000D01*
X164958278Y-87037619D01*
X164910659Y-87132857D01*
X164863040Y-87323333D01*
X164863040Y-87561428D01*
X164910659Y-87751904D01*
X164958278Y-87847142D01*
X165005897Y-87894761D01*
X165101135Y-87942380D01*
X165196374Y-87942380D01*
X165291612Y-87894761D01*
X165339231Y-87847142D01*
X165386850Y-87751904D01*
X165434469Y-87561428D01*
X165434469Y-87323333D01*
X165386850Y-87132857D01*
X165339231Y-87037619D01*
X165291612Y-86990000D01*
X165196374Y-86942380D01*
X164672564Y-88037619D02*
X163910659Y-88037619D01*
X163815421Y-86942380D02*
X163243993Y-86942380D01*
X163529707Y-87942380D02*
X163529707Y-86942380D01*
X163005897Y-86942380D02*
X162339231Y-87942380D01*
X162339231Y-86942380D02*
X163005897Y-87942380D01*
X160482088Y-86894761D02*
X161339231Y-88180476D01*
X159386850Y-87942380D02*
X159386850Y-86942380D01*
X159053516Y-87656666D01*
X158720183Y-86942380D01*
X158720183Y-87942380D01*
X157672564Y-87847142D02*
X157720183Y-87894761D01*
X157863040Y-87942380D01*
X157958278Y-87942380D01*
X158101135Y-87894761D01*
X158196374Y-87799523D01*
X158243993Y-87704285D01*
X158291612Y-87513809D01*
X158291612Y-87370952D01*
X158243993Y-87180476D01*
X158196374Y-87085238D01*
X158101135Y-86990000D01*
X157958278Y-86942380D01*
X157863040Y-86942380D01*
X157720183Y-86990000D01*
X157672564Y-87037619D01*
X157243993Y-86942380D02*
X157243993Y-87751904D01*
X157196374Y-87847142D01*
X157148755Y-87894761D01*
X157053516Y-87942380D01*
X156863040Y-87942380D01*
X156767802Y-87894761D01*
X156720183Y-87847142D01*
X156672564Y-87751904D01*
X156672564Y-86942380D01*
X156243993Y-87037619D02*
X156196374Y-86990000D01*
X156101135Y-86942380D01*
X155863040Y-86942380D01*
X155767802Y-86990000D01*
X155720183Y-87037619D01*
X155672564Y-87132857D01*
X155672564Y-87228095D01*
X155720183Y-87370952D01*
X156291612Y-87942380D01*
X155672564Y-87942380D01*
X155482088Y-88037619D02*
X154720183Y-88037619D01*
X153958278Y-86990000D02*
X154053516Y-86942380D01*
X154196374Y-86942380D01*
X154339231Y-86990000D01*
X154434469Y-87085238D01*
X154482088Y-87180476D01*
X154529707Y-87370952D01*
X154529707Y-87513809D01*
X154482088Y-87704285D01*
X154434469Y-87799523D01*
X154339231Y-87894761D01*
X154196374Y-87942380D01*
X154101135Y-87942380D01*
X153958278Y-87894761D01*
X153910659Y-87847142D01*
X153910659Y-87513809D01*
X154101135Y-87513809D01*
X153482088Y-87942380D02*
X153482088Y-86942380D01*
X153101135Y-86942380D01*
X153005897Y-86990000D01*
X152958278Y-87037619D01*
X152910659Y-87132857D01*
X152910659Y-87275714D01*
X152958278Y-87370952D01*
X153005897Y-87418571D01*
X153101135Y-87466190D01*
X153482088Y-87466190D01*
X152482088Y-87942380D02*
X152482088Y-86942380D01*
X151815421Y-86942380D02*
X151624945Y-86942380D01*
X151529707Y-86990000D01*
X151434469Y-87085238D01*
X151386850Y-87275714D01*
X151386850Y-87609047D01*
X151434469Y-87799523D01*
X151529707Y-87894761D01*
X151624945Y-87942380D01*
X151815421Y-87942380D01*
X151910659Y-87894761D01*
X152005897Y-87799523D01*
X152053516Y-87609047D01*
X152053516Y-87275714D01*
X152005897Y-87085238D01*
X151910659Y-86990000D01*
X151815421Y-86942380D01*
X150767802Y-86942380D02*
X150672564Y-86942380D01*
X150577326Y-86990000D01*
X150529707Y-87037619D01*
X150482088Y-87132857D01*
X150434469Y-87323333D01*
X150434469Y-87561428D01*
X150482088Y-87751904D01*
X150529707Y-87847142D01*
X150577326Y-87894761D01*
X150672564Y-87942380D01*
X150767802Y-87942380D01*
X150863040Y-87894761D01*
X150910659Y-87847142D01*
X150958278Y-87751904D01*
X151005897Y-87561428D01*
X151005897Y-87323333D01*
X150958278Y-87132857D01*
X150910659Y-87037619D01*
X150863040Y-86990000D01*
X150767802Y-86942380D01*
X149863040Y-87370952D02*
X149958278Y-87323333D01*
X150005897Y-87275714D01*
X150053516Y-87180476D01*
X150053516Y-87132857D01*
X150005897Y-87037619D01*
X149958278Y-86990000D01*
X149863040Y-86942380D01*
X149672564Y-86942380D01*
X149577326Y-86990000D01*
X149529707Y-87037619D01*
X149482088Y-87132857D01*
X149482088Y-87180476D01*
X149529707Y-87275714D01*
X149577326Y-87323333D01*
X149672564Y-87370952D01*
X149863040Y-87370952D01*
X149958278Y-87418571D01*
X150005897Y-87466190D01*
X150053516Y-87561428D01*
X150053516Y-87751904D01*
X150005897Y-87847142D01*
X149958278Y-87894761D01*
X149863040Y-87942380D01*
X149672564Y-87942380D01*
X149577326Y-87894761D01*
X149529707Y-87847142D01*
X149482088Y-87751904D01*
X149482088Y-87561428D01*
X149529707Y-87466190D01*
X149577326Y-87418571D01*
X149672564Y-87370952D01*
X173065530Y-73263824D02*
X173636958Y-73263824D01*
X173351244Y-73263824D02*
X173351244Y-72263824D01*
X173446482Y-72406682D01*
X173541720Y-72501920D01*
X173636958Y-72549539D01*
X172446482Y-72263824D02*
X172351244Y-72263824D01*
X172256006Y-72311444D01*
X172208387Y-72359063D01*
X172160768Y-72454301D01*
X172113149Y-72644777D01*
X172113149Y-72882872D01*
X172160768Y-73073348D01*
X172208387Y-73168586D01*
X172256006Y-73216205D01*
X172351244Y-73263824D01*
X172446482Y-73263824D01*
X172541720Y-73216205D01*
X172589339Y-73168586D01*
X172636958Y-73073348D01*
X172684577Y-72882872D01*
X172684577Y-72644777D01*
X172636958Y-72454301D01*
X172589339Y-72359063D01*
X172541720Y-72311444D01*
X172446482Y-72263824D01*
X163000768Y-72432619D02*
X162953149Y-72385000D01*
X162857911Y-72337380D01*
X162619815Y-72337380D01*
X162524577Y-72385000D01*
X162476958Y-72432619D01*
X162429339Y-72527857D01*
X162429339Y-72623095D01*
X162476958Y-72765952D01*
X163048387Y-73337380D01*
X162429339Y-73337380D01*
X167541904Y-62142825D02*
X168018095Y-62142825D01*
X168065714Y-62619016D01*
X168018095Y-62571397D01*
X167922857Y-62523778D01*
X167684761Y-62523778D01*
X167589523Y-62571397D01*
X167541904Y-62619016D01*
X167494285Y-62714254D01*
X167494285Y-62952349D01*
X167541904Y-63047587D01*
X167589523Y-63095206D01*
X167684761Y-63142825D01*
X167922857Y-63142825D01*
X168018095Y-63095206D01*
X168065714Y-63047587D01*
X136153881Y-74607380D02*
X136153881Y-73607380D01*
X135820548Y-74321666D01*
X135487215Y-73607380D01*
X135487215Y-74607380D01*
X134439596Y-74512142D02*
X134487215Y-74559761D01*
X134630072Y-74607380D01*
X134725310Y-74607380D01*
X134868167Y-74559761D01*
X134963405Y-74464523D01*
X135011024Y-74369285D01*
X135058643Y-74178809D01*
X135058643Y-74035952D01*
X135011024Y-73845476D01*
X134963405Y-73750238D01*
X134868167Y-73655000D01*
X134725310Y-73607380D01*
X134630072Y-73607380D01*
X134487215Y-73655000D01*
X134439596Y-73702619D01*
X134011024Y-73607380D02*
X134011024Y-74416904D01*
X133963405Y-74512142D01*
X133915786Y-74559761D01*
X133820548Y-74607380D01*
X133630072Y-74607380D01*
X133534834Y-74559761D01*
X133487215Y-74512142D01*
X133439596Y-74416904D01*
X133439596Y-73607380D01*
X132439596Y-74607380D02*
X133011024Y-74607380D01*
X132725310Y-74607380D02*
X132725310Y-73607380D01*
X132820548Y-73750238D01*
X132915786Y-73845476D01*
X133011024Y-73893095D01*
X132249119Y-74702619D02*
X131487215Y-74702619D01*
X130677691Y-74607380D02*
X131011024Y-74131190D01*
X131249119Y-74607380D02*
X131249119Y-73607380D01*
X130868167Y-73607380D01*
X130772929Y-73655000D01*
X130725310Y-73702619D01*
X130677691Y-73797857D01*
X130677691Y-73940714D01*
X130725310Y-74035952D01*
X130772929Y-74083571D01*
X130868167Y-74131190D01*
X131249119Y-74131190D01*
X130249119Y-73607380D02*
X130249119Y-74416904D01*
X130201500Y-74512142D01*
X130153881Y-74559761D01*
X130058643Y-74607380D01*
X129868167Y-74607380D01*
X129772929Y-74559761D01*
X129725310Y-74512142D01*
X129677691Y-74416904D01*
X129677691Y-73607380D01*
X129201500Y-74607380D02*
X129201500Y-73607380D01*
X128630072Y-74607380D01*
X128630072Y-73607380D01*
X154557023Y-66987380D02*
X154557023Y-65987380D01*
X154223690Y-66701666D01*
X153890357Y-65987380D01*
X153890357Y-66987380D01*
X152842738Y-66892142D02*
X152890357Y-66939761D01*
X153033214Y-66987380D01*
X153128452Y-66987380D01*
X153271309Y-66939761D01*
X153366547Y-66844523D01*
X153414166Y-66749285D01*
X153461785Y-66558809D01*
X153461785Y-66415952D01*
X153414166Y-66225476D01*
X153366547Y-66130238D01*
X153271309Y-66035000D01*
X153128452Y-65987380D01*
X153033214Y-65987380D01*
X152890357Y-66035000D01*
X152842738Y-66082619D01*
X152414166Y-65987380D02*
X152414166Y-66796904D01*
X152366547Y-66892142D01*
X152318928Y-66939761D01*
X152223690Y-66987380D01*
X152033214Y-66987380D01*
X151937976Y-66939761D01*
X151890357Y-66892142D01*
X151842738Y-66796904D01*
X151842738Y-65987380D01*
X151414166Y-66082619D02*
X151366547Y-66035000D01*
X151271309Y-65987380D01*
X151033214Y-65987380D01*
X150937976Y-66035000D01*
X150890357Y-66082619D01*
X150842738Y-66177857D01*
X150842738Y-66273095D01*
X150890357Y-66415952D01*
X151461785Y-66987380D01*
X150842738Y-66987380D01*
X150652261Y-67082619D02*
X149890357Y-67082619D01*
X149652261Y-65987380D02*
X149652261Y-66796904D01*
X149604642Y-66892142D01*
X149557023Y-66939761D01*
X149461785Y-66987380D01*
X149271309Y-66987380D01*
X149176071Y-66939761D01*
X149128452Y-66892142D01*
X149080833Y-66796904D01*
X149080833Y-65987380D01*
X148652261Y-66701666D02*
X148176071Y-66701666D01*
X148747500Y-66987380D02*
X148414166Y-65987380D01*
X148080833Y-66987380D01*
X147176071Y-66987380D02*
X147509404Y-66511190D01*
X147747500Y-66987380D02*
X147747500Y-65987380D01*
X147366547Y-65987380D01*
X147271309Y-66035000D01*
X147223690Y-66082619D01*
X147176071Y-66177857D01*
X147176071Y-66320714D01*
X147223690Y-66415952D01*
X147271309Y-66463571D01*
X147366547Y-66511190D01*
X147747500Y-66511190D01*
X146890357Y-65987380D02*
X146318928Y-65987380D01*
X146604642Y-66987380D02*
X146604642Y-65987380D01*
X146223690Y-67082619D02*
X145461785Y-67082619D01*
X145366547Y-65987380D02*
X144795119Y-65987380D01*
X145080833Y-66987380D02*
X145080833Y-65987380D01*
X144557023Y-65987380D02*
X143890357Y-66987380D01*
X143890357Y-65987380D02*
X144557023Y-66987380D01*
X139792333Y-60653380D02*
X139792333Y-61367666D01*
X139839952Y-61510523D01*
X139935190Y-61605761D01*
X140078047Y-61653380D01*
X140173285Y-61653380D01*
X139411380Y-60653380D02*
X138792333Y-60653380D01*
X139125666Y-61034333D01*
X138982809Y-61034333D01*
X138887571Y-61081952D01*
X138839952Y-61129571D01*
X138792333Y-61224809D01*
X138792333Y-61462904D01*
X138839952Y-61558142D01*
X138887571Y-61605761D01*
X138982809Y-61653380D01*
X139268523Y-61653380D01*
X139363761Y-61605761D01*
X139411380Y-61558142D01*
X171930090Y-93022380D02*
X171930090Y-92022380D01*
X171596757Y-92736666D01*
X171263424Y-92022380D01*
X171263424Y-93022380D01*
X170215805Y-92927142D02*
X170263424Y-92974761D01*
X170406281Y-93022380D01*
X170501519Y-93022380D01*
X170644376Y-92974761D01*
X170739614Y-92879523D01*
X170787233Y-92784285D01*
X170834852Y-92593809D01*
X170834852Y-92450952D01*
X170787233Y-92260476D01*
X170739614Y-92165238D01*
X170644376Y-92070000D01*
X170501519Y-92022380D01*
X170406281Y-92022380D01*
X170263424Y-92070000D01*
X170215805Y-92117619D01*
X169787233Y-92022380D02*
X169787233Y-92831904D01*
X169739614Y-92927142D01*
X169691995Y-92974761D01*
X169596757Y-93022380D01*
X169406281Y-93022380D01*
X169311043Y-92974761D01*
X169263424Y-92927142D01*
X169215805Y-92831904D01*
X169215805Y-92022380D01*
X168787233Y-92117619D02*
X168739614Y-92070000D01*
X168644376Y-92022380D01*
X168406281Y-92022380D01*
X168311043Y-92070000D01*
X168263424Y-92117619D01*
X168215805Y-92212857D01*
X168215805Y-92308095D01*
X168263424Y-92450952D01*
X168834852Y-93022380D01*
X168215805Y-93022380D01*
X168025328Y-93117619D02*
X167263424Y-93117619D01*
X167025328Y-92022380D02*
X167025328Y-92831904D01*
X166977709Y-92927142D01*
X166930090Y-92974761D01*
X166834852Y-93022380D01*
X166644376Y-93022380D01*
X166549138Y-92974761D01*
X166501519Y-92927142D01*
X166453900Y-92831904D01*
X166453900Y-92022380D01*
X166025328Y-92736666D02*
X165549138Y-92736666D01*
X166120566Y-93022380D02*
X165787233Y-92022380D01*
X165453900Y-93022380D01*
X164549138Y-93022380D02*
X164882471Y-92546190D01*
X165120566Y-93022380D02*
X165120566Y-92022380D01*
X164739614Y-92022380D01*
X164644376Y-92070000D01*
X164596757Y-92117619D01*
X164549138Y-92212857D01*
X164549138Y-92355714D01*
X164596757Y-92450952D01*
X164644376Y-92498571D01*
X164739614Y-92546190D01*
X165120566Y-92546190D01*
X164263424Y-92022380D02*
X163691995Y-92022380D01*
X163977709Y-93022380D02*
X163977709Y-92022380D01*
X163596757Y-93117619D02*
X162834852Y-93117619D01*
X162025328Y-93022380D02*
X162358662Y-92546190D01*
X162596757Y-93022380D02*
X162596757Y-92022380D01*
X162215805Y-92022380D01*
X162120566Y-92070000D01*
X162072947Y-92117619D01*
X162025328Y-92212857D01*
X162025328Y-92355714D01*
X162072947Y-92450952D01*
X162120566Y-92498571D01*
X162215805Y-92546190D01*
X162596757Y-92546190D01*
X161691995Y-92022380D02*
X161025328Y-93022380D01*
X161025328Y-92022380D02*
X161691995Y-93022380D01*
X159168186Y-91974761D02*
X160025328Y-93260476D01*
X158072947Y-93022380D02*
X158072947Y-92022380D01*
X157739614Y-92736666D01*
X157406281Y-92022380D01*
X157406281Y-93022380D01*
X156358662Y-92927142D02*
X156406281Y-92974761D01*
X156549138Y-93022380D01*
X156644376Y-93022380D01*
X156787233Y-92974761D01*
X156882471Y-92879523D01*
X156930090Y-92784285D01*
X156977709Y-92593809D01*
X156977709Y-92450952D01*
X156930090Y-92260476D01*
X156882471Y-92165238D01*
X156787233Y-92070000D01*
X156644376Y-92022380D01*
X156549138Y-92022380D01*
X156406281Y-92070000D01*
X156358662Y-92117619D01*
X155930090Y-92022380D02*
X155930090Y-92831904D01*
X155882471Y-92927142D01*
X155834852Y-92974761D01*
X155739614Y-93022380D01*
X155549138Y-93022380D01*
X155453900Y-92974761D01*
X155406281Y-92927142D01*
X155358662Y-92831904D01*
X155358662Y-92022380D01*
X154930090Y-92117619D02*
X154882471Y-92070000D01*
X154787233Y-92022380D01*
X154549138Y-92022380D01*
X154453900Y-92070000D01*
X154406281Y-92117619D01*
X154358662Y-92212857D01*
X154358662Y-92308095D01*
X154406281Y-92450952D01*
X154977709Y-93022380D01*
X154358662Y-93022380D01*
X154168186Y-93117619D02*
X153406281Y-93117619D01*
X152644376Y-92070000D02*
X152739614Y-92022380D01*
X152882471Y-92022380D01*
X153025328Y-92070000D01*
X153120566Y-92165238D01*
X153168186Y-92260476D01*
X153215805Y-92450952D01*
X153215805Y-92593809D01*
X153168186Y-92784285D01*
X153120566Y-92879523D01*
X153025328Y-92974761D01*
X152882471Y-93022380D01*
X152787233Y-93022380D01*
X152644376Y-92974761D01*
X152596757Y-92927142D01*
X152596757Y-92593809D01*
X152787233Y-92593809D01*
X152168186Y-93022380D02*
X152168186Y-92022380D01*
X151787233Y-92022380D01*
X151691995Y-92070000D01*
X151644376Y-92117619D01*
X151596757Y-92212857D01*
X151596757Y-92355714D01*
X151644376Y-92450952D01*
X151691995Y-92498571D01*
X151787233Y-92546190D01*
X152168186Y-92546190D01*
X151168186Y-93022380D02*
X151168186Y-92022380D01*
X150501519Y-92022380D02*
X150311043Y-92022380D01*
X150215805Y-92070000D01*
X150120566Y-92165238D01*
X150072947Y-92355714D01*
X150072947Y-92689047D01*
X150120566Y-92879523D01*
X150215805Y-92974761D01*
X150311043Y-93022380D01*
X150501519Y-93022380D01*
X150596757Y-92974761D01*
X150691995Y-92879523D01*
X150739614Y-92689047D01*
X150739614Y-92355714D01*
X150691995Y-92165238D01*
X150596757Y-92070000D01*
X150501519Y-92022380D01*
X149453900Y-92022380D02*
X149358662Y-92022380D01*
X149263424Y-92070000D01*
X149215805Y-92117619D01*
X149168186Y-92212857D01*
X149120566Y-92403333D01*
X149120566Y-92641428D01*
X149168186Y-92831904D01*
X149215805Y-92927142D01*
X149263424Y-92974761D01*
X149358662Y-93022380D01*
X149453900Y-93022380D01*
X149549138Y-92974761D01*
X149596757Y-92927142D01*
X149644376Y-92831904D01*
X149691995Y-92641428D01*
X149691995Y-92403333D01*
X149644376Y-92212857D01*
X149596757Y-92117619D01*
X149549138Y-92070000D01*
X149453900Y-92022380D01*
X148168186Y-93022380D02*
X148739614Y-93022380D01*
X148453900Y-93022380D02*
X148453900Y-92022380D01*
X148549138Y-92165238D01*
X148644376Y-92260476D01*
X148739614Y-92308095D01*
X171889404Y-84878571D02*
X171556071Y-84878571D01*
X171413214Y-85402380D02*
X171889404Y-85402380D01*
X171889404Y-84402380D01*
X171413214Y-84402380D01*
X171032261Y-85354761D02*
X170889404Y-85402380D01*
X170651309Y-85402380D01*
X170556071Y-85354761D01*
X170508452Y-85307142D01*
X170460833Y-85211904D01*
X170460833Y-85116666D01*
X170508452Y-85021428D01*
X170556071Y-84973809D01*
X170651309Y-84926190D01*
X170841785Y-84878571D01*
X170937023Y-84830952D01*
X170984642Y-84783333D01*
X171032261Y-84688095D01*
X171032261Y-84592857D01*
X170984642Y-84497619D01*
X170937023Y-84450000D01*
X170841785Y-84402380D01*
X170603690Y-84402380D01*
X170460833Y-84450000D01*
X170032261Y-85402380D02*
X170032261Y-84402380D01*
X169651309Y-84402380D01*
X169556071Y-84450000D01*
X169508452Y-84497619D01*
X169460833Y-84592857D01*
X169460833Y-84735714D01*
X169508452Y-84830952D01*
X169556071Y-84878571D01*
X169651309Y-84926190D01*
X170032261Y-84926190D01*
X169127500Y-84402380D02*
X168508452Y-84402380D01*
X168841785Y-84783333D01*
X168698928Y-84783333D01*
X168603690Y-84830952D01*
X168556071Y-84878571D01*
X168508452Y-84973809D01*
X168508452Y-85211904D01*
X168556071Y-85307142D01*
X168603690Y-85354761D01*
X168698928Y-85402380D01*
X168984642Y-85402380D01*
X169079880Y-85354761D01*
X169127500Y-85307142D01*
X168127500Y-84497619D02*
X168079880Y-84450000D01*
X167984642Y-84402380D01*
X167746547Y-84402380D01*
X167651309Y-84450000D01*
X167603690Y-84497619D01*
X167556071Y-84592857D01*
X167556071Y-84688095D01*
X167603690Y-84830952D01*
X168175119Y-85402380D01*
X167556071Y-85402380D01*
X167365595Y-85497619D02*
X166603690Y-85497619D01*
X166413214Y-85354761D02*
X166270357Y-85402380D01*
X166032261Y-85402380D01*
X165937023Y-85354761D01*
X165889404Y-85307142D01*
X165841785Y-85211904D01*
X165841785Y-85116666D01*
X165889404Y-85021428D01*
X165937023Y-84973809D01*
X166032261Y-84926190D01*
X166222738Y-84878571D01*
X166317976Y-84830952D01*
X166365595Y-84783333D01*
X166413214Y-84688095D01*
X166413214Y-84592857D01*
X166365595Y-84497619D01*
X166317976Y-84450000D01*
X166222738Y-84402380D01*
X165984642Y-84402380D01*
X165841785Y-84450000D01*
X164841785Y-85307142D02*
X164889404Y-85354761D01*
X165032261Y-85402380D01*
X165127500Y-85402380D01*
X165270357Y-85354761D01*
X165365595Y-85259523D01*
X165413214Y-85164285D01*
X165460833Y-84973809D01*
X165460833Y-84830952D01*
X165413214Y-84640476D01*
X165365595Y-84545238D01*
X165270357Y-84450000D01*
X165127500Y-84402380D01*
X165032261Y-84402380D01*
X164889404Y-84450000D01*
X164841785Y-84497619D01*
X164413214Y-85402380D02*
X164413214Y-84402380D01*
X163841785Y-85402380D02*
X164270357Y-84830952D01*
X163841785Y-84402380D02*
X164413214Y-84973809D01*
X161937023Y-84354761D02*
X162794166Y-85640476D01*
X160841785Y-85402380D02*
X160841785Y-84402380D01*
X160508452Y-85116666D01*
X160175119Y-84402380D01*
X160175119Y-85402380D01*
X159127500Y-85307142D02*
X159175119Y-85354761D01*
X159317976Y-85402380D01*
X159413214Y-85402380D01*
X159556071Y-85354761D01*
X159651309Y-85259523D01*
X159698928Y-85164285D01*
X159746547Y-84973809D01*
X159746547Y-84830952D01*
X159698928Y-84640476D01*
X159651309Y-84545238D01*
X159556071Y-84450000D01*
X159413214Y-84402380D01*
X159317976Y-84402380D01*
X159175119Y-84450000D01*
X159127500Y-84497619D01*
X158698928Y-84402380D02*
X158698928Y-85211904D01*
X158651309Y-85307142D01*
X158603690Y-85354761D01*
X158508452Y-85402380D01*
X158317976Y-85402380D01*
X158222738Y-85354761D01*
X158175119Y-85307142D01*
X158127500Y-85211904D01*
X158127500Y-84402380D01*
X157698928Y-84497619D02*
X157651309Y-84450000D01*
X157556071Y-84402380D01*
X157317976Y-84402380D01*
X157222738Y-84450000D01*
X157175119Y-84497619D01*
X157127500Y-84592857D01*
X157127500Y-84688095D01*
X157175119Y-84830952D01*
X157746547Y-85402380D01*
X157127500Y-85402380D01*
X156937023Y-85497619D02*
X156175119Y-85497619D01*
X155413214Y-84450000D02*
X155508452Y-84402380D01*
X155651309Y-84402380D01*
X155794166Y-84450000D01*
X155889404Y-84545238D01*
X155937023Y-84640476D01*
X155984642Y-84830952D01*
X155984642Y-84973809D01*
X155937023Y-85164285D01*
X155889404Y-85259523D01*
X155794166Y-85354761D01*
X155651309Y-85402380D01*
X155556071Y-85402380D01*
X155413214Y-85354761D01*
X155365595Y-85307142D01*
X155365595Y-84973809D01*
X155556071Y-84973809D01*
X154937023Y-85402380D02*
X154937023Y-84402380D01*
X154556071Y-84402380D01*
X154460833Y-84450000D01*
X154413214Y-84497619D01*
X154365595Y-84592857D01*
X154365595Y-84735714D01*
X154413214Y-84830952D01*
X154460833Y-84878571D01*
X154556071Y-84926190D01*
X154937023Y-84926190D01*
X153937023Y-85402380D02*
X153937023Y-84402380D01*
X153270357Y-84402380D02*
X153079880Y-84402380D01*
X152984642Y-84450000D01*
X152889404Y-84545238D01*
X152841785Y-84735714D01*
X152841785Y-85069047D01*
X152889404Y-85259523D01*
X152984642Y-85354761D01*
X153079880Y-85402380D01*
X153270357Y-85402380D01*
X153365595Y-85354761D01*
X153460833Y-85259523D01*
X153508452Y-85069047D01*
X153508452Y-84735714D01*
X153460833Y-84545238D01*
X153365595Y-84450000D01*
X153270357Y-84402380D01*
X151889404Y-85402380D02*
X152460833Y-85402380D01*
X152175119Y-85402380D02*
X152175119Y-84402380D01*
X152270357Y-84545238D01*
X152365595Y-84640476D01*
X152460833Y-84688095D01*
X151556071Y-84402380D02*
X150937023Y-84402380D01*
X151270357Y-84783333D01*
X151127500Y-84783333D01*
X151032261Y-84830952D01*
X150984642Y-84878571D01*
X150937023Y-84973809D01*
X150937023Y-85211904D01*
X150984642Y-85307142D01*
X151032261Y-85354761D01*
X151127500Y-85402380D01*
X151413214Y-85402380D01*
X151508452Y-85354761D01*
X151556071Y-85307142D01*
X173050476Y-63103824D02*
X172860000Y-63103824D01*
X172764761Y-63056205D01*
X172717142Y-63008586D01*
X172621904Y-62865729D01*
X172574285Y-62675253D01*
X172574285Y-62294301D01*
X172621904Y-62199063D01*
X172669523Y-62151444D01*
X172764761Y-62103824D01*
X172955238Y-62103824D01*
X173050476Y-62151444D01*
X173098095Y-62199063D01*
X173145714Y-62294301D01*
X173145714Y-62532396D01*
X173098095Y-62627634D01*
X173050476Y-62675253D01*
X172955238Y-62722872D01*
X172764761Y-62722872D01*
X172669523Y-62675253D01*
X172621904Y-62627634D01*
X172574285Y-62532396D01*
D11*
X179571428Y-111561971D02*
X180428571Y-111561971D01*
X180000000Y-111561971D02*
X180000000Y-110061971D01*
X180142857Y-110276257D01*
X180285714Y-110419114D01*
X180428571Y-110490542D01*
D10*
X151509404Y-74607380D02*
X151509404Y-73607380D01*
X151176071Y-74321666D01*
X150842738Y-73607380D01*
X150842738Y-74607380D01*
X149795119Y-74512142D02*
X149842738Y-74559761D01*
X149985595Y-74607380D01*
X150080833Y-74607380D01*
X150223690Y-74559761D01*
X150318928Y-74464523D01*
X150366547Y-74369285D01*
X150414166Y-74178809D01*
X150414166Y-74035952D01*
X150366547Y-73845476D01*
X150318928Y-73750238D01*
X150223690Y-73655000D01*
X150080833Y-73607380D01*
X149985595Y-73607380D01*
X149842738Y-73655000D01*
X149795119Y-73702619D01*
X149366547Y-73607380D02*
X149366547Y-74416904D01*
X149318928Y-74512142D01*
X149271309Y-74559761D01*
X149176071Y-74607380D01*
X148985595Y-74607380D01*
X148890357Y-74559761D01*
X148842738Y-74512142D01*
X148795119Y-74416904D01*
X148795119Y-73607380D01*
X148366547Y-73702619D02*
X148318928Y-73655000D01*
X148223690Y-73607380D01*
X147985595Y-73607380D01*
X147890357Y-73655000D01*
X147842738Y-73702619D01*
X147795119Y-73797857D01*
X147795119Y-73893095D01*
X147842738Y-74035952D01*
X148414166Y-74607380D01*
X147795119Y-74607380D01*
X147604642Y-74702619D02*
X146842738Y-74702619D01*
X146033214Y-74607380D02*
X146366547Y-74131190D01*
X146604642Y-74607380D02*
X146604642Y-73607380D01*
X146223690Y-73607380D01*
X146128452Y-73655000D01*
X146080833Y-73702619D01*
X146033214Y-73797857D01*
X146033214Y-73940714D01*
X146080833Y-74035952D01*
X146128452Y-74083571D01*
X146223690Y-74131190D01*
X146604642Y-74131190D01*
X145604642Y-73607380D02*
X145604642Y-74416904D01*
X145557023Y-74512142D01*
X145509404Y-74559761D01*
X145414166Y-74607380D01*
X145223690Y-74607380D01*
X145128452Y-74559761D01*
X145080833Y-74512142D01*
X145033214Y-74416904D01*
X145033214Y-73607380D01*
X144557023Y-74607380D02*
X144557023Y-73607380D01*
X143985595Y-74607380D01*
X143985595Y-73607380D01*
X137395238Y-71495952D02*
X137490476Y-71448333D01*
X137538095Y-71400714D01*
X137585714Y-71305476D01*
X137585714Y-71257857D01*
X137538095Y-71162619D01*
X137490476Y-71115000D01*
X137395238Y-71067380D01*
X137204761Y-71067380D01*
X137109523Y-71115000D01*
X137061904Y-71162619D01*
X137014285Y-71257857D01*
X137014285Y-71305476D01*
X137061904Y-71400714D01*
X137109523Y-71448333D01*
X137204761Y-71495952D01*
X137395238Y-71495952D01*
X137490476Y-71543571D01*
X137538095Y-71591190D01*
X137585714Y-71686428D01*
X137585714Y-71876904D01*
X137538095Y-71972142D01*
X137490476Y-72019761D01*
X137395238Y-72067380D01*
X137204761Y-72067380D01*
X137109523Y-72019761D01*
X137061904Y-71972142D01*
X137014285Y-71876904D01*
X137014285Y-71686428D01*
X137061904Y-71591190D01*
X137109523Y-71543571D01*
X137204761Y-71495952D01*
X153318928Y-72067380D02*
X153318928Y-71067380D01*
X152985595Y-71781666D01*
X152652261Y-71067380D01*
X152652261Y-72067380D01*
X151604642Y-71972142D02*
X151652261Y-72019761D01*
X151795119Y-72067380D01*
X151890357Y-72067380D01*
X152033214Y-72019761D01*
X152128452Y-71924523D01*
X152176071Y-71829285D01*
X152223690Y-71638809D01*
X152223690Y-71495952D01*
X152176071Y-71305476D01*
X152128452Y-71210238D01*
X152033214Y-71115000D01*
X151890357Y-71067380D01*
X151795119Y-71067380D01*
X151652261Y-71115000D01*
X151604642Y-71162619D01*
X151176071Y-71067380D02*
X151176071Y-71876904D01*
X151128452Y-71972142D01*
X151080833Y-72019761D01*
X150985595Y-72067380D01*
X150795119Y-72067380D01*
X150699880Y-72019761D01*
X150652261Y-71972142D01*
X150604642Y-71876904D01*
X150604642Y-71067380D01*
X150176071Y-71162619D02*
X150128452Y-71115000D01*
X150033214Y-71067380D01*
X149795119Y-71067380D01*
X149699880Y-71115000D01*
X149652261Y-71162619D01*
X149604642Y-71257857D01*
X149604642Y-71353095D01*
X149652261Y-71495952D01*
X150223690Y-72067380D01*
X149604642Y-72067380D01*
X149414166Y-72162619D02*
X148652261Y-72162619D01*
X148461785Y-72019761D02*
X148318928Y-72067380D01*
X148080833Y-72067380D01*
X147985595Y-72019761D01*
X147937976Y-71972142D01*
X147890357Y-71876904D01*
X147890357Y-71781666D01*
X147937976Y-71686428D01*
X147985595Y-71638809D01*
X148080833Y-71591190D01*
X148271309Y-71543571D01*
X148366547Y-71495952D01*
X148414166Y-71448333D01*
X148461785Y-71353095D01*
X148461785Y-71257857D01*
X148414166Y-71162619D01*
X148366547Y-71115000D01*
X148271309Y-71067380D01*
X148033214Y-71067380D01*
X147890357Y-71115000D01*
X147557023Y-71067380D02*
X147318928Y-72067380D01*
X147128452Y-71353095D01*
X146937976Y-72067380D01*
X146699880Y-71067380D01*
X145747500Y-71972142D02*
X145795119Y-72019761D01*
X145937976Y-72067380D01*
X146033214Y-72067380D01*
X146176071Y-72019761D01*
X146271309Y-71924523D01*
X146318928Y-71829285D01*
X146366547Y-71638809D01*
X146366547Y-71495952D01*
X146318928Y-71305476D01*
X146271309Y-71210238D01*
X146176071Y-71115000D01*
X146033214Y-71067380D01*
X145937976Y-71067380D01*
X145795119Y-71115000D01*
X145747500Y-71162619D01*
X144842738Y-72067380D02*
X145318928Y-72067380D01*
X145318928Y-71067380D01*
X144509404Y-72067380D02*
X144509404Y-71067380D01*
X143937976Y-72067380D02*
X144366547Y-71495952D01*
X143937976Y-71067380D02*
X144509404Y-71638809D01*
X142078333Y-71067380D02*
X141411666Y-71067380D01*
X141840238Y-72067380D01*
X171949608Y-98102380D02*
X171949608Y-97102380D01*
X171616275Y-97816666D01*
X171282942Y-97102380D01*
X171282942Y-98102380D01*
X170235323Y-98007142D02*
X170282942Y-98054761D01*
X170425799Y-98102380D01*
X170521037Y-98102380D01*
X170663894Y-98054761D01*
X170759132Y-97959523D01*
X170806751Y-97864285D01*
X170854370Y-97673809D01*
X170854370Y-97530952D01*
X170806751Y-97340476D01*
X170759132Y-97245238D01*
X170663894Y-97150000D01*
X170521037Y-97102380D01*
X170425799Y-97102380D01*
X170282942Y-97150000D01*
X170235323Y-97197619D01*
X169806751Y-97102380D02*
X169806751Y-97911904D01*
X169759132Y-98007142D01*
X169711513Y-98054761D01*
X169616275Y-98102380D01*
X169425799Y-98102380D01*
X169330561Y-98054761D01*
X169282942Y-98007142D01*
X169235323Y-97911904D01*
X169235323Y-97102380D01*
X168806751Y-97197619D02*
X168759132Y-97150000D01*
X168663894Y-97102380D01*
X168425799Y-97102380D01*
X168330561Y-97150000D01*
X168282942Y-97197619D01*
X168235323Y-97292857D01*
X168235323Y-97388095D01*
X168282942Y-97530952D01*
X168854370Y-98102380D01*
X168235323Y-98102380D01*
X168044846Y-98197619D02*
X167282942Y-98197619D01*
X166521037Y-97150000D02*
X166616275Y-97102380D01*
X166759132Y-97102380D01*
X166901989Y-97150000D01*
X166997227Y-97245238D01*
X167044846Y-97340476D01*
X167092465Y-97530952D01*
X167092465Y-97673809D01*
X167044846Y-97864285D01*
X166997227Y-97959523D01*
X166901989Y-98054761D01*
X166759132Y-98102380D01*
X166663894Y-98102380D01*
X166521037Y-98054761D01*
X166473418Y-98007142D01*
X166473418Y-97673809D01*
X166663894Y-97673809D01*
X166044846Y-98102380D02*
X166044846Y-97102380D01*
X165663894Y-97102380D01*
X165568656Y-97150000D01*
X165521037Y-97197619D01*
X165473418Y-97292857D01*
X165473418Y-97435714D01*
X165521037Y-97530952D01*
X165568656Y-97578571D01*
X165663894Y-97626190D01*
X166044846Y-97626190D01*
X165044846Y-98102380D02*
X165044846Y-97102380D01*
X164378180Y-97102380D02*
X164187704Y-97102380D01*
X164092465Y-97150000D01*
X163997227Y-97245238D01*
X163949608Y-97435714D01*
X163949608Y-97769047D01*
X163997227Y-97959523D01*
X164092465Y-98054761D01*
X164187704Y-98102380D01*
X164378180Y-98102380D01*
X164473418Y-98054761D01*
X164568656Y-97959523D01*
X164616275Y-97769047D01*
X164616275Y-97435714D01*
X164568656Y-97245238D01*
X164473418Y-97150000D01*
X164378180Y-97102380D01*
X163568656Y-97197619D02*
X163521037Y-97150000D01*
X163425799Y-97102380D01*
X163187704Y-97102380D01*
X163092465Y-97150000D01*
X163044846Y-97197619D01*
X162997227Y-97292857D01*
X162997227Y-97388095D01*
X163044846Y-97530952D01*
X163616275Y-98102380D01*
X162997227Y-98102380D01*
X162044846Y-98102380D02*
X162616275Y-98102380D01*
X162330561Y-98102380D02*
X162330561Y-97102380D01*
X162425799Y-97245238D01*
X162521037Y-97340476D01*
X162616275Y-97388095D01*
X137038095Y-76195000D02*
X137133333Y-76147380D01*
X137276190Y-76147380D01*
X137419047Y-76195000D01*
X137514285Y-76290238D01*
X137561904Y-76385476D01*
X137609523Y-76575952D01*
X137609523Y-76718809D01*
X137561904Y-76909285D01*
X137514285Y-77004523D01*
X137419047Y-77099761D01*
X137276190Y-77147380D01*
X137180952Y-77147380D01*
X137038095Y-77099761D01*
X136990476Y-77052142D01*
X136990476Y-76718809D01*
X137180952Y-76718809D01*
X165064577Y-72655659D02*
X165064577Y-73322325D01*
X165302673Y-72274706D02*
X165540768Y-72988992D01*
X164921720Y-72988992D01*
D11*
X191594285Y-107542142D02*
X192260952Y-107542142D01*
X192260952Y-108589761D02*
X192260952Y-106589761D01*
X191308571Y-106589761D01*
X190546666Y-108589761D02*
X190546666Y-107256428D01*
X190546666Y-107637380D02*
X190451428Y-107446904D01*
X190356190Y-107351666D01*
X190165714Y-107256428D01*
X189975238Y-107256428D01*
X189022857Y-108589761D02*
X189213333Y-108494523D01*
X189308571Y-108399285D01*
X189403809Y-108208809D01*
X189403809Y-107637380D01*
X189308571Y-107446904D01*
X189213333Y-107351666D01*
X189022857Y-107256428D01*
X188737142Y-107256428D01*
X188546666Y-107351666D01*
X188451428Y-107446904D01*
X188356190Y-107637380D01*
X188356190Y-108208809D01*
X188451428Y-108399285D01*
X188546666Y-108494523D01*
X188737142Y-108589761D01*
X189022857Y-108589761D01*
X187499047Y-107256428D02*
X187499047Y-108589761D01*
X187499047Y-107446904D02*
X187403809Y-107351666D01*
X187213333Y-107256428D01*
X186927619Y-107256428D01*
X186737142Y-107351666D01*
X186641904Y-107542142D01*
X186641904Y-108589761D01*
X185975238Y-107256428D02*
X185213333Y-107256428D01*
X185689523Y-106589761D02*
X185689523Y-108304047D01*
X185594285Y-108494523D01*
X185403809Y-108589761D01*
X185213333Y-108589761D01*
D10*
X159822380Y-67217666D02*
X160536666Y-67217666D01*
X160679523Y-67170047D01*
X160774761Y-67074809D01*
X160822380Y-66931952D01*
X160822380Y-66836714D01*
X159822380Y-67598619D02*
X159822380Y-68217666D01*
X160203333Y-67884333D01*
X160203333Y-68027190D01*
X160250952Y-68122428D01*
X160298571Y-68170047D01*
X160393809Y-68217666D01*
X160631904Y-68217666D01*
X160727142Y-68170047D01*
X160774761Y-68122428D01*
X160822380Y-68027190D01*
X160822380Y-67741476D01*
X160774761Y-67646238D01*
X160727142Y-67598619D01*
G36*
X106428165Y-107029433D02*
G01*
X106256545Y-107003975D01*
X106088247Y-106961819D01*
X105924891Y-106903369D01*
X105768050Y-106829189D01*
X105619236Y-106739993D01*
X105479881Y-106636641D01*
X105351328Y-106520126D01*
X105234814Y-106391573D01*
X105131461Y-106252218D01*
X105042265Y-106103404D01*
X104968085Y-105946564D01*
X104941285Y-105871662D01*
X107262912Y-105871662D01*
X107475637Y-105871662D01*
X107475637Y-106335213D01*
X107866162Y-106335213D01*
X108901212Y-106335213D01*
X110095012Y-106335213D01*
X110095012Y-106011362D01*
X109682262Y-106011362D01*
X109682262Y-105827213D01*
X112063512Y-105827213D01*
X112100025Y-106020887D01*
X112217500Y-106197100D01*
X112428637Y-106325688D01*
X112573894Y-106363788D01*
X112749312Y-106376488D01*
X112891791Y-106367359D01*
X113020775Y-106339975D01*
X113230325Y-106235200D01*
X113365262Y-106066925D01*
X113412887Y-105843088D01*
X113395425Y-105698228D01*
X113343037Y-105562100D01*
X113253344Y-105437878D01*
X113146546Y-105347788D01*
X113644662Y-105347788D01*
X113655577Y-105591469D01*
X113688319Y-105801813D01*
X113742889Y-105978819D01*
X113819287Y-106122487D01*
X113953343Y-106263599D01*
X114122676Y-106348265D01*
X114327287Y-106376488D01*
X114531899Y-106348265D01*
X114558003Y-106335213D01*
X116829187Y-106335213D01*
X118111887Y-106335213D01*
X118416687Y-106335213D01*
X119699387Y-106335213D01*
X119707325Y-106255837D01*
X119705737Y-106189163D01*
X119691053Y-106036762D01*
X119647000Y-105897062D01*
X119580325Y-105768872D01*
X119497775Y-105651000D01*
X119404112Y-105542256D01*
X119304100Y-105441450D01*
X119205343Y-105347788D01*
X119994662Y-105347788D01*
X120005577Y-105591469D01*
X120038319Y-105801813D01*
X120092889Y-105978819D01*
X120169287Y-106122487D01*
X120303343Y-106263599D01*
X120472676Y-106348265D01*
X120677287Y-106376488D01*
X120881899Y-106348265D01*
X120908003Y-106335213D01*
X121591687Y-106335213D01*
X122874387Y-106335213D01*
X122882325Y-106255837D01*
X122880737Y-106189163D01*
X122866053Y-106036762D01*
X122822000Y-105897062D01*
X122755325Y-105768872D01*
X122672775Y-105651000D01*
X122579112Y-105542256D01*
X122479100Y-105441450D01*
X122380343Y-105347788D01*
X124757162Y-105347788D01*
X124768077Y-105591469D01*
X124800819Y-105801813D01*
X124855389Y-105978819D01*
X124931787Y-106122487D01*
X125065843Y-106263599D01*
X125235176Y-106348265D01*
X125439787Y-106376488D01*
X125644399Y-106348265D01*
X125813732Y-106263599D01*
X125947787Y-106122487D01*
X125968048Y-106084387D01*
X126741537Y-106084387D01*
X126827262Y-106297112D01*
X127024112Y-106370137D01*
X127132062Y-106351088D01*
X127157915Y-106335213D01*
X127941687Y-106335213D01*
X129224387Y-106335213D01*
X129232325Y-106255837D01*
X129230737Y-106189163D01*
X129216053Y-106036762D01*
X129172000Y-105897062D01*
X129105325Y-105768872D01*
X129022775Y-105651000D01*
X128929112Y-105542256D01*
X128829100Y-105441450D01*
X128729087Y-105346597D01*
X128635425Y-105255712D01*
X128486200Y-105084262D01*
X128427462Y-104915987D01*
X128500487Y-104730250D01*
X128684637Y-104665162D01*
X128878312Y-104709612D01*
X129078337Y-104858837D01*
X129089596Y-104842963D01*
X129452987Y-104842963D01*
X129521448Y-105063923D01*
X129593481Y-105275953D01*
X129669086Y-105479054D01*
X129748262Y-105673225D01*
X129854096Y-105915407D01*
X129955696Y-106136069D01*
X130053062Y-106335213D01*
X130380087Y-106335213D01*
X130475867Y-106136069D01*
X130572704Y-105915407D01*
X130590387Y-105871662D01*
X132662912Y-105871662D01*
X132875637Y-105871662D01*
X132875637Y-106335213D01*
X133266162Y-106335213D01*
X133266162Y-105871662D01*
X134085312Y-105871662D01*
X134085312Y-105706563D01*
X134313912Y-105706563D01*
X134350425Y-105938337D01*
X134463137Y-106154238D01*
X134656812Y-106314575D01*
X134785400Y-106361009D01*
X134936212Y-106376488D01*
X135138883Y-106353733D01*
X135301427Y-106287588D01*
X135847437Y-106287588D01*
X136080800Y-106351088D01*
X136323687Y-106370137D01*
X136564987Y-106347913D01*
X136742787Y-106262188D01*
X136853912Y-106082800D01*
X136882487Y-105949053D01*
X136892012Y-105779588D01*
X136892012Y-105166812D01*
X137231737Y-105166812D01*
X137231737Y-104877887D01*
X137476212Y-104877887D01*
X137546062Y-105239838D01*
X137636550Y-105220788D01*
X137742912Y-105203325D01*
X137847687Y-105192212D01*
X137933412Y-105189037D01*
X138095337Y-105196975D01*
X138257262Y-105227138D01*
X138257262Y-106335213D01*
X138650962Y-106335213D01*
X138650962Y-106300288D01*
X139120862Y-106300288D01*
X139374862Y-106344738D01*
X139553456Y-106363788D01*
X139752687Y-106370137D01*
X140011450Y-106344738D01*
X140209887Y-106260600D01*
X140227085Y-106239963D01*
X140619462Y-106239963D01*
X140843300Y-106333625D01*
X140995303Y-106365772D01*
X141168737Y-106376488D01*
X141424149Y-106346854D01*
X141635815Y-106257954D01*
X141803737Y-106109787D01*
X141899583Y-105962348D01*
X141968044Y-105786731D01*
X142008520Y-105585912D01*
X142197437Y-105585912D01*
X142210137Y-105755378D01*
X142248237Y-105908175D01*
X142309356Y-106042716D01*
X142391112Y-106157412D01*
X142492316Y-106250281D01*
X142611775Y-106319337D01*
X142747903Y-106362200D01*
X142899112Y-106376488D01*
X143050322Y-106362200D01*
X143186450Y-106319337D01*
X143225024Y-106297112D01*
X143803987Y-106297112D01*
X144004012Y-106349500D01*
X144131806Y-106364978D01*
X144280237Y-106370137D01*
X144492566Y-106355056D01*
X144672350Y-106309813D01*
X144751724Y-106271713D01*
X145388312Y-106271713D01*
X145615325Y-106349500D01*
X145810587Y-106370137D01*
X145950684Y-106359025D01*
X146066175Y-106325688D01*
X146231275Y-106197100D01*
X146318587Y-105992313D01*
X146337637Y-105862931D01*
X146343987Y-105716087D01*
X146343987Y-105166812D01*
X146756737Y-105166812D01*
X146756737Y-105004887D01*
X146959937Y-105004887D01*
X146983044Y-105218142D01*
X147052365Y-105388004D01*
X147167900Y-105514475D01*
X147325768Y-105601787D01*
X147522089Y-105654175D01*
X147756862Y-105671638D01*
X147896562Y-105671638D01*
X147896562Y-106335213D01*
X148287087Y-106335213D01*
X148287087Y-104395287D01*
X148158500Y-104373062D01*
X148014037Y-104358775D01*
X147871162Y-104350837D01*
X147747337Y-104347662D01*
X147516268Y-104364772D01*
X147322593Y-104416101D01*
X147166312Y-104501650D01*
X147051660Y-104626004D01*
X146982868Y-104793750D01*
X146959937Y-105004887D01*
X146756737Y-105004887D01*
X146756737Y-104842963D01*
X145953462Y-104842963D01*
X145953462Y-105766888D01*
X145904250Y-105965325D01*
X145740737Y-106030412D01*
X145610562Y-106016125D01*
X145439112Y-105957387D01*
X145388312Y-106271713D01*
X144751724Y-106271713D01*
X144821178Y-106238375D01*
X144940637Y-106144712D01*
X145031522Y-106030413D01*
X145094625Y-105897062D01*
X145131534Y-105748631D01*
X145143837Y-105589087D01*
X145131137Y-105431925D01*
X145093037Y-105284288D01*
X145028744Y-105150541D01*
X144937462Y-105035050D01*
X144818797Y-104939800D01*
X144672350Y-104866775D01*
X144496534Y-104820341D01*
X144289762Y-104804862D01*
X144048462Y-104823913D01*
X143829387Y-104887412D01*
X143915112Y-105201737D01*
X144056400Y-105162050D01*
X144254837Y-105144587D01*
X144488200Y-105177925D01*
X144639012Y-105270000D01*
X144721562Y-105411287D01*
X144746962Y-105589087D01*
X144717991Y-105773238D01*
X144631075Y-105912937D01*
X144474309Y-106001044D01*
X144235787Y-106030412D01*
X144043700Y-106017713D01*
X143861137Y-105976437D01*
X143803987Y-106297112D01*
X143225024Y-106297112D01*
X143306306Y-106250281D01*
X143408700Y-106157412D01*
X143491647Y-106042716D01*
X143553162Y-105908175D01*
X143591262Y-105755378D01*
X143603962Y-105585912D01*
X143590866Y-105418828D01*
X143551575Y-105266825D01*
X143488869Y-105132681D01*
X143405525Y-105019175D01*
X143302734Y-104927894D01*
X143181687Y-104860425D01*
X143045956Y-104818753D01*
X142899112Y-104804862D01*
X142750284Y-104818753D01*
X142614950Y-104860425D01*
X142495094Y-104927894D01*
X142392700Y-105019175D01*
X142309753Y-105132681D01*
X142248237Y-105266825D01*
X142210137Y-105418828D01*
X142197437Y-105585912D01*
X142008520Y-105585912D01*
X142009120Y-105582936D01*
X142022812Y-105350962D01*
X142006144Y-105119981D01*
X141956137Y-104915987D01*
X141876366Y-104740172D01*
X141770400Y-104593725D01*
X141640225Y-104477837D01*
X141525205Y-104414337D01*
X145969337Y-104414337D01*
X146042362Y-104595312D01*
X146216987Y-104661987D01*
X146390025Y-104595312D01*
X146461462Y-104414337D01*
X146390025Y-104230187D01*
X146216987Y-104163512D01*
X146042362Y-104230187D01*
X145969337Y-104414337D01*
X141525205Y-104414337D01*
X141487825Y-104393700D01*
X141316772Y-104342503D01*
X141130637Y-104325437D01*
X140941725Y-104342900D01*
X140794087Y-104382587D01*
X140687725Y-104430212D01*
X140622637Y-104468312D01*
X140724237Y-104779462D01*
X140900450Y-104698500D01*
X141136987Y-104665162D01*
X141316375Y-104698500D01*
X141471950Y-104809625D01*
X141583075Y-105017587D01*
X141615222Y-105163637D01*
X141625937Y-105341437D01*
X141613061Y-105548342D01*
X141574432Y-105720321D01*
X141510050Y-105857375D01*
X141357253Y-105991916D01*
X141130637Y-106036762D01*
X140878225Y-106001838D01*
X140717887Y-105931987D01*
X140619462Y-106239963D01*
X140227085Y-106239963D01*
X140336887Y-106108200D01*
X140381337Y-105878013D01*
X140330537Y-105658937D01*
X140194012Y-105516062D01*
X139997162Y-105438275D01*
X139765387Y-105414462D01*
X139621719Y-105420813D01*
X139495512Y-105439862D01*
X139495512Y-105392237D01*
X139565362Y-105206500D01*
X139660612Y-105150541D01*
X139806662Y-105131887D01*
X140020975Y-105147762D01*
X140187662Y-105185862D01*
X140241637Y-104871537D01*
X140035262Y-104825500D01*
X139899531Y-104810022D01*
X139759037Y-104804862D01*
X139590366Y-104815578D01*
X139452650Y-104847725D01*
X139257387Y-104968375D01*
X139152612Y-105158875D01*
X139120862Y-105411287D01*
X139120862Y-106300288D01*
X138650962Y-106300288D01*
X138650962Y-104941387D01*
X138493403Y-104889794D01*
X138331875Y-104849312D01*
X138154472Y-104823119D01*
X137949287Y-104814387D01*
X137858800Y-104817562D01*
X137733387Y-104828675D01*
X137598450Y-104847725D01*
X137476212Y-104877887D01*
X137231737Y-104877887D01*
X137231737Y-104842963D01*
X136892012Y-104842963D01*
X136892012Y-104468312D01*
X136501487Y-104404812D01*
X136501487Y-104842963D01*
X135876012Y-104842963D01*
X135876012Y-105166812D01*
X136501487Y-105166812D01*
X136501487Y-105770063D01*
X136485612Y-105903413D01*
X136441162Y-105982787D01*
X136371312Y-106020887D01*
X136279237Y-106030412D01*
X136179225Y-106027238D01*
X136090325Y-106016125D01*
X136001425Y-105992313D01*
X135901412Y-105951038D01*
X135847437Y-106287588D01*
X135301427Y-106287588D01*
X135306629Y-106285471D01*
X135439450Y-106171700D01*
X135535582Y-106009599D01*
X135593261Y-105796344D01*
X135612487Y-105531938D01*
X135591453Y-105262856D01*
X135528350Y-105027112D01*
X135426353Y-104825500D01*
X135288637Y-104658812D01*
X135117187Y-104527844D01*
X134913987Y-104433387D01*
X134683006Y-104376237D01*
X134428212Y-104357187D01*
X134405987Y-104690562D01*
X134653637Y-104715962D01*
X134875887Y-104790575D01*
X135052100Y-104925512D01*
X135161637Y-105131887D01*
X135044162Y-105092200D01*
X134942562Y-105077912D01*
X134784209Y-105090612D01*
X134652050Y-105128712D01*
X134456787Y-105265237D01*
X134347250Y-105465262D01*
X134313912Y-105706563D01*
X134085312Y-105706563D01*
X134085312Y-105585912D01*
X134016256Y-105453753D01*
X133929737Y-105304925D01*
X133829725Y-105145778D01*
X133720187Y-104982662D01*
X133602712Y-104818753D01*
X133478887Y-104657225D01*
X133351887Y-104505222D01*
X133224887Y-104369887D01*
X132875637Y-104369887D01*
X132875637Y-105550987D01*
X132662912Y-105550987D01*
X132662912Y-105871662D01*
X130590387Y-105871662D01*
X130670600Y-105673225D01*
X130743526Y-105479054D01*
X130814666Y-105275953D01*
X130884020Y-105063923D01*
X130951587Y-104842963D01*
X130542012Y-104842963D01*
X130510659Y-104967581D01*
X130473750Y-105100137D01*
X130432872Y-105237059D01*
X130389612Y-105374775D01*
X130344766Y-105510903D01*
X130299125Y-105643063D01*
X130211812Y-105881188D01*
X130119737Y-105643063D01*
X130069334Y-105510903D01*
X130019725Y-105374775D01*
X129971306Y-105237059D01*
X129924475Y-105100137D01*
X129882803Y-104967581D01*
X129849862Y-104842963D01*
X129452987Y-104842963D01*
X129089596Y-104842963D01*
X129272012Y-104585787D01*
X129135091Y-104469900D01*
X128978325Y-104388937D01*
X128812034Y-104341312D01*
X128646537Y-104325437D01*
X128414762Y-104360362D01*
X128217912Y-104465137D01*
X128081387Y-104641350D01*
X128030587Y-104887412D01*
X128068687Y-105082675D01*
X128170287Y-105265237D01*
X128313162Y-105436687D01*
X128475087Y-105595438D01*
X128570337Y-105685925D01*
X128671937Y-105793875D01*
X128752900Y-105906587D01*
X128786237Y-106011362D01*
X127941687Y-106011362D01*
X127941687Y-106335213D01*
X127157915Y-106335213D01*
X127222550Y-106295525D01*
X127286050Y-106206625D01*
X127309862Y-106084387D01*
X127286050Y-105965325D01*
X127222550Y-105878013D01*
X127132062Y-105824037D01*
X127024112Y-105804988D01*
X126827262Y-105878013D01*
X126741537Y-106084387D01*
X125968048Y-106084387D01*
X126024186Y-105978819D01*
X126078756Y-105801813D01*
X126111498Y-105591469D01*
X126122412Y-105347788D01*
X126111300Y-105106884D01*
X126077962Y-104898525D01*
X126022400Y-104722709D01*
X125944612Y-104579437D01*
X125809499Y-104438326D01*
X125641224Y-104353660D01*
X125439787Y-104325437D01*
X125235176Y-104353483D01*
X125065843Y-104437621D01*
X124931787Y-104577850D01*
X124855389Y-104720626D01*
X124800819Y-104896541D01*
X124768077Y-105105595D01*
X124757162Y-105347788D01*
X122380343Y-105347788D01*
X122379087Y-105346597D01*
X122285425Y-105255712D01*
X122136200Y-105084262D01*
X122077462Y-104915987D01*
X122150487Y-104730250D01*
X122334637Y-104665162D01*
X122528312Y-104709612D01*
X122728337Y-104858837D01*
X122922012Y-104585787D01*
X122785091Y-104469900D01*
X122628325Y-104388937D01*
X122462034Y-104341312D01*
X122296537Y-104325437D01*
X122064762Y-104360362D01*
X121867912Y-104465137D01*
X121731387Y-104641350D01*
X121680587Y-104887412D01*
X121718687Y-105082675D01*
X121820287Y-105265237D01*
X121963162Y-105436687D01*
X122125087Y-105595438D01*
X122220337Y-105685925D01*
X122321937Y-105793875D01*
X122402900Y-105906587D01*
X122436237Y-106011362D01*
X121591687Y-106011362D01*
X121591687Y-106335213D01*
X120908003Y-106335213D01*
X121051232Y-106263599D01*
X121185287Y-106122487D01*
X121261686Y-105978819D01*
X121316256Y-105801813D01*
X121348998Y-105591469D01*
X121359912Y-105347788D01*
X121348800Y-105106884D01*
X121315462Y-104898525D01*
X121259900Y-104722709D01*
X121182112Y-104579437D01*
X121046999Y-104438326D01*
X120878724Y-104353660D01*
X120677287Y-104325437D01*
X120472676Y-104353483D01*
X120303343Y-104437621D01*
X120169287Y-104577850D01*
X120092889Y-104720626D01*
X120038319Y-104896541D01*
X120005577Y-105105595D01*
X119994662Y-105347788D01*
X119205343Y-105347788D01*
X119204087Y-105346597D01*
X119110425Y-105255712D01*
X118961200Y-105084262D01*
X118902462Y-104915987D01*
X118975487Y-104730250D01*
X119159637Y-104665162D01*
X119353312Y-104709612D01*
X119553337Y-104858837D01*
X119747012Y-104585787D01*
X119610091Y-104469900D01*
X119453325Y-104388937D01*
X119287034Y-104341312D01*
X119121537Y-104325437D01*
X118889762Y-104360362D01*
X118692912Y-104465137D01*
X118556387Y-104641350D01*
X118505587Y-104887412D01*
X118543687Y-105082675D01*
X118645287Y-105265237D01*
X118788162Y-105436687D01*
X118950087Y-105595438D01*
X119045337Y-105685925D01*
X119146937Y-105793875D01*
X119227900Y-105906587D01*
X119261237Y-106011362D01*
X118416687Y-106011362D01*
X118416687Y-106335213D01*
X118111887Y-106335213D01*
X118119825Y-106255837D01*
X118118237Y-106189163D01*
X118103553Y-106036762D01*
X118059500Y-105897062D01*
X117992825Y-105768872D01*
X117910275Y-105651000D01*
X117816612Y-105542256D01*
X117716600Y-105441450D01*
X117616587Y-105346597D01*
X117522925Y-105255712D01*
X117373700Y-105084262D01*
X117314962Y-104915987D01*
X117387987Y-104730250D01*
X117572137Y-104665162D01*
X117765812Y-104709612D01*
X117965837Y-104858837D01*
X118159512Y-104585787D01*
X118022591Y-104469900D01*
X117865825Y-104388937D01*
X117699534Y-104341312D01*
X117534037Y-104325437D01*
X117302262Y-104360362D01*
X117105412Y-104465137D01*
X116968887Y-104641350D01*
X116918087Y-104887412D01*
X116956187Y-105082675D01*
X117057787Y-105265237D01*
X117200662Y-105436687D01*
X117362587Y-105595438D01*
X117457837Y-105685925D01*
X117559437Y-105793875D01*
X117640400Y-105906587D01*
X117673737Y-106011362D01*
X116829187Y-106011362D01*
X116829187Y-106335213D01*
X114558003Y-106335213D01*
X114701232Y-106263599D01*
X114835287Y-106122487D01*
X114911686Y-105978819D01*
X114966256Y-105801813D01*
X114980094Y-105712912D01*
X115479812Y-105712912D01*
X116349762Y-105712912D01*
X116349762Y-105328737D01*
X115479812Y-105328737D01*
X115479812Y-105712912D01*
X114980094Y-105712912D01*
X114998998Y-105591469D01*
X115009912Y-105347788D01*
X114998800Y-105106884D01*
X114965462Y-104898525D01*
X114909900Y-104722709D01*
X114832112Y-104579437D01*
X114696999Y-104438326D01*
X114528724Y-104353660D01*
X114327287Y-104325437D01*
X114122676Y-104353483D01*
X113953343Y-104437621D01*
X113819287Y-104577850D01*
X113742889Y-104720626D01*
X113688319Y-104896541D01*
X113655577Y-105105595D01*
X113644662Y-105347788D01*
X113146546Y-105347788D01*
X113123962Y-105328737D01*
X113241437Y-105230312D01*
X113314462Y-105125537D01*
X113365262Y-104896937D01*
X113331925Y-104698500D01*
X113225562Y-104512762D01*
X113031887Y-104376237D01*
X112896950Y-104335756D01*
X112733437Y-104322262D01*
X112479834Y-104357187D01*
X112284175Y-104461962D01*
X112159159Y-104625475D01*
X112117487Y-104836612D01*
X112134156Y-104971947D01*
X112184162Y-105104900D01*
X112269887Y-105225947D01*
X112393712Y-105325562D01*
X112239328Y-105435100D01*
X112138125Y-105554163D01*
X112082166Y-105684337D01*
X112063512Y-105827213D01*
X109682262Y-105827213D01*
X109682262Y-105712912D01*
X110717312Y-105712912D01*
X111587262Y-105712912D01*
X111587262Y-105328737D01*
X110717312Y-105328737D01*
X110717312Y-105712912D01*
X109682262Y-105712912D01*
X109682262Y-104912812D01*
X109885462Y-105025525D01*
X110079137Y-105103313D01*
X110206137Y-104779462D01*
X110041037Y-104706437D01*
X109863237Y-104608012D01*
X109694962Y-104493712D01*
X109558437Y-104369887D01*
X109291737Y-104369887D01*
X109291737Y-106011362D01*
X108901212Y-106011362D01*
X108901212Y-106335213D01*
X107866162Y-106335213D01*
X107866162Y-105871662D01*
X108685312Y-105871662D01*
X108685312Y-105585912D01*
X108616256Y-105453753D01*
X108529737Y-105304925D01*
X108429725Y-105145778D01*
X108320187Y-104982662D01*
X108202712Y-104818753D01*
X108078887Y-104657225D01*
X107951887Y-104505222D01*
X107824887Y-104369887D01*
X107475637Y-104369887D01*
X107475637Y-105550987D01*
X107262912Y-105550987D01*
X107262912Y-105871662D01*
X104941285Y-105871662D01*
X104909635Y-105783208D01*
X104867479Y-105614909D01*
X104842021Y-105443289D01*
X104833508Y-105270000D01*
X104842021Y-105096711D01*
X104867479Y-104925091D01*
X104909635Y-104756792D01*
X104968085Y-104593436D01*
X105042265Y-104436596D01*
X105131461Y-104287782D01*
X105234814Y-104148427D01*
X105351328Y-104019874D01*
X105479881Y-103903359D01*
X105619236Y-103800007D01*
X105768050Y-103710811D01*
X105924891Y-103636631D01*
X106088247Y-103578181D01*
X106256545Y-103536025D01*
X106428165Y-103510567D01*
X106601454Y-103502054D01*
X148948546Y-103502054D01*
X149121835Y-103510567D01*
X149293455Y-103536025D01*
X149461753Y-103578181D01*
X149625109Y-103636631D01*
X149781950Y-103710811D01*
X149930764Y-103800007D01*
X150070119Y-103903359D01*
X150198672Y-104019874D01*
X150315186Y-104148427D01*
X150418539Y-104287782D01*
X150507735Y-104436596D01*
X150581915Y-104593436D01*
X150640365Y-104756792D01*
X150682521Y-104925091D01*
X150707979Y-105096711D01*
X150716492Y-105270000D01*
X150707979Y-105443289D01*
X150682521Y-105614909D01*
X150640365Y-105783208D01*
X150581915Y-105946564D01*
X150507735Y-106103404D01*
X150418539Y-106252218D01*
X150315186Y-106391573D01*
X150198672Y-106520126D01*
X150070119Y-106636641D01*
X149930764Y-106739993D01*
X149781950Y-106829189D01*
X149625109Y-106903369D01*
X149461753Y-106961819D01*
X149293455Y-107003975D01*
X149121835Y-107029433D01*
X148948546Y-107037946D01*
X106601454Y-107037946D01*
X106428165Y-107029433D01*
G37*
G36*
X125193725Y-105863725D02*
G01*
X125146982Y-105728082D01*
X125118936Y-105556103D01*
X125109587Y-105347788D01*
X125111024Y-105316037D01*
X125261987Y-105316037D01*
X125311200Y-105463675D01*
X125436612Y-105525587D01*
X125566787Y-105463675D01*
X125614412Y-105316037D01*
X125566787Y-105166812D01*
X125436612Y-105103313D01*
X125311200Y-105166812D01*
X125261987Y-105316037D01*
X125111024Y-105316037D01*
X125118936Y-105141236D01*
X125146982Y-104970315D01*
X125193725Y-104835025D01*
X125297309Y-104702866D01*
X125439787Y-104658812D01*
X125580281Y-104702866D01*
X125684262Y-104835025D01*
X125731887Y-104970315D01*
X125760462Y-105141236D01*
X125769987Y-105347788D01*
X125760462Y-105556103D01*
X125731887Y-105728082D01*
X125684262Y-105863725D01*
X125580281Y-105995884D01*
X125439787Y-106039938D01*
X125436612Y-106038956D01*
X125297309Y-105995884D01*
X125193725Y-105863725D01*
G37*
G36*
X120431225Y-105863725D02*
G01*
X120384482Y-105728082D01*
X120356436Y-105556103D01*
X120347087Y-105347788D01*
X120348524Y-105316037D01*
X120499487Y-105316037D01*
X120548700Y-105463675D01*
X120674112Y-105525587D01*
X120804287Y-105463675D01*
X120851912Y-105316037D01*
X120804287Y-105166812D01*
X120674112Y-105103313D01*
X120548700Y-105166812D01*
X120499487Y-105316037D01*
X120348524Y-105316037D01*
X120356436Y-105141236D01*
X120384482Y-104970315D01*
X120431225Y-104835025D01*
X120534809Y-104702866D01*
X120677287Y-104658812D01*
X120817781Y-104702866D01*
X120921762Y-104835025D01*
X120969387Y-104970315D01*
X120997962Y-105141236D01*
X121007487Y-105347788D01*
X120997962Y-105556103D01*
X120969387Y-105728082D01*
X120921762Y-105863725D01*
X120817781Y-105995884D01*
X120677287Y-106039938D01*
X120674112Y-106038956D01*
X120534809Y-105995884D01*
X120431225Y-105863725D01*
G37*
G36*
X114081225Y-105863725D02*
G01*
X114034482Y-105728082D01*
X114006436Y-105556103D01*
X113997087Y-105347788D01*
X113998524Y-105316037D01*
X114149487Y-105316037D01*
X114198700Y-105463675D01*
X114324112Y-105525587D01*
X114454287Y-105463675D01*
X114501912Y-105316037D01*
X114454287Y-105166812D01*
X114324112Y-105103313D01*
X114198700Y-105166812D01*
X114149487Y-105316037D01*
X113998524Y-105316037D01*
X114006436Y-105141236D01*
X114034482Y-104970315D01*
X114081225Y-104835025D01*
X114184809Y-104702866D01*
X114327287Y-104658812D01*
X114467781Y-104702866D01*
X114571762Y-104835025D01*
X114619387Y-104970315D01*
X114647962Y-105141236D01*
X114657487Y-105347788D01*
X114647962Y-105556103D01*
X114619387Y-105728082D01*
X114571762Y-105863725D01*
X114467781Y-105995884D01*
X114327287Y-106039938D01*
X114324112Y-106038956D01*
X114184809Y-105995884D01*
X114081225Y-105863725D01*
G37*
G36*
X143032859Y-105175147D02*
G01*
X143129300Y-105266825D01*
X143187641Y-105408509D01*
X143207087Y-105589087D01*
X143189228Y-105770063D01*
X143135650Y-105912937D01*
X143042384Y-106005806D01*
X142905462Y-106036762D01*
X142771716Y-106005806D01*
X142675275Y-105912937D01*
X142616934Y-105770063D01*
X142597487Y-105589087D01*
X142615347Y-105408509D01*
X142668925Y-105266825D01*
X142762191Y-105175147D01*
X142899112Y-105144587D01*
X143032859Y-105175147D01*
G37*
G36*
X113000137Y-105622425D02*
G01*
X113047762Y-105795463D01*
X112957275Y-105987550D01*
X112742962Y-106052638D01*
X112515950Y-105984375D01*
X112431812Y-105820863D01*
X112455625Y-105709737D01*
X112531825Y-105622425D01*
X112666762Y-105543050D01*
X112863612Y-105458912D01*
X113000137Y-105622425D01*
G37*
G36*
X147799725Y-104688975D02*
G01*
X147896562Y-104696912D01*
X147896562Y-105331912D01*
X147737812Y-105331912D01*
X147573506Y-105313259D01*
X147455237Y-105257300D01*
X147383800Y-105156097D01*
X147359987Y-105001712D01*
X147383403Y-104855266D01*
X147453650Y-104758825D01*
X147562791Y-104705247D01*
X147702887Y-104687387D01*
X147799725Y-104688975D01*
G37*
G36*
X135117187Y-105414462D02*
G01*
X135221962Y-105449388D01*
X135226725Y-105506538D01*
X135228312Y-105566863D01*
X135215612Y-105743075D01*
X135171162Y-105893888D01*
X135083850Y-106000250D01*
X134945737Y-106039938D01*
X134831437Y-106008187D01*
X134753650Y-105928813D01*
X134709200Y-105824037D01*
X134694912Y-105712912D01*
X134761587Y-105482725D01*
X134852869Y-105422003D01*
X134993362Y-105401762D01*
X135117187Y-105414462D01*
G37*
G36*
X133383637Y-105014412D02*
G01*
X133502700Y-105187450D01*
X133615412Y-105370013D01*
X133710662Y-105550987D01*
X133266162Y-105550987D01*
X133266162Y-104858837D01*
X133383637Y-105014412D01*
G37*
G36*
X107983637Y-105014412D02*
G01*
X108102700Y-105187450D01*
X108215412Y-105370013D01*
X108310662Y-105550987D01*
X107866162Y-105550987D01*
X107866162Y-104858837D01*
X107983637Y-105014412D01*
G37*
G36*
X112919175Y-104703262D02*
G01*
X112996962Y-104871537D01*
X112923937Y-105052512D01*
X112823131Y-105123950D01*
X112666762Y-105198562D01*
X112527062Y-105038225D01*
X112485787Y-104868362D01*
X112560400Y-104701675D01*
X112739787Y-104646112D01*
X112919175Y-104703262D01*
G37*
G36*
X139803487Y-105695450D02*
G01*
X139903500Y-105722438D01*
X139971762Y-105776412D01*
X139997162Y-105868488D01*
X139920962Y-106012950D01*
X139724112Y-106055812D01*
X139600287Y-106054225D01*
X139495512Y-106046287D01*
X139495512Y-105703388D01*
X139587587Y-105692275D01*
X139686012Y-105687512D01*
X139803487Y-105695450D01*
G37*
G36*
X111469430Y-79915106D02*
G01*
X111457284Y-79996986D01*
X111437171Y-80077282D01*
X111409285Y-80155219D01*
X111373893Y-80230048D01*
X111331338Y-80301048D01*
X111282028Y-80367535D01*
X111226439Y-80428868D01*
X111165105Y-80484457D01*
X111098619Y-80533767D01*
X111027619Y-80576322D01*
X110952790Y-80611714D01*
X110874853Y-80639600D01*
X110794557Y-80659713D01*
X110712677Y-80671859D01*
X110630000Y-80675921D01*
X110547323Y-80671859D01*
X110465443Y-80659713D01*
X110385147Y-80639600D01*
X110307210Y-80611714D01*
X110232381Y-80576322D01*
X110161381Y-80533767D01*
X110094895Y-80484457D01*
X110033561Y-80428868D01*
X109977972Y-80367535D01*
X109928662Y-80301048D01*
X109886107Y-80230048D01*
X109850715Y-80155219D01*
X109822829Y-80077282D01*
X109802716Y-79996986D01*
X109790570Y-79915106D01*
X109786508Y-79832429D01*
X109786508Y-79306438D01*
X110139462Y-79306438D01*
X110960200Y-79306438D01*
X110960200Y-79501700D01*
X111122125Y-79501700D01*
X111122125Y-78904800D01*
X110960200Y-78904800D01*
X110960200Y-79111175D01*
X110410925Y-79111175D01*
X110467281Y-79009575D01*
X110506175Y-78912738D01*
X110344250Y-78849238D01*
X110307737Y-78931788D01*
X110258525Y-79020688D01*
X110201375Y-79104825D01*
X110139462Y-79173088D01*
X110139462Y-79306438D01*
X109786508Y-79306438D01*
X109786508Y-78711125D01*
X110139462Y-78711125D01*
X110766525Y-78711125D01*
X110848281Y-78707156D01*
X110922100Y-78695250D01*
X110986791Y-78673422D01*
X111041162Y-78639688D01*
X111084620Y-78593650D01*
X111116569Y-78534912D01*
X111136214Y-78461888D01*
X111142762Y-78372987D01*
X111136214Y-78285477D01*
X111116569Y-78213444D01*
X111041162Y-78111050D01*
X110986791Y-78078506D01*
X110922100Y-78057075D01*
X110848281Y-78045169D01*
X110766525Y-78041200D01*
X110139462Y-78041200D01*
X110139462Y-78238050D01*
X110753825Y-78238050D01*
X110857806Y-78244400D01*
X110925275Y-78265831D01*
X110961787Y-78307900D01*
X110972900Y-78376163D01*
X110961787Y-78444425D01*
X110924481Y-78487288D01*
X110856219Y-78509513D01*
X110752237Y-78515863D01*
X110139462Y-78515863D01*
X110139462Y-78711125D01*
X109786508Y-78711125D01*
X109786508Y-77674488D01*
X110117237Y-77674488D01*
X110125969Y-77768944D01*
X110145812Y-77842763D01*
X110169625Y-77895944D01*
X110188675Y-77928488D01*
X110344250Y-77877687D01*
X110303769Y-77789581D01*
X110287100Y-77671313D01*
X110303769Y-77581619D01*
X110359331Y-77503831D01*
X110463312Y-77448269D01*
X110536337Y-77432195D01*
X110625237Y-77426837D01*
X110728690Y-77433276D01*
X110814679Y-77452590D01*
X110883206Y-77484781D01*
X110950477Y-77561180D01*
X110972900Y-77674488D01*
X110955437Y-77800694D01*
X110920512Y-77880863D01*
X111074500Y-77930075D01*
X111121331Y-77818156D01*
X111137405Y-77742155D01*
X111142762Y-77655438D01*
X111127946Y-77527732D01*
X111083496Y-77421899D01*
X111009412Y-77337937D01*
X110935693Y-77290015D01*
X110847884Y-77255784D01*
X110745987Y-77235246D01*
X110630000Y-77228400D01*
X110514509Y-77236734D01*
X110412512Y-77261738D01*
X110324605Y-77301623D01*
X110251381Y-77354606D01*
X110193437Y-77419694D01*
X110151369Y-77495894D01*
X110125770Y-77581420D01*
X110117237Y-77674488D01*
X109786508Y-77674488D01*
X109786508Y-77090288D01*
X110139462Y-77090288D01*
X110266462Y-77101202D01*
X110390287Y-77111719D01*
X110511930Y-77121244D01*
X110632381Y-77129181D01*
X110752634Y-77135730D01*
X110873681Y-77141088D01*
X110996514Y-77145453D01*
X111122125Y-77149025D01*
X111122125Y-76969638D01*
X110358537Y-76979163D01*
X110774462Y-76858513D01*
X110774462Y-76715637D01*
X110358537Y-76599750D01*
X111122125Y-76607687D01*
X111122125Y-76428300D01*
X110999094Y-76433261D01*
X110871300Y-76438619D01*
X110741522Y-76444373D01*
X110612537Y-76450525D01*
X110485934Y-76457470D01*
X110363300Y-76465606D01*
X110247016Y-76474933D01*
X110139462Y-76485450D01*
X110139462Y-76647375D01*
X110225187Y-76675156D01*
X110337900Y-76710875D01*
X110460137Y-76748975D01*
X110574437Y-76785487D01*
X110452994Y-76825175D01*
X110332344Y-76864863D01*
X110223600Y-76899787D01*
X110139462Y-76928363D01*
X110139462Y-77090288D01*
X109786508Y-77090288D01*
X109786508Y-76097571D01*
X109790570Y-76014894D01*
X109802716Y-75933014D01*
X109822829Y-75852718D01*
X109850715Y-75774781D01*
X109886107Y-75699952D01*
X109928662Y-75628952D01*
X109977972Y-75562465D01*
X110033561Y-75501132D01*
X110094895Y-75445543D01*
X110161381Y-75396233D01*
X110232381Y-75353678D01*
X110307210Y-75318286D01*
X110385147Y-75290400D01*
X110465443Y-75270287D01*
X110547323Y-75258141D01*
X110630000Y-75254079D01*
X110712677Y-75258141D01*
X110794557Y-75270287D01*
X110874853Y-75290400D01*
X110952790Y-75318286D01*
X111027619Y-75353678D01*
X111098619Y-75396233D01*
X111165105Y-75445543D01*
X111226439Y-75501132D01*
X111282028Y-75562465D01*
X111331338Y-75628952D01*
X111373893Y-75699952D01*
X111409285Y-75774781D01*
X111437171Y-75852718D01*
X111457284Y-75933014D01*
X111469430Y-76014894D01*
X111473492Y-76097571D01*
X111473492Y-79832429D01*
X111469430Y-79915106D01*
G37*
G36*
X111469430Y-69122487D02*
G01*
X111457284Y-69204367D01*
X111437171Y-69284663D01*
X111409285Y-69362601D01*
X111373893Y-69437430D01*
X111331338Y-69508429D01*
X111282028Y-69574916D01*
X111226439Y-69636249D01*
X111165105Y-69691838D01*
X111098619Y-69741148D01*
X111027619Y-69783704D01*
X110952790Y-69819095D01*
X110874853Y-69846982D01*
X110794557Y-69867095D01*
X110712677Y-69879240D01*
X110630000Y-69883302D01*
X110547323Y-69879240D01*
X110465443Y-69867095D01*
X110385147Y-69846982D01*
X110307210Y-69819095D01*
X110232381Y-69783704D01*
X110161381Y-69741148D01*
X110094895Y-69691838D01*
X110033561Y-69636249D01*
X109977972Y-69574916D01*
X109928662Y-69508429D01*
X109886107Y-69437430D01*
X109850715Y-69362601D01*
X109822829Y-69284663D01*
X109802716Y-69204367D01*
X109790570Y-69122487D01*
X109786508Y-69039810D01*
X109786508Y-68356656D01*
X110117237Y-68356656D01*
X110134700Y-68472544D01*
X110187087Y-68570969D01*
X110275194Y-68639231D01*
X110398225Y-68664631D01*
X110495856Y-68645581D01*
X110587137Y-68594781D01*
X110672862Y-68523344D01*
X110752237Y-68442381D01*
X110797481Y-68394756D01*
X110851456Y-68343956D01*
X110907812Y-68303475D01*
X110960200Y-68286806D01*
X110960200Y-68709081D01*
X111122125Y-68709081D01*
X111122125Y-68067731D01*
X111082437Y-68063763D01*
X111049100Y-68064556D01*
X110972900Y-68071898D01*
X110903050Y-68093925D01*
X110838955Y-68127263D01*
X110780019Y-68168537D01*
X110725647Y-68215369D01*
X110675244Y-68265375D01*
X110627817Y-68315381D01*
X110582375Y-68362213D01*
X110496650Y-68436825D01*
X110412512Y-68466194D01*
X110319644Y-68429681D01*
X110287100Y-68337606D01*
X110309325Y-68240769D01*
X110383937Y-68140756D01*
X110247412Y-68043919D01*
X110189469Y-68112380D01*
X110148987Y-68190763D01*
X110125175Y-68273908D01*
X110117237Y-68356656D01*
X109786508Y-68356656D01*
X109786508Y-67913744D01*
X110139462Y-67913744D01*
X110766525Y-67913744D01*
X110848281Y-67909775D01*
X110922100Y-67897869D01*
X110986791Y-67876041D01*
X111041162Y-67842306D01*
X111084620Y-67796269D01*
X111116569Y-67737531D01*
X111136214Y-67664506D01*
X111142762Y-67575606D01*
X111136214Y-67488095D01*
X111116569Y-67416062D01*
X111041162Y-67313669D01*
X110986791Y-67281125D01*
X110922100Y-67259694D01*
X110848281Y-67247787D01*
X110766525Y-67243819D01*
X110139462Y-67243819D01*
X110139462Y-67440669D01*
X110753825Y-67440669D01*
X110857806Y-67447019D01*
X110925275Y-67468450D01*
X110961787Y-67510519D01*
X110972900Y-67578781D01*
X110961787Y-67647044D01*
X110924481Y-67689906D01*
X110856219Y-67712131D01*
X110752237Y-67718481D01*
X110139462Y-67718481D01*
X110139462Y-67913744D01*
X109786508Y-67913744D01*
X109786508Y-66877106D01*
X110117237Y-66877106D01*
X110125969Y-66971562D01*
X110145812Y-67045381D01*
X110169625Y-67098563D01*
X110188675Y-67131106D01*
X110344250Y-67080306D01*
X110303769Y-66992200D01*
X110287100Y-66873931D01*
X110303769Y-66784237D01*
X110359331Y-66706450D01*
X110463312Y-66650887D01*
X110536337Y-66634814D01*
X110625237Y-66629456D01*
X110728690Y-66635894D01*
X110814679Y-66655209D01*
X110883206Y-66687400D01*
X110950477Y-66763798D01*
X110972900Y-66877106D01*
X110955437Y-67003313D01*
X110920512Y-67083481D01*
X111074500Y-67132694D01*
X111121331Y-67020775D01*
X111137405Y-66944773D01*
X111142762Y-66858056D01*
X111127946Y-66730351D01*
X111083496Y-66624517D01*
X111009412Y-66540556D01*
X110935693Y-66492634D01*
X110847884Y-66458403D01*
X110745987Y-66437865D01*
X110630000Y-66431019D01*
X110514509Y-66439353D01*
X110412512Y-66464356D01*
X110324605Y-66504242D01*
X110251381Y-66557225D01*
X110193437Y-66622312D01*
X110151369Y-66698512D01*
X110125770Y-66784039D01*
X110117237Y-66877106D01*
X109786508Y-66877106D01*
X109786508Y-66292906D01*
X110139462Y-66292906D01*
X110266462Y-66303820D01*
X110390287Y-66314337D01*
X110511930Y-66323862D01*
X110632381Y-66331800D01*
X110752634Y-66338348D01*
X110873681Y-66343706D01*
X110996514Y-66348072D01*
X111122125Y-66351644D01*
X111122125Y-66172256D01*
X110358537Y-66181781D01*
X110774462Y-66061131D01*
X110774462Y-65918256D01*
X110358537Y-65802369D01*
X111122125Y-65810306D01*
X111122125Y-65630919D01*
X110999094Y-65635880D01*
X110871300Y-65641237D01*
X110741522Y-65646992D01*
X110612537Y-65653144D01*
X110485934Y-65660089D01*
X110363300Y-65668225D01*
X110247016Y-65677552D01*
X110139462Y-65688069D01*
X110139462Y-65849994D01*
X110225187Y-65877775D01*
X110337900Y-65913494D01*
X110460137Y-65951594D01*
X110574437Y-65988106D01*
X110452994Y-66027794D01*
X110332344Y-66067481D01*
X110223600Y-66102406D01*
X110139462Y-66130981D01*
X110139462Y-66292906D01*
X109786508Y-66292906D01*
X109786508Y-65300190D01*
X109790570Y-65217513D01*
X109802716Y-65135633D01*
X109822829Y-65055337D01*
X109850715Y-64977399D01*
X109886107Y-64902570D01*
X109928662Y-64831571D01*
X109977972Y-64765084D01*
X110033561Y-64703751D01*
X110094895Y-64648162D01*
X110161381Y-64598852D01*
X110232381Y-64556296D01*
X110307210Y-64520905D01*
X110385147Y-64493018D01*
X110465443Y-64472905D01*
X110547323Y-64460760D01*
X110630000Y-64456698D01*
X110712677Y-64460760D01*
X110794557Y-64472905D01*
X110874853Y-64493018D01*
X110952790Y-64520905D01*
X111027619Y-64556296D01*
X111098619Y-64598852D01*
X111165105Y-64648162D01*
X111226439Y-64703751D01*
X111282028Y-64765084D01*
X111331338Y-64831571D01*
X111373893Y-64902570D01*
X111409285Y-64977399D01*
X111437171Y-65055337D01*
X111457284Y-65135633D01*
X111469430Y-65217513D01*
X111473492Y-65300190D01*
X111473492Y-69039810D01*
X111469430Y-69122487D01*
G37*
D12*
X166000000Y-70151000D02*
X167020000Y-70151000D01*
X161940000Y-63511000D02*
X161940000Y-64951000D01*
X176160000Y-64951000D02*
X176730000Y-64951000D01*
X176160000Y-70151000D02*
X176730000Y-70151000D01*
X171080000Y-70151000D02*
X172100000Y-70151000D01*
X171080000Y-64951000D02*
X172100000Y-64951000D01*
X163460000Y-64951000D02*
X164480000Y-64951000D01*
X176730000Y-64951000D02*
X176730000Y-70151000D01*
X163460000Y-70151000D02*
X164480000Y-70151000D01*
X168540000Y-64951000D02*
X169560000Y-64951000D01*
X173620000Y-64951000D02*
X174640000Y-64951000D01*
X173620000Y-70151000D02*
X174640000Y-70151000D01*
X161370000Y-64951000D02*
X161940000Y-64951000D01*
X161370000Y-70151000D02*
X161940000Y-70151000D01*
X166000000Y-64951000D02*
X167020000Y-64951000D01*
X161370000Y-64951000D02*
X161370000Y-70151000D01*
X168540000Y-70151000D02*
X169560000Y-70151000D01*
M02*
