G04 #@! TF.GenerationSoftware,KiCad,Pcbnew,(6.0.7)*
G04 #@! TF.CreationDate,2022-08-14T23:11:46+02:00*
G04 #@! TF.ProjectId,picocart64_v2,7069636f-6361-4727-9436-345f76322e6b,rev?*
G04 #@! TF.SameCoordinates,Original*
G04 #@! TF.FileFunction,Legend,Top*
G04 #@! TF.FilePolarity,Positive*
%FSLAX46Y46*%
G04 Gerber Fmt 4.6, Leading zero omitted, Abs format (unit mm)*
G04 Created by KiCad (PCBNEW (6.0.7)) date 2022-08-14 23:11:46*
%MOMM*%
%LPD*%
G01*
G04 APERTURE LIST*
%ADD10C,0.150000*%
%ADD11C,0.300000*%
%ADD12C,0.127000*%
%ADD13C,0.120000*%
G04 APERTURE END LIST*
D10*
X158686736Y-87307380D02*
X158686736Y-86307380D01*
X159020069Y-87021666D01*
X159353402Y-86307380D01*
X159353402Y-87307380D01*
X160401021Y-87212142D02*
X160353402Y-87259761D01*
X160210545Y-87307380D01*
X160115307Y-87307380D01*
X159972450Y-87259761D01*
X159877212Y-87164523D01*
X159829593Y-87069285D01*
X159781974Y-86878809D01*
X159781974Y-86735952D01*
X159829593Y-86545476D01*
X159877212Y-86450238D01*
X159972450Y-86355000D01*
X160115307Y-86307380D01*
X160210545Y-86307380D01*
X160353402Y-86355000D01*
X160401021Y-86402619D01*
X160829593Y-86307380D02*
X160829593Y-87116904D01*
X160877212Y-87212142D01*
X160924831Y-87259761D01*
X161020069Y-87307380D01*
X161210545Y-87307380D01*
X161305783Y-87259761D01*
X161353402Y-87212142D01*
X161401021Y-87116904D01*
X161401021Y-86307380D01*
X161829593Y-86402619D02*
X161877212Y-86355000D01*
X161972450Y-86307380D01*
X162210545Y-86307380D01*
X162305783Y-86355000D01*
X162353402Y-86402619D01*
X162401021Y-86497857D01*
X162401021Y-86593095D01*
X162353402Y-86735952D01*
X161781974Y-87307380D01*
X162401021Y-87307380D01*
X162591498Y-87402619D02*
X163353402Y-87402619D01*
X163591498Y-87307380D02*
X163591498Y-86307380D01*
X163829593Y-86307380D01*
X163972450Y-86355000D01*
X164067688Y-86450238D01*
X164115307Y-86545476D01*
X164162926Y-86735952D01*
X164162926Y-86878809D01*
X164115307Y-87069285D01*
X164067688Y-87164523D01*
X163972450Y-87259761D01*
X163829593Y-87307380D01*
X163591498Y-87307380D01*
X164591498Y-87307380D02*
X164591498Y-86307380D01*
X165258164Y-86307380D02*
X165448641Y-86307380D01*
X165543879Y-86355000D01*
X165639117Y-86450238D01*
X165686736Y-86640714D01*
X165686736Y-86974047D01*
X165639117Y-87164523D01*
X165543879Y-87259761D01*
X165448641Y-87307380D01*
X165258164Y-87307380D01*
X165162926Y-87259761D01*
X165067688Y-87164523D01*
X165020069Y-86974047D01*
X165020069Y-86640714D01*
X165067688Y-86450238D01*
X165162926Y-86355000D01*
X165258164Y-86307380D01*
X158714318Y-85402380D02*
X158714318Y-84402380D01*
X159047651Y-85116666D01*
X159380984Y-84402380D01*
X159380984Y-85402380D01*
X160428603Y-85307142D02*
X160380984Y-85354761D01*
X160238127Y-85402380D01*
X160142889Y-85402380D01*
X160000032Y-85354761D01*
X159904794Y-85259523D01*
X159857175Y-85164285D01*
X159809556Y-84973809D01*
X159809556Y-84830952D01*
X159857175Y-84640476D01*
X159904794Y-84545238D01*
X160000032Y-84450000D01*
X160142889Y-84402380D01*
X160238127Y-84402380D01*
X160380984Y-84450000D01*
X160428603Y-84497619D01*
X160857175Y-84402380D02*
X160857175Y-85211904D01*
X160904794Y-85307142D01*
X160952413Y-85354761D01*
X161047651Y-85402380D01*
X161238127Y-85402380D01*
X161333365Y-85354761D01*
X161380984Y-85307142D01*
X161428603Y-85211904D01*
X161428603Y-84402380D01*
X161857175Y-84497619D02*
X161904794Y-84450000D01*
X162000032Y-84402380D01*
X162238127Y-84402380D01*
X162333365Y-84450000D01*
X162380984Y-84497619D01*
X162428603Y-84592857D01*
X162428603Y-84688095D01*
X162380984Y-84830952D01*
X161809556Y-85402380D01*
X162428603Y-85402380D01*
X162619080Y-85497619D02*
X163380984Y-85497619D01*
X164190508Y-85307142D02*
X164142889Y-85354761D01*
X164000032Y-85402380D01*
X163904794Y-85402380D01*
X163761937Y-85354761D01*
X163666699Y-85259523D01*
X163619080Y-85164285D01*
X163571461Y-84973809D01*
X163571461Y-84830952D01*
X163619080Y-84640476D01*
X163666699Y-84545238D01*
X163761937Y-84450000D01*
X163904794Y-84402380D01*
X164000032Y-84402380D01*
X164142889Y-84450000D01*
X164190508Y-84497619D01*
X164571461Y-85354761D02*
X164714318Y-85402380D01*
X164952413Y-85402380D01*
X165047651Y-85354761D01*
X165095270Y-85307142D01*
X165142889Y-85211904D01*
X165142889Y-85116666D01*
X165095270Y-85021428D01*
X165047651Y-84973809D01*
X164952413Y-84926190D01*
X164761937Y-84878571D01*
X164666699Y-84830952D01*
X164619080Y-84783333D01*
X164571461Y-84688095D01*
X164571461Y-84592857D01*
X164619080Y-84497619D01*
X164666699Y-84450000D01*
X164761937Y-84402380D01*
X165000032Y-84402380D01*
X165142889Y-84450000D01*
X158717595Y-83751380D02*
X158717595Y-82751380D01*
X159050928Y-83465666D01*
X159384261Y-82751380D01*
X159384261Y-83751380D01*
X160431880Y-83656142D02*
X160384261Y-83703761D01*
X160241404Y-83751380D01*
X160146166Y-83751380D01*
X160003309Y-83703761D01*
X159908071Y-83608523D01*
X159860452Y-83513285D01*
X159812833Y-83322809D01*
X159812833Y-83179952D01*
X159860452Y-82989476D01*
X159908071Y-82894238D01*
X160003309Y-82799000D01*
X160146166Y-82751380D01*
X160241404Y-82751380D01*
X160384261Y-82799000D01*
X160431880Y-82846619D01*
X160860452Y-82751380D02*
X160860452Y-83560904D01*
X160908071Y-83656142D01*
X160955690Y-83703761D01*
X161050928Y-83751380D01*
X161241404Y-83751380D01*
X161336642Y-83703761D01*
X161384261Y-83656142D01*
X161431880Y-83560904D01*
X161431880Y-82751380D01*
X161860452Y-82846619D02*
X161908071Y-82799000D01*
X162003309Y-82751380D01*
X162241404Y-82751380D01*
X162336642Y-82799000D01*
X162384261Y-82846619D01*
X162431880Y-82941857D01*
X162431880Y-83037095D01*
X162384261Y-83179952D01*
X161812833Y-83751380D01*
X162431880Y-83751380D01*
X162622357Y-83846619D02*
X163384261Y-83846619D01*
X163574738Y-83703761D02*
X163717595Y-83751380D01*
X163955690Y-83751380D01*
X164050928Y-83703761D01*
X164098547Y-83656142D01*
X164146166Y-83560904D01*
X164146166Y-83465666D01*
X164098547Y-83370428D01*
X164050928Y-83322809D01*
X163955690Y-83275190D01*
X163765214Y-83227571D01*
X163669976Y-83179952D01*
X163622357Y-83132333D01*
X163574738Y-83037095D01*
X163574738Y-82941857D01*
X163622357Y-82846619D01*
X163669976Y-82799000D01*
X163765214Y-82751380D01*
X164003309Y-82751380D01*
X164146166Y-82799000D01*
X165146166Y-83656142D02*
X165098547Y-83703761D01*
X164955690Y-83751380D01*
X164860452Y-83751380D01*
X164717595Y-83703761D01*
X164622357Y-83608523D01*
X164574738Y-83513285D01*
X164527119Y-83322809D01*
X164527119Y-83179952D01*
X164574738Y-82989476D01*
X164622357Y-82894238D01*
X164717595Y-82799000D01*
X164860452Y-82751380D01*
X164955690Y-82751380D01*
X165098547Y-82799000D01*
X165146166Y-82846619D01*
X165574738Y-83751380D02*
X165574738Y-82751380D01*
X166146166Y-83751380D02*
X165717595Y-83179952D01*
X166146166Y-82751380D02*
X165574738Y-83322809D01*
D11*
X132543428Y-110561971D02*
X132543428Y-111561971D01*
X132186285Y-109990542D02*
X131829142Y-111061971D01*
X132757714Y-111061971D01*
X134043428Y-110061971D02*
X133329142Y-110061971D01*
X133257714Y-110776257D01*
X133329142Y-110704828D01*
X133472000Y-110633400D01*
X133829142Y-110633400D01*
X133972000Y-110704828D01*
X134043428Y-110776257D01*
X134114857Y-110919114D01*
X134114857Y-111276257D01*
X134043428Y-111419114D01*
X133972000Y-111490542D01*
X133829142Y-111561971D01*
X133472000Y-111561971D01*
X133329142Y-111490542D01*
X133257714Y-111419114D01*
X145043428Y-110561971D02*
X145043428Y-111561971D01*
X144686285Y-109990542D02*
X144329142Y-111061971D01*
X145257714Y-111061971D01*
X146114857Y-110061971D02*
X146257714Y-110061971D01*
X146400571Y-110133400D01*
X146472000Y-110204828D01*
X146543428Y-110347685D01*
X146614857Y-110633400D01*
X146614857Y-110990542D01*
X146543428Y-111276257D01*
X146472000Y-111419114D01*
X146400571Y-111490542D01*
X146257714Y-111561971D01*
X146114857Y-111561971D01*
X145972000Y-111490542D01*
X145900571Y-111419114D01*
X145829142Y-111276257D01*
X145757714Y-110990542D01*
X145757714Y-110633400D01*
X145829142Y-110347685D01*
X145900571Y-110204828D01*
X145972000Y-110133400D01*
X146114857Y-110061971D01*
X156757714Y-110061971D02*
X157686285Y-110061971D01*
X157186285Y-110633400D01*
X157400571Y-110633400D01*
X157543428Y-110704828D01*
X157614857Y-110776257D01*
X157686285Y-110919114D01*
X157686285Y-111276257D01*
X157614857Y-111419114D01*
X157543428Y-111490542D01*
X157400571Y-111561971D01*
X156972000Y-111561971D01*
X156829142Y-111490542D01*
X156757714Y-111419114D01*
X159043428Y-110061971D02*
X158329142Y-110061971D01*
X158257714Y-110776257D01*
X158329142Y-110704828D01*
X158472000Y-110633400D01*
X158829142Y-110633400D01*
X158972000Y-110704828D01*
X159043428Y-110776257D01*
X159114857Y-110919114D01*
X159114857Y-111276257D01*
X159043428Y-111419114D01*
X158972000Y-111490542D01*
X158829142Y-111561971D01*
X158472000Y-111561971D01*
X158329142Y-111490542D01*
X158257714Y-111419114D01*
X169257714Y-110061971D02*
X170186285Y-110061971D01*
X169686285Y-110633400D01*
X169900571Y-110633400D01*
X170043428Y-110704828D01*
X170114857Y-110776257D01*
X170186285Y-110919114D01*
X170186285Y-111276257D01*
X170114857Y-111419114D01*
X170043428Y-111490542D01*
X169900571Y-111561971D01*
X169472000Y-111561971D01*
X169329142Y-111490542D01*
X169257714Y-111419114D01*
X171114857Y-110061971D02*
X171257714Y-110061971D01*
X171400571Y-110133400D01*
X171472000Y-110204828D01*
X171543428Y-110347685D01*
X171614857Y-110633400D01*
X171614857Y-110990542D01*
X171543428Y-111276257D01*
X171472000Y-111419114D01*
X171400571Y-111490542D01*
X171257714Y-111561971D01*
X171114857Y-111561971D01*
X170972000Y-111490542D01*
X170900571Y-111419114D01*
X170829142Y-111276257D01*
X170757714Y-110990542D01*
X170757714Y-110633400D01*
X170829142Y-110347685D01*
X170900571Y-110204828D01*
X170972000Y-110133400D01*
X171114857Y-110061971D01*
X178829142Y-110204828D02*
X178900571Y-110133400D01*
X179043428Y-110061971D01*
X179400571Y-110061971D01*
X179543428Y-110133400D01*
X179614857Y-110204828D01*
X179686285Y-110347685D01*
X179686285Y-110490542D01*
X179614857Y-110704828D01*
X178757714Y-111561971D01*
X179686285Y-111561971D01*
X180972000Y-110061971D02*
X180686285Y-110061971D01*
X180543428Y-110133400D01*
X180472000Y-110204828D01*
X180329142Y-110419114D01*
X180257714Y-110704828D01*
X180257714Y-111276257D01*
X180329142Y-111419114D01*
X180400571Y-111490542D01*
X180543428Y-111561971D01*
X180829142Y-111561971D01*
X180972000Y-111490542D01*
X181043428Y-111419114D01*
X181114857Y-111276257D01*
X181114857Y-110919114D01*
X181043428Y-110776257D01*
X180972000Y-110704828D01*
X180829142Y-110633400D01*
X180543428Y-110633400D01*
X180400571Y-110704828D01*
X180329142Y-110776257D01*
X180257714Y-110919114D01*
X119924857Y-110053886D02*
X119210571Y-110053886D01*
X119139142Y-110768172D01*
X119210571Y-110696743D01*
X119353428Y-110625315D01*
X119710571Y-110625315D01*
X119853428Y-110696743D01*
X119924857Y-110768172D01*
X119996285Y-110911029D01*
X119996285Y-111268172D01*
X119924857Y-111411029D01*
X119853428Y-111482457D01*
X119710571Y-111553886D01*
X119353428Y-111553886D01*
X119210571Y-111482457D01*
X119139142Y-111411029D01*
X120924857Y-110053886D02*
X121067714Y-110053886D01*
X121210571Y-110125315D01*
X121282000Y-110196743D01*
X121353428Y-110339600D01*
X121424857Y-110625315D01*
X121424857Y-110982457D01*
X121353428Y-111268172D01*
X121282000Y-111411029D01*
X121210571Y-111482457D01*
X121067714Y-111553886D01*
X120924857Y-111553886D01*
X120782000Y-111482457D01*
X120710571Y-111411029D01*
X120639142Y-111268172D01*
X120567714Y-110982457D01*
X120567714Y-110625315D01*
X120639142Y-110339600D01*
X120710571Y-110196743D01*
X120782000Y-110125315D01*
X120924857Y-110053886D01*
D10*
X108812380Y-68187933D02*
X109526666Y-68187933D01*
X109669523Y-68235552D01*
X109764761Y-68330790D01*
X109812380Y-68473647D01*
X109812380Y-68568885D01*
X109812380Y-67187933D02*
X109812380Y-67759361D01*
X109812380Y-67473647D02*
X108812380Y-67473647D01*
X108955238Y-67568885D01*
X109050476Y-67664123D01*
X109098095Y-67759361D01*
X108812380Y-78284133D02*
X109526666Y-78284133D01*
X109669523Y-78331752D01*
X109764761Y-78426990D01*
X109812380Y-78569847D01*
X109812380Y-78665085D01*
X108907619Y-77855561D02*
X108860000Y-77807942D01*
X108812380Y-77712704D01*
X108812380Y-77474609D01*
X108860000Y-77379371D01*
X108907619Y-77331752D01*
X109002857Y-77284133D01*
X109098095Y-77284133D01*
X109240952Y-77331752D01*
X109812380Y-77903180D01*
X109812380Y-77284133D01*
X143626142Y-80893857D02*
X143673761Y-80941476D01*
X143721380Y-81084333D01*
X143721380Y-81179571D01*
X143673761Y-81322428D01*
X143578523Y-81417666D01*
X143483285Y-81465285D01*
X143292809Y-81512904D01*
X143149952Y-81512904D01*
X142959476Y-81465285D01*
X142864238Y-81417666D01*
X142769000Y-81322428D01*
X142721380Y-81179571D01*
X142721380Y-81084333D01*
X142769000Y-80941476D01*
X142816619Y-80893857D01*
X142721380Y-80560523D02*
X142721380Y-79941476D01*
X143102333Y-80274809D01*
X143102333Y-80131952D01*
X143149952Y-80036714D01*
X143197571Y-79989095D01*
X143292809Y-79941476D01*
X143530904Y-79941476D01*
X143626142Y-79989095D01*
X143673761Y-80036714D01*
X143721380Y-80131952D01*
X143721380Y-80417666D01*
X143673761Y-80512904D01*
X143626142Y-80560523D01*
X142721380Y-79084333D02*
X142721380Y-79274809D01*
X142769000Y-79370047D01*
X142816619Y-79417666D01*
X142959476Y-79512904D01*
X143149952Y-79560523D01*
X143530904Y-79560523D01*
X143626142Y-79512904D01*
X143673761Y-79465285D01*
X143721380Y-79370047D01*
X143721380Y-79179571D01*
X143673761Y-79084333D01*
X143626142Y-79036714D01*
X143530904Y-78989095D01*
X143292809Y-78989095D01*
X143197571Y-79036714D01*
X143149952Y-79084333D01*
X143102333Y-79179571D01*
X143102333Y-79370047D01*
X143149952Y-79465285D01*
X143197571Y-79512904D01*
X143292809Y-79560523D01*
X162898380Y-92609666D02*
X162422190Y-92943000D01*
X162898380Y-93181095D02*
X161898380Y-93181095D01*
X161898380Y-92800142D01*
X161946000Y-92704904D01*
X161993619Y-92657285D01*
X162088857Y-92609666D01*
X162231714Y-92609666D01*
X162326952Y-92657285D01*
X162374571Y-92704904D01*
X162422190Y-92800142D01*
X162422190Y-93181095D01*
X162898380Y-92133476D02*
X162898380Y-91943000D01*
X162850761Y-91847761D01*
X162803142Y-91800142D01*
X162660285Y-91704904D01*
X162469809Y-91657285D01*
X162088857Y-91657285D01*
X161993619Y-91704904D01*
X161946000Y-91752523D01*
X161898380Y-91847761D01*
X161898380Y-92038238D01*
X161946000Y-92133476D01*
X161993619Y-92181095D01*
X162088857Y-92228714D01*
X162326952Y-92228714D01*
X162422190Y-92181095D01*
X162469809Y-92133476D01*
X162517428Y-92038238D01*
X162517428Y-91847761D01*
X162469809Y-91752523D01*
X162422190Y-91704904D01*
X162326952Y-91657285D01*
X139743333Y-85561142D02*
X139695714Y-85608761D01*
X139552857Y-85656380D01*
X139457619Y-85656380D01*
X139314761Y-85608761D01*
X139219523Y-85513523D01*
X139171904Y-85418285D01*
X139124285Y-85227809D01*
X139124285Y-85084952D01*
X139171904Y-84894476D01*
X139219523Y-84799238D01*
X139314761Y-84704000D01*
X139457619Y-84656380D01*
X139552857Y-84656380D01*
X139695714Y-84704000D01*
X139743333Y-84751619D01*
X140076666Y-84656380D02*
X140743333Y-84656380D01*
X140314761Y-85656380D01*
X120439333Y-85561142D02*
X120391714Y-85608761D01*
X120248857Y-85656380D01*
X120153619Y-85656380D01*
X120010761Y-85608761D01*
X119915523Y-85513523D01*
X119867904Y-85418285D01*
X119820285Y-85227809D01*
X119820285Y-85084952D01*
X119867904Y-84894476D01*
X119915523Y-84799238D01*
X120010761Y-84704000D01*
X120153619Y-84656380D01*
X120248857Y-84656380D01*
X120391714Y-84704000D01*
X120439333Y-84751619D01*
X120772666Y-84656380D02*
X121391714Y-84656380D01*
X121058380Y-85037333D01*
X121201238Y-85037333D01*
X121296476Y-85084952D01*
X121344095Y-85132571D01*
X121391714Y-85227809D01*
X121391714Y-85465904D01*
X121344095Y-85561142D01*
X121296476Y-85608761D01*
X121201238Y-85656380D01*
X120915523Y-85656380D01*
X120820285Y-85608761D01*
X120772666Y-85561142D01*
X155272738Y-82751380D02*
X155844166Y-82751380D01*
X155558452Y-83751380D02*
X155558452Y-82751380D01*
X156177500Y-83751380D02*
X156177500Y-82751380D01*
X156558452Y-82751380D01*
X156653690Y-82799000D01*
X156701309Y-82846619D01*
X156748928Y-82941857D01*
X156748928Y-83084714D01*
X156701309Y-83179952D01*
X156653690Y-83227571D01*
X156558452Y-83275190D01*
X156177500Y-83275190D01*
X157701309Y-83751380D02*
X157129880Y-83751380D01*
X157415595Y-83751380D02*
X157415595Y-82751380D01*
X157320357Y-82894238D01*
X157225119Y-82989476D01*
X157129880Y-83037095D01*
X116542095Y-92242380D02*
X116542095Y-93051904D01*
X116589714Y-93147142D01*
X116637333Y-93194761D01*
X116732571Y-93242380D01*
X116923047Y-93242380D01*
X117018285Y-93194761D01*
X117065904Y-93147142D01*
X117113523Y-93051904D01*
X117113523Y-92242380D01*
X118018285Y-92575714D02*
X118018285Y-93242380D01*
X117780190Y-92194761D02*
X117542095Y-92909047D01*
X118161142Y-92909047D01*
X120439333Y-93181142D02*
X120391714Y-93228761D01*
X120248857Y-93276380D01*
X120153619Y-93276380D01*
X120010761Y-93228761D01*
X119915523Y-93133523D01*
X119867904Y-93038285D01*
X119820285Y-92847809D01*
X119820285Y-92704952D01*
X119867904Y-92514476D01*
X119915523Y-92419238D01*
X120010761Y-92324000D01*
X120153619Y-92276380D01*
X120248857Y-92276380D01*
X120391714Y-92324000D01*
X120439333Y-92371619D01*
X121296476Y-92609714D02*
X121296476Y-93276380D01*
X121058380Y-92228761D02*
X120820285Y-92943047D01*
X121439333Y-92943047D01*
X132593142Y-75274142D02*
X132545523Y-75321761D01*
X132402666Y-75369380D01*
X132307428Y-75369380D01*
X132164571Y-75321761D01*
X132069333Y-75226523D01*
X132021714Y-75131285D01*
X131974095Y-74940809D01*
X131974095Y-74797952D01*
X132021714Y-74607476D01*
X132069333Y-74512238D01*
X132164571Y-74417000D01*
X132307428Y-74369380D01*
X132402666Y-74369380D01*
X132545523Y-74417000D01*
X132593142Y-74464619D01*
X132926476Y-74369380D02*
X133545523Y-74369380D01*
X133212190Y-74750333D01*
X133355047Y-74750333D01*
X133450285Y-74797952D01*
X133497904Y-74845571D01*
X133545523Y-74940809D01*
X133545523Y-75178904D01*
X133497904Y-75274142D01*
X133450285Y-75321761D01*
X133355047Y-75369380D01*
X133069333Y-75369380D01*
X132974095Y-75321761D01*
X132926476Y-75274142D01*
X134497904Y-75369380D02*
X133926476Y-75369380D01*
X134212190Y-75369380D02*
X134212190Y-74369380D01*
X134116952Y-74512238D01*
X134021714Y-74607476D01*
X133926476Y-74655095D01*
X108034380Y-61621666D02*
X107558190Y-61955000D01*
X108034380Y-62193095D02*
X107034380Y-62193095D01*
X107034380Y-61812142D01*
X107082000Y-61716904D01*
X107129619Y-61669285D01*
X107224857Y-61621666D01*
X107367714Y-61621666D01*
X107462952Y-61669285D01*
X107510571Y-61716904D01*
X107558190Y-61812142D01*
X107558190Y-62193095D01*
X107034380Y-60716904D02*
X107034380Y-61193095D01*
X107510571Y-61240714D01*
X107462952Y-61193095D01*
X107415333Y-61097857D01*
X107415333Y-60859761D01*
X107462952Y-60764523D01*
X107510571Y-60716904D01*
X107605809Y-60669285D01*
X107843904Y-60669285D01*
X107939142Y-60716904D01*
X107986761Y-60764523D01*
X108034380Y-60859761D01*
X108034380Y-61097857D01*
X107986761Y-61193095D01*
X107939142Y-61240714D01*
X147833142Y-94070142D02*
X147785523Y-94117761D01*
X147642666Y-94165380D01*
X147547428Y-94165380D01*
X147404571Y-94117761D01*
X147309333Y-94022523D01*
X147261714Y-93927285D01*
X147214095Y-93736809D01*
X147214095Y-93593952D01*
X147261714Y-93403476D01*
X147309333Y-93308238D01*
X147404571Y-93213000D01*
X147547428Y-93165380D01*
X147642666Y-93165380D01*
X147785523Y-93213000D01*
X147833142Y-93260619D01*
X148785523Y-94165380D02*
X148214095Y-94165380D01*
X148499809Y-94165380D02*
X148499809Y-93165380D01*
X148404571Y-93308238D01*
X148309333Y-93403476D01*
X148214095Y-93451095D01*
X149690285Y-93165380D02*
X149214095Y-93165380D01*
X149166476Y-93641571D01*
X149214095Y-93593952D01*
X149309333Y-93546333D01*
X149547428Y-93546333D01*
X149642666Y-93593952D01*
X149690285Y-93641571D01*
X149737904Y-93736809D01*
X149737904Y-93974904D01*
X149690285Y-94070142D01*
X149642666Y-94117761D01*
X149547428Y-94165380D01*
X149309333Y-94165380D01*
X149214095Y-94117761D01*
X149166476Y-94070142D01*
X144388142Y-62478857D02*
X144435761Y-62526476D01*
X144483380Y-62669333D01*
X144483380Y-62764571D01*
X144435761Y-62907428D01*
X144340523Y-63002666D01*
X144245285Y-63050285D01*
X144054809Y-63097904D01*
X143911952Y-63097904D01*
X143721476Y-63050285D01*
X143626238Y-63002666D01*
X143531000Y-62907428D01*
X143483380Y-62764571D01*
X143483380Y-62669333D01*
X143531000Y-62526476D01*
X143578619Y-62478857D01*
X143578619Y-62097904D02*
X143531000Y-62050285D01*
X143483380Y-61955047D01*
X143483380Y-61716952D01*
X143531000Y-61621714D01*
X143578619Y-61574095D01*
X143673857Y-61526476D01*
X143769095Y-61526476D01*
X143911952Y-61574095D01*
X144483380Y-62145523D01*
X144483380Y-61526476D01*
X143483380Y-61193142D02*
X143483380Y-60526476D01*
X144483380Y-60955047D01*
X157791380Y-64129857D02*
X157315190Y-64463190D01*
X157791380Y-64701285D02*
X156791380Y-64701285D01*
X156791380Y-64320333D01*
X156839000Y-64225095D01*
X156886619Y-64177476D01*
X156981857Y-64129857D01*
X157124714Y-64129857D01*
X157219952Y-64177476D01*
X157267571Y-64225095D01*
X157315190Y-64320333D01*
X157315190Y-64701285D01*
X157791380Y-63177476D02*
X157791380Y-63748904D01*
X157791380Y-63463190D02*
X156791380Y-63463190D01*
X156934238Y-63558428D01*
X157029476Y-63653666D01*
X157077095Y-63748904D01*
X157791380Y-62701285D02*
X157791380Y-62510809D01*
X157743761Y-62415571D01*
X157696142Y-62367952D01*
X157553285Y-62272714D01*
X157362809Y-62225095D01*
X156981857Y-62225095D01*
X156886619Y-62272714D01*
X156839000Y-62320333D01*
X156791380Y-62415571D01*
X156791380Y-62606047D01*
X156839000Y-62701285D01*
X156886619Y-62748904D01*
X156981857Y-62796523D01*
X157219952Y-62796523D01*
X157315190Y-62748904D01*
X157362809Y-62701285D01*
X157410428Y-62606047D01*
X157410428Y-62415571D01*
X157362809Y-62320333D01*
X157315190Y-62272714D01*
X157219952Y-62225095D01*
X106890095Y-92276380D02*
X106890095Y-93085904D01*
X106937714Y-93181142D01*
X106985333Y-93228761D01*
X107080571Y-93276380D01*
X107271047Y-93276380D01*
X107366285Y-93228761D01*
X107413904Y-93181142D01*
X107461523Y-93085904D01*
X107461523Y-92276380D01*
X107890095Y-92371619D02*
X107937714Y-92324000D01*
X108032952Y-92276380D01*
X108271047Y-92276380D01*
X108366285Y-92324000D01*
X108413904Y-92371619D01*
X108461523Y-92466857D01*
X108461523Y-92562095D01*
X108413904Y-92704952D01*
X107842476Y-93276380D01*
X108461523Y-93276380D01*
X155272738Y-84529380D02*
X155844166Y-84529380D01*
X155558452Y-85529380D02*
X155558452Y-84529380D01*
X156177500Y-85529380D02*
X156177500Y-84529380D01*
X156558452Y-84529380D01*
X156653690Y-84577000D01*
X156701309Y-84624619D01*
X156748928Y-84719857D01*
X156748928Y-84862714D01*
X156701309Y-84957952D01*
X156653690Y-85005571D01*
X156558452Y-85053190D01*
X156177500Y-85053190D01*
X157129880Y-84624619D02*
X157177500Y-84577000D01*
X157272738Y-84529380D01*
X157510833Y-84529380D01*
X157606071Y-84577000D01*
X157653690Y-84624619D01*
X157701309Y-84719857D01*
X157701309Y-84815095D01*
X157653690Y-84957952D01*
X157082261Y-85529380D01*
X157701309Y-85529380D01*
X160280142Y-102102857D02*
X160327761Y-102150476D01*
X160375380Y-102293333D01*
X160375380Y-102388571D01*
X160327761Y-102531428D01*
X160232523Y-102626666D01*
X160137285Y-102674285D01*
X159946809Y-102721904D01*
X159803952Y-102721904D01*
X159613476Y-102674285D01*
X159518238Y-102626666D01*
X159423000Y-102531428D01*
X159375380Y-102388571D01*
X159375380Y-102293333D01*
X159423000Y-102150476D01*
X159470619Y-102102857D01*
X160375380Y-101150476D02*
X160375380Y-101721904D01*
X160375380Y-101436190D02*
X159375380Y-101436190D01*
X159518238Y-101531428D01*
X159613476Y-101626666D01*
X159661095Y-101721904D01*
X159803952Y-100579047D02*
X159756333Y-100674285D01*
X159708714Y-100721904D01*
X159613476Y-100769523D01*
X159565857Y-100769523D01*
X159470619Y-100721904D01*
X159423000Y-100674285D01*
X159375380Y-100579047D01*
X159375380Y-100388571D01*
X159423000Y-100293333D01*
X159470619Y-100245714D01*
X159565857Y-100198095D01*
X159613476Y-100198095D01*
X159708714Y-100245714D01*
X159756333Y-100293333D01*
X159803952Y-100388571D01*
X159803952Y-100579047D01*
X159851571Y-100674285D01*
X159899190Y-100721904D01*
X159994428Y-100769523D01*
X160184904Y-100769523D01*
X160280142Y-100721904D01*
X160327761Y-100674285D01*
X160375380Y-100579047D01*
X160375380Y-100388571D01*
X160327761Y-100293333D01*
X160280142Y-100245714D01*
X160184904Y-100198095D01*
X159994428Y-100198095D01*
X159899190Y-100245714D01*
X159851571Y-100293333D01*
X159803952Y-100388571D01*
X139743333Y-93181142D02*
X139695714Y-93228761D01*
X139552857Y-93276380D01*
X139457619Y-93276380D01*
X139314761Y-93228761D01*
X139219523Y-93133523D01*
X139171904Y-93038285D01*
X139124285Y-92847809D01*
X139124285Y-92704952D01*
X139171904Y-92514476D01*
X139219523Y-92419238D01*
X139314761Y-92324000D01*
X139457619Y-92276380D01*
X139552857Y-92276380D01*
X139695714Y-92324000D01*
X139743333Y-92371619D01*
X140314761Y-92704952D02*
X140219523Y-92657333D01*
X140171904Y-92609714D01*
X140124285Y-92514476D01*
X140124285Y-92466857D01*
X140171904Y-92371619D01*
X140219523Y-92324000D01*
X140314761Y-92276380D01*
X140505238Y-92276380D01*
X140600476Y-92324000D01*
X140648095Y-92371619D01*
X140695714Y-92466857D01*
X140695714Y-92514476D01*
X140648095Y-92609714D01*
X140600476Y-92657333D01*
X140505238Y-92704952D01*
X140314761Y-92704952D01*
X140219523Y-92752571D01*
X140171904Y-92800190D01*
X140124285Y-92895428D01*
X140124285Y-93085904D01*
X140171904Y-93181142D01*
X140219523Y-93228761D01*
X140314761Y-93276380D01*
X140505238Y-93276380D01*
X140600476Y-93228761D01*
X140648095Y-93181142D01*
X140695714Y-93085904D01*
X140695714Y-92895428D01*
X140648095Y-92800190D01*
X140600476Y-92752571D01*
X140505238Y-92704952D01*
X136100095Y-84656380D02*
X136100095Y-85465904D01*
X136147714Y-85561142D01*
X136195333Y-85608761D01*
X136290571Y-85656380D01*
X136481047Y-85656380D01*
X136576285Y-85608761D01*
X136623904Y-85561142D01*
X136671523Y-85465904D01*
X136671523Y-84656380D01*
X137052476Y-84656380D02*
X137719142Y-84656380D01*
X137290571Y-85656380D01*
X119994742Y-73082142D02*
X119947123Y-73129761D01*
X119804266Y-73177380D01*
X119709028Y-73177380D01*
X119566171Y-73129761D01*
X119470933Y-73034523D01*
X119423314Y-72939285D01*
X119375695Y-72748809D01*
X119375695Y-72605952D01*
X119423314Y-72415476D01*
X119470933Y-72320238D01*
X119566171Y-72225000D01*
X119709028Y-72177380D01*
X119804266Y-72177380D01*
X119947123Y-72225000D01*
X119994742Y-72272619D01*
X120947123Y-73177380D02*
X120375695Y-73177380D01*
X120661409Y-73177380D02*
X120661409Y-72177380D01*
X120566171Y-72320238D01*
X120470933Y-72415476D01*
X120375695Y-72463095D01*
X121566171Y-72177380D02*
X121661409Y-72177380D01*
X121756647Y-72225000D01*
X121804266Y-72272619D01*
X121851885Y-72367857D01*
X121899504Y-72558333D01*
X121899504Y-72796428D01*
X121851885Y-72986904D01*
X121804266Y-73082142D01*
X121756647Y-73129761D01*
X121661409Y-73177380D01*
X121566171Y-73177380D01*
X121470933Y-73129761D01*
X121423314Y-73082142D01*
X121375695Y-72986904D01*
X121328076Y-72796428D01*
X121328076Y-72558333D01*
X121375695Y-72367857D01*
X121423314Y-72272619D01*
X121470933Y-72225000D01*
X121566171Y-72177380D01*
X167502142Y-98165857D02*
X167549761Y-98213476D01*
X167597380Y-98356333D01*
X167597380Y-98451571D01*
X167549761Y-98594428D01*
X167454523Y-98689666D01*
X167359285Y-98737285D01*
X167168809Y-98784904D01*
X167025952Y-98784904D01*
X166835476Y-98737285D01*
X166740238Y-98689666D01*
X166645000Y-98594428D01*
X166597380Y-98451571D01*
X166597380Y-98356333D01*
X166645000Y-98213476D01*
X166692619Y-98165857D01*
X167597380Y-97213476D02*
X167597380Y-97784904D01*
X167597380Y-97499190D02*
X166597380Y-97499190D01*
X166740238Y-97594428D01*
X166835476Y-97689666D01*
X166883095Y-97784904D01*
X166597380Y-96880142D02*
X166597380Y-96261095D01*
X166978333Y-96594428D01*
X166978333Y-96451571D01*
X167025952Y-96356333D01*
X167073571Y-96308714D01*
X167168809Y-96261095D01*
X167406904Y-96261095D01*
X167502142Y-96308714D01*
X167549761Y-96356333D01*
X167597380Y-96451571D01*
X167597380Y-96737285D01*
X167549761Y-96832523D01*
X167502142Y-96880142D01*
X146418904Y-75749380D02*
X146418904Y-76558904D01*
X146466523Y-76654142D01*
X146514142Y-76701761D01*
X146609380Y-76749380D01*
X146799857Y-76749380D01*
X146895095Y-76701761D01*
X146942714Y-76654142D01*
X146990333Y-76558904D01*
X146990333Y-75749380D01*
X147990333Y-76749380D02*
X147418904Y-76749380D01*
X147704619Y-76749380D02*
X147704619Y-75749380D01*
X147609380Y-75892238D01*
X147514142Y-75987476D01*
X147418904Y-76035095D01*
X148895095Y-75749380D02*
X148418904Y-75749380D01*
X148371285Y-76225571D01*
X148418904Y-76177952D01*
X148514142Y-76130333D01*
X148752238Y-76130333D01*
X148847476Y-76177952D01*
X148895095Y-76225571D01*
X148942714Y-76320809D01*
X148942714Y-76558904D01*
X148895095Y-76654142D01*
X148847476Y-76701761D01*
X148752238Y-76749380D01*
X148514142Y-76749380D01*
X148418904Y-76701761D01*
X148371285Y-76654142D01*
X179373580Y-76309133D02*
X180087866Y-76309133D01*
X180230723Y-76356752D01*
X180325961Y-76451990D01*
X180373580Y-76594847D01*
X180373580Y-76690085D01*
X180373580Y-75832942D02*
X179373580Y-75832942D01*
X179373580Y-75451990D01*
X179421200Y-75356752D01*
X179468819Y-75309133D01*
X179564057Y-75261514D01*
X179706914Y-75261514D01*
X179802152Y-75309133D01*
X179849771Y-75356752D01*
X179897390Y-75451990D01*
X179897390Y-75832942D01*
X179468819Y-74880561D02*
X179421200Y-74832942D01*
X179373580Y-74737704D01*
X179373580Y-74499609D01*
X179421200Y-74404371D01*
X179468819Y-74356752D01*
X179564057Y-74309133D01*
X179659295Y-74309133D01*
X179802152Y-74356752D01*
X180373580Y-74928180D01*
X180373580Y-74309133D01*
X143118142Y-62478857D02*
X143165761Y-62526476D01*
X143213380Y-62669333D01*
X143213380Y-62764571D01*
X143165761Y-62907428D01*
X143070523Y-63002666D01*
X142975285Y-63050285D01*
X142784809Y-63097904D01*
X142641952Y-63097904D01*
X142451476Y-63050285D01*
X142356238Y-63002666D01*
X142261000Y-62907428D01*
X142213380Y-62764571D01*
X142213380Y-62669333D01*
X142261000Y-62526476D01*
X142308619Y-62478857D01*
X142213380Y-62145523D02*
X142213380Y-61526476D01*
X142594333Y-61859809D01*
X142594333Y-61716952D01*
X142641952Y-61621714D01*
X142689571Y-61574095D01*
X142784809Y-61526476D01*
X143022904Y-61526476D01*
X143118142Y-61574095D01*
X143165761Y-61621714D01*
X143213380Y-61716952D01*
X143213380Y-62002666D01*
X143165761Y-62097904D01*
X143118142Y-62145523D01*
X142213380Y-60621714D02*
X142213380Y-61097904D01*
X142689571Y-61145523D01*
X142641952Y-61097904D01*
X142594333Y-61002666D01*
X142594333Y-60764571D01*
X142641952Y-60669333D01*
X142689571Y-60621714D01*
X142784809Y-60574095D01*
X143022904Y-60574095D01*
X143118142Y-60621714D01*
X143165761Y-60669333D01*
X143213380Y-60764571D01*
X143213380Y-61002666D01*
X143165761Y-61097904D01*
X143118142Y-61145523D01*
X175475523Y-108889380D02*
X175142190Y-108413190D01*
X174904095Y-108889380D02*
X174904095Y-107889380D01*
X175285047Y-107889380D01*
X175380285Y-107937000D01*
X175427904Y-107984619D01*
X175475523Y-108079857D01*
X175475523Y-108222714D01*
X175427904Y-108317952D01*
X175380285Y-108365571D01*
X175285047Y-108413190D01*
X174904095Y-108413190D01*
X175904095Y-108889380D02*
X175904095Y-107889380D01*
X176475523Y-108889380D01*
X176475523Y-107889380D01*
X177475523Y-108889380D02*
X176904095Y-108889380D01*
X177189809Y-108889380D02*
X177189809Y-107889380D01*
X177094571Y-108032238D01*
X176999333Y-108127476D01*
X176904095Y-108175095D01*
X150285904Y-97991380D02*
X150285904Y-98800904D01*
X150333523Y-98896142D01*
X150381142Y-98943761D01*
X150476380Y-98991380D01*
X150666857Y-98991380D01*
X150762095Y-98943761D01*
X150809714Y-98896142D01*
X150857333Y-98800904D01*
X150857333Y-97991380D01*
X151857333Y-98991380D02*
X151285904Y-98991380D01*
X151571619Y-98991380D02*
X151571619Y-97991380D01*
X151476380Y-98134238D01*
X151381142Y-98229476D01*
X151285904Y-98277095D01*
X152714476Y-98324714D02*
X152714476Y-98991380D01*
X152476380Y-97943761D02*
X152238285Y-98658047D01*
X152857333Y-98658047D01*
X145840809Y-65749190D02*
X145840809Y-66225380D01*
X145507476Y-65225380D02*
X145840809Y-65749190D01*
X146174142Y-65225380D01*
X146459857Y-65320619D02*
X146507476Y-65273000D01*
X146602714Y-65225380D01*
X146840809Y-65225380D01*
X146936047Y-65273000D01*
X146983666Y-65320619D01*
X147031285Y-65415857D01*
X147031285Y-65511095D01*
X146983666Y-65653952D01*
X146412238Y-66225380D01*
X147031285Y-66225380D01*
X113352666Y-71543571D02*
X113019333Y-71543571D01*
X113019333Y-72067380D02*
X113019333Y-71067380D01*
X113495523Y-71067380D01*
X114209809Y-71543571D02*
X114352666Y-71591190D01*
X114400285Y-71638809D01*
X114447904Y-71734047D01*
X114447904Y-71876904D01*
X114400285Y-71972142D01*
X114352666Y-72019761D01*
X114257428Y-72067380D01*
X113876476Y-72067380D01*
X113876476Y-71067380D01*
X114209809Y-71067380D01*
X114305047Y-71115000D01*
X114352666Y-71162619D01*
X114400285Y-71257857D01*
X114400285Y-71353095D01*
X114352666Y-71448333D01*
X114305047Y-71495952D01*
X114209809Y-71543571D01*
X113876476Y-71543571D01*
X115400285Y-72067380D02*
X114828857Y-72067380D01*
X115114571Y-72067380D02*
X115114571Y-71067380D01*
X115019333Y-71210238D01*
X114924095Y-71305476D01*
X114828857Y-71353095D01*
X163279523Y-108897380D02*
X162946190Y-108421190D01*
X162708095Y-108897380D02*
X162708095Y-107897380D01*
X163089047Y-107897380D01*
X163184285Y-107945000D01*
X163231904Y-107992619D01*
X163279523Y-108087857D01*
X163279523Y-108230714D01*
X163231904Y-108325952D01*
X163184285Y-108373571D01*
X163089047Y-108421190D01*
X162708095Y-108421190D01*
X163708095Y-108897380D02*
X163708095Y-107897380D01*
X164279523Y-108897380D01*
X164279523Y-107897380D01*
X165231904Y-107897380D02*
X164755714Y-107897380D01*
X164708095Y-108373571D01*
X164755714Y-108325952D01*
X164850952Y-108278333D01*
X165089047Y-108278333D01*
X165184285Y-108325952D01*
X165231904Y-108373571D01*
X165279523Y-108468809D01*
X165279523Y-108706904D01*
X165231904Y-108802142D01*
X165184285Y-108849761D01*
X165089047Y-108897380D01*
X164850952Y-108897380D01*
X164755714Y-108849761D01*
X164708095Y-108802142D01*
X132593142Y-77814142D02*
X132545523Y-77861761D01*
X132402666Y-77909380D01*
X132307428Y-77909380D01*
X132164571Y-77861761D01*
X132069333Y-77766523D01*
X132021714Y-77671285D01*
X131974095Y-77480809D01*
X131974095Y-77337952D01*
X132021714Y-77147476D01*
X132069333Y-77052238D01*
X132164571Y-76957000D01*
X132307428Y-76909380D01*
X132402666Y-76909380D01*
X132545523Y-76957000D01*
X132593142Y-77004619D01*
X132926476Y-76909380D02*
X133545523Y-76909380D01*
X133212190Y-77290333D01*
X133355047Y-77290333D01*
X133450285Y-77337952D01*
X133497904Y-77385571D01*
X133545523Y-77480809D01*
X133545523Y-77718904D01*
X133497904Y-77814142D01*
X133450285Y-77861761D01*
X133355047Y-77909380D01*
X133069333Y-77909380D01*
X132974095Y-77861761D01*
X132926476Y-77814142D01*
X133878857Y-76909380D02*
X134545523Y-76909380D01*
X134116952Y-77909380D01*
X168968809Y-96737190D02*
X168968809Y-97213380D01*
X168635476Y-96213380D02*
X168968809Y-96737190D01*
X169302142Y-96213380D01*
X170159285Y-97213380D02*
X169587857Y-97213380D01*
X169873571Y-97213380D02*
X169873571Y-96213380D01*
X169778333Y-96356238D01*
X169683095Y-96451476D01*
X169587857Y-96499095D01*
X126194095Y-92242380D02*
X126194095Y-93051904D01*
X126241714Y-93147142D01*
X126289333Y-93194761D01*
X126384571Y-93242380D01*
X126575047Y-93242380D01*
X126670285Y-93194761D01*
X126717904Y-93147142D01*
X126765523Y-93051904D01*
X126765523Y-92242380D01*
X127670285Y-92242380D02*
X127479809Y-92242380D01*
X127384571Y-92290000D01*
X127336952Y-92337619D01*
X127241714Y-92480476D01*
X127194095Y-92670952D01*
X127194095Y-93051904D01*
X127241714Y-93147142D01*
X127289333Y-93194761D01*
X127384571Y-93242380D01*
X127575047Y-93242380D01*
X127670285Y-93194761D01*
X127717904Y-93147142D01*
X127765523Y-93051904D01*
X127765523Y-92813809D01*
X127717904Y-92718571D01*
X127670285Y-92670952D01*
X127575047Y-92623333D01*
X127384571Y-92623333D01*
X127289333Y-92670952D01*
X127241714Y-92718571D01*
X127194095Y-92813809D01*
X136100095Y-92242380D02*
X136100095Y-93051904D01*
X136147714Y-93147142D01*
X136195333Y-93194761D01*
X136290571Y-93242380D01*
X136481047Y-93242380D01*
X136576285Y-93194761D01*
X136623904Y-93147142D01*
X136671523Y-93051904D01*
X136671523Y-92242380D01*
X137290571Y-92670952D02*
X137195333Y-92623333D01*
X137147714Y-92575714D01*
X137100095Y-92480476D01*
X137100095Y-92432857D01*
X137147714Y-92337619D01*
X137195333Y-92290000D01*
X137290571Y-92242380D01*
X137481047Y-92242380D01*
X137576285Y-92290000D01*
X137623904Y-92337619D01*
X137671523Y-92432857D01*
X137671523Y-92480476D01*
X137623904Y-92575714D01*
X137576285Y-92623333D01*
X137481047Y-92670952D01*
X137290571Y-92670952D01*
X137195333Y-92718571D01*
X137147714Y-92766190D01*
X137100095Y-92861428D01*
X137100095Y-93051904D01*
X137147714Y-93147142D01*
X137195333Y-93194761D01*
X137290571Y-93242380D01*
X137481047Y-93242380D01*
X137576285Y-93194761D01*
X137623904Y-93147142D01*
X137671523Y-93051904D01*
X137671523Y-92861428D01*
X137623904Y-92766190D01*
X137576285Y-92718571D01*
X137481047Y-92670952D01*
X105002333Y-84513380D02*
X104669000Y-84037190D01*
X104430904Y-84513380D02*
X104430904Y-83513380D01*
X104811857Y-83513380D01*
X104907095Y-83561000D01*
X104954714Y-83608619D01*
X105002333Y-83703857D01*
X105002333Y-83846714D01*
X104954714Y-83941952D01*
X104907095Y-83989571D01*
X104811857Y-84037190D01*
X104430904Y-84037190D01*
X105335666Y-83513380D02*
X105954714Y-83513380D01*
X105621380Y-83894333D01*
X105764238Y-83894333D01*
X105859476Y-83941952D01*
X105907095Y-83989571D01*
X105954714Y-84084809D01*
X105954714Y-84322904D01*
X105907095Y-84418142D01*
X105859476Y-84465761D01*
X105764238Y-84513380D01*
X105478523Y-84513380D01*
X105383285Y-84465761D01*
X105335666Y-84418142D01*
X142356142Y-80893857D02*
X142403761Y-80941476D01*
X142451380Y-81084333D01*
X142451380Y-81179571D01*
X142403761Y-81322428D01*
X142308523Y-81417666D01*
X142213285Y-81465285D01*
X142022809Y-81512904D01*
X141879952Y-81512904D01*
X141689476Y-81465285D01*
X141594238Y-81417666D01*
X141499000Y-81322428D01*
X141451380Y-81179571D01*
X141451380Y-81084333D01*
X141499000Y-80941476D01*
X141546619Y-80893857D01*
X141451380Y-80560523D02*
X141451380Y-79941476D01*
X141832333Y-80274809D01*
X141832333Y-80131952D01*
X141879952Y-80036714D01*
X141927571Y-79989095D01*
X142022809Y-79941476D01*
X142260904Y-79941476D01*
X142356142Y-79989095D01*
X142403761Y-80036714D01*
X142451380Y-80131952D01*
X142451380Y-80417666D01*
X142403761Y-80512904D01*
X142356142Y-80560523D01*
X141451380Y-79322428D02*
X141451380Y-79227190D01*
X141499000Y-79131952D01*
X141546619Y-79084333D01*
X141641857Y-79036714D01*
X141832333Y-78989095D01*
X142070428Y-78989095D01*
X142260904Y-79036714D01*
X142356142Y-79084333D01*
X142403761Y-79131952D01*
X142451380Y-79227190D01*
X142451380Y-79322428D01*
X142403761Y-79417666D01*
X142356142Y-79465285D01*
X142260904Y-79512904D01*
X142070428Y-79560523D01*
X141832333Y-79560523D01*
X141641857Y-79512904D01*
X141546619Y-79465285D01*
X141499000Y-79417666D01*
X141451380Y-79322428D01*
X110787333Y-93181142D02*
X110739714Y-93228761D01*
X110596857Y-93276380D01*
X110501619Y-93276380D01*
X110358761Y-93228761D01*
X110263523Y-93133523D01*
X110215904Y-93038285D01*
X110168285Y-92847809D01*
X110168285Y-92704952D01*
X110215904Y-92514476D01*
X110263523Y-92419238D01*
X110358761Y-92324000D01*
X110501619Y-92276380D01*
X110596857Y-92276380D01*
X110739714Y-92324000D01*
X110787333Y-92371619D01*
X111168285Y-92371619D02*
X111215904Y-92324000D01*
X111311142Y-92276380D01*
X111549238Y-92276380D01*
X111644476Y-92324000D01*
X111692095Y-92371619D01*
X111739714Y-92466857D01*
X111739714Y-92562095D01*
X111692095Y-92704952D01*
X111120666Y-93276380D01*
X111739714Y-93276380D01*
X126448095Y-84656380D02*
X126448095Y-85465904D01*
X126495714Y-85561142D01*
X126543333Y-85608761D01*
X126638571Y-85656380D01*
X126829047Y-85656380D01*
X126924285Y-85608761D01*
X126971904Y-85561142D01*
X127019523Y-85465904D01*
X127019523Y-84656380D01*
X127971904Y-84656380D02*
X127495714Y-84656380D01*
X127448095Y-85132571D01*
X127495714Y-85084952D01*
X127590952Y-85037333D01*
X127829047Y-85037333D01*
X127924285Y-85084952D01*
X127971904Y-85132571D01*
X128019523Y-85227809D01*
X128019523Y-85465904D01*
X127971904Y-85561142D01*
X127924285Y-85608761D01*
X127829047Y-85656380D01*
X127590952Y-85656380D01*
X127495714Y-85608761D01*
X127448095Y-85561142D01*
X132593142Y-74004142D02*
X132545523Y-74051761D01*
X132402666Y-74099380D01*
X132307428Y-74099380D01*
X132164571Y-74051761D01*
X132069333Y-73956523D01*
X132021714Y-73861285D01*
X131974095Y-73670809D01*
X131974095Y-73527952D01*
X132021714Y-73337476D01*
X132069333Y-73242238D01*
X132164571Y-73147000D01*
X132307428Y-73099380D01*
X132402666Y-73099380D01*
X132545523Y-73147000D01*
X132593142Y-73194619D01*
X132974095Y-73194619D02*
X133021714Y-73147000D01*
X133116952Y-73099380D01*
X133355047Y-73099380D01*
X133450285Y-73147000D01*
X133497904Y-73194619D01*
X133545523Y-73289857D01*
X133545523Y-73385095D01*
X133497904Y-73527952D01*
X132926476Y-74099380D01*
X133545523Y-74099380D01*
X134021714Y-74099380D02*
X134212190Y-74099380D01*
X134307428Y-74051761D01*
X134355047Y-74004142D01*
X134450285Y-73861285D01*
X134497904Y-73670809D01*
X134497904Y-73289857D01*
X134450285Y-73194619D01*
X134402666Y-73147000D01*
X134307428Y-73099380D01*
X134116952Y-73099380D01*
X134021714Y-73147000D01*
X133974095Y-73194619D01*
X133926476Y-73289857D01*
X133926476Y-73527952D01*
X133974095Y-73623190D01*
X134021714Y-73670809D01*
X134116952Y-73718428D01*
X134307428Y-73718428D01*
X134402666Y-73670809D01*
X134450285Y-73623190D01*
X134497904Y-73527952D01*
X126338380Y-102856904D02*
X127147904Y-102856904D01*
X127243142Y-102809285D01*
X127290761Y-102761666D01*
X127338380Y-102666428D01*
X127338380Y-102475952D01*
X127290761Y-102380714D01*
X127243142Y-102333095D01*
X127147904Y-102285476D01*
X126338380Y-102285476D01*
X127338380Y-101761666D02*
X127338380Y-101571190D01*
X127290761Y-101475952D01*
X127243142Y-101428333D01*
X127100285Y-101333095D01*
X126909809Y-101285476D01*
X126528857Y-101285476D01*
X126433619Y-101333095D01*
X126386000Y-101380714D01*
X126338380Y-101475952D01*
X126338380Y-101666428D01*
X126386000Y-101761666D01*
X126433619Y-101809285D01*
X126528857Y-101856904D01*
X126766952Y-101856904D01*
X126862190Y-101809285D01*
X126909809Y-101761666D01*
X126957428Y-101666428D01*
X126957428Y-101475952D01*
X126909809Y-101380714D01*
X126862190Y-101333095D01*
X126766952Y-101285476D01*
X147452142Y-85529380D02*
X147118809Y-85053190D01*
X146880714Y-85529380D02*
X146880714Y-84529380D01*
X147261666Y-84529380D01*
X147356904Y-84577000D01*
X147404523Y-84624619D01*
X147452142Y-84719857D01*
X147452142Y-84862714D01*
X147404523Y-84957952D01*
X147356904Y-85005571D01*
X147261666Y-85053190D01*
X146880714Y-85053190D01*
X148404523Y-85529380D02*
X147833095Y-85529380D01*
X148118809Y-85529380D02*
X148118809Y-84529380D01*
X148023571Y-84672238D01*
X147928333Y-84767476D01*
X147833095Y-84815095D01*
X148975952Y-84957952D02*
X148880714Y-84910333D01*
X148833095Y-84862714D01*
X148785476Y-84767476D01*
X148785476Y-84719857D01*
X148833095Y-84624619D01*
X148880714Y-84577000D01*
X148975952Y-84529380D01*
X149166428Y-84529380D01*
X149261666Y-84577000D01*
X149309285Y-84624619D01*
X149356904Y-84719857D01*
X149356904Y-84767476D01*
X149309285Y-84862714D01*
X149261666Y-84910333D01*
X149166428Y-84957952D01*
X148975952Y-84957952D01*
X148880714Y-85005571D01*
X148833095Y-85053190D01*
X148785476Y-85148428D01*
X148785476Y-85338904D01*
X148833095Y-85434142D01*
X148880714Y-85481761D01*
X148975952Y-85529380D01*
X149166428Y-85529380D01*
X149261666Y-85481761D01*
X149309285Y-85434142D01*
X149356904Y-85338904D01*
X149356904Y-85148428D01*
X149309285Y-85053190D01*
X149261666Y-85005571D01*
X149166428Y-84957952D01*
X172074142Y-98546857D02*
X172121761Y-98594476D01*
X172169380Y-98737333D01*
X172169380Y-98832571D01*
X172121761Y-98975428D01*
X172026523Y-99070666D01*
X171931285Y-99118285D01*
X171740809Y-99165904D01*
X171597952Y-99165904D01*
X171407476Y-99118285D01*
X171312238Y-99070666D01*
X171217000Y-98975428D01*
X171169380Y-98832571D01*
X171169380Y-98737333D01*
X171217000Y-98594476D01*
X171264619Y-98546857D01*
X172169380Y-97594476D02*
X172169380Y-98165904D01*
X172169380Y-97880190D02*
X171169380Y-97880190D01*
X171312238Y-97975428D01*
X171407476Y-98070666D01*
X171455095Y-98165904D01*
X171264619Y-97213523D02*
X171217000Y-97165904D01*
X171169380Y-97070666D01*
X171169380Y-96832571D01*
X171217000Y-96737333D01*
X171264619Y-96689714D01*
X171359857Y-96642095D01*
X171455095Y-96642095D01*
X171597952Y-96689714D01*
X172169380Y-97261142D01*
X172169380Y-96642095D01*
X199494880Y-68138333D02*
X200209166Y-68138333D01*
X200352023Y-68185952D01*
X200447261Y-68281190D01*
X200494880Y-68424047D01*
X200494880Y-68519285D01*
X199828214Y-67233571D02*
X200494880Y-67233571D01*
X199447261Y-67471666D02*
X200161547Y-67709761D01*
X200161547Y-67090714D01*
X116503904Y-80465380D02*
X116503904Y-81274904D01*
X116551523Y-81370142D01*
X116599142Y-81417761D01*
X116694380Y-81465380D01*
X116884857Y-81465380D01*
X116980095Y-81417761D01*
X117027714Y-81370142D01*
X117075333Y-81274904D01*
X117075333Y-80465380D01*
X118075333Y-81465380D02*
X117503904Y-81465380D01*
X117789619Y-81465380D02*
X117789619Y-80465380D01*
X117694380Y-80608238D01*
X117599142Y-80703476D01*
X117503904Y-80751095D01*
X119027714Y-81465380D02*
X118456285Y-81465380D01*
X118742000Y-81465380D02*
X118742000Y-80465380D01*
X118646761Y-80608238D01*
X118551523Y-80703476D01*
X118456285Y-80751095D01*
X170899523Y-108897380D02*
X170566190Y-108421190D01*
X170328095Y-108897380D02*
X170328095Y-107897380D01*
X170709047Y-107897380D01*
X170804285Y-107945000D01*
X170851904Y-107992619D01*
X170899523Y-108087857D01*
X170899523Y-108230714D01*
X170851904Y-108325952D01*
X170804285Y-108373571D01*
X170709047Y-108421190D01*
X170328095Y-108421190D01*
X171328095Y-108897380D02*
X171328095Y-107897380D01*
X171899523Y-108897380D01*
X171899523Y-107897380D01*
X172804285Y-108230714D02*
X172804285Y-108897380D01*
X172566190Y-107849761D02*
X172328095Y-108564047D01*
X172947142Y-108564047D01*
X130091333Y-93181142D02*
X130043714Y-93228761D01*
X129900857Y-93276380D01*
X129805619Y-93276380D01*
X129662761Y-93228761D01*
X129567523Y-93133523D01*
X129519904Y-93038285D01*
X129472285Y-92847809D01*
X129472285Y-92704952D01*
X129519904Y-92514476D01*
X129567523Y-92419238D01*
X129662761Y-92324000D01*
X129805619Y-92276380D01*
X129900857Y-92276380D01*
X130043714Y-92324000D01*
X130091333Y-92371619D01*
X130948476Y-92276380D02*
X130758000Y-92276380D01*
X130662761Y-92324000D01*
X130615142Y-92371619D01*
X130519904Y-92514476D01*
X130472285Y-92704952D01*
X130472285Y-93085904D01*
X130519904Y-93181142D01*
X130567523Y-93228761D01*
X130662761Y-93276380D01*
X130853238Y-93276380D01*
X130948476Y-93228761D01*
X130996095Y-93181142D01*
X131043714Y-93085904D01*
X131043714Y-92847809D01*
X130996095Y-92752571D01*
X130948476Y-92704952D01*
X130853238Y-92657333D01*
X130662761Y-92657333D01*
X130567523Y-92704952D01*
X130519904Y-92752571D01*
X130472285Y-92847809D01*
X149849142Y-90291857D02*
X149896761Y-90339476D01*
X149944380Y-90482333D01*
X149944380Y-90577571D01*
X149896761Y-90720428D01*
X149801523Y-90815666D01*
X149706285Y-90863285D01*
X149515809Y-90910904D01*
X149372952Y-90910904D01*
X149182476Y-90863285D01*
X149087238Y-90815666D01*
X148992000Y-90720428D01*
X148944380Y-90577571D01*
X148944380Y-90482333D01*
X148992000Y-90339476D01*
X149039619Y-90291857D01*
X149944380Y-89339476D02*
X149944380Y-89910904D01*
X149944380Y-89625190D02*
X148944380Y-89625190D01*
X149087238Y-89720428D01*
X149182476Y-89815666D01*
X149230095Y-89910904D01*
X148944380Y-89006142D02*
X148944380Y-88339476D01*
X149944380Y-88768047D01*
X165867142Y-89244142D02*
X165819523Y-89291761D01*
X165676666Y-89339380D01*
X165581428Y-89339380D01*
X165438571Y-89291761D01*
X165343333Y-89196523D01*
X165295714Y-89101285D01*
X165248095Y-88910809D01*
X165248095Y-88767952D01*
X165295714Y-88577476D01*
X165343333Y-88482238D01*
X165438571Y-88387000D01*
X165581428Y-88339380D01*
X165676666Y-88339380D01*
X165819523Y-88387000D01*
X165867142Y-88434619D01*
X166248095Y-88434619D02*
X166295714Y-88387000D01*
X166390952Y-88339380D01*
X166629047Y-88339380D01*
X166724285Y-88387000D01*
X166771904Y-88434619D01*
X166819523Y-88529857D01*
X166819523Y-88625095D01*
X166771904Y-88767952D01*
X166200476Y-89339380D01*
X166819523Y-89339380D01*
X167152857Y-88339380D02*
X167771904Y-88339380D01*
X167438571Y-88720333D01*
X167581428Y-88720333D01*
X167676666Y-88767952D01*
X167724285Y-88815571D01*
X167771904Y-88910809D01*
X167771904Y-89148904D01*
X167724285Y-89244142D01*
X167676666Y-89291761D01*
X167581428Y-89339380D01*
X167295714Y-89339380D01*
X167200476Y-89291761D01*
X167152857Y-89244142D01*
X126790761Y-77496619D02*
X126695523Y-77449000D01*
X126600285Y-77353761D01*
X126457428Y-77210904D01*
X126362190Y-77163285D01*
X126266952Y-77163285D01*
X126314571Y-77401380D02*
X126219333Y-77353761D01*
X126124095Y-77258523D01*
X126076476Y-77068047D01*
X126076476Y-76734714D01*
X126124095Y-76544238D01*
X126219333Y-76449000D01*
X126314571Y-76401380D01*
X126505047Y-76401380D01*
X126600285Y-76449000D01*
X126695523Y-76544238D01*
X126743142Y-76734714D01*
X126743142Y-77068047D01*
X126695523Y-77258523D01*
X126600285Y-77353761D01*
X126505047Y-77401380D01*
X126314571Y-77401380D01*
X127695523Y-77401380D02*
X127124095Y-77401380D01*
X127409809Y-77401380D02*
X127409809Y-76401380D01*
X127314571Y-76544238D01*
X127219333Y-76639476D01*
X127124095Y-76687095D01*
X124545980Y-74543857D02*
X124069790Y-74877190D01*
X124545980Y-75115285D02*
X123545980Y-75115285D01*
X123545980Y-74734333D01*
X123593600Y-74639095D01*
X123641219Y-74591476D01*
X123736457Y-74543857D01*
X123879314Y-74543857D01*
X123974552Y-74591476D01*
X124022171Y-74639095D01*
X124069790Y-74734333D01*
X124069790Y-75115285D01*
X123641219Y-74162904D02*
X123593600Y-74115285D01*
X123545980Y-74020047D01*
X123545980Y-73781952D01*
X123593600Y-73686714D01*
X123641219Y-73639095D01*
X123736457Y-73591476D01*
X123831695Y-73591476D01*
X123974552Y-73639095D01*
X124545980Y-74210523D01*
X124545980Y-73591476D01*
X123545980Y-72972428D02*
X123545980Y-72877190D01*
X123593600Y-72781952D01*
X123641219Y-72734333D01*
X123736457Y-72686714D01*
X123926933Y-72639095D01*
X124165028Y-72639095D01*
X124355504Y-72686714D01*
X124450742Y-72734333D01*
X124498361Y-72781952D01*
X124545980Y-72877190D01*
X124545980Y-72972428D01*
X124498361Y-73067666D01*
X124450742Y-73115285D01*
X124355504Y-73162904D01*
X124165028Y-73210523D01*
X123926933Y-73210523D01*
X123736457Y-73162904D01*
X123641219Y-73115285D01*
X123593600Y-73067666D01*
X123545980Y-72972428D01*
X155272738Y-86307380D02*
X155844166Y-86307380D01*
X155558452Y-87307380D02*
X155558452Y-86307380D01*
X156177500Y-87307380D02*
X156177500Y-86307380D01*
X156558452Y-86307380D01*
X156653690Y-86355000D01*
X156701309Y-86402619D01*
X156748928Y-86497857D01*
X156748928Y-86640714D01*
X156701309Y-86735952D01*
X156653690Y-86783571D01*
X156558452Y-86831190D01*
X156177500Y-86831190D01*
X157082261Y-86307380D02*
X157701309Y-86307380D01*
X157367976Y-86688333D01*
X157510833Y-86688333D01*
X157606071Y-86735952D01*
X157653690Y-86783571D01*
X157701309Y-86878809D01*
X157701309Y-87116904D01*
X157653690Y-87212142D01*
X157606071Y-87259761D01*
X157510833Y-87307380D01*
X157225119Y-87307380D01*
X157129880Y-87259761D01*
X157082261Y-87212142D01*
X169786380Y-90355333D02*
X170500666Y-90355333D01*
X170643523Y-90402952D01*
X170738761Y-90498190D01*
X170786380Y-90641047D01*
X170786380Y-90736285D01*
X170786380Y-89879142D02*
X169786380Y-89879142D01*
X169786380Y-89498190D01*
X169834000Y-89402952D01*
X169881619Y-89355333D01*
X169976857Y-89307714D01*
X170119714Y-89307714D01*
X170214952Y-89355333D01*
X170262571Y-89402952D01*
X170310190Y-89498190D01*
X170310190Y-89879142D01*
X170786380Y-88355333D02*
X170786380Y-88926761D01*
X170786380Y-88641047D02*
X169786380Y-88641047D01*
X169929238Y-88736285D01*
X170024476Y-88831523D01*
X170072095Y-88926761D01*
X152659142Y-75877380D02*
X152325809Y-75401190D01*
X152087714Y-75877380D02*
X152087714Y-74877380D01*
X152468666Y-74877380D01*
X152563904Y-74925000D01*
X152611523Y-74972619D01*
X152659142Y-75067857D01*
X152659142Y-75210714D01*
X152611523Y-75305952D01*
X152563904Y-75353571D01*
X152468666Y-75401190D01*
X152087714Y-75401190D01*
X153611523Y-75877380D02*
X153040095Y-75877380D01*
X153325809Y-75877380D02*
X153325809Y-74877380D01*
X153230571Y-75020238D01*
X153135333Y-75115476D01*
X153040095Y-75163095D01*
X153944857Y-74877380D02*
X154611523Y-74877380D01*
X154182952Y-75877380D01*
X167836904Y-62431380D02*
X167836904Y-63240904D01*
X167884523Y-63336142D01*
X167932142Y-63383761D01*
X168027380Y-63431380D01*
X168217857Y-63431380D01*
X168313095Y-63383761D01*
X168360714Y-63336142D01*
X168408333Y-63240904D01*
X168408333Y-62431380D01*
X169408333Y-63431380D02*
X168836904Y-63431380D01*
X169122619Y-63431380D02*
X169122619Y-62431380D01*
X169027380Y-62574238D01*
X168932142Y-62669476D01*
X168836904Y-62717095D01*
X170265476Y-62431380D02*
X170075000Y-62431380D01*
X169979761Y-62479000D01*
X169932142Y-62526619D01*
X169836904Y-62669476D01*
X169789285Y-62859952D01*
X169789285Y-63240904D01*
X169836904Y-63336142D01*
X169884523Y-63383761D01*
X169979761Y-63431380D01*
X170170238Y-63431380D01*
X170265476Y-63383761D01*
X170313095Y-63336142D01*
X170360714Y-63240904D01*
X170360714Y-63002809D01*
X170313095Y-62907571D01*
X170265476Y-62859952D01*
X170170238Y-62812333D01*
X169979761Y-62812333D01*
X169884523Y-62859952D01*
X169836904Y-62907571D01*
X169789285Y-63002809D01*
X164288095Y-57041666D02*
X164764285Y-57041666D01*
X164192857Y-57327380D02*
X164526190Y-56327380D01*
X164859523Y-57327380D01*
X165192857Y-56660714D02*
X165192857Y-57327380D01*
X165192857Y-56755952D02*
X165240476Y-56708333D01*
X165335714Y-56660714D01*
X165478571Y-56660714D01*
X165573809Y-56708333D01*
X165621428Y-56803571D01*
X165621428Y-57327380D01*
X165954761Y-56660714D02*
X166335714Y-56660714D01*
X166097619Y-56327380D02*
X166097619Y-57184523D01*
X166145238Y-57279761D01*
X166240476Y-57327380D01*
X166335714Y-57327380D01*
X167050000Y-57279761D02*
X166954761Y-57327380D01*
X166764285Y-57327380D01*
X166669047Y-57279761D01*
X166621428Y-57184523D01*
X166621428Y-56803571D01*
X166669047Y-56708333D01*
X166764285Y-56660714D01*
X166954761Y-56660714D01*
X167050000Y-56708333D01*
X167097619Y-56803571D01*
X167097619Y-56898809D01*
X166621428Y-56994047D01*
X167526190Y-56660714D02*
X167526190Y-57327380D01*
X167526190Y-56755952D02*
X167573809Y-56708333D01*
X167669047Y-56660714D01*
X167811904Y-56660714D01*
X167907142Y-56708333D01*
X167954761Y-56803571D01*
X167954761Y-57327380D01*
X168430952Y-56660714D02*
X168430952Y-57327380D01*
X168430952Y-56755952D02*
X168478571Y-56708333D01*
X168573809Y-56660714D01*
X168716666Y-56660714D01*
X168811904Y-56708333D01*
X168859523Y-56803571D01*
X168859523Y-57327380D01*
X169764285Y-57327380D02*
X169764285Y-56803571D01*
X169716666Y-56708333D01*
X169621428Y-56660714D01*
X169430952Y-56660714D01*
X169335714Y-56708333D01*
X169764285Y-57279761D02*
X169669047Y-57327380D01*
X169430952Y-57327380D01*
X169335714Y-57279761D01*
X169288095Y-57184523D01*
X169288095Y-57089285D01*
X169335714Y-56994047D01*
X169430952Y-56946428D01*
X169669047Y-56946428D01*
X169764285Y-56898809D01*
X170954761Y-57041666D02*
X171430952Y-57041666D01*
X170859523Y-57327380D02*
X171192857Y-56327380D01*
X171526190Y-57327380D01*
X171859523Y-57327380D02*
X171859523Y-56660714D01*
X171859523Y-56851190D02*
X171907142Y-56755952D01*
X171954761Y-56708333D01*
X172050000Y-56660714D01*
X172145238Y-56660714D01*
X172859523Y-57279761D02*
X172764285Y-57327380D01*
X172573809Y-57327380D01*
X172478571Y-57279761D01*
X172430952Y-57184523D01*
X172430952Y-56803571D01*
X172478571Y-56708333D01*
X172573809Y-56660714D01*
X172764285Y-56660714D01*
X172859523Y-56708333D01*
X172907142Y-56803571D01*
X172907142Y-56898809D01*
X172430952Y-56994047D01*
X173764285Y-57327380D02*
X173764285Y-56803571D01*
X173716666Y-56708333D01*
X173621428Y-56660714D01*
X173430952Y-56660714D01*
X173335714Y-56708333D01*
X173764285Y-57279761D02*
X173669047Y-57327380D01*
X173430952Y-57327380D01*
X173335714Y-57279761D01*
X173288095Y-57184523D01*
X173288095Y-57089285D01*
X173335714Y-56994047D01*
X173430952Y-56946428D01*
X173669047Y-56946428D01*
X173764285Y-56898809D01*
X135620380Y-106833666D02*
X135144190Y-107167000D01*
X135620380Y-107405095D02*
X134620380Y-107405095D01*
X134620380Y-107024142D01*
X134668000Y-106928904D01*
X134715619Y-106881285D01*
X134810857Y-106833666D01*
X134953714Y-106833666D01*
X135048952Y-106881285D01*
X135096571Y-106928904D01*
X135144190Y-107024142D01*
X135144190Y-107405095D01*
X134953714Y-105976523D02*
X135620380Y-105976523D01*
X134572761Y-106214619D02*
X135287047Y-106452714D01*
X135287047Y-105833666D01*
X155200142Y-102102857D02*
X155247761Y-102150476D01*
X155295380Y-102293333D01*
X155295380Y-102388571D01*
X155247761Y-102531428D01*
X155152523Y-102626666D01*
X155057285Y-102674285D01*
X154866809Y-102721904D01*
X154723952Y-102721904D01*
X154533476Y-102674285D01*
X154438238Y-102626666D01*
X154343000Y-102531428D01*
X154295380Y-102388571D01*
X154295380Y-102293333D01*
X154343000Y-102150476D01*
X154390619Y-102102857D01*
X155295380Y-101150476D02*
X155295380Y-101721904D01*
X155295380Y-101436190D02*
X154295380Y-101436190D01*
X154438238Y-101531428D01*
X154533476Y-101626666D01*
X154581095Y-101721904D01*
X155295380Y-100674285D02*
X155295380Y-100483809D01*
X155247761Y-100388571D01*
X155200142Y-100340952D01*
X155057285Y-100245714D01*
X154866809Y-100198095D01*
X154485857Y-100198095D01*
X154390619Y-100245714D01*
X154343000Y-100293333D01*
X154295380Y-100388571D01*
X154295380Y-100579047D01*
X154343000Y-100674285D01*
X154390619Y-100721904D01*
X154485857Y-100769523D01*
X154723952Y-100769523D01*
X154819190Y-100721904D01*
X154866809Y-100674285D01*
X154914428Y-100579047D01*
X154914428Y-100388571D01*
X154866809Y-100293333D01*
X154819190Y-100245714D01*
X154723952Y-100198095D01*
X110787333Y-85561142D02*
X110739714Y-85608761D01*
X110596857Y-85656380D01*
X110501619Y-85656380D01*
X110358761Y-85608761D01*
X110263523Y-85513523D01*
X110215904Y-85418285D01*
X110168285Y-85227809D01*
X110168285Y-85084952D01*
X110215904Y-84894476D01*
X110263523Y-84799238D01*
X110358761Y-84704000D01*
X110501619Y-84656380D01*
X110596857Y-84656380D01*
X110739714Y-84704000D01*
X110787333Y-84751619D01*
X111739714Y-85656380D02*
X111168285Y-85656380D01*
X111454000Y-85656380D02*
X111454000Y-84656380D01*
X111358761Y-84799238D01*
X111263523Y-84894476D01*
X111168285Y-84942095D01*
X130091333Y-85561142D02*
X130043714Y-85608761D01*
X129900857Y-85656380D01*
X129805619Y-85656380D01*
X129662761Y-85608761D01*
X129567523Y-85513523D01*
X129519904Y-85418285D01*
X129472285Y-85227809D01*
X129472285Y-85084952D01*
X129519904Y-84894476D01*
X129567523Y-84799238D01*
X129662761Y-84704000D01*
X129805619Y-84656380D01*
X129900857Y-84656380D01*
X130043714Y-84704000D01*
X130091333Y-84751619D01*
X130996095Y-84656380D02*
X130519904Y-84656380D01*
X130472285Y-85132571D01*
X130519904Y-85084952D01*
X130615142Y-85037333D01*
X130853238Y-85037333D01*
X130948476Y-85084952D01*
X130996095Y-85132571D01*
X131043714Y-85227809D01*
X131043714Y-85465904D01*
X130996095Y-85561142D01*
X130948476Y-85608761D01*
X130853238Y-85656380D01*
X130615142Y-85656380D01*
X130519904Y-85608761D01*
X130472285Y-85561142D01*
X125481142Y-79846142D02*
X125433523Y-79893761D01*
X125290666Y-79941380D01*
X125195428Y-79941380D01*
X125052571Y-79893761D01*
X124957333Y-79798523D01*
X124909714Y-79703285D01*
X124862095Y-79512809D01*
X124862095Y-79369952D01*
X124909714Y-79179476D01*
X124957333Y-79084238D01*
X125052571Y-78989000D01*
X125195428Y-78941380D01*
X125290666Y-78941380D01*
X125433523Y-78989000D01*
X125481142Y-79036619D01*
X126433523Y-79941380D02*
X125862095Y-79941380D01*
X126147809Y-79941380D02*
X126147809Y-78941380D01*
X126052571Y-79084238D01*
X125957333Y-79179476D01*
X125862095Y-79227095D01*
X127385904Y-79941380D02*
X126814476Y-79941380D01*
X127100190Y-79941380D02*
X127100190Y-78941380D01*
X127004952Y-79084238D01*
X126909714Y-79179476D01*
X126814476Y-79227095D01*
X152659142Y-74512142D02*
X152611523Y-74559761D01*
X152468666Y-74607380D01*
X152373428Y-74607380D01*
X152230571Y-74559761D01*
X152135333Y-74464523D01*
X152087714Y-74369285D01*
X152040095Y-74178809D01*
X152040095Y-74035952D01*
X152087714Y-73845476D01*
X152135333Y-73750238D01*
X152230571Y-73655000D01*
X152373428Y-73607380D01*
X152468666Y-73607380D01*
X152611523Y-73655000D01*
X152659142Y-73702619D01*
X152992476Y-73607380D02*
X153611523Y-73607380D01*
X153278190Y-73988333D01*
X153421047Y-73988333D01*
X153516285Y-74035952D01*
X153563904Y-74083571D01*
X153611523Y-74178809D01*
X153611523Y-74416904D01*
X153563904Y-74512142D01*
X153516285Y-74559761D01*
X153421047Y-74607380D01*
X153135333Y-74607380D01*
X153040095Y-74559761D01*
X152992476Y-74512142D01*
X153992476Y-73702619D02*
X154040095Y-73655000D01*
X154135333Y-73607380D01*
X154373428Y-73607380D01*
X154468666Y-73655000D01*
X154516285Y-73702619D01*
X154563904Y-73797857D01*
X154563904Y-73893095D01*
X154516285Y-74035952D01*
X153944857Y-74607380D01*
X154563904Y-74607380D01*
X103208380Y-61621666D02*
X102732190Y-61955000D01*
X103208380Y-62193095D02*
X102208380Y-62193095D01*
X102208380Y-61812142D01*
X102256000Y-61716904D01*
X102303619Y-61669285D01*
X102398857Y-61621666D01*
X102541714Y-61621666D01*
X102636952Y-61669285D01*
X102684571Y-61716904D01*
X102732190Y-61812142D01*
X102732190Y-62193095D01*
X102208380Y-60764523D02*
X102208380Y-60955000D01*
X102256000Y-61050238D01*
X102303619Y-61097857D01*
X102446476Y-61193095D01*
X102636952Y-61240714D01*
X103017904Y-61240714D01*
X103113142Y-61193095D01*
X103160761Y-61145476D01*
X103208380Y-61050238D01*
X103208380Y-60859761D01*
X103160761Y-60764523D01*
X103113142Y-60716904D01*
X103017904Y-60669285D01*
X102779809Y-60669285D01*
X102684571Y-60716904D01*
X102636952Y-60764523D01*
X102589333Y-60859761D01*
X102589333Y-61050238D01*
X102636952Y-61145476D01*
X102684571Y-61193095D01*
X102779809Y-61240714D01*
X122179142Y-69781380D02*
X121845809Y-69305190D01*
X121607714Y-69781380D02*
X121607714Y-68781380D01*
X121988666Y-68781380D01*
X122083904Y-68829000D01*
X122131523Y-68876619D01*
X122179142Y-68971857D01*
X122179142Y-69114714D01*
X122131523Y-69209952D01*
X122083904Y-69257571D01*
X121988666Y-69305190D01*
X121607714Y-69305190D01*
X123131523Y-69781380D02*
X122560095Y-69781380D01*
X122845809Y-69781380D02*
X122845809Y-68781380D01*
X122750571Y-68924238D01*
X122655333Y-69019476D01*
X122560095Y-69067095D01*
X124036285Y-68781380D02*
X123560095Y-68781380D01*
X123512476Y-69257571D01*
X123560095Y-69209952D01*
X123655333Y-69162333D01*
X123893428Y-69162333D01*
X123988666Y-69209952D01*
X124036285Y-69257571D01*
X124083904Y-69352809D01*
X124083904Y-69590904D01*
X124036285Y-69686142D01*
X123988666Y-69733761D01*
X123893428Y-69781380D01*
X123655333Y-69781380D01*
X123560095Y-69733761D01*
X123512476Y-69686142D01*
X104819904Y-99896380D02*
X104819904Y-100705904D01*
X104867523Y-100801142D01*
X104915142Y-100848761D01*
X105010380Y-100896380D01*
X105200857Y-100896380D01*
X105296095Y-100848761D01*
X105343714Y-100801142D01*
X105391333Y-100705904D01*
X105391333Y-99896380D01*
X106391333Y-100896380D02*
X105819904Y-100896380D01*
X106105619Y-100896380D02*
X106105619Y-99896380D01*
X106010380Y-100039238D01*
X105915142Y-100134476D01*
X105819904Y-100182095D01*
X106724666Y-99896380D02*
X107343714Y-99896380D01*
X107010380Y-100277333D01*
X107153238Y-100277333D01*
X107248476Y-100324952D01*
X107296095Y-100372571D01*
X107343714Y-100467809D01*
X107343714Y-100705904D01*
X107296095Y-100801142D01*
X107248476Y-100848761D01*
X107153238Y-100896380D01*
X106867523Y-100896380D01*
X106772285Y-100848761D01*
X106724666Y-100801142D01*
X159215523Y-108889380D02*
X158882190Y-108413190D01*
X158644095Y-108889380D02*
X158644095Y-107889380D01*
X159025047Y-107889380D01*
X159120285Y-107937000D01*
X159167904Y-107984619D01*
X159215523Y-108079857D01*
X159215523Y-108222714D01*
X159167904Y-108317952D01*
X159120285Y-108365571D01*
X159025047Y-108413190D01*
X158644095Y-108413190D01*
X159644095Y-108889380D02*
X159644095Y-107889380D01*
X160215523Y-108889380D01*
X160215523Y-107889380D01*
X160644095Y-107984619D02*
X160691714Y-107937000D01*
X160786952Y-107889380D01*
X161025047Y-107889380D01*
X161120285Y-107937000D01*
X161167904Y-107984619D01*
X161215523Y-108079857D01*
X161215523Y-108175095D01*
X161167904Y-108317952D01*
X160596476Y-108889380D01*
X161215523Y-108889380D01*
X148960142Y-62478857D02*
X149007761Y-62526476D01*
X149055380Y-62669333D01*
X149055380Y-62764571D01*
X149007761Y-62907428D01*
X148912523Y-63002666D01*
X148817285Y-63050285D01*
X148626809Y-63097904D01*
X148483952Y-63097904D01*
X148293476Y-63050285D01*
X148198238Y-63002666D01*
X148103000Y-62907428D01*
X148055380Y-62764571D01*
X148055380Y-62669333D01*
X148103000Y-62526476D01*
X148150619Y-62478857D01*
X148150619Y-62097904D02*
X148103000Y-62050285D01*
X148055380Y-61955047D01*
X148055380Y-61716952D01*
X148103000Y-61621714D01*
X148150619Y-61574095D01*
X148245857Y-61526476D01*
X148341095Y-61526476D01*
X148483952Y-61574095D01*
X149055380Y-62145523D01*
X149055380Y-61526476D01*
X148055380Y-60669333D02*
X148055380Y-60859809D01*
X148103000Y-60955047D01*
X148150619Y-61002666D01*
X148293476Y-61097904D01*
X148483952Y-61145523D01*
X148864904Y-61145523D01*
X148960142Y-61097904D01*
X149007761Y-61050285D01*
X149055380Y-60955047D01*
X149055380Y-60764571D01*
X149007761Y-60669333D01*
X148960142Y-60621714D01*
X148864904Y-60574095D01*
X148626809Y-60574095D01*
X148531571Y-60621714D01*
X148483952Y-60669333D01*
X148436333Y-60764571D01*
X148436333Y-60955047D01*
X148483952Y-61050285D01*
X148531571Y-61097904D01*
X148626809Y-61145523D01*
X184774142Y-66542857D02*
X184821761Y-66590476D01*
X184869380Y-66733333D01*
X184869380Y-66828571D01*
X184821761Y-66971428D01*
X184726523Y-67066666D01*
X184631285Y-67114285D01*
X184440809Y-67161904D01*
X184297952Y-67161904D01*
X184107476Y-67114285D01*
X184012238Y-67066666D01*
X183917000Y-66971428D01*
X183869380Y-66828571D01*
X183869380Y-66733333D01*
X183917000Y-66590476D01*
X183964619Y-66542857D01*
X183964619Y-66161904D02*
X183917000Y-66114285D01*
X183869380Y-66019047D01*
X183869380Y-65780952D01*
X183917000Y-65685714D01*
X183964619Y-65638095D01*
X184059857Y-65590476D01*
X184155095Y-65590476D01*
X184297952Y-65638095D01*
X184869380Y-66209523D01*
X184869380Y-65590476D01*
X183869380Y-64685714D02*
X183869380Y-65161904D01*
X184345571Y-65209523D01*
X184297952Y-65161904D01*
X184250333Y-65066666D01*
X184250333Y-64828571D01*
X184297952Y-64733333D01*
X184345571Y-64685714D01*
X184440809Y-64638095D01*
X184678904Y-64638095D01*
X184774142Y-64685714D01*
X184821761Y-64733333D01*
X184869380Y-64828571D01*
X184869380Y-65066666D01*
X184821761Y-65161904D01*
X184774142Y-65209523D01*
X147452142Y-87053380D02*
X147118809Y-86577190D01*
X146880714Y-87053380D02*
X146880714Y-86053380D01*
X147261666Y-86053380D01*
X147356904Y-86101000D01*
X147404523Y-86148619D01*
X147452142Y-86243857D01*
X147452142Y-86386714D01*
X147404523Y-86481952D01*
X147356904Y-86529571D01*
X147261666Y-86577190D01*
X146880714Y-86577190D01*
X148404523Y-87053380D02*
X147833095Y-87053380D01*
X148118809Y-87053380D02*
X148118809Y-86053380D01*
X148023571Y-86196238D01*
X147928333Y-86291476D01*
X147833095Y-86339095D01*
X148785476Y-86148619D02*
X148833095Y-86101000D01*
X148928333Y-86053380D01*
X149166428Y-86053380D01*
X149261666Y-86101000D01*
X149309285Y-86148619D01*
X149356904Y-86243857D01*
X149356904Y-86339095D01*
X149309285Y-86481952D01*
X148737857Y-87053380D01*
X149356904Y-87053380D01*
X109304380Y-61621666D02*
X108828190Y-61955000D01*
X109304380Y-62193095D02*
X108304380Y-62193095D01*
X108304380Y-61812142D01*
X108352000Y-61716904D01*
X108399619Y-61669285D01*
X108494857Y-61621666D01*
X108637714Y-61621666D01*
X108732952Y-61669285D01*
X108780571Y-61716904D01*
X108828190Y-61812142D01*
X108828190Y-62193095D01*
X108399619Y-61240714D02*
X108352000Y-61193095D01*
X108304380Y-61097857D01*
X108304380Y-60859761D01*
X108352000Y-60764523D01*
X108399619Y-60716904D01*
X108494857Y-60669285D01*
X108590095Y-60669285D01*
X108732952Y-60716904D01*
X109304380Y-61288333D01*
X109304380Y-60669285D01*
X165867142Y-90514142D02*
X165819523Y-90561761D01*
X165676666Y-90609380D01*
X165581428Y-90609380D01*
X165438571Y-90561761D01*
X165343333Y-90466523D01*
X165295714Y-90371285D01*
X165248095Y-90180809D01*
X165248095Y-90037952D01*
X165295714Y-89847476D01*
X165343333Y-89752238D01*
X165438571Y-89657000D01*
X165581428Y-89609380D01*
X165676666Y-89609380D01*
X165819523Y-89657000D01*
X165867142Y-89704619D01*
X166248095Y-89704619D02*
X166295714Y-89657000D01*
X166390952Y-89609380D01*
X166629047Y-89609380D01*
X166724285Y-89657000D01*
X166771904Y-89704619D01*
X166819523Y-89799857D01*
X166819523Y-89895095D01*
X166771904Y-90037952D01*
X166200476Y-90609380D01*
X166819523Y-90609380D01*
X167771904Y-90609380D02*
X167200476Y-90609380D01*
X167486190Y-90609380D02*
X167486190Y-89609380D01*
X167390952Y-89752238D01*
X167295714Y-89847476D01*
X167200476Y-89895095D01*
X155151523Y-108889380D02*
X154818190Y-108413190D01*
X154580095Y-108889380D02*
X154580095Y-107889380D01*
X154961047Y-107889380D01*
X155056285Y-107937000D01*
X155103904Y-107984619D01*
X155151523Y-108079857D01*
X155151523Y-108222714D01*
X155103904Y-108317952D01*
X155056285Y-108365571D01*
X154961047Y-108413190D01*
X154580095Y-108413190D01*
X155580095Y-108889380D02*
X155580095Y-107889380D01*
X156151523Y-108889380D01*
X156151523Y-107889380D01*
X156532476Y-107889380D02*
X157151523Y-107889380D01*
X156818190Y-108270333D01*
X156961047Y-108270333D01*
X157056285Y-108317952D01*
X157103904Y-108365571D01*
X157151523Y-108460809D01*
X157151523Y-108698904D01*
X157103904Y-108794142D01*
X157056285Y-108841761D01*
X156961047Y-108889380D01*
X156675333Y-108889380D01*
X156580095Y-108841761D01*
X156532476Y-108794142D01*
X141589380Y-64764857D02*
X141113190Y-65098190D01*
X141589380Y-65336285D02*
X140589380Y-65336285D01*
X140589380Y-64955333D01*
X140637000Y-64860095D01*
X140684619Y-64812476D01*
X140779857Y-64764857D01*
X140922714Y-64764857D01*
X141017952Y-64812476D01*
X141065571Y-64860095D01*
X141113190Y-64955333D01*
X141113190Y-65336285D01*
X141589380Y-63812476D02*
X141589380Y-64383904D01*
X141589380Y-64098190D02*
X140589380Y-64098190D01*
X140732238Y-64193428D01*
X140827476Y-64288666D01*
X140875095Y-64383904D01*
X140589380Y-63479142D02*
X140589380Y-62860095D01*
X140970333Y-63193428D01*
X140970333Y-63050571D01*
X141017952Y-62955333D01*
X141065571Y-62907714D01*
X141160809Y-62860095D01*
X141398904Y-62860095D01*
X141494142Y-62907714D01*
X141541761Y-62955333D01*
X141589380Y-63050571D01*
X141589380Y-63336285D01*
X141541761Y-63431523D01*
X141494142Y-63479142D01*
X148579142Y-90291857D02*
X148626761Y-90339476D01*
X148674380Y-90482333D01*
X148674380Y-90577571D01*
X148626761Y-90720428D01*
X148531523Y-90815666D01*
X148436285Y-90863285D01*
X148245809Y-90910904D01*
X148102952Y-90910904D01*
X147912476Y-90863285D01*
X147817238Y-90815666D01*
X147722000Y-90720428D01*
X147674380Y-90577571D01*
X147674380Y-90482333D01*
X147722000Y-90339476D01*
X147769619Y-90291857D01*
X147769619Y-89910904D02*
X147722000Y-89863285D01*
X147674380Y-89768047D01*
X147674380Y-89529952D01*
X147722000Y-89434714D01*
X147769619Y-89387095D01*
X147864857Y-89339476D01*
X147960095Y-89339476D01*
X148102952Y-89387095D01*
X148674380Y-89958523D01*
X148674380Y-89339476D01*
X147674380Y-88720428D02*
X147674380Y-88625190D01*
X147722000Y-88529952D01*
X147769619Y-88482333D01*
X147864857Y-88434714D01*
X148055333Y-88387095D01*
X148293428Y-88387095D01*
X148483904Y-88434714D01*
X148579142Y-88482333D01*
X148626761Y-88529952D01*
X148674380Y-88625190D01*
X148674380Y-88720428D01*
X148626761Y-88815666D01*
X148579142Y-88863285D01*
X148483904Y-88910904D01*
X148293428Y-88958523D01*
X148055333Y-88958523D01*
X147864857Y-88910904D01*
X147769619Y-88863285D01*
X147722000Y-88815666D01*
X147674380Y-88720428D01*
X149055523Y-108889380D02*
X148722190Y-108413190D01*
X148484095Y-108889380D02*
X148484095Y-107889380D01*
X148865047Y-107889380D01*
X148960285Y-107937000D01*
X149007904Y-107984619D01*
X149055523Y-108079857D01*
X149055523Y-108222714D01*
X149007904Y-108317952D01*
X148960285Y-108365571D01*
X148865047Y-108413190D01*
X148484095Y-108413190D01*
X149484095Y-108889380D02*
X149484095Y-107889380D01*
X150055523Y-108889380D01*
X150055523Y-107889380D01*
X150960285Y-107889380D02*
X150769809Y-107889380D01*
X150674571Y-107937000D01*
X150626952Y-107984619D01*
X150531714Y-108127476D01*
X150484095Y-108317952D01*
X150484095Y-108698904D01*
X150531714Y-108794142D01*
X150579333Y-108841761D01*
X150674571Y-108889380D01*
X150865047Y-108889380D01*
X150960285Y-108841761D01*
X151007904Y-108794142D01*
X151055523Y-108698904D01*
X151055523Y-108460809D01*
X151007904Y-108365571D01*
X150960285Y-108317952D01*
X150865047Y-108270333D01*
X150674571Y-108270333D01*
X150579333Y-108317952D01*
X150531714Y-108365571D01*
X150484095Y-108460809D01*
X116542095Y-84656380D02*
X116542095Y-85465904D01*
X116589714Y-85561142D01*
X116637333Y-85608761D01*
X116732571Y-85656380D01*
X116923047Y-85656380D01*
X117018285Y-85608761D01*
X117065904Y-85561142D01*
X117113523Y-85465904D01*
X117113523Y-84656380D01*
X117494476Y-84656380D02*
X118113523Y-84656380D01*
X117780190Y-85037333D01*
X117923047Y-85037333D01*
X118018285Y-85084952D01*
X118065904Y-85132571D01*
X118113523Y-85227809D01*
X118113523Y-85465904D01*
X118065904Y-85561142D01*
X118018285Y-85608761D01*
X117923047Y-85656380D01*
X117637333Y-85656380D01*
X117542095Y-85608761D01*
X117494476Y-85561142D01*
X125481142Y-81624142D02*
X125433523Y-81671761D01*
X125290666Y-81719380D01*
X125195428Y-81719380D01*
X125052571Y-81671761D01*
X124957333Y-81576523D01*
X124909714Y-81481285D01*
X124862095Y-81290809D01*
X124862095Y-81147952D01*
X124909714Y-80957476D01*
X124957333Y-80862238D01*
X125052571Y-80767000D01*
X125195428Y-80719380D01*
X125290666Y-80719380D01*
X125433523Y-80767000D01*
X125481142Y-80814619D01*
X125814476Y-80719380D02*
X126433523Y-80719380D01*
X126100190Y-81100333D01*
X126243047Y-81100333D01*
X126338285Y-81147952D01*
X126385904Y-81195571D01*
X126433523Y-81290809D01*
X126433523Y-81528904D01*
X126385904Y-81624142D01*
X126338285Y-81671761D01*
X126243047Y-81719380D01*
X125957333Y-81719380D01*
X125862095Y-81671761D01*
X125814476Y-81624142D01*
X127004952Y-81147952D02*
X126909714Y-81100333D01*
X126862095Y-81052714D01*
X126814476Y-80957476D01*
X126814476Y-80909857D01*
X126862095Y-80814619D01*
X126909714Y-80767000D01*
X127004952Y-80719380D01*
X127195428Y-80719380D01*
X127290666Y-80767000D01*
X127338285Y-80814619D01*
X127385904Y-80909857D01*
X127385904Y-80957476D01*
X127338285Y-81052714D01*
X127290666Y-81100333D01*
X127195428Y-81147952D01*
X127004952Y-81147952D01*
X126909714Y-81195571D01*
X126862095Y-81243190D01*
X126814476Y-81338428D01*
X126814476Y-81528904D01*
X126862095Y-81624142D01*
X126909714Y-81671761D01*
X127004952Y-81719380D01*
X127195428Y-81719380D01*
X127290666Y-81671761D01*
X127338285Y-81624142D01*
X127385904Y-81528904D01*
X127385904Y-81338428D01*
X127338285Y-81243190D01*
X127290666Y-81195571D01*
X127195428Y-81147952D01*
X113913104Y-64971380D02*
X113913104Y-65780904D01*
X113960723Y-65876142D01*
X114008342Y-65923761D01*
X114103580Y-65971380D01*
X114294057Y-65971380D01*
X114389295Y-65923761D01*
X114436914Y-65876142D01*
X114484533Y-65780904D01*
X114484533Y-64971380D01*
X115484533Y-65971380D02*
X114913104Y-65971380D01*
X115198819Y-65971380D02*
X115198819Y-64971380D01*
X115103580Y-65114238D01*
X115008342Y-65209476D01*
X114913104Y-65257095D01*
X116103580Y-64971380D02*
X116198819Y-64971380D01*
X116294057Y-65019000D01*
X116341676Y-65066619D01*
X116389295Y-65161857D01*
X116436914Y-65352333D01*
X116436914Y-65590428D01*
X116389295Y-65780904D01*
X116341676Y-65876142D01*
X116294057Y-65923761D01*
X116198819Y-65971380D01*
X116103580Y-65971380D01*
X116008342Y-65923761D01*
X115960723Y-65876142D01*
X115913104Y-65780904D01*
X115865485Y-65590428D01*
X115865485Y-65352333D01*
X115913104Y-65161857D01*
X115960723Y-65066619D01*
X116008342Y-65019000D01*
X116103580Y-64971380D01*
X132010380Y-106833666D02*
X131534190Y-107167000D01*
X132010380Y-107405095D02*
X131010380Y-107405095D01*
X131010380Y-107024142D01*
X131058000Y-106928904D01*
X131105619Y-106881285D01*
X131200857Y-106833666D01*
X131343714Y-106833666D01*
X131438952Y-106881285D01*
X131486571Y-106928904D01*
X131534190Y-107024142D01*
X131534190Y-107405095D01*
X131438952Y-106262238D02*
X131391333Y-106357476D01*
X131343714Y-106405095D01*
X131248476Y-106452714D01*
X131200857Y-106452714D01*
X131105619Y-106405095D01*
X131058000Y-106357476D01*
X131010380Y-106262238D01*
X131010380Y-106071761D01*
X131058000Y-105976523D01*
X131105619Y-105928904D01*
X131200857Y-105881285D01*
X131248476Y-105881285D01*
X131343714Y-105928904D01*
X131391333Y-105976523D01*
X131438952Y-106071761D01*
X131438952Y-106262238D01*
X131486571Y-106357476D01*
X131534190Y-106405095D01*
X131629428Y-106452714D01*
X131819904Y-106452714D01*
X131915142Y-106405095D01*
X131962761Y-106357476D01*
X132010380Y-106262238D01*
X132010380Y-106071761D01*
X131962761Y-105976523D01*
X131915142Y-105928904D01*
X131819904Y-105881285D01*
X131629428Y-105881285D01*
X131534190Y-105928904D01*
X131486571Y-105976523D01*
X131438952Y-106071761D01*
X179373580Y-67622333D02*
X180087866Y-67622333D01*
X180230723Y-67669952D01*
X180325961Y-67765190D01*
X180373580Y-67908047D01*
X180373580Y-68003285D01*
X180373580Y-67146142D02*
X179373580Y-67146142D01*
X179373580Y-66765190D01*
X179421200Y-66669952D01*
X179468819Y-66622333D01*
X179564057Y-66574714D01*
X179706914Y-66574714D01*
X179802152Y-66622333D01*
X179849771Y-66669952D01*
X179897390Y-66765190D01*
X179897390Y-67146142D01*
X179373580Y-66241380D02*
X179373580Y-65622333D01*
X179754533Y-65955666D01*
X179754533Y-65812809D01*
X179802152Y-65717571D01*
X179849771Y-65669952D01*
X179945009Y-65622333D01*
X180183104Y-65622333D01*
X180278342Y-65669952D01*
X180325961Y-65717571D01*
X180373580Y-65812809D01*
X180373580Y-66098523D01*
X180325961Y-66193761D01*
X180278342Y-66241380D01*
X109606142Y-100674142D02*
X109558523Y-100721761D01*
X109415666Y-100769380D01*
X109320428Y-100769380D01*
X109177571Y-100721761D01*
X109082333Y-100626523D01*
X109034714Y-100531285D01*
X108987095Y-100340809D01*
X108987095Y-100197952D01*
X109034714Y-100007476D01*
X109082333Y-99912238D01*
X109177571Y-99817000D01*
X109320428Y-99769380D01*
X109415666Y-99769380D01*
X109558523Y-99817000D01*
X109606142Y-99864619D01*
X109939476Y-99769380D02*
X110558523Y-99769380D01*
X110225190Y-100150333D01*
X110368047Y-100150333D01*
X110463285Y-100197952D01*
X110510904Y-100245571D01*
X110558523Y-100340809D01*
X110558523Y-100578904D01*
X110510904Y-100674142D01*
X110463285Y-100721761D01*
X110368047Y-100769380D01*
X110082333Y-100769380D01*
X109987095Y-100721761D01*
X109939476Y-100674142D01*
X111034714Y-100769380D02*
X111225190Y-100769380D01*
X111320428Y-100721761D01*
X111368047Y-100674142D01*
X111463285Y-100531285D01*
X111510904Y-100340809D01*
X111510904Y-99959857D01*
X111463285Y-99864619D01*
X111415666Y-99817000D01*
X111320428Y-99769380D01*
X111129952Y-99769380D01*
X111034714Y-99817000D01*
X110987095Y-99864619D01*
X110939476Y-99959857D01*
X110939476Y-100197952D01*
X110987095Y-100293190D01*
X111034714Y-100340809D01*
X111129952Y-100388428D01*
X111320428Y-100388428D01*
X111415666Y-100340809D01*
X111463285Y-100293190D01*
X111510904Y-100197952D01*
X132593142Y-70194142D02*
X132545523Y-70241761D01*
X132402666Y-70289380D01*
X132307428Y-70289380D01*
X132164571Y-70241761D01*
X132069333Y-70146523D01*
X132021714Y-70051285D01*
X131974095Y-69860809D01*
X131974095Y-69717952D01*
X132021714Y-69527476D01*
X132069333Y-69432238D01*
X132164571Y-69337000D01*
X132307428Y-69289380D01*
X132402666Y-69289380D01*
X132545523Y-69337000D01*
X132593142Y-69384619D01*
X132974095Y-69384619D02*
X133021714Y-69337000D01*
X133116952Y-69289380D01*
X133355047Y-69289380D01*
X133450285Y-69337000D01*
X133497904Y-69384619D01*
X133545523Y-69479857D01*
X133545523Y-69575095D01*
X133497904Y-69717952D01*
X132926476Y-70289380D01*
X133545523Y-70289380D01*
X134116952Y-69717952D02*
X134021714Y-69670333D01*
X133974095Y-69622714D01*
X133926476Y-69527476D01*
X133926476Y-69479857D01*
X133974095Y-69384619D01*
X134021714Y-69337000D01*
X134116952Y-69289380D01*
X134307428Y-69289380D01*
X134402666Y-69337000D01*
X134450285Y-69384619D01*
X134497904Y-69479857D01*
X134497904Y-69527476D01*
X134450285Y-69622714D01*
X134402666Y-69670333D01*
X134307428Y-69717952D01*
X134116952Y-69717952D01*
X134021714Y-69765571D01*
X133974095Y-69813190D01*
X133926476Y-69908428D01*
X133926476Y-70098904D01*
X133974095Y-70194142D01*
X134021714Y-70241761D01*
X134116952Y-70289380D01*
X134307428Y-70289380D01*
X134402666Y-70241761D01*
X134450285Y-70194142D01*
X134497904Y-70098904D01*
X134497904Y-69908428D01*
X134450285Y-69813190D01*
X134402666Y-69765571D01*
X134307428Y-69717952D01*
X127338380Y-105817666D02*
X126862190Y-106151000D01*
X127338380Y-106389095D02*
X126338380Y-106389095D01*
X126338380Y-106008142D01*
X126386000Y-105912904D01*
X126433619Y-105865285D01*
X126528857Y-105817666D01*
X126671714Y-105817666D01*
X126766952Y-105865285D01*
X126814571Y-105912904D01*
X126862190Y-106008142D01*
X126862190Y-106389095D01*
X127338380Y-104865285D02*
X127338380Y-105436714D01*
X127338380Y-105151000D02*
X126338380Y-105151000D01*
X126481238Y-105246238D01*
X126576476Y-105341476D01*
X126624095Y-105436714D01*
X132593142Y-76544142D02*
X132545523Y-76591761D01*
X132402666Y-76639380D01*
X132307428Y-76639380D01*
X132164571Y-76591761D01*
X132069333Y-76496523D01*
X132021714Y-76401285D01*
X131974095Y-76210809D01*
X131974095Y-76067952D01*
X132021714Y-75877476D01*
X132069333Y-75782238D01*
X132164571Y-75687000D01*
X132307428Y-75639380D01*
X132402666Y-75639380D01*
X132545523Y-75687000D01*
X132593142Y-75734619D01*
X132926476Y-75639380D02*
X133545523Y-75639380D01*
X133212190Y-76020333D01*
X133355047Y-76020333D01*
X133450285Y-76067952D01*
X133497904Y-76115571D01*
X133545523Y-76210809D01*
X133545523Y-76448904D01*
X133497904Y-76544142D01*
X133450285Y-76591761D01*
X133355047Y-76639380D01*
X133069333Y-76639380D01*
X132974095Y-76591761D01*
X132926476Y-76544142D01*
X134402666Y-75972714D02*
X134402666Y-76639380D01*
X134164571Y-75591761D02*
X133926476Y-76306047D01*
X134545523Y-76306047D01*
X112781142Y-81465380D02*
X112447809Y-80989190D01*
X112209714Y-81465380D02*
X112209714Y-80465380D01*
X112590666Y-80465380D01*
X112685904Y-80513000D01*
X112733523Y-80560619D01*
X112781142Y-80655857D01*
X112781142Y-80798714D01*
X112733523Y-80893952D01*
X112685904Y-80941571D01*
X112590666Y-80989190D01*
X112209714Y-80989190D01*
X113733523Y-81465380D02*
X113162095Y-81465380D01*
X113447809Y-81465380D02*
X113447809Y-80465380D01*
X113352571Y-80608238D01*
X113257333Y-80703476D01*
X113162095Y-80751095D01*
X114352571Y-80465380D02*
X114447809Y-80465380D01*
X114543047Y-80513000D01*
X114590666Y-80560619D01*
X114638285Y-80655857D01*
X114685904Y-80846333D01*
X114685904Y-81084428D01*
X114638285Y-81274904D01*
X114590666Y-81370142D01*
X114543047Y-81417761D01*
X114447809Y-81465380D01*
X114352571Y-81465380D01*
X114257333Y-81417761D01*
X114209714Y-81370142D01*
X114162095Y-81274904D01*
X114114476Y-81084428D01*
X114114476Y-80846333D01*
X114162095Y-80655857D01*
X114209714Y-80560619D01*
X114257333Y-80513000D01*
X114352571Y-80465380D01*
X149865142Y-69034142D02*
X149817523Y-69081761D01*
X149674666Y-69129380D01*
X149579428Y-69129380D01*
X149436571Y-69081761D01*
X149341333Y-68986523D01*
X149293714Y-68891285D01*
X149246095Y-68700809D01*
X149246095Y-68557952D01*
X149293714Y-68367476D01*
X149341333Y-68272238D01*
X149436571Y-68177000D01*
X149579428Y-68129380D01*
X149674666Y-68129380D01*
X149817523Y-68177000D01*
X149865142Y-68224619D01*
X150198476Y-68129380D02*
X150817523Y-68129380D01*
X150484190Y-68510333D01*
X150627047Y-68510333D01*
X150722285Y-68557952D01*
X150769904Y-68605571D01*
X150817523Y-68700809D01*
X150817523Y-68938904D01*
X150769904Y-69034142D01*
X150722285Y-69081761D01*
X150627047Y-69129380D01*
X150341333Y-69129380D01*
X150246095Y-69081761D01*
X150198476Y-69034142D01*
X151150857Y-68129380D02*
X151769904Y-68129380D01*
X151436571Y-68510333D01*
X151579428Y-68510333D01*
X151674666Y-68557952D01*
X151722285Y-68605571D01*
X151769904Y-68700809D01*
X151769904Y-68938904D01*
X151722285Y-69034142D01*
X151674666Y-69081761D01*
X151579428Y-69129380D01*
X151293714Y-69129380D01*
X151198476Y-69081761D01*
X151150857Y-69034142D01*
X151119142Y-90291857D02*
X151166761Y-90339476D01*
X151214380Y-90482333D01*
X151214380Y-90577571D01*
X151166761Y-90720428D01*
X151071523Y-90815666D01*
X150976285Y-90863285D01*
X150785809Y-90910904D01*
X150642952Y-90910904D01*
X150452476Y-90863285D01*
X150357238Y-90815666D01*
X150262000Y-90720428D01*
X150214380Y-90577571D01*
X150214380Y-90482333D01*
X150262000Y-90339476D01*
X150309619Y-90291857D01*
X151214380Y-89339476D02*
X151214380Y-89910904D01*
X151214380Y-89625190D02*
X150214380Y-89625190D01*
X150357238Y-89720428D01*
X150452476Y-89815666D01*
X150500095Y-89910904D01*
X150214380Y-88482333D02*
X150214380Y-88672809D01*
X150262000Y-88768047D01*
X150309619Y-88815666D01*
X150452476Y-88910904D01*
X150642952Y-88958523D01*
X151023904Y-88958523D01*
X151119142Y-88910904D01*
X151166761Y-88863285D01*
X151214380Y-88768047D01*
X151214380Y-88577571D01*
X151166761Y-88482333D01*
X151119142Y-88434714D01*
X151023904Y-88387095D01*
X150785809Y-88387095D01*
X150690571Y-88434714D01*
X150642952Y-88482333D01*
X150595333Y-88577571D01*
X150595333Y-88768047D01*
X150642952Y-88863285D01*
X150690571Y-88910904D01*
X150785809Y-88958523D01*
X106890095Y-84656380D02*
X106890095Y-85465904D01*
X106937714Y-85561142D01*
X106985333Y-85608761D01*
X107080571Y-85656380D01*
X107271047Y-85656380D01*
X107366285Y-85608761D01*
X107413904Y-85561142D01*
X107461523Y-85465904D01*
X107461523Y-84656380D01*
X108461523Y-85656380D02*
X107890095Y-85656380D01*
X108175809Y-85656380D02*
X108175809Y-84656380D01*
X108080571Y-84799238D01*
X107985333Y-84894476D01*
X107890095Y-84942095D01*
X147833142Y-95340142D02*
X147785523Y-95387761D01*
X147642666Y-95435380D01*
X147547428Y-95435380D01*
X147404571Y-95387761D01*
X147309333Y-95292523D01*
X147261714Y-95197285D01*
X147214095Y-95006809D01*
X147214095Y-94863952D01*
X147261714Y-94673476D01*
X147309333Y-94578238D01*
X147404571Y-94483000D01*
X147547428Y-94435380D01*
X147642666Y-94435380D01*
X147785523Y-94483000D01*
X147833142Y-94530619D01*
X148214095Y-94530619D02*
X148261714Y-94483000D01*
X148356952Y-94435380D01*
X148595047Y-94435380D01*
X148690285Y-94483000D01*
X148737904Y-94530619D01*
X148785523Y-94625857D01*
X148785523Y-94721095D01*
X148737904Y-94863952D01*
X148166476Y-95435380D01*
X148785523Y-95435380D01*
X149166476Y-94530619D02*
X149214095Y-94483000D01*
X149309333Y-94435380D01*
X149547428Y-94435380D01*
X149642666Y-94483000D01*
X149690285Y-94530619D01*
X149737904Y-94625857D01*
X149737904Y-94721095D01*
X149690285Y-94863952D01*
X149118857Y-95435380D01*
X149737904Y-95435380D01*
X122179142Y-68384380D02*
X121845809Y-67908190D01*
X121607714Y-68384380D02*
X121607714Y-67384380D01*
X121988666Y-67384380D01*
X122083904Y-67432000D01*
X122131523Y-67479619D01*
X122179142Y-67574857D01*
X122179142Y-67717714D01*
X122131523Y-67812952D01*
X122083904Y-67860571D01*
X121988666Y-67908190D01*
X121607714Y-67908190D01*
X123131523Y-68384380D02*
X122560095Y-68384380D01*
X122845809Y-68384380D02*
X122845809Y-67384380D01*
X122750571Y-67527238D01*
X122655333Y-67622476D01*
X122560095Y-67670095D01*
X123988666Y-67717714D02*
X123988666Y-68384380D01*
X123750571Y-67336761D02*
X123512476Y-68051047D01*
X124131523Y-68051047D01*
X132593142Y-72829380D02*
X132259809Y-72353190D01*
X132021714Y-72829380D02*
X132021714Y-71829380D01*
X132402666Y-71829380D01*
X132497904Y-71877000D01*
X132545523Y-71924619D01*
X132593142Y-72019857D01*
X132593142Y-72162714D01*
X132545523Y-72257952D01*
X132497904Y-72305571D01*
X132402666Y-72353190D01*
X132021714Y-72353190D01*
X133545523Y-72829380D02*
X132974095Y-72829380D01*
X133259809Y-72829380D02*
X133259809Y-71829380D01*
X133164571Y-71972238D01*
X133069333Y-72067476D01*
X132974095Y-72115095D01*
X134402666Y-71829380D02*
X134212190Y-71829380D01*
X134116952Y-71877000D01*
X134069333Y-71924619D01*
X133974095Y-72067476D01*
X133926476Y-72257952D01*
X133926476Y-72638904D01*
X133974095Y-72734142D01*
X134021714Y-72781761D01*
X134116952Y-72829380D01*
X134307428Y-72829380D01*
X134402666Y-72781761D01*
X134450285Y-72734142D01*
X134497904Y-72638904D01*
X134497904Y-72400809D01*
X134450285Y-72305571D01*
X134402666Y-72257952D01*
X134307428Y-72210333D01*
X134116952Y-72210333D01*
X134021714Y-72257952D01*
X133974095Y-72305571D01*
X133926476Y-72400809D01*
X110590333Y-108008380D02*
X110257000Y-107532190D01*
X110018904Y-108008380D02*
X110018904Y-107008380D01*
X110399857Y-107008380D01*
X110495095Y-107056000D01*
X110542714Y-107103619D01*
X110590333Y-107198857D01*
X110590333Y-107341714D01*
X110542714Y-107436952D01*
X110495095Y-107484571D01*
X110399857Y-107532190D01*
X110018904Y-107532190D01*
X110923666Y-107008380D02*
X111590333Y-107008380D01*
X111161761Y-108008380D01*
X112781142Y-82735380D02*
X112447809Y-82259190D01*
X112209714Y-82735380D02*
X112209714Y-81735380D01*
X112590666Y-81735380D01*
X112685904Y-81783000D01*
X112733523Y-81830619D01*
X112781142Y-81925857D01*
X112781142Y-82068714D01*
X112733523Y-82163952D01*
X112685904Y-82211571D01*
X112590666Y-82259190D01*
X112209714Y-82259190D01*
X113733523Y-82735380D02*
X113162095Y-82735380D01*
X113447809Y-82735380D02*
X113447809Y-81735380D01*
X113352571Y-81878238D01*
X113257333Y-81973476D01*
X113162095Y-82021095D01*
X114685904Y-82735380D02*
X114114476Y-82735380D01*
X114400190Y-82735380D02*
X114400190Y-81735380D01*
X114304952Y-81878238D01*
X114209714Y-81973476D01*
X114114476Y-82021095D01*
X183377142Y-66542857D02*
X183424761Y-66590476D01*
X183472380Y-66733333D01*
X183472380Y-66828571D01*
X183424761Y-66971428D01*
X183329523Y-67066666D01*
X183234285Y-67114285D01*
X183043809Y-67161904D01*
X182900952Y-67161904D01*
X182710476Y-67114285D01*
X182615238Y-67066666D01*
X182520000Y-66971428D01*
X182472380Y-66828571D01*
X182472380Y-66733333D01*
X182520000Y-66590476D01*
X182567619Y-66542857D01*
X182567619Y-66161904D02*
X182520000Y-66114285D01*
X182472380Y-66019047D01*
X182472380Y-65780952D01*
X182520000Y-65685714D01*
X182567619Y-65638095D01*
X182662857Y-65590476D01*
X182758095Y-65590476D01*
X182900952Y-65638095D01*
X183472380Y-66209523D01*
X183472380Y-65590476D01*
X182805714Y-64733333D02*
X183472380Y-64733333D01*
X182424761Y-64971428D02*
X183139047Y-65209523D01*
X183139047Y-64590476D01*
X165867142Y-91784142D02*
X165819523Y-91831761D01*
X165676666Y-91879380D01*
X165581428Y-91879380D01*
X165438571Y-91831761D01*
X165343333Y-91736523D01*
X165295714Y-91641285D01*
X165248095Y-91450809D01*
X165248095Y-91307952D01*
X165295714Y-91117476D01*
X165343333Y-91022238D01*
X165438571Y-90927000D01*
X165581428Y-90879380D01*
X165676666Y-90879380D01*
X165819523Y-90927000D01*
X165867142Y-90974619D01*
X166819523Y-91879380D02*
X166248095Y-91879380D01*
X166533809Y-91879380D02*
X166533809Y-90879380D01*
X166438571Y-91022238D01*
X166343333Y-91117476D01*
X166248095Y-91165095D01*
X167676666Y-91212714D02*
X167676666Y-91879380D01*
X167438571Y-90831761D02*
X167200476Y-91546047D01*
X167819523Y-91546047D01*
D12*
X104386285Y-108355428D02*
X104531428Y-108403809D01*
X104579809Y-108452190D01*
X104628190Y-108548952D01*
X104628190Y-108694095D01*
X104579809Y-108790857D01*
X104531428Y-108839238D01*
X104434666Y-108887619D01*
X104047619Y-108887619D01*
X104047619Y-107871619D01*
X104386285Y-107871619D01*
X104483047Y-107920000D01*
X104531428Y-107968380D01*
X104579809Y-108065142D01*
X104579809Y-108161904D01*
X104531428Y-108258666D01*
X104483047Y-108307047D01*
X104386285Y-108355428D01*
X104047619Y-108355428D01*
X105499047Y-108887619D02*
X105499047Y-108355428D01*
X105450666Y-108258666D01*
X105353904Y-108210285D01*
X105160380Y-108210285D01*
X105063619Y-108258666D01*
X105499047Y-108839238D02*
X105402285Y-108887619D01*
X105160380Y-108887619D01*
X105063619Y-108839238D01*
X105015238Y-108742476D01*
X105015238Y-108645714D01*
X105063619Y-108548952D01*
X105160380Y-108500571D01*
X105402285Y-108500571D01*
X105499047Y-108452190D01*
X106418285Y-108839238D02*
X106321523Y-108887619D01*
X106128000Y-108887619D01*
X106031238Y-108839238D01*
X105982857Y-108790857D01*
X105934476Y-108694095D01*
X105934476Y-108403809D01*
X105982857Y-108307047D01*
X106031238Y-108258666D01*
X106128000Y-108210285D01*
X106321523Y-108210285D01*
X106418285Y-108258666D01*
X106853714Y-108887619D02*
X106853714Y-107871619D01*
X106950476Y-108500571D02*
X107240761Y-108887619D01*
X107240761Y-108210285D02*
X106853714Y-108597333D01*
G36*
X178580706Y-103559138D02*
G01*
X178626744Y-103564694D01*
X178626744Y-103736144D01*
X178574356Y-103740113D01*
X178512444Y-103740906D01*
X178414019Y-103719475D01*
X178375919Y-103647244D01*
X178388619Y-103601206D01*
X178422750Y-103574219D01*
X178472756Y-103560725D01*
X178531494Y-103556756D01*
X178580706Y-103559138D01*
G37*
G36*
X192094300Y-103063837D02*
G01*
X192131606Y-103147181D01*
X192110969Y-103232112D01*
X192041119Y-103312281D01*
X191962934Y-103274975D01*
X191912531Y-103239256D01*
X191876019Y-103148769D01*
X191914913Y-103064631D01*
X192004606Y-103036056D01*
X192094300Y-103063837D01*
G37*
G36*
X194441419Y-103488494D02*
G01*
X194219169Y-103488494D01*
X194266794Y-103398006D01*
X194323150Y-103306725D01*
X194382681Y-103220206D01*
X194441419Y-103142419D01*
X194441419Y-103488494D01*
G37*
G36*
X181741419Y-103488494D02*
G01*
X181519169Y-103488494D01*
X181566794Y-103398006D01*
X181623150Y-103306725D01*
X181682681Y-103220206D01*
X181741419Y-103142419D01*
X181741419Y-103488494D01*
G37*
G36*
X180948066Y-103424002D02*
G01*
X180993706Y-103454363D01*
X181027044Y-103569456D01*
X181019900Y-103625019D01*
X180997675Y-103677406D01*
X180958781Y-103717094D01*
X180901631Y-103732969D01*
X180832575Y-103713125D01*
X180788919Y-103659944D01*
X180766694Y-103584538D01*
X180760344Y-103496431D01*
X180761138Y-103466269D01*
X180763519Y-103437694D01*
X180815906Y-103420231D01*
X180877819Y-103413881D01*
X180948066Y-103424002D01*
G37*
G36*
X174593105Y-103065623D02*
G01*
X174647675Y-103092412D01*
X174682798Y-103140633D01*
X174694506Y-103213856D01*
X174682600Y-103291048D01*
X174646881Y-103341650D01*
X174587747Y-103369630D01*
X174505594Y-103378956D01*
X174426219Y-103378956D01*
X174426219Y-103061456D01*
X174474638Y-103057487D01*
X174523056Y-103056694D01*
X174593105Y-103065623D01*
G37*
G36*
X192041119Y-103484525D02*
G01*
X192108588Y-103524213D01*
X192146688Y-103567869D01*
X192158594Y-103623431D01*
X192116525Y-103705187D01*
X192003019Y-103739319D01*
X191895863Y-103706775D01*
X191850619Y-103610731D01*
X191874431Y-103524213D01*
X191942694Y-103442456D01*
X192041119Y-103484525D01*
G37*
G36*
X176993405Y-103300573D02*
G01*
X177040038Y-103346412D01*
X177066827Y-103417255D01*
X177075756Y-103507544D01*
X177066033Y-103598031D01*
X177036863Y-103669469D01*
X176988642Y-103715903D01*
X176921769Y-103731381D01*
X176853308Y-103715903D01*
X176806675Y-103669469D01*
X176779886Y-103598031D01*
X176770956Y-103507544D01*
X176780680Y-103417255D01*
X176809850Y-103346412D01*
X176858070Y-103300573D01*
X176924944Y-103285294D01*
X176993405Y-103300573D01*
G37*
G36*
X191210856Y-103732969D02*
G01*
X191140609Y-103710942D01*
X191088619Y-103644863D01*
X191064806Y-103577041D01*
X191050519Y-103491051D01*
X191045756Y-103386894D01*
X191046488Y-103371019D01*
X191123544Y-103371019D01*
X191147356Y-103444837D01*
X191212444Y-103475794D01*
X191275150Y-103444837D01*
X191299756Y-103371019D01*
X191275150Y-103296406D01*
X191212444Y-103264656D01*
X191147356Y-103296406D01*
X191123544Y-103371019D01*
X191046488Y-103371019D01*
X191050519Y-103283618D01*
X191064806Y-103198158D01*
X191088619Y-103130512D01*
X191140609Y-103064433D01*
X191210856Y-103042406D01*
X191282095Y-103064433D01*
X191333888Y-103130512D01*
X191357259Y-103198158D01*
X191371282Y-103283618D01*
X191375956Y-103386894D01*
X191371282Y-103491051D01*
X191357259Y-103577041D01*
X191333888Y-103644863D01*
X191282095Y-103710942D01*
X191212444Y-103732478D01*
X191210856Y-103732969D01*
G37*
G36*
X188035856Y-103732969D02*
G01*
X187965609Y-103710942D01*
X187913619Y-103644863D01*
X187889806Y-103577041D01*
X187875519Y-103491051D01*
X187870756Y-103386894D01*
X187871488Y-103371019D01*
X187948544Y-103371019D01*
X187972356Y-103444837D01*
X188037444Y-103475794D01*
X188100150Y-103444837D01*
X188124756Y-103371019D01*
X188100150Y-103296406D01*
X188037444Y-103264656D01*
X187972356Y-103296406D01*
X187948544Y-103371019D01*
X187871488Y-103371019D01*
X187875519Y-103283618D01*
X187889806Y-103198158D01*
X187913619Y-103130512D01*
X187965609Y-103064433D01*
X188035856Y-103042406D01*
X188107095Y-103064433D01*
X188158888Y-103130512D01*
X188182259Y-103198158D01*
X188196282Y-103283618D01*
X188200956Y-103386894D01*
X188196282Y-103491051D01*
X188182259Y-103577041D01*
X188158888Y-103644863D01*
X188107095Y-103710942D01*
X188037444Y-103732478D01*
X188035856Y-103732969D01*
G37*
G36*
X185654606Y-103732969D02*
G01*
X185584359Y-103710942D01*
X185532369Y-103644863D01*
X185508556Y-103577041D01*
X185494269Y-103491051D01*
X185489506Y-103386894D01*
X185490238Y-103371019D01*
X185567294Y-103371019D01*
X185591106Y-103444837D01*
X185656194Y-103475794D01*
X185718900Y-103444837D01*
X185743506Y-103371019D01*
X185718900Y-103296406D01*
X185656194Y-103264656D01*
X185591106Y-103296406D01*
X185567294Y-103371019D01*
X185490238Y-103371019D01*
X185494269Y-103283618D01*
X185508556Y-103198158D01*
X185532369Y-103130512D01*
X185584359Y-103064433D01*
X185654606Y-103042406D01*
X185725845Y-103064433D01*
X185777638Y-103130512D01*
X185801009Y-103198158D01*
X185815032Y-103283618D01*
X185819706Y-103386894D01*
X185815032Y-103491051D01*
X185801009Y-103577041D01*
X185777638Y-103644863D01*
X185725845Y-103710942D01*
X185656194Y-103732478D01*
X185654606Y-103732969D01*
G37*
G36*
X173813583Y-104227716D02*
G01*
X173727773Y-104214988D01*
X173643623Y-104193909D01*
X173561945Y-104164684D01*
X173483525Y-104127595D01*
X173409118Y-104082997D01*
X173339441Y-104031320D01*
X173275164Y-103973063D01*
X173216907Y-103908786D01*
X173196007Y-103880606D01*
X174230956Y-103880606D01*
X174426219Y-103880606D01*
X174426219Y-103548819D01*
X174496069Y-103548819D01*
X174613456Y-103540088D01*
X174711616Y-103513894D01*
X174790550Y-103470237D01*
X174848317Y-103407002D01*
X174882978Y-103322071D01*
X174894531Y-103215444D01*
X174885738Y-103134481D01*
X174996131Y-103134481D01*
X174996131Y-103296406D01*
X175202506Y-103296406D01*
X175202506Y-103571044D01*
X175205681Y-103644466D01*
X175215206Y-103709156D01*
X175258863Y-103811550D01*
X175341413Y-103875844D01*
X175399158Y-103892513D01*
X175469206Y-103898069D01*
X175566838Y-103887750D01*
X175680344Y-103848856D01*
X175654944Y-103691694D01*
X175569219Y-103721063D01*
X175504131Y-103728206D01*
X175422375Y-103695663D01*
X175397769Y-103596444D01*
X175397769Y-103507544D01*
X175802581Y-103507544D01*
X175808733Y-103587316D01*
X175827188Y-103661531D01*
X175858739Y-103728206D01*
X175904181Y-103785356D01*
X175963911Y-103832188D01*
X176038325Y-103867906D01*
X176128217Y-103890528D01*
X176234381Y-103898069D01*
X176308597Y-103895489D01*
X176372494Y-103887750D01*
X176472506Y-103861556D01*
X176443931Y-103701219D01*
X176352650Y-103721856D01*
X176256606Y-103728206D01*
X176137345Y-103713522D01*
X176058963Y-103669469D01*
X176015505Y-103599619D01*
X176001019Y-103507544D01*
X176001246Y-103505956D01*
X176572519Y-103505956D01*
X176578869Y-103590689D01*
X176597919Y-103667087D01*
X176628677Y-103734358D01*
X176670150Y-103791706D01*
X176721347Y-103838141D01*
X176781275Y-103872669D01*
X176849339Y-103894100D01*
X176924944Y-103901244D01*
X177000548Y-103894100D01*
X177068613Y-103872669D01*
X177128342Y-103838141D01*
X177178944Y-103791706D01*
X177219822Y-103734358D01*
X177250381Y-103667087D01*
X177269431Y-103590689D01*
X177275781Y-103505956D01*
X177269431Y-103422414D01*
X177260926Y-103388481D01*
X177363094Y-103388481D01*
X177369940Y-103504468D01*
X177390478Y-103606366D01*
X177424709Y-103694174D01*
X177472631Y-103767894D01*
X177556592Y-103841977D01*
X177662426Y-103886427D01*
X177790131Y-103901244D01*
X177876848Y-103895886D01*
X177952850Y-103879812D01*
X178064769Y-103832981D01*
X178015556Y-103678994D01*
X177935388Y-103713919D01*
X177809181Y-103731381D01*
X177695873Y-103708958D01*
X177631194Y-103652006D01*
X178183831Y-103652006D01*
X178206056Y-103767100D01*
X178269556Y-103843300D01*
X178368775Y-103885369D01*
X178498156Y-103898069D01*
X178597772Y-103894894D01*
X178687069Y-103885369D01*
X178714286Y-103880606D01*
X179049019Y-103880606D01*
X179245869Y-103880606D01*
X179245869Y-103326569D01*
X179326831Y-103311487D01*
X179407794Y-103307519D01*
X179450656Y-103309106D01*
X179503044Y-103314662D01*
X179556225Y-103323394D01*
X179601469Y-103332919D01*
X179608515Y-103296406D01*
X179758631Y-103296406D01*
X179928494Y-103296406D01*
X179928494Y-103602794D01*
X179933256Y-103687527D01*
X179947544Y-103754400D01*
X180003106Y-103844094D01*
X180092006Y-103886956D01*
X180212656Y-103898069D01*
X180334100Y-103888544D01*
X180450781Y-103856794D01*
X180423794Y-103688519D01*
X180373788Y-103709156D01*
X180329338Y-103721063D01*
X180284888Y-103726619D01*
X180234881Y-103728206D01*
X180188844Y-103723444D01*
X180153919Y-103704394D01*
X180131694Y-103664706D01*
X180123756Y-103598031D01*
X180123756Y-103478969D01*
X180568256Y-103478969D01*
X180577869Y-103611172D01*
X180606709Y-103717799D01*
X180654775Y-103798850D01*
X180721185Y-103855735D01*
X180805058Y-103889867D01*
X180906394Y-103901244D01*
X180981800Y-103893505D01*
X181046094Y-103870288D01*
X181142931Y-103790119D01*
X181199288Y-103682169D01*
X181204540Y-103648831D01*
X181331844Y-103648831D01*
X181741419Y-103648831D01*
X181741419Y-103880606D01*
X181936681Y-103880606D01*
X181936681Y-103648831D01*
X182043044Y-103648831D01*
X182043044Y-103488494D01*
X181936681Y-103488494D01*
X181936681Y-103134481D01*
X182898706Y-103134481D01*
X182932490Y-103244961D01*
X182967167Y-103350977D01*
X183002737Y-103452527D01*
X183039200Y-103549612D01*
X183088148Y-103670703D01*
X183136567Y-103781035D01*
X183184456Y-103880606D01*
X183347969Y-103880606D01*
X183396652Y-103781035D01*
X183447452Y-103670703D01*
X183500369Y-103549612D01*
X183539957Y-103452527D01*
X183577759Y-103350977D01*
X183613776Y-103244961D01*
X183648006Y-103134481D01*
X183449569Y-103134481D01*
X183433098Y-103196791D01*
X183412263Y-103263069D01*
X183388847Y-103331530D01*
X183364638Y-103400388D01*
X183339833Y-103468452D01*
X183314631Y-103534531D01*
X183268594Y-103653594D01*
X183224938Y-103534531D01*
X183202117Y-103468452D01*
X183179694Y-103400388D01*
X183158064Y-103331530D01*
X183137625Y-103263069D01*
X183119170Y-103196791D01*
X183103494Y-103134481D01*
X182898706Y-103134481D01*
X181936681Y-103134481D01*
X181936681Y-103005894D01*
X183738494Y-103005894D01*
X183835331Y-103142419D01*
X183935344Y-103067806D01*
X184032181Y-103045581D01*
X184124256Y-103078125D01*
X184160769Y-103170994D01*
X184131400Y-103255131D01*
X184056788Y-103340856D01*
X184009956Y-103386298D01*
X183959950Y-103433725D01*
X183909944Y-103484128D01*
X183863113Y-103538500D01*
X183821838Y-103597436D01*
X183788500Y-103661531D01*
X183766473Y-103731381D01*
X183759131Y-103807581D01*
X183758338Y-103840919D01*
X183762306Y-103880606D01*
X184403656Y-103880606D01*
X184403656Y-103755194D01*
X184719569Y-103755194D01*
X184731475Y-103816312D01*
X184763225Y-103860762D01*
X184808469Y-103888544D01*
X184862444Y-103898069D01*
X184960869Y-103861556D01*
X185003731Y-103755194D01*
X184960869Y-103652006D01*
X184862444Y-103615494D01*
X184808469Y-103625019D01*
X184763225Y-103652006D01*
X184731475Y-103695663D01*
X184719569Y-103755194D01*
X184403656Y-103755194D01*
X184403656Y-103718681D01*
X183981381Y-103718681D01*
X183998050Y-103666294D01*
X184038531Y-103609938D01*
X184089331Y-103555962D01*
X184136956Y-103510719D01*
X184217919Y-103431344D01*
X184254960Y-103386894D01*
X185313294Y-103386894D01*
X185318751Y-103508734D01*
X185335122Y-103613906D01*
X185362407Y-103702409D01*
X185400606Y-103774244D01*
X185467634Y-103844799D01*
X185552301Y-103887133D01*
X185654606Y-103901244D01*
X185756912Y-103887133D01*
X185841578Y-103844799D01*
X185908606Y-103774244D01*
X185946805Y-103702409D01*
X185974091Y-103613906D01*
X185990462Y-103508734D01*
X185995919Y-103386894D01*
X185990462Y-103265797D01*
X185974091Y-103161270D01*
X185946805Y-103073313D01*
X185910730Y-103005894D01*
X186913494Y-103005894D01*
X187010331Y-103142419D01*
X187110344Y-103067806D01*
X187207181Y-103045581D01*
X187299256Y-103078125D01*
X187335769Y-103170994D01*
X187306400Y-103255131D01*
X187231788Y-103340856D01*
X187184956Y-103386298D01*
X187134950Y-103433725D01*
X187084944Y-103484128D01*
X187038113Y-103538500D01*
X186996838Y-103597436D01*
X186963500Y-103661531D01*
X186941473Y-103731381D01*
X186934131Y-103807581D01*
X186933338Y-103840919D01*
X186937306Y-103880606D01*
X187578656Y-103880606D01*
X187578656Y-103718681D01*
X187156381Y-103718681D01*
X187173050Y-103666294D01*
X187213531Y-103609938D01*
X187264331Y-103555962D01*
X187311956Y-103510719D01*
X187392919Y-103431344D01*
X187429960Y-103386894D01*
X187694544Y-103386894D01*
X187700001Y-103508734D01*
X187716372Y-103613906D01*
X187743657Y-103702409D01*
X187781856Y-103774244D01*
X187848884Y-103844799D01*
X187933551Y-103887133D01*
X188035856Y-103901244D01*
X188138162Y-103887133D01*
X188222828Y-103844799D01*
X188289856Y-103774244D01*
X188328055Y-103702409D01*
X188355341Y-103613906D01*
X188371712Y-103508734D01*
X188377169Y-103386894D01*
X188371712Y-103265797D01*
X188355341Y-103161270D01*
X188328055Y-103073313D01*
X188291980Y-103005894D01*
X188500994Y-103005894D01*
X188597831Y-103142419D01*
X188697844Y-103067806D01*
X188794681Y-103045581D01*
X188886756Y-103078125D01*
X188923269Y-103170994D01*
X188893900Y-103255131D01*
X188819288Y-103340856D01*
X188772456Y-103386298D01*
X188722450Y-103433725D01*
X188672444Y-103484128D01*
X188625613Y-103538500D01*
X188584338Y-103597436D01*
X188551000Y-103661531D01*
X188528973Y-103731381D01*
X188521631Y-103807581D01*
X188520838Y-103840919D01*
X188524806Y-103880606D01*
X189166156Y-103880606D01*
X189166156Y-103718681D01*
X188743881Y-103718681D01*
X188760550Y-103666294D01*
X188801031Y-103609938D01*
X188851831Y-103555962D01*
X188899456Y-103510719D01*
X188980419Y-103431344D01*
X189051856Y-103345619D01*
X189102656Y-103254337D01*
X189121706Y-103156706D01*
X189096306Y-103033675D01*
X189074782Y-103005894D01*
X189294744Y-103005894D01*
X189391581Y-103142419D01*
X189491594Y-103067806D01*
X189588431Y-103045581D01*
X189680506Y-103078125D01*
X189717019Y-103170994D01*
X189687650Y-103255131D01*
X189613038Y-103340856D01*
X189566206Y-103386298D01*
X189516200Y-103433725D01*
X189466194Y-103484128D01*
X189419363Y-103538500D01*
X189378088Y-103597436D01*
X189344750Y-103661531D01*
X189322723Y-103731381D01*
X189315381Y-103807581D01*
X189314588Y-103840919D01*
X189318556Y-103880606D01*
X189959906Y-103880606D01*
X189959906Y-103718681D01*
X189537631Y-103718681D01*
X189554300Y-103666294D01*
X189594781Y-103609938D01*
X189632881Y-103569456D01*
X190199619Y-103569456D01*
X190634594Y-103569456D01*
X190634594Y-103386894D01*
X190869544Y-103386894D01*
X190875001Y-103508734D01*
X190891372Y-103613906D01*
X190918657Y-103702409D01*
X190956856Y-103774244D01*
X191023884Y-103844799D01*
X191108551Y-103887133D01*
X191210856Y-103901244D01*
X191313162Y-103887133D01*
X191397828Y-103844799D01*
X191464856Y-103774244D01*
X191503055Y-103702409D01*
X191523978Y-103634544D01*
X191668056Y-103634544D01*
X191691869Y-103746463D01*
X191759338Y-103830600D01*
X191864113Y-103882988D01*
X191928605Y-103896680D01*
X191999844Y-103901244D01*
X192087553Y-103894894D01*
X192160181Y-103875844D01*
X192265750Y-103811550D01*
X192324488Y-103723444D01*
X192342744Y-103626606D01*
X192335282Y-103569456D01*
X192580869Y-103569456D01*
X193015844Y-103569456D01*
X193015844Y-103377369D01*
X192580869Y-103377369D01*
X192580869Y-103569456D01*
X192335282Y-103569456D01*
X192333417Y-103555169D01*
X192305438Y-103490081D01*
X192254836Y-103430550D01*
X192177644Y-103375781D01*
X192239556Y-103325973D01*
X192282419Y-103265450D01*
X192307422Y-103198973D01*
X192315756Y-103131306D01*
X192310116Y-103102731D01*
X193271431Y-103102731D01*
X193334931Y-103264656D01*
X193431769Y-103225762D01*
X193533369Y-103169406D01*
X193533369Y-103718681D01*
X193326994Y-103718681D01*
X193326994Y-103880606D01*
X193923894Y-103880606D01*
X193923894Y-103718681D01*
X193728631Y-103718681D01*
X193728631Y-103648831D01*
X194031844Y-103648831D01*
X194441419Y-103648831D01*
X194441419Y-103880606D01*
X194636681Y-103880606D01*
X194636681Y-103648831D01*
X194743044Y-103648831D01*
X194743044Y-103488494D01*
X194636681Y-103488494D01*
X194636681Y-102897944D01*
X194462056Y-102897944D01*
X194398556Y-102965611D01*
X194335056Y-103041612D01*
X194273144Y-103122377D01*
X194214406Y-103204331D01*
X194159638Y-103285889D01*
X194109631Y-103365462D01*
X194066372Y-103439877D01*
X194031844Y-103505956D01*
X194031844Y-103648831D01*
X193728631Y-103648831D01*
X193728631Y-102897944D01*
X193595281Y-102897944D01*
X193527019Y-102959856D01*
X193442881Y-103017006D01*
X193353981Y-103066219D01*
X193271431Y-103102731D01*
X192310116Y-103102731D01*
X192294920Y-103025737D01*
X192232413Y-102943981D01*
X192134583Y-102891594D01*
X192007781Y-102874131D01*
X191926025Y-102880878D01*
X191858556Y-102901119D01*
X191761719Y-102969381D01*
X191708538Y-103062250D01*
X191691869Y-103161469D01*
X191717269Y-103275769D01*
X191753781Y-103328156D01*
X191812519Y-103377369D01*
X191747828Y-103431939D01*
X191702981Y-103494050D01*
X191676788Y-103562114D01*
X191668056Y-103634544D01*
X191523978Y-103634544D01*
X191530341Y-103613906D01*
X191546712Y-103508734D01*
X191552169Y-103386894D01*
X191546712Y-103265797D01*
X191530341Y-103161270D01*
X191503055Y-103073313D01*
X191464856Y-103001925D01*
X191397828Y-102931810D01*
X191313162Y-102889742D01*
X191210856Y-102875719D01*
X191110138Y-102889830D01*
X191026001Y-102932163D01*
X190958444Y-103002719D01*
X190919550Y-103074355D01*
X190891769Y-103162262D01*
X190875100Y-103266442D01*
X190869544Y-103386894D01*
X190634594Y-103386894D01*
X190634594Y-103377369D01*
X190199619Y-103377369D01*
X190199619Y-103569456D01*
X189632881Y-103569456D01*
X189645581Y-103555962D01*
X189693206Y-103510719D01*
X189774169Y-103431344D01*
X189845606Y-103345619D01*
X189896406Y-103254337D01*
X189915456Y-103156706D01*
X189890056Y-103033675D01*
X189821794Y-102945569D01*
X189723369Y-102893181D01*
X189607481Y-102875719D01*
X189524733Y-102883656D01*
X189441588Y-102907469D01*
X189363205Y-102947950D01*
X189294744Y-103005894D01*
X189074782Y-103005894D01*
X189028044Y-102945569D01*
X188929619Y-102893181D01*
X188813731Y-102875719D01*
X188730983Y-102883656D01*
X188647838Y-102907469D01*
X188569455Y-102947950D01*
X188500994Y-103005894D01*
X188291980Y-103005894D01*
X188289856Y-103001925D01*
X188222828Y-102931810D01*
X188138162Y-102889742D01*
X188035856Y-102875719D01*
X187935138Y-102889830D01*
X187851001Y-102932163D01*
X187783444Y-103002719D01*
X187744550Y-103074355D01*
X187716769Y-103162262D01*
X187700100Y-103266442D01*
X187694544Y-103386894D01*
X187429960Y-103386894D01*
X187464356Y-103345619D01*
X187515156Y-103254337D01*
X187534206Y-103156706D01*
X187508806Y-103033675D01*
X187440544Y-102945569D01*
X187342119Y-102893181D01*
X187226231Y-102875719D01*
X187143483Y-102883656D01*
X187060338Y-102907469D01*
X186981955Y-102947950D01*
X186913494Y-103005894D01*
X185910730Y-103005894D01*
X185908606Y-103001925D01*
X185841578Y-102931810D01*
X185756912Y-102889742D01*
X185654606Y-102875719D01*
X185553888Y-102889830D01*
X185469751Y-102932163D01*
X185402194Y-103002719D01*
X185363300Y-103074355D01*
X185335519Y-103162262D01*
X185318850Y-103266442D01*
X185313294Y-103386894D01*
X184254960Y-103386894D01*
X184289356Y-103345619D01*
X184340156Y-103254337D01*
X184359206Y-103156706D01*
X184333806Y-103033675D01*
X184265544Y-102945569D01*
X184167119Y-102893181D01*
X184051231Y-102875719D01*
X183968483Y-102883656D01*
X183885338Y-102907469D01*
X183806955Y-102947950D01*
X183738494Y-103005894D01*
X181936681Y-103005894D01*
X181936681Y-102897944D01*
X181762056Y-102897944D01*
X181698556Y-102965611D01*
X181635056Y-103041612D01*
X181573144Y-103122377D01*
X181514406Y-103204331D01*
X181459638Y-103285889D01*
X181409631Y-103365462D01*
X181366372Y-103439877D01*
X181331844Y-103505956D01*
X181331844Y-103648831D01*
X181204540Y-103648831D01*
X181217544Y-103566281D01*
X181200875Y-103445631D01*
X181146106Y-103345619D01*
X181048475Y-103277356D01*
X180982395Y-103258306D01*
X180903219Y-103251956D01*
X180852419Y-103259100D01*
X180793681Y-103278944D01*
X180848450Y-103175756D01*
X180936556Y-103108287D01*
X181047681Y-103070981D01*
X181171506Y-103058281D01*
X181160394Y-102891594D01*
X181032997Y-102901119D01*
X180917506Y-102929694D01*
X180815906Y-102976922D01*
X180730181Y-103042406D01*
X180661323Y-103125750D01*
X180610325Y-103226556D01*
X180578773Y-103344428D01*
X180568256Y-103478969D01*
X180123756Y-103478969D01*
X180123756Y-103296406D01*
X180436494Y-103296406D01*
X180436494Y-103134481D01*
X180123756Y-103134481D01*
X180123756Y-102915406D01*
X179928494Y-102947156D01*
X179928494Y-103134481D01*
X179758631Y-103134481D01*
X179758631Y-103296406D01*
X179608515Y-103296406D01*
X179636394Y-103151944D01*
X179575275Y-103136862D01*
X179507806Y-103127337D01*
X179445100Y-103121781D01*
X179399856Y-103120194D01*
X179297264Y-103124559D01*
X179208563Y-103137656D01*
X179127798Y-103157897D01*
X179049019Y-103183694D01*
X179049019Y-103880606D01*
X178714286Y-103880606D01*
X178814069Y-103863144D01*
X178814069Y-103418644D01*
X178798194Y-103292438D01*
X178745806Y-103197187D01*
X178648175Y-103136862D01*
X178579317Y-103120789D01*
X178494981Y-103115431D01*
X178424734Y-103118011D01*
X178356869Y-103125750D01*
X178253681Y-103148769D01*
X178280669Y-103305931D01*
X178364013Y-103286881D01*
X178471169Y-103278944D01*
X178544194Y-103288270D01*
X178591819Y-103316250D01*
X178626744Y-103409119D01*
X178626744Y-103432931D01*
X178563641Y-103423406D01*
X178491806Y-103420231D01*
X178375919Y-103432137D01*
X178277494Y-103471031D01*
X178209231Y-103542469D01*
X178183831Y-103652006D01*
X177631194Y-103652006D01*
X177619475Y-103641687D01*
X177587284Y-103573160D01*
X177567969Y-103487171D01*
X177561531Y-103383719D01*
X177566889Y-103294819D01*
X177582963Y-103221794D01*
X177638525Y-103117812D01*
X177716313Y-103062250D01*
X177806006Y-103045581D01*
X177924275Y-103062250D01*
X178012381Y-103102731D01*
X178063181Y-102947156D01*
X178030638Y-102928106D01*
X177977456Y-102904294D01*
X177903638Y-102884450D01*
X177809181Y-102875719D01*
X177716114Y-102884252D01*
X177630588Y-102909850D01*
X177554388Y-102951919D01*
X177489300Y-103009862D01*
X177436317Y-103083086D01*
X177396431Y-103170994D01*
X177371428Y-103272991D01*
X177363094Y-103388481D01*
X177260926Y-103388481D01*
X177250381Y-103346412D01*
X177219623Y-103279341D01*
X177178150Y-103222587D01*
X177126953Y-103176947D01*
X177067025Y-103143212D01*
X176999358Y-103122377D01*
X176924944Y-103115431D01*
X176851522Y-103122377D01*
X176783656Y-103143212D01*
X176723133Y-103176947D01*
X176671738Y-103222587D01*
X176630066Y-103279341D01*
X176598713Y-103346412D01*
X176579067Y-103422414D01*
X176572519Y-103505956D01*
X176001246Y-103505956D01*
X176013719Y-103418644D01*
X176054994Y-103348000D01*
X176130400Y-103301963D01*
X176247081Y-103285294D01*
X176346300Y-103294025D01*
X176416944Y-103313869D01*
X176459806Y-103156706D01*
X176350269Y-103124956D01*
X176229619Y-103115431D01*
X176126233Y-103123170D01*
X176038325Y-103146387D01*
X175965102Y-103182900D01*
X175905769Y-103230525D01*
X175860128Y-103288270D01*
X175827981Y-103355144D01*
X175808931Y-103428962D01*
X175802581Y-103507544D01*
X175397769Y-103507544D01*
X175397769Y-103134481D01*
X174996131Y-103134481D01*
X174885738Y-103134481D01*
X174883066Y-103109875D01*
X174848670Y-103026002D01*
X174791344Y-102963825D01*
X174713203Y-102921051D01*
X174709875Y-102920169D01*
X175143769Y-102920169D01*
X175179488Y-103010656D01*
X175266006Y-103043994D01*
X175353319Y-103010656D01*
X175389831Y-102920169D01*
X175353319Y-102828094D01*
X175266006Y-102794756D01*
X175179488Y-102828094D01*
X175143769Y-102920169D01*
X174709875Y-102920169D01*
X174616366Y-102895386D01*
X174500831Y-102886831D01*
X174438919Y-102888419D01*
X174367481Y-102892387D01*
X174295250Y-102899531D01*
X174230956Y-102910644D01*
X174230956Y-103880606D01*
X173196007Y-103880606D01*
X173165230Y-103839109D01*
X173120633Y-103764702D01*
X173083543Y-103686282D01*
X173054318Y-103604604D01*
X173033239Y-103520455D01*
X173020511Y-103434644D01*
X173016254Y-103348000D01*
X173020511Y-103261356D01*
X173033239Y-103175545D01*
X173054318Y-103091396D01*
X173083543Y-103009718D01*
X173120633Y-102931298D01*
X173165230Y-102856891D01*
X173216907Y-102787214D01*
X173275164Y-102722937D01*
X173339441Y-102664680D01*
X173409118Y-102613003D01*
X173483525Y-102568405D01*
X173561945Y-102531316D01*
X173643623Y-102502091D01*
X173727773Y-102481012D01*
X173813583Y-102468284D01*
X173900227Y-102464027D01*
X195073773Y-102464027D01*
X195160417Y-102468284D01*
X195246227Y-102481012D01*
X195330377Y-102502091D01*
X195412055Y-102531316D01*
X195490475Y-102568405D01*
X195564882Y-102613003D01*
X195634559Y-102664680D01*
X195698836Y-102722937D01*
X195757093Y-102787214D01*
X195808770Y-102856891D01*
X195853367Y-102931298D01*
X195890457Y-103009718D01*
X195919682Y-103091396D01*
X195940761Y-103175545D01*
X195953489Y-103261356D01*
X195957746Y-103348000D01*
X195953489Y-103434644D01*
X195940761Y-103520455D01*
X195919682Y-103604604D01*
X195890457Y-103686282D01*
X195853367Y-103764702D01*
X195808770Y-103839109D01*
X195757093Y-103908786D01*
X195698836Y-103973063D01*
X195634559Y-104031320D01*
X195564882Y-104082997D01*
X195490475Y-104127595D01*
X195412055Y-104164684D01*
X195330377Y-104193909D01*
X195246227Y-104214988D01*
X195160417Y-104227716D01*
X195073773Y-104231973D01*
X173900227Y-104231973D01*
X173813583Y-104227716D01*
G37*
D10*
X99744000Y-72454600D02*
X101694000Y-72454600D01*
X99744000Y-72454600D02*
X99744000Y-63254600D01*
X103344000Y-63254600D02*
X105644000Y-63254600D01*
X103344000Y-72454600D02*
X105644000Y-72454600D01*
X99744000Y-63254600D02*
X101694000Y-63254600D01*
X99752600Y-73350800D02*
X101702600Y-73350800D01*
X99752600Y-82550800D02*
X99752600Y-73350800D01*
X103352600Y-82550800D02*
X105652600Y-82550800D01*
X99752600Y-82550800D02*
X101702600Y-82550800D01*
X103352600Y-73350800D02*
X105652600Y-73350800D01*
D13*
X142782000Y-77095164D02*
X142782000Y-77310836D01*
X143502000Y-77095164D02*
X143502000Y-77310836D01*
X162826000Y-89368359D02*
X162826000Y-89675641D01*
X162066000Y-89368359D02*
X162066000Y-89675641D01*
X142049836Y-85564000D02*
X141834164Y-85564000D01*
X142049836Y-84844000D02*
X141834164Y-84844000D01*
X122745836Y-85564000D02*
X122530164Y-85564000D01*
X122745836Y-84844000D02*
X122530164Y-84844000D01*
G36*
X120109756Y-64937181D02*
G01*
X120154206Y-64953056D01*
X120184369Y-64986394D01*
X120195481Y-65042750D01*
X120157381Y-65132444D01*
X120044669Y-65164987D01*
X119968469Y-65164987D01*
X119968469Y-64939562D01*
X120011331Y-64934800D01*
X120057369Y-64933212D01*
X120109756Y-64937181D01*
G37*
G36*
X121752819Y-64949087D02*
G01*
X121799650Y-65022112D01*
X121821875Y-65130856D01*
X121826042Y-65195745D01*
X121827431Y-65265000D01*
X121826042Y-65334056D01*
X121821875Y-65398350D01*
X121799650Y-65507094D01*
X121752025Y-65580912D01*
X121671856Y-65607900D01*
X121590894Y-65580912D01*
X121544063Y-65507887D01*
X121521838Y-65399144D01*
X121517670Y-65334255D01*
X121516281Y-65265000D01*
X121517670Y-65195944D01*
X121521838Y-65131650D01*
X121544063Y-65022906D01*
X121590894Y-64949087D01*
X121671856Y-64922100D01*
X121752819Y-64949087D01*
G37*
G36*
X120959069Y-64949087D02*
G01*
X121005900Y-65022112D01*
X121028125Y-65130856D01*
X121032292Y-65195745D01*
X121033681Y-65265000D01*
X121032292Y-65334056D01*
X121028125Y-65398350D01*
X121005900Y-65507094D01*
X120958275Y-65580912D01*
X120878106Y-65607900D01*
X120797144Y-65580912D01*
X120750313Y-65507887D01*
X120728088Y-65399144D01*
X120723920Y-65334255D01*
X120722531Y-65265000D01*
X120723920Y-65195944D01*
X120728088Y-65131650D01*
X120750313Y-65022906D01*
X120797144Y-64949087D01*
X120878106Y-64922100D01*
X120959069Y-64949087D01*
G37*
G36*
X120194687Y-65357869D02*
G01*
X120239931Y-65460262D01*
X120224056Y-65530906D01*
X120183575Y-65573769D01*
X120127219Y-65594406D01*
X120062131Y-65599962D01*
X120013713Y-65598375D01*
X119968469Y-65593612D01*
X119968469Y-65326912D01*
X120073244Y-65326912D01*
X120194687Y-65357869D01*
G37*
G36*
X119359800Y-66104430D02*
G01*
X119277920Y-66092284D01*
X119197624Y-66072171D01*
X119119687Y-66044285D01*
X119044858Y-66008893D01*
X118973858Y-65966338D01*
X118907372Y-65917028D01*
X118846038Y-65861439D01*
X118790449Y-65800105D01*
X118746799Y-65741250D01*
X119773206Y-65741250D01*
X119841866Y-65753752D01*
X119911319Y-65762681D01*
X119979978Y-65768039D01*
X120046256Y-65769825D01*
X120124639Y-65766055D01*
X120197863Y-65754744D01*
X120263744Y-65734503D01*
X120320100Y-65703944D01*
X120401856Y-65608694D01*
X120424478Y-65541820D01*
X120432019Y-65460262D01*
X120423089Y-65393587D01*
X120396300Y-65330087D01*
X120344508Y-65274525D01*
X120325855Y-65265000D01*
X120524094Y-65265000D01*
X120529799Y-65384211D01*
X120546914Y-65487845D01*
X120575439Y-65575902D01*
X120615375Y-65648381D01*
X120685313Y-65720260D01*
X120773419Y-65763387D01*
X120879694Y-65777762D01*
X120983410Y-65763387D01*
X121070194Y-65720260D01*
X121140044Y-65648381D01*
X121180327Y-65575902D01*
X121209100Y-65487845D01*
X121226364Y-65384211D01*
X121232119Y-65265000D01*
X121317844Y-65265000D01*
X121323549Y-65384211D01*
X121340664Y-65487845D01*
X121369189Y-65575902D01*
X121409125Y-65648381D01*
X121479063Y-65720260D01*
X121567169Y-65763387D01*
X121673444Y-65777762D01*
X121777160Y-65763387D01*
X121863944Y-65720260D01*
X121933794Y-65648381D01*
X121974077Y-65575902D01*
X122002850Y-65487845D01*
X122020114Y-65384211D01*
X122025869Y-65265000D01*
X122020213Y-65145789D01*
X122003247Y-65042155D01*
X121974970Y-64954098D01*
X121965296Y-64936387D01*
X122108419Y-64936387D01*
X122367181Y-64936387D01*
X122367181Y-65757125D01*
X122564031Y-65757125D01*
X122564031Y-64936387D01*
X122822794Y-64936387D01*
X122822794Y-64774462D01*
X122108419Y-64774462D01*
X122108419Y-64936387D01*
X121965296Y-64936387D01*
X121935381Y-64881619D01*
X121865884Y-64809740D01*
X121778042Y-64766613D01*
X121671856Y-64752237D01*
X121568845Y-64766613D01*
X121482062Y-64809740D01*
X121411506Y-64881619D01*
X121370529Y-64954098D01*
X121341259Y-65042155D01*
X121323698Y-65145789D01*
X121317844Y-65265000D01*
X121232119Y-65265000D01*
X121226463Y-65145789D01*
X121209497Y-65042155D01*
X121181220Y-64954098D01*
X121141631Y-64881619D01*
X121072134Y-64809740D01*
X120984292Y-64766613D01*
X120878106Y-64752237D01*
X120775095Y-64766613D01*
X120688312Y-64809740D01*
X120617756Y-64881619D01*
X120576779Y-64954098D01*
X120547509Y-65042155D01*
X120529948Y-65145789D01*
X120524094Y-65265000D01*
X120325855Y-65265000D01*
X120260569Y-65231662D01*
X120351850Y-65145937D01*
X120377448Y-65087994D01*
X120385981Y-65022112D01*
X120371694Y-64930037D01*
X120317719Y-64846694D01*
X120208181Y-64786369D01*
X120128012Y-64769105D01*
X120027206Y-64763350D01*
X119895444Y-64770494D01*
X119773206Y-64787162D01*
X119773206Y-65741250D01*
X118746799Y-65741250D01*
X118741139Y-65733619D01*
X118698584Y-65662619D01*
X118663192Y-65587790D01*
X118635306Y-65509853D01*
X118615193Y-65429557D01*
X118603047Y-65347677D01*
X118598985Y-65265000D01*
X118603047Y-65182323D01*
X118615193Y-65100443D01*
X118635306Y-65020147D01*
X118663192Y-64942210D01*
X118698584Y-64867381D01*
X118741139Y-64796381D01*
X118790449Y-64729895D01*
X118846038Y-64668561D01*
X118907372Y-64612972D01*
X118973858Y-64563662D01*
X119044858Y-64521107D01*
X119119687Y-64485715D01*
X119197624Y-64457829D01*
X119277920Y-64437716D01*
X119359800Y-64425570D01*
X119442477Y-64421508D01*
X123153523Y-64421508D01*
X123236200Y-64425570D01*
X123318080Y-64437716D01*
X123398376Y-64457829D01*
X123476313Y-64485715D01*
X123551142Y-64521107D01*
X123622142Y-64563662D01*
X123688628Y-64612972D01*
X123749962Y-64668561D01*
X123805551Y-64729895D01*
X123854861Y-64796381D01*
X123897416Y-64867381D01*
X123932808Y-64942210D01*
X123960694Y-65020147D01*
X123980807Y-65100443D01*
X123992953Y-65182323D01*
X123997015Y-65265000D01*
X123992953Y-65347677D01*
X123980807Y-65429557D01*
X123960694Y-65509853D01*
X123932808Y-65587790D01*
X123897416Y-65662619D01*
X123854861Y-65733619D01*
X123805551Y-65800105D01*
X123749962Y-65861439D01*
X123688628Y-65917028D01*
X123622142Y-65966338D01*
X123551142Y-66008893D01*
X123476313Y-66044285D01*
X123398376Y-66072171D01*
X123318080Y-66092284D01*
X123236200Y-66104430D01*
X123153523Y-66108492D01*
X119442477Y-66108492D01*
X119359800Y-66104430D01*
G37*
X154510000Y-83299000D02*
G75*
G03*
X154510000Y-83299000I-700000J0D01*
G01*
X116461500Y-93915000D02*
X114809000Y-93915000D01*
X119209000Y-99127500D02*
X121956500Y-99127500D01*
X121956500Y-93632500D02*
X121956500Y-93915000D01*
X119209000Y-93632500D02*
X116461500Y-93632500D01*
X119209000Y-93632500D02*
X121956500Y-93632500D01*
X116461500Y-93632500D02*
X116461500Y-93915000D01*
X116461500Y-99127500D02*
X116461500Y-98845000D01*
X119209000Y-99127500D02*
X116461500Y-99127500D01*
X121956500Y-99127500D02*
X121956500Y-98845000D01*
X122745836Y-92464000D02*
X122530164Y-92464000D01*
X122745836Y-93184000D02*
X122530164Y-93184000D01*
X136419836Y-75065000D02*
X136204164Y-75065000D01*
X136419836Y-75785000D02*
X136204164Y-75785000D01*
X105523600Y-61483641D02*
X105523600Y-61176359D01*
X104763600Y-61483641D02*
X104763600Y-61176359D01*
X150996836Y-93480000D02*
X150781164Y-93480000D01*
X150996836Y-94200000D02*
X150781164Y-94200000D01*
X144391000Y-64042164D02*
X144391000Y-64257836D01*
X143671000Y-64042164D02*
X143671000Y-64257836D01*
X158129000Y-63640641D02*
X158129000Y-63333359D01*
X158889000Y-63640641D02*
X158889000Y-63333359D01*
X109443000Y-99127500D02*
X112190500Y-99127500D01*
X106695500Y-99127500D02*
X106695500Y-98845000D01*
X112190500Y-93632500D02*
X112190500Y-93915000D01*
X109443000Y-93632500D02*
X112190500Y-93632500D01*
X109443000Y-93632500D02*
X106695500Y-93632500D01*
X106695500Y-93915000D02*
X105043000Y-93915000D01*
X106695500Y-93632500D02*
X106695500Y-93915000D01*
X112190500Y-99127500D02*
X112190500Y-98845000D01*
X109443000Y-99127500D02*
X106695500Y-99127500D01*
X153494000Y-85077000D02*
G75*
G03*
X153494000Y-85077000I-700000J0D01*
G01*
X158403000Y-101352164D02*
X158403000Y-101567836D01*
X159123000Y-101352164D02*
X159123000Y-101567836D01*
X142049836Y-93184000D02*
X141834164Y-93184000D01*
X142049836Y-92464000D02*
X141834164Y-92464000D01*
X138780000Y-86012500D02*
X136032500Y-86012500D01*
X136032500Y-91507500D02*
X136032500Y-91225000D01*
X136032500Y-86012500D02*
X136032500Y-86295000D01*
X138780000Y-91507500D02*
X141527500Y-91507500D01*
X141527500Y-86012500D02*
X141527500Y-86295000D01*
X141527500Y-91507500D02*
X141527500Y-91225000D01*
X138780000Y-91507500D02*
X136032500Y-91507500D01*
X136032500Y-86295000D02*
X134380000Y-86295000D01*
X138780000Y-86012500D02*
X141527500Y-86012500D01*
X120497020Y-73645000D02*
X120778180Y-73645000D01*
X120497020Y-74665000D02*
X120778180Y-74665000D01*
X166785000Y-94494164D02*
X166785000Y-94709836D01*
X167505000Y-94494164D02*
X167505000Y-94709836D01*
X110194400Y-62859000D02*
X112844400Y-62859000D01*
X110194400Y-62859000D02*
X110194400Y-60559000D01*
X110194400Y-60559000D02*
X112844400Y-60559000D01*
X146269000Y-67457000D02*
X146919000Y-67457000D01*
X146269000Y-74757000D02*
X147206500Y-74757000D01*
X140269000Y-67457000D02*
X139619000Y-67457000D01*
X139619000Y-74757000D02*
X139619000Y-74107000D01*
X139619000Y-67457000D02*
X139619000Y-68107000D01*
X146919000Y-67457000D02*
X146919000Y-68107000D01*
X140269000Y-74757000D02*
X139619000Y-74757000D01*
X143248000Y-64229836D02*
X143248000Y-64014164D01*
X142528000Y-64229836D02*
X142528000Y-64014164D01*
X177342000Y-106917000D02*
X177342000Y-106417000D01*
X174982000Y-106917000D02*
X174982000Y-106417000D01*
X160946000Y-98053000D02*
X160946000Y-98703000D01*
X153646000Y-91403000D02*
X154296000Y-91403000D01*
X153646000Y-92053000D02*
X153646000Y-91403000D01*
X160946000Y-91403000D02*
X160296000Y-91403000D01*
X153646000Y-98053000D02*
X153646000Y-98990500D01*
X160946000Y-92053000D02*
X160946000Y-91403000D01*
X160946000Y-98703000D02*
X160296000Y-98703000D01*
X144667000Y-65042000D02*
X147967000Y-65042000D01*
X144667000Y-62242000D02*
X144667000Y-65042000D01*
X113987221Y-69404600D02*
X114312779Y-69404600D01*
X113987221Y-70424600D02*
X114312779Y-70424600D01*
X162790000Y-106917000D02*
X162790000Y-106417000D01*
X165150000Y-106917000D02*
X165150000Y-106417000D01*
X136391836Y-78071000D02*
X136176164Y-78071000D01*
X136391836Y-77351000D02*
X136176164Y-77351000D01*
X167781000Y-93202000D02*
X167781000Y-96002000D01*
X167781000Y-96002000D02*
X171081000Y-96002000D01*
X129001000Y-93632500D02*
X131748500Y-93632500D01*
X126253500Y-99127500D02*
X126253500Y-98845000D01*
X131748500Y-99127500D02*
X131748500Y-98845000D01*
X126253500Y-93632500D02*
X126253500Y-93915000D01*
X131748500Y-93632500D02*
X131748500Y-93915000D01*
X126253500Y-93915000D02*
X124601000Y-93915000D01*
X129001000Y-99127500D02*
X131748500Y-99127500D01*
X129001000Y-93632500D02*
X126253500Y-93632500D01*
X129001000Y-99127500D02*
X126253500Y-99127500D01*
X138780000Y-99127500D02*
X136032500Y-99127500D01*
X138780000Y-93632500D02*
X141527500Y-93632500D01*
X141527500Y-93632500D02*
X141527500Y-93915000D01*
X136032500Y-99127500D02*
X136032500Y-98845000D01*
X136032500Y-93915000D02*
X134380000Y-93915000D01*
X138780000Y-99127500D02*
X141527500Y-99127500D01*
X136032500Y-93632500D02*
X136032500Y-93915000D01*
X138780000Y-93632500D02*
X136032500Y-93632500D01*
X141527500Y-99127500D02*
X141527500Y-98845000D01*
X107481641Y-84314000D02*
X107174359Y-84314000D01*
X107481641Y-83554000D02*
X107174359Y-83554000D01*
X141766000Y-77095164D02*
X141766000Y-77310836D01*
X142486000Y-77095164D02*
X142486000Y-77310836D01*
X113093836Y-92464000D02*
X112878164Y-92464000D01*
X113093836Y-93184000D02*
X112878164Y-93184000D01*
X129001000Y-86012500D02*
X131748500Y-86012500D01*
X126253500Y-86012500D02*
X126253500Y-86295000D01*
X131748500Y-86012500D02*
X131748500Y-86295000D01*
X129001000Y-91507500D02*
X126253500Y-91507500D01*
X129001000Y-86012500D02*
X126253500Y-86012500D01*
X129001000Y-91507500D02*
X131748500Y-91507500D01*
X126253500Y-91507500D02*
X126253500Y-91225000D01*
X131748500Y-91507500D02*
X131748500Y-91225000D01*
X126253500Y-86295000D02*
X124601000Y-86295000D01*
X136391836Y-74642000D02*
X136176164Y-74642000D01*
X136391836Y-73922000D02*
X136176164Y-73922000D01*
X125936000Y-107035000D02*
X125936000Y-102235000D01*
X115136000Y-107035000D02*
X115536000Y-107035000D01*
X115136000Y-107035000D02*
X115136000Y-102235000D01*
X115536000Y-107035000D02*
X115536000Y-108435000D01*
X118238000Y-64154000D02*
X118238000Y-60534000D01*
X124358000Y-64154000D02*
X118238000Y-64154000D01*
X124358000Y-60534000D02*
X124358000Y-64154000D01*
X118238000Y-60534000D02*
X124358000Y-60534000D01*
X150354359Y-85838000D02*
X150661641Y-85838000D01*
X150354359Y-85078000D02*
X150661641Y-85078000D01*
X172077000Y-94709836D02*
X172077000Y-94494164D01*
X171357000Y-94709836D02*
X171357000Y-94494164D01*
X187042500Y-72685000D02*
X187042500Y-73915000D01*
X198682500Y-63215000D02*
X198682500Y-64075000D01*
X187042500Y-66715000D02*
X187042500Y-70385000D01*
X197312500Y-61735000D02*
X192862500Y-61735000D01*
X187042500Y-61735000D02*
X187042500Y-64415000D01*
X187042500Y-73915000D02*
X196862500Y-73915000D01*
X187762500Y-61735000D02*
X187042500Y-61735000D01*
X191462500Y-61735000D02*
X189162500Y-61735000D01*
X116391600Y-73285000D02*
X112631600Y-73285000D01*
X112631600Y-80105000D02*
X112631600Y-78845000D01*
X112631600Y-73285000D02*
X112631600Y-74545000D01*
X118641600Y-80105000D02*
X112631600Y-80105000D01*
X172770000Y-106917000D02*
X172770000Y-106417000D01*
X170410000Y-106917000D02*
X170410000Y-106417000D01*
X132397836Y-93184000D02*
X132182164Y-93184000D01*
X132397836Y-92464000D02*
X132182164Y-92464000D01*
X153662000Y-89629836D02*
X153662000Y-89414164D01*
X152942000Y-89629836D02*
X152942000Y-89414164D01*
X164497164Y-93057000D02*
X164712836Y-93057000D01*
X164497164Y-92337000D02*
X164712836Y-92337000D01*
X123431600Y-78509000D02*
X122781600Y-78509000D01*
X123431600Y-78509000D02*
X124081600Y-78509000D01*
X123431600Y-75389000D02*
X124081600Y-75389000D01*
X123431600Y-75389000D02*
X121756600Y-75389000D01*
X122543600Y-73747359D02*
X122543600Y-74054641D01*
X123303600Y-73747359D02*
X123303600Y-74054641D01*
X154764000Y-86855000D02*
G75*
G03*
X154764000Y-86855000I-700000J0D01*
G01*
X172927000Y-86347000D02*
X172927000Y-99107000D01*
X172927000Y-86347000D02*
X175587000Y-86347000D01*
X172927000Y-99107000D02*
X175587000Y-99107000D01*
X172927000Y-83747000D02*
X174257000Y-83747000D01*
X175587000Y-86347000D02*
X175587000Y-99107000D01*
X172927000Y-85077000D02*
X172927000Y-83747000D01*
X150100359Y-75045000D02*
X150407641Y-75045000D01*
X150100359Y-75805000D02*
X150407641Y-75805000D01*
X178050000Y-60275000D02*
X160100000Y-60275000D01*
X160050000Y-74275000D02*
X160050000Y-74025000D01*
X178050000Y-54275000D02*
X178050000Y-60775000D01*
X178050000Y-74275000D02*
X160050000Y-74275000D01*
X160050000Y-54275000D02*
X160050000Y-60775000D01*
X160050000Y-54275000D02*
X178050000Y-54275000D01*
X178050000Y-74025000D02*
X178050000Y-74275000D01*
X133618000Y-106513359D02*
X133618000Y-106820641D01*
X134378000Y-106513359D02*
X134378000Y-106820641D01*
X153323000Y-101352164D02*
X153323000Y-101567836D01*
X154043000Y-101352164D02*
X154043000Y-101567836D01*
X113093836Y-84844000D02*
X112878164Y-84844000D01*
X113093836Y-85564000D02*
X112878164Y-85564000D01*
X132397836Y-85564000D02*
X132182164Y-85564000D01*
X132397836Y-84844000D02*
X132182164Y-84844000D01*
X123064180Y-79999000D02*
X122783020Y-79999000D01*
X123064180Y-78979000D02*
X122783020Y-78979000D01*
X150146164Y-73922000D02*
X150361836Y-73922000D01*
X150146164Y-74642000D02*
X150361836Y-74642000D01*
X104253600Y-61483641D02*
X104253600Y-61176359D01*
X103493600Y-61483641D02*
X103493600Y-61176359D01*
X120255359Y-69582000D02*
X120562641Y-69582000D01*
X120255359Y-68822000D02*
X120562641Y-68822000D01*
X112168000Y-101275000D02*
X112168000Y-101535000D01*
X109443000Y-101275000D02*
X106718000Y-101275000D01*
X106718000Y-106725000D02*
X106718000Y-106465000D01*
X109443000Y-101275000D02*
X112168000Y-101275000D01*
X112168000Y-106725000D02*
X112168000Y-106465000D01*
X109443000Y-106725000D02*
X112168000Y-106725000D01*
X109443000Y-106725000D02*
X106718000Y-106725000D01*
X106718000Y-101275000D02*
X106718000Y-101535000D01*
X106718000Y-101535000D02*
X105043000Y-101535000D01*
X161086000Y-106917000D02*
X161086000Y-106417000D01*
X158726000Y-106917000D02*
X158726000Y-106417000D01*
X148243000Y-64257836D02*
X148243000Y-64042164D01*
X148963000Y-64257836D02*
X148963000Y-64042164D01*
X183803000Y-62744164D02*
X183803000Y-62959836D01*
X184523000Y-62744164D02*
X184523000Y-62959836D01*
X150661641Y-86981000D02*
X150354359Y-86981000D01*
X150661641Y-86221000D02*
X150354359Y-86221000D01*
X106059000Y-61176359D02*
X106059000Y-61483641D01*
X106819000Y-61176359D02*
X106819000Y-61483641D01*
X164497164Y-93480000D02*
X164712836Y-93480000D01*
X164497164Y-94200000D02*
X164712836Y-94200000D01*
X157022000Y-106917000D02*
X157022000Y-106417000D01*
X154662000Y-106917000D02*
X154662000Y-106417000D01*
X140347000Y-63968359D02*
X140347000Y-64275641D01*
X139587000Y-63968359D02*
X139587000Y-64275641D01*
X151926000Y-89629836D02*
X151926000Y-89414164D01*
X152646000Y-89629836D02*
X152646000Y-89414164D01*
X150926000Y-106917000D02*
X150926000Y-106417000D01*
X148566000Y-106917000D02*
X148566000Y-106417000D01*
X121956500Y-86012500D02*
X121956500Y-86295000D01*
X119209000Y-91507500D02*
X121956500Y-91507500D01*
X119209000Y-91507500D02*
X116461500Y-91507500D01*
X116461500Y-91507500D02*
X116461500Y-91225000D01*
X119209000Y-86012500D02*
X121956500Y-86012500D01*
X119209000Y-86012500D02*
X116461500Y-86012500D01*
X116461500Y-86295000D02*
X114809000Y-86295000D01*
X116461500Y-86012500D02*
X116461500Y-86295000D01*
X121956500Y-91507500D02*
X121956500Y-91225000D01*
X123064180Y-80757000D02*
X122783020Y-80757000D01*
X123064180Y-81777000D02*
X122783020Y-81777000D01*
X115982100Y-66498600D02*
X114082100Y-66498600D01*
X114382100Y-68298600D02*
X115982100Y-68298600D01*
X133108000Y-106820641D02*
X133108000Y-106513359D01*
X132348000Y-106820641D02*
X132348000Y-106513359D01*
X112995836Y-99957000D02*
X112780164Y-99957000D01*
X112995836Y-100677000D02*
X112780164Y-100677000D01*
X136391836Y-69477000D02*
X136176164Y-69477000D01*
X136391836Y-70197000D02*
X136176164Y-70197000D01*
X127139000Y-107656359D02*
X127139000Y-107963641D01*
X126379000Y-107656359D02*
X126379000Y-107963641D01*
X136391836Y-76928000D02*
X136176164Y-76928000D01*
X136391836Y-76208000D02*
X136176164Y-76208000D01*
X110857359Y-80633000D02*
X111164641Y-80633000D01*
X110857359Y-81393000D02*
X111164641Y-81393000D01*
X150400164Y-69477000D02*
X150615836Y-69477000D01*
X150400164Y-70197000D02*
X150615836Y-70197000D01*
X153958000Y-89629836D02*
X153958000Y-89414164D01*
X154678000Y-89629836D02*
X154678000Y-89414164D01*
X109443000Y-86012500D02*
X112190500Y-86012500D01*
X109443000Y-91507500D02*
X112190500Y-91507500D01*
X112190500Y-91507500D02*
X112190500Y-91225000D01*
X106695500Y-91507500D02*
X106695500Y-91225000D01*
X106695500Y-86295000D02*
X105043000Y-86295000D01*
X112190500Y-86012500D02*
X112190500Y-86295000D01*
X109443000Y-91507500D02*
X106695500Y-91507500D01*
X109443000Y-86012500D02*
X106695500Y-86012500D01*
X106695500Y-86012500D02*
X106695500Y-86295000D01*
X150996836Y-95216000D02*
X150781164Y-95216000D01*
X150996836Y-94496000D02*
X150781164Y-94496000D01*
X120255359Y-67679000D02*
X120562641Y-67679000D01*
X120255359Y-68439000D02*
X120562641Y-68439000D01*
X136183641Y-72124000D02*
X135876359Y-72124000D01*
X136183641Y-72884000D02*
X135876359Y-72884000D01*
X113016359Y-107936000D02*
X113323641Y-107936000D01*
X113016359Y-107176000D02*
X113323641Y-107176000D01*
X110857359Y-82409000D02*
X111164641Y-82409000D01*
X110857359Y-81649000D02*
X111164641Y-81649000D01*
X183380000Y-62744164D02*
X183380000Y-62959836D01*
X182660000Y-62744164D02*
X182660000Y-62959836D01*
X164497164Y-95343000D02*
X164712836Y-95343000D01*
X164497164Y-94623000D02*
X164712836Y-94623000D01*
M02*
