G04 #@! TF.GenerationSoftware,KiCad,Pcbnew,(6.0.7)*
G04 #@! TF.CreationDate,2022-08-14T23:11:45+02:00*
G04 #@! TF.ProjectId,picocart64_v2,7069636f-6361-4727-9436-345f76322e6b,rev?*
G04 #@! TF.SameCoordinates,Original*
G04 #@! TF.FileFunction,Copper,L1,Top*
G04 #@! TF.FilePolarity,Positive*
%FSLAX46Y46*%
G04 Gerber Fmt 4.6, Leading zero omitted, Abs format (unit mm)*
G04 Created by KiCad (PCBNEW (6.0.7)) date 2022-08-14 23:11:45*
%MOMM*%
%LPD*%
G01*
G04 APERTURE LIST*
G04 Aperture macros list*
%AMRoundRect*
0 Rectangle with rounded corners*
0 $1 Rounding radius*
0 $2 $3 $4 $5 $6 $7 $8 $9 X,Y pos of 4 corners*
0 Add a 4 corners polygon primitive as box body*
4,1,4,$2,$3,$4,$5,$6,$7,$8,$9,$2,$3,0*
0 Add four circle primitives for the rounded corners*
1,1,$1+$1,$2,$3*
1,1,$1+$1,$4,$5*
1,1,$1+$1,$6,$7*
1,1,$1+$1,$8,$9*
0 Add four rect primitives between the rounded corners*
20,1,$1+$1,$2,$3,$4,$5,0*
20,1,$1+$1,$4,$5,$6,$7,0*
20,1,$1+$1,$6,$7,$8,$9,0*
20,1,$1+$1,$8,$9,$2,$3,0*%
%AMFreePoly0*
4,1,13,0.500000,-0.375000,0.000000,-0.375000,-0.095671,-0.355970,-0.176777,-0.301777,-0.230970,-0.220671,-0.250000,-0.125000,-0.250000,0.125000,-0.230970,0.220671,-0.176777,0.301777,-0.095671,0.355970,0.000000,0.375000,0.500000,0.375000,0.500000,-0.375000,0.500000,-0.375000,$1*%
G04 Aperture macros list end*
G04 #@! TA.AperFunction,SMDPad,CuDef*
%ADD10R,1.750000X0.300000*%
G04 #@! TD*
G04 #@! TA.AperFunction,ComponentPad*
%ADD11O,1.600000X1.000000*%
G04 #@! TD*
G04 #@! TA.AperFunction,ComponentPad*
%ADD12O,2.100000X0.900000*%
G04 #@! TD*
G04 #@! TA.AperFunction,ComponentPad*
%ADD13C,2.500000*%
G04 #@! TD*
G04 #@! TA.AperFunction,SMDPad,CuDef*
%ADD14RoundRect,0.140000X-0.170000X0.140000X-0.170000X-0.140000X0.170000X-0.140000X0.170000X0.140000X0*%
G04 #@! TD*
G04 #@! TA.AperFunction,SMDPad,CuDef*
%ADD15RoundRect,0.135000X-0.185000X0.135000X-0.185000X-0.135000X0.185000X-0.135000X0.185000X0.135000X0*%
G04 #@! TD*
G04 #@! TA.AperFunction,SMDPad,CuDef*
%ADD16RoundRect,0.140000X0.140000X0.170000X-0.140000X0.170000X-0.140000X-0.170000X0.140000X-0.170000X0*%
G04 #@! TD*
G04 #@! TA.AperFunction,SMDPad,CuDef*
%ADD17C,1.000000*%
G04 #@! TD*
G04 #@! TA.AperFunction,SMDPad,CuDef*
%ADD18RoundRect,0.150000X-0.650000X-0.150000X0.650000X-0.150000X0.650000X0.150000X-0.650000X0.150000X0*%
G04 #@! TD*
G04 #@! TA.AperFunction,SMDPad,CuDef*
%ADD19RoundRect,0.135000X0.185000X-0.135000X0.185000X0.135000X-0.185000X0.135000X-0.185000X-0.135000X0*%
G04 #@! TD*
G04 #@! TA.AperFunction,SMDPad,CuDef*
%ADD20RoundRect,0.225000X-0.225000X-0.250000X0.225000X-0.250000X0.225000X0.250000X-0.225000X0.250000X0*%
G04 #@! TD*
G04 #@! TA.AperFunction,SMDPad,CuDef*
%ADD21R,0.800000X0.800000*%
G04 #@! TD*
G04 #@! TA.AperFunction,SMDPad,CuDef*
%ADD22O,0.200000X0.875000*%
G04 #@! TD*
G04 #@! TA.AperFunction,SMDPad,CuDef*
%ADD23O,0.875000X0.200000*%
G04 #@! TD*
G04 #@! TA.AperFunction,SMDPad,CuDef*
%ADD24FreePoly0,270.000000*%
G04 #@! TD*
G04 #@! TA.AperFunction,SMDPad,CuDef*
%ADD25FreePoly0,90.000000*%
G04 #@! TD*
G04 #@! TA.AperFunction,SMDPad,CuDef*
%ADD26RoundRect,0.140000X0.170000X-0.140000X0.170000X0.140000X-0.170000X0.140000X-0.170000X-0.140000X0*%
G04 #@! TD*
G04 #@! TA.AperFunction,SMDPad,CuDef*
%ADD27R,0.400000X0.500000*%
G04 #@! TD*
G04 #@! TA.AperFunction,SMDPad,CuDef*
%ADD28R,0.300000X0.500000*%
G04 #@! TD*
G04 #@! TA.AperFunction,SMDPad,CuDef*
%ADD29R,1.150000X1.000000*%
G04 #@! TD*
G04 #@! TA.AperFunction,SMDPad,CuDef*
%ADD30RoundRect,0.218750X-0.218750X-0.256250X0.218750X-0.256250X0.218750X0.256250X-0.218750X0.256250X0*%
G04 #@! TD*
G04 #@! TA.AperFunction,SMDPad,CuDef*
%ADD31RoundRect,0.135000X0.135000X0.185000X-0.135000X0.185000X-0.135000X-0.185000X0.135000X-0.185000X0*%
G04 #@! TD*
G04 #@! TA.AperFunction,SMDPad,CuDef*
%ADD32R,0.800000X1.300000*%
G04 #@! TD*
G04 #@! TA.AperFunction,SMDPad,CuDef*
%ADD33R,2.180000X1.600000*%
G04 #@! TD*
G04 #@! TA.AperFunction,SMDPad,CuDef*
%ADD34RoundRect,0.135000X-0.135000X-0.185000X0.135000X-0.185000X0.135000X0.185000X-0.135000X0.185000X0*%
G04 #@! TD*
G04 #@! TA.AperFunction,SMDPad,CuDef*
%ADD35R,1.100000X0.850000*%
G04 #@! TD*
G04 #@! TA.AperFunction,SMDPad,CuDef*
%ADD36R,1.100000X0.750000*%
G04 #@! TD*
G04 #@! TA.AperFunction,SMDPad,CuDef*
%ADD37R,1.000000X1.200000*%
G04 #@! TD*
G04 #@! TA.AperFunction,SMDPad,CuDef*
%ADD38R,1.350000X1.900000*%
G04 #@! TD*
G04 #@! TA.AperFunction,SMDPad,CuDef*
%ADD39R,1.800000X1.170000*%
G04 #@! TD*
G04 #@! TA.AperFunction,SMDPad,CuDef*
%ADD40R,1.350000X1.550000*%
G04 #@! TD*
G04 #@! TA.AperFunction,SMDPad,CuDef*
%ADD41R,2.000000X3.800000*%
G04 #@! TD*
G04 #@! TA.AperFunction,SMDPad,CuDef*
%ADD42R,2.000000X1.500000*%
G04 #@! TD*
G04 #@! TA.AperFunction,SMDPad,CuDef*
%ADD43RoundRect,0.140000X-0.140000X-0.170000X0.140000X-0.170000X0.140000X0.170000X-0.140000X0.170000X0*%
G04 #@! TD*
G04 #@! TA.AperFunction,SMDPad,CuDef*
%ADD44RoundRect,0.150000X-0.587500X-0.150000X0.587500X-0.150000X0.587500X0.150000X-0.587500X0.150000X0*%
G04 #@! TD*
G04 #@! TA.AperFunction,ComponentPad*
%ADD45O,1.700000X1.700000*%
G04 #@! TD*
G04 #@! TA.AperFunction,ComponentPad*
%ADD46R,1.700000X1.700000*%
G04 #@! TD*
G04 #@! TA.AperFunction,SMDPad,CuDef*
%ADD47R,1.500000X0.900000*%
G04 #@! TD*
G04 #@! TA.AperFunction,SMDPad,CuDef*
%ADD48R,0.700000X0.700000*%
G04 #@! TD*
G04 #@! TA.AperFunction,SMDPad,CuDef*
%ADD49FreePoly0,180.000000*%
G04 #@! TD*
G04 #@! TA.AperFunction,SMDPad,CuDef*
%ADD50FreePoly0,0.000000*%
G04 #@! TD*
G04 #@! TA.AperFunction,SMDPad,CuDef*
%ADD51RoundRect,0.225000X0.225000X0.250000X-0.225000X0.250000X-0.225000X-0.250000X0.225000X-0.250000X0*%
G04 #@! TD*
G04 #@! TA.AperFunction,SMDPad,CuDef*
%ADD52R,0.500000X0.375000*%
G04 #@! TD*
G04 #@! TA.AperFunction,SMDPad,CuDef*
%ADD53R,0.650000X0.300000*%
G04 #@! TD*
G04 #@! TA.AperFunction,ComponentPad*
%ADD54RoundRect,0.425000X-0.425000X-0.425000X0.425000X-0.425000X0.425000X0.425000X-0.425000X0.425000X0*%
G04 #@! TD*
G04 #@! TA.AperFunction,SMDPad,CuDef*
%ADD55R,1.500000X7.000000*%
G04 #@! TD*
G04 #@! TA.AperFunction,ViaPad*
%ADD56C,0.800000*%
G04 #@! TD*
G04 #@! TA.AperFunction,ViaPad*
%ADD57C,0.600000*%
G04 #@! TD*
G04 #@! TA.AperFunction,Conductor*
%ADD58C,0.150000*%
G04 #@! TD*
G04 #@! TA.AperFunction,Conductor*
%ADD59C,0.152400*%
G04 #@! TD*
G04 #@! TA.AperFunction,Conductor*
%ADD60C,0.250000*%
G04 #@! TD*
G04 #@! TA.AperFunction,Conductor*
%ADD61C,0.500000*%
G04 #@! TD*
G04 APERTURE END LIST*
G36*
X180048200Y-72677800D02*
G01*
X179794200Y-72677800D01*
X179794200Y-72177800D01*
X180048200Y-72177800D01*
X180048200Y-72677800D01*
G37*
G36*
X121929000Y-109486400D02*
G01*
X121429000Y-109486400D01*
X121429000Y-109232400D01*
X121929000Y-109232400D01*
X121929000Y-109486400D01*
G37*
G36*
X180048200Y-70087000D02*
G01*
X179794200Y-70087000D01*
X179794200Y-69587000D01*
X180048200Y-69587000D01*
X180048200Y-70087000D01*
G37*
G36*
X119668400Y-109486400D02*
G01*
X119168400Y-109486400D01*
X119168400Y-109232400D01*
X119668400Y-109232400D01*
X119668400Y-109486400D01*
G37*
D10*
X107544000Y-64504600D03*
X107544000Y-65304600D03*
X107544000Y-66604600D03*
X107544000Y-67604600D03*
X107544000Y-68104600D03*
X107544000Y-69104600D03*
X107544000Y-70404600D03*
X107544000Y-71204600D03*
X107544000Y-70904600D03*
X107544000Y-70104600D03*
X107544000Y-69604600D03*
X107544000Y-68604600D03*
X107544000Y-67104600D03*
X107544000Y-66104600D03*
X107544000Y-65604600D03*
X107544000Y-64804600D03*
D11*
X102524000Y-72174600D03*
D12*
X106704000Y-63534600D03*
D11*
X102524000Y-63534600D03*
D12*
X106704000Y-72174600D03*
D10*
X107552600Y-74600800D03*
X107552600Y-75400800D03*
X107552600Y-76700800D03*
X107552600Y-77700800D03*
X107552600Y-78200800D03*
X107552600Y-79200800D03*
X107552600Y-80500800D03*
X107552600Y-81300800D03*
X107552600Y-81000800D03*
X107552600Y-80200800D03*
X107552600Y-79700800D03*
X107552600Y-78700800D03*
X107552600Y-77200800D03*
X107552600Y-76200800D03*
X107552600Y-75700800D03*
X107552600Y-74900800D03*
D11*
X102532600Y-82270800D03*
X102532600Y-73630800D03*
D12*
X106712600Y-73630800D03*
X106712600Y-82270800D03*
D13*
X102850000Y-112600000D03*
X197650000Y-112600000D03*
D14*
X143142000Y-76723000D03*
X143142000Y-77683000D03*
D15*
X162446000Y-89012000D03*
X162446000Y-90032000D03*
D16*
X142422000Y-85204000D03*
X141462000Y-85204000D03*
X123118000Y-85204000D03*
X122158000Y-85204000D03*
D17*
X153810000Y-83299000D03*
D18*
X115609000Y-94475000D03*
X115609000Y-95745000D03*
X115609000Y-97015000D03*
X115609000Y-98285000D03*
X122809000Y-98285000D03*
X122809000Y-97015000D03*
X122809000Y-95745000D03*
X122809000Y-94475000D03*
D16*
X123118000Y-92824000D03*
X122158000Y-92824000D03*
X136792000Y-75425000D03*
X135832000Y-75425000D03*
D19*
X105143600Y-61840000D03*
X105143600Y-60820000D03*
D16*
X151369000Y-93840000D03*
X150409000Y-93840000D03*
D14*
X144031000Y-63670000D03*
X144031000Y-64630000D03*
D19*
X158509000Y-63997000D03*
X158509000Y-62977000D03*
D18*
X105843000Y-94475000D03*
X105843000Y-95745000D03*
X105843000Y-97015000D03*
X105843000Y-98285000D03*
X113043000Y-98285000D03*
X113043000Y-97015000D03*
X113043000Y-95745000D03*
X113043000Y-94475000D03*
D17*
X152794000Y-85077000D03*
D14*
X158763000Y-100980000D03*
X158763000Y-101940000D03*
D16*
X142422000Y-92824000D03*
X141462000Y-92824000D03*
D18*
X135180000Y-86855000D03*
X135180000Y-88125000D03*
X135180000Y-89395000D03*
X135180000Y-90665000D03*
X142380000Y-90665000D03*
X142380000Y-89395000D03*
X142380000Y-88125000D03*
X142380000Y-86855000D03*
D20*
X119862600Y-74155000D03*
X121412600Y-74155000D03*
D14*
X167145000Y-94122000D03*
X167145000Y-95082000D03*
D21*
X110694400Y-61159000D03*
X110694400Y-62259000D03*
X112394400Y-62259000D03*
X112394400Y-61159000D03*
X142869000Y-71507000D03*
X142069000Y-70707000D03*
X143669000Y-70707000D03*
X142069000Y-72307000D03*
X143669000Y-72307000D03*
X142869000Y-72307000D03*
X143669000Y-71507000D03*
X144469000Y-72307000D03*
X142869000Y-70707000D03*
X142069000Y-71507000D03*
X144469000Y-71507000D03*
X142869000Y-69907000D03*
X143669000Y-69907000D03*
X142069000Y-69907000D03*
X144469000Y-69907000D03*
X144469000Y-70707000D03*
D22*
X145869000Y-74544500D03*
X145469000Y-74544500D03*
X145069000Y-74544500D03*
X144669000Y-74544500D03*
X144269000Y-74544500D03*
X143869000Y-74544500D03*
X143469000Y-74544500D03*
X143069000Y-74544500D03*
X142669000Y-74544500D03*
X142269000Y-74544500D03*
X141869000Y-74544500D03*
X141469000Y-74544500D03*
X141069000Y-74544500D03*
X140669000Y-74544500D03*
D23*
X139831500Y-73707000D03*
X139831500Y-73307000D03*
X139831500Y-72907000D03*
X139831500Y-72507000D03*
X139831500Y-72107000D03*
X139831500Y-71707000D03*
X139831500Y-71307000D03*
X139831500Y-70907000D03*
X139831500Y-70507000D03*
X139831500Y-70107000D03*
X139831500Y-69707000D03*
X139831500Y-69307000D03*
X139831500Y-68907000D03*
X139831500Y-68507000D03*
D22*
X140669000Y-67669500D03*
X141069000Y-67669500D03*
X141469000Y-67669500D03*
X141869000Y-67669500D03*
X142269000Y-67669500D03*
X142669000Y-67669500D03*
X143069000Y-67669500D03*
X143469000Y-67669500D03*
X143869000Y-67669500D03*
X144269000Y-67669500D03*
X144669000Y-67669500D03*
X145069000Y-67669500D03*
X145469000Y-67669500D03*
X145869000Y-67669500D03*
D23*
X146706500Y-68507000D03*
X146706500Y-68907000D03*
X146706500Y-69307000D03*
X146706500Y-69707000D03*
X146706500Y-70107000D03*
X146706500Y-70507000D03*
X146706500Y-70907000D03*
X146706500Y-71307000D03*
X146706500Y-71707000D03*
X146706500Y-72107000D03*
X146706500Y-72507000D03*
X146706500Y-72907000D03*
X146706500Y-73307000D03*
X146706500Y-73707000D03*
D24*
X179921200Y-71869000D03*
D25*
X179921200Y-73062800D03*
D26*
X142888000Y-64602000D03*
X142888000Y-63642000D03*
D27*
X176912000Y-106167000D03*
D28*
X176412000Y-106167000D03*
X175912000Y-106167000D03*
D27*
X175412000Y-106167000D03*
X175412000Y-107167000D03*
D28*
X175912000Y-107167000D03*
X176412000Y-107167000D03*
D27*
X176912000Y-107167000D03*
D21*
X158496000Y-95453000D03*
X156096000Y-94653000D03*
X158496000Y-93853000D03*
X158496000Y-94653000D03*
X156896000Y-94653000D03*
X157696000Y-95453000D03*
X156896000Y-95453000D03*
X156096000Y-93853000D03*
X157696000Y-93853000D03*
X156896000Y-93853000D03*
X156896000Y-96253000D03*
X156096000Y-95453000D03*
X157696000Y-94653000D03*
X157696000Y-96253000D03*
X158496000Y-96253000D03*
X156096000Y-96253000D03*
D23*
X153858500Y-97653000D03*
X153858500Y-97253000D03*
X153858500Y-96853000D03*
X153858500Y-96453000D03*
X153858500Y-96053000D03*
X153858500Y-95653000D03*
X153858500Y-95253000D03*
X153858500Y-94853000D03*
X153858500Y-94453000D03*
X153858500Y-94053000D03*
X153858500Y-93653000D03*
X153858500Y-93253000D03*
X153858500Y-92853000D03*
X153858500Y-92453000D03*
D22*
X154696000Y-91615500D03*
X155096000Y-91615500D03*
X155496000Y-91615500D03*
X155896000Y-91615500D03*
X156296000Y-91615500D03*
X156696000Y-91615500D03*
X157096000Y-91615500D03*
X157496000Y-91615500D03*
X157896000Y-91615500D03*
X158296000Y-91615500D03*
X158696000Y-91615500D03*
X159096000Y-91615500D03*
X159496000Y-91615500D03*
X159896000Y-91615500D03*
D23*
X160733500Y-92453000D03*
X160733500Y-92853000D03*
X160733500Y-93253000D03*
X160733500Y-93653000D03*
X160733500Y-94053000D03*
X160733500Y-94453000D03*
X160733500Y-94853000D03*
X160733500Y-95253000D03*
X160733500Y-95653000D03*
X160733500Y-96053000D03*
X160733500Y-96453000D03*
X160733500Y-96853000D03*
X160733500Y-97253000D03*
X160733500Y-97653000D03*
D22*
X159896000Y-98490500D03*
X159496000Y-98490500D03*
X159096000Y-98490500D03*
X158696000Y-98490500D03*
X158296000Y-98490500D03*
X157896000Y-98490500D03*
X157496000Y-98490500D03*
X157096000Y-98490500D03*
X156696000Y-98490500D03*
X156296000Y-98490500D03*
X155896000Y-98490500D03*
X155496000Y-98490500D03*
X155096000Y-98490500D03*
X154696000Y-98490500D03*
D29*
X145442000Y-64342000D03*
X147192000Y-64342000D03*
X147192000Y-62942000D03*
X145442000Y-62942000D03*
D30*
X113362500Y-69914600D03*
X114937500Y-69914600D03*
D27*
X164720000Y-106167000D03*
D28*
X164220000Y-106167000D03*
X163720000Y-106167000D03*
D27*
X163220000Y-106167000D03*
X163220000Y-107167000D03*
D28*
X163720000Y-107167000D03*
X164220000Y-107167000D03*
D27*
X164720000Y-107167000D03*
D16*
X136764000Y-77711000D03*
X135804000Y-77711000D03*
D29*
X168556000Y-95302000D03*
X170306000Y-95302000D03*
X170306000Y-93902000D03*
X168556000Y-93902000D03*
D18*
X125401000Y-94475000D03*
X125401000Y-95745000D03*
X125401000Y-97015000D03*
X125401000Y-98285000D03*
X132601000Y-98285000D03*
X132601000Y-97015000D03*
X132601000Y-95745000D03*
X132601000Y-94475000D03*
X135180000Y-94475000D03*
X135180000Y-95745000D03*
X135180000Y-97015000D03*
X135180000Y-98285000D03*
X142380000Y-98285000D03*
X142380000Y-97015000D03*
X142380000Y-95745000D03*
X142380000Y-94475000D03*
D31*
X107838000Y-83934000D03*
X106818000Y-83934000D03*
D14*
X142126000Y-76723000D03*
X142126000Y-77683000D03*
D16*
X113466000Y-92824000D03*
X112506000Y-92824000D03*
D18*
X125401000Y-86855000D03*
X125401000Y-88125000D03*
X125401000Y-89395000D03*
X125401000Y-90665000D03*
X132601000Y-90665000D03*
X132601000Y-89395000D03*
X132601000Y-88125000D03*
X132601000Y-86855000D03*
D16*
X136764000Y-74282000D03*
X135804000Y-74282000D03*
D32*
X116086000Y-107785000D03*
X117366000Y-107785000D03*
X118626000Y-107785000D03*
X119896000Y-107785000D03*
X121176000Y-107785000D03*
X122446000Y-107785000D03*
X123706000Y-107785000D03*
X124986000Y-107785000D03*
X124986000Y-101485000D03*
X123706000Y-101485000D03*
X122446000Y-101485000D03*
X121176000Y-101485000D03*
X119896000Y-101485000D03*
X118626000Y-101485000D03*
X117366000Y-101485000D03*
X116086000Y-101485000D03*
D33*
X125888000Y-62344000D03*
X116708000Y-62344000D03*
D34*
X149998000Y-85458000D03*
X151018000Y-85458000D03*
D26*
X171717000Y-94122000D03*
X171717000Y-95082000D03*
D35*
X198312500Y-64700000D03*
X198312500Y-65800000D03*
X198312500Y-66900000D03*
X198312500Y-68000000D03*
X198312500Y-69100000D03*
X198312500Y-70200000D03*
X198312500Y-71300000D03*
D36*
X198312500Y-72350000D03*
D37*
X192162500Y-62065000D03*
X188462500Y-62065000D03*
D38*
X187487500Y-65565000D03*
D39*
X197962500Y-73560000D03*
D38*
X187487500Y-71535000D03*
D40*
X198187500Y-62240000D03*
D41*
X111391600Y-76695000D03*
D42*
X117691600Y-74395000D03*
X117691600Y-76695000D03*
X117691600Y-78995000D03*
D27*
X172340000Y-106167000D03*
D28*
X171840000Y-106167000D03*
X171340000Y-106167000D03*
D27*
X170840000Y-106167000D03*
X170840000Y-107167000D03*
D28*
X171340000Y-107167000D03*
X171840000Y-107167000D03*
D27*
X172340000Y-107167000D03*
D16*
X132770000Y-92824000D03*
X131810000Y-92824000D03*
D26*
X153302000Y-90002000D03*
X153302000Y-89042000D03*
D43*
X164125000Y-92697000D03*
X165085000Y-92697000D03*
D44*
X122494100Y-75999000D03*
X122494100Y-77899000D03*
X124369100Y-76949000D03*
D15*
X122923600Y-73391000D03*
X122923600Y-74411000D03*
D17*
X154064000Y-86855000D03*
D45*
X174257000Y-97777000D03*
X174257000Y-95237000D03*
X174257000Y-92697000D03*
X174257000Y-90157000D03*
X174257000Y-87617000D03*
D46*
X174257000Y-85077000D03*
D24*
X170320000Y-91376200D03*
D25*
X170320000Y-92544600D03*
D34*
X149744000Y-75425000D03*
X150764000Y-75425000D03*
D47*
X160300000Y-61375000D03*
X160300000Y-62875000D03*
X160300000Y-64375000D03*
X160300000Y-65875000D03*
X160300000Y-67375000D03*
X160300000Y-68875000D03*
X160300000Y-70375000D03*
X160300000Y-71875000D03*
X160300000Y-73375000D03*
X177800000Y-73375000D03*
X177800000Y-71875000D03*
X177800000Y-70375000D03*
X177800000Y-68875000D03*
X177800000Y-67375000D03*
X177800000Y-65875000D03*
X177800000Y-64375000D03*
X177800000Y-62875000D03*
X177800000Y-61375000D03*
D48*
X171110000Y-66475000D03*
X169960000Y-68675000D03*
X169960000Y-66475000D03*
X171110000Y-67575000D03*
X168910000Y-67575000D03*
X168910000Y-66475000D03*
X168910000Y-68675000D03*
X171110000Y-68675000D03*
X169960000Y-67575000D03*
D15*
X133998000Y-106157000D03*
X133998000Y-107177000D03*
D49*
X122237800Y-109359400D03*
D50*
X121044000Y-109359400D03*
D14*
X153683000Y-100980000D03*
X153683000Y-101940000D03*
D16*
X113466000Y-85204000D03*
X112506000Y-85204000D03*
X132770000Y-85204000D03*
X131810000Y-85204000D03*
D51*
X123698600Y-79489000D03*
X122148600Y-79489000D03*
D43*
X149774000Y-74282000D03*
X150734000Y-74282000D03*
D19*
X103873600Y-61840000D03*
X103873600Y-60820000D03*
D34*
X119899000Y-69202000D03*
X120919000Y-69202000D03*
D18*
X105843000Y-102095000D03*
X105843000Y-103365000D03*
X105843000Y-104635000D03*
X105843000Y-105905000D03*
X113043000Y-105905000D03*
X113043000Y-104635000D03*
X113043000Y-103365000D03*
X113043000Y-102095000D03*
D27*
X160656000Y-106167000D03*
D28*
X160156000Y-106167000D03*
X159656000Y-106167000D03*
D27*
X159156000Y-106167000D03*
X159156000Y-107167000D03*
D28*
X159656000Y-107167000D03*
X160156000Y-107167000D03*
D27*
X160656000Y-107167000D03*
D26*
X148603000Y-64630000D03*
X148603000Y-63670000D03*
D14*
X184163000Y-62372000D03*
X184163000Y-63332000D03*
D31*
X151018000Y-86601000D03*
X149998000Y-86601000D03*
D15*
X106439000Y-60820000D03*
X106439000Y-61840000D03*
D43*
X164125000Y-93840000D03*
X165085000Y-93840000D03*
D27*
X156592000Y-106167000D03*
D28*
X156092000Y-106167000D03*
X155592000Y-106167000D03*
D27*
X155092000Y-106167000D03*
X155092000Y-107167000D03*
D28*
X155592000Y-107167000D03*
X156092000Y-107167000D03*
D27*
X156592000Y-107167000D03*
D15*
X139967000Y-63612000D03*
X139967000Y-64632000D03*
D26*
X152286000Y-90002000D03*
X152286000Y-89042000D03*
D27*
X150496000Y-106167000D03*
D28*
X149996000Y-106167000D03*
X149496000Y-106167000D03*
D27*
X148996000Y-106167000D03*
X148996000Y-107167000D03*
D28*
X149496000Y-107167000D03*
X149996000Y-107167000D03*
D27*
X150496000Y-107167000D03*
D18*
X115609000Y-86855000D03*
X115609000Y-88125000D03*
X115609000Y-89395000D03*
X115609000Y-90665000D03*
X122809000Y-90665000D03*
X122809000Y-89395000D03*
X122809000Y-88125000D03*
X122809000Y-86855000D03*
D51*
X123698600Y-81267000D03*
X122148600Y-81267000D03*
D52*
X114332100Y-66861100D03*
D53*
X114257100Y-67398600D03*
D52*
X114332100Y-67936100D03*
X116032100Y-67936100D03*
D53*
X116107100Y-67398600D03*
D52*
X116032100Y-66861100D03*
D19*
X132728000Y-107177000D03*
X132728000Y-106157000D03*
D25*
X179921200Y-70395800D03*
D24*
X179921200Y-69202000D03*
D16*
X113368000Y-100317000D03*
X112408000Y-100317000D03*
X136764000Y-69837000D03*
X135804000Y-69837000D03*
D15*
X126759000Y-107300000D03*
X126759000Y-108320000D03*
D16*
X136764000Y-76568000D03*
X135804000Y-76568000D03*
D34*
X110501000Y-81013000D03*
X111521000Y-81013000D03*
D43*
X150028000Y-69837000D03*
X150988000Y-69837000D03*
D26*
X154318000Y-90002000D03*
X154318000Y-89042000D03*
D18*
X105843000Y-86855000D03*
X105843000Y-88125000D03*
X105843000Y-89395000D03*
X105843000Y-90665000D03*
X113043000Y-90665000D03*
X113043000Y-89395000D03*
X113043000Y-88125000D03*
X113043000Y-86855000D03*
D16*
X151369000Y-94856000D03*
X150409000Y-94856000D03*
D34*
X119899000Y-68059000D03*
X120919000Y-68059000D03*
D50*
X118859600Y-109359400D03*
D49*
X120053400Y-109359400D03*
D31*
X136540000Y-72504000D03*
X135520000Y-72504000D03*
D34*
X112660000Y-107556000D03*
X113680000Y-107556000D03*
X110501000Y-82029000D03*
X111521000Y-82029000D03*
D14*
X183020000Y-62372000D03*
X183020000Y-63332000D03*
D43*
X164125000Y-94983000D03*
X165085000Y-94983000D03*
D46*
X179337000Y-100317000D03*
X194577000Y-100317000D03*
X176797000Y-100317000D03*
X181877000Y-100317000D03*
X186957000Y-100317000D03*
X192037000Y-100317000D03*
X184417000Y-100317000D03*
X189497000Y-100317000D03*
D54*
X181877000Y-82537000D03*
X179337000Y-82537000D03*
X184417000Y-82537000D03*
X194577000Y-82537000D03*
X176797000Y-82537000D03*
X186957000Y-82537000D03*
X192037000Y-82537000D03*
X189497000Y-82537000D03*
D45*
X176797000Y-92697000D03*
X192037000Y-95237000D03*
X186957000Y-92697000D03*
X184417000Y-95237000D03*
X176797000Y-85077000D03*
X194577000Y-87617000D03*
X184417000Y-87617000D03*
X194577000Y-90157000D03*
X189497000Y-97777000D03*
X179337000Y-87617000D03*
X194577000Y-92697000D03*
X189497000Y-87617000D03*
X189497000Y-92697000D03*
X181877000Y-95237000D03*
X189497000Y-95237000D03*
X184417000Y-92697000D03*
X189497000Y-90157000D03*
X179337000Y-90157000D03*
X192037000Y-90157000D03*
X186957000Y-90157000D03*
X181877000Y-87617000D03*
X181877000Y-97777000D03*
X179337000Y-95237000D03*
X179337000Y-97777000D03*
X181877000Y-92697000D03*
X179337000Y-92697000D03*
X184417000Y-85077000D03*
X192037000Y-92697000D03*
X179337000Y-85077000D03*
X186957000Y-97777000D03*
X184417000Y-90157000D03*
X192037000Y-85077000D03*
X186957000Y-87617000D03*
X181877000Y-90157000D03*
X184417000Y-97777000D03*
X186957000Y-85077000D03*
X181877000Y-85077000D03*
X176797000Y-87617000D03*
X176797000Y-95237000D03*
X192037000Y-87617000D03*
X176797000Y-90157000D03*
X176797000Y-97777000D03*
X189497000Y-85077000D03*
X194577000Y-95237000D03*
X192037000Y-97777000D03*
X194577000Y-97777000D03*
X186957000Y-95237000D03*
X194577000Y-85077000D03*
D55*
X180241000Y-116332000D03*
X177741000Y-116332000D03*
X175241000Y-116332000D03*
X172741000Y-116332000D03*
X170241000Y-116332000D03*
X167741000Y-116332000D03*
X165241000Y-116332000D03*
X162741000Y-116332000D03*
X160241000Y-116332000D03*
X157741000Y-116332000D03*
X155241000Y-116332000D03*
X152741000Y-116332000D03*
X150241000Y-116332000D03*
X147741000Y-116332000D03*
X145241000Y-116332000D03*
X142741000Y-116332000D03*
X140241000Y-116332000D03*
X137741000Y-116332000D03*
X135241000Y-116332000D03*
X132741000Y-116332000D03*
X130241000Y-116332000D03*
X127741000Y-116332000D03*
X125241000Y-116332000D03*
X122741000Y-116332000D03*
X120241000Y-116332000D03*
D56*
X173311000Y-74519000D03*
X169120000Y-74519000D03*
X158909200Y-81758000D03*
X130569000Y-101079000D03*
X148603000Y-105016000D03*
X153556000Y-107302000D03*
X157874000Y-107302000D03*
X161938000Y-106540000D03*
X177305000Y-103873000D03*
X173495000Y-100317000D03*
X167018000Y-103873000D03*
X148603000Y-98412000D03*
X144031000Y-97142000D03*
X138189000Y-82029000D03*
X129299000Y-82029000D03*
X120028000Y-82029000D03*
X130315000Y-79235000D03*
X129553000Y-75425000D03*
X136411000Y-78854000D03*
X151778000Y-77838000D03*
X148349000Y-81775000D03*
X146825000Y-83426000D03*
X110376000Y-86728000D03*
X107836000Y-102984000D03*
X116345000Y-104127000D03*
X152032000Y-108953000D03*
X148095000Y-102603000D03*
X138697000Y-102857000D03*
X120917000Y-94348000D03*
X130569000Y-86601000D03*
X120282000Y-86601000D03*
X114541600Y-76695000D03*
X124600000Y-70218000D03*
X137427000Y-65265000D03*
X155080000Y-66027000D03*
X183909000Y-74536000D03*
X190767000Y-69583000D03*
X191910000Y-77330000D03*
X183782000Y-80505000D03*
X173241000Y-80505000D03*
X169177000Y-80505000D03*
X164859000Y-80505000D03*
X142507000Y-82029000D03*
D57*
X150508000Y-108953000D03*
D56*
X140221000Y-111239000D03*
X139205000Y-111239000D03*
X152518000Y-94453000D03*
X110200000Y-72341400D03*
X110200000Y-71341400D03*
X111400000Y-71341400D03*
X111400000Y-72341400D03*
X102108000Y-105156000D03*
X180250000Y-111350000D03*
X180250000Y-110400000D03*
X177750000Y-111350000D03*
X177750000Y-110400000D03*
X167750000Y-110400000D03*
X167750000Y-111350000D03*
X127750000Y-111350000D03*
X127750000Y-110400000D03*
X149365000Y-64630000D03*
X142126000Y-72250000D03*
X139586000Y-84823000D03*
X120637600Y-79743000D03*
X125235000Y-110395916D03*
X114948000Y-62344000D03*
X102502000Y-61328000D03*
X198000000Y-108000000D03*
X107836000Y-105905000D03*
X127464000Y-98285000D03*
X142126000Y-78473000D03*
X144412000Y-69964000D03*
X107779000Y-98285000D03*
X110179000Y-64341400D03*
X121399600Y-73139000D03*
X120637600Y-78473000D03*
X158763000Y-103492000D03*
X141491000Y-91808000D03*
X161430000Y-73393000D03*
X168034000Y-67551000D03*
X143142000Y-78473000D03*
X151778000Y-69837000D03*
X172098000Y-67551000D03*
X122949000Y-72631000D03*
X125235000Y-111345916D03*
X111379000Y-64341400D03*
X127210000Y-90665000D03*
X197117000Y-70218000D03*
X153810000Y-88252000D03*
X166002000Y-94475000D03*
X134506000Y-77584000D03*
X167526000Y-93459000D03*
X153683000Y-102857000D03*
X109741000Y-62217000D03*
X117431000Y-90665000D03*
X119621600Y-79743000D03*
X148984000Y-94348000D03*
X111519000Y-92824000D03*
X122187000Y-84188000D03*
D57*
X135776000Y-69075000D03*
D56*
X108979000Y-74028000D03*
X157874000Y-94475000D03*
X159652000Y-97396000D03*
X157874000Y-95618000D03*
X171463000Y-95872000D03*
X120231200Y-110390600D03*
X107525000Y-90665000D03*
X120231200Y-111340600D03*
X122187000Y-91808000D03*
D57*
X184163000Y-64122000D03*
D56*
X156731000Y-95618000D03*
X186322000Y-71615000D03*
X157493000Y-63995000D03*
X186322000Y-65519000D03*
X196482000Y-73647000D03*
X162446000Y-88125000D03*
X175400000Y-72631000D03*
X119621600Y-78473000D03*
X131077000Y-92824000D03*
X130950000Y-84188000D03*
X134506000Y-75425000D03*
X137116000Y-98285000D03*
X134506000Y-74282000D03*
X198000000Y-109000000D03*
D57*
X112408000Y-101079000D03*
D56*
X113170000Y-67805000D03*
X151524000Y-74282000D03*
X192164000Y-63233000D03*
X117558000Y-98285000D03*
D57*
X183020000Y-64122000D03*
D56*
X144031000Y-62979000D03*
X136538000Y-90665000D03*
X112535000Y-84188000D03*
X134506000Y-76568000D03*
X156731000Y-94475000D03*
X108979000Y-82664000D03*
X102108000Y-106680000D03*
X196990000Y-62217000D03*
X142888000Y-62979000D03*
X114440000Y-85204000D03*
X143904000Y-86855000D03*
X138570000Y-75425000D03*
X143396000Y-92824000D03*
D57*
X184163000Y-61455000D03*
X139967000Y-62979000D03*
D56*
X153937000Y-91681000D03*
X114440000Y-100317000D03*
X125743000Y-79489000D03*
X142689063Y-75899500D03*
X163208000Y-95104500D03*
X137427000Y-69837000D03*
X132728000Y-92062000D03*
X149238000Y-69837000D03*
X124092000Y-85204000D03*
X149111000Y-86601000D03*
X143523000Y-68694000D03*
D57*
X111900000Y-107556000D03*
D56*
X114440000Y-92824000D03*
X175400000Y-62979000D03*
X158300619Y-97667019D03*
X154894290Y-97495738D03*
X137935000Y-74536000D03*
D57*
X183020000Y-61455000D03*
D56*
X125743000Y-81267000D03*
X124092000Y-92824000D03*
X113424000Y-61074000D03*
X197117000Y-68059000D03*
X149144500Y-85458000D03*
X148984000Y-74282000D03*
X132729855Y-84442530D03*
X115964000Y-69938600D03*
X117722100Y-67805000D03*
X110200000Y-65741400D03*
X111400000Y-70041400D03*
X110200000Y-70041400D03*
X111400000Y-65741400D03*
D57*
X197117000Y-64757000D03*
X160668000Y-76187000D03*
X195974000Y-65773000D03*
X160668000Y-75272600D03*
X197117000Y-66916000D03*
X160668000Y-78727000D03*
X196101000Y-69456000D03*
X160668000Y-79616000D03*
X193561000Y-71615000D03*
X160668000Y-77965000D03*
X191783000Y-72250000D03*
X160668000Y-77076000D03*
D56*
X161176000Y-111239000D03*
X127267000Y-76949000D03*
X160241000Y-111252000D03*
D57*
X174638000Y-108064000D03*
X175527000Y-108064000D03*
X176416000Y-108064000D03*
X177305000Y-108064000D03*
X162446000Y-98539000D03*
X160541000Y-91554000D03*
X159652000Y-90411000D03*
X160922000Y-98539000D03*
X158636000Y-108445000D03*
X159652000Y-108445000D03*
X160668000Y-108445000D03*
X161684000Y-108445000D03*
X150895500Y-105143000D03*
X134379000Y-71615000D03*
X160160000Y-86855000D03*
X151524000Y-106159000D03*
X140729000Y-70472000D03*
X153429000Y-108953000D03*
X154318000Y-108953000D03*
X155334000Y-108953000D03*
X156350000Y-108953000D03*
X154699000Y-102476000D03*
X170066000Y-105397000D03*
X170574000Y-104762000D03*
X154699000Y-101587000D03*
X171082000Y-104127000D03*
X154699000Y-100698000D03*
X154699000Y-99809000D03*
X171717000Y-103492000D03*
X163218500Y-103492000D03*
X156604000Y-103238000D03*
X163716000Y-102476000D03*
X156594500Y-102349000D03*
X161684000Y-92189000D03*
X164224000Y-98539000D03*
X162192000Y-91173000D03*
X165494000Y-98539000D03*
X142888000Y-109461000D03*
X147968000Y-106921000D03*
X158763000Y-87738000D03*
X149365000Y-104127000D03*
X134379000Y-72631000D03*
X145809000Y-97904000D03*
X146571000Y-81902000D03*
X146952000Y-80632000D03*
X127521000Y-62471000D03*
X145682000Y-81902000D03*
X136792000Y-95110002D03*
X136919000Y-87363000D03*
X137427000Y-96761000D03*
X108852000Y-104635000D03*
X145936000Y-96380000D03*
X109106000Y-96507000D03*
X136919000Y-89395000D03*
X145682000Y-82664000D03*
X138697000Y-91173000D03*
D56*
X113043000Y-99174000D03*
D57*
X146444000Y-95618000D03*
X140729000Y-98285000D03*
X145682000Y-83426000D03*
X111646000Y-105905000D03*
X140602000Y-97015000D03*
X145682000Y-84188000D03*
X139586000Y-89395000D03*
X110376000Y-104635000D03*
X110376000Y-97269000D03*
X146952000Y-94856000D03*
X145682000Y-84950000D03*
X140475000Y-88125000D03*
X111392000Y-103365000D03*
X111392000Y-95745000D03*
X140475000Y-95745000D03*
X147587000Y-93967000D03*
X107328000Y-86855000D03*
X117361000Y-100190000D03*
X107201000Y-94475000D03*
X118631000Y-100190000D03*
X119901000Y-100190000D03*
X116980000Y-86855000D03*
X116980000Y-94475000D03*
X121171000Y-100190000D03*
X122441000Y-100190000D03*
X126632000Y-86855000D03*
X123711000Y-100190000D03*
X126759000Y-94475000D03*
X134760000Y-87363000D03*
X124981000Y-100190000D03*
X154699000Y-76441000D03*
X151016000Y-65900000D03*
X157880500Y-89903000D03*
X153556000Y-99174000D03*
X153937000Y-76441000D03*
X157401000Y-88887000D03*
X140475000Y-65900000D03*
X153048000Y-99936000D03*
X156858000Y-90157000D03*
X153175000Y-76441000D03*
X152540000Y-100825000D03*
X139713000Y-66662000D03*
X139078000Y-67170000D03*
X152032000Y-101587000D03*
X156397500Y-89395000D03*
X152413000Y-76441000D03*
X158636000Y-67170000D03*
X157874000Y-69329000D03*
X176670000Y-73393000D03*
D56*
X178702000Y-80505000D03*
D57*
X156350000Y-76441000D03*
X155588000Y-76441000D03*
D56*
X171844000Y-92697000D03*
D57*
X137554000Y-68694000D03*
X171336000Y-73139000D03*
X159525000Y-88506000D03*
X135014000Y-106159000D03*
X133998000Y-108445000D03*
X133490000Y-79091500D03*
X132728000Y-105397000D03*
X164224000Y-88125000D03*
X172860000Y-72123000D03*
X138564285Y-67810715D03*
X165240000Y-72123000D03*
X158636000Y-86474000D03*
X138570000Y-73520000D03*
X154953000Y-85077000D03*
X140729000Y-64757000D03*
X136665000Y-73393000D03*
X153810000Y-85966000D03*
X140729500Y-72123000D03*
X151016000Y-84442000D03*
X135141000Y-93840000D03*
X123711000Y-106540000D03*
X170320000Y-72123000D03*
X167780000Y-72123000D03*
X141872000Y-62598000D03*
X141745000Y-64122000D03*
D58*
X174257000Y-87617000D02*
X175520800Y-86353200D01*
X175520800Y-86353200D02*
X175520800Y-77463200D01*
X175520800Y-77463200D02*
X179921200Y-73062800D01*
X153858500Y-97653000D02*
X146060000Y-97653000D01*
X146060000Y-97653000D02*
X145809000Y-97904000D01*
X145809000Y-97904000D02*
X145428000Y-97904000D01*
X143523000Y-99809000D02*
X130315000Y-99809000D01*
X145428000Y-97904000D02*
X143523000Y-99809000D01*
X130315000Y-99809000D02*
X127394000Y-102730000D01*
X127394000Y-102730000D02*
X114567000Y-102730000D01*
X157880500Y-89903000D02*
X158001000Y-89782500D01*
X158001000Y-89782500D02*
X158001000Y-80632000D01*
X158001000Y-80632000D02*
X154699000Y-77330000D01*
X154699000Y-77330000D02*
X154699000Y-76441000D01*
X157496000Y-90789000D02*
X157496000Y-91615500D01*
X157880500Y-89903000D02*
X157880500Y-90404500D01*
X157880500Y-90404500D02*
X157496000Y-90789000D01*
D59*
X159525000Y-88506000D02*
X159525000Y-88506353D01*
X159525000Y-88506353D02*
X158696000Y-89335353D01*
X158696000Y-89335353D02*
X158696000Y-91615500D01*
D58*
X160160000Y-86855000D02*
X160160000Y-88760000D01*
X160160000Y-88760000D02*
X159096000Y-89824000D01*
X159096000Y-89824000D02*
X159096000Y-91615500D01*
D60*
X153810000Y-88252000D02*
X153302000Y-88760000D01*
X153810000Y-88252000D02*
X154318000Y-88760000D01*
X154318000Y-88760000D02*
X154318000Y-89042000D01*
X153302000Y-88760000D02*
X153302000Y-89042000D01*
D58*
X146952000Y-80632000D02*
X147587000Y-80632000D01*
X147587000Y-80632000D02*
X150764000Y-77455000D01*
X150764000Y-77455000D02*
X150764000Y-75425000D01*
X162446000Y-90032000D02*
X162446000Y-90019968D01*
X166510000Y-85955968D02*
X166510000Y-72123000D01*
X162446000Y-90019968D02*
X166510000Y-85955968D01*
X166510000Y-72123000D02*
X167399000Y-71234000D01*
X167399000Y-71234000D02*
X171971000Y-71234000D01*
X171971000Y-71234000D02*
X172860000Y-72123000D01*
X160733500Y-93653000D02*
X162633000Y-93653000D01*
X162633000Y-93653000D02*
X163081000Y-93205000D01*
X163081000Y-93205000D02*
X163081000Y-91046000D01*
X163081000Y-91046000D02*
X167780000Y-86347000D01*
X167780000Y-86347000D02*
X167780000Y-72123000D01*
X160733500Y-94053000D02*
X162868000Y-94053000D01*
X162868000Y-94053000D02*
X163484501Y-93436499D01*
X163484501Y-93436499D02*
X163484501Y-92039499D01*
X163484501Y-92039499D02*
X170320000Y-85204000D01*
X170320000Y-85204000D02*
X170320000Y-72123000D01*
X171717000Y-94122000D02*
X170526000Y-94122000D01*
X170526000Y-94122000D02*
X170306000Y-93902000D01*
D60*
X171463000Y-95872000D02*
X171717000Y-95618000D01*
X170876000Y-95872000D02*
X170306000Y-95302000D01*
X171717000Y-95618000D02*
X171717000Y-95082000D01*
X171463000Y-95872000D02*
X170876000Y-95872000D01*
X167526000Y-93459000D02*
X167145000Y-93840000D01*
X167145000Y-93840000D02*
X167145000Y-94122000D01*
X167526000Y-93459000D02*
X168113000Y-93459000D01*
X168113000Y-93459000D02*
X168556000Y-93902000D01*
D58*
X143869000Y-67669500D02*
X143869000Y-66824000D01*
X143869000Y-66824000D02*
X145174000Y-65519000D01*
X145174000Y-65519000D02*
X145744000Y-65519000D01*
X145744000Y-65519000D02*
X146317000Y-64946000D01*
X146317000Y-64946000D02*
X146317000Y-63817000D01*
X146317000Y-63817000D02*
X147192000Y-62942000D01*
X105843000Y-89395000D02*
X108217000Y-89395000D01*
X108217000Y-89395000D02*
X108852000Y-88760000D01*
X114567000Y-89395000D02*
X115609000Y-89395000D01*
X108852000Y-88760000D02*
X113932000Y-88760000D01*
X113932000Y-88760000D02*
X114567000Y-89395000D01*
X150496000Y-107167000D02*
X150496000Y-108941000D01*
X150496000Y-108941000D02*
X150508000Y-108953000D01*
D61*
X140221000Y-111239000D02*
X139205000Y-111239000D01*
X140241000Y-111259000D02*
X140221000Y-111239000D01*
X122494100Y-75999000D02*
X122494100Y-74840500D01*
X122494100Y-74840500D02*
X122923600Y-74411000D01*
X117691600Y-76695000D02*
X121798100Y-76695000D01*
X121798100Y-76695000D02*
X122494100Y-75999000D01*
X152413000Y-94348000D02*
X152518000Y-94453000D01*
D60*
X139586000Y-84823000D02*
X139967000Y-85204000D01*
D61*
X197962500Y-73560000D02*
X196569000Y-73560000D01*
D58*
X126253000Y-108320000D02*
X125718000Y-107785000D01*
D60*
X169960000Y-66475000D02*
X169960000Y-68675000D01*
X168910000Y-67575000D02*
X168058000Y-67575000D01*
X108406200Y-74600800D02*
X108979000Y-74028000D01*
X105843000Y-105905000D02*
X107836000Y-105905000D01*
X159652000Y-96398800D02*
X159652000Y-97396000D01*
X109741000Y-62217000D02*
X109783000Y-62259000D01*
D61*
X118859600Y-110070600D02*
X119179600Y-110390600D01*
X198187500Y-62240000D02*
X197013000Y-62240000D01*
D60*
X144469000Y-69907000D02*
X144412000Y-69964000D01*
X197135000Y-70200000D02*
X198312500Y-70200000D01*
X142126000Y-78473000D02*
X142126000Y-77683000D01*
X153683000Y-101940000D02*
X153683000Y-102857000D01*
D61*
X192162500Y-63231500D02*
X192164000Y-63233000D01*
D60*
X135804000Y-74282000D02*
X135804000Y-76568000D01*
D61*
X192162500Y-62065000D02*
X192162500Y-63231500D01*
X121892400Y-110390600D02*
X120231200Y-110390600D01*
D60*
X135180000Y-98285000D02*
X137116000Y-98285000D01*
X148984000Y-94348000D02*
X149492000Y-93840000D01*
X131810000Y-85048000D02*
X131810000Y-85204000D01*
D61*
X127741000Y-110409000D02*
X127750000Y-110400000D01*
D60*
X122158000Y-91837000D02*
X122187000Y-91808000D01*
X168910000Y-67575000D02*
X171110000Y-67575000D01*
X134633000Y-77711000D02*
X135804000Y-77711000D01*
D61*
X196569000Y-73560000D02*
X196482000Y-73647000D01*
X118859600Y-109359400D02*
X118859600Y-110070600D01*
X197013000Y-62240000D02*
X196990000Y-62217000D01*
D60*
X108250800Y-81300800D02*
X108979000Y-82029000D01*
X135804000Y-69103000D02*
X135776000Y-69075000D01*
D61*
X125241000Y-116332000D02*
X125241000Y-110247000D01*
D60*
X149492000Y-93840000D02*
X150409000Y-93840000D01*
X122949000Y-72631000D02*
X122923600Y-72656400D01*
X165085000Y-94983000D02*
X165494000Y-94983000D01*
X160733500Y-96053000D02*
X159997800Y-96053000D01*
D58*
X125718000Y-107785000D02*
X124986000Y-107785000D01*
D60*
X144269000Y-67669500D02*
X144269000Y-68367000D01*
X135832000Y-75425000D02*
X134506000Y-75425000D01*
X125250000Y-108049000D02*
X125250000Y-110238000D01*
X108979000Y-83553000D02*
X108979000Y-82664000D01*
X158763000Y-103492000D02*
X158763000Y-101940000D01*
X144031000Y-62979000D02*
X144068000Y-62942000D01*
X112506000Y-85204000D02*
X112506000Y-84217000D01*
X134506000Y-77584000D02*
X134633000Y-77711000D01*
X172074000Y-67575000D02*
X172098000Y-67551000D01*
D58*
X158509000Y-63997000D02*
X157495000Y-63997000D01*
D60*
X122158000Y-92824000D02*
X122158000Y-91837000D01*
X144068000Y-62942000D02*
X145442000Y-62942000D01*
X165085000Y-93967000D02*
X165494000Y-93967000D01*
X122158000Y-85204000D02*
X122158000Y-84217000D01*
X131077000Y-92824000D02*
X131810000Y-92824000D01*
D61*
X187487500Y-71535000D02*
X186402000Y-71535000D01*
D60*
X149492000Y-94856000D02*
X150409000Y-94856000D01*
X161412000Y-73375000D02*
X160300000Y-73375000D01*
X165494000Y-94983000D02*
X166002000Y-94475000D01*
X106439000Y-60818000D02*
X105169000Y-60818000D01*
X197117000Y-70218000D02*
X197135000Y-70200000D01*
D61*
X180241000Y-110409000D02*
X180250000Y-110400000D01*
X120637600Y-79743000D02*
X121894600Y-79743000D01*
D60*
X148603000Y-64630000D02*
X149365000Y-64630000D01*
X141462000Y-92824000D02*
X141462000Y-91837000D01*
X125401000Y-90665000D02*
X127210000Y-90665000D01*
X159997800Y-96053000D02*
X159652000Y-96398800D01*
X171110000Y-68675000D02*
X168910000Y-68675000D01*
X152286000Y-89042000D02*
X153302000Y-89042000D01*
X165085000Y-93840000D02*
X165085000Y-92697000D01*
X144269000Y-68367000D02*
X144469000Y-68567000D01*
D61*
X127741000Y-116332000D02*
X127741000Y-110409000D01*
X122237800Y-109359400D02*
X122237800Y-110045200D01*
D60*
X162446000Y-89012000D02*
X162446000Y-88125000D01*
D61*
X120241000Y-110400400D02*
X120231200Y-110390600D01*
X120241000Y-116332000D02*
X120241000Y-110400400D01*
D60*
X112408000Y-100317000D02*
X112408000Y-101079000D01*
X108598000Y-83934000D02*
X108979000Y-83553000D01*
X102986600Y-60843400D02*
X102502000Y-61328000D01*
X107838000Y-83934000D02*
X108598000Y-83934000D01*
X114948000Y-62344000D02*
X116708000Y-62344000D01*
X105143600Y-60843400D02*
X103873600Y-60843400D01*
D61*
X122148600Y-79489000D02*
X122148600Y-81267000D01*
D60*
X168910000Y-68675000D02*
X168910000Y-66475000D01*
D61*
X167741000Y-116332000D02*
X167741000Y-110409000D01*
D58*
X126759000Y-108320000D02*
X126253000Y-108320000D01*
D60*
X105843000Y-98285000D02*
X107779000Y-98285000D01*
X183020000Y-63332000D02*
X183020000Y-64122000D01*
X144031000Y-63670000D02*
X144031000Y-62979000D01*
D61*
X121894600Y-79743000D02*
X122148600Y-79489000D01*
D60*
X141462000Y-91837000D02*
X141491000Y-91808000D01*
X109783000Y-62259000D02*
X110694400Y-62259000D01*
X113576400Y-67398600D02*
X113170000Y-67805000D01*
D61*
X187487500Y-65565000D02*
X186368000Y-65565000D01*
D60*
X142888000Y-62979000D02*
X142888000Y-63642000D01*
X122923600Y-72656400D02*
X122923600Y-73391000D01*
X150734000Y-74282000D02*
X151524000Y-74282000D01*
X125250000Y-110238000D02*
X125250000Y-110400000D01*
X115609000Y-98285000D02*
X117558000Y-98285000D01*
X107552600Y-74600800D02*
X108406200Y-74600800D01*
D61*
X119179600Y-110390600D02*
X120231200Y-110390600D01*
D60*
X135804000Y-76568000D02*
X135804000Y-77711000D01*
X112506000Y-92824000D02*
X111519000Y-92824000D01*
X147480000Y-64630000D02*
X149365000Y-64630000D01*
X165494000Y-93967000D02*
X166002000Y-94475000D01*
X151778000Y-69837000D02*
X150988000Y-69837000D01*
X124986000Y-107785000D02*
X125250000Y-108049000D01*
X121412600Y-74155000D02*
X121412600Y-73152000D01*
D61*
X177741000Y-110409000D02*
X177750000Y-110400000D01*
D60*
X114044600Y-67398600D02*
X113576400Y-67398600D01*
X125401000Y-98285000D02*
X127464000Y-98285000D01*
X161430000Y-73393000D02*
X161412000Y-73375000D01*
X144003000Y-63642000D02*
X144031000Y-63670000D01*
D61*
X177741000Y-116332000D02*
X177741000Y-110409000D01*
D60*
X184163000Y-63332000D02*
X184163000Y-64122000D01*
X105169000Y-60818000D02*
X105143600Y-60843400D01*
X144469000Y-68567000D02*
X144469000Y-69907000D01*
X142888000Y-63642000D02*
X144003000Y-63642000D01*
X148984000Y-94348000D02*
X149492000Y-94856000D01*
X112506000Y-84217000D02*
X112535000Y-84188000D01*
X135180000Y-90665000D02*
X136538000Y-90665000D01*
X135804000Y-76568000D02*
X134506000Y-76568000D01*
D61*
X186402000Y-71535000D02*
X186322000Y-71615000D01*
X180241000Y-116332000D02*
X180241000Y-110409000D01*
D60*
X171110000Y-67575000D02*
X172074000Y-67575000D01*
X121412600Y-73152000D02*
X121399600Y-73139000D01*
X115609000Y-90665000D02*
X117431000Y-90665000D01*
X168058000Y-67575000D02*
X168034000Y-67551000D01*
X103873600Y-60843400D02*
X102986600Y-60843400D01*
X105843000Y-90665000D02*
X107525000Y-90665000D01*
X143142000Y-77683000D02*
X143142000Y-78473000D01*
X122158000Y-84217000D02*
X122187000Y-84188000D01*
X139967000Y-85204000D02*
X141462000Y-85204000D01*
X147192000Y-64342000D02*
X147480000Y-64630000D01*
D61*
X167741000Y-110409000D02*
X167750000Y-110400000D01*
D60*
X171110000Y-66475000D02*
X171110000Y-68675000D01*
X168910000Y-66475000D02*
X171110000Y-66475000D01*
D61*
X186368000Y-65565000D02*
X186322000Y-65519000D01*
X125241000Y-110247000D02*
X125250000Y-110238000D01*
D60*
X135804000Y-74282000D02*
X134506000Y-74282000D01*
X135804000Y-69837000D02*
X135804000Y-69103000D01*
X130950000Y-84188000D02*
X131810000Y-85048000D01*
X108979000Y-82029000D02*
X108979000Y-82664000D01*
D61*
X122237800Y-110045200D02*
X121892400Y-110390600D01*
D58*
X157495000Y-63997000D02*
X157493000Y-63995000D01*
D60*
X107552600Y-81300800D02*
X108250800Y-81300800D01*
X153683000Y-100980000D02*
X153683000Y-99936000D01*
X158344000Y-97710400D02*
X158344000Y-100561000D01*
D61*
X125717600Y-79489000D02*
X125743000Y-79489000D01*
X151369000Y-93840000D02*
X151905000Y-93840000D01*
D60*
X140221000Y-75425000D02*
X139586000Y-75425000D01*
X113466000Y-86432000D02*
X113043000Y-86855000D01*
X153466818Y-92861818D02*
X153302000Y-92697000D01*
X114918000Y-100317000D02*
X116086000Y-101485000D01*
X154696000Y-98923000D02*
X154696000Y-98490500D01*
X132770000Y-85204000D02*
X132770000Y-84482675D01*
X123118000Y-92824000D02*
X123118000Y-94166000D01*
X142540500Y-75899500D02*
X142689063Y-75899500D01*
X152286000Y-90002000D02*
X153302000Y-90002000D01*
X142422000Y-94433000D02*
X142380000Y-94475000D01*
X113466000Y-92824000D02*
X113466000Y-94052000D01*
X137427000Y-69837000D02*
X136764000Y-69837000D01*
X152518000Y-94453000D02*
X153858500Y-94453000D01*
X153302000Y-92697000D02*
X153302000Y-92453000D01*
X142507000Y-75933000D02*
X142888000Y-75552000D01*
X154445000Y-92189000D02*
X153937000Y-91681000D01*
X132770000Y-85204000D02*
X132770000Y-86686000D01*
X141069000Y-74544500D02*
X141069000Y-75212000D01*
X152918000Y-94853000D02*
X153858500Y-94853000D01*
X143523000Y-68694000D02*
X143069000Y-68240000D01*
X132770000Y-92824000D02*
X132770000Y-94306000D01*
X162189000Y-94853000D02*
X162319000Y-94983000D01*
X158296000Y-100513000D02*
X158763000Y-100980000D01*
D61*
X122494100Y-77899000D02*
X122883000Y-77899000D01*
X151905000Y-93840000D02*
X152413000Y-94348000D01*
X123698600Y-79489000D02*
X123698600Y-81267000D01*
D59*
X154696000Y-97694028D02*
X154894290Y-97495738D01*
D60*
X154445000Y-92189000D02*
X154696000Y-91938000D01*
X114440000Y-100317000D02*
X114918000Y-100317000D01*
X137935000Y-74536000D02*
X138443000Y-74536000D01*
X140856000Y-75425000D02*
X139586000Y-75425000D01*
X154696000Y-98490500D02*
X154696000Y-97694028D01*
D59*
X153858500Y-92853001D02*
X153867317Y-92861818D01*
D60*
X142507000Y-75933000D02*
X142380000Y-76060000D01*
X142422000Y-86813000D02*
X142380000Y-86855000D01*
X143069000Y-68240000D02*
X143069000Y-67669500D01*
X123118000Y-94166000D02*
X122809000Y-94475000D01*
X153867317Y-92861818D02*
X153466818Y-92861818D01*
X153858500Y-92453000D02*
X154181000Y-92453000D01*
X142422000Y-92824000D02*
X143396000Y-92824000D01*
X142888000Y-75552000D02*
X142888000Y-75425000D01*
X158300619Y-97667019D02*
X158344000Y-97710400D01*
X158296000Y-98490500D02*
X158296000Y-100513000D01*
X154696000Y-90380000D02*
X154318000Y-90002000D01*
X149998000Y-85458000D02*
X149998000Y-86601000D01*
X113368000Y-100317000D02*
X113368000Y-101770000D01*
X148409000Y-73707000D02*
X148984000Y-74282000D01*
X123118000Y-86546000D02*
X122809000Y-86855000D01*
X132728000Y-92062000D02*
X132770000Y-92104000D01*
X153683000Y-99936000D02*
X154696000Y-98923000D01*
X153302000Y-92453000D02*
X153858500Y-92453000D01*
D61*
X173796000Y-61375000D02*
X175400000Y-62979000D01*
D60*
X149144500Y-85458000D02*
X149998000Y-85458000D01*
X136764000Y-74282000D02*
X136764000Y-76568000D01*
X197176000Y-68000000D02*
X198312500Y-68000000D01*
X184163000Y-62372000D02*
X184163000Y-61455000D01*
X142380000Y-76060000D02*
X142126000Y-76314000D01*
X139586000Y-75425000D02*
X138570000Y-75425000D01*
D61*
X160300000Y-61375000D02*
X173796000Y-61375000D01*
D60*
X148968000Y-70107000D02*
X146706500Y-70107000D01*
X132770000Y-92104000D02*
X132770000Y-92824000D01*
X132770000Y-84482675D02*
X132729855Y-84442530D01*
X142422000Y-85373000D02*
X143904000Y-86855000D01*
X132770000Y-86686000D02*
X132601000Y-86855000D01*
X137697000Y-70107000D02*
X137427000Y-69837000D01*
X113466000Y-92824000D02*
X114440000Y-92824000D01*
X158344000Y-100561000D02*
X158763000Y-100980000D01*
X141069000Y-75212000D02*
X140856000Y-75425000D01*
X149774000Y-74282000D02*
X148984000Y-74282000D01*
X154699000Y-92443000D02*
X154445000Y-92189000D01*
X138443000Y-74536000D02*
X139272000Y-73707000D01*
X143069000Y-75244000D02*
X142888000Y-75425000D01*
X149238000Y-69837000D02*
X150028000Y-69837000D01*
X136792000Y-75425000D02*
X138570000Y-75425000D01*
X163335000Y-94983000D02*
X164125000Y-94983000D01*
X142380000Y-76060000D02*
X142540500Y-75899500D01*
X146706500Y-73707000D02*
X148409000Y-73707000D01*
X142669000Y-74544500D02*
X142669000Y-75206000D01*
X139831500Y-70107000D02*
X137697000Y-70107000D01*
X142126000Y-76314000D02*
X142126000Y-76723000D01*
X113368000Y-100317000D02*
X114440000Y-100317000D01*
X142422000Y-92824000D02*
X142422000Y-94433000D01*
X113424000Y-61074000D02*
X113339000Y-61159000D01*
D61*
X122883000Y-77899000D02*
X123698600Y-78714600D01*
D60*
X113368000Y-101770000D02*
X113043000Y-102095000D01*
X152413000Y-94348000D02*
X152918000Y-94853000D01*
X158296000Y-92275000D02*
X158128000Y-92443000D01*
X123118000Y-85204000D02*
X123118000Y-86546000D01*
X123118000Y-92824000D02*
X124092000Y-92824000D01*
X143069000Y-74544500D02*
X143069000Y-75244000D01*
X113339000Y-61159000D02*
X112394400Y-61159000D01*
X113466000Y-85204000D02*
X113466000Y-86432000D01*
X132770000Y-94306000D02*
X132601000Y-94475000D01*
X154696000Y-91615500D02*
X154696000Y-90380000D01*
X139272000Y-73707000D02*
X139831500Y-73707000D01*
X160733500Y-94853000D02*
X162189000Y-94853000D01*
X149238000Y-69837000D02*
X148968000Y-70107000D01*
X137935000Y-74536000D02*
X137681000Y-74282000D01*
X113466000Y-85204000D02*
X114440000Y-85204000D01*
X153302000Y-90002000D02*
X153302000Y-92453000D01*
X162319000Y-94983000D02*
X163335000Y-94983000D01*
X140669000Y-74977000D02*
X140221000Y-75425000D01*
X183020000Y-62372000D02*
X183020000Y-61455000D01*
D61*
X123698600Y-78714600D02*
X123698600Y-79489000D01*
D60*
X163335000Y-94983000D02*
X163329500Y-94983000D01*
D61*
X123698600Y-81267000D02*
X125743000Y-81267000D01*
X123698600Y-79489000D02*
X125717600Y-79489000D01*
D60*
X113466000Y-94052000D02*
X113043000Y-94475000D01*
X163329500Y-94983000D02*
X163208000Y-95104500D01*
X142422000Y-85204000D02*
X142422000Y-85373000D01*
X123118000Y-85204000D02*
X124092000Y-85204000D01*
X140669000Y-74544500D02*
X140669000Y-74977000D01*
X137681000Y-74282000D02*
X136764000Y-74282000D01*
D58*
X139967000Y-63612000D02*
X139967000Y-62979000D01*
D60*
X142669000Y-75206000D02*
X142888000Y-75425000D01*
X154696000Y-91938000D02*
X154696000Y-91615500D01*
X197117000Y-68059000D02*
X197176000Y-68000000D01*
X154181000Y-92453000D02*
X154445000Y-92189000D01*
X158128000Y-92443000D02*
X154699000Y-92443000D01*
D58*
X112660000Y-107556000D02*
X111900000Y-107556000D01*
D60*
X142422000Y-85204000D02*
X142422000Y-86813000D01*
X158296000Y-91615500D02*
X158296000Y-92275000D01*
X149111000Y-86601000D02*
X149998000Y-86601000D01*
X117931600Y-74155000D02*
X117691600Y-74395000D01*
D61*
X115964000Y-69938600D02*
X114961500Y-69938600D01*
X114937500Y-69914600D02*
X114937500Y-71640900D01*
X114961500Y-69938600D02*
X114937500Y-69914600D01*
D60*
X117315700Y-67398600D02*
X117722100Y-67805000D01*
D61*
X114937500Y-71640900D02*
X117691600Y-74395000D01*
D60*
X119862600Y-74155000D02*
X117931600Y-74155000D01*
X116319600Y-67398600D02*
X117315700Y-67398600D01*
D58*
X105143600Y-61863400D02*
X105143600Y-66128600D01*
X105143600Y-66128600D02*
X105619600Y-66604600D01*
X105619600Y-66604600D02*
X107544000Y-66604600D01*
X104860400Y-69604600D02*
X107544000Y-69604600D01*
X103873600Y-68617800D02*
X104860400Y-69604600D01*
X103873600Y-61863400D02*
X103873600Y-68617800D01*
D60*
X106704000Y-62105000D02*
X106439000Y-61840000D01*
X106704000Y-63534600D02*
X106704000Y-62105000D01*
X111526800Y-69914600D02*
X111400000Y-70041400D01*
D61*
X113362500Y-69914600D02*
X111526800Y-69914600D01*
D58*
X155032400Y-70907000D02*
X157391400Y-73266000D01*
X197117000Y-64757000D02*
X198255500Y-64757000D01*
X198255500Y-64757000D02*
X198312500Y-64700000D01*
X157391400Y-73266000D02*
X160312400Y-76187000D01*
X160312400Y-76187000D02*
X160668000Y-76187000D01*
X146706500Y-70907000D02*
X155032400Y-70907000D01*
X160668000Y-75272600D02*
X160007600Y-75272600D01*
X195974000Y-65773000D02*
X198285500Y-65773000D01*
X155242000Y-70507000D02*
X146706500Y-70507000D01*
X160007600Y-75272600D02*
X155242000Y-70507000D01*
X198285500Y-65773000D02*
X198312500Y-65800000D01*
X160541000Y-78727000D02*
X160668000Y-78727000D01*
X153921000Y-72107000D02*
X160541000Y-78727000D01*
X198296500Y-66916000D02*
X198312500Y-66900000D01*
X197117000Y-66916000D02*
X198296500Y-66916000D01*
X146706500Y-72107000D02*
X153921000Y-72107000D01*
X153432000Y-72507000D02*
X156477000Y-75552000D01*
X156477000Y-75552000D02*
X160541000Y-79616000D01*
X146706500Y-72507000D02*
X153432000Y-72507000D01*
X196457000Y-69100000D02*
X198312500Y-69100000D01*
X160541000Y-79616000D02*
X160668000Y-79616000D01*
X196101000Y-69456000D02*
X196457000Y-69100000D01*
X193561000Y-71615000D02*
X193876000Y-71300000D01*
X154410000Y-71707000D02*
X160668000Y-77965000D01*
X146706500Y-71707000D02*
X154410000Y-71707000D01*
X193876000Y-71300000D02*
X198312500Y-71300000D01*
X191783000Y-72250000D02*
X191883000Y-72350000D01*
X154721200Y-71307000D02*
X146706500Y-71307000D01*
X191883000Y-72350000D02*
X198312500Y-72350000D01*
X160668000Y-77076000D02*
X160490200Y-77076000D01*
X160490200Y-77076000D02*
X154721200Y-71307000D01*
D61*
X160241000Y-116332000D02*
X160241000Y-111252000D01*
X140241000Y-116332000D02*
X140241000Y-111259000D01*
X160254000Y-111239000D02*
X161176000Y-111239000D01*
X124369100Y-76949000D02*
X127267000Y-76949000D01*
X160241000Y-111252000D02*
X160254000Y-111239000D01*
D60*
X106818000Y-83934000D02*
X106818000Y-82376200D01*
X106818000Y-82376200D02*
X106712600Y-82270800D01*
D58*
X168234000Y-96453000D02*
X160733500Y-96453000D01*
X176912000Y-105131000D02*
X168234000Y-96453000D01*
X176912000Y-106167000D02*
X176912000Y-105131000D01*
X167999000Y-96853000D02*
X160733500Y-96853000D01*
X176412000Y-105266000D02*
X167999000Y-96853000D01*
X176412000Y-106167000D02*
X176412000Y-105266000D01*
X175912000Y-106167000D02*
X175912000Y-105528000D01*
X167637000Y-97253000D02*
X160733500Y-97253000D01*
X175912000Y-105528000D02*
X167637000Y-97253000D01*
X175412000Y-106167000D02*
X175412000Y-105790000D01*
X175412000Y-105790000D02*
X167275000Y-97653000D01*
X167275000Y-97653000D02*
X160733500Y-97653000D01*
X174638000Y-107937000D02*
X175408000Y-107167000D01*
X175408000Y-107167000D02*
X175412000Y-107167000D01*
X174638000Y-108064000D02*
X174638000Y-107937000D01*
X175527000Y-108064000D02*
X175912000Y-107679000D01*
X175912000Y-107679000D02*
X175912000Y-107167000D01*
X176412000Y-108060000D02*
X176412000Y-107167000D01*
X176416000Y-108064000D02*
X176412000Y-108060000D01*
X176912000Y-107671000D02*
X176912000Y-107167000D01*
X177305000Y-108064000D02*
X176912000Y-107671000D01*
D59*
X160656000Y-105536000D02*
X160656000Y-106167000D01*
X160541000Y-91554000D02*
X160479500Y-91615500D01*
X162446000Y-103746000D02*
X160656000Y-105536000D01*
X160479500Y-91615500D02*
X159896000Y-91615500D01*
X162446000Y-98539000D02*
X162446000Y-103746000D01*
X160922000Y-104635000D02*
X160922000Y-98539000D01*
X159496000Y-90567000D02*
X159496000Y-91615500D01*
X160156000Y-105401000D02*
X160922000Y-104635000D01*
X159652000Y-90411000D02*
X159496000Y-90567000D01*
X160156000Y-106167000D02*
X160156000Y-105401000D01*
D58*
X159656000Y-105334516D02*
X160541000Y-104449516D01*
X160541000Y-99809000D02*
X159896000Y-99164000D01*
X159656000Y-106167000D02*
X159656000Y-105334516D01*
X160541000Y-104449516D02*
X160541000Y-99809000D01*
X159896000Y-99164000D02*
X159896000Y-98490500D01*
X160204820Y-99986189D02*
X159496000Y-99277369D01*
X159496000Y-99277369D02*
X159496000Y-98490500D01*
X159144000Y-105143000D02*
X160204820Y-104082180D01*
X159144000Y-106155000D02*
X159144000Y-105143000D01*
X159156000Y-106167000D02*
X159144000Y-106155000D01*
X160204820Y-104082180D02*
X160204820Y-99986189D01*
X159156000Y-107167000D02*
X159156000Y-107925000D01*
X159156000Y-107925000D02*
X158636000Y-108445000D01*
X159656000Y-107167000D02*
X159656000Y-108441000D01*
X159656000Y-108441000D02*
X159652000Y-108445000D01*
X160156000Y-107167000D02*
X160156000Y-107933000D01*
X160156000Y-107933000D02*
X160668000Y-108445000D01*
X160656000Y-107417000D02*
X161684000Y-108445000D01*
X160656000Y-107167000D02*
X160656000Y-107417000D01*
X159860000Y-103919000D02*
X159860000Y-100152054D01*
X159096000Y-99388054D02*
X159096000Y-98490500D01*
X156592000Y-106167000D02*
X157612000Y-106167000D01*
X157612000Y-106167000D02*
X159860000Y-103919000D01*
X159860000Y-100152054D02*
X159096000Y-99388054D01*
X159525000Y-100326396D02*
X159525000Y-103619000D01*
X158696000Y-99497396D02*
X159525000Y-100326396D01*
X159525000Y-103619000D02*
X157874000Y-105270000D01*
X157874000Y-105270000D02*
X156350000Y-105270000D01*
X156350000Y-105270000D02*
X156092000Y-105528000D01*
X158696000Y-98490500D02*
X158696000Y-99497396D01*
X156092000Y-105528000D02*
X156092000Y-106167000D01*
X155592000Y-106167000D02*
X155592000Y-105767000D01*
X134379000Y-71615000D02*
X134687000Y-71307000D01*
X134687000Y-71307000D02*
X139831500Y-71307000D01*
X155592000Y-105767000D02*
X154968000Y-105143000D01*
X154968000Y-105143000D02*
X150895500Y-105143000D01*
X140729000Y-70472000D02*
X140694000Y-70507000D01*
X140694000Y-70507000D02*
X139831500Y-70507000D01*
X151532000Y-106167000D02*
X151524000Y-106159000D01*
X155092000Y-106167000D02*
X151532000Y-106167000D01*
X153558000Y-108953000D02*
X155092000Y-107419000D01*
X155092000Y-107419000D02*
X155092000Y-107167000D01*
X153429000Y-108953000D02*
X153558000Y-108953000D01*
X155592000Y-107679000D02*
X154318000Y-108953000D01*
X155592000Y-107167000D02*
X155592000Y-107679000D01*
D59*
X156092000Y-108195000D02*
X155334000Y-108953000D01*
X156092000Y-107167000D02*
X156092000Y-108195000D01*
D58*
X156592000Y-108711000D02*
X156350000Y-108953000D01*
X156592000Y-107167000D02*
X156592000Y-108711000D01*
D59*
X175241000Y-110826000D02*
X175241000Y-116332000D01*
X172340000Y-107925000D02*
X175241000Y-110826000D01*
X172340000Y-107167000D02*
X172340000Y-107925000D01*
X171840000Y-107167000D02*
X171840000Y-108456625D01*
X171840000Y-108456625D02*
X172741000Y-109357625D01*
X172741000Y-109357625D02*
X172741000Y-116332000D01*
X171340000Y-108441000D02*
X170241000Y-109540000D01*
X171340000Y-107167000D02*
X171340000Y-108441000D01*
X170241000Y-109540000D02*
X170241000Y-116332000D01*
X166256000Y-109207000D02*
X165241000Y-110222000D01*
X170840000Y-107167000D02*
X170840000Y-107925000D01*
X169558000Y-109207000D02*
X166256000Y-109207000D01*
X170840000Y-107925000D02*
X169558000Y-109207000D01*
X165241000Y-110222000D02*
X165241000Y-116332000D01*
D58*
X156296000Y-100879000D02*
X156296000Y-98490500D01*
X154699000Y-102476000D02*
X156296000Y-100879000D01*
X170836000Y-106167000D02*
X170066000Y-105397000D01*
X170840000Y-106167000D02*
X170836000Y-106167000D01*
X154699000Y-101587000D02*
X155896000Y-100390000D01*
X155896000Y-100390000D02*
X155896000Y-98490500D01*
X171340000Y-106167000D02*
X171340000Y-105528000D01*
X171340000Y-105528000D02*
X170574000Y-104762000D01*
X154699000Y-100698000D02*
X155496000Y-99901000D01*
X171840000Y-104885000D02*
X171082000Y-104127000D01*
X171840000Y-106167000D02*
X171840000Y-104885000D01*
X155496000Y-99901000D02*
X155496000Y-98490500D01*
X172340000Y-106167000D02*
X172340000Y-104115000D01*
X154699000Y-99809000D02*
X155096000Y-99412000D01*
X155096000Y-99412000D02*
X155096000Y-98490500D01*
X172340000Y-104115000D02*
X171717000Y-103492000D01*
D59*
X162741000Y-110309000D02*
X162741000Y-116332000D01*
X164720000Y-108330000D02*
X162741000Y-110309000D01*
X164720000Y-107167000D02*
X164720000Y-108330000D01*
X157741000Y-112007000D02*
X157741000Y-116332000D01*
D58*
X162001500Y-110477000D02*
X164220000Y-108258500D01*
X159271000Y-110477000D02*
X162001500Y-110477000D01*
D59*
X158255000Y-111493000D02*
X157741000Y-112007000D01*
D58*
X164220000Y-108258500D02*
X164220000Y-107167000D01*
X158255000Y-111493000D02*
X159271000Y-110477000D01*
X163720000Y-108187000D02*
X163720000Y-107167000D01*
X155241000Y-116332000D02*
X155241000Y-112094000D01*
X161811000Y-110096000D02*
X163720000Y-108187000D01*
X155241000Y-112094000D02*
X157239000Y-110096000D01*
X157239000Y-110096000D02*
X161811000Y-110096000D01*
X163220000Y-107167000D02*
X163220000Y-108179000D01*
X163220000Y-108179000D02*
X163208000Y-108191000D01*
D59*
X155080000Y-109715000D02*
X161684000Y-109715000D01*
X161684000Y-109715000D02*
X163208000Y-108191000D01*
X152741000Y-112054000D02*
X155080000Y-109715000D01*
X152741000Y-116332000D02*
X152741000Y-112054000D01*
D58*
X163218500Y-103492000D02*
X163220000Y-103493500D01*
X163220000Y-103493500D02*
X163220000Y-106167000D01*
X157096000Y-102746000D02*
X157096000Y-98490500D01*
X156604000Y-103238000D02*
X157096000Y-102746000D01*
X163716000Y-102476000D02*
X163720000Y-102480000D01*
X156696000Y-102247500D02*
X156696000Y-98490500D01*
X156594500Y-102349000D02*
X156696000Y-102247500D01*
X163720000Y-102480000D02*
X163720000Y-106167000D01*
X161684000Y-92189000D02*
X160997500Y-92189000D01*
X164220000Y-106167000D02*
X164220000Y-98543000D01*
X164220000Y-98543000D02*
X164224000Y-98539000D01*
X160997500Y-92189000D02*
X160733500Y-92453000D01*
X164720000Y-99313000D02*
X165494000Y-98539000D01*
X162313000Y-91294000D02*
X162313000Y-92523936D01*
X162313000Y-92523936D02*
X161983936Y-92853000D01*
X162192000Y-91173000D02*
X162313000Y-91294000D01*
X164720000Y-106167000D02*
X164720000Y-99313000D01*
X161983936Y-92853000D02*
X160733500Y-92853000D01*
X145241000Y-112823000D02*
X149996000Y-108068000D01*
X149996000Y-108068000D02*
X149996000Y-107167000D01*
X145241000Y-116332000D02*
X145241000Y-112823000D01*
X142741000Y-116332000D02*
X142741000Y-109608000D01*
X142741000Y-109608000D02*
X142888000Y-109461000D01*
D59*
X140602000Y-108445000D02*
X148476000Y-108445000D01*
D58*
X148730000Y-108445000D02*
X148476000Y-108445000D01*
D59*
X137741000Y-111306000D02*
X140602000Y-108445000D01*
X137741000Y-116332000D02*
X137741000Y-111306000D01*
D58*
X149496000Y-107679000D02*
X148730000Y-108445000D01*
X149496000Y-107167000D02*
X149496000Y-107679000D01*
X148226000Y-107937000D02*
X148996000Y-107167000D01*
X135522000Y-111620000D02*
X139205000Y-107937000D01*
X139205000Y-107937000D02*
X148226000Y-107937000D01*
D59*
X135522000Y-111620000D02*
X135241000Y-111901000D01*
X135241000Y-111901000D02*
X135241000Y-116332000D01*
D58*
X157896000Y-91151000D02*
X157896000Y-91615500D01*
X148996000Y-106167000D02*
X148722000Y-106167000D01*
X158382000Y-89128566D02*
X158382000Y-90665000D01*
X158763000Y-87738000D02*
X158763000Y-88747566D01*
X158382000Y-90665000D02*
X157896000Y-91151000D01*
X158763000Y-88747566D02*
X158382000Y-89128566D01*
X148722000Y-106167000D02*
X147968000Y-106921000D01*
X134379000Y-72631000D02*
X135303000Y-71707000D01*
X149496000Y-104258000D02*
X149496000Y-106167000D01*
X135303000Y-71707000D02*
X139831500Y-71707000D01*
X149365000Y-104127000D02*
X149496000Y-104258000D01*
X150394000Y-106065000D02*
X150394000Y-104749000D01*
X156985000Y-104508000D02*
X157896000Y-103597000D01*
X157896000Y-103597000D02*
X157896000Y-98490500D01*
X150635000Y-104508000D02*
X156985000Y-104508000D01*
X150496000Y-106167000D02*
X150394000Y-106065000D01*
X150394000Y-104749000D02*
X150635000Y-104508000D01*
X150381000Y-104000000D02*
X156858000Y-104000000D01*
X149996000Y-104385000D02*
X150381000Y-104000000D01*
X149996000Y-106167000D02*
X149996000Y-104385000D01*
X157496000Y-103362000D02*
X157496000Y-98490500D01*
X156858000Y-104000000D02*
X157496000Y-103362000D01*
X146749500Y-75425000D02*
X145869000Y-74544500D01*
X114567000Y-102730000D02*
X114567000Y-106669000D01*
X114567000Y-102730000D02*
X111900000Y-102730000D01*
X111900000Y-102730000D02*
X111265000Y-102095000D01*
X145869000Y-81200000D02*
X145869000Y-74544500D01*
X146571000Y-81902000D02*
X145869000Y-81200000D01*
X114567000Y-106669000D02*
X113680000Y-107556000D01*
X111265000Y-102095000D02*
X105843000Y-102095000D01*
X149744000Y-75425000D02*
X146749500Y-75425000D01*
X125888000Y-62344000D02*
X127394000Y-62344000D01*
X127394000Y-62344000D02*
X127521000Y-62471000D01*
D59*
X134195000Y-88125000D02*
X135180000Y-88125000D01*
X117494500Y-88125000D02*
X118129500Y-87490000D01*
X118066000Y-95110000D02*
X124766000Y-95110000D01*
X127083000Y-95745000D02*
X127718000Y-95110000D01*
X134545000Y-95110000D02*
X135180000Y-95745000D01*
D58*
X104534000Y-102603000D02*
X105296000Y-103365000D01*
D59*
X127210000Y-88125000D02*
X127845000Y-87490000D01*
X108033000Y-88125000D02*
X108668000Y-87490000D01*
X125401000Y-88125000D02*
X127210000Y-88125000D01*
D58*
X136157000Y-88125000D02*
X136919000Y-87363000D01*
D59*
X133560000Y-87490000D02*
X134195000Y-88125000D01*
X105843000Y-95745000D02*
X107271000Y-95745000D01*
X115609000Y-88125000D02*
X117494500Y-88125000D01*
D58*
X104534000Y-96380000D02*
X104534000Y-102603000D01*
D59*
X108668000Y-87490000D02*
X114974000Y-87490000D01*
D58*
X105843000Y-95745000D02*
X105169000Y-95745000D01*
D59*
X127845000Y-87490000D02*
X133560000Y-87490000D01*
D58*
X135180000Y-95745000D02*
X136157000Y-95745000D01*
X136157000Y-95745000D02*
X136792000Y-95110000D01*
D59*
X114974000Y-87490000D02*
X115609000Y-88125000D01*
X123775423Y-87490000D02*
X124410423Y-88125000D01*
X124410423Y-88125000D02*
X125401000Y-88125000D01*
D58*
X145469000Y-81689000D02*
X145469000Y-74544500D01*
D59*
X118129500Y-87490000D02*
X123775423Y-87490000D01*
X117431000Y-95745000D02*
X118066000Y-95110000D01*
X107906000Y-95110000D02*
X114510000Y-95110000D01*
D58*
X136792000Y-95110000D02*
X136792000Y-95110002D01*
D59*
X105843000Y-88125000D02*
X108033000Y-88125000D01*
D58*
X145475500Y-97253000D02*
X143332500Y-95110000D01*
D59*
X124766000Y-95110000D02*
X125401000Y-95745000D01*
X127718000Y-95110000D02*
X134545000Y-95110000D01*
X114510000Y-95110000D02*
X115145000Y-95745000D01*
D58*
X135180000Y-88125000D02*
X136157000Y-88125000D01*
X145682000Y-81902000D02*
X145469000Y-81689000D01*
D59*
X125401000Y-95745000D02*
X127083000Y-95745000D01*
X115145000Y-95745000D02*
X115609000Y-95745000D01*
D58*
X143332500Y-95110000D02*
X136792000Y-95110000D01*
D59*
X105239000Y-95745000D02*
X105843000Y-95745000D01*
X115609000Y-95745000D02*
X117431000Y-95745000D01*
X107271000Y-95745000D02*
X107906000Y-95110000D01*
D58*
X153858500Y-97253000D02*
X145475500Y-97253000D01*
X105169000Y-95745000D02*
X104534000Y-96380000D01*
X105296000Y-103365000D02*
X105843000Y-103365000D01*
D59*
X119844000Y-88760000D02*
X123775188Y-88760000D01*
X123781000Y-96380000D02*
X124416000Y-97015000D01*
X129694437Y-88760000D02*
X133560000Y-88760000D01*
D58*
X153858500Y-96853000D02*
X146409000Y-96853000D01*
D59*
X115609000Y-97015000D02*
X119082000Y-97015000D01*
D58*
X145069000Y-82051000D02*
X145069000Y-74544500D01*
D59*
X119082000Y-97015000D02*
X119717000Y-96380000D01*
X119717000Y-96380000D02*
X123781000Y-96380000D01*
X134179500Y-97015000D02*
X135180000Y-97015000D01*
X119209000Y-89395000D02*
X119844000Y-88760000D01*
X115609000Y-89395000D02*
X119209000Y-89395000D01*
D58*
X146409000Y-96853000D02*
X145936000Y-96380000D01*
D59*
X134195000Y-89395000D02*
X135180000Y-89395000D01*
D58*
X145682000Y-82664000D02*
X145069000Y-82051000D01*
X135180000Y-97015000D02*
X137173000Y-97015000D01*
D59*
X109303000Y-96380000D02*
X113890671Y-96380000D01*
X128734000Y-97015000D02*
X129369000Y-96380000D01*
X124416000Y-97015000D02*
X125401000Y-97015000D01*
D58*
X135180000Y-89395000D02*
X136919000Y-89395000D01*
D59*
X129059437Y-89395000D02*
X129694437Y-88760000D01*
X129369000Y-96380000D02*
X133544500Y-96380000D01*
D58*
X137173000Y-97015000D02*
X137427000Y-96761000D01*
D59*
X125401000Y-89395000D02*
X129059437Y-89395000D01*
X133544500Y-96380000D02*
X134179500Y-97015000D01*
X114525671Y-97015000D02*
X115609000Y-97015000D01*
X125401000Y-97015000D02*
X128734000Y-97015000D01*
D58*
X108852000Y-104635000D02*
X105843000Y-104635000D01*
D59*
X105843000Y-97015000D02*
X108668000Y-97015000D01*
X113890671Y-96380000D02*
X114525671Y-97015000D01*
X108668000Y-97015000D02*
X109303000Y-96380000D01*
X133560000Y-88760000D02*
X134195000Y-89395000D01*
X124410188Y-89395000D02*
X125401000Y-89395000D01*
X123775188Y-88760000D02*
X124410188Y-89395000D01*
X124416000Y-98920000D02*
X130512000Y-98920000D01*
X121495000Y-90665000D02*
X122809000Y-90665000D01*
D58*
X111646000Y-105905000D02*
X113043000Y-105905000D01*
D59*
X140094000Y-98920000D02*
X140729000Y-98285000D01*
D58*
X153858500Y-96453000D02*
X147279000Y-96453000D01*
X142380000Y-90665000D02*
X139205000Y-90665000D01*
X123866500Y-90665000D02*
X124501500Y-91300000D01*
X131401000Y-90665000D02*
X132601000Y-90665000D01*
X113043000Y-98285000D02*
X113678000Y-98920000D01*
D59*
X132601000Y-98285000D02*
X133433000Y-98285000D01*
D58*
X138570000Y-91300000D02*
X138697000Y-91173000D01*
X145682000Y-83426000D02*
X144669000Y-82413000D01*
D59*
X122809000Y-98285000D02*
X123781000Y-98285000D01*
D58*
X139205000Y-90665000D02*
X138697000Y-91173000D01*
X144669000Y-82413000D02*
X144669000Y-74544500D01*
X121241000Y-98285000D02*
X122809000Y-98285000D01*
D59*
X114129000Y-90665000D02*
X114764000Y-91300000D01*
D58*
X133236000Y-91300000D02*
X138570000Y-91300000D01*
X132601000Y-90665000D02*
X133236000Y-91300000D01*
X120606000Y-98920000D02*
X121241000Y-98285000D01*
D59*
X140729000Y-98285000D02*
X142380000Y-98285000D01*
X120860000Y-91300000D02*
X121495000Y-90665000D01*
D58*
X113043000Y-98285000D02*
X113043000Y-99174000D01*
X147279000Y-96453000D02*
X146444000Y-95618000D01*
D59*
X123781000Y-98285000D02*
X124416000Y-98920000D01*
D58*
X130766000Y-91300000D02*
X131401000Y-90665000D01*
X113678000Y-98920000D02*
X120606000Y-98920000D01*
X124501500Y-91300000D02*
X130766000Y-91300000D01*
D59*
X131147000Y-98285000D02*
X132601000Y-98285000D01*
X130512000Y-98920000D02*
X131147000Y-98285000D01*
X114764000Y-91300000D02*
X120860000Y-91300000D01*
X134068000Y-98920000D02*
X140094000Y-98920000D01*
X133433000Y-98285000D02*
X134068000Y-98920000D01*
D58*
X122809000Y-90665000D02*
X123866500Y-90665000D01*
D59*
X113043000Y-90665000D02*
X114129000Y-90665000D01*
X122809000Y-97015000D02*
X123654000Y-97015000D01*
D58*
X148149000Y-96053000D02*
X146952000Y-94856000D01*
D59*
X123654000Y-97015000D02*
X124289000Y-97650000D01*
X138570000Y-97650000D02*
X139205000Y-97015000D01*
D58*
X113043000Y-97015000D02*
X110630000Y-97015000D01*
D59*
X113678000Y-90030000D02*
X120098000Y-90030000D01*
X113043000Y-89395000D02*
X113678000Y-90030000D01*
D58*
X142380000Y-89395000D02*
X139586000Y-89395000D01*
D59*
X130639000Y-89395000D02*
X132601000Y-89395000D01*
X124416000Y-90030000D02*
X130004000Y-90030000D01*
X113043000Y-97015000D02*
X113367000Y-97015000D01*
X113367000Y-97015000D02*
X114002000Y-97650000D01*
X132601000Y-97015000D02*
X133433000Y-97015000D01*
X119844000Y-97650000D02*
X120479000Y-97015000D01*
X122809000Y-89395000D02*
X123781000Y-89395000D01*
X124289000Y-97650000D02*
X129496000Y-97650000D01*
X132601000Y-89395000D02*
X133236000Y-90030000D01*
X123781000Y-89395000D02*
X124416000Y-90030000D01*
X133433000Y-97015000D02*
X134068000Y-97650000D01*
D58*
X153858500Y-96053000D02*
X148149000Y-96053000D01*
D59*
X138951000Y-90030000D02*
X139586000Y-89395000D01*
X139205000Y-97015000D02*
X142380000Y-97015000D01*
X120479000Y-97015000D02*
X122809000Y-97015000D01*
X130131000Y-97015000D02*
X132601000Y-97015000D01*
D58*
X145682000Y-84188000D02*
X144269000Y-82775000D01*
D59*
X129496000Y-97650000D02*
X130131000Y-97015000D01*
X120733000Y-89395000D02*
X122809000Y-89395000D01*
X134068000Y-97650000D02*
X138570000Y-97650000D01*
X114002000Y-97650000D02*
X119844000Y-97650000D01*
D58*
X113043000Y-104635000D02*
X110376000Y-104635000D01*
X144269000Y-82775000D02*
X144269000Y-74544500D01*
D59*
X133236000Y-90030000D02*
X138951000Y-90030000D01*
X120098000Y-90030000D02*
X120733000Y-89395000D01*
D58*
X110630000Y-97015000D02*
X110376000Y-97269000D01*
D59*
X130004000Y-90030000D02*
X130639000Y-89395000D01*
X136792000Y-96253000D02*
X137300000Y-95745000D01*
X124543000Y-96380000D02*
X127972000Y-96380000D01*
X114129000Y-88125000D02*
X114764000Y-88760000D01*
X122809000Y-88125000D02*
X123714829Y-88125000D01*
X113043000Y-95745000D02*
X114002000Y-95745000D01*
X118320000Y-96380000D02*
X118955000Y-95745000D01*
D58*
X153858500Y-95653000D02*
X149019000Y-95653000D01*
X113043000Y-95745000D02*
X111392000Y-95745000D01*
D59*
X128861000Y-88125000D02*
X132601000Y-88125000D01*
D58*
X143869000Y-83137000D02*
X143869000Y-74544500D01*
D59*
X128226000Y-88760000D02*
X128861000Y-88125000D01*
D58*
X142380000Y-88125000D02*
X140475000Y-88125000D01*
D59*
X114637000Y-96380000D02*
X118320000Y-96380000D01*
X134195000Y-96253000D02*
X136792000Y-96253000D01*
D58*
X145682000Y-84950000D02*
X143869000Y-83137000D01*
X140475000Y-95745000D02*
X141110000Y-95745000D01*
D59*
X127972000Y-96380000D02*
X128607000Y-95745000D01*
X134322000Y-88760000D02*
X137116000Y-88760000D01*
X123908000Y-95745000D02*
X124543000Y-96380000D01*
D58*
X147587000Y-94221000D02*
X147587000Y-93967000D01*
D59*
X123714829Y-88125000D02*
X124349829Y-88760000D01*
X122809000Y-95745000D02*
X123908000Y-95745000D01*
X133687000Y-88125000D02*
X134322000Y-88760000D01*
D58*
X111392000Y-103365000D02*
X113043000Y-103365000D01*
D59*
X114764000Y-88760000D02*
X118320000Y-88760000D01*
X118955000Y-88125000D02*
X122809000Y-88125000D01*
X141110000Y-95745000D02*
X142380000Y-95745000D01*
X132601000Y-95745000D02*
X133687000Y-95745000D01*
X137300000Y-95745000D02*
X141110000Y-95745000D01*
X113043000Y-88125000D02*
X114129000Y-88125000D01*
D58*
X149019000Y-95653000D02*
X147587000Y-94221000D01*
D59*
X132601000Y-88125000D02*
X133687000Y-88125000D01*
X114002000Y-95745000D02*
X114637000Y-96380000D01*
X118320000Y-88760000D02*
X118955000Y-88125000D01*
X128607000Y-95745000D02*
X132601000Y-95745000D01*
X118955000Y-95745000D02*
X122809000Y-95745000D01*
X124349829Y-88760000D02*
X128226000Y-88760000D01*
X137116000Y-88760000D02*
X137751000Y-88125000D01*
X137751000Y-88125000D02*
X140475000Y-88125000D01*
X133687000Y-95745000D02*
X134195000Y-96253000D01*
D58*
X117366000Y-100195000D02*
X117366000Y-101485000D01*
X107328000Y-86855000D02*
X105843000Y-86855000D01*
X117361000Y-100190000D02*
X117366000Y-100195000D01*
X118626000Y-100195000D02*
X118631000Y-100190000D01*
X107201000Y-94475000D02*
X105843000Y-94475000D01*
X118626000Y-101485000D02*
X118626000Y-100195000D01*
X119896000Y-100195000D02*
X119901000Y-100190000D01*
X116980000Y-86855000D02*
X115609000Y-86855000D01*
X119896000Y-101485000D02*
X119896000Y-100195000D01*
X121176000Y-100195000D02*
X121171000Y-100190000D01*
X116980000Y-94475000D02*
X115609000Y-94475000D01*
X121176000Y-101485000D02*
X121176000Y-100195000D01*
X122446000Y-101485000D02*
X122446000Y-100195000D01*
X122446000Y-100195000D02*
X122441000Y-100190000D01*
X126632000Y-86855000D02*
X125401000Y-86855000D01*
X126759000Y-94475000D02*
X125401000Y-94475000D01*
X123706000Y-100195000D02*
X123711000Y-100190000D01*
X123706000Y-101485000D02*
X123706000Y-100195000D01*
X124986000Y-101485000D02*
X124986000Y-100195000D01*
X134760000Y-87275000D02*
X135180000Y-86855000D01*
X124986000Y-100195000D02*
X124981000Y-100190000D01*
X134760000Y-87363000D02*
X134760000Y-87275000D01*
X118885000Y-103873000D02*
X116086000Y-106672000D01*
X116086000Y-106672000D02*
X116086000Y-107785000D01*
X144669000Y-66956516D02*
X145725516Y-65900000D01*
X144793000Y-99301000D02*
X143523000Y-100571000D01*
X145725516Y-65900000D02*
X151016000Y-65900000D01*
X153556000Y-99174000D02*
X153429000Y-99301000D01*
X128791000Y-103873000D02*
X118885000Y-103873000D01*
X144669000Y-67669500D02*
X144669000Y-66956516D01*
X153429000Y-99301000D02*
X144793000Y-99301000D01*
X132093000Y-100571000D02*
X128791000Y-103873000D01*
X143523000Y-100571000D02*
X132093000Y-100571000D01*
X129045000Y-104635000D02*
X119393000Y-104635000D01*
X119393000Y-104635000D02*
X117366000Y-106662000D01*
X153048000Y-99936000D02*
X152921000Y-100063000D01*
X153937000Y-77838000D02*
X157401000Y-81302000D01*
X144920000Y-100063000D02*
X143904000Y-101079000D01*
X152921000Y-100063000D02*
X144920000Y-100063000D01*
X140475000Y-65900000D02*
X141069000Y-66494000D01*
X143904000Y-101079000D02*
X132601000Y-101079000D01*
X157401000Y-81302000D02*
X157401000Y-88887000D01*
X157096000Y-90681000D02*
X157096000Y-91615500D01*
X117366000Y-106662000D02*
X117366000Y-107785000D01*
X141069000Y-66494000D02*
X141069000Y-67669500D01*
X157401000Y-88887000D02*
X157372031Y-88915969D01*
X157372031Y-90404969D02*
X157096000Y-90681000D01*
X153937000Y-76441000D02*
X153937000Y-77838000D01*
X157372031Y-88915969D02*
X157372031Y-90404969D01*
X132601000Y-101079000D02*
X129045000Y-104635000D01*
X140669000Y-66983000D02*
X140669000Y-67669500D01*
X140348000Y-66662000D02*
X140669000Y-66983000D01*
X153175000Y-76441000D02*
X153175000Y-78346000D01*
X156899500Y-82070500D02*
X156899500Y-90115500D01*
X145047000Y-100825000D02*
X144285000Y-101587000D01*
X132982000Y-101587000D02*
X129426000Y-105143000D01*
X118626000Y-106672000D02*
X118626000Y-107785000D01*
X120155000Y-105143000D02*
X118626000Y-106672000D01*
X152540000Y-100825000D02*
X145047000Y-100825000D01*
X144285000Y-101587000D02*
X132982000Y-101587000D01*
X129426000Y-105143000D02*
X120155000Y-105143000D01*
X156899500Y-90115500D02*
X156858000Y-90157000D01*
X139713000Y-66662000D02*
X140348000Y-66662000D01*
X156858000Y-90157000D02*
X156696000Y-90319000D01*
X156696000Y-90319000D02*
X156696000Y-91615500D01*
X153175000Y-78346000D02*
X156899500Y-82070500D01*
X144539000Y-102095000D02*
X133490000Y-102095000D01*
X126759000Y-107300000D02*
X126759000Y-105905000D01*
X123076000Y-105651000D02*
X122446000Y-106281000D01*
X156397500Y-89395000D02*
X156296000Y-89496500D01*
X126759000Y-105905000D02*
X126505000Y-105651000D01*
X156397500Y-83092500D02*
X156397500Y-89395000D01*
X139831500Y-67923500D02*
X139831500Y-68507000D01*
X139078000Y-67170000D02*
X139831500Y-67923500D01*
X122446000Y-106281000D02*
X122446000Y-107785000D01*
X126505000Y-105651000D02*
X123076000Y-105651000D01*
X133490000Y-102095000D02*
X129934000Y-105651000D01*
X129934000Y-105651000D02*
X127013000Y-105651000D01*
X152032000Y-101587000D02*
X145047000Y-101587000D01*
X127013000Y-105651000D02*
X126759000Y-105905000D01*
X145047000Y-101587000D02*
X144539000Y-102095000D01*
X152413000Y-79108000D02*
X156397500Y-83092500D01*
X156296000Y-89496500D02*
X156296000Y-91615500D01*
X152413000Y-76441000D02*
X152413000Y-79108000D01*
D59*
X107650000Y-68091400D02*
X108748200Y-68091400D01*
D58*
X116032100Y-66861100D02*
X118701100Y-66861100D01*
D59*
X108748200Y-68091400D02*
X108850000Y-68091400D01*
X109100000Y-67841400D02*
X109100000Y-67341400D01*
X108850000Y-68091400D02*
X109100000Y-67841400D01*
D58*
X118701100Y-66861100D02*
X119899000Y-68059000D01*
D59*
X109100000Y-67341400D02*
X108850000Y-67091400D01*
X111980300Y-66861100D02*
X114332100Y-66861100D01*
X108850000Y-67091400D02*
X107650000Y-67091400D01*
X111500000Y-67341400D02*
X111980300Y-66861100D01*
X109100000Y-67341400D02*
X111500000Y-67341400D01*
D58*
X114332100Y-66861100D02*
X116032100Y-66861100D01*
D59*
X105800000Y-68341400D02*
X106050000Y-68591400D01*
X105800000Y-67891400D02*
X105800000Y-68341400D01*
X106050000Y-68591400D02*
X107650000Y-68591400D01*
D58*
X116730100Y-67936100D02*
X117996000Y-69202000D01*
X114332100Y-67936100D02*
X116032100Y-67936100D01*
X117996000Y-69202000D02*
X119899000Y-69202000D01*
D59*
X113663600Y-68604600D02*
X114332100Y-67936100D01*
X107544000Y-68604600D02*
X113663600Y-68604600D01*
X107650000Y-67591400D02*
X106100000Y-67591400D01*
D58*
X116032100Y-67936100D02*
X116730100Y-67936100D01*
D59*
X106100000Y-67591400D02*
X105800000Y-67891400D01*
D58*
X145069000Y-67021000D02*
X145682000Y-66408000D01*
X145069000Y-67669500D02*
X145069000Y-67021000D01*
X160198000Y-62977000D02*
X160300000Y-62875000D01*
X145682000Y-66408000D02*
X153048000Y-66408000D01*
X158509000Y-62977000D02*
X160198000Y-62977000D01*
X156479000Y-62977000D02*
X158509000Y-62977000D01*
X153048000Y-66408000D02*
X156479000Y-62977000D01*
X159398000Y-71107000D02*
X161430000Y-71107000D01*
X158636000Y-70345000D02*
X159398000Y-71107000D01*
X161430000Y-71107000D02*
X168162000Y-64375000D01*
X158636000Y-69075000D02*
X158636000Y-70345000D01*
X156985000Y-67424000D02*
X158636000Y-69075000D01*
X145869000Y-67669500D02*
X146114500Y-67424000D01*
X168162000Y-64375000D02*
X177800000Y-64375000D01*
X146114500Y-67424000D02*
X156985000Y-67424000D01*
X159017000Y-69329000D02*
X160063000Y-70375000D01*
X159017000Y-67551000D02*
X159017000Y-69329000D01*
X158636000Y-67170000D02*
X159017000Y-67551000D01*
X158636000Y-67170000D02*
X158255000Y-66789000D01*
X145953032Y-66789000D02*
X145469000Y-67273032D01*
X145469000Y-67273032D02*
X145469000Y-67669500D01*
X160063000Y-70375000D02*
X160300000Y-70375000D01*
X158255000Y-66789000D02*
X145953032Y-66789000D01*
X147882000Y-68907000D02*
X148476000Y-68313000D01*
X146706500Y-68907000D02*
X147882000Y-68907000D01*
X155842000Y-68313000D02*
X159404000Y-71875000D01*
X148476000Y-68313000D02*
X155842000Y-68313000D01*
X159404000Y-71875000D02*
X160300000Y-71875000D01*
X177782000Y-73393000D02*
X177800000Y-73375000D01*
X176670000Y-73393000D02*
X177782000Y-73393000D01*
X157493000Y-69329000D02*
X156096000Y-67932000D01*
X156096000Y-67932000D02*
X148222000Y-67932000D01*
X157874000Y-69329000D02*
X157493000Y-69329000D01*
X147647000Y-68507000D02*
X146706500Y-68507000D01*
X148222000Y-67932000D02*
X147647000Y-68507000D01*
X146706500Y-69707000D02*
X148225000Y-69707000D01*
X174638000Y-70599000D02*
X176670000Y-72631000D01*
X165621000Y-70599000D02*
X174638000Y-70599000D01*
X179489400Y-72631000D02*
X179921200Y-73062800D01*
X159476000Y-74155000D02*
X162065000Y-74155000D01*
X154419000Y-69098000D02*
X159476000Y-74155000D01*
X148834000Y-69098000D02*
X154419000Y-69098000D01*
X162065000Y-74155000D02*
X165621000Y-70599000D01*
X176670000Y-72631000D02*
X179489400Y-72631000D01*
X148225000Y-69707000D02*
X148834000Y-69098000D01*
X180480000Y-69202000D02*
X179921200Y-69202000D01*
X179921200Y-69202000D02*
X179337000Y-69202000D01*
X148117000Y-69307000D02*
X146706500Y-69307000D01*
X178702000Y-80505000D02*
X180988000Y-78219000D01*
X178905200Y-69633800D02*
X164808200Y-69633800D01*
X161811000Y-72631000D02*
X159271000Y-72631000D01*
X155334000Y-68694000D02*
X148730000Y-68694000D01*
X180988000Y-69710000D02*
X180480000Y-69202000D01*
X148730000Y-68694000D02*
X148117000Y-69307000D01*
X179337000Y-69202000D02*
X178905200Y-69633800D01*
X180988000Y-78219000D02*
X180988000Y-69710000D01*
X164808200Y-69633800D02*
X161811000Y-72631000D01*
X159271000Y-72631000D02*
X155334000Y-68694000D01*
X114821000Y-60820000D02*
X113382000Y-62259000D01*
X139831500Y-69307000D02*
X139056000Y-69307000D01*
X130569000Y-60820000D02*
X114821000Y-60820000D01*
X113382000Y-62259000D02*
X112394400Y-62259000D01*
X139056000Y-69307000D02*
X130569000Y-60820000D01*
D60*
X153858500Y-93253000D02*
X154778000Y-93253000D01*
X154953000Y-93078000D02*
X155080000Y-92951000D01*
X159525000Y-93459000D02*
X159525000Y-94094000D01*
X153858500Y-95253000D02*
X154683000Y-95253000D01*
X159017000Y-92951000D02*
X159525000Y-93459000D01*
X159884000Y-94453000D02*
X160733500Y-94453000D01*
X154683000Y-95253000D02*
X154953000Y-94983000D01*
X163230000Y-94453000D02*
X163716000Y-93967000D01*
X154953000Y-94983000D02*
X154953000Y-93078000D01*
X154778000Y-93253000D02*
X154953000Y-93078000D01*
X153858500Y-95253000D02*
X151766000Y-95253000D01*
X163716000Y-93967000D02*
X164125000Y-93967000D01*
X159525000Y-94094000D02*
X159884000Y-94453000D01*
X151766000Y-95253000D02*
X151369000Y-94856000D01*
X155080000Y-92951000D02*
X159017000Y-92951000D01*
X164125000Y-93840000D02*
X164125000Y-92697000D01*
X160733500Y-94453000D02*
X163230000Y-94453000D01*
X141618000Y-68694000D02*
X141281000Y-69031000D01*
X141281000Y-69031000D02*
X141281000Y-73310000D01*
X143142000Y-76441000D02*
X143142000Y-76723000D01*
X141618000Y-73647000D02*
X141745000Y-73520000D01*
X143469000Y-73793000D02*
X143469000Y-74544500D01*
X143196000Y-73520000D02*
X143469000Y-73793000D01*
X142669000Y-64821000D02*
X142888000Y-64602000D01*
X141469000Y-73796000D02*
X141618000Y-73647000D01*
X141469000Y-74544500D02*
X141469000Y-73796000D01*
X142669000Y-68104803D02*
X142079803Y-68694000D01*
X139134290Y-77711000D02*
X136764000Y-77711000D01*
X141469000Y-74544500D02*
X141469000Y-75376290D01*
X141745000Y-73520000D02*
X143196000Y-73520000D01*
X142079803Y-68694000D02*
X141618000Y-68694000D01*
X142669000Y-67669500D02*
X142669000Y-68104803D01*
X143469000Y-76114000D02*
X143142000Y-76441000D01*
X142669000Y-67669500D02*
X142669000Y-64821000D01*
X141281000Y-73310000D02*
X141618000Y-73647000D01*
X143469000Y-74544500D02*
X143469000Y-76114000D01*
X141469000Y-75376290D02*
X139134290Y-77711000D01*
D58*
X156350000Y-76237800D02*
X153019200Y-72907000D01*
X156350000Y-76441000D02*
X156350000Y-76237800D01*
X153019200Y-72907000D02*
X146706500Y-72907000D01*
X155588000Y-76441000D02*
X155588000Y-76288600D01*
X155588000Y-76288600D02*
X152606400Y-73307000D01*
X152606400Y-73307000D02*
X146706500Y-73307000D01*
X171195000Y-73280000D02*
X171336000Y-73139000D01*
X170320000Y-91376200D02*
X171195000Y-90501200D01*
X171844000Y-92697000D02*
X170523200Y-91376200D01*
X139831500Y-69707000D02*
X138567000Y-69707000D01*
X170523200Y-91376200D02*
X170320000Y-91376200D01*
X171195000Y-90501200D02*
X171195000Y-73280000D01*
X138567000Y-69707000D02*
X137554000Y-68694000D01*
D59*
X135014000Y-106159000D02*
X134000000Y-106159000D01*
X134000000Y-106159000D02*
X133998000Y-106157000D01*
X133998000Y-107177000D02*
X133998000Y-108445000D01*
X132728000Y-107177000D02*
X132741000Y-107190000D01*
X132741000Y-107190000D02*
X132741000Y-116332000D01*
D58*
X134071000Y-70907000D02*
X139831500Y-70907000D01*
X132728000Y-106157000D02*
X132728000Y-105397000D01*
X133490000Y-79091500D02*
X133490000Y-71488000D01*
X133490000Y-71488000D02*
X134071000Y-70907000D01*
X162694000Y-92830000D02*
X162694000Y-90280000D01*
X139291000Y-68907000D02*
X139831500Y-68907000D01*
X160733500Y-93253000D02*
X162271000Y-93253000D01*
X138564285Y-67810715D02*
X138564285Y-68180285D01*
X162694000Y-90280000D02*
X162446000Y-90032000D01*
X162271000Y-93253000D02*
X162694000Y-92830000D01*
X138564285Y-68180285D02*
X139291000Y-68907000D01*
D59*
X107540900Y-78219000D02*
X108639100Y-78219000D01*
X108990900Y-77469000D02*
X108740900Y-77219000D01*
X108740900Y-78219000D02*
X108990900Y-77969000D01*
X108740900Y-77219000D02*
X107540900Y-77219000D01*
D58*
X109868000Y-78846100D02*
X109868000Y-80632000D01*
X108990900Y-77969000D02*
X109868000Y-78846100D01*
D59*
X108639100Y-78219000D02*
X108740900Y-78219000D01*
D58*
X110249000Y-81013000D02*
X110501000Y-81013000D01*
X109868000Y-80632000D02*
X110249000Y-81013000D01*
D59*
X108990900Y-77969000D02*
X108990900Y-77469000D01*
D58*
X113551000Y-82918000D02*
X142507000Y-82918000D01*
X111521000Y-81013000D02*
X111646000Y-81013000D01*
X153242000Y-93653000D02*
X153858500Y-93653000D01*
X142507000Y-82918000D02*
X153242000Y-93653000D01*
X111646000Y-81013000D02*
X113551000Y-82918000D01*
D59*
X107540900Y-77719000D02*
X105990900Y-77719000D01*
X105940900Y-78719000D02*
X107540900Y-78719000D01*
D58*
X108825800Y-78700800D02*
X107552600Y-78700800D01*
X110501000Y-82029000D02*
X110122000Y-82029000D01*
X110122000Y-82029000D02*
X109233000Y-81140000D01*
X109233000Y-79108000D02*
X108825800Y-78700800D01*
D59*
X105690900Y-78019000D02*
X105690900Y-78469000D01*
X105690900Y-78469000D02*
X105940900Y-78719000D01*
D58*
X109233000Y-81140000D02*
X109233000Y-79108000D01*
D59*
X105990900Y-77719000D02*
X105690900Y-78019000D01*
D58*
X153858500Y-94053000D02*
X153128631Y-94053000D01*
X153128631Y-94053000D02*
X142501631Y-83426000D01*
X112918000Y-83426000D02*
X111521000Y-82029000D01*
X142501631Y-83426000D02*
X112918000Y-83426000D01*
X154953000Y-85077000D02*
X152794000Y-85077000D01*
X138570000Y-73520000D02*
X138783000Y-73307000D01*
X152794000Y-85077000D02*
X151270000Y-86601000D01*
X165240000Y-77076000D02*
X165240000Y-72123000D01*
X154953000Y-85077000D02*
X155496000Y-85620000D01*
X158636000Y-86474000D02*
X158636000Y-83680000D01*
X155496000Y-85620000D02*
X155496000Y-91615500D01*
X151270000Y-86601000D02*
X151018000Y-86601000D01*
X158636000Y-83680000D02*
X165240000Y-77076000D01*
X138783000Y-73307000D02*
X139831500Y-73307000D01*
X140729000Y-64757000D02*
X140092000Y-64757000D01*
X140092000Y-64757000D02*
X139967000Y-64632000D01*
X140729000Y-64757000D02*
X141469000Y-65497000D01*
X141469000Y-65497000D02*
X141469000Y-67669500D01*
X132738738Y-79743000D02*
X137564738Y-79743000D01*
X120919000Y-68059000D02*
X121054738Y-68059000D01*
X141869000Y-75438738D02*
X141869000Y-74544500D01*
X121054738Y-68059000D02*
X132738738Y-79743000D01*
X137564738Y-79743000D02*
X141869000Y-75438738D01*
X142269000Y-75430476D02*
X142269000Y-74544500D01*
X137679475Y-80020000D02*
X142269000Y-75430476D01*
X121806000Y-69202000D02*
X132624001Y-80020000D01*
X120919000Y-69202000D02*
X121806000Y-69202000D01*
X132624001Y-80020000D02*
X137679475Y-80020000D01*
X135520000Y-72756000D02*
X135520000Y-72504000D01*
X155096000Y-91615500D02*
X155096000Y-87887000D01*
X139831500Y-72907000D02*
X137913000Y-72907000D01*
X136157000Y-73393000D02*
X135520000Y-72756000D01*
X153810000Y-86601000D02*
X154064000Y-86855000D01*
X153810000Y-85966000D02*
X153810000Y-86601000D01*
X155096000Y-87887000D02*
X154064000Y-86855000D01*
X137913000Y-72907000D02*
X137427000Y-73393000D01*
X137427000Y-73393000D02*
X136157000Y-73393000D01*
X151018000Y-85075000D02*
X152794000Y-83299000D01*
X139831500Y-72107000D02*
X140713500Y-72107000D01*
X151016000Y-84442000D02*
X151018000Y-84444000D01*
X152794000Y-83299000D02*
X153810000Y-83299000D01*
X155896000Y-85004000D02*
X154191000Y-83299000D01*
X154191000Y-83299000D02*
X153810000Y-83299000D01*
X140713500Y-72107000D02*
X140729500Y-72123000D01*
X155896000Y-91615500D02*
X155896000Y-85004000D01*
X151018000Y-84444000D02*
X151018000Y-85458000D01*
X151018000Y-85458000D02*
X151018000Y-85075000D01*
X135180000Y-94475000D02*
X135141000Y-94436000D01*
X123706000Y-106545000D02*
X123711000Y-106540000D01*
X123706000Y-107785000D02*
X123706000Y-106545000D01*
X135141000Y-94436000D02*
X135141000Y-93840000D01*
X106144899Y-75710801D02*
X107542599Y-75710801D01*
X106862601Y-80200800D02*
X106852600Y-80190799D01*
X107552600Y-80200800D02*
X106862601Y-80200800D01*
X106124799Y-80190799D02*
X105169000Y-79235000D01*
X105169000Y-76686700D02*
X106144899Y-75710801D01*
X107542599Y-75710801D02*
X107552600Y-75700800D01*
X106852600Y-80190799D02*
X106124799Y-80190799D01*
X105169000Y-79235000D02*
X105169000Y-76686700D01*
X141872000Y-62598000D02*
X142269000Y-62995000D01*
X142269000Y-62995000D02*
X142269000Y-67669500D01*
X141745000Y-64122000D02*
X141869000Y-64246000D01*
X141869000Y-64246000D02*
X141869000Y-67669500D01*
D59*
X170306000Y-93902000D02*
X170306000Y-92558600D01*
D58*
X161846000Y-95653000D02*
X160733500Y-95653000D01*
X170237278Y-93902000D02*
X169431000Y-94708278D01*
X169431000Y-95872000D02*
X169177000Y-96126000D01*
X169177000Y-96126000D02*
X162319000Y-96126000D01*
X169431000Y-94708278D02*
X169431000Y-95872000D01*
X162319000Y-96126000D02*
X161846000Y-95653000D01*
D59*
X170306000Y-92558600D02*
X170320000Y-92544600D01*
D58*
X170306000Y-93902000D02*
X170237278Y-93902000D01*
X168336000Y-95082000D02*
X168556000Y-95302000D01*
X167145000Y-95082000D02*
X168336000Y-95082000D01*
D59*
X160733500Y-95253000D02*
X161961066Y-95253000D01*
X161961066Y-95253000D02*
X162453066Y-95745000D01*
X166482000Y-95745000D02*
X167145000Y-95082000D01*
X162453066Y-95745000D02*
X166482000Y-95745000D01*
D58*
X148603000Y-63670000D02*
X147875000Y-62942000D01*
X147875000Y-62942000D02*
X147192000Y-62942000D01*
X144031000Y-64630000D02*
X144319000Y-64342000D01*
X143469000Y-66335000D02*
X145442000Y-64362000D01*
X143469000Y-67669500D02*
X143469000Y-66335000D01*
X144319000Y-64342000D02*
X145442000Y-64342000D01*
X145442000Y-64362000D02*
X145442000Y-64342000D01*
X139831500Y-72507000D02*
X136543000Y-72507000D01*
X136543000Y-72507000D02*
X136540000Y-72504000D01*
X177800000Y-71875000D02*
X179915200Y-71875000D01*
X179915200Y-71875000D02*
X179921200Y-71869000D01*
X179900400Y-70375000D02*
X177800000Y-70375000D01*
X179921200Y-70395800D02*
X179900400Y-70375000D01*
D60*
X121176000Y-107785000D02*
X121176000Y-109227400D01*
X121176000Y-109227400D02*
X121044000Y-109359400D01*
X119896000Y-107785000D02*
X119896000Y-109202000D01*
X119896000Y-109202000D02*
X120053400Y-109359400D01*
G04 #@! TA.AperFunction,Conductor*
G36*
X103459191Y-88518907D02*
G01*
X103495155Y-88568407D01*
X103500000Y-88599000D01*
X103500000Y-109500000D01*
X106200500Y-109500000D01*
X106258691Y-109518907D01*
X106294655Y-109568407D01*
X106299500Y-109599000D01*
X106299500Y-115465983D01*
X106296982Y-115488169D01*
X106294344Y-115499641D01*
X106296739Y-115510227D01*
X106295587Y-115524697D01*
X106287294Y-115577063D01*
X106277725Y-115606518D01*
X106249419Y-115662071D01*
X106231215Y-115687128D01*
X106187128Y-115731215D01*
X106162068Y-115749421D01*
X106106521Y-115777723D01*
X106077065Y-115787294D01*
X106024499Y-115795619D01*
X106010609Y-115796701D01*
X106000359Y-115794344D01*
X105989487Y-115796804D01*
X105989207Y-115796867D01*
X105988359Y-115797059D01*
X105966512Y-115799500D01*
X100534017Y-115799500D01*
X100511831Y-115796982D01*
X100511224Y-115796842D01*
X100511222Y-115796842D01*
X100500359Y-115794344D01*
X100489773Y-115796739D01*
X100475303Y-115795587D01*
X100422937Y-115787294D01*
X100393482Y-115777725D01*
X100337929Y-115749419D01*
X100312872Y-115731215D01*
X100268785Y-115687128D01*
X100250581Y-115662071D01*
X100222275Y-115606518D01*
X100212706Y-115577065D01*
X100205281Y-115530185D01*
X100204738Y-115504672D01*
X100205655Y-115500718D01*
X100205656Y-115500000D01*
X100203096Y-115488776D01*
X100202980Y-115488266D01*
X100200500Y-115466248D01*
X100200500Y-88599000D01*
X100219407Y-88540809D01*
X100268907Y-88504845D01*
X100299500Y-88500000D01*
X103401000Y-88500000D01*
X103459191Y-88518907D01*
G37*
G04 #@! TD.AperFunction*
G04 #@! TA.AperFunction,Conductor*
G36*
X199758691Y-90018907D02*
G01*
X199794655Y-90068407D01*
X199799500Y-90099000D01*
X199799500Y-115465983D01*
X199796982Y-115488169D01*
X199794344Y-115499641D01*
X199796739Y-115510227D01*
X199795587Y-115524697D01*
X199787294Y-115577063D01*
X199777725Y-115606518D01*
X199749419Y-115662071D01*
X199731215Y-115687128D01*
X199687128Y-115731215D01*
X199662068Y-115749421D01*
X199606521Y-115777723D01*
X199577065Y-115787294D01*
X199524499Y-115795619D01*
X199510609Y-115796701D01*
X199500359Y-115794344D01*
X199489487Y-115796804D01*
X199489207Y-115796867D01*
X199488359Y-115797059D01*
X199466512Y-115799500D01*
X194534017Y-115799500D01*
X194511831Y-115796982D01*
X194511224Y-115796842D01*
X194511222Y-115796842D01*
X194500359Y-115794344D01*
X194489773Y-115796739D01*
X194475303Y-115795587D01*
X194422937Y-115787294D01*
X194393482Y-115777725D01*
X194337929Y-115749419D01*
X194312872Y-115731215D01*
X194268785Y-115687128D01*
X194250581Y-115662071D01*
X194222275Y-115606518D01*
X194212706Y-115577065D01*
X194205281Y-115530185D01*
X194204738Y-115504672D01*
X194205655Y-115500718D01*
X194205656Y-115500000D01*
X194203096Y-115488776D01*
X194202980Y-115488266D01*
X194200500Y-115466248D01*
X194200500Y-109599000D01*
X194219407Y-109540809D01*
X194268907Y-109504845D01*
X194299500Y-109500000D01*
X196500000Y-109500000D01*
X196500000Y-90099000D01*
X196518907Y-90040809D01*
X196568407Y-90004845D01*
X196599000Y-90000000D01*
X199700500Y-90000000D01*
X199758691Y-90018907D01*
G37*
G04 #@! TD.AperFunction*
G04 #@! TA.AperFunction,Conductor*
G36*
X112460097Y-69432302D02*
G01*
X112526892Y-69445588D01*
X112562580Y-69460370D01*
X112610939Y-69492682D01*
X112638254Y-69519997D01*
X112670566Y-69568356D01*
X112685348Y-69604044D01*
X112698634Y-69670839D01*
X112700536Y-69690152D01*
X112700536Y-70281648D01*
X112698634Y-70300961D01*
X112685348Y-70367756D01*
X112670566Y-70403444D01*
X112638254Y-70451803D01*
X112610939Y-70479118D01*
X112562580Y-70511430D01*
X112526892Y-70526212D01*
X112460097Y-70539498D01*
X112440784Y-70541400D01*
X107610288Y-70541400D01*
X107590975Y-70539498D01*
X107524180Y-70526212D01*
X107488492Y-70511430D01*
X107440133Y-70479118D01*
X107412818Y-70451803D01*
X107380506Y-70403444D01*
X107365724Y-70367756D01*
X107352438Y-70300961D01*
X107350536Y-70281648D01*
X107350536Y-70201152D01*
X107352438Y-70181839D01*
X107365724Y-70115044D01*
X107380506Y-70079356D01*
X107412818Y-70030997D01*
X107440133Y-70003682D01*
X107487872Y-69971784D01*
X107542873Y-69955100D01*
X108438748Y-69955100D01*
X108497231Y-69943467D01*
X108497586Y-69945254D01*
X108516943Y-69941400D01*
X109550536Y-69941400D01*
X109550536Y-69686540D01*
X109551013Y-69681698D01*
X109551365Y-69681733D01*
X109552438Y-69670839D01*
X109565724Y-69604044D01*
X109580506Y-69568356D01*
X109612818Y-69519997D01*
X109640133Y-69492682D01*
X109688492Y-69460370D01*
X109724180Y-69445588D01*
X109790975Y-69432302D01*
X109810288Y-69430400D01*
X112440784Y-69430400D01*
X112460097Y-69432302D01*
G37*
G04 #@! TD.AperFunction*
G04 #@! TA.AperFunction,Conductor*
G36*
X111759561Y-65143302D02*
G01*
X111826356Y-65156588D01*
X111862044Y-65171370D01*
X111910403Y-65203682D01*
X111937718Y-65230997D01*
X111970030Y-65279356D01*
X111984812Y-65315044D01*
X111998098Y-65381839D01*
X112000000Y-65401152D01*
X112000000Y-66065648D01*
X111998098Y-66084961D01*
X111984812Y-66151756D01*
X111970030Y-66187444D01*
X111937718Y-66235803D01*
X111910403Y-66263118D01*
X111862044Y-66295430D01*
X111826356Y-66310212D01*
X111759561Y-66323498D01*
X111740248Y-66325400D01*
X109859752Y-66325400D01*
X109840439Y-66323498D01*
X109773644Y-66310212D01*
X109737956Y-66295430D01*
X109689597Y-66263118D01*
X109662282Y-66235803D01*
X109629970Y-66187444D01*
X109615188Y-66151756D01*
X109601902Y-66084961D01*
X109600000Y-66065648D01*
X109600000Y-65741400D01*
X107454866Y-65741400D01*
X107435553Y-65739498D01*
X107368758Y-65726212D01*
X107333070Y-65711430D01*
X107284711Y-65679118D01*
X107257396Y-65651803D01*
X107225084Y-65603444D01*
X107210302Y-65567756D01*
X107197016Y-65500961D01*
X107195114Y-65481648D01*
X107195114Y-65401152D01*
X107197016Y-65381839D01*
X107210302Y-65315044D01*
X107225084Y-65279356D01*
X107257396Y-65230997D01*
X107284711Y-65203682D01*
X107332450Y-65171784D01*
X107387451Y-65155100D01*
X108438748Y-65155100D01*
X108497231Y-65143467D01*
X108497586Y-65145254D01*
X108516943Y-65141400D01*
X111740248Y-65141400D01*
X111759561Y-65143302D01*
G37*
G04 #@! TD.AperFunction*
G04 #@! TA.AperFunction,Conductor*
G36*
X111759561Y-70743302D02*
G01*
X111826356Y-70756588D01*
X111862044Y-70771370D01*
X111910403Y-70803682D01*
X111937718Y-70830997D01*
X111970030Y-70879356D01*
X111984812Y-70915044D01*
X111998098Y-70981839D01*
X112000000Y-71001152D01*
X112000000Y-72681648D01*
X111998098Y-72700961D01*
X111984812Y-72767756D01*
X111970030Y-72803444D01*
X111937718Y-72851803D01*
X111910403Y-72879118D01*
X111862044Y-72911430D01*
X111826356Y-72926212D01*
X111759561Y-72939498D01*
X111740248Y-72941400D01*
X109459752Y-72941400D01*
X109440439Y-72939498D01*
X109373644Y-72926212D01*
X109337956Y-72911430D01*
X109289597Y-72879118D01*
X109262282Y-72851803D01*
X109229970Y-72803444D01*
X109215188Y-72767756D01*
X109201902Y-72700961D01*
X109200000Y-72681648D01*
X109200000Y-71341400D01*
X107054866Y-71341400D01*
X107035553Y-71339498D01*
X106968758Y-71326212D01*
X106933070Y-71311430D01*
X106884711Y-71279118D01*
X106857396Y-71251803D01*
X106825084Y-71203444D01*
X106810302Y-71167756D01*
X106797016Y-71100961D01*
X106795114Y-71081648D01*
X106795114Y-71001152D01*
X106797016Y-70981839D01*
X106810302Y-70915044D01*
X106825084Y-70879356D01*
X106857396Y-70830997D01*
X106884711Y-70803682D01*
X106932450Y-70771784D01*
X106987451Y-70755100D01*
X108438748Y-70755100D01*
X108497231Y-70743467D01*
X108497586Y-70745254D01*
X108516943Y-70741400D01*
X111740248Y-70741400D01*
X111759561Y-70743302D01*
G37*
G04 #@! TD.AperFunction*
G04 #@! TA.AperFunction,Conductor*
G36*
X111759406Y-63741659D02*
G01*
X111826236Y-63754914D01*
X111861943Y-63769683D01*
X111876711Y-63779542D01*
X111910337Y-63801990D01*
X111937669Y-63829305D01*
X111970006Y-63877675D01*
X111984800Y-63913375D01*
X111998096Y-63980193D01*
X112000000Y-63999514D01*
X112000000Y-64679939D01*
X111998099Y-64699249D01*
X111984818Y-64766032D01*
X111970044Y-64801710D01*
X111937743Y-64850066D01*
X111910441Y-64877377D01*
X111862101Y-64909692D01*
X111826429Y-64924480D01*
X111759644Y-64937787D01*
X111740345Y-64939694D01*
X109496795Y-64940501D01*
X107259844Y-64941306D01*
X107240526Y-64939410D01*
X107186448Y-64928672D01*
X107173712Y-64926143D01*
X107138014Y-64911368D01*
X107089634Y-64879057D01*
X107062311Y-64851744D01*
X107029984Y-64803377D01*
X107015196Y-64767684D01*
X107001903Y-64700875D01*
X107000000Y-64681556D01*
X107000000Y-64601152D01*
X107001902Y-64581839D01*
X107015188Y-64515044D01*
X107029970Y-64479356D01*
X107062282Y-64430997D01*
X107089597Y-64403682D01*
X107137956Y-64371370D01*
X107173644Y-64356588D01*
X107240439Y-64343302D01*
X107259752Y-64341400D01*
X109200000Y-64341400D01*
X109200000Y-64000985D01*
X109201901Y-63981678D01*
X109215177Y-63914911D01*
X109229946Y-63879238D01*
X109239314Y-63865210D01*
X109262234Y-63830889D01*
X109289528Y-63803577D01*
X109337856Y-63771258D01*
X109373521Y-63756465D01*
X109440282Y-63743146D01*
X109459587Y-63741233D01*
X111323869Y-63740035D01*
X111740085Y-63739767D01*
X111759406Y-63741659D01*
G37*
G04 #@! TD.AperFunction*
G04 #@! TA.AperFunction,Conductor*
G36*
X120905161Y-77966902D02*
G01*
X120971956Y-77980188D01*
X121007644Y-77994970D01*
X121056003Y-78027282D01*
X121083318Y-78054597D01*
X121115630Y-78102956D01*
X121130412Y-78138644D01*
X121143698Y-78205439D01*
X121145600Y-78224752D01*
X121145600Y-79991248D01*
X121143698Y-80010561D01*
X121130412Y-80077356D01*
X121115630Y-80113044D01*
X121083318Y-80161403D01*
X121056003Y-80188718D01*
X121007644Y-80221030D01*
X120971956Y-80235812D01*
X120905161Y-80249098D01*
X120885848Y-80251000D01*
X119373352Y-80251000D01*
X119354039Y-80249098D01*
X119287244Y-80235812D01*
X119251556Y-80221030D01*
X119203197Y-80188718D01*
X119175882Y-80161403D01*
X119143570Y-80113044D01*
X119128788Y-80077356D01*
X119115502Y-80010561D01*
X119113600Y-79991248D01*
X119113600Y-79235000D01*
X117746466Y-79235000D01*
X117727153Y-79233098D01*
X117660358Y-79219812D01*
X117624670Y-79205030D01*
X117576311Y-79172718D01*
X117548996Y-79145403D01*
X117516684Y-79097044D01*
X117501902Y-79061356D01*
X117488616Y-78994561D01*
X117486714Y-78975248D01*
X117486714Y-78894752D01*
X117488616Y-78875439D01*
X117501902Y-78808644D01*
X117516684Y-78772956D01*
X117548996Y-78724597D01*
X117576311Y-78697282D01*
X117624670Y-78664970D01*
X117660358Y-78650188D01*
X117727153Y-78636902D01*
X117746466Y-78635000D01*
X119113600Y-78635000D01*
X119113600Y-78224752D01*
X119115502Y-78205439D01*
X119128788Y-78138644D01*
X119143570Y-78102956D01*
X119175882Y-78054597D01*
X119203197Y-78027282D01*
X119251556Y-77994970D01*
X119287244Y-77980188D01*
X119354039Y-77966902D01*
X119373352Y-77965000D01*
X120885848Y-77965000D01*
X120905161Y-77966902D01*
G37*
G04 #@! TD.AperFunction*
M02*
