G04 #@! TF.GenerationSoftware,KiCad,Pcbnew,(6.0.7)*
G04 #@! TF.CreationDate,2022-08-14T23:11:46+02:00*
G04 #@! TF.ProjectId,picocart64_v2,7069636f-6361-4727-9436-345f76322e6b,rev?*
G04 #@! TF.SameCoordinates,Original*
G04 #@! TF.FileFunction,Copper,L4,Bot*
G04 #@! TF.FilePolarity,Positive*
%FSLAX46Y46*%
G04 Gerber Fmt 4.6, Leading zero omitted, Abs format (unit mm)*
G04 Created by KiCad (PCBNEW (6.0.7)) date 2022-08-14 23:11:46*
%MOMM*%
%LPD*%
G01*
G04 APERTURE LIST*
G04 Aperture macros list*
%AMRoundRect*
0 Rectangle with rounded corners*
0 $1 Rounding radius*
0 $2 $3 $4 $5 $6 $7 $8 $9 X,Y pos of 4 corners*
0 Add a 4 corners polygon primitive as box body*
4,1,4,$2,$3,$4,$5,$6,$7,$8,$9,$2,$3,0*
0 Add four circle primitives for the rounded corners*
1,1,$1+$1,$2,$3*
1,1,$1+$1,$4,$5*
1,1,$1+$1,$6,$7*
1,1,$1+$1,$8,$9*
0 Add four rect primitives between the rounded corners*
20,1,$1+$1,$2,$3,$4,$5,0*
20,1,$1+$1,$4,$5,$6,$7,0*
20,1,$1+$1,$6,$7,$8,$9,0*
20,1,$1+$1,$8,$9,$2,$3,0*%
G04 Aperture macros list end*
G04 #@! TA.AperFunction,ComponentPad*
%ADD10O,1.600000X1.000000*%
G04 #@! TD*
G04 #@! TA.AperFunction,ComponentPad*
%ADD11O,2.100000X0.900000*%
G04 #@! TD*
G04 #@! TA.AperFunction,ComponentPad*
%ADD12C,2.500000*%
G04 #@! TD*
G04 #@! TA.AperFunction,ComponentPad*
%ADD13O,1.700000X1.700000*%
G04 #@! TD*
G04 #@! TA.AperFunction,ComponentPad*
%ADD14R,1.700000X1.700000*%
G04 #@! TD*
G04 #@! TA.AperFunction,ComponentPad*
%ADD15RoundRect,0.425000X-0.425000X-0.425000X0.425000X-0.425000X0.425000X0.425000X-0.425000X0.425000X0*%
G04 #@! TD*
G04 #@! TA.AperFunction,SMDPad,CuDef*
%ADD16R,1.500000X7.000000*%
G04 #@! TD*
G04 #@! TA.AperFunction,SMDPad,CuDef*
%ADD17R,1.000000X3.150000*%
G04 #@! TD*
G04 #@! TA.AperFunction,ViaPad*
%ADD18C,0.800000*%
G04 #@! TD*
G04 #@! TA.AperFunction,ViaPad*
%ADD19C,0.600000*%
G04 #@! TD*
G04 #@! TA.AperFunction,Conductor*
%ADD20C,0.150000*%
G04 #@! TD*
G04 #@! TA.AperFunction,Conductor*
%ADD21C,0.152400*%
G04 #@! TD*
G04 #@! TA.AperFunction,Conductor*
%ADD22C,0.500000*%
G04 #@! TD*
G04 #@! TA.AperFunction,Conductor*
%ADD23C,0.250000*%
G04 #@! TD*
G04 APERTURE END LIST*
D10*
X102524000Y-72174600D03*
D11*
X106704000Y-63534600D03*
D10*
X102524000Y-63534600D03*
D11*
X106704000Y-72174600D03*
D10*
X102532600Y-82270800D03*
X102532600Y-73630800D03*
D11*
X106712600Y-73630800D03*
X106712600Y-82270800D03*
D12*
X102850000Y-112600000D03*
X197650000Y-112600000D03*
D13*
X174257000Y-97777000D03*
X174257000Y-95237000D03*
X174257000Y-92697000D03*
X174257000Y-90157000D03*
X174257000Y-87617000D03*
D14*
X174257000Y-85077000D03*
X179337000Y-100317000D03*
X194577000Y-100317000D03*
X176797000Y-100317000D03*
X181877000Y-100317000D03*
X186957000Y-100317000D03*
X192037000Y-100317000D03*
X184417000Y-100317000D03*
X189497000Y-100317000D03*
D15*
X181877000Y-82537000D03*
X179337000Y-82537000D03*
X184417000Y-82537000D03*
X194577000Y-82537000D03*
X176797000Y-82537000D03*
X186957000Y-82537000D03*
X192037000Y-82537000D03*
X189497000Y-82537000D03*
D13*
X176797000Y-92697000D03*
X192037000Y-95237000D03*
X186957000Y-92697000D03*
X184417000Y-95237000D03*
X176797000Y-85077000D03*
X194577000Y-87617000D03*
X184417000Y-87617000D03*
X194577000Y-90157000D03*
X189497000Y-97777000D03*
X179337000Y-87617000D03*
X194577000Y-92697000D03*
X189497000Y-87617000D03*
X189497000Y-92697000D03*
X181877000Y-95237000D03*
X189497000Y-95237000D03*
X184417000Y-92697000D03*
X189497000Y-90157000D03*
X179337000Y-90157000D03*
X192037000Y-90157000D03*
X186957000Y-90157000D03*
X181877000Y-87617000D03*
X181877000Y-97777000D03*
X179337000Y-95237000D03*
X179337000Y-97777000D03*
X181877000Y-92697000D03*
X179337000Y-92697000D03*
X184417000Y-85077000D03*
X192037000Y-92697000D03*
X179337000Y-85077000D03*
X186957000Y-97777000D03*
X184417000Y-90157000D03*
X192037000Y-85077000D03*
X186957000Y-87617000D03*
X181877000Y-90157000D03*
X184417000Y-97777000D03*
X186957000Y-85077000D03*
X181877000Y-85077000D03*
X176797000Y-87617000D03*
X176797000Y-95237000D03*
X192037000Y-87617000D03*
X176797000Y-90157000D03*
X176797000Y-97777000D03*
X189497000Y-85077000D03*
X194577000Y-95237000D03*
X192037000Y-97777000D03*
X194577000Y-97777000D03*
X186957000Y-95237000D03*
X194577000Y-85077000D03*
D16*
X180241000Y-116332000D03*
X177741000Y-116332000D03*
X175241000Y-116332000D03*
X172741000Y-116332000D03*
X170241000Y-116332000D03*
X167741000Y-116332000D03*
X165241000Y-116332000D03*
X162741000Y-116332000D03*
X160241000Y-116332000D03*
X157741000Y-116332000D03*
X155241000Y-116332000D03*
X152741000Y-116332000D03*
X150241000Y-116332000D03*
X147741000Y-116332000D03*
X145241000Y-116332000D03*
X142741000Y-116332000D03*
X140241000Y-116332000D03*
X137741000Y-116332000D03*
X135241000Y-116332000D03*
X132741000Y-116332000D03*
X130241000Y-116332000D03*
X127741000Y-116332000D03*
X125241000Y-116332000D03*
X122741000Y-116332000D03*
X120241000Y-116332000D03*
D17*
X162700000Y-65026000D03*
X162700000Y-70076000D03*
X165240000Y-65026000D03*
X165240000Y-70076000D03*
X167780000Y-65026000D03*
X167780000Y-70076000D03*
X170320000Y-65026000D03*
X170320000Y-70076000D03*
X172860000Y-65026000D03*
X172860000Y-70076000D03*
X175400000Y-65026000D03*
X175400000Y-70076000D03*
D18*
X173311000Y-74519000D03*
X169120000Y-74519000D03*
X158909200Y-81758000D03*
X130569000Y-101079000D03*
X148603000Y-105016000D03*
X153556000Y-107302000D03*
X157874000Y-107302000D03*
X161938000Y-106540000D03*
X177305000Y-103873000D03*
X173495000Y-100317000D03*
X167018000Y-103873000D03*
X148603000Y-98412000D03*
X144031000Y-97142000D03*
X138189000Y-82029000D03*
X129299000Y-82029000D03*
X120028000Y-82029000D03*
X130315000Y-79235000D03*
X129553000Y-75425000D03*
X136411000Y-78854000D03*
X151778000Y-77838000D03*
X148349000Y-81775000D03*
X146825000Y-83426000D03*
X110376000Y-86728000D03*
X107836000Y-102984000D03*
X116345000Y-104127000D03*
X152032000Y-108953000D03*
X148095000Y-102603000D03*
X138697000Y-102857000D03*
X120917000Y-94348000D03*
X130569000Y-86601000D03*
X120282000Y-86601000D03*
X114541600Y-76695000D03*
X124600000Y-70218000D03*
X137427000Y-65265000D03*
X155080000Y-66027000D03*
X183909000Y-74536000D03*
X190767000Y-69583000D03*
X191910000Y-77330000D03*
X183782000Y-80505000D03*
X173241000Y-80505000D03*
X169177000Y-80505000D03*
X164859000Y-80505000D03*
X142507000Y-82029000D03*
D19*
X150508000Y-108953000D03*
D18*
X140221000Y-111239000D03*
X139205000Y-111239000D03*
X152518000Y-94453000D03*
X110200000Y-72341400D03*
X110200000Y-71341400D03*
X111400000Y-71341400D03*
X111400000Y-72341400D03*
X102108000Y-105156000D03*
X180250000Y-111350000D03*
X180250000Y-110400000D03*
X177750000Y-111350000D03*
X177750000Y-110400000D03*
X167750000Y-110400000D03*
X167750000Y-111350000D03*
X127750000Y-111350000D03*
X127750000Y-110400000D03*
X149365000Y-64630000D03*
X142126000Y-72250000D03*
X139586000Y-84823000D03*
X120637600Y-79743000D03*
X125235000Y-110395916D03*
X114948000Y-62344000D03*
X102502000Y-61328000D03*
X198000000Y-108000000D03*
X107836000Y-105905000D03*
X127464000Y-98285000D03*
X142126000Y-78473000D03*
X144412000Y-69964000D03*
X107779000Y-98285000D03*
X110179000Y-64341400D03*
X121399600Y-73139000D03*
X120637600Y-78473000D03*
X158763000Y-103492000D03*
X141491000Y-91808000D03*
X161430000Y-73393000D03*
X168034000Y-67551000D03*
X143142000Y-78473000D03*
X151778000Y-69837000D03*
X172098000Y-67551000D03*
X122949000Y-72631000D03*
X125235000Y-111345916D03*
X111379000Y-64341400D03*
X127210000Y-90665000D03*
X197117000Y-70218000D03*
X153810000Y-88252000D03*
X166002000Y-94475000D03*
X134506000Y-77584000D03*
X167526000Y-93459000D03*
X153683000Y-102857000D03*
X109741000Y-62217000D03*
X117431000Y-90665000D03*
X119621600Y-79743000D03*
X148984000Y-94348000D03*
X111519000Y-92824000D03*
X122187000Y-84188000D03*
D19*
X135776000Y-69075000D03*
D18*
X108979000Y-74028000D03*
X157874000Y-94475000D03*
X159652000Y-97396000D03*
X157874000Y-95618000D03*
X171463000Y-95872000D03*
X120231200Y-110390600D03*
X107525000Y-90665000D03*
X120231200Y-111340600D03*
X122187000Y-91808000D03*
D19*
X184163000Y-64122000D03*
D18*
X156731000Y-95618000D03*
X186322000Y-71615000D03*
X157493000Y-63995000D03*
X186322000Y-65519000D03*
X196482000Y-73647000D03*
X162446000Y-88125000D03*
X175400000Y-72631000D03*
X119621600Y-78473000D03*
X131077000Y-92824000D03*
X130950000Y-84188000D03*
X134506000Y-75425000D03*
X137116000Y-98285000D03*
X134506000Y-74282000D03*
X198000000Y-109000000D03*
D19*
X112408000Y-101079000D03*
D18*
X113170000Y-67805000D03*
X151524000Y-74282000D03*
X192164000Y-63233000D03*
X117558000Y-98285000D03*
D19*
X183020000Y-64122000D03*
D18*
X144031000Y-62979000D03*
X136538000Y-90665000D03*
X112535000Y-84188000D03*
X134506000Y-76568000D03*
X156731000Y-94475000D03*
X108979000Y-82664000D03*
X102108000Y-106680000D03*
X196990000Y-62217000D03*
X142888000Y-62979000D03*
X114440000Y-85204000D03*
X143904000Y-86855000D03*
X138570000Y-75425000D03*
X143396000Y-92824000D03*
D19*
X184163000Y-61455000D03*
X139967000Y-62979000D03*
D18*
X153937000Y-91681000D03*
X114440000Y-100317000D03*
X125743000Y-79489000D03*
X142689063Y-75899500D03*
X163208000Y-95104500D03*
X137427000Y-69837000D03*
X132728000Y-92062000D03*
X149238000Y-69837000D03*
X124092000Y-85204000D03*
X149111000Y-86601000D03*
X143523000Y-68694000D03*
D19*
X111900000Y-107556000D03*
D18*
X114440000Y-92824000D03*
X175400000Y-62979000D03*
X158300619Y-97667019D03*
X154894290Y-97495738D03*
X137935000Y-74536000D03*
D19*
X183020000Y-61455000D03*
D18*
X125743000Y-81267000D03*
X124092000Y-92824000D03*
X113424000Y-61074000D03*
X197117000Y-68059000D03*
X149144500Y-85458000D03*
X148984000Y-74282000D03*
X132729855Y-84442530D03*
X115964000Y-69938600D03*
X117722100Y-67805000D03*
X110200000Y-65741400D03*
X111400000Y-70041400D03*
X110200000Y-70041400D03*
X111400000Y-65741400D03*
D19*
X197117000Y-64757000D03*
X160668000Y-76187000D03*
X195974000Y-65773000D03*
X160668000Y-75272600D03*
X197117000Y-66916000D03*
X160668000Y-78727000D03*
X196101000Y-69456000D03*
X160668000Y-79616000D03*
X193561000Y-71615000D03*
X160668000Y-77965000D03*
X191783000Y-72250000D03*
X160668000Y-77076000D03*
D18*
X161176000Y-111239000D03*
X127267000Y-76949000D03*
X160241000Y-111252000D03*
D19*
X174638000Y-108064000D03*
X175527000Y-108064000D03*
X176416000Y-108064000D03*
X177305000Y-108064000D03*
X162446000Y-98539000D03*
X160541000Y-91554000D03*
X159652000Y-90411000D03*
X160922000Y-98539000D03*
X158636000Y-108445000D03*
X159652000Y-108445000D03*
X160668000Y-108445000D03*
X161684000Y-108445000D03*
X150895500Y-105143000D03*
X134379000Y-71615000D03*
X160160000Y-86855000D03*
X151524000Y-106159000D03*
X140729000Y-70472000D03*
X153429000Y-108953000D03*
X154318000Y-108953000D03*
X155334000Y-108953000D03*
X156350000Y-108953000D03*
X154699000Y-102476000D03*
X170066000Y-105397000D03*
X170574000Y-104762000D03*
X154699000Y-101587000D03*
X171082000Y-104127000D03*
X154699000Y-100698000D03*
X154699000Y-99809000D03*
X171717000Y-103492000D03*
X163218500Y-103492000D03*
X156604000Y-103238000D03*
X163716000Y-102476000D03*
X156594500Y-102349000D03*
X161684000Y-92189000D03*
X164224000Y-98539000D03*
X162192000Y-91173000D03*
X165494000Y-98539000D03*
X142888000Y-109461000D03*
X147968000Y-106921000D03*
X158763000Y-87738000D03*
X149365000Y-104127000D03*
X134379000Y-72631000D03*
X145809000Y-97904000D03*
X146571000Y-81902000D03*
X146952000Y-80632000D03*
X127521000Y-62471000D03*
X145682000Y-81902000D03*
X136792000Y-95110002D03*
X136919000Y-87363000D03*
X137427000Y-96761000D03*
X108852000Y-104635000D03*
X145936000Y-96380000D03*
X109106000Y-96507000D03*
X136919000Y-89395000D03*
X145682000Y-82664000D03*
X138697000Y-91173000D03*
D18*
X113043000Y-99174000D03*
D19*
X146444000Y-95618000D03*
X140729000Y-98285000D03*
X145682000Y-83426000D03*
X111646000Y-105905000D03*
X140602000Y-97015000D03*
X145682000Y-84188000D03*
X139586000Y-89395000D03*
X110376000Y-104635000D03*
X110376000Y-97269000D03*
X146952000Y-94856000D03*
X145682000Y-84950000D03*
X140475000Y-88125000D03*
X111392000Y-103365000D03*
X111392000Y-95745000D03*
X140475000Y-95745000D03*
X147587000Y-93967000D03*
X107328000Y-86855000D03*
X117361000Y-100190000D03*
X107201000Y-94475000D03*
X118631000Y-100190000D03*
X119901000Y-100190000D03*
X116980000Y-86855000D03*
X116980000Y-94475000D03*
X121171000Y-100190000D03*
X122441000Y-100190000D03*
X126632000Y-86855000D03*
X123711000Y-100190000D03*
X126759000Y-94475000D03*
X134760000Y-87363000D03*
X124981000Y-100190000D03*
X154699000Y-76441000D03*
X151016000Y-65900000D03*
X157880500Y-89903000D03*
X153556000Y-99174000D03*
X153937000Y-76441000D03*
X157401000Y-88887000D03*
X140475000Y-65900000D03*
X153048000Y-99936000D03*
X156858000Y-90157000D03*
X153175000Y-76441000D03*
X152540000Y-100825000D03*
X139713000Y-66662000D03*
X139078000Y-67170000D03*
X152032000Y-101587000D03*
X156397500Y-89395000D03*
X152413000Y-76441000D03*
X158636000Y-67170000D03*
X157874000Y-69329000D03*
X176670000Y-73393000D03*
D18*
X178702000Y-80505000D03*
D19*
X156350000Y-76441000D03*
X155588000Y-76441000D03*
D18*
X171844000Y-92697000D03*
D19*
X137554000Y-68694000D03*
X171336000Y-73139000D03*
X159525000Y-88506000D03*
X135014000Y-106159000D03*
X133998000Y-108445000D03*
X133490000Y-79091500D03*
X132728000Y-105397000D03*
X164224000Y-88125000D03*
X172860000Y-72123000D03*
X138564285Y-67810715D03*
X165240000Y-72123000D03*
X158636000Y-86474000D03*
X138570000Y-73520000D03*
X154953000Y-85077000D03*
X140729000Y-64757000D03*
X136665000Y-73393000D03*
X153810000Y-85966000D03*
X140729500Y-72123000D03*
X151016000Y-84442000D03*
X135141000Y-93840000D03*
X123711000Y-106540000D03*
X170320000Y-72123000D03*
X167780000Y-72123000D03*
X141872000Y-62598000D03*
X141745000Y-64122000D03*
D20*
X160160000Y-86855000D02*
X159906000Y-87109000D01*
X159906000Y-87109000D02*
X155969000Y-87109000D01*
X155969000Y-87109000D02*
X150635000Y-92443000D01*
X150635000Y-92443000D02*
X150635000Y-104022782D01*
X150635000Y-104022782D02*
X151524000Y-104911782D01*
X151524000Y-104911782D02*
X151524000Y-106159000D01*
D21*
X159525000Y-88506000D02*
X159271000Y-88252000D01*
X152540000Y-106921000D02*
X151778000Y-107683000D01*
X159271000Y-88252000D02*
X156223000Y-88252000D01*
X156223000Y-88252000D02*
X151397000Y-93078000D01*
X151397000Y-93078000D02*
X151397000Y-103619000D01*
X151397000Y-103619000D02*
X152540000Y-104762000D01*
X151778000Y-107683000D02*
X136538000Y-107683000D01*
X152540000Y-104762000D02*
X152540000Y-106921000D01*
X136538000Y-107683000D02*
X135014000Y-106159000D01*
D20*
X157880500Y-89903000D02*
X157880500Y-92060869D01*
X157880500Y-92060869D02*
X153556000Y-96385369D01*
X153556000Y-96385369D02*
X153556000Y-99174000D01*
X158763000Y-87738000D02*
X155975000Y-87738000D01*
X155975000Y-87738000D02*
X151016000Y-92697000D01*
X151016000Y-92697000D02*
X151016000Y-103849956D01*
X152026000Y-106546000D02*
X151651000Y-106921000D01*
X151016000Y-103849956D02*
X152026000Y-104859956D01*
X152026000Y-104859956D02*
X152026000Y-106546000D01*
X151651000Y-106921000D02*
X147968000Y-106921000D01*
X136665000Y-73393000D02*
X136665000Y-75679000D01*
X136665000Y-75679000D02*
X137554000Y-76568000D01*
X137554000Y-76568000D02*
X146698000Y-76568000D01*
X146698000Y-76568000D02*
X153810000Y-83680000D01*
X153810000Y-83680000D02*
X153810000Y-85966000D01*
X151016000Y-84442000D02*
X151016000Y-81648000D01*
X151016000Y-81648000D02*
X146444000Y-77076000D01*
X146444000Y-77076000D02*
X137300000Y-77076000D01*
X137300000Y-77076000D02*
X136030000Y-75806000D01*
X136030000Y-72885000D02*
X136792000Y-72123000D01*
X136792000Y-72123000D02*
X140729500Y-72123000D01*
X136030000Y-75806000D02*
X136030000Y-72885000D01*
X134379000Y-71615000D02*
X135522000Y-72758000D01*
X135522000Y-72758000D02*
X135522000Y-76060000D01*
X150254000Y-81775000D02*
X150254000Y-104501500D01*
X135522000Y-76060000D02*
X137173000Y-77711000D01*
X137173000Y-77711000D02*
X146190000Y-77711000D01*
X146190000Y-77711000D02*
X150254000Y-81775000D01*
X150254000Y-104501500D02*
X150895500Y-105143000D01*
X134379000Y-72631000D02*
X135141000Y-73393000D01*
X135141000Y-73393000D02*
X135141000Y-76314000D01*
X138443000Y-79616000D02*
X147206000Y-79616000D01*
X135141000Y-76314000D02*
X138443000Y-79616000D01*
X147206000Y-79616000D02*
X149746500Y-82156500D01*
X149746500Y-82156500D02*
X149746500Y-86816857D01*
X149746500Y-86816857D02*
X149873000Y-86943357D01*
X149873000Y-86943357D02*
X149873000Y-103619000D01*
X149873000Y-103619000D02*
X149365000Y-104127000D01*
X136157000Y-80632000D02*
X127521000Y-71996000D01*
X127521000Y-71996000D02*
X127521000Y-62471000D01*
X146952000Y-80632000D02*
X136157000Y-80632000D01*
X162700000Y-70076000D02*
X162700000Y-68948000D01*
X162700000Y-68948000D02*
X164097000Y-67551000D01*
X166510000Y-66789000D02*
X166510000Y-63487000D01*
X150127000Y-65392000D02*
X139586000Y-65392000D01*
X139586000Y-65392000D02*
X137554000Y-67424000D01*
X164097000Y-67551000D02*
X165748000Y-67551000D01*
X165748000Y-67551000D02*
X166510000Y-66789000D01*
X166510000Y-63487000D02*
X165621000Y-62598000D01*
X165621000Y-62598000D02*
X152921000Y-62598000D01*
X152921000Y-62598000D02*
X150127000Y-65392000D01*
X137554000Y-67424000D02*
X137554000Y-68694000D01*
X171844000Y-92697000D02*
X172352000Y-93205000D01*
X172352000Y-93205000D02*
X172352000Y-95999000D01*
X172352000Y-95999000D02*
X174130000Y-97777000D01*
X174130000Y-97777000D02*
X174257000Y-97777000D01*
X160160000Y-86855000D02*
X160160000Y-86601000D01*
X142126000Y-70472000D02*
X140729000Y-70472000D01*
X157239000Y-85585000D02*
X142126000Y-70472000D01*
X160160000Y-86601000D02*
X159144000Y-85585000D01*
X159144000Y-85585000D02*
X157239000Y-85585000D01*
D22*
X127741000Y-116332000D02*
X127741000Y-110409000D01*
X127741000Y-110409000D02*
X127750000Y-110400000D01*
X177741000Y-110409000D02*
X177750000Y-110400000D01*
X125241000Y-116332000D02*
X125241000Y-110401916D01*
X180241000Y-116332000D02*
X180241000Y-110409000D01*
X180241000Y-110409000D02*
X180250000Y-110400000D01*
X167741000Y-116332000D02*
X167741000Y-110409000D01*
X125241000Y-110401916D02*
X125235000Y-110395916D01*
X120241000Y-110400400D02*
X120231200Y-110390600D01*
X120241000Y-116332000D02*
X120241000Y-110400400D01*
X167741000Y-110409000D02*
X167750000Y-110400000D01*
X177741000Y-116332000D02*
X177741000Y-110409000D01*
D23*
X175400000Y-70076000D02*
X175400000Y-72631000D01*
D22*
X124092000Y-85204000D02*
X131968385Y-85204000D01*
X131968385Y-85204000D02*
X132729855Y-84442530D01*
D23*
X175400000Y-65026000D02*
X175400000Y-62979000D01*
D22*
X115964000Y-69938600D02*
X115964000Y-69563100D01*
X115964000Y-69563100D02*
X117722100Y-67805000D01*
X106704000Y-72174600D02*
X102524000Y-72174600D01*
X102524000Y-63534600D02*
X106704000Y-63534600D01*
X102524000Y-72174600D02*
X102524000Y-63534600D01*
D20*
X186703000Y-76187000D02*
X195847000Y-67043000D01*
X160668000Y-76187000D02*
X186703000Y-76187000D01*
X197117000Y-65773000D02*
X197117000Y-64757000D01*
X195847000Y-67043000D02*
X197117000Y-65773000D01*
X195974000Y-65773000D02*
X186474400Y-75272600D01*
X186474400Y-75272600D02*
X160668000Y-75272600D01*
X196990000Y-66916000D02*
X194958000Y-68948000D01*
X194958000Y-68948000D02*
X194958000Y-71615000D01*
X197117000Y-66916000D02*
X196990000Y-66916000D01*
X194958000Y-71615000D02*
X187846000Y-78727000D01*
X187846000Y-78727000D02*
X160668000Y-78727000D01*
X195720000Y-71996000D02*
X188100000Y-79616000D01*
X188100000Y-79616000D02*
X160668000Y-79616000D01*
X196101000Y-69456000D02*
X195720000Y-69837000D01*
X195720000Y-69837000D02*
X195720000Y-71996000D01*
X193561000Y-71615000D02*
X193561000Y-71742000D01*
X193561000Y-71742000D02*
X187338000Y-77965000D01*
X187338000Y-77965000D02*
X160668000Y-77965000D01*
X186957000Y-77076000D02*
X160668000Y-77076000D01*
X191783000Y-72250000D02*
X186957000Y-77076000D01*
D22*
X160241000Y-116332000D02*
X160241000Y-111252000D01*
X160241000Y-111252000D02*
X160254000Y-111239000D01*
X160254000Y-111239000D02*
X161176000Y-111239000D01*
X140241000Y-116332000D02*
X140241000Y-111259000D01*
X106712600Y-73630800D02*
X102532600Y-73630800D01*
X102532600Y-82270800D02*
X106712600Y-82270800D01*
X102532600Y-73630800D02*
X102532600Y-82270800D01*
D20*
X174638000Y-108064000D02*
X173114000Y-109588000D01*
X173114000Y-109588000D02*
X166637000Y-109588000D01*
X165241000Y-110984000D02*
X165241000Y-116332000D01*
X166637000Y-109588000D02*
X165241000Y-110984000D01*
X175527000Y-108191000D02*
X172352000Y-111366000D01*
X175527000Y-108064000D02*
X175527000Y-108191000D01*
X170241000Y-112080000D02*
X170241000Y-116332000D01*
X170955000Y-111366000D02*
X170241000Y-112080000D01*
X172352000Y-111366000D02*
X170955000Y-111366000D01*
X172741000Y-111866000D02*
X172741000Y-116332000D01*
X176416000Y-108191000D02*
X172741000Y-111866000D01*
X176416000Y-108064000D02*
X176416000Y-108191000D01*
D21*
X177305000Y-108064000D02*
X177305000Y-108191000D01*
X175241000Y-110255000D02*
X175241000Y-116332000D01*
X177305000Y-108191000D02*
X175241000Y-110255000D01*
X160541000Y-91554000D02*
X161049000Y-92062000D01*
X161049000Y-97142000D02*
X162446000Y-98539000D01*
X161049000Y-92062000D02*
X161049000Y-97142000D01*
X159906000Y-93078000D02*
X160541000Y-93713000D01*
X160541000Y-93713000D02*
X160541000Y-98158000D01*
X159652000Y-90411000D02*
X159906000Y-90665000D01*
X159906000Y-90665000D02*
X159906000Y-93078000D01*
X160541000Y-98158000D02*
X160922000Y-98539000D01*
D20*
X155080000Y-112001000D02*
X158636000Y-108445000D01*
X153175000Y-112001000D02*
X155080000Y-112001000D01*
X152741000Y-116332000D02*
X152741000Y-112435000D01*
X152741000Y-112435000D02*
X153175000Y-112001000D01*
X159652000Y-108445000D02*
X159652002Y-108445000D01*
D21*
X155241000Y-116332000D02*
X155241000Y-112856002D01*
X155241000Y-112856002D02*
X159652002Y-108445000D01*
X157741000Y-111372001D02*
X160668002Y-108444999D01*
X157741000Y-116332000D02*
X157741000Y-111372001D01*
D20*
X160668000Y-108445000D02*
X160668002Y-108444999D01*
D21*
X162741000Y-109502000D02*
X161684000Y-108445000D01*
X162741000Y-116332000D02*
X162741000Y-109502000D01*
X152318300Y-110063700D02*
X136259300Y-110063700D01*
X132741000Y-113582000D02*
X132741000Y-116332000D01*
X153429000Y-108953000D02*
X152318300Y-110063700D01*
X136259300Y-110063700D02*
X132741000Y-113582000D01*
X137741000Y-116332000D02*
X137741000Y-111306000D01*
D20*
X154318000Y-108953000D02*
X152794000Y-110477000D01*
X152794000Y-110477000D02*
X138570000Y-110477000D01*
D21*
X137741000Y-111306000D02*
X138570000Y-110477000D01*
X143777000Y-110985000D02*
X153302000Y-110985000D01*
X142741000Y-116332000D02*
X142741000Y-112021000D01*
X153302000Y-110985000D02*
X155334000Y-108953000D01*
X142741000Y-112021000D02*
X143777000Y-110985000D01*
X145241000Y-111934000D02*
X145682000Y-111493000D01*
X145682000Y-111493000D02*
X153810000Y-111493000D01*
X153810000Y-111493000D02*
X156350000Y-108953000D01*
X145241000Y-116332000D02*
X145241000Y-111934000D01*
D20*
X155461000Y-101714000D02*
X166383000Y-101714000D01*
X154699000Y-102476000D02*
X155461000Y-101714000D01*
X166383000Y-101714000D02*
X170066000Y-105397000D01*
X155080000Y-101206000D02*
X167018000Y-101206000D01*
X167018000Y-101206000D02*
X170574000Y-104762000D01*
X154699000Y-101587000D02*
X155080000Y-101206000D01*
X167653000Y-100698000D02*
X171082000Y-104127000D01*
X154699000Y-100698000D02*
X167653000Y-100698000D01*
X168034000Y-99809000D02*
X171717000Y-103492000D01*
X154699000Y-99809000D02*
X168034000Y-99809000D01*
X156985000Y-102857000D02*
X156604000Y-103238000D01*
X162583500Y-102857000D02*
X156985000Y-102857000D01*
X163218500Y-103492000D02*
X162583500Y-102857000D01*
X156721500Y-102222000D02*
X156594500Y-102349000D01*
X163716000Y-102476000D02*
X163462000Y-102222000D01*
X163462000Y-102222000D02*
X156721500Y-102222000D01*
X161811000Y-96126000D02*
X164224000Y-98539000D01*
X161811000Y-92316000D02*
X161811000Y-96126000D01*
X161684000Y-92189000D02*
X161811000Y-92316000D01*
X162192000Y-91173000D02*
X162319000Y-91300000D01*
X162319000Y-95364000D02*
X165494000Y-98539000D01*
X162319000Y-91300000D02*
X162319000Y-95364000D01*
X150000000Y-109461000D02*
X142888000Y-109461000D01*
X150508000Y-108953000D02*
X150000000Y-109461000D01*
X148222000Y-95491000D02*
X145809000Y-97904000D01*
X148222000Y-83553000D02*
X148222000Y-95491000D01*
X146571000Y-81902000D02*
X148222000Y-83553000D01*
X135395000Y-91300000D02*
X136792000Y-92697000D01*
X143520315Y-81902000D02*
X138059315Y-87363000D01*
X138059315Y-87363000D02*
X136919000Y-87363000D01*
X136792000Y-92697000D02*
X136792000Y-95110002D01*
X136919000Y-87363000D02*
X135395000Y-88887000D01*
X135395000Y-88887000D02*
X135395000Y-91300000D01*
X145682000Y-81902000D02*
X143520315Y-81902000D01*
X140094000Y-99428000D02*
X142888000Y-99428000D01*
X137427000Y-96761000D02*
X137427000Y-89903000D01*
X137427000Y-89903000D02*
X136919000Y-89395000D01*
X142888000Y-99428000D02*
X145936000Y-96380000D01*
X136919000Y-89141000D02*
X136919000Y-89395000D01*
X145682000Y-82664000D02*
X143396000Y-82664000D01*
X109106000Y-96507000D02*
X109106000Y-104381000D01*
X109106000Y-104381000D02*
X108852000Y-104635000D01*
X143396000Y-82664000D02*
X136919000Y-89141000D01*
X137427000Y-96761000D02*
X140094000Y-99428000D01*
X146317000Y-95491000D02*
X146444000Y-95618000D01*
X113043000Y-104508000D02*
X111646000Y-105905000D01*
X138697000Y-96253000D02*
X138697000Y-91173000D01*
X143279738Y-83426000D02*
X138697000Y-88008738D01*
X140729000Y-98285000D02*
X143523000Y-95491000D01*
X145682000Y-83426000D02*
X143279738Y-83426000D01*
X138697000Y-88008738D02*
X138697000Y-91173000D01*
X143523000Y-95491000D02*
X146317000Y-95491000D01*
X140729000Y-98285000D02*
X138697000Y-96253000D01*
X113043000Y-99174000D02*
X113043000Y-104508000D01*
X139586000Y-87871000D02*
X139586000Y-89395000D01*
X143269000Y-84188000D02*
X139586000Y-87871000D01*
X139586000Y-89395000D02*
X139586000Y-95999000D01*
X110376000Y-97269000D02*
X110376000Y-104635000D01*
X139586000Y-95999000D02*
X140602000Y-97015000D01*
X145682000Y-84188000D02*
X143269000Y-84188000D01*
X140602000Y-97015000D02*
X142761000Y-94856000D01*
X142761000Y-94856000D02*
X146952000Y-94856000D01*
X145682000Y-84950000D02*
X143650000Y-84950000D01*
X143650000Y-84950000D02*
X140475000Y-88125000D01*
X140475000Y-88125000D02*
X140475000Y-95745000D01*
X142253000Y-93967000D02*
X147587000Y-93967000D01*
X111392000Y-95745000D02*
X111392000Y-103365000D01*
X140475000Y-95745000D02*
X142253000Y-93967000D01*
X115837000Y-95364000D02*
X107328000Y-86855000D01*
X115837000Y-98666000D02*
X115837000Y-95364000D01*
X117361000Y-100190000D02*
X115837000Y-98666000D01*
X116853000Y-100825000D02*
X114914500Y-98886500D01*
X114914500Y-98251500D02*
X111138000Y-94475000D01*
X117996000Y-100825000D02*
X116853000Y-100825000D01*
X118631000Y-100190000D02*
X117996000Y-100825000D01*
X114914500Y-98886500D02*
X114914500Y-98251500D01*
X111138000Y-94475000D02*
X107201000Y-94475000D01*
X119901000Y-89776000D02*
X116980000Y-86855000D01*
X119901000Y-100190000D02*
X119901000Y-89776000D01*
X119647000Y-101079000D02*
X119266000Y-100698000D01*
X120790000Y-101079000D02*
X119647000Y-101079000D01*
X119266000Y-100698000D02*
X119266000Y-96761000D01*
X119266000Y-96761000D02*
X116980000Y-94475000D01*
X121171000Y-100190000D02*
X121171000Y-100698000D01*
X121171000Y-100698000D02*
X120790000Y-101079000D01*
X122441000Y-93205000D02*
X126632000Y-89014000D01*
X126632000Y-89014000D02*
X126632000Y-86855000D01*
X122441000Y-100190000D02*
X122441000Y-93205000D01*
X123711000Y-100190000D02*
X123711000Y-97523000D01*
X123711000Y-97523000D02*
X126759000Y-94475000D01*
X134760000Y-87871000D02*
X124981000Y-97650000D01*
X124981000Y-97650000D02*
X124981000Y-100190000D01*
X134760000Y-87363000D02*
X134760000Y-87871000D01*
X153937000Y-75679000D02*
X153937000Y-68821000D01*
X153937000Y-68821000D02*
X151016000Y-65900000D01*
X154699000Y-76441000D02*
X153937000Y-75679000D01*
X157372000Y-91939738D02*
X153048000Y-96263738D01*
X153048000Y-96263738D02*
X153048000Y-99936000D01*
X153937000Y-76441000D02*
X153302000Y-75806000D01*
X150000000Y-66027000D02*
X140602000Y-66027000D01*
X153302000Y-69329000D02*
X150000000Y-66027000D01*
X140602000Y-66027000D02*
X140475000Y-65900000D01*
X153302000Y-75806000D02*
X153302000Y-69329000D01*
X157401000Y-88887000D02*
X157372000Y-88916000D01*
X157372000Y-88916000D02*
X157372000Y-91939738D01*
X156731000Y-90284000D02*
X156731000Y-91935000D01*
X156858000Y-90157000D02*
X156731000Y-90284000D01*
X156731000Y-91935000D02*
X152540000Y-96126000D01*
X149746000Y-66662000D02*
X139713000Y-66662000D01*
X152540000Y-96126000D02*
X152540000Y-100825000D01*
X152667000Y-75933000D02*
X152667000Y-69583000D01*
X153175000Y-76441000D02*
X152667000Y-75933000D01*
X152667000Y-69583000D02*
X149746000Y-66662000D01*
X156350000Y-91681000D02*
X152032000Y-95999000D01*
X149746000Y-76441000D02*
X140475000Y-67170000D01*
X152413000Y-76441000D02*
X149746000Y-76441000D01*
X152032000Y-95999000D02*
X152032000Y-101587000D01*
X140475000Y-67170000D02*
X139078000Y-67170000D01*
X156397500Y-89395000D02*
X156350000Y-89442500D01*
X156350000Y-89442500D02*
X156350000Y-91681000D01*
X157112000Y-77076000D02*
X165113000Y-85077000D01*
X157112000Y-68694000D02*
X157112000Y-77076000D01*
X158636000Y-67170000D02*
X157112000Y-68694000D01*
X165113000Y-85077000D02*
X174257000Y-85077000D01*
X158763000Y-69329000D02*
X163208000Y-73774000D01*
X176289000Y-73774000D02*
X176670000Y-73393000D01*
X157874000Y-69329000D02*
X158763000Y-69329000D01*
X163208000Y-73774000D02*
X176289000Y-73774000D01*
X176289000Y-80505000D02*
X175527000Y-81267000D01*
X178702000Y-80505000D02*
X176289000Y-80505000D01*
X175527000Y-81267000D02*
X175527000Y-88887000D01*
X175527000Y-88887000D02*
X174257000Y-90157000D01*
X156350000Y-67551000D02*
X158875000Y-65026000D01*
X156350000Y-76441000D02*
X156350000Y-77076000D01*
X158875000Y-65026000D02*
X162700000Y-65026000D01*
X169431000Y-90157000D02*
X171717000Y-90157000D01*
X156350000Y-77076000D02*
X169431000Y-90157000D01*
X171717000Y-90157000D02*
X174257000Y-92697000D01*
X156350000Y-76441000D02*
X156350000Y-67551000D01*
X155588000Y-67170000D02*
X159779000Y-62979000D01*
X171336000Y-90919000D02*
X172860000Y-92443000D01*
X172860000Y-92443000D02*
X172860000Y-93840000D01*
X172860000Y-93840000D02*
X174257000Y-95237000D01*
X164268732Y-62979000D02*
X165240000Y-63950268D01*
X165240000Y-63950268D02*
X165240000Y-65026000D01*
X155588000Y-76441000D02*
X155588000Y-67170000D01*
X155588000Y-76441000D02*
X155588000Y-77203000D01*
X155588000Y-77203000D02*
X169304000Y-90919000D01*
X169304000Y-90919000D02*
X171336000Y-90919000D01*
X159779000Y-62979000D02*
X164268732Y-62979000D01*
X171336000Y-73139000D02*
X164732000Y-73139000D01*
X164732000Y-73139000D02*
X162700000Y-71107000D01*
X162700000Y-71107000D02*
X162700000Y-70076000D01*
D21*
X130241000Y-112202000D02*
X133998000Y-108445000D01*
X130241000Y-116332000D02*
X130241000Y-112202000D01*
D20*
X135014000Y-91808000D02*
X135903000Y-92697000D01*
X136030000Y-83172000D02*
X136030000Y-87490000D01*
X133490000Y-80632000D02*
X136030000Y-83172000D01*
X135014000Y-88506000D02*
X135014000Y-91808000D01*
X136030000Y-87490000D02*
X135014000Y-88506000D01*
X133490000Y-79091500D02*
X133490000Y-80632000D01*
X135903000Y-92697000D02*
X135903000Y-102222000D01*
X135903000Y-102222000D02*
X132728000Y-105397000D01*
X140405779Y-67810715D02*
X138564285Y-67810715D01*
X161176000Y-85077000D02*
X157672064Y-85077000D01*
X157672064Y-85077000D02*
X140405779Y-67810715D01*
X172860000Y-72123000D02*
X172860000Y-70076000D01*
X164224000Y-88125000D02*
X161176000Y-85077000D01*
X154953000Y-85077000D02*
X156350000Y-86474000D01*
X146190000Y-75298000D02*
X154953000Y-84061000D01*
X140348000Y-75298000D02*
X146190000Y-75298000D01*
X165240000Y-70076000D02*
X165240000Y-72123000D01*
X138570000Y-73520000D02*
X140348000Y-75298000D01*
X154953000Y-84061000D02*
X154953000Y-85077000D01*
X156350000Y-86474000D02*
X158636000Y-86474000D01*
X172860000Y-63962304D02*
X172860000Y-65026000D01*
X140729000Y-62598000D02*
X141872000Y-61455000D01*
X140729000Y-64757000D02*
X140729000Y-62598000D01*
X170352696Y-61455000D02*
X172860000Y-63962304D01*
X141872000Y-61455000D02*
X170352696Y-61455000D01*
X135141000Y-95110000D02*
X135141000Y-93840000D01*
X123711000Y-106540000D02*
X135141000Y-95110000D01*
X170320000Y-72123000D02*
X170320000Y-70076000D01*
X167780000Y-72123000D02*
X167780000Y-70076000D01*
X168213381Y-61836000D02*
X170320000Y-63942619D01*
X170320000Y-63942619D02*
X170320000Y-65026000D01*
X142634000Y-61836000D02*
X168213381Y-61836000D01*
X141872000Y-62598000D02*
X142634000Y-61836000D01*
X167780000Y-63941742D02*
X167780000Y-65026000D01*
X142126000Y-63741000D02*
X150952500Y-63741000D01*
X141745000Y-64122000D02*
X142126000Y-63741000D01*
X150952500Y-63741000D02*
X152476500Y-62217000D01*
X152476500Y-62217000D02*
X166055258Y-62217000D01*
X166055258Y-62217000D02*
X167780000Y-63941742D01*
G04 #@! TA.AperFunction,Conductor*
G36*
X199758691Y-90018907D02*
G01*
X199794655Y-90068407D01*
X199799500Y-90099000D01*
X199799500Y-115465983D01*
X199796982Y-115488169D01*
X199794344Y-115499641D01*
X199796739Y-115510227D01*
X199795587Y-115524697D01*
X199787294Y-115577063D01*
X199777725Y-115606518D01*
X199749419Y-115662071D01*
X199731215Y-115687128D01*
X199687128Y-115731215D01*
X199662068Y-115749421D01*
X199606521Y-115777723D01*
X199577065Y-115787294D01*
X199524499Y-115795619D01*
X199510609Y-115796701D01*
X199500359Y-115794344D01*
X199489487Y-115796804D01*
X199489207Y-115796867D01*
X199488359Y-115797059D01*
X199466512Y-115799500D01*
X194534017Y-115799500D01*
X194511831Y-115796982D01*
X194511224Y-115796842D01*
X194511222Y-115796842D01*
X194500359Y-115794344D01*
X194489773Y-115796739D01*
X194475303Y-115795587D01*
X194422937Y-115787294D01*
X194393482Y-115777725D01*
X194337929Y-115749419D01*
X194312872Y-115731215D01*
X194268785Y-115687128D01*
X194250581Y-115662071D01*
X194222275Y-115606518D01*
X194212706Y-115577065D01*
X194205281Y-115530185D01*
X194204738Y-115504672D01*
X194205655Y-115500718D01*
X194205656Y-115500000D01*
X194203096Y-115488776D01*
X194202980Y-115488266D01*
X194200500Y-115466248D01*
X194200500Y-109599000D01*
X194219407Y-109540809D01*
X194268907Y-109504845D01*
X194299500Y-109500000D01*
X196500000Y-109500000D01*
X196500000Y-90099000D01*
X196518907Y-90040809D01*
X196568407Y-90004845D01*
X196599000Y-90000000D01*
X199700500Y-90000000D01*
X199758691Y-90018907D01*
G37*
G04 #@! TD.AperFunction*
G04 #@! TA.AperFunction,Conductor*
G36*
X103459191Y-88518907D02*
G01*
X103495155Y-88568407D01*
X103500000Y-88599000D01*
X103500000Y-109500000D01*
X106200500Y-109500000D01*
X106258691Y-109518907D01*
X106294655Y-109568407D01*
X106299500Y-109599000D01*
X106299500Y-115465983D01*
X106296982Y-115488169D01*
X106294344Y-115499641D01*
X106296739Y-115510227D01*
X106295587Y-115524697D01*
X106287294Y-115577063D01*
X106277725Y-115606518D01*
X106249419Y-115662071D01*
X106231215Y-115687128D01*
X106187128Y-115731215D01*
X106162068Y-115749421D01*
X106106521Y-115777723D01*
X106077065Y-115787294D01*
X106024499Y-115795619D01*
X106010609Y-115796701D01*
X106000359Y-115794344D01*
X105989487Y-115796804D01*
X105989207Y-115796867D01*
X105988359Y-115797059D01*
X105966512Y-115799500D01*
X100534017Y-115799500D01*
X100511831Y-115796982D01*
X100511224Y-115796842D01*
X100511222Y-115796842D01*
X100500359Y-115794344D01*
X100489773Y-115796739D01*
X100475303Y-115795587D01*
X100422937Y-115787294D01*
X100393482Y-115777725D01*
X100337929Y-115749419D01*
X100312872Y-115731215D01*
X100268785Y-115687128D01*
X100250581Y-115662071D01*
X100222275Y-115606518D01*
X100212706Y-115577065D01*
X100205281Y-115530185D01*
X100204738Y-115504672D01*
X100205655Y-115500718D01*
X100205656Y-115500000D01*
X100203096Y-115488776D01*
X100202980Y-115488266D01*
X100200500Y-115466248D01*
X100200500Y-88599000D01*
X100219407Y-88540809D01*
X100268907Y-88504845D01*
X100299500Y-88500000D01*
X103401000Y-88500000D01*
X103459191Y-88518907D01*
G37*
G04 #@! TD.AperFunction*
M02*
