G04 #@! TF.GenerationSoftware,KiCad,Pcbnew,(6.0.7)*
G04 #@! TF.CreationDate,2022-08-14T23:11:47+02:00*
G04 #@! TF.ProjectId,picocart64_v2,7069636f-6361-4727-9436-345f76322e6b,rev?*
G04 #@! TF.SameCoordinates,Original*
G04 #@! TF.FileFunction,Profile,NP*
%FSLAX46Y46*%
G04 Gerber Fmt 4.6, Leading zero omitted, Abs format (unit mm)*
G04 Created by KiCad (PCBNEW (6.0.7)) date 2022-08-14 23:11:47*
%MOMM*%
%LPD*%
G01*
G04 APERTURE LIST*
G04 #@! TA.AperFunction,Profile*
%ADD10C,0.100000*%
G04 #@! TD*
G04 APERTURE END LIST*
D10*
X182500000Y-119000000D02*
X182500000Y-109500000D01*
X194000000Y-109500000D02*
X182500000Y-109500000D01*
X194000000Y-109500000D02*
X194000000Y-115500000D01*
X199500000Y-116000000D02*
X194500000Y-116000000D01*
X200000000Y-115500000D02*
X200000000Y-89500000D01*
X196900000Y-83000000D02*
X196900000Y-81500000D01*
X199000000Y-81500000D02*
X196900000Y-81500000D01*
X199500000Y-60500000D02*
X199500000Y-81000000D01*
X118000000Y-119000000D02*
X119000000Y-120000000D01*
X182500000Y-119000000D02*
X181500000Y-120000000D01*
X101300000Y-60000000D02*
G75*
G03*
X100800000Y-60500000I0J-500000D01*
G01*
X100500000Y-62500000D02*
G75*
G03*
X100000000Y-63000000I0J-500000D01*
G01*
X100000000Y-82500000D02*
G75*
G03*
X100500000Y-83000000I500000J0D01*
G01*
X101500000Y-84500000D02*
G75*
G03*
X101000000Y-85000000I0J-500000D01*
G01*
X100500000Y-87500000D02*
G75*
G03*
X100000000Y-88000000I0J-500000D01*
G01*
X100000000Y-115500000D02*
G75*
G03*
X100500000Y-116000000I500000J0D01*
G01*
X106000000Y-116000000D02*
G75*
G03*
X106500000Y-115500000I0J500000D01*
G01*
X194000000Y-115500000D02*
G75*
G03*
X194500000Y-116000000I500000J0D01*
G01*
X199500000Y-116000000D02*
G75*
G03*
X200000000Y-115500000I0J500000D01*
G01*
X199500000Y-83500000D02*
G75*
G03*
X199000000Y-83000000I-500000J0D01*
G01*
X199000000Y-81500000D02*
G75*
G03*
X199500000Y-81000000I0J500000D01*
G01*
X200000000Y-89500000D02*
G75*
G03*
X199500000Y-89000000I-500000J0D01*
G01*
X199500000Y-83500000D02*
X199500000Y-89000000D01*
X118000000Y-119000000D02*
X118000000Y-109500000D01*
X106500000Y-109500000D02*
X106500000Y-115500000D01*
X199500000Y-60500000D02*
G75*
G03*
X199000000Y-60000000I-500000J0D01*
G01*
X181500000Y-120000000D02*
X119000000Y-120000000D01*
X118000000Y-109500000D02*
X106500000Y-109500000D01*
X103500000Y-84500000D02*
X103500000Y-83000000D01*
X101500000Y-84500000D02*
X103500000Y-84500000D01*
X106000000Y-116000000D02*
X100500000Y-116000000D01*
X100500000Y-62500000D02*
X100800000Y-62500000D01*
X100000000Y-82500000D02*
X100000000Y-63000000D01*
X100800000Y-62500000D02*
X100800000Y-60500000D01*
X101300000Y-60000000D02*
X199000000Y-60000000D01*
X100000000Y-115500000D02*
X100000000Y-88000000D01*
X100500000Y-87500000D02*
X101000000Y-87500000D01*
X101000000Y-87500000D02*
X101000000Y-85000000D01*
X199000000Y-83000000D02*
X196900000Y-83000000D01*
X103500000Y-83000000D02*
X100500000Y-83000000D01*
M02*
