G04 #@! TF.GenerationSoftware,KiCad,Pcbnew,(6.0.7)*
G04 #@! TF.CreationDate,2022-08-14T23:11:47+02:00*
G04 #@! TF.ProjectId,picocart64_v2,7069636f-6361-4727-9436-345f76322e6b,rev?*
G04 #@! TF.SameCoordinates,Original*
G04 #@! TF.FileFunction,Soldermask,Bot*
G04 #@! TF.FilePolarity,Negative*
%FSLAX46Y46*%
G04 Gerber Fmt 4.6, Leading zero omitted, Abs format (unit mm)*
G04 Created by KiCad (PCBNEW (6.0.7)) date 2022-08-14 23:11:47*
%MOMM*%
%LPD*%
G01*
G04 APERTURE LIST*
G04 Aperture macros list*
%AMRoundRect*
0 Rectangle with rounded corners*
0 $1 Rounding radius*
0 $2 $3 $4 $5 $6 $7 $8 $9 X,Y pos of 4 corners*
0 Add a 4 corners polygon primitive as box body*
4,1,4,$2,$3,$4,$5,$6,$7,$8,$9,$2,$3,0*
0 Add four circle primitives for the rounded corners*
1,1,$1+$1,$2,$3*
1,1,$1+$1,$4,$5*
1,1,$1+$1,$6,$7*
1,1,$1+$1,$8,$9*
0 Add four rect primitives between the rounded corners*
20,1,$1+$1,$2,$3,$4,$5,0*
20,1,$1+$1,$4,$5,$6,$7,0*
20,1,$1+$1,$6,$7,$8,$9,0*
20,1,$1+$1,$8,$9,$2,$3,0*%
G04 Aperture macros list end*
%ADD10C,0.910000*%
%ADD11O,1.860000X1.260000*%
%ADD12O,2.360000X1.160000*%
%ADD13C,2.760000*%
%ADD14O,1.960000X1.960000*%
%ADD15RoundRect,0.130000X-0.850000X-0.850000X0.850000X-0.850000X0.850000X0.850000X-0.850000X0.850000X0*%
%ADD16RoundRect,0.555000X-0.425000X-0.425000X0.425000X-0.425000X0.425000X0.425000X-0.425000X0.425000X0*%
%ADD17RoundRect,0.130000X-0.500000X1.575000X-0.500000X-1.575000X0.500000X-1.575000X0.500000X1.575000X0*%
%ADD18C,1.060000*%
%ADD19C,0.860000*%
G04 APERTURE END LIST*
D10*
X106204000Y-64964600D03*
X106204000Y-70744600D03*
D11*
X102524000Y-72174600D03*
D12*
X106704000Y-63534600D03*
D11*
X102524000Y-63534600D03*
D12*
X106704000Y-72174600D03*
D10*
X106212600Y-75060800D03*
X106212600Y-80840800D03*
D11*
X102532600Y-82270800D03*
X102532600Y-73630800D03*
D12*
X106712600Y-73630800D03*
X106712600Y-82270800D03*
D13*
X102850000Y-112600000D03*
X197650000Y-112600000D03*
D14*
X174257000Y-97777000D03*
X174257000Y-95237000D03*
X174257000Y-92697000D03*
X174257000Y-90157000D03*
X174257000Y-87617000D03*
D15*
X174257000Y-85077000D03*
X179337000Y-100317000D03*
X194577000Y-100317000D03*
X176797000Y-100317000D03*
X181877000Y-100317000D03*
X186957000Y-100317000D03*
X192037000Y-100317000D03*
X184417000Y-100317000D03*
X189497000Y-100317000D03*
D16*
X181877000Y-82537000D03*
X179337000Y-82537000D03*
X184417000Y-82537000D03*
X194577000Y-82537000D03*
X176797000Y-82537000D03*
X186957000Y-82537000D03*
X192037000Y-82537000D03*
X189497000Y-82537000D03*
D14*
X176797000Y-92697000D03*
X192037000Y-95237000D03*
X186957000Y-92697000D03*
X184417000Y-95237000D03*
X176797000Y-85077000D03*
X194577000Y-87617000D03*
X184417000Y-87617000D03*
X194577000Y-90157000D03*
X189497000Y-97777000D03*
X179337000Y-87617000D03*
X194577000Y-92697000D03*
X189497000Y-87617000D03*
X189497000Y-92697000D03*
X181877000Y-95237000D03*
X189497000Y-95237000D03*
X184417000Y-92697000D03*
X189497000Y-90157000D03*
X179337000Y-90157000D03*
X192037000Y-90157000D03*
X186957000Y-90157000D03*
X181877000Y-87617000D03*
X181877000Y-97777000D03*
X179337000Y-95237000D03*
X179337000Y-97777000D03*
X181877000Y-92697000D03*
X179337000Y-92697000D03*
X184417000Y-85077000D03*
X192037000Y-92697000D03*
X179337000Y-85077000D03*
X186957000Y-97777000D03*
X184417000Y-90157000D03*
X192037000Y-85077000D03*
X186957000Y-87617000D03*
X181877000Y-90157000D03*
X184417000Y-97777000D03*
X186957000Y-85077000D03*
X181877000Y-85077000D03*
X176797000Y-87617000D03*
X176797000Y-95237000D03*
X192037000Y-87617000D03*
X176797000Y-90157000D03*
X176797000Y-97777000D03*
X189497000Y-85077000D03*
X194577000Y-95237000D03*
X192037000Y-97777000D03*
X194577000Y-97777000D03*
X186957000Y-95237000D03*
X194577000Y-85077000D03*
D17*
X162700000Y-65026000D03*
X162700000Y-70076000D03*
X165240000Y-65026000D03*
X165240000Y-70076000D03*
X167780000Y-65026000D03*
X167780000Y-70076000D03*
X170320000Y-65026000D03*
X170320000Y-70076000D03*
X172860000Y-65026000D03*
X172860000Y-70076000D03*
X175400000Y-65026000D03*
X175400000Y-70076000D03*
D18*
X173311000Y-74519000D03*
X169120000Y-74519000D03*
X158909200Y-81758000D03*
X130569000Y-101079000D03*
X148603000Y-105016000D03*
X153556000Y-107302000D03*
X157874000Y-107302000D03*
X161938000Y-106540000D03*
X177305000Y-103873000D03*
X173495000Y-100317000D03*
X167018000Y-103873000D03*
X148603000Y-98412000D03*
X144031000Y-97142000D03*
X138189000Y-82029000D03*
X129299000Y-82029000D03*
X120028000Y-82029000D03*
X130315000Y-79235000D03*
X129553000Y-75425000D03*
X136411000Y-78854000D03*
X151778000Y-77838000D03*
X148349000Y-81775000D03*
X146825000Y-83426000D03*
X110376000Y-86728000D03*
X107836000Y-102984000D03*
X116345000Y-104127000D03*
X152032000Y-108953000D03*
X148095000Y-102603000D03*
X138697000Y-102857000D03*
X120917000Y-94348000D03*
X130569000Y-86601000D03*
X120282000Y-86601000D03*
X114541600Y-76695000D03*
X124600000Y-70218000D03*
X137427000Y-65265000D03*
X155080000Y-66027000D03*
X183909000Y-74536000D03*
X190767000Y-69583000D03*
X191910000Y-77330000D03*
X183782000Y-80505000D03*
X173241000Y-80505000D03*
X169177000Y-80505000D03*
X164859000Y-80505000D03*
X142507000Y-82029000D03*
D19*
X150508000Y-108953000D03*
D18*
X140221000Y-111239000D03*
X139205000Y-111239000D03*
X152518000Y-94453000D03*
X110200000Y-72341400D03*
X110200000Y-71341400D03*
X111400000Y-71341400D03*
X111400000Y-72341400D03*
X102108000Y-105156000D03*
X180250000Y-111350000D03*
X180250000Y-110400000D03*
X177750000Y-111350000D03*
X177750000Y-110400000D03*
X167750000Y-110400000D03*
X167750000Y-111350000D03*
X127750000Y-111350000D03*
X127750000Y-110400000D03*
X149365000Y-64630000D03*
X142126000Y-72250000D03*
X139586000Y-84823000D03*
X120637600Y-79743000D03*
X125235000Y-110395916D03*
X114948000Y-62344000D03*
X102502000Y-61328000D03*
X198000000Y-108000000D03*
X107836000Y-105905000D03*
X127464000Y-98285000D03*
X142126000Y-78473000D03*
X144412000Y-69964000D03*
X107779000Y-98285000D03*
X110179000Y-64341400D03*
X121399600Y-73139000D03*
X120637600Y-78473000D03*
X158763000Y-103492000D03*
X141491000Y-91808000D03*
X161430000Y-73393000D03*
X168034000Y-67551000D03*
X143142000Y-78473000D03*
X151778000Y-69837000D03*
X172098000Y-67551000D03*
X122949000Y-72631000D03*
X125235000Y-111345916D03*
X111379000Y-64341400D03*
X127210000Y-90665000D03*
X197117000Y-70218000D03*
X153810000Y-88252000D03*
X166002000Y-94475000D03*
X134506000Y-77584000D03*
X167526000Y-93459000D03*
X153683000Y-102857000D03*
X109741000Y-62217000D03*
X117431000Y-90665000D03*
X119621600Y-79743000D03*
X148984000Y-94348000D03*
X111519000Y-92824000D03*
X122187000Y-84188000D03*
D19*
X135776000Y-69075000D03*
D18*
X108979000Y-74028000D03*
X157874000Y-94475000D03*
X159652000Y-97396000D03*
X157874000Y-95618000D03*
X171463000Y-95872000D03*
X120231200Y-110390600D03*
X107525000Y-90665000D03*
X120231200Y-111340600D03*
X122187000Y-91808000D03*
D19*
X184163000Y-64122000D03*
D18*
X156731000Y-95618000D03*
X186322000Y-71615000D03*
X157493000Y-63995000D03*
X186322000Y-65519000D03*
X196482000Y-73647000D03*
X162446000Y-88125000D03*
X175400000Y-72631000D03*
X119621600Y-78473000D03*
X131077000Y-92824000D03*
X130950000Y-84188000D03*
X134506000Y-75425000D03*
X137116000Y-98285000D03*
X134506000Y-74282000D03*
X198000000Y-109000000D03*
D19*
X112408000Y-101079000D03*
D18*
X113170000Y-67805000D03*
X151524000Y-74282000D03*
X192164000Y-63233000D03*
X117558000Y-98285000D03*
D19*
X183020000Y-64122000D03*
D18*
X144031000Y-62979000D03*
X136538000Y-90665000D03*
X112535000Y-84188000D03*
X134506000Y-76568000D03*
X156731000Y-94475000D03*
X108979000Y-82664000D03*
X102108000Y-106680000D03*
X196990000Y-62217000D03*
X142888000Y-62979000D03*
X114440000Y-85204000D03*
X143904000Y-86855000D03*
X138570000Y-75425000D03*
X143396000Y-92824000D03*
D19*
X184163000Y-61455000D03*
X139967000Y-62979000D03*
D18*
X153937000Y-91681000D03*
X114440000Y-100317000D03*
X125743000Y-79489000D03*
X142689063Y-75899500D03*
X163208000Y-95104500D03*
X137427000Y-69837000D03*
X132728000Y-92062000D03*
X149238000Y-69837000D03*
X124092000Y-85204000D03*
X149111000Y-86601000D03*
X143523000Y-68694000D03*
D19*
X111900000Y-107556000D03*
D18*
X114440000Y-92824000D03*
X175400000Y-62979000D03*
X158300619Y-97667019D03*
X154894290Y-97495738D03*
X137935000Y-74536000D03*
D19*
X183020000Y-61455000D03*
D18*
X125743000Y-81267000D03*
X124092000Y-92824000D03*
X113424000Y-61074000D03*
X197117000Y-68059000D03*
X149144500Y-85458000D03*
X148984000Y-74282000D03*
X132729855Y-84442530D03*
X115964000Y-69938600D03*
X117722100Y-67805000D03*
X110200000Y-65741400D03*
X111400000Y-70041400D03*
X110200000Y-70041400D03*
X111400000Y-65741400D03*
D19*
X197117000Y-64757000D03*
X160668000Y-76187000D03*
X195974000Y-65773000D03*
X160668000Y-75272600D03*
X197117000Y-66916000D03*
X160668000Y-78727000D03*
X196101000Y-69456000D03*
X160668000Y-79616000D03*
X193561000Y-71615000D03*
X160668000Y-77965000D03*
X191783000Y-72250000D03*
X160668000Y-77076000D03*
D18*
X161176000Y-111239000D03*
X127267000Y-76949000D03*
X160241000Y-111252000D03*
D19*
X174638000Y-108064000D03*
X175527000Y-108064000D03*
X176416000Y-108064000D03*
X177305000Y-108064000D03*
X162446000Y-98539000D03*
X160541000Y-91554000D03*
X159652000Y-90411000D03*
X160922000Y-98539000D03*
X158636000Y-108445000D03*
X159652000Y-108445000D03*
X160668000Y-108445000D03*
X161684000Y-108445000D03*
X150895500Y-105143000D03*
X134379000Y-71615000D03*
X160160000Y-86855000D03*
X151524000Y-106159000D03*
X140729000Y-70472000D03*
X153429000Y-108953000D03*
X154318000Y-108953000D03*
X155334000Y-108953000D03*
X156350000Y-108953000D03*
X154699000Y-102476000D03*
X170066000Y-105397000D03*
X170574000Y-104762000D03*
X154699000Y-101587000D03*
X171082000Y-104127000D03*
X154699000Y-100698000D03*
X154699000Y-99809000D03*
X171717000Y-103492000D03*
X163218500Y-103492000D03*
X156604000Y-103238000D03*
X163716000Y-102476000D03*
X156594500Y-102349000D03*
X161684000Y-92189000D03*
X164224000Y-98539000D03*
X162192000Y-91173000D03*
X165494000Y-98539000D03*
X142888000Y-109461000D03*
X147968000Y-106921000D03*
X158763000Y-87738000D03*
X149365000Y-104127000D03*
X134379000Y-72631000D03*
X145809000Y-97904000D03*
X146571000Y-81902000D03*
X146952000Y-80632000D03*
X127521000Y-62471000D03*
X145682000Y-81902000D03*
X136792000Y-95110002D03*
X136919000Y-87363000D03*
X137427000Y-96761000D03*
X108852000Y-104635000D03*
X145936000Y-96380000D03*
X109106000Y-96507000D03*
X136919000Y-89395000D03*
X145682000Y-82664000D03*
X138697000Y-91173000D03*
D18*
X113043000Y-99174000D03*
D19*
X146444000Y-95618000D03*
X140729000Y-98285000D03*
X145682000Y-83426000D03*
X111646000Y-105905000D03*
X140602000Y-97015000D03*
X145682000Y-84188000D03*
X139586000Y-89395000D03*
X110376000Y-104635000D03*
X110376000Y-97269000D03*
X146952000Y-94856000D03*
X145682000Y-84950000D03*
X140475000Y-88125000D03*
X111392000Y-103365000D03*
X111392000Y-95745000D03*
X140475000Y-95745000D03*
X147587000Y-93967000D03*
X107328000Y-86855000D03*
X117361000Y-100190000D03*
X107201000Y-94475000D03*
X118631000Y-100190000D03*
X119901000Y-100190000D03*
X116980000Y-86855000D03*
X116980000Y-94475000D03*
X121171000Y-100190000D03*
X122441000Y-100190000D03*
X126632000Y-86855000D03*
X123711000Y-100190000D03*
X126759000Y-94475000D03*
X134760000Y-87363000D03*
X124981000Y-100190000D03*
X154699000Y-76441000D03*
X151016000Y-65900000D03*
X157880500Y-89903000D03*
X153556000Y-99174000D03*
X153937000Y-76441000D03*
X157401000Y-88887000D03*
X140475000Y-65900000D03*
X153048000Y-99936000D03*
X156858000Y-90157000D03*
X153175000Y-76441000D03*
X152540000Y-100825000D03*
X139713000Y-66662000D03*
X139078000Y-67170000D03*
X152032000Y-101587000D03*
X156397500Y-89395000D03*
X152413000Y-76441000D03*
X158636000Y-67170000D03*
X157874000Y-69329000D03*
X176670000Y-73393000D03*
D18*
X178702000Y-80505000D03*
D19*
X156350000Y-76441000D03*
X155588000Y-76441000D03*
D18*
X171844000Y-92697000D03*
D19*
X137554000Y-68694000D03*
X171336000Y-73139000D03*
X159525000Y-88506000D03*
X135014000Y-106159000D03*
X133998000Y-108445000D03*
X133490000Y-79091500D03*
X132728000Y-105397000D03*
X164224000Y-88125000D03*
X172860000Y-72123000D03*
X138564285Y-67810715D03*
X165240000Y-72123000D03*
X158636000Y-86474000D03*
X138570000Y-73520000D03*
X154953000Y-85077000D03*
X140729000Y-64757000D03*
X136665000Y-73393000D03*
X153810000Y-85966000D03*
X140729500Y-72123000D03*
X151016000Y-84442000D03*
X135141000Y-93840000D03*
X123711000Y-106540000D03*
X170320000Y-72123000D03*
X167780000Y-72123000D03*
X141872000Y-62598000D03*
X141745000Y-64122000D03*
G36*
X103442121Y-88520002D02*
G01*
X103488614Y-88573658D01*
X103500000Y-88626000D01*
X103500000Y-109481885D01*
X103504475Y-109497124D01*
X103505865Y-109498329D01*
X103513548Y-109500000D01*
X103520838Y-109500000D01*
X103588959Y-109520002D01*
X103635452Y-109573658D01*
X103645556Y-109643932D01*
X103616062Y-109708512D01*
X103556336Y-109746896D01*
X103539329Y-109750636D01*
X103531018Y-109751869D01*
X103518709Y-109753081D01*
X103503094Y-109753848D01*
X103496912Y-109754000D01*
X100126000Y-109754000D01*
X100057879Y-109733998D01*
X100011386Y-109680342D01*
X100000000Y-109628000D01*
X100000000Y-88626000D01*
X100020002Y-88557879D01*
X100073658Y-88511386D01*
X100126000Y-88500000D01*
X103374000Y-88500000D01*
X103442121Y-88520002D01*
G37*
G36*
X199942121Y-90020002D02*
G01*
X199988614Y-90073658D01*
X200000000Y-90126000D01*
X200000000Y-109628000D01*
X199979998Y-109696121D01*
X199926342Y-109742614D01*
X199874000Y-109754000D01*
X196503088Y-109754000D01*
X196496906Y-109753848D01*
X196481291Y-109753081D01*
X196468982Y-109751869D01*
X196460671Y-109750636D01*
X196396223Y-109720854D01*
X196358108Y-109660956D01*
X196358426Y-109589960D01*
X196397077Y-109530407D01*
X196461790Y-109501203D01*
X196479162Y-109500000D01*
X196481885Y-109500000D01*
X196497124Y-109495525D01*
X196498329Y-109494135D01*
X196500000Y-109486452D01*
X196500000Y-90126000D01*
X196520002Y-90057879D01*
X196573658Y-90011386D01*
X196626000Y-90000000D01*
X199874000Y-90000000D01*
X199942121Y-90020002D01*
G37*
G36*
X182442121Y-113020002D02*
G01*
X182488614Y-113073658D01*
X182500000Y-113126000D01*
X182500000Y-118947810D01*
X182479998Y-119015931D01*
X182463095Y-119036905D01*
X181536905Y-119963095D01*
X181474593Y-119997121D01*
X181447810Y-120000000D01*
X119052190Y-120000000D01*
X118984069Y-119979998D01*
X118963095Y-119963095D01*
X118036905Y-119036905D01*
X118002879Y-118974593D01*
X118000000Y-118947810D01*
X118000000Y-113126000D01*
X118020002Y-113057879D01*
X118073658Y-113011386D01*
X118126000Y-113000000D01*
X182374000Y-113000000D01*
X182442121Y-113020002D01*
G37*
G36*
X199942121Y-109266002D02*
G01*
X199988614Y-109319658D01*
X200000000Y-109372000D01*
X200000000Y-115491742D01*
X199998922Y-115508188D01*
X199985128Y-115612963D01*
X199976615Y-115644735D01*
X199939361Y-115734674D01*
X199922914Y-115763160D01*
X199863651Y-115840393D01*
X199840393Y-115863651D01*
X199763160Y-115922914D01*
X199734674Y-115939361D01*
X199644735Y-115976615D01*
X199612963Y-115985128D01*
X199508188Y-115998922D01*
X199491742Y-116000000D01*
X194508258Y-116000000D01*
X194491812Y-115998922D01*
X194387037Y-115985128D01*
X194355265Y-115976615D01*
X194265326Y-115939361D01*
X194236840Y-115922914D01*
X194159607Y-115863651D01*
X194136349Y-115840393D01*
X194077086Y-115763160D01*
X194060639Y-115734674D01*
X194023385Y-115644735D01*
X194014872Y-115612963D01*
X194001078Y-115508188D01*
X194000000Y-115491742D01*
X194000000Y-109626000D01*
X194020002Y-109557879D01*
X194073658Y-109511386D01*
X194126000Y-109500000D01*
X196481885Y-109500000D01*
X196497124Y-109495525D01*
X196498329Y-109494135D01*
X196500000Y-109486452D01*
X196500000Y-109372000D01*
X196520002Y-109303879D01*
X196573658Y-109257386D01*
X196626000Y-109246000D01*
X199874000Y-109246000D01*
X199942121Y-109266002D01*
G37*
G36*
X103442121Y-109266002D02*
G01*
X103488614Y-109319658D01*
X103500000Y-109372000D01*
X103500000Y-109481885D01*
X103504475Y-109497124D01*
X103505865Y-109498329D01*
X103513548Y-109500000D01*
X106374000Y-109500000D01*
X106442121Y-109520002D01*
X106488614Y-109573658D01*
X106500000Y-109626000D01*
X106500000Y-115491742D01*
X106498922Y-115508188D01*
X106485128Y-115612963D01*
X106476615Y-115644735D01*
X106439361Y-115734674D01*
X106422914Y-115763160D01*
X106363651Y-115840393D01*
X106340393Y-115863651D01*
X106263160Y-115922914D01*
X106234674Y-115939361D01*
X106144735Y-115976615D01*
X106112963Y-115985128D01*
X106008188Y-115998922D01*
X105991742Y-116000000D01*
X100508258Y-116000000D01*
X100491812Y-115998922D01*
X100387037Y-115985128D01*
X100355265Y-115976615D01*
X100265326Y-115939361D01*
X100236840Y-115922914D01*
X100159607Y-115863651D01*
X100136349Y-115840393D01*
X100077086Y-115763160D01*
X100060639Y-115734674D01*
X100023385Y-115644735D01*
X100014872Y-115612963D01*
X100001078Y-115508188D01*
X100000000Y-115491742D01*
X100000000Y-109372000D01*
X100020002Y-109303879D01*
X100073658Y-109257386D01*
X100126000Y-109246000D01*
X103374000Y-109246000D01*
X103442121Y-109266002D01*
G37*
G36*
X182480771Y-112993068D02*
G01*
X182499430Y-112998068D01*
X182500718Y-112999356D01*
X182501000Y-112999356D01*
X182501932Y-113000570D01*
X182506932Y-113019231D01*
X182507000Y-113019749D01*
X182507000Y-118980253D01*
X182506932Y-118980771D01*
X182501932Y-118999432D01*
X182501510Y-118999854D01*
X182501535Y-118999879D01*
X182501535Y-119000915D01*
X182499000Y-119010375D01*
X182498654Y-119011075D01*
X182498167Y-119011709D01*
X182497995Y-119011905D01*
X181518916Y-119990984D01*
X181518502Y-119991302D01*
X181501769Y-120000963D01*
X181501169Y-120000963D01*
X181501169Y-120001000D01*
X181500437Y-120001732D01*
X181491957Y-120006628D01*
X181491219Y-120006879D01*
X181490431Y-120006983D01*
X181490169Y-120007000D01*
X119019749Y-120007000D01*
X119019231Y-120006932D01*
X119000571Y-120001932D01*
X119000146Y-120001507D01*
X119000119Y-120001533D01*
X118999083Y-120001533D01*
X118989625Y-119998999D01*
X118988926Y-119998654D01*
X118988290Y-119998166D01*
X118988093Y-119997993D01*
X118009016Y-119018916D01*
X118008698Y-119018502D01*
X117999037Y-119001769D01*
X117999037Y-119001169D01*
X117999000Y-119001169D01*
X117998268Y-119000437D01*
X117997599Y-118999279D01*
X118002000Y-118999279D01*
X118002183Y-118999355D01*
X119000904Y-119998076D01*
X119001089Y-119998000D01*
X181499279Y-119998000D01*
X181499355Y-119997817D01*
X182498076Y-118999096D01*
X182498000Y-118998914D01*
X182498000Y-113002000D01*
X118002000Y-113002000D01*
X118002000Y-118999279D01*
X117997599Y-118999279D01*
X117993372Y-118991957D01*
X117993121Y-118991219D01*
X117993017Y-118990431D01*
X117993000Y-118990169D01*
X117993000Y-113019749D01*
X117993068Y-113019231D01*
X117998068Y-113000570D01*
X117999356Y-112999282D01*
X117999356Y-112999000D01*
X118000570Y-112998068D01*
X118019231Y-112993068D01*
X118019749Y-112993000D01*
X182480253Y-112993000D01*
X182480771Y-112993068D01*
G37*
G36*
X199980771Y-89993068D02*
G01*
X199999430Y-89998068D01*
X200000718Y-89999356D01*
X200001000Y-89999356D01*
X200001932Y-90000570D01*
X200006932Y-90019231D01*
X200007000Y-90019749D01*
X200007000Y-115495088D01*
X200006996Y-115495219D01*
X200006312Y-115505649D01*
X200006299Y-115505779D01*
X199991186Y-115620576D01*
X199991135Y-115620833D01*
X199985751Y-115640926D01*
X199985667Y-115641173D01*
X199943243Y-115743595D01*
X199943127Y-115743830D01*
X199932727Y-115761842D01*
X199932582Y-115762060D01*
X199865089Y-115850018D01*
X199864916Y-115850214D01*
X199850214Y-115864916D01*
X199850018Y-115865089D01*
X199762060Y-115932582D01*
X199761842Y-115932727D01*
X199743830Y-115943127D01*
X199743595Y-115943243D01*
X199641173Y-115985667D01*
X199640926Y-115985751D01*
X199620833Y-115991135D01*
X199620576Y-115991186D01*
X199505779Y-116006299D01*
X199505649Y-116006312D01*
X199495219Y-116006996D01*
X199495088Y-116007000D01*
X194504912Y-116007000D01*
X194504781Y-116006996D01*
X194494351Y-116006312D01*
X194494221Y-116006299D01*
X194379424Y-115991186D01*
X194379167Y-115991135D01*
X194359074Y-115985751D01*
X194358827Y-115985667D01*
X194256405Y-115943243D01*
X194256170Y-115943127D01*
X194238158Y-115932727D01*
X194237940Y-115932582D01*
X194149982Y-115865089D01*
X194149786Y-115864916D01*
X194135084Y-115850214D01*
X194134911Y-115850018D01*
X194067418Y-115762060D01*
X194067273Y-115761842D01*
X194056873Y-115743830D01*
X194056757Y-115743595D01*
X194014333Y-115641173D01*
X194014249Y-115640926D01*
X194008865Y-115620833D01*
X194008814Y-115620576D01*
X193993701Y-115505779D01*
X193993688Y-115505649D01*
X193993309Y-115499868D01*
X194002000Y-115499868D01*
X194018986Y-115628888D01*
X194068733Y-115748990D01*
X194147874Y-115852126D01*
X194251010Y-115931267D01*
X194371112Y-115981014D01*
X194500132Y-115998000D01*
X199499868Y-115998000D01*
X199628888Y-115981014D01*
X199748990Y-115931267D01*
X199852126Y-115852126D01*
X199931267Y-115748990D01*
X199981014Y-115628888D01*
X199998000Y-115499868D01*
X199998000Y-90002000D01*
X196502000Y-90002000D01*
X196502000Y-109500000D01*
X196501000Y-109501732D01*
X196500000Y-109502000D01*
X194002000Y-109502000D01*
X194002000Y-115499868D01*
X193993309Y-115499868D01*
X193993004Y-115495219D01*
X193993000Y-115495088D01*
X193993000Y-109519749D01*
X193993068Y-109519231D01*
X193998068Y-109500570D01*
X193999356Y-109499282D01*
X193999356Y-109499000D01*
X194000570Y-109498068D01*
X194019231Y-109493068D01*
X194019749Y-109493000D01*
X196344737Y-109493000D01*
X196418967Y-109473110D01*
X196473110Y-109418967D01*
X196493000Y-109344737D01*
X196493000Y-90019749D01*
X196493068Y-90019231D01*
X196498068Y-90000570D01*
X196499356Y-89999282D01*
X196499356Y-89999000D01*
X196500570Y-89998068D01*
X196519231Y-89993068D01*
X196519749Y-89993000D01*
X199980253Y-89993000D01*
X199980771Y-89993068D01*
G37*
G36*
X103480771Y-88493068D02*
G01*
X103499430Y-88498068D01*
X103500718Y-88499356D01*
X103501000Y-88499356D01*
X103501932Y-88500570D01*
X103506932Y-88519231D01*
X103507000Y-88519749D01*
X103507000Y-109344737D01*
X103526890Y-109418967D01*
X103581034Y-109473110D01*
X103655263Y-109493000D01*
X106480253Y-109493000D01*
X106480771Y-109493068D01*
X106499430Y-109498068D01*
X106500718Y-109499356D01*
X106501000Y-109499356D01*
X106501932Y-109500570D01*
X106506932Y-109519231D01*
X106507000Y-109519749D01*
X106507000Y-115495088D01*
X106506996Y-115495219D01*
X106506312Y-115505649D01*
X106506299Y-115505779D01*
X106491186Y-115620576D01*
X106491135Y-115620833D01*
X106485751Y-115640926D01*
X106485667Y-115641173D01*
X106443243Y-115743595D01*
X106443127Y-115743830D01*
X106432727Y-115761842D01*
X106432582Y-115762060D01*
X106365089Y-115850018D01*
X106364916Y-115850214D01*
X106350214Y-115864916D01*
X106350018Y-115865089D01*
X106262060Y-115932582D01*
X106261842Y-115932727D01*
X106243830Y-115943127D01*
X106243595Y-115943243D01*
X106141173Y-115985667D01*
X106140926Y-115985751D01*
X106120833Y-115991135D01*
X106120576Y-115991186D01*
X106005779Y-116006299D01*
X106005649Y-116006312D01*
X105995219Y-116006996D01*
X105995088Y-116007000D01*
X100504912Y-116007000D01*
X100504781Y-116006996D01*
X100494351Y-116006312D01*
X100494221Y-116006299D01*
X100379424Y-115991186D01*
X100379167Y-115991135D01*
X100359074Y-115985751D01*
X100358827Y-115985667D01*
X100256405Y-115943243D01*
X100256170Y-115943127D01*
X100238158Y-115932727D01*
X100237940Y-115932582D01*
X100149982Y-115865089D01*
X100149786Y-115864916D01*
X100135084Y-115850214D01*
X100134911Y-115850018D01*
X100067418Y-115762060D01*
X100067273Y-115761842D01*
X100056873Y-115743830D01*
X100056757Y-115743595D01*
X100014333Y-115641173D01*
X100014249Y-115640926D01*
X100008865Y-115620833D01*
X100008814Y-115620576D01*
X99993701Y-115505779D01*
X99993688Y-115505649D01*
X99993309Y-115499868D01*
X100002000Y-115499868D01*
X100018986Y-115628888D01*
X100068733Y-115748990D01*
X100147874Y-115852126D01*
X100251010Y-115931267D01*
X100371112Y-115981014D01*
X100500132Y-115998000D01*
X105999868Y-115998000D01*
X106128888Y-115981014D01*
X106248990Y-115931267D01*
X106352126Y-115852126D01*
X106431267Y-115748990D01*
X106481014Y-115628888D01*
X106498000Y-115499868D01*
X106498000Y-109502000D01*
X103500000Y-109502000D01*
X103498268Y-109501000D01*
X103498000Y-109500000D01*
X103498000Y-88502000D01*
X100002000Y-88502000D01*
X100002000Y-115499868D01*
X99993309Y-115499868D01*
X99993004Y-115495219D01*
X99993000Y-115495088D01*
X99993000Y-88519749D01*
X99993068Y-88519231D01*
X99998068Y-88500570D01*
X99999356Y-88499282D01*
X99999356Y-88499000D01*
X100000570Y-88498068D01*
X100019231Y-88493068D01*
X100019749Y-88493000D01*
X103480253Y-88493000D01*
X103480771Y-88493068D01*
G37*
G36*
X139714587Y-111384470D02*
G01*
X139714848Y-111384923D01*
X139763753Y-111502990D01*
X139832911Y-111593119D01*
X139833172Y-111595102D01*
X139831585Y-111596320D01*
X139829978Y-111595816D01*
X139812550Y-111579958D01*
X139744266Y-111544713D01*
X139667776Y-111548321D01*
X139603159Y-111589803D01*
X139597273Y-111597073D01*
X139597018Y-111597335D01*
X139590703Y-111602728D01*
X139588736Y-111603092D01*
X139587437Y-111601571D01*
X139587817Y-111599989D01*
X139662247Y-111502990D01*
X139711152Y-111384923D01*
X139712739Y-111383705D01*
X139714587Y-111384470D01*
G37*
G36*
X139836805Y-110878693D02*
G01*
X139836429Y-110880296D01*
X139763753Y-110975010D01*
X139714848Y-111093077D01*
X139713261Y-111094295D01*
X139711413Y-111093530D01*
X139711152Y-111093077D01*
X139662247Y-110975010D01*
X139591326Y-110882584D01*
X139591065Y-110880601D01*
X139592652Y-110879383D01*
X139594243Y-110879873D01*
X139614485Y-110897908D01*
X139683140Y-110932437D01*
X139759586Y-110928030D01*
X139811771Y-110893751D01*
X139813768Y-110893636D01*
X139814376Y-110894108D01*
X139814460Y-110894204D01*
X139833527Y-110877571D01*
X139835490Y-110877186D01*
X139836805Y-110878693D01*
G37*
G36*
X153756545Y-108678046D02*
G01*
X153816890Y-108724351D01*
X153892808Y-108734346D01*
X153963681Y-108704990D01*
X153987608Y-108681063D01*
X153989540Y-108680545D01*
X153990954Y-108681959D01*
X153990521Y-108683801D01*
X153960291Y-108718030D01*
X153908721Y-108827870D01*
X153890052Y-108947772D01*
X153905786Y-109068092D01*
X153954657Y-109179160D01*
X153993352Y-109225194D01*
X153993701Y-109227163D01*
X153992170Y-109228450D01*
X153990603Y-109228068D01*
X153930110Y-109181649D01*
X153854192Y-109171654D01*
X153783319Y-109201010D01*
X153762450Y-109221879D01*
X153760518Y-109222397D01*
X153759104Y-109220983D01*
X153759553Y-109219123D01*
X153783811Y-109192323D01*
X153836720Y-109083119D01*
X153856874Y-108963329D01*
X153856998Y-108953131D01*
X153839777Y-108832881D01*
X153789552Y-108722417D01*
X153753812Y-108680939D01*
X153753439Y-108678974D01*
X153754954Y-108677668D01*
X153756545Y-108678046D01*
G37*
G36*
X154968885Y-108732269D02*
G01*
X154968847Y-108733884D01*
X154924721Y-108827870D01*
X154906052Y-108947772D01*
X154921786Y-109068092D01*
X154965842Y-109168217D01*
X154965624Y-109170205D01*
X154963793Y-109171010D01*
X154962424Y-109170240D01*
X154950075Y-109154146D01*
X154948948Y-109154294D01*
X154948127Y-109153665D01*
X154916051Y-109111863D01*
X154845307Y-109082561D01*
X154769389Y-109092557D01*
X154708529Y-109139258D01*
X154693948Y-109164513D01*
X154693803Y-109164730D01*
X154685056Y-109176130D01*
X154683208Y-109176896D01*
X154681621Y-109175678D01*
X154681669Y-109174041D01*
X154725720Y-109083119D01*
X154745874Y-108963329D01*
X154745998Y-108953131D01*
X154728777Y-108832881D01*
X154684650Y-108735828D01*
X154684844Y-108733837D01*
X154686664Y-108733009D01*
X154688058Y-108733782D01*
X154701925Y-108751854D01*
X154703052Y-108751706D01*
X154703873Y-108752335D01*
X154735949Y-108794137D01*
X154806693Y-108823439D01*
X154882611Y-108813443D01*
X154943471Y-108766742D01*
X154958052Y-108741487D01*
X154958197Y-108741270D01*
X154965450Y-108731817D01*
X154967298Y-108731051D01*
X154968885Y-108732269D01*
G37*
G36*
X155984885Y-108732269D02*
G01*
X155984847Y-108733884D01*
X155940721Y-108827870D01*
X155922052Y-108947772D01*
X155937786Y-109068092D01*
X155981842Y-109168217D01*
X155981624Y-109170205D01*
X155979793Y-109171010D01*
X155978424Y-109170240D01*
X155966075Y-109154146D01*
X155964948Y-109154294D01*
X155964127Y-109153665D01*
X155932051Y-109111863D01*
X155861307Y-109082561D01*
X155785389Y-109092557D01*
X155724529Y-109139258D01*
X155709948Y-109164513D01*
X155709803Y-109164730D01*
X155701056Y-109176130D01*
X155699208Y-109176896D01*
X155697621Y-109175678D01*
X155697669Y-109174041D01*
X155741720Y-109083119D01*
X155761874Y-108963329D01*
X155761998Y-108953131D01*
X155744777Y-108832881D01*
X155700650Y-108735828D01*
X155700844Y-108733837D01*
X155702664Y-108733009D01*
X155704058Y-108733782D01*
X155717925Y-108751854D01*
X155719052Y-108751706D01*
X155719873Y-108752335D01*
X155751949Y-108794137D01*
X155822693Y-108823439D01*
X155898611Y-108813443D01*
X155959471Y-108766742D01*
X155974052Y-108741487D01*
X155974197Y-108741270D01*
X155981450Y-108731817D01*
X155983298Y-108731051D01*
X155984885Y-108732269D01*
G37*
G36*
X161318885Y-108224269D02*
G01*
X161318847Y-108225884D01*
X161274721Y-108319870D01*
X161256052Y-108439772D01*
X161271786Y-108560092D01*
X161315842Y-108660217D01*
X161315624Y-108662205D01*
X161313793Y-108663010D01*
X161312424Y-108662240D01*
X161300075Y-108646146D01*
X161298948Y-108646294D01*
X161298127Y-108645665D01*
X161266051Y-108603863D01*
X161195307Y-108574561D01*
X161119389Y-108584557D01*
X161058529Y-108631258D01*
X161043948Y-108656513D01*
X161043803Y-108656730D01*
X161035056Y-108668130D01*
X161033208Y-108668896D01*
X161031621Y-108667678D01*
X161031669Y-108666041D01*
X161075720Y-108575119D01*
X161095874Y-108455329D01*
X161095998Y-108445131D01*
X161078777Y-108324881D01*
X161034649Y-108227827D01*
X161034843Y-108225836D01*
X161036663Y-108225008D01*
X161038057Y-108225781D01*
X161051925Y-108243854D01*
X161053052Y-108243706D01*
X161053873Y-108244335D01*
X161085949Y-108286137D01*
X161156693Y-108315439D01*
X161232611Y-108305443D01*
X161293471Y-108258742D01*
X161308052Y-108233487D01*
X161308197Y-108233270D01*
X161315450Y-108223817D01*
X161317298Y-108223051D01*
X161318885Y-108224269D01*
G37*
G36*
X159286885Y-108224269D02*
G01*
X159286847Y-108225884D01*
X159242721Y-108319870D01*
X159224052Y-108439772D01*
X159239786Y-108560092D01*
X159283842Y-108660217D01*
X159283624Y-108662205D01*
X159281793Y-108663010D01*
X159280424Y-108662240D01*
X159268075Y-108646146D01*
X159266948Y-108646294D01*
X159266127Y-108645665D01*
X159234051Y-108603863D01*
X159163307Y-108574561D01*
X159087389Y-108584557D01*
X159026529Y-108631258D01*
X159011948Y-108656513D01*
X159011803Y-108656730D01*
X159003056Y-108668130D01*
X159001208Y-108668896D01*
X158999621Y-108667678D01*
X158999669Y-108666041D01*
X159043720Y-108575119D01*
X159063874Y-108455329D01*
X159063998Y-108445131D01*
X159046777Y-108324881D01*
X159002649Y-108227827D01*
X159002843Y-108225836D01*
X159004663Y-108225008D01*
X159006057Y-108225781D01*
X159019925Y-108243854D01*
X159021052Y-108243706D01*
X159021873Y-108244335D01*
X159053949Y-108286137D01*
X159124693Y-108315439D01*
X159200611Y-108305443D01*
X159261471Y-108258742D01*
X159276052Y-108233487D01*
X159276197Y-108233270D01*
X159283450Y-108223817D01*
X159285298Y-108223051D01*
X159286885Y-108224269D01*
G37*
G36*
X160302885Y-108224269D02*
G01*
X160302847Y-108225884D01*
X160258721Y-108319870D01*
X160240052Y-108439772D01*
X160255786Y-108560092D01*
X160299842Y-108660217D01*
X160299624Y-108662205D01*
X160297793Y-108663010D01*
X160296424Y-108662240D01*
X160284075Y-108646146D01*
X160282948Y-108646294D01*
X160282127Y-108645665D01*
X160250051Y-108603863D01*
X160179307Y-108574561D01*
X160103389Y-108584557D01*
X160042529Y-108631258D01*
X160027948Y-108656513D01*
X160027803Y-108656730D01*
X160019056Y-108668130D01*
X160017208Y-108668896D01*
X160015621Y-108667678D01*
X160015669Y-108666041D01*
X160059720Y-108575119D01*
X160079874Y-108455329D01*
X160079998Y-108445131D01*
X160062777Y-108324881D01*
X160018649Y-108227827D01*
X160018843Y-108225836D01*
X160020663Y-108225008D01*
X160022057Y-108225781D01*
X160035925Y-108243854D01*
X160037052Y-108243706D01*
X160037873Y-108244335D01*
X160069949Y-108286137D01*
X160140693Y-108315439D01*
X160216611Y-108305443D01*
X160277471Y-108258742D01*
X160292052Y-108233487D01*
X160292197Y-108233270D01*
X160299450Y-108223817D01*
X160301298Y-108223051D01*
X160302885Y-108224269D01*
G37*
G36*
X176743545Y-107789046D02*
G01*
X176803890Y-107835351D01*
X176879808Y-107845346D01*
X176950681Y-107815990D01*
X176974608Y-107792063D01*
X176976540Y-107791545D01*
X176977954Y-107792959D01*
X176977521Y-107794801D01*
X176947291Y-107829030D01*
X176895721Y-107938870D01*
X176877052Y-108058772D01*
X176892786Y-108179092D01*
X176941657Y-108290160D01*
X176980352Y-108336194D01*
X176980701Y-108338163D01*
X176979170Y-108339450D01*
X176977603Y-108339068D01*
X176917110Y-108292649D01*
X176841192Y-108282654D01*
X176770319Y-108312010D01*
X176749450Y-108332879D01*
X176747518Y-108333397D01*
X176746104Y-108331983D01*
X176746553Y-108330123D01*
X176770811Y-108303323D01*
X176823720Y-108194119D01*
X176843874Y-108074329D01*
X176843998Y-108064131D01*
X176826777Y-107943881D01*
X176776552Y-107833417D01*
X176740812Y-107791939D01*
X176740439Y-107789974D01*
X176741954Y-107788668D01*
X176743545Y-107789046D01*
G37*
G36*
X174965545Y-107789046D02*
G01*
X175025890Y-107835351D01*
X175101808Y-107845346D01*
X175172681Y-107815990D01*
X175196608Y-107792063D01*
X175198540Y-107791545D01*
X175199954Y-107792959D01*
X175199521Y-107794801D01*
X175169291Y-107829030D01*
X175117721Y-107938870D01*
X175099052Y-108058772D01*
X175114786Y-108179092D01*
X175163657Y-108290160D01*
X175202352Y-108336194D01*
X175202701Y-108338163D01*
X175201170Y-108339450D01*
X175199603Y-108339068D01*
X175139110Y-108292649D01*
X175063192Y-108282654D01*
X174992319Y-108312010D01*
X174971450Y-108332879D01*
X174969518Y-108333397D01*
X174968104Y-108331983D01*
X174968553Y-108330123D01*
X174992811Y-108303323D01*
X175045720Y-108194119D01*
X175065874Y-108074329D01*
X175065998Y-108064131D01*
X175048777Y-107943881D01*
X174998552Y-107833417D01*
X174962812Y-107791939D01*
X174962439Y-107789974D01*
X174963954Y-107788668D01*
X174965545Y-107789046D01*
G37*
G36*
X175854545Y-107789046D02*
G01*
X175914890Y-107835351D01*
X175990808Y-107845346D01*
X176061681Y-107815990D01*
X176085608Y-107792063D01*
X176087540Y-107791545D01*
X176088954Y-107792959D01*
X176088521Y-107794801D01*
X176058291Y-107829030D01*
X176006721Y-107938870D01*
X175988052Y-108058772D01*
X176003786Y-108179092D01*
X176052657Y-108290160D01*
X176091352Y-108336194D01*
X176091701Y-108338163D01*
X176090170Y-108339450D01*
X176088603Y-108339068D01*
X176028110Y-108292649D01*
X175952192Y-108282654D01*
X175881319Y-108312010D01*
X175860450Y-108332879D01*
X175858518Y-108333397D01*
X175857104Y-108331983D01*
X175857553Y-108330123D01*
X175881811Y-108303323D01*
X175934720Y-108194119D01*
X175954874Y-108074329D01*
X175954998Y-108064131D01*
X175937777Y-107943881D01*
X175887552Y-107833417D01*
X175851812Y-107791939D01*
X175851439Y-107789974D01*
X175852954Y-107788668D01*
X175854545Y-107789046D01*
G37*
G36*
X170425414Y-105159431D02*
G01*
X170505572Y-105184474D01*
X170609712Y-105186383D01*
X170611425Y-105187415D01*
X170611388Y-105189415D01*
X170610440Y-105190231D01*
X170547602Y-105216259D01*
X170500987Y-105277010D01*
X170491299Y-105350592D01*
X170490081Y-105352179D01*
X170488098Y-105351918D01*
X170487336Y-105350615D01*
X170476777Y-105276881D01*
X170426551Y-105166415D01*
X170423303Y-105162645D01*
X170422930Y-105160681D01*
X170424445Y-105159375D01*
X170425414Y-105159431D01*
G37*
G36*
X170151971Y-104806557D02*
G01*
X170152736Y-104807885D01*
X170161786Y-104877092D01*
X170210657Y-104988160D01*
X170217475Y-104996271D01*
X170217824Y-104998240D01*
X170216293Y-104999527D01*
X170215371Y-104999474D01*
X170129260Y-104973721D01*
X170029125Y-104973109D01*
X170027399Y-104972098D01*
X170027411Y-104970098D01*
X170028372Y-104969261D01*
X170092398Y-104942741D01*
X170139013Y-104881990D01*
X170148770Y-104807883D01*
X170149988Y-104806296D01*
X170151971Y-104806557D01*
G37*
G36*
X148986780Y-104319349D02*
G01*
X149001658Y-104353162D01*
X149079738Y-104446049D01*
X149180750Y-104513289D01*
X149270211Y-104541238D01*
X149271566Y-104542709D01*
X149270970Y-104544618D01*
X149269354Y-104545130D01*
X149253781Y-104543080D01*
X149253277Y-104542945D01*
X149245627Y-104539777D01*
X149169438Y-104529745D01*
X149098694Y-104559046D01*
X149052078Y-104619797D01*
X149042078Y-104695743D01*
X149062166Y-104748076D01*
X149061853Y-104750052D01*
X149059986Y-104750768D01*
X149058712Y-104750011D01*
X148976340Y-104642660D01*
X148866990Y-104558753D01*
X148770143Y-104518638D01*
X148768925Y-104517051D01*
X148769690Y-104515203D01*
X148771395Y-104514850D01*
X148808695Y-104524219D01*
X148809338Y-104521660D01*
X148810730Y-104520224D01*
X148811725Y-104520198D01*
X148853597Y-104529792D01*
X148926789Y-104507284D01*
X148978921Y-104451195D01*
X148996043Y-104376471D01*
X148984859Y-104325164D01*
X148983101Y-104320921D01*
X148983362Y-104318938D01*
X148985210Y-104318172D01*
X148986780Y-104319349D01*
G37*
G36*
X170933414Y-104524431D02*
G01*
X171013572Y-104549474D01*
X171117712Y-104551383D01*
X171119425Y-104552415D01*
X171119388Y-104554415D01*
X171118440Y-104555231D01*
X171055602Y-104581259D01*
X171008987Y-104642010D01*
X170999299Y-104715592D01*
X170998081Y-104717179D01*
X170996098Y-104716918D01*
X170995336Y-104715615D01*
X170984777Y-104641881D01*
X170934551Y-104531415D01*
X170931303Y-104527645D01*
X170930930Y-104525681D01*
X170932445Y-104524375D01*
X170933414Y-104524431D01*
G37*
G36*
X170659971Y-104171557D02*
G01*
X170660736Y-104172885D01*
X170669786Y-104242092D01*
X170718657Y-104353160D01*
X170725475Y-104361271D01*
X170725824Y-104363240D01*
X170724293Y-104364527D01*
X170723371Y-104364474D01*
X170637260Y-104338721D01*
X170537125Y-104338109D01*
X170535399Y-104337098D01*
X170535411Y-104335098D01*
X170536372Y-104334261D01*
X170600398Y-104307741D01*
X170647013Y-104246990D01*
X170656770Y-104172883D01*
X170657988Y-104171296D01*
X170659971Y-104171557D01*
G37*
G36*
X171296039Y-103540203D02*
G01*
X171304786Y-103607092D01*
X171353657Y-103718160D01*
X171431738Y-103811049D01*
X171532750Y-103878289D01*
X171648572Y-103914474D01*
X171660055Y-103914685D01*
X171661768Y-103915717D01*
X171661731Y-103917717D01*
X171660279Y-103918668D01*
X171597051Y-103926992D01*
X171536300Y-103973607D01*
X171506944Y-104044479D01*
X171506944Y-104077731D01*
X171505944Y-104079463D01*
X171503944Y-104079463D01*
X171502964Y-104078015D01*
X171492777Y-104006881D01*
X171442552Y-103896417D01*
X171363342Y-103804490D01*
X171261517Y-103738490D01*
X171145260Y-103703721D01*
X171143562Y-103703711D01*
X171141836Y-103702701D01*
X171141848Y-103700701D01*
X171143313Y-103699728D01*
X171201949Y-103692008D01*
X171262700Y-103645393D01*
X171292056Y-103574521D01*
X171292056Y-103540462D01*
X171293056Y-103538730D01*
X171295056Y-103538730D01*
X171296039Y-103540203D01*
G37*
G36*
X154287432Y-102361551D02*
G01*
X154287821Y-102363076D01*
X154271052Y-102470772D01*
X154286786Y-102591092D01*
X154335657Y-102702160D01*
X154413738Y-102795049D01*
X154440445Y-102812827D01*
X154441333Y-102814619D01*
X154440225Y-102816284D01*
X154438572Y-102816340D01*
X154372968Y-102789165D01*
X154297050Y-102799160D01*
X154236294Y-102845779D01*
X154207363Y-102914603D01*
X154205770Y-102915812D01*
X154203926Y-102915037D01*
X154203536Y-102913567D01*
X154210983Y-102857000D01*
X154192992Y-102720348D01*
X154140247Y-102593010D01*
X154056339Y-102483658D01*
X154043762Y-102474008D01*
X154042996Y-102472160D01*
X154044214Y-102470573D01*
X154045878Y-102470634D01*
X154104874Y-102500305D01*
X154181321Y-102495898D01*
X154245321Y-102453858D01*
X154279832Y-102385238D01*
X154281610Y-102374731D01*
X154282920Y-102364780D01*
X154283055Y-102364275D01*
X154283997Y-102362002D01*
X154285584Y-102360785D01*
X154287432Y-102361551D01*
G37*
G36*
X156865849Y-102683054D02*
G01*
X156865437Y-102684326D01*
X156827900Y-102733246D01*
X156817905Y-102809164D01*
X156847262Y-102880037D01*
X156864477Y-102897252D01*
X156864995Y-102899184D01*
X156863581Y-102900598D01*
X156861975Y-102900344D01*
X156783517Y-102849490D01*
X156667260Y-102814721D01*
X156545916Y-102813980D01*
X156429241Y-102847326D01*
X156334597Y-102907043D01*
X156332599Y-102907122D01*
X156331532Y-102905431D01*
X156331943Y-102904134D01*
X156370600Y-102853754D01*
X156380595Y-102777836D01*
X156351238Y-102706963D01*
X156332699Y-102688424D01*
X156332181Y-102686492D01*
X156333595Y-102685078D01*
X156335221Y-102685345D01*
X156410250Y-102735289D01*
X156526072Y-102771474D01*
X156647399Y-102773698D01*
X156764475Y-102741779D01*
X156862804Y-102681404D01*
X156864803Y-102681350D01*
X156865849Y-102683054D01*
G37*
G36*
X154436416Y-101921145D02*
G01*
X154514750Y-101973289D01*
X154630572Y-102009474D01*
X154751899Y-102011698D01*
X154868975Y-101979779D01*
X154963611Y-101921672D01*
X154965610Y-101921618D01*
X154966656Y-101923322D01*
X154966244Y-101924594D01*
X154927650Y-101974892D01*
X154917655Y-102050810D01*
X154947012Y-102121682D01*
X154962618Y-102137288D01*
X154963136Y-102139220D01*
X154961722Y-102140634D01*
X154960116Y-102140380D01*
X154878517Y-102087490D01*
X154762260Y-102052721D01*
X154640916Y-102051980D01*
X154524241Y-102085326D01*
X154433383Y-102142654D01*
X154431385Y-102142733D01*
X154430318Y-102141042D01*
X154430729Y-102139746D01*
X154470350Y-102088109D01*
X154480345Y-102012190D01*
X154450988Y-101941318D01*
X154433894Y-101924224D01*
X154433376Y-101922292D01*
X154434790Y-101920878D01*
X154436416Y-101921145D01*
G37*
G36*
X152137962Y-100963219D02*
G01*
X152176657Y-101051160D01*
X152254738Y-101144049D01*
X152355750Y-101211289D01*
X152471572Y-101247474D01*
X152559886Y-101249093D01*
X152561599Y-101250125D01*
X152561562Y-101252125D01*
X152560110Y-101253076D01*
X152557953Y-101253360D01*
X152486957Y-101282767D01*
X152440342Y-101343518D01*
X152430329Y-101419572D01*
X152437069Y-101444728D01*
X152436551Y-101446660D01*
X152434619Y-101447178D01*
X152433316Y-101446074D01*
X152392552Y-101356417D01*
X152313342Y-101264490D01*
X152211517Y-101198490D01*
X152095260Y-101163721D01*
X152009918Y-101163200D01*
X152008192Y-101162189D01*
X152008204Y-101160189D01*
X152009669Y-101159217D01*
X152014047Y-101158640D01*
X152085043Y-101129233D01*
X152131658Y-101068482D01*
X152141671Y-100992428D01*
X152134199Y-100964542D01*
X152134717Y-100962610D01*
X152136649Y-100962092D01*
X152137962Y-100963219D01*
G37*
G36*
X154436416Y-101032145D02*
G01*
X154514750Y-101084289D01*
X154630572Y-101120474D01*
X154751899Y-101122698D01*
X154868975Y-101090779D01*
X154963611Y-101032672D01*
X154965610Y-101032618D01*
X154966656Y-101034322D01*
X154966244Y-101035594D01*
X154927650Y-101085892D01*
X154917655Y-101161810D01*
X154947012Y-101232682D01*
X154962618Y-101248288D01*
X154963136Y-101250220D01*
X154961722Y-101251634D01*
X154960116Y-101251380D01*
X154878517Y-101198490D01*
X154762260Y-101163721D01*
X154640916Y-101162980D01*
X154524241Y-101196326D01*
X154433383Y-101253654D01*
X154431385Y-101253733D01*
X154430318Y-101252042D01*
X154430729Y-101250746D01*
X154470350Y-101199109D01*
X154480345Y-101123190D01*
X154450988Y-101052318D01*
X154433894Y-101035224D01*
X154433376Y-101033292D01*
X154434790Y-101031878D01*
X154436416Y-101032145D01*
G37*
G36*
X152692197Y-100171130D02*
G01*
X152762738Y-100255049D01*
X152863750Y-100322289D01*
X152979572Y-100358474D01*
X153067881Y-100360093D01*
X153069594Y-100361125D01*
X153069557Y-100363125D01*
X153068105Y-100364076D01*
X153048262Y-100366688D01*
X153047740Y-100366688D01*
X153045014Y-100366329D01*
X152968826Y-100376360D01*
X152908074Y-100422975D01*
X152878771Y-100493718D01*
X152888784Y-100569774D01*
X152897377Y-100584658D01*
X152897377Y-100586658D01*
X152895645Y-100587658D01*
X152894130Y-100586964D01*
X152821342Y-100502490D01*
X152719517Y-100436490D01*
X152603260Y-100401721D01*
X152517923Y-100401200D01*
X152516197Y-100400189D01*
X152516209Y-100398189D01*
X152517674Y-100397217D01*
X152539738Y-100394312D01*
X152540260Y-100394312D01*
X152542986Y-100394671D01*
X152619174Y-100384640D01*
X152679926Y-100338025D01*
X152709229Y-100267282D01*
X152699216Y-100191226D01*
X152688934Y-100173417D01*
X152688934Y-100171417D01*
X152690666Y-100170417D01*
X152692197Y-100171130D01*
G37*
G36*
X154436416Y-100143145D02*
G01*
X154514750Y-100195289D01*
X154630572Y-100231474D01*
X154751899Y-100233698D01*
X154868975Y-100201779D01*
X154963611Y-100143672D01*
X154965610Y-100143618D01*
X154966656Y-100145322D01*
X154966244Y-100146594D01*
X154927650Y-100196892D01*
X154917655Y-100272810D01*
X154947012Y-100343682D01*
X154962618Y-100359288D01*
X154963136Y-100361220D01*
X154961722Y-100362634D01*
X154960116Y-100362380D01*
X154878517Y-100309490D01*
X154762260Y-100274721D01*
X154640916Y-100273980D01*
X154524241Y-100307326D01*
X154433383Y-100364654D01*
X154431385Y-100364733D01*
X154430318Y-100363042D01*
X154430729Y-100361746D01*
X154470350Y-100310109D01*
X154480345Y-100234190D01*
X154450988Y-100163318D01*
X154433894Y-100146224D01*
X154433376Y-100144292D01*
X154434790Y-100142878D01*
X154436416Y-100143145D01*
G37*
G36*
X153153962Y-99312219D02*
G01*
X153192657Y-99400160D01*
X153270738Y-99493049D01*
X153371750Y-99560289D01*
X153487572Y-99596474D01*
X153575886Y-99598093D01*
X153577599Y-99599125D01*
X153577562Y-99601125D01*
X153576110Y-99602076D01*
X153573953Y-99602360D01*
X153502957Y-99631767D01*
X153456342Y-99692518D01*
X153446329Y-99768572D01*
X153453069Y-99793728D01*
X153452551Y-99795660D01*
X153450619Y-99796178D01*
X153449316Y-99795074D01*
X153408552Y-99705417D01*
X153329342Y-99613490D01*
X153227517Y-99547490D01*
X153111260Y-99512721D01*
X153025918Y-99512200D01*
X153024192Y-99511189D01*
X153024204Y-99509189D01*
X153025669Y-99508217D01*
X153030047Y-99507640D01*
X153101043Y-99478233D01*
X153147658Y-99417482D01*
X153157671Y-99341428D01*
X153150199Y-99313542D01*
X153150717Y-99311610D01*
X153152649Y-99311092D01*
X153153962Y-99312219D01*
G37*
G36*
X146041962Y-95756219D02*
G01*
X146080657Y-95844160D01*
X146158738Y-95937049D01*
X146259750Y-96004289D01*
X146375572Y-96040474D01*
X146463886Y-96042093D01*
X146465599Y-96043125D01*
X146465562Y-96045125D01*
X146464110Y-96046076D01*
X146461953Y-96046360D01*
X146390957Y-96075767D01*
X146344342Y-96136518D01*
X146334329Y-96212572D01*
X146341069Y-96237728D01*
X146340551Y-96239660D01*
X146338619Y-96240178D01*
X146337316Y-96239074D01*
X146296552Y-96149417D01*
X146217342Y-96057490D01*
X146115517Y-95991490D01*
X145999260Y-95956721D01*
X145913918Y-95956200D01*
X145912192Y-95955189D01*
X145912204Y-95953189D01*
X145913669Y-95952217D01*
X145918047Y-95951640D01*
X145989043Y-95922233D01*
X146035658Y-95861482D01*
X146045671Y-95785428D01*
X146038199Y-95757542D01*
X146038717Y-95755610D01*
X146040649Y-95755092D01*
X146041962Y-95756219D01*
G37*
G36*
X157189105Y-95348629D02*
G01*
X157238624Y-95390922D01*
X157313918Y-95404877D01*
X157386180Y-95379287D01*
X157413198Y-95352549D01*
X157415133Y-95352042D01*
X157416540Y-95353463D01*
X157416453Y-95354736D01*
X157364008Y-95481348D01*
X157346017Y-95618000D01*
X157364008Y-95754652D01*
X157416754Y-95881992D01*
X157419170Y-95885141D01*
X157419431Y-95887124D01*
X157417844Y-95888341D01*
X157416268Y-95887865D01*
X157368153Y-95845891D01*
X157293011Y-95831148D01*
X157220483Y-95855980D01*
X157191563Y-95884005D01*
X157189623Y-95884492D01*
X157188231Y-95883056D01*
X157188323Y-95881804D01*
X157240992Y-95754652D01*
X157258983Y-95618000D01*
X157240992Y-95481348D01*
X157188247Y-95354010D01*
X157186219Y-95351368D01*
X157185958Y-95349385D01*
X157187545Y-95348167D01*
X157189105Y-95348629D01*
G37*
G36*
X146549962Y-94994219D02*
G01*
X146588657Y-95082160D01*
X146666738Y-95175049D01*
X146767750Y-95242289D01*
X146883572Y-95278474D01*
X146971886Y-95280093D01*
X146973599Y-95281125D01*
X146973562Y-95283125D01*
X146972110Y-95284076D01*
X146969953Y-95284360D01*
X146898957Y-95313767D01*
X146852342Y-95374518D01*
X146842329Y-95450572D01*
X146849069Y-95475728D01*
X146848551Y-95477660D01*
X146846619Y-95478178D01*
X146845316Y-95477074D01*
X146804552Y-95387417D01*
X146725342Y-95295490D01*
X146623517Y-95229490D01*
X146507260Y-95194721D01*
X146421918Y-95194200D01*
X146420192Y-95193189D01*
X146420204Y-95191189D01*
X146421669Y-95190217D01*
X146426047Y-95189640D01*
X146497043Y-95160233D01*
X146543658Y-95099482D01*
X146553671Y-95023428D01*
X146546199Y-94995542D01*
X146546717Y-94993610D01*
X146548649Y-94993092D01*
X146549962Y-94994219D01*
G37*
G36*
X157057857Y-94887790D02*
G01*
X157057173Y-94889572D01*
X157012583Y-94927656D01*
X157012886Y-94929296D01*
X157012331Y-94930121D01*
X156972048Y-94966011D01*
X156948003Y-95038713D01*
X156963530Y-95113695D01*
X157013997Y-95170341D01*
X157014287Y-95171742D01*
X157016018Y-95171864D01*
X157026474Y-95178047D01*
X157033788Y-95181920D01*
X157034182Y-95182195D01*
X157063266Y-95208108D01*
X157063894Y-95210007D01*
X157062564Y-95211500D01*
X157060718Y-95211188D01*
X157013782Y-95175173D01*
X157013080Y-95173477D01*
X157012910Y-95173629D01*
X157011286Y-95173258D01*
X156994990Y-95160753D01*
X156867652Y-95108008D01*
X156731000Y-95090017D01*
X156594348Y-95108008D01*
X156467010Y-95160753D01*
X156404177Y-95208966D01*
X156402194Y-95209227D01*
X156400976Y-95207640D01*
X156401644Y-95205872D01*
X156432399Y-95179043D01*
X156432797Y-95178773D01*
X156435269Y-95177497D01*
X156492106Y-95125777D01*
X156515386Y-95052829D01*
X156499071Y-94978012D01*
X156450333Y-94924452D01*
X156449907Y-94922498D01*
X156451386Y-94921152D01*
X156453030Y-94921519D01*
X156467010Y-94932247D01*
X156594348Y-94984992D01*
X156731000Y-95002983D01*
X156867652Y-94984992D01*
X156994990Y-94932247D01*
X157054656Y-94886464D01*
X157056639Y-94886203D01*
X157057857Y-94887790D01*
G37*
G36*
X158200857Y-94887790D02*
G01*
X158200173Y-94889572D01*
X158155583Y-94927656D01*
X158155886Y-94929296D01*
X158155331Y-94930121D01*
X158115048Y-94966011D01*
X158091003Y-95038713D01*
X158106530Y-95113695D01*
X158156997Y-95170341D01*
X158157287Y-95171742D01*
X158159018Y-95171864D01*
X158169474Y-95178047D01*
X158176788Y-95181920D01*
X158177182Y-95182195D01*
X158206266Y-95208108D01*
X158206894Y-95210007D01*
X158205564Y-95211500D01*
X158203718Y-95211188D01*
X158156782Y-95175173D01*
X158156080Y-95173477D01*
X158155910Y-95173629D01*
X158154286Y-95173258D01*
X158137990Y-95160753D01*
X158010652Y-95108008D01*
X157874000Y-95090017D01*
X157737348Y-95108008D01*
X157610010Y-95160753D01*
X157547175Y-95208968D01*
X157545192Y-95209229D01*
X157543974Y-95207642D01*
X157544642Y-95205874D01*
X157575399Y-95179043D01*
X157575797Y-95178773D01*
X157578269Y-95177497D01*
X157635106Y-95125777D01*
X157658386Y-95052829D01*
X157642071Y-94978012D01*
X157593333Y-94924452D01*
X157592907Y-94922498D01*
X157594386Y-94921152D01*
X157596030Y-94921519D01*
X157610010Y-94932247D01*
X157737348Y-94984992D01*
X157874000Y-95002983D01*
X158010652Y-94984992D01*
X158137990Y-94932247D01*
X158197656Y-94886464D01*
X158199639Y-94886203D01*
X158200857Y-94887790D01*
G37*
G36*
X157189105Y-94205629D02*
G01*
X157238624Y-94247922D01*
X157313918Y-94261877D01*
X157386180Y-94236287D01*
X157413198Y-94209549D01*
X157415133Y-94209042D01*
X157416540Y-94210463D01*
X157416453Y-94211736D01*
X157364008Y-94338348D01*
X157346017Y-94475000D01*
X157364008Y-94611652D01*
X157416754Y-94738992D01*
X157419170Y-94742141D01*
X157419431Y-94744124D01*
X157417844Y-94745341D01*
X157416268Y-94744865D01*
X157368153Y-94702891D01*
X157293011Y-94688148D01*
X157220483Y-94712980D01*
X157191563Y-94741005D01*
X157189623Y-94741492D01*
X157188231Y-94740056D01*
X157188323Y-94738804D01*
X157240992Y-94611652D01*
X157258983Y-94475000D01*
X157240992Y-94338348D01*
X157188247Y-94211010D01*
X157186219Y-94208368D01*
X157185958Y-94206385D01*
X157187545Y-94205167D01*
X157189105Y-94205629D01*
G37*
G36*
X147243035Y-94216213D02*
G01*
X147301738Y-94286049D01*
X147402750Y-94353289D01*
X147492213Y-94381239D01*
X147493568Y-94382710D01*
X147492972Y-94384619D01*
X147491356Y-94385131D01*
X147456371Y-94380525D01*
X147456197Y-94380548D01*
X147399495Y-94373082D01*
X147328750Y-94402383D01*
X147282134Y-94463134D01*
X147272138Y-94539051D01*
X147298849Y-94603540D01*
X147298588Y-94605523D01*
X147296740Y-94606288D01*
X147295486Y-94605611D01*
X147233342Y-94533490D01*
X147131517Y-94467490D01*
X147044488Y-94441462D01*
X147043115Y-94440008D01*
X147043688Y-94438092D01*
X147045322Y-94437563D01*
X147082629Y-94442475D01*
X147082803Y-94442452D01*
X147139505Y-94449918D01*
X147210250Y-94420617D01*
X147256866Y-94359866D01*
X147266862Y-94283949D01*
X147239656Y-94218265D01*
X147239917Y-94216282D01*
X147241765Y-94215517D01*
X147243035Y-94216213D01*
G37*
G36*
X157462925Y-89825822D02*
G01*
X157463487Y-89827544D01*
X157452552Y-89897772D01*
X157468286Y-90018092D01*
X157517157Y-90129160D01*
X157542146Y-90158888D01*
X157542495Y-90160857D01*
X157540964Y-90162144D01*
X157539397Y-90161762D01*
X157481806Y-90117571D01*
X157405888Y-90107576D01*
X157335144Y-90136879D01*
X157288445Y-90197740D01*
X157278661Y-90234253D01*
X157277292Y-90235622D01*
X157277423Y-90235644D01*
X157278132Y-90237447D01*
X157274080Y-90268219D01*
X157273945Y-90268723D01*
X157272049Y-90273300D01*
X157270462Y-90274518D01*
X157268614Y-90273752D01*
X157268229Y-90272203D01*
X157274177Y-90236854D01*
X157275450Y-90235312D01*
X157276720Y-90235526D01*
X157275315Y-90235149D01*
X157274757Y-90233403D01*
X157285874Y-90167329D01*
X157285998Y-90157131D01*
X157268777Y-90036881D01*
X157218552Y-89926417D01*
X157197534Y-89902024D01*
X157197161Y-89900059D01*
X157198676Y-89898753D01*
X157200267Y-89899131D01*
X157256694Y-89942429D01*
X157332612Y-89952424D01*
X157403356Y-89923121D01*
X157450055Y-89862260D01*
X157459579Y-89826718D01*
X157460993Y-89825304D01*
X157462925Y-89825822D01*
G37*
G36*
X156801856Y-89538941D02*
G01*
X156802184Y-89540325D01*
X156793391Y-89607114D01*
X156822694Y-89677857D01*
X156883556Y-89724556D01*
X156902649Y-89729672D01*
X156904063Y-89731086D01*
X156903545Y-89733018D01*
X156902119Y-89733604D01*
X156799916Y-89732980D01*
X156683241Y-89766326D01*
X156580619Y-89831076D01*
X156500291Y-89922030D01*
X156456886Y-90014479D01*
X156455245Y-90015622D01*
X156453435Y-90014772D01*
X156453093Y-90013368D01*
X156462109Y-89944886D01*
X156432806Y-89874143D01*
X156371944Y-89827444D01*
X156350946Y-89821817D01*
X156349532Y-89820403D01*
X156350050Y-89818471D01*
X156351501Y-89817885D01*
X156450399Y-89819698D01*
X156567475Y-89787779D01*
X156670878Y-89724289D01*
X156752311Y-89634323D01*
X156798401Y-89539192D01*
X156800056Y-89538069D01*
X156801856Y-89538941D01*
G37*
G36*
X159148524Y-87920811D02*
G01*
X159148717Y-87922699D01*
X159147082Y-87926647D01*
X159137051Y-88002836D01*
X159166353Y-88073580D01*
X159227104Y-88120196D01*
X159303158Y-88130209D01*
X159331260Y-88122679D01*
X159333192Y-88123197D01*
X159333710Y-88125129D01*
X159332845Y-88126302D01*
X159247619Y-88180076D01*
X159167291Y-88271030D01*
X159143008Y-88322750D01*
X159141367Y-88323893D01*
X159139557Y-88323043D01*
X159139350Y-88321134D01*
X159140918Y-88317350D01*
X159150948Y-88241163D01*
X159121645Y-88170419D01*
X159060894Y-88123804D01*
X158984840Y-88113791D01*
X158955186Y-88121737D01*
X158953254Y-88121219D01*
X158952736Y-88119287D01*
X158953622Y-88118101D01*
X159036378Y-88067289D01*
X159117811Y-87977323D01*
X159145069Y-87921062D01*
X159146724Y-87919939D01*
X159148524Y-87920811D01*
G37*
G36*
X148812069Y-85862731D02*
G01*
X148880510Y-85915247D01*
X149007848Y-85967992D01*
X149144500Y-85985983D01*
X149281152Y-85967992D01*
X149408490Y-85915247D01*
X149419069Y-85907129D01*
X149421052Y-85906868D01*
X149422270Y-85908455D01*
X149421617Y-85910209D01*
X149368366Y-85957655D01*
X149344323Y-86030357D01*
X149359851Y-86105339D01*
X149401681Y-86152288D01*
X149402087Y-86154246D01*
X149402022Y-86154359D01*
X149409240Y-86160791D01*
X149409402Y-86160953D01*
X149410939Y-86162678D01*
X149412020Y-86163317D01*
X149412332Y-86163546D01*
X149443270Y-86191111D01*
X149443898Y-86193010D01*
X149442568Y-86194503D01*
X149440722Y-86194191D01*
X149374990Y-86143753D01*
X149247652Y-86091008D01*
X149111000Y-86073017D01*
X148974348Y-86091008D01*
X148846765Y-86143855D01*
X148846696Y-86143687D01*
X148845206Y-86143898D01*
X148843974Y-86142323D01*
X148844608Y-86140564D01*
X148889279Y-86099915D01*
X148912560Y-86026967D01*
X148896246Y-85952150D01*
X148844553Y-85895341D01*
X148837360Y-85891086D01*
X148837032Y-85890844D01*
X148809505Y-85865797D01*
X148808897Y-85863892D01*
X148810243Y-85862413D01*
X148812069Y-85862731D01*
G37*
G36*
X146052059Y-83206785D02*
G01*
X146054858Y-83210433D01*
X146055119Y-83210885D01*
X146062504Y-83228713D01*
X146109287Y-83289680D01*
X146180031Y-83318982D01*
X146255949Y-83308986D01*
X146316800Y-83262292D01*
X146336056Y-83228120D01*
X146337777Y-83227102D01*
X146339520Y-83228084D01*
X146339646Y-83229867D01*
X146315008Y-83289348D01*
X146297017Y-83426000D01*
X146315008Y-83562652D01*
X146360697Y-83672953D01*
X146360436Y-83674936D01*
X146358588Y-83675701D01*
X146357189Y-83674834D01*
X146352080Y-83667232D01*
X146351862Y-83666803D01*
X146338222Y-83629529D01*
X146294034Y-83566657D01*
X146224579Y-83534417D01*
X146148308Y-83541224D01*
X146085566Y-83585321D01*
X146062354Y-83623648D01*
X146055118Y-83641117D01*
X146054857Y-83641570D01*
X146049056Y-83649130D01*
X146047208Y-83649895D01*
X146045621Y-83648677D01*
X146045669Y-83647040D01*
X146089720Y-83556119D01*
X146109874Y-83436329D01*
X146109998Y-83426131D01*
X146092777Y-83305881D01*
X146048651Y-83208830D01*
X146048845Y-83206839D01*
X146050665Y-83206011D01*
X146052059Y-83206785D01*
G37*
G36*
X146009545Y-81627046D02*
G01*
X146069890Y-81673351D01*
X146145808Y-81683346D01*
X146216681Y-81653990D01*
X146240608Y-81630063D01*
X146242540Y-81629545D01*
X146243954Y-81630959D01*
X146243521Y-81632801D01*
X146213291Y-81667030D01*
X146161721Y-81776870D01*
X146143052Y-81896772D01*
X146158786Y-82017092D01*
X146207657Y-82128160D01*
X146246352Y-82174194D01*
X146246701Y-82176163D01*
X146245170Y-82177450D01*
X146243603Y-82177068D01*
X146183110Y-82130649D01*
X146107192Y-82120654D01*
X146036319Y-82150010D01*
X146015450Y-82170879D01*
X146013518Y-82171397D01*
X146012104Y-82169983D01*
X146012553Y-82168123D01*
X146036811Y-82141323D01*
X146089720Y-82032119D01*
X146109874Y-81912329D01*
X146109998Y-81902129D01*
X146092777Y-81781881D01*
X146042552Y-81671417D01*
X146006812Y-81629939D01*
X146006439Y-81627974D01*
X146007954Y-81626668D01*
X146009545Y-81627046D01*
G37*
G36*
X120131187Y-79888470D02*
G01*
X120131448Y-79888923D01*
X120180353Y-80006990D01*
X120249511Y-80097119D01*
X120249772Y-80099102D01*
X120248185Y-80100320D01*
X120246578Y-80099816D01*
X120229150Y-80083958D01*
X120160866Y-80048713D01*
X120084376Y-80052321D01*
X120019759Y-80093803D01*
X120013873Y-80101073D01*
X120013618Y-80101335D01*
X120007303Y-80106728D01*
X120005336Y-80107092D01*
X120004037Y-80105571D01*
X120004417Y-80103989D01*
X120078847Y-80006990D01*
X120127752Y-79888923D01*
X120129339Y-79887705D01*
X120131187Y-79888470D01*
G37*
G36*
X120253405Y-79382693D02*
G01*
X120253029Y-79384296D01*
X120180353Y-79479010D01*
X120131448Y-79597077D01*
X120129861Y-79598295D01*
X120128013Y-79597530D01*
X120127752Y-79597077D01*
X120078847Y-79479010D01*
X120007926Y-79386584D01*
X120007665Y-79384601D01*
X120009252Y-79383383D01*
X120010843Y-79383873D01*
X120031085Y-79401908D01*
X120099740Y-79436437D01*
X120176186Y-79432030D01*
X120228371Y-79397751D01*
X120230368Y-79397636D01*
X120230976Y-79398108D01*
X120231060Y-79398204D01*
X120250127Y-79381571D01*
X120252090Y-79381186D01*
X120253405Y-79382693D01*
G37*
G36*
X160405416Y-79061145D02*
G01*
X160483750Y-79113289D01*
X160599572Y-79149474D01*
X160720899Y-79151698D01*
X160837975Y-79119779D01*
X160932611Y-79061672D01*
X160934610Y-79061618D01*
X160935656Y-79063322D01*
X160935244Y-79064594D01*
X160896650Y-79114892D01*
X160886655Y-79190810D01*
X160916012Y-79261682D01*
X160931618Y-79277288D01*
X160932136Y-79279220D01*
X160930722Y-79280634D01*
X160929116Y-79280380D01*
X160847517Y-79227490D01*
X160731260Y-79192721D01*
X160609916Y-79191980D01*
X160493241Y-79225326D01*
X160402383Y-79282654D01*
X160400385Y-79282733D01*
X160399318Y-79281042D01*
X160399729Y-79279746D01*
X160439350Y-79228109D01*
X160449345Y-79152190D01*
X160419988Y-79081318D01*
X160402894Y-79064224D01*
X160402376Y-79062292D01*
X160403790Y-79060878D01*
X160405416Y-79061145D01*
G37*
G36*
X120500948Y-78982992D02*
G01*
X120637600Y-79000983D01*
X120774252Y-78982992D01*
X120850799Y-78951285D01*
X120852782Y-78951546D01*
X120853547Y-78953394D01*
X120852463Y-78954920D01*
X120812263Y-78975138D01*
X120754890Y-79026256D01*
X120730846Y-79098958D01*
X120746374Y-79173940D01*
X120797378Y-79231187D01*
X120812479Y-79237814D01*
X120813663Y-79239425D01*
X120813594Y-79239786D01*
X120858686Y-79263661D01*
X120859749Y-79265356D01*
X120858813Y-79267123D01*
X120856985Y-79267277D01*
X120774252Y-79233008D01*
X120637600Y-79215017D01*
X120500948Y-79233008D01*
X120421244Y-79266023D01*
X120419261Y-79265762D01*
X120418496Y-79263914D01*
X120419562Y-79262398D01*
X120464252Y-79239331D01*
X120521091Y-79187611D01*
X120544371Y-79114664D01*
X120528059Y-79039847D01*
X120476449Y-78983129D01*
X120456068Y-78974183D01*
X120455918Y-78974110D01*
X120413569Y-78951116D01*
X120412524Y-78949410D01*
X120413478Y-78947653D01*
X120415288Y-78947510D01*
X120500948Y-78982992D01*
G37*
G36*
X119484948Y-78982992D02*
G01*
X119621600Y-79000983D01*
X119758252Y-78982992D01*
X119834799Y-78951285D01*
X119836782Y-78951546D01*
X119837547Y-78953394D01*
X119836463Y-78954920D01*
X119796263Y-78975138D01*
X119738890Y-79026256D01*
X119714846Y-79098958D01*
X119730374Y-79173940D01*
X119781378Y-79231187D01*
X119796479Y-79237814D01*
X119797663Y-79239425D01*
X119797594Y-79239786D01*
X119842686Y-79263661D01*
X119843749Y-79265356D01*
X119842813Y-79267123D01*
X119840985Y-79267277D01*
X119758252Y-79233008D01*
X119621600Y-79215017D01*
X119484948Y-79233008D01*
X119405244Y-79266023D01*
X119403261Y-79265762D01*
X119402496Y-79263914D01*
X119403562Y-79262398D01*
X119448252Y-79239331D01*
X119505091Y-79187611D01*
X119528371Y-79114664D01*
X119512059Y-79039847D01*
X119460449Y-78983129D01*
X119440068Y-78974183D01*
X119439918Y-78974110D01*
X119397569Y-78951116D01*
X119396524Y-78949410D01*
X119397478Y-78947653D01*
X119399288Y-78947510D01*
X119484948Y-78982992D01*
G37*
G36*
X120131187Y-78618470D02*
G01*
X120131448Y-78618923D01*
X120180353Y-78736990D01*
X120249511Y-78827119D01*
X120249772Y-78829102D01*
X120248185Y-78830320D01*
X120246578Y-78829816D01*
X120229150Y-78813958D01*
X120160866Y-78778713D01*
X120084376Y-78782321D01*
X120019759Y-78823803D01*
X120013873Y-78831073D01*
X120013618Y-78831335D01*
X120007303Y-78836728D01*
X120005336Y-78837092D01*
X120004037Y-78835571D01*
X120004417Y-78833989D01*
X120078847Y-78736990D01*
X120127752Y-78618923D01*
X120129339Y-78617705D01*
X120131187Y-78618470D01*
G37*
G36*
X142635587Y-78618470D02*
G01*
X142635848Y-78618923D01*
X142684753Y-78736990D01*
X142753911Y-78827119D01*
X142754172Y-78829102D01*
X142752585Y-78830320D01*
X142750978Y-78829816D01*
X142733550Y-78813958D01*
X142665266Y-78778713D01*
X142588776Y-78782321D01*
X142524159Y-78823803D01*
X142518273Y-78831073D01*
X142518018Y-78831335D01*
X142511703Y-78836728D01*
X142509736Y-78837092D01*
X142508437Y-78835571D01*
X142508817Y-78833989D01*
X142583247Y-78736990D01*
X142632152Y-78618923D01*
X142633739Y-78617705D01*
X142635587Y-78618470D01*
G37*
G36*
X142757805Y-78112693D02*
G01*
X142757429Y-78114296D01*
X142684753Y-78209010D01*
X142635848Y-78327077D01*
X142634261Y-78328295D01*
X142632413Y-78327530D01*
X142632152Y-78327077D01*
X142583247Y-78209010D01*
X142512326Y-78116584D01*
X142512065Y-78114601D01*
X142513652Y-78113383D01*
X142515243Y-78113873D01*
X142535485Y-78131908D01*
X142604140Y-78166437D01*
X142680586Y-78162030D01*
X142732771Y-78127751D01*
X142734768Y-78127636D01*
X142735376Y-78128108D01*
X142735460Y-78128204D01*
X142754527Y-78111571D01*
X142756490Y-78111186D01*
X142757805Y-78112693D01*
G37*
G36*
X120253405Y-78112693D02*
G01*
X120253029Y-78114296D01*
X120180353Y-78209010D01*
X120131448Y-78327077D01*
X120129861Y-78328295D01*
X120128013Y-78327530D01*
X120127752Y-78327077D01*
X120078847Y-78209010D01*
X120007926Y-78116584D01*
X120007665Y-78114601D01*
X120009252Y-78113383D01*
X120010843Y-78113873D01*
X120031085Y-78131908D01*
X120099740Y-78166437D01*
X120176186Y-78162030D01*
X120228371Y-78127751D01*
X120230368Y-78127636D01*
X120230976Y-78128108D01*
X120231060Y-78128204D01*
X120250127Y-78111571D01*
X120252090Y-78111186D01*
X120253405Y-78112693D01*
G37*
G36*
X160405416Y-77410145D02*
G01*
X160483750Y-77462289D01*
X160599572Y-77498474D01*
X160720899Y-77500698D01*
X160837975Y-77468779D01*
X160932611Y-77410672D01*
X160934610Y-77410618D01*
X160935656Y-77412322D01*
X160935244Y-77413594D01*
X160896650Y-77463892D01*
X160886655Y-77539810D01*
X160916012Y-77610682D01*
X160931618Y-77626288D01*
X160932136Y-77628220D01*
X160930722Y-77629634D01*
X160929116Y-77629380D01*
X160847517Y-77576490D01*
X160731260Y-77541721D01*
X160609916Y-77540980D01*
X160493241Y-77574326D01*
X160402383Y-77631654D01*
X160400385Y-77631733D01*
X160399318Y-77630042D01*
X160399729Y-77628746D01*
X160439350Y-77577109D01*
X160449345Y-77501190D01*
X160419988Y-77430318D01*
X160402894Y-77413224D01*
X160402376Y-77411292D01*
X160403790Y-77409878D01*
X160405416Y-77410145D01*
G37*
G36*
X134169149Y-76969339D02*
G01*
X134242010Y-77025247D01*
X134360077Y-77074152D01*
X134361295Y-77075739D01*
X134360530Y-77077587D01*
X134360077Y-77077848D01*
X134242010Y-77126753D01*
X134163764Y-77186793D01*
X134161781Y-77187054D01*
X134160563Y-77185467D01*
X134160886Y-77184090D01*
X134201267Y-77123999D01*
X134206475Y-77047604D01*
X134172692Y-76978647D01*
X134166502Y-76972325D01*
X134166005Y-76970388D01*
X134167434Y-76968989D01*
X134169149Y-76969339D01*
G37*
G36*
X134852393Y-76965799D02*
G01*
X134852058Y-76967193D01*
X134811204Y-77026637D01*
X134805197Y-77102975D01*
X134838250Y-77172272D01*
X134845505Y-77179680D01*
X134846002Y-77181617D01*
X134844573Y-77183016D01*
X134842858Y-77182666D01*
X134769990Y-77126753D01*
X134651923Y-77077848D01*
X134650705Y-77076261D01*
X134651470Y-77074413D01*
X134651923Y-77074152D01*
X134769990Y-77025247D01*
X134849192Y-76964473D01*
X134851175Y-76964212D01*
X134852393Y-76965799D01*
G37*
G36*
X160405416Y-76521145D02*
G01*
X160483750Y-76573289D01*
X160599572Y-76609474D01*
X160720899Y-76611698D01*
X160837975Y-76579779D01*
X160932611Y-76521672D01*
X160934610Y-76521618D01*
X160935656Y-76523322D01*
X160935244Y-76524594D01*
X160896650Y-76574892D01*
X160886655Y-76650810D01*
X160916012Y-76721682D01*
X160931618Y-76737288D01*
X160932136Y-76739220D01*
X160930722Y-76740634D01*
X160929116Y-76740380D01*
X160847517Y-76687490D01*
X160731260Y-76652721D01*
X160609916Y-76651980D01*
X160493241Y-76685326D01*
X160402383Y-76742654D01*
X160400385Y-76742733D01*
X160399318Y-76741042D01*
X160399729Y-76739746D01*
X160439350Y-76688109D01*
X160449345Y-76612190D01*
X160419988Y-76541318D01*
X160402894Y-76524224D01*
X160402376Y-76522292D01*
X160403790Y-76520878D01*
X160405416Y-76521145D01*
G37*
G36*
X155026545Y-76166046D02*
G01*
X155086890Y-76212351D01*
X155162808Y-76222346D01*
X155233681Y-76192990D01*
X155257608Y-76169063D01*
X155259540Y-76168545D01*
X155260954Y-76169959D01*
X155260521Y-76171801D01*
X155230291Y-76206030D01*
X155178721Y-76315870D01*
X155160052Y-76435772D01*
X155175786Y-76556092D01*
X155224657Y-76667160D01*
X155263352Y-76713194D01*
X155263701Y-76715163D01*
X155262170Y-76716450D01*
X155260603Y-76716068D01*
X155200110Y-76669649D01*
X155124192Y-76659654D01*
X155053319Y-76689010D01*
X155032450Y-76709879D01*
X155030518Y-76710397D01*
X155029104Y-76708983D01*
X155029553Y-76707123D01*
X155053811Y-76680323D01*
X155106720Y-76571119D01*
X155126874Y-76451329D01*
X155126998Y-76441129D01*
X155109777Y-76320881D01*
X155059552Y-76210417D01*
X155023812Y-76168939D01*
X155023439Y-76166974D01*
X155024954Y-76165668D01*
X155026545Y-76166046D01*
G37*
G36*
X134832857Y-75837790D02*
G01*
X134832173Y-75839572D01*
X134787583Y-75877656D01*
X134787886Y-75879296D01*
X134787331Y-75880121D01*
X134747048Y-75916011D01*
X134723003Y-75988713D01*
X134738530Y-76063695D01*
X134788997Y-76120341D01*
X134789287Y-76121742D01*
X134791018Y-76121864D01*
X134801474Y-76128047D01*
X134808788Y-76131920D01*
X134809182Y-76132195D01*
X134838266Y-76158108D01*
X134838894Y-76160007D01*
X134837564Y-76161500D01*
X134835718Y-76161188D01*
X134788782Y-76125173D01*
X134788080Y-76123477D01*
X134787910Y-76123629D01*
X134786286Y-76123258D01*
X134769990Y-76110753D01*
X134642652Y-76058008D01*
X134506000Y-76040017D01*
X134369348Y-76058008D01*
X134242010Y-76110753D01*
X134179177Y-76158966D01*
X134177194Y-76159227D01*
X134175976Y-76157640D01*
X134176644Y-76155872D01*
X134207399Y-76129043D01*
X134207797Y-76128773D01*
X134210269Y-76127497D01*
X134267106Y-76075777D01*
X134290386Y-76002829D01*
X134274071Y-75928012D01*
X134225333Y-75874452D01*
X134224907Y-75872498D01*
X134226386Y-75871152D01*
X134228030Y-75871519D01*
X134242010Y-75882247D01*
X134369348Y-75934992D01*
X134506000Y-75952983D01*
X134642652Y-75934992D01*
X134769990Y-75882247D01*
X134829656Y-75836464D01*
X134831639Y-75836203D01*
X134832857Y-75837790D01*
G37*
G36*
X160416934Y-75614412D02*
G01*
X160483750Y-75658889D01*
X160599572Y-75695074D01*
X160720899Y-75697298D01*
X160837975Y-75665379D01*
X160919742Y-75615173D01*
X160921741Y-75615119D01*
X160922787Y-75616823D01*
X160922375Y-75618095D01*
X160880099Y-75673191D01*
X160870104Y-75749109D01*
X160899461Y-75819982D01*
X160920672Y-75841193D01*
X160921190Y-75843125D01*
X160919776Y-75844539D01*
X160918170Y-75844285D01*
X160847517Y-75798490D01*
X160731260Y-75763721D01*
X160609916Y-75762980D01*
X160493241Y-75796326D01*
X160415577Y-75845329D01*
X160413579Y-75845408D01*
X160412512Y-75843717D01*
X160412923Y-75842420D01*
X160455901Y-75786409D01*
X160465896Y-75710491D01*
X160436539Y-75639618D01*
X160414412Y-75617491D01*
X160413894Y-75615559D01*
X160415308Y-75614145D01*
X160416934Y-75614412D01*
G37*
G36*
X138438605Y-74695911D02*
G01*
X138439004Y-74697369D01*
X138430118Y-74770792D01*
X138460160Y-74841227D01*
X138521454Y-74887250D01*
X138558755Y-74894568D01*
X138560262Y-74895883D01*
X138559877Y-74897846D01*
X138558631Y-74898514D01*
X138433348Y-74915008D01*
X138306010Y-74967753D01*
X138196660Y-75051660D01*
X138112753Y-75161010D01*
X138070919Y-75262007D01*
X138069332Y-75263225D01*
X138067484Y-75262460D01*
X138067083Y-75261023D01*
X138075069Y-75188687D01*
X138044293Y-75118571D01*
X137982509Y-75073186D01*
X137947345Y-75066287D01*
X137945838Y-75064972D01*
X137946223Y-75063009D01*
X137947469Y-75062341D01*
X138071652Y-75045992D01*
X138198990Y-74993247D01*
X138308340Y-74909340D01*
X138392247Y-74799990D01*
X138435170Y-74696364D01*
X138436757Y-74695146D01*
X138438605Y-74695911D01*
G37*
G36*
X134832857Y-74694790D02*
G01*
X134832173Y-74696572D01*
X134787583Y-74734656D01*
X134787886Y-74736296D01*
X134787331Y-74737121D01*
X134747048Y-74773011D01*
X134723003Y-74845713D01*
X134738530Y-74920695D01*
X134788997Y-74977341D01*
X134789287Y-74978742D01*
X134791018Y-74978864D01*
X134801474Y-74985047D01*
X134808788Y-74988920D01*
X134809182Y-74989195D01*
X134838266Y-75015108D01*
X134838894Y-75017007D01*
X134837564Y-75018500D01*
X134835718Y-75018188D01*
X134788782Y-74982173D01*
X134788080Y-74980477D01*
X134787910Y-74980629D01*
X134786286Y-74980258D01*
X134769990Y-74967753D01*
X134642652Y-74915008D01*
X134506000Y-74897017D01*
X134369348Y-74915008D01*
X134242010Y-74967753D01*
X134179177Y-75015966D01*
X134177194Y-75016227D01*
X134175976Y-75014640D01*
X134176644Y-75012872D01*
X134207399Y-74986043D01*
X134207797Y-74985773D01*
X134210269Y-74984497D01*
X134267106Y-74932777D01*
X134290386Y-74859829D01*
X134274071Y-74785012D01*
X134225333Y-74731452D01*
X134224907Y-74729498D01*
X134226386Y-74728152D01*
X134228030Y-74728519D01*
X134242010Y-74739247D01*
X134369348Y-74791992D01*
X134506000Y-74809983D01*
X134642652Y-74791992D01*
X134769990Y-74739247D01*
X134829656Y-74693464D01*
X134831639Y-74693203D01*
X134832857Y-74694790D01*
G37*
G36*
X138248419Y-73795843D02*
G01*
X138284738Y-73839049D01*
X138385750Y-73906289D01*
X138475211Y-73934238D01*
X138476566Y-73935709D01*
X138475970Y-73937618D01*
X138474354Y-73938130D01*
X138461024Y-73936375D01*
X138384836Y-73946406D01*
X138324085Y-73993021D01*
X138294782Y-74063765D01*
X138304782Y-74139724D01*
X138325296Y-74168593D01*
X138325484Y-74170584D01*
X138324799Y-74171399D01*
X138324238Y-74171785D01*
X138357357Y-74219974D01*
X138357514Y-74221968D01*
X138355866Y-74223101D01*
X138354122Y-74222325D01*
X138308340Y-74162660D01*
X138198990Y-74078753D01*
X138094952Y-74035659D01*
X138093734Y-74034072D01*
X138094499Y-74032224D01*
X138095686Y-74031811D01*
X138168392Y-74030668D01*
X138234095Y-73991346D01*
X138271337Y-73924437D01*
X138270132Y-73847796D01*
X138245101Y-73798029D01*
X138245216Y-73796032D01*
X138247003Y-73795133D01*
X138248419Y-73795843D01*
G37*
G36*
X103108767Y-72733017D02*
G01*
X103109504Y-72734876D01*
X103108585Y-72736280D01*
X103096865Y-72743603D01*
X103096463Y-72743796D01*
X103046013Y-72761365D01*
X102982457Y-72804558D01*
X102949131Y-72873500D01*
X102954740Y-72949868D01*
X102997828Y-73013270D01*
X103036210Y-73035788D01*
X103037198Y-73037527D01*
X103036186Y-73039252D01*
X103034701Y-73039450D01*
X102911247Y-73007752D01*
X102832538Y-73002800D01*
X102232724Y-73002800D01*
X102076428Y-73022545D01*
X101949811Y-73072676D01*
X101947833Y-73072383D01*
X101947096Y-73070524D01*
X101948015Y-73069120D01*
X101959735Y-73061797D01*
X101960137Y-73061604D01*
X102010587Y-73044035D01*
X102074143Y-73000842D01*
X102107469Y-72931900D01*
X102101860Y-72855532D01*
X102058772Y-72792130D01*
X102020390Y-72769612D01*
X102019402Y-72767873D01*
X102020414Y-72766148D01*
X102021899Y-72765950D01*
X102145353Y-72797648D01*
X102224062Y-72802600D01*
X102823876Y-72802600D01*
X102980172Y-72782855D01*
X103106789Y-72732724D01*
X103108767Y-72733017D01*
G37*
G36*
X106104132Y-72752600D02*
G01*
X107303868Y-72752600D01*
X107307179Y-72752164D01*
X107309027Y-72752929D01*
X107309288Y-72754912D01*
X107308178Y-72756006D01*
X107239946Y-72783090D01*
X107192436Y-72843140D01*
X107181316Y-72918902D01*
X107209567Y-72990075D01*
X107269691Y-73037644D01*
X107319257Y-73049498D01*
X107380306Y-73053285D01*
X107380657Y-73053338D01*
X107419723Y-73062898D01*
X107421168Y-73064281D01*
X107420693Y-73066224D01*
X107418987Y-73066824D01*
X107312468Y-73052800D01*
X106112732Y-73052800D01*
X106109421Y-73053236D01*
X106107573Y-73052471D01*
X106107312Y-73050488D01*
X106108422Y-73049394D01*
X106176654Y-73022310D01*
X106224164Y-72962260D01*
X106235284Y-72886498D01*
X106207033Y-72815325D01*
X106146909Y-72767756D01*
X106097343Y-72755902D01*
X106036294Y-72752115D01*
X106035943Y-72752062D01*
X105996877Y-72742502D01*
X105995432Y-72741119D01*
X105995907Y-72739176D01*
X105997613Y-72738576D01*
X106104132Y-72752600D01*
G37*
G36*
X110937862Y-72087531D02*
G01*
X110937896Y-72089138D01*
X110890008Y-72204748D01*
X110872017Y-72341400D01*
X110890008Y-72478052D01*
X110935697Y-72588354D01*
X110935436Y-72590337D01*
X110933588Y-72591102D01*
X110932189Y-72590235D01*
X110922960Y-72576502D01*
X110865053Y-72525986D01*
X110789910Y-72511244D01*
X110717466Y-72536047D01*
X110676271Y-72583270D01*
X110674903Y-72583739D01*
X110670474Y-72589902D01*
X110670357Y-72590050D01*
X110666973Y-72593929D01*
X110666068Y-72595962D01*
X110665865Y-72596316D01*
X110664478Y-72598247D01*
X110662656Y-72599070D01*
X110661031Y-72597903D01*
X110661006Y-72596315D01*
X110709992Y-72478052D01*
X110727983Y-72341400D01*
X110709992Y-72204748D01*
X110663202Y-72091788D01*
X110663463Y-72089805D01*
X110665311Y-72089040D01*
X110666698Y-72089890D01*
X110677718Y-72105924D01*
X110736153Y-72155833D01*
X110811446Y-72169788D01*
X110883625Y-72144227D01*
X110918915Y-72102908D01*
X110920800Y-72102240D01*
X110921586Y-72102571D01*
X110922951Y-72103530D01*
X110934412Y-72087223D01*
X110936226Y-72086381D01*
X110937862Y-72087531D01*
G37*
G36*
X134140014Y-71964853D02*
G01*
X134194750Y-72001289D01*
X134310572Y-72037474D01*
X134431899Y-72039698D01*
X134548975Y-72007779D01*
X134614439Y-71967583D01*
X134616438Y-71967529D01*
X134617484Y-71969233D01*
X134616703Y-71970874D01*
X134580148Y-71998925D01*
X134580296Y-72000050D01*
X134579666Y-72000872D01*
X134537865Y-72032946D01*
X134508562Y-72103689D01*
X134518555Y-72179607D01*
X134565255Y-72240469D01*
X134590515Y-72255053D01*
X134590733Y-72255198D01*
X134619382Y-72277181D01*
X134620147Y-72279029D01*
X134618929Y-72280616D01*
X134617076Y-72280446D01*
X134558517Y-72242490D01*
X134442260Y-72207721D01*
X134320916Y-72206980D01*
X134204241Y-72240326D01*
X134142153Y-72279501D01*
X134140155Y-72279580D01*
X134139088Y-72277889D01*
X134139868Y-72276223D01*
X134177854Y-72247075D01*
X134177706Y-72245948D01*
X134178335Y-72245127D01*
X134220137Y-72213051D01*
X134249439Y-72142307D01*
X134239443Y-72066389D01*
X134192742Y-72005529D01*
X134167485Y-71990947D01*
X134167267Y-71990802D01*
X134137688Y-71968105D01*
X134136923Y-71966257D01*
X134138141Y-71964670D01*
X134140014Y-71964853D01*
G37*
G36*
X164740199Y-71779000D02*
G01*
X164984351Y-71779000D01*
X164986083Y-71780000D01*
X164986083Y-71782000D01*
X164985418Y-71782691D01*
X164962619Y-71797076D01*
X164882291Y-71888030D01*
X164840445Y-71977159D01*
X164838804Y-71978302D01*
X164836994Y-71977452D01*
X164836652Y-71976048D01*
X164845752Y-71906919D01*
X164816448Y-71836175D01*
X164755593Y-71789481D01*
X164716090Y-71779210D01*
X164715257Y-71779113D01*
X164714679Y-71778955D01*
X164710559Y-71777134D01*
X164709380Y-71775519D01*
X164710188Y-71773690D01*
X164711758Y-71773343D01*
X164740199Y-71779000D01*
G37*
G36*
X167280199Y-71779000D02*
G01*
X167524351Y-71779000D01*
X167526083Y-71780000D01*
X167526083Y-71782000D01*
X167525418Y-71782691D01*
X167502619Y-71797076D01*
X167422291Y-71888030D01*
X167380445Y-71977159D01*
X167378804Y-71978302D01*
X167376994Y-71977452D01*
X167376652Y-71976048D01*
X167385752Y-71906919D01*
X167356448Y-71836175D01*
X167295593Y-71789481D01*
X167256090Y-71779210D01*
X167255257Y-71779113D01*
X167254679Y-71778955D01*
X167250559Y-71777134D01*
X167249380Y-71775519D01*
X167250188Y-71773690D01*
X167251758Y-71773343D01*
X167280199Y-71779000D01*
G37*
G36*
X169820199Y-71779000D02*
G01*
X170064351Y-71779000D01*
X170066083Y-71780000D01*
X170066083Y-71782000D01*
X170065418Y-71782691D01*
X170042619Y-71797076D01*
X169962291Y-71888030D01*
X169920445Y-71977159D01*
X169918804Y-71978302D01*
X169916994Y-71977452D01*
X169916652Y-71976048D01*
X169925752Y-71906919D01*
X169896448Y-71836175D01*
X169835593Y-71789481D01*
X169796090Y-71779210D01*
X169795257Y-71779113D01*
X169794679Y-71778955D01*
X169790559Y-71777134D01*
X169789380Y-71775519D01*
X169790188Y-71773690D01*
X169791758Y-71773343D01*
X169820199Y-71779000D01*
G37*
G36*
X172360199Y-71779000D02*
G01*
X172604351Y-71779000D01*
X172606083Y-71780000D01*
X172606083Y-71782000D01*
X172605418Y-71782691D01*
X172582619Y-71797076D01*
X172502291Y-71888030D01*
X172460445Y-71977159D01*
X172458804Y-71978302D01*
X172456994Y-71977452D01*
X172456652Y-71976048D01*
X172465752Y-71906919D01*
X172436448Y-71836175D01*
X172375593Y-71789481D01*
X172336090Y-71779210D01*
X172335257Y-71779113D01*
X172334679Y-71778955D01*
X172330559Y-71777134D01*
X172329380Y-71775519D01*
X172330188Y-71773690D01*
X172331758Y-71773343D01*
X172360199Y-71779000D01*
G37*
G36*
X165770319Y-71773949D02*
G01*
X165770709Y-71775911D01*
X165769627Y-71777096D01*
X165765604Y-71778883D01*
X165765026Y-71779041D01*
X165763893Y-71779174D01*
X165692494Y-71807586D01*
X165645032Y-71867680D01*
X165633958Y-71943580D01*
X165641714Y-71973355D01*
X165641183Y-71975283D01*
X165639248Y-71975787D01*
X165637958Y-71974687D01*
X165600552Y-71892417D01*
X165521342Y-71800490D01*
X165493862Y-71782678D01*
X165492953Y-71780897D01*
X165494040Y-71779219D01*
X165494950Y-71779000D01*
X165739801Y-71779000D01*
X165768425Y-71773306D01*
X165770319Y-71773949D01*
G37*
G36*
X173390319Y-71773949D02*
G01*
X173390709Y-71775911D01*
X173389627Y-71777096D01*
X173385604Y-71778883D01*
X173385026Y-71779041D01*
X173383893Y-71779174D01*
X173312494Y-71807586D01*
X173265032Y-71867680D01*
X173253958Y-71943580D01*
X173261714Y-71973355D01*
X173261183Y-71975283D01*
X173259248Y-71975787D01*
X173257958Y-71974687D01*
X173220552Y-71892417D01*
X173141342Y-71800490D01*
X173113862Y-71782678D01*
X173112953Y-71780897D01*
X173114040Y-71779219D01*
X173114950Y-71779000D01*
X173359801Y-71779000D01*
X173388425Y-71773306D01*
X173390319Y-71773949D01*
G37*
G36*
X170850319Y-71773949D02*
G01*
X170850709Y-71775911D01*
X170849627Y-71777096D01*
X170845604Y-71778883D01*
X170845026Y-71779041D01*
X170843893Y-71779174D01*
X170772494Y-71807586D01*
X170725032Y-71867680D01*
X170713958Y-71943580D01*
X170721714Y-71973355D01*
X170721183Y-71975283D01*
X170719248Y-71975787D01*
X170717958Y-71974687D01*
X170680552Y-71892417D01*
X170601342Y-71800490D01*
X170573862Y-71782678D01*
X170572953Y-71780897D01*
X170574040Y-71779219D01*
X170574950Y-71779000D01*
X170819801Y-71779000D01*
X170848425Y-71773306D01*
X170850319Y-71773949D01*
G37*
G36*
X168310319Y-71773949D02*
G01*
X168310709Y-71775911D01*
X168309627Y-71777096D01*
X168305604Y-71778883D01*
X168305026Y-71779041D01*
X168303893Y-71779174D01*
X168232494Y-71807586D01*
X168185032Y-71867680D01*
X168173958Y-71943580D01*
X168181714Y-71973355D01*
X168181183Y-71975283D01*
X168179248Y-71975787D01*
X168177958Y-71974687D01*
X168140552Y-71892417D01*
X168061342Y-71800490D01*
X168033862Y-71782678D01*
X168032953Y-71780897D01*
X168034040Y-71779219D01*
X168034950Y-71779000D01*
X168279801Y-71779000D01*
X168308425Y-71773306D01*
X168310319Y-71773949D01*
G37*
G36*
X109859220Y-71739724D02*
G01*
X109936010Y-71798647D01*
X110034763Y-71839552D01*
X110035981Y-71841139D01*
X110035216Y-71842987D01*
X110034763Y-71843248D01*
X109936010Y-71884153D01*
X109850097Y-71950076D01*
X109848114Y-71950337D01*
X109846896Y-71948750D01*
X109847219Y-71947374D01*
X109886289Y-71889230D01*
X109891498Y-71812835D01*
X109857715Y-71743877D01*
X109856573Y-71742710D01*
X109856076Y-71740773D01*
X109857505Y-71739374D01*
X109859220Y-71739724D01*
G37*
G36*
X111059220Y-71739724D02*
G01*
X111136010Y-71798647D01*
X111234763Y-71839552D01*
X111235981Y-71841139D01*
X111235216Y-71842987D01*
X111234763Y-71843248D01*
X111136010Y-71884153D01*
X111050097Y-71950076D01*
X111048114Y-71950337D01*
X111046896Y-71948750D01*
X111047219Y-71947374D01*
X111086289Y-71889230D01*
X111091498Y-71812835D01*
X111057715Y-71743877D01*
X111056573Y-71742710D01*
X111056076Y-71740773D01*
X111057505Y-71739374D01*
X111059220Y-71739724D01*
G37*
G36*
X110554406Y-71733051D02*
G01*
X110554071Y-71734445D01*
X110514373Y-71792206D01*
X110508366Y-71868544D01*
X110541419Y-71937841D01*
X110544209Y-71940690D01*
X110544706Y-71942627D01*
X110543277Y-71944026D01*
X110541562Y-71943676D01*
X110463990Y-71884153D01*
X110365237Y-71843248D01*
X110364019Y-71841661D01*
X110364784Y-71839813D01*
X110365237Y-71839552D01*
X110463990Y-71798647D01*
X110551205Y-71731725D01*
X110553188Y-71731464D01*
X110554406Y-71733051D01*
G37*
G36*
X111754406Y-71733051D02*
G01*
X111754071Y-71734445D01*
X111714373Y-71792206D01*
X111708366Y-71868544D01*
X111741419Y-71937841D01*
X111744209Y-71940690D01*
X111744706Y-71942627D01*
X111743277Y-71944026D01*
X111741562Y-71943676D01*
X111663990Y-71884153D01*
X111565237Y-71843248D01*
X111564019Y-71841661D01*
X111564784Y-71839813D01*
X111565237Y-71839552D01*
X111663990Y-71798647D01*
X111751205Y-71731725D01*
X111753188Y-71731464D01*
X111754406Y-71733051D01*
G37*
G36*
X110937862Y-71087531D02*
G01*
X110937896Y-71089138D01*
X110890008Y-71204748D01*
X110872017Y-71341400D01*
X110890008Y-71478052D01*
X110935697Y-71588354D01*
X110935436Y-71590337D01*
X110933588Y-71591102D01*
X110932189Y-71590235D01*
X110922960Y-71576502D01*
X110865053Y-71525986D01*
X110789910Y-71511244D01*
X110717466Y-71536047D01*
X110676271Y-71583270D01*
X110674903Y-71583739D01*
X110670474Y-71589902D01*
X110670357Y-71590050D01*
X110666973Y-71593929D01*
X110666068Y-71595962D01*
X110665865Y-71596316D01*
X110664478Y-71598247D01*
X110662656Y-71599070D01*
X110661031Y-71597903D01*
X110661006Y-71596315D01*
X110709992Y-71478052D01*
X110727983Y-71341400D01*
X110709992Y-71204748D01*
X110663202Y-71091788D01*
X110663463Y-71089805D01*
X110665311Y-71089040D01*
X110666698Y-71089890D01*
X110677718Y-71105924D01*
X110736153Y-71155833D01*
X110811446Y-71169788D01*
X110883625Y-71144227D01*
X110918915Y-71102908D01*
X110920800Y-71102240D01*
X110921586Y-71102571D01*
X110922951Y-71103530D01*
X110934412Y-71087223D01*
X110936226Y-71086381D01*
X110937862Y-71087531D01*
G37*
G36*
X110337427Y-70552299D02*
G01*
X110337688Y-70554282D01*
X110336776Y-70555285D01*
X110283798Y-70583336D01*
X110243108Y-70648201D01*
X110240303Y-70724723D01*
X110276122Y-70792373D01*
X110335272Y-70827354D01*
X110336254Y-70829096D01*
X110335236Y-70830817D01*
X110333993Y-70831058D01*
X110200000Y-70813417D01*
X110066650Y-70830973D01*
X110064802Y-70830208D01*
X110064541Y-70828225D01*
X110065435Y-70827232D01*
X110118366Y-70798494D01*
X110158376Y-70733205D01*
X110160382Y-70656658D01*
X110123852Y-70589377D01*
X110066982Y-70555743D01*
X110066000Y-70554001D01*
X110067018Y-70552280D01*
X110068261Y-70552039D01*
X110200000Y-70569383D01*
X110335579Y-70551534D01*
X110337427Y-70552299D01*
G37*
G36*
X111537427Y-70552299D02*
G01*
X111537688Y-70554282D01*
X111536776Y-70555285D01*
X111483798Y-70583336D01*
X111443108Y-70648201D01*
X111440303Y-70724723D01*
X111476122Y-70792373D01*
X111535272Y-70827354D01*
X111536254Y-70829096D01*
X111535236Y-70830817D01*
X111533993Y-70831058D01*
X111400000Y-70813417D01*
X111266650Y-70830973D01*
X111264802Y-70830208D01*
X111264541Y-70828225D01*
X111265435Y-70827232D01*
X111318366Y-70798494D01*
X111358376Y-70733205D01*
X111360382Y-70656658D01*
X111323852Y-70589377D01*
X111266982Y-70555743D01*
X111266000Y-70554001D01*
X111267018Y-70552280D01*
X111268261Y-70552039D01*
X111400000Y-70569383D01*
X111535579Y-70551534D01*
X111537427Y-70552299D01*
G37*
G36*
X110937862Y-69787531D02*
G01*
X110937896Y-69789138D01*
X110890008Y-69904748D01*
X110872017Y-70041400D01*
X110890008Y-70178052D01*
X110935697Y-70288354D01*
X110935436Y-70290337D01*
X110933588Y-70291102D01*
X110932189Y-70290235D01*
X110922960Y-70276502D01*
X110865053Y-70225986D01*
X110789910Y-70211244D01*
X110717466Y-70236047D01*
X110676271Y-70283270D01*
X110674903Y-70283739D01*
X110670474Y-70289902D01*
X110670357Y-70290050D01*
X110666973Y-70293929D01*
X110666068Y-70295962D01*
X110665865Y-70296316D01*
X110664478Y-70298247D01*
X110662656Y-70299070D01*
X110661031Y-70297903D01*
X110661006Y-70296315D01*
X110709992Y-70178052D01*
X110727983Y-70041400D01*
X110709992Y-69904748D01*
X110663202Y-69791788D01*
X110663463Y-69789805D01*
X110665311Y-69789040D01*
X110666698Y-69789890D01*
X110677718Y-69805924D01*
X110736153Y-69855833D01*
X110811446Y-69869788D01*
X110883625Y-69844227D01*
X110918915Y-69802908D01*
X110920800Y-69802240D01*
X110921586Y-69802571D01*
X110922951Y-69803530D01*
X110934412Y-69787223D01*
X110936226Y-69786381D01*
X110937862Y-69787531D01*
G37*
G36*
X137315020Y-69043857D02*
G01*
X137369750Y-69080289D01*
X137485572Y-69116474D01*
X137606899Y-69118698D01*
X137686723Y-69096935D01*
X137688657Y-69097445D01*
X137689183Y-69099374D01*
X137688014Y-69100713D01*
X137684147Y-69102314D01*
X137623179Y-69149096D01*
X137593876Y-69219840D01*
X137603871Y-69295758D01*
X137650600Y-69356657D01*
X137659692Y-69362494D01*
X137660609Y-69364271D01*
X137659528Y-69365954D01*
X137657846Y-69366025D01*
X137563652Y-69327008D01*
X137427000Y-69309017D01*
X137298178Y-69325977D01*
X137296330Y-69325212D01*
X137296069Y-69323229D01*
X137296963Y-69322236D01*
X137351516Y-69292615D01*
X137391526Y-69227326D01*
X137393531Y-69150779D01*
X137356899Y-69083315D01*
X137339732Y-69067856D01*
X137312694Y-69047109D01*
X137311929Y-69045261D01*
X137313147Y-69043674D01*
X137315020Y-69043857D01*
G37*
G36*
X138914855Y-67562882D02*
G01*
X139009572Y-67592474D01*
X139109559Y-67594307D01*
X139111272Y-67595339D01*
X139111235Y-67597339D01*
X139110287Y-67598155D01*
X139045244Y-67625096D01*
X138998629Y-67685847D01*
X138988915Y-67759632D01*
X138987697Y-67761219D01*
X138985714Y-67760958D01*
X138984952Y-67759655D01*
X138975062Y-67690596D01*
X138924837Y-67580132D01*
X138912744Y-67566097D01*
X138912371Y-67564132D01*
X138913886Y-67562826D01*
X138914855Y-67562882D01*
G37*
G36*
X197355483Y-67270234D02*
G01*
X197354702Y-67271875D01*
X197332571Y-67288857D01*
X197332118Y-67289118D01*
X197318402Y-67294799D01*
X197257434Y-67341581D01*
X197228131Y-67412325D01*
X197238126Y-67488243D01*
X197284856Y-67549143D01*
X197305607Y-67562465D01*
X197338084Y-67579660D01*
X197339147Y-67581355D01*
X197338211Y-67583122D01*
X197336383Y-67583276D01*
X197253652Y-67549008D01*
X197117000Y-67531017D01*
X196980348Y-67549008D01*
X196900636Y-67582026D01*
X196898653Y-67581765D01*
X196897888Y-67579917D01*
X196898954Y-67578401D01*
X196927639Y-67563595D01*
X196984477Y-67511876D01*
X197007758Y-67438928D01*
X196991444Y-67364111D01*
X196941120Y-67308807D01*
X196940694Y-67306853D01*
X196942173Y-67305507D01*
X196943195Y-67305552D01*
X197048572Y-67338474D01*
X197169899Y-67340698D01*
X197286975Y-67308779D01*
X197352438Y-67268584D01*
X197354437Y-67268530D01*
X197355483Y-67270234D01*
G37*
G36*
X138656611Y-67219453D02*
G01*
X138657376Y-67220781D01*
X138665786Y-67285092D01*
X138714657Y-67396160D01*
X138729812Y-67414189D01*
X138730161Y-67416158D01*
X138728630Y-67417445D01*
X138727708Y-67417392D01*
X138627545Y-67387436D01*
X138531684Y-67386850D01*
X138529958Y-67385839D01*
X138529970Y-67383839D01*
X138530931Y-67383002D01*
X138597041Y-67355619D01*
X138643656Y-67294868D01*
X138653410Y-67220779D01*
X138654628Y-67219192D01*
X138656611Y-67219453D01*
G37*
G36*
X140092190Y-66081917D02*
G01*
X140111657Y-66126160D01*
X140189738Y-66219049D01*
X140284367Y-66282039D01*
X140285255Y-66283831D01*
X140284147Y-66285496D01*
X140282998Y-66285687D01*
X140217406Y-66277052D01*
X140146662Y-66306355D01*
X140100047Y-66367106D01*
X140090034Y-66443160D01*
X140099761Y-66479460D01*
X140099243Y-66481392D01*
X140097311Y-66481910D01*
X140096008Y-66480806D01*
X140073552Y-66431417D01*
X139994342Y-66339490D01*
X139902231Y-66279786D01*
X139901322Y-66278005D01*
X139902409Y-66276327D01*
X139903580Y-66276125D01*
X139970594Y-66284948D01*
X140041338Y-66255645D01*
X140087953Y-66194894D01*
X140097966Y-66118840D01*
X140088427Y-66083240D01*
X140088945Y-66081308D01*
X140090877Y-66080790D01*
X140092190Y-66081917D01*
G37*
G36*
X110937862Y-65487531D02*
G01*
X110937896Y-65489138D01*
X110890008Y-65604748D01*
X110872017Y-65741400D01*
X110890008Y-65878052D01*
X110935697Y-65988354D01*
X110935436Y-65990337D01*
X110933588Y-65991102D01*
X110932189Y-65990235D01*
X110922960Y-65976502D01*
X110865053Y-65925986D01*
X110789910Y-65911244D01*
X110717466Y-65936047D01*
X110676271Y-65983270D01*
X110674903Y-65983739D01*
X110670474Y-65989902D01*
X110670357Y-65990050D01*
X110666973Y-65993929D01*
X110666068Y-65995962D01*
X110665865Y-65996316D01*
X110664478Y-65998247D01*
X110662656Y-65999070D01*
X110661031Y-65997903D01*
X110661006Y-65996315D01*
X110709992Y-65878052D01*
X110727983Y-65741400D01*
X110709992Y-65604748D01*
X110663202Y-65491788D01*
X110663463Y-65489805D01*
X110665311Y-65489040D01*
X110666698Y-65489890D01*
X110677718Y-65505924D01*
X110736153Y-65555833D01*
X110811446Y-65569788D01*
X110883625Y-65544227D01*
X110918915Y-65502908D01*
X110920800Y-65502240D01*
X110921586Y-65502571D01*
X110922951Y-65503530D01*
X110934412Y-65487223D01*
X110936226Y-65486381D01*
X110937862Y-65487531D01*
G37*
G36*
X110916862Y-64087531D02*
G01*
X110916896Y-64089138D01*
X110869008Y-64204748D01*
X110851017Y-64341400D01*
X110869008Y-64478052D01*
X110914697Y-64588354D01*
X110914436Y-64590337D01*
X110912588Y-64591102D01*
X110911189Y-64590235D01*
X110901960Y-64576502D01*
X110844053Y-64525986D01*
X110768910Y-64511244D01*
X110696466Y-64536047D01*
X110655271Y-64583270D01*
X110653903Y-64583739D01*
X110649474Y-64589902D01*
X110649357Y-64590050D01*
X110645973Y-64593929D01*
X110645068Y-64595962D01*
X110644865Y-64596316D01*
X110643478Y-64598247D01*
X110641656Y-64599070D01*
X110640031Y-64597903D01*
X110640006Y-64596315D01*
X110688992Y-64478052D01*
X110706983Y-64341400D01*
X110688992Y-64204748D01*
X110642202Y-64091788D01*
X110642463Y-64089805D01*
X110644311Y-64089040D01*
X110645698Y-64089890D01*
X110656718Y-64105924D01*
X110715153Y-64155833D01*
X110790446Y-64169788D01*
X110862625Y-64144227D01*
X110897915Y-64102908D01*
X110899800Y-64102240D01*
X110900586Y-64102571D01*
X110901951Y-64103530D01*
X110913412Y-64087223D01*
X110915226Y-64086381D01*
X110916862Y-64087531D01*
G37*
G36*
X143346105Y-62709629D02*
G01*
X143395624Y-62751922D01*
X143470918Y-62765877D01*
X143543180Y-62740287D01*
X143570198Y-62713549D01*
X143572133Y-62713042D01*
X143573540Y-62714463D01*
X143573453Y-62715736D01*
X143521008Y-62842348D01*
X143503017Y-62979000D01*
X143521008Y-63115652D01*
X143573754Y-63242992D01*
X143576170Y-63246141D01*
X143576431Y-63248124D01*
X143574844Y-63249341D01*
X143573268Y-63248865D01*
X143525153Y-63206891D01*
X143450011Y-63192148D01*
X143377483Y-63216980D01*
X143348563Y-63245005D01*
X143346623Y-63245492D01*
X143345231Y-63244056D01*
X143345323Y-63242804D01*
X143397992Y-63115652D01*
X143415983Y-62979000D01*
X143397992Y-62842348D01*
X143345247Y-62715010D01*
X143343219Y-62712368D01*
X143342958Y-62710385D01*
X143344545Y-62709167D01*
X143346105Y-62709629D01*
G37*
G36*
X142289441Y-62496639D02*
G01*
X142318758Y-62567415D01*
X142379510Y-62614030D01*
X142455428Y-62624023D01*
X142518102Y-62598062D01*
X142520085Y-62598323D01*
X142520850Y-62600171D01*
X142520085Y-62601497D01*
X142514660Y-62605660D01*
X142430753Y-62715010D01*
X142378008Y-62842348D01*
X142360017Y-62979000D01*
X142367967Y-63039381D01*
X142367202Y-63041229D01*
X142365219Y-63041490D01*
X142364121Y-63040369D01*
X142336731Y-62970121D01*
X142276971Y-62922244D01*
X142201290Y-62910664D01*
X142139757Y-62935401D01*
X142137777Y-62935119D01*
X142137031Y-62933263D01*
X142137964Y-62931841D01*
X142145379Y-62927288D01*
X142226811Y-62837323D01*
X142279720Y-62728119D01*
X142299874Y-62608329D01*
X142299998Y-62598131D01*
X142285613Y-62497688D01*
X142286358Y-62495831D01*
X142288337Y-62495548D01*
X142289441Y-62496639D01*
G37*
M02*
