M48
; DRILL file {KiCad (6.0.7)} date Sun 14 Aug 2022 11:11:49 PM CEST
; FORMAT={-:-/ absolute / inch / decimal}
; #@! TF.CreationDate,2022-08-14T23:11:49+02:00
; #@! TF.GenerationSoftware,Kicad,Pcbnew,(6.0.7)
; #@! TF.FileFunction,Plated,1,4,PTH
FMAT,2
INCH
; #@! TA.AperFunction,Plated,PTH,ViaDrill
T1C0.0118
; #@! TA.AperFunction,Plated,PTH,ViaDrill
T2C0.0157
; #@! TA.AperFunction,Plated,PTH,ComponentDrill
T3C0.0197
; #@! TA.AperFunction,Plated,PTH,ComponentDrill
T4C0.0236
; #@! TA.AperFunction,Plated,PTH,ComponentDrill
T5C0.0394
; #@! TA.AperFunction,Plated,PTH,ComponentDrill
T6C0.0984
%
G90
G05
T1
X4.2205Y-3.7195
X4.2255Y-3.4195
X4.2855Y-4.1195
X4.2955Y-3.7995
X4.3455Y-3.8295
X4.3455Y-4.1195
X4.3855Y-3.7695
X4.3855Y-4.0695
X4.3955Y-4.1695
X4.4055Y-4.2345
X4.4255Y-3.9795
X4.6055Y-3.4195
X4.6055Y-3.7195
X4.6205Y-3.9445
X4.6705Y-3.9445
X4.7205Y-3.9445
X4.7705Y-3.9445
X4.8205Y-3.9445
X4.8705Y-3.9445
X4.8705Y-4.1945
X4.9205Y-3.9445
X4.9855Y-3.4195
X4.9905Y-3.7195
X5.0205Y-2.4595
X5.2255Y-4.1495
X5.2555Y-3.1138
X5.2755Y-4.2695
X5.2905Y-2.8195
X5.2905Y-2.8595
X5.3055Y-3.4395
X5.3155Y-4.1795
X5.3205Y-3.6945
X5.3455Y-2.7195
X5.3805Y-2.8895
X5.3855Y-3.7445
X5.3905Y-3.4395
X5.3905Y-3.5195
X5.4105Y-3.8095
X5.4155Y-2.7045
X5.4553Y-2.6697
X5.4555Y-2.8945
X5.4605Y-3.5895
X5.4755Y-2.6445
X5.4955Y-3.5195
X5.5005Y-2.6245
X5.5105Y-2.4795
X5.5305Y-2.5945
X5.5305Y-3.4695
X5.5305Y-3.7695
X5.5355Y-3.8195
X5.5405Y-2.5495
X5.5405Y-2.7745
X5.5405Y-3.8695
X5.5405Y-2.8395
X5.5805Y-2.5245
X5.5855Y-2.4645
X5.6255Y-4.3095
X5.7355Y-3.2245
X5.7355Y-3.2545
X5.7355Y-3.2845
X5.7355Y-3.3145
X5.7355Y-3.3445
X5.7405Y-3.8545
X5.7455Y-3.7945
X5.7655Y-3.7645
X5.7705Y-3.2245
X5.7855Y-3.1745
X5.7855Y-3.7345
X5.8105Y-3.6995
X5.8255Y-4.2095
X5.8805Y-4.0995
X5.9255Y-4.2895
X5.9408Y-4.1395
X5.9455Y-2.5945
X5.9455Y-3.3245
X5.9655Y-4.1795
X5.9855Y-3.9995
X6.0005Y-3.0095
X6.0055Y-3.9695
X6.0255Y-3.9345
X6.0305Y-3.0095
X6.0405Y-4.2895
X6.0455Y-3.9045
X6.0555Y-3.3845
X6.0605Y-3.0095
X6.0755Y-4.2895
X6.0905Y-3.0095
X6.0905Y-3.9295
X6.0905Y-3.9645
X6.0905Y-3.9995
X6.0905Y-4.0345
X6.1005Y-3.3495
X6.1155Y-4.2895
X6.1255Y-3.0095
X6.1555Y-3.0095
X6.1555Y-4.2895
X6.1574Y-3.5195
X6.1651Y-4.0295
X6.1655Y-4.0645
X6.1755Y-3.5495
X6.1969Y-3.4995
X6.2155Y-2.7295
X6.2158Y-3.5395
X6.2455Y-2.6445
X6.2455Y-3.4045
X6.2455Y-4.2695
X6.2505Y-3.4543
X6.2805Y-3.4845
X6.2855Y-3.5595
X6.2855Y-4.2695
X6.3055Y-3.4195
X6.3205Y-3.6045
X6.3255Y-2.9635
X6.3255Y-2.9995
X6.3255Y-3.0345
X6.3255Y-3.0695
X6.3255Y-3.0995
X6.3255Y-3.1345
X6.3255Y-4.2695
X6.3355Y-3.8795
X6.3655Y-3.6295
X6.3655Y-4.2695
X6.3855Y-3.5895
X6.3955Y-3.8795
X6.4259Y-4.0745
X6.4455Y-4.0345
X6.4655Y-3.4695
X6.4655Y-3.8795
X6.5055Y-2.8395
X6.5155Y-3.8795
X6.6055Y-2.8395
X6.6955Y-4.1495
X6.7055Y-2.8395
X6.7155Y-4.1245
X6.7355Y-4.0995
X6.7455Y-2.8795
X6.7605Y-4.0745
X6.8055Y-2.8395
X6.8755Y-4.2545
X6.9105Y-4.2545
X6.9455Y-4.2545
X6.9555Y-2.8895
X6.9805Y-4.2545
X7.2055Y-2.4195
X7.2055Y-2.5245
X7.2505Y-2.4195
X7.2505Y-2.5245
X7.5505Y-2.8445
X7.6205Y-2.8195
X7.7155Y-2.5895
X7.7205Y-2.7345
X7.7605Y-2.5495
X7.7605Y-2.6345
T2
X4.02Y-4.14
X4.02Y-4.2
X4.0355Y-2.4145
X4.2333Y-3.5695
X4.2433Y-3.8695
X4.2455Y-4.0545
X4.2455Y-4.1695
X4.2905Y-2.9145
X4.2905Y-3.2545
X4.3205Y-2.4495
X4.3378Y-2.5331
X4.3386Y-2.5882
X4.3386Y-2.7575
X4.3386Y-2.8087
X4.3386Y-2.8481
X4.3455Y-3.4145
X4.385Y-2.5331
X4.3858Y-2.5882
X4.3858Y-2.7575
X4.3858Y-2.8087
X4.3858Y-2.8481
X4.3905Y-3.6545
X4.4305Y-3.3145
X4.4505Y-3.9045
X4.4555Y-2.6695
X4.4655Y-2.4045
X4.5055Y-3.3545
X4.5055Y-3.6545
X4.5055Y-3.9495
X4.5095Y-3.0195
X4.5255Y-2.4545
X4.5655Y-2.7535
X4.5805Y-4.0995
X4.6233Y-3.5695
X4.6283Y-3.8695
X4.6347Y-2.6695
X4.7095Y-3.0895
X4.7095Y-3.1395
X4.7255Y-3.2295
X4.7335Y-4.3461
X4.7335Y-4.3835
X4.7355Y-3.4095
X4.7495Y-3.0895
X4.7495Y-3.1395
X4.7605Y-3.7145
X4.7795Y-2.8795
X4.8105Y-3.3145
X4.8105Y-3.6145
X4.8405Y-2.8595
X4.8855Y-3.3545
X4.8855Y-3.6545
X4.9055Y-2.7645
X4.9305Y-4.3463
X4.9305Y-4.3837
X4.9505Y-3.1295
X4.9505Y-3.1995
X5.0083Y-3.5695
X5.0105Y-3.0295
X5.0183Y-3.8695
X5.0295Y-4.3465
X5.0295Y-4.3839
X5.0905Y-3.2295
X5.1005Y-2.9695
X5.1305Y-3.1195
X5.1405Y-3.4095
X5.1405Y-3.9795
X5.1555Y-3.3145
X5.1605Y-3.6545
X5.2255Y-3.6245
X5.2256Y-3.3245
X5.2955Y-2.9245
X5.2955Y-2.9695
X5.2955Y-3.0145
X5.2955Y-3.0545
X5.3705Y-3.1045
X5.3755Y-3.5695
X5.3983Y-3.8695
X5.4105Y-2.5695
X5.4105Y-2.7495
X5.4305Y-2.9345
X5.4405Y-3.2295
X5.4555Y-2.9695
X5.4605Y-4.0495
X5.4805Y-4.3795
X5.4955Y-3.3395
X5.5205Y-4.3795
X5.5705Y-3.6145
X5.5955Y-2.8445
X5.5955Y-3.0895
X5.6105Y-3.2295
X5.6177Y-2.9882
X5.6255Y-2.4795
X5.6355Y-3.0895
X5.6455Y-3.6545
X5.6505Y-2.7045
X5.6655Y-3.4195
X5.6705Y-2.4795
X5.6705Y-3.8245
X5.6855Y-2.7545
X5.7805Y-3.2845
X5.8305Y-4.0395
X5.8405Y-3.2195
X5.8505Y-3.8745
X5.8505Y-4.1345
X5.8655Y-2.9245
X5.8655Y-3.7145
X5.8705Y-3.4095
X5.8718Y-3.3645
X5.8755Y-2.7495
X5.8805Y-2.5445
X5.9655Y-2.9245
X5.9755Y-2.7495
X5.9755Y-3.0645
X5.9855Y-4.2895
X6.0046Y-3.7186
X6.0455Y-4.2245
X6.0505Y-4.0495
X6.0555Y-3.4745
X6.0605Y-3.6095
X6.0982Y-3.8384
X6.1055Y-2.5995
X6.1705Y-3.7195
X6.1705Y-3.7645
X6.2005Y-2.5195
X6.2155Y-3.7195
X6.2155Y-3.7645
X6.2155Y-4.2245
X6.2323Y-3.8452
X6.2505Y-4.0745
X6.2563Y-3.2188
X6.2855Y-3.8345
X6.3087Y-4.38
X6.3455Y-4.3795
X6.3555Y-2.8895
X6.3755Y-4.1945
X6.3955Y-3.4695
X6.4255Y-3.7443
X6.4905Y-3.1695
X6.5355Y-3.7195
X6.5755Y-4.0895
X6.5955Y-3.6795
X6.6043Y-4.3465
X6.6043Y-4.3839
X6.6155Y-2.6595
X6.6583Y-2.9338
X6.6605Y-3.1695
X6.7505Y-3.7745
X6.7655Y-3.6495
X6.7755Y-2.6595
X6.8205Y-3.1695
X6.8233Y-2.9338
X6.8305Y-3.9495
X6.9055Y-2.4795
X6.9055Y-2.8595
X6.9805Y-4.0895
X6.998Y-4.3465
X6.998Y-4.3839
X7.0355Y-3.1695
X7.0965Y-4.3465
X7.0965Y-4.3839
X7.2355Y-3.1695
X7.2405Y-2.9345
X7.3355Y-2.5795
X7.3355Y-2.8195
X7.5105Y-2.7395
X7.5555Y-3.0445
X7.5655Y-2.4895
X7.7355Y-2.8995
X7.7555Y-2.4495
X7.7605Y-2.6795
X7.7605Y-2.7645
X7.7953Y-4.252
X7.7953Y-4.2913
T5
X6.8605Y-3.3495
X6.8605Y-3.4495
X6.8605Y-3.5495
X6.8605Y-3.6495
X6.8605Y-3.7495
X6.8605Y-3.8495
X6.9605Y-3.2495
X6.9605Y-3.3495
X6.9605Y-3.4495
X6.9605Y-3.5495
X6.9605Y-3.6495
X6.9605Y-3.7495
X6.9605Y-3.8495
X6.9605Y-3.9495
X7.0605Y-3.2495
X7.0605Y-3.3495
X7.0605Y-3.4495
X7.0605Y-3.5495
X7.0605Y-3.6495
X7.0605Y-3.7495
X7.0605Y-3.8495
X7.0605Y-3.9495
X7.1605Y-3.2495
X7.1605Y-3.3495
X7.1605Y-3.4495
X7.1605Y-3.5495
X7.1605Y-3.6495
X7.1605Y-3.7495
X7.1605Y-3.8495
X7.1605Y-3.9495
X7.2605Y-3.2495
X7.2605Y-3.3495
X7.2605Y-3.4495
X7.2605Y-3.5495
X7.2605Y-3.6495
X7.2605Y-3.7495
X7.2605Y-3.8495
X7.2605Y-3.9495
X7.3605Y-3.2495
X7.3605Y-3.3495
X7.3605Y-3.4495
X7.3605Y-3.5495
X7.3605Y-3.6495
X7.3605Y-3.7495
X7.3605Y-3.8495
X7.3605Y-3.9495
X7.4605Y-3.2495
X7.4605Y-3.3495
X7.4605Y-3.4495
X7.4605Y-3.5495
X7.4605Y-3.6495
X7.4605Y-3.7495
X7.4605Y-3.8495
X7.4605Y-3.9495
X7.5605Y-3.2495
X7.5605Y-3.3495
X7.5605Y-3.4495
X7.5605Y-3.5495
X7.5605Y-3.6495
X7.5605Y-3.7495
X7.5605Y-3.8495
X7.5605Y-3.9495
X7.6605Y-3.2495
X7.6605Y-3.3495
X7.6605Y-3.4495
X7.6605Y-3.5495
X7.6605Y-3.6495
X7.6605Y-3.7495
X7.6605Y-3.8495
X7.6605Y-3.9495
T6
X4.0492Y-4.4331
X7.7815Y-4.4331
T3
G00X4.2246Y-2.5014
M15
G01X4.1773Y-2.5014
M16
G05
G00X4.2246Y-2.8415
M15
G01X4.1773Y-2.8415
M16
G05
G00X4.2249Y-2.8989
M15
G01X4.1777Y-2.8989
M16
G05
G00X4.2249Y-3.239
M15
G01X4.1777Y-3.239
M16
G05
T4
G00X4.0482Y-2.5014
M15
G01X4.0246Y-2.5014
M16
G05
G00X4.0482Y-2.8415
M15
G01X4.0246Y-2.8415
M16
G05
G00X4.0485Y-2.8989
M15
G01X4.0249Y-2.8989
M16
G05
G00X4.0485Y-3.239
M15
G01X4.0249Y-3.239
M16
G05
T0
M30
