G04 #@! TF.GenerationSoftware,KiCad,Pcbnew,(6.0.6)*
G04 #@! TF.CreationDate,2022-07-02T23:03:49+02:00*
G04 #@! TF.ProjectId,picocart64_v1,7069636f-6361-4727-9436-345f76312e6b,rev?*
G04 #@! TF.SameCoordinates,Original*
G04 #@! TF.FileFunction,Legend,Top*
G04 #@! TF.FilePolarity,Positive*
%FSLAX46Y46*%
G04 Gerber Fmt 4.6, Leading zero omitted, Abs format (unit mm)*
G04 Created by KiCad (PCBNEW (6.0.6)) date 2022-07-02 23:03:49*
%MOMM*%
%LPD*%
G01*
G04 APERTURE LIST*
%ADD10C,0.300000*%
%ADD11C,0.125000*%
%ADD12C,0.150000*%
%ADD13C,0.120000*%
G04 APERTURE END LIST*
D10*
X132571428Y-110178571D02*
X132571428Y-111178571D01*
X132214285Y-109607142D02*
X131857142Y-110678571D01*
X132785714Y-110678571D01*
X134071428Y-109678571D02*
X133357142Y-109678571D01*
X133285714Y-110392857D01*
X133357142Y-110321428D01*
X133500000Y-110250000D01*
X133857142Y-110250000D01*
X134000000Y-110321428D01*
X134071428Y-110392857D01*
X134142857Y-110535714D01*
X134142857Y-110892857D01*
X134071428Y-111035714D01*
X134000000Y-111107142D01*
X133857142Y-111178571D01*
X133500000Y-111178571D01*
X133357142Y-111107142D01*
X133285714Y-111035714D01*
X145071428Y-110178571D02*
X145071428Y-111178571D01*
X144714285Y-109607142D02*
X144357142Y-110678571D01*
X145285714Y-110678571D01*
X146142857Y-109678571D02*
X146285714Y-109678571D01*
X146428571Y-109750000D01*
X146500000Y-109821428D01*
X146571428Y-109964285D01*
X146642857Y-110250000D01*
X146642857Y-110607142D01*
X146571428Y-110892857D01*
X146500000Y-111035714D01*
X146428571Y-111107142D01*
X146285714Y-111178571D01*
X146142857Y-111178571D01*
X146000000Y-111107142D01*
X145928571Y-111035714D01*
X145857142Y-110892857D01*
X145785714Y-110607142D01*
X145785714Y-110250000D01*
X145857142Y-109964285D01*
X145928571Y-109821428D01*
X146000000Y-109750000D01*
X146142857Y-109678571D01*
X156785714Y-109678571D02*
X157714285Y-109678571D01*
X157214285Y-110250000D01*
X157428571Y-110250000D01*
X157571428Y-110321428D01*
X157642857Y-110392857D01*
X157714285Y-110535714D01*
X157714285Y-110892857D01*
X157642857Y-111035714D01*
X157571428Y-111107142D01*
X157428571Y-111178571D01*
X157000000Y-111178571D01*
X156857142Y-111107142D01*
X156785714Y-111035714D01*
X159071428Y-109678571D02*
X158357142Y-109678571D01*
X158285714Y-110392857D01*
X158357142Y-110321428D01*
X158500000Y-110250000D01*
X158857142Y-110250000D01*
X159000000Y-110321428D01*
X159071428Y-110392857D01*
X159142857Y-110535714D01*
X159142857Y-110892857D01*
X159071428Y-111035714D01*
X159000000Y-111107142D01*
X158857142Y-111178571D01*
X158500000Y-111178571D01*
X158357142Y-111107142D01*
X158285714Y-111035714D01*
X169285714Y-109678571D02*
X170214285Y-109678571D01*
X169714285Y-110250000D01*
X169928571Y-110250000D01*
X170071428Y-110321428D01*
X170142857Y-110392857D01*
X170214285Y-110535714D01*
X170214285Y-110892857D01*
X170142857Y-111035714D01*
X170071428Y-111107142D01*
X169928571Y-111178571D01*
X169500000Y-111178571D01*
X169357142Y-111107142D01*
X169285714Y-111035714D01*
X171142857Y-109678571D02*
X171285714Y-109678571D01*
X171428571Y-109750000D01*
X171500000Y-109821428D01*
X171571428Y-109964285D01*
X171642857Y-110250000D01*
X171642857Y-110607142D01*
X171571428Y-110892857D01*
X171500000Y-111035714D01*
X171428571Y-111107142D01*
X171285714Y-111178571D01*
X171142857Y-111178571D01*
X171000000Y-111107142D01*
X170928571Y-111035714D01*
X170857142Y-110892857D01*
X170785714Y-110607142D01*
X170785714Y-110250000D01*
X170857142Y-109964285D01*
X170928571Y-109821428D01*
X171000000Y-109750000D01*
X171142857Y-109678571D01*
X178857142Y-109821428D02*
X178928571Y-109750000D01*
X179071428Y-109678571D01*
X179428571Y-109678571D01*
X179571428Y-109750000D01*
X179642857Y-109821428D01*
X179714285Y-109964285D01*
X179714285Y-110107142D01*
X179642857Y-110321428D01*
X178785714Y-111178571D01*
X179714285Y-111178571D01*
X181000000Y-109678571D02*
X180714285Y-109678571D01*
X180571428Y-109750000D01*
X180500000Y-109821428D01*
X180357142Y-110035714D01*
X180285714Y-110321428D01*
X180285714Y-110892857D01*
X180357142Y-111035714D01*
X180428571Y-111107142D01*
X180571428Y-111178571D01*
X180857142Y-111178571D01*
X181000000Y-111107142D01*
X181071428Y-111035714D01*
X181142857Y-110892857D01*
X181142857Y-110535714D01*
X181071428Y-110392857D01*
X181000000Y-110321428D01*
X180857142Y-110250000D01*
X180571428Y-110250000D01*
X180428571Y-110321428D01*
X180357142Y-110392857D01*
X180285714Y-110535714D01*
D11*
X160397047Y-60925379D02*
X160397047Y-60425379D01*
X160516095Y-60425379D01*
X160587523Y-60449189D01*
X160635142Y-60496808D01*
X160658952Y-60544427D01*
X160682761Y-60639665D01*
X160682761Y-60711093D01*
X160658952Y-60806331D01*
X160635142Y-60853950D01*
X160587523Y-60901569D01*
X160516095Y-60925379D01*
X160397047Y-60925379D01*
D12*
X185707976Y-84719761D02*
X185850833Y-84767380D01*
X186088928Y-84767380D01*
X186184166Y-84719761D01*
X186231785Y-84672142D01*
X186279404Y-84576904D01*
X186279404Y-84481666D01*
X186231785Y-84386428D01*
X186184166Y-84338809D01*
X186088928Y-84291190D01*
X185898452Y-84243571D01*
X185803214Y-84195952D01*
X185755595Y-84148333D01*
X185707976Y-84053095D01*
X185707976Y-83957857D01*
X185755595Y-83862619D01*
X185803214Y-83815000D01*
X185898452Y-83767380D01*
X186136547Y-83767380D01*
X186279404Y-83815000D01*
X186469880Y-84862619D02*
X187231785Y-84862619D01*
X187469880Y-84767380D02*
X187469880Y-83767380D01*
X187707976Y-83767380D01*
X187850833Y-83815000D01*
X187946071Y-83910238D01*
X187993690Y-84005476D01*
X188041309Y-84195952D01*
X188041309Y-84338809D01*
X187993690Y-84529285D01*
X187946071Y-84624523D01*
X187850833Y-84719761D01*
X187707976Y-84767380D01*
X187469880Y-84767380D01*
X188422261Y-84481666D02*
X188898452Y-84481666D01*
X188327023Y-84767380D02*
X188660357Y-83767380D01*
X188993690Y-84767380D01*
X189184166Y-83767380D02*
X189755595Y-83767380D01*
X189469880Y-84767380D02*
X189469880Y-83767380D01*
D10*
X120142857Y-109678571D02*
X119428571Y-109678571D01*
X119357142Y-110392857D01*
X119428571Y-110321428D01*
X119571428Y-110250000D01*
X119928571Y-110250000D01*
X120071428Y-110321428D01*
X120142857Y-110392857D01*
X120214285Y-110535714D01*
X120214285Y-110892857D01*
X120142857Y-111035714D01*
X120071428Y-111107142D01*
X119928571Y-111178571D01*
X119571428Y-111178571D01*
X119428571Y-111107142D01*
X119357142Y-111035714D01*
X121142857Y-109678571D02*
X121285714Y-109678571D01*
X121428571Y-109750000D01*
X121500000Y-109821428D01*
X121571428Y-109964285D01*
X121642857Y-110250000D01*
X121642857Y-110607142D01*
X121571428Y-110892857D01*
X121500000Y-111035714D01*
X121428571Y-111107142D01*
X121285714Y-111178571D01*
X121142857Y-111178571D01*
X121000000Y-111107142D01*
X120928571Y-111035714D01*
X120857142Y-110892857D01*
X120785714Y-110607142D01*
X120785714Y-110250000D01*
X120857142Y-109964285D01*
X120928571Y-109821428D01*
X121000000Y-109750000D01*
X121142857Y-109678571D01*
D11*
X155602761Y-60897325D02*
X155436095Y-60659230D01*
X155317047Y-60897325D02*
X155317047Y-60397325D01*
X155507523Y-60397325D01*
X155555142Y-60421135D01*
X155578952Y-60444944D01*
X155602761Y-60492563D01*
X155602761Y-60563992D01*
X155578952Y-60611611D01*
X155555142Y-60635420D01*
X155507523Y-60659230D01*
X155317047Y-60659230D01*
D12*
X185641595Y-77147380D02*
X185641595Y-76147380D01*
X186213023Y-77147380D01*
X186213023Y-76147380D01*
X186689214Y-77147380D02*
X186689214Y-76147380D01*
X187022547Y-76861666D01*
X187355880Y-76147380D01*
X187355880Y-77147380D01*
X187832071Y-77147380D02*
X187832071Y-76147380D01*
X185755595Y-79687380D02*
X185755595Y-78687380D01*
X186231785Y-79687380D02*
X186231785Y-78687380D01*
X186803214Y-79687380D01*
X186803214Y-78687380D01*
X187136547Y-78687380D02*
X187707976Y-78687380D01*
X187422261Y-79687380D02*
X187422261Y-78687380D01*
D11*
X158142761Y-60863733D02*
X158118952Y-60887542D01*
X158047523Y-60911352D01*
X157999904Y-60911352D01*
X157928476Y-60887542D01*
X157880857Y-60839923D01*
X157857047Y-60792304D01*
X157833238Y-60697066D01*
X157833238Y-60625638D01*
X157857047Y-60530400D01*
X157880857Y-60482781D01*
X157928476Y-60435162D01*
X157999904Y-60411352D01*
X158047523Y-60411352D01*
X158118952Y-60435162D01*
X158142761Y-60458971D01*
D12*
X152527047Y-60777428D02*
X153288952Y-60777428D01*
X152908000Y-61158380D02*
X152908000Y-60396476D01*
D11*
X163198952Y-60456000D02*
X163151333Y-60432190D01*
X163079904Y-60432190D01*
X163008476Y-60456000D01*
X162960857Y-60503619D01*
X162937047Y-60551238D01*
X162913238Y-60646476D01*
X162913238Y-60717904D01*
X162937047Y-60813142D01*
X162960857Y-60860761D01*
X163008476Y-60908380D01*
X163079904Y-60932190D01*
X163127523Y-60932190D01*
X163198952Y-60908380D01*
X163222761Y-60884571D01*
X163222761Y-60717904D01*
X163127523Y-60717904D01*
D12*
X185707976Y-82179761D02*
X185850833Y-82227380D01*
X186088928Y-82227380D01*
X186184166Y-82179761D01*
X186231785Y-82132142D01*
X186279404Y-82036904D01*
X186279404Y-81941666D01*
X186231785Y-81846428D01*
X186184166Y-81798809D01*
X186088928Y-81751190D01*
X185898452Y-81703571D01*
X185803214Y-81655952D01*
X185755595Y-81608333D01*
X185707976Y-81513095D01*
X185707976Y-81417857D01*
X185755595Y-81322619D01*
X185803214Y-81275000D01*
X185898452Y-81227380D01*
X186136547Y-81227380D01*
X186279404Y-81275000D01*
X186707976Y-82227380D02*
X186707976Y-81227380D01*
X186946071Y-82322619D02*
X187707976Y-82322619D01*
X188517500Y-82132142D02*
X188469880Y-82179761D01*
X188327023Y-82227380D01*
X188231785Y-82227380D01*
X188088928Y-82179761D01*
X187993690Y-82084523D01*
X187946071Y-81989285D01*
X187898452Y-81798809D01*
X187898452Y-81655952D01*
X187946071Y-81465476D01*
X187993690Y-81370238D01*
X188088928Y-81275000D01*
X188231785Y-81227380D01*
X188327023Y-81227380D01*
X188469880Y-81275000D01*
X188517500Y-81322619D01*
X189422261Y-82227380D02*
X188946071Y-82227380D01*
X188946071Y-81227380D01*
X189755595Y-82227380D02*
X189755595Y-81227380D01*
X190327023Y-82227380D02*
X189898452Y-81655952D01*
X190327023Y-81227380D02*
X189755595Y-81798809D01*
X180916666Y-83753180D02*
X180916666Y-84467466D01*
X180869047Y-84610323D01*
X180773809Y-84705561D01*
X180630952Y-84753180D01*
X180535714Y-84753180D01*
X181392857Y-84753180D02*
X181392857Y-83753180D01*
X181773809Y-83753180D01*
X181869047Y-83800800D01*
X181916666Y-83848419D01*
X181964285Y-83943657D01*
X181964285Y-84086514D01*
X181916666Y-84181752D01*
X181869047Y-84229371D01*
X181773809Y-84276990D01*
X181392857Y-84276990D01*
X182916666Y-84753180D02*
X182345238Y-84753180D01*
X182630952Y-84753180D02*
X182630952Y-83753180D01*
X182535714Y-83896038D01*
X182440476Y-83991276D01*
X182345238Y-84038895D01*
X180916666Y-81227780D02*
X180916666Y-81942066D01*
X180869047Y-82084923D01*
X180773809Y-82180161D01*
X180630952Y-82227780D01*
X180535714Y-82227780D01*
X181392857Y-82227780D02*
X181392857Y-81227780D01*
X181773809Y-81227780D01*
X181869047Y-81275400D01*
X181916666Y-81323019D01*
X181964285Y-81418257D01*
X181964285Y-81561114D01*
X181916666Y-81656352D01*
X181869047Y-81703971D01*
X181773809Y-81751590D01*
X181392857Y-81751590D01*
X182345238Y-81323019D02*
X182392857Y-81275400D01*
X182488095Y-81227780D01*
X182726190Y-81227780D01*
X182821428Y-81275400D01*
X182869047Y-81323019D01*
X182916666Y-81418257D01*
X182916666Y-81513495D01*
X182869047Y-81656352D01*
X182297619Y-82227780D01*
X182916666Y-82227780D01*
X161238095Y-92852380D02*
X161238095Y-93661904D01*
X161285714Y-93757142D01*
X161333333Y-93804761D01*
X161428571Y-93852380D01*
X161619047Y-93852380D01*
X161714285Y-93804761D01*
X161761904Y-93757142D01*
X161809523Y-93661904D01*
X161809523Y-92852380D01*
X162190476Y-92852380D02*
X162809523Y-92852380D01*
X162476190Y-93233333D01*
X162619047Y-93233333D01*
X162714285Y-93280952D01*
X162761904Y-93328571D01*
X162809523Y-93423809D01*
X162809523Y-93661904D01*
X162761904Y-93757142D01*
X162714285Y-93804761D01*
X162619047Y-93852380D01*
X162333333Y-93852380D01*
X162238095Y-93804761D01*
X162190476Y-93757142D01*
D13*
X161635714Y-68350000D02*
X161550000Y-68307142D01*
X161421428Y-68307142D01*
X161292857Y-68350000D01*
X161207142Y-68435714D01*
X161164285Y-68521428D01*
X161121428Y-68692857D01*
X161121428Y-68821428D01*
X161164285Y-68992857D01*
X161207142Y-69078571D01*
X161292857Y-69164285D01*
X161421428Y-69207142D01*
X161507142Y-69207142D01*
X161635714Y-69164285D01*
X161678571Y-69121428D01*
X161678571Y-68821428D01*
X161507142Y-68821428D01*
X138428571Y-91607142D02*
X137914285Y-91607142D01*
X138171428Y-91607142D02*
X138171428Y-90707142D01*
X138085714Y-90835714D01*
X138000000Y-90921428D01*
X137914285Y-90964285D01*
X138985714Y-90707142D02*
X139071428Y-90707142D01*
X139157142Y-90750000D01*
X139200000Y-90792857D01*
X139242857Y-90878571D01*
X139285714Y-91050000D01*
X139285714Y-91264285D01*
X139242857Y-91435714D01*
X139200000Y-91521428D01*
X139157142Y-91564285D01*
X139071428Y-91607142D01*
X138985714Y-91607142D01*
X138900000Y-91564285D01*
X138857142Y-91521428D01*
X138814285Y-91435714D01*
X138771428Y-91264285D01*
X138771428Y-91050000D01*
X138814285Y-90878571D01*
X138857142Y-90792857D01*
X138900000Y-90750000D01*
X138985714Y-90707142D01*
X160514285Y-90992857D02*
X160557142Y-90950000D01*
X160642857Y-90907142D01*
X160857142Y-90907142D01*
X160942857Y-90950000D01*
X160985714Y-90992857D01*
X161028571Y-91078571D01*
X161028571Y-91164285D01*
X160985714Y-91292857D01*
X160471428Y-91807142D01*
X161028571Y-91807142D01*
X161585714Y-90907142D02*
X161671428Y-90907142D01*
X161757142Y-90950000D01*
X161800000Y-90992857D01*
X161842857Y-91078571D01*
X161885714Y-91250000D01*
X161885714Y-91464285D01*
X161842857Y-91635714D01*
X161800000Y-91721428D01*
X161757142Y-91764285D01*
X161671428Y-91807142D01*
X161585714Y-91807142D01*
X161500000Y-91764285D01*
X161457142Y-91721428D01*
X161414285Y-91635714D01*
X161371428Y-91464285D01*
X161371428Y-91250000D01*
X161414285Y-91078571D01*
X161457142Y-90992857D01*
X161500000Y-90950000D01*
X161585714Y-90907142D01*
X138757142Y-68307142D02*
X138842857Y-68307142D01*
X138928571Y-68350000D01*
X138971428Y-68392857D01*
X139014285Y-68478571D01*
X139057142Y-68650000D01*
X139057142Y-68864285D01*
X139014285Y-69035714D01*
X138971428Y-69121428D01*
X138928571Y-69164285D01*
X138842857Y-69207142D01*
X138757142Y-69207142D01*
X138671428Y-69164285D01*
X138628571Y-69121428D01*
X138585714Y-69035714D01*
X138542857Y-68864285D01*
X138542857Y-68650000D01*
X138585714Y-68478571D01*
X138628571Y-68392857D01*
X138671428Y-68350000D01*
X138757142Y-68307142D01*
D12*
X106158333Y-77922380D02*
X105825000Y-77446190D01*
X105586904Y-77922380D02*
X105586904Y-76922380D01*
X105967857Y-76922380D01*
X106063095Y-76970000D01*
X106110714Y-77017619D01*
X106158333Y-77112857D01*
X106158333Y-77255714D01*
X106110714Y-77350952D01*
X106063095Y-77398571D01*
X105967857Y-77446190D01*
X105586904Y-77446190D01*
X106491666Y-76922380D02*
X107110714Y-76922380D01*
X106777380Y-77303333D01*
X106920238Y-77303333D01*
X107015476Y-77350952D01*
X107063095Y-77398571D01*
X107110714Y-77493809D01*
X107110714Y-77731904D01*
X107063095Y-77827142D01*
X107015476Y-77874761D01*
X106920238Y-77922380D01*
X106634523Y-77922380D01*
X106539285Y-77874761D01*
X106491666Y-77827142D01*
X173656666Y-70572380D02*
X173656666Y-71286666D01*
X173609047Y-71429523D01*
X173513809Y-71524761D01*
X173370952Y-71572380D01*
X173275714Y-71572380D01*
X174561428Y-70905714D02*
X174561428Y-71572380D01*
X174323333Y-70524761D02*
X174085238Y-71239047D01*
X174704285Y-71239047D01*
X103973333Y-62682380D02*
X103640000Y-62206190D01*
X103401904Y-62682380D02*
X103401904Y-61682380D01*
X103782857Y-61682380D01*
X103878095Y-61730000D01*
X103925714Y-61777619D01*
X103973333Y-61872857D01*
X103973333Y-62015714D01*
X103925714Y-62110952D01*
X103878095Y-62158571D01*
X103782857Y-62206190D01*
X103401904Y-62206190D01*
X104925714Y-62682380D02*
X104354285Y-62682380D01*
X104640000Y-62682380D02*
X104640000Y-61682380D01*
X104544761Y-61825238D01*
X104449523Y-61920476D01*
X104354285Y-61968095D01*
X121916666Y-62404761D02*
X122059523Y-62452380D01*
X122297619Y-62452380D01*
X122392857Y-62404761D01*
X122440476Y-62357142D01*
X122488095Y-62261904D01*
X122488095Y-62166666D01*
X122440476Y-62071428D01*
X122392857Y-62023809D01*
X122297619Y-61976190D01*
X122107142Y-61928571D01*
X122011904Y-61880952D01*
X121964285Y-61833333D01*
X121916666Y-61738095D01*
X121916666Y-61642857D01*
X121964285Y-61547619D01*
X122011904Y-61500000D01*
X122107142Y-61452380D01*
X122345238Y-61452380D01*
X122488095Y-61500000D01*
X122821428Y-61452380D02*
X123059523Y-62452380D01*
X123250000Y-61738095D01*
X123440476Y-62452380D01*
X123678571Y-61452380D01*
X124583333Y-62452380D02*
X124011904Y-62452380D01*
X124297619Y-62452380D02*
X124297619Y-61452380D01*
X124202380Y-61595238D01*
X124107142Y-61690476D01*
X124011904Y-61738095D01*
X180916666Y-78702380D02*
X180916666Y-79416666D01*
X180869047Y-79559523D01*
X180773809Y-79654761D01*
X180630952Y-79702380D01*
X180535714Y-79702380D01*
X181392857Y-79702380D02*
X181392857Y-78702380D01*
X181773809Y-78702380D01*
X181869047Y-78750000D01*
X181916666Y-78797619D01*
X181964285Y-78892857D01*
X181964285Y-79035714D01*
X181916666Y-79130952D01*
X181869047Y-79178571D01*
X181773809Y-79226190D01*
X181392857Y-79226190D01*
X182297619Y-78702380D02*
X182916666Y-78702380D01*
X182583333Y-79083333D01*
X182726190Y-79083333D01*
X182821428Y-79130952D01*
X182869047Y-79178571D01*
X182916666Y-79273809D01*
X182916666Y-79511904D01*
X182869047Y-79607142D01*
X182821428Y-79654761D01*
X182726190Y-79702380D01*
X182440476Y-79702380D01*
X182345238Y-79654761D01*
X182297619Y-79607142D01*
X180916666Y-76184980D02*
X180916666Y-76899266D01*
X180869047Y-77042123D01*
X180773809Y-77137361D01*
X180630952Y-77184980D01*
X180535714Y-77184980D01*
X181392857Y-77184980D02*
X181392857Y-76184980D01*
X181773809Y-76184980D01*
X181869047Y-76232600D01*
X181916666Y-76280219D01*
X181964285Y-76375457D01*
X181964285Y-76518314D01*
X181916666Y-76613552D01*
X181869047Y-76661171D01*
X181773809Y-76708790D01*
X181392857Y-76708790D01*
X182821428Y-76518314D02*
X182821428Y-77184980D01*
X182583333Y-76137361D02*
X182345238Y-76851647D01*
X182964285Y-76851647D01*
X102833333Y-77882380D02*
X102500000Y-77406190D01*
X102261904Y-77882380D02*
X102261904Y-76882380D01*
X102642857Y-76882380D01*
X102738095Y-76930000D01*
X102785714Y-76977619D01*
X102833333Y-77072857D01*
X102833333Y-77215714D01*
X102785714Y-77310952D01*
X102738095Y-77358571D01*
X102642857Y-77406190D01*
X102261904Y-77406190D01*
X103214285Y-76977619D02*
X103261904Y-76930000D01*
X103357142Y-76882380D01*
X103595238Y-76882380D01*
X103690476Y-76930000D01*
X103738095Y-76977619D01*
X103785714Y-77072857D01*
X103785714Y-77168095D01*
X103738095Y-77310952D01*
X103166666Y-77882380D01*
X103785714Y-77882380D01*
X120554761Y-72937619D02*
X120459523Y-72890000D01*
X120364285Y-72794761D01*
X120221428Y-72651904D01*
X120126190Y-72604285D01*
X120030952Y-72604285D01*
X120078571Y-72842380D02*
X119983333Y-72794761D01*
X119888095Y-72699523D01*
X119840476Y-72509047D01*
X119840476Y-72175714D01*
X119888095Y-71985238D01*
X119983333Y-71890000D01*
X120078571Y-71842380D01*
X120269047Y-71842380D01*
X120364285Y-71890000D01*
X120459523Y-71985238D01*
X120507142Y-72175714D01*
X120507142Y-72509047D01*
X120459523Y-72699523D01*
X120364285Y-72794761D01*
X120269047Y-72842380D01*
X120078571Y-72842380D01*
X121459523Y-72842380D02*
X120888095Y-72842380D01*
X121173809Y-72842380D02*
X121173809Y-71842380D01*
X121078571Y-71985238D01*
X120983333Y-72080476D01*
X120888095Y-72128095D01*
X113454166Y-68998571D02*
X113120833Y-68998571D01*
X113120833Y-69522380D02*
X113120833Y-68522380D01*
X113597023Y-68522380D01*
X114311309Y-68998571D02*
X114454166Y-69046190D01*
X114501785Y-69093809D01*
X114549404Y-69189047D01*
X114549404Y-69331904D01*
X114501785Y-69427142D01*
X114454166Y-69474761D01*
X114358928Y-69522380D01*
X113977976Y-69522380D01*
X113977976Y-68522380D01*
X114311309Y-68522380D01*
X114406547Y-68570000D01*
X114454166Y-68617619D01*
X114501785Y-68712857D01*
X114501785Y-68808095D01*
X114454166Y-68903333D01*
X114406547Y-68950952D01*
X114311309Y-68998571D01*
X113977976Y-68998571D01*
X115501785Y-69522380D02*
X114930357Y-69522380D01*
X115216071Y-69522380D02*
X115216071Y-68522380D01*
X115120833Y-68665238D01*
X115025595Y-68760476D01*
X114930357Y-68808095D01*
D10*
X109458428Y-107045142D02*
X109744142Y-107140380D01*
X109839380Y-107235619D01*
X109934619Y-107426095D01*
X109934619Y-107711809D01*
X109839380Y-107902285D01*
X109744142Y-107997523D01*
X109553666Y-108092761D01*
X108791761Y-108092761D01*
X108791761Y-106092761D01*
X109458428Y-106092761D01*
X109648904Y-106188000D01*
X109744142Y-106283238D01*
X109839380Y-106473714D01*
X109839380Y-106664190D01*
X109744142Y-106854666D01*
X109648904Y-106949904D01*
X109458428Y-107045142D01*
X108791761Y-107045142D01*
X111648904Y-108092761D02*
X111648904Y-107045142D01*
X111553666Y-106854666D01*
X111363190Y-106759428D01*
X110982238Y-106759428D01*
X110791761Y-106854666D01*
X111648904Y-107997523D02*
X111458428Y-108092761D01*
X110982238Y-108092761D01*
X110791761Y-107997523D01*
X110696523Y-107807047D01*
X110696523Y-107616571D01*
X110791761Y-107426095D01*
X110982238Y-107330857D01*
X111458428Y-107330857D01*
X111648904Y-107235619D01*
X113458428Y-107997523D02*
X113267952Y-108092761D01*
X112887000Y-108092761D01*
X112696523Y-107997523D01*
X112601285Y-107902285D01*
X112506047Y-107711809D01*
X112506047Y-107140380D01*
X112601285Y-106949904D01*
X112696523Y-106854666D01*
X112887000Y-106759428D01*
X113267952Y-106759428D01*
X113458428Y-106854666D01*
X114315571Y-108092761D02*
X114315571Y-106092761D01*
X114506047Y-107330857D02*
X115077476Y-108092761D01*
X115077476Y-106759428D02*
X114315571Y-107521333D01*
X177994445Y-107095750D02*
X177899207Y-107000512D01*
X177708731Y-106905274D01*
X177518255Y-106905274D01*
X177327778Y-107000512D01*
X177232540Y-107095750D01*
X177137302Y-107286227D01*
X177137302Y-107476703D01*
X177232540Y-107667179D01*
X177327778Y-107762417D01*
X177518255Y-107857655D01*
X177708731Y-107857655D01*
X177899207Y-107762417D01*
X177994445Y-107667179D01*
X177994445Y-106905274D02*
X177994445Y-107667179D01*
X178089683Y-107762417D01*
X178184921Y-107762417D01*
X178375397Y-107667179D01*
X178470636Y-107476703D01*
X178470636Y-107000512D01*
X178280159Y-106714798D01*
X177994445Y-106524322D01*
X177613493Y-106429084D01*
X177232540Y-106524322D01*
X176946826Y-106714798D01*
X176756350Y-107000512D01*
X176661112Y-107381465D01*
X176756350Y-107762417D01*
X176946826Y-108048131D01*
X177232540Y-108238608D01*
X177613493Y-108333846D01*
X177994445Y-108238608D01*
X178280159Y-108048131D01*
X179327778Y-108048131D02*
X179327778Y-106048131D01*
X179518255Y-107286227D02*
X180089683Y-108048131D01*
X180089683Y-106714798D02*
X179327778Y-107476703D01*
X180946826Y-108048131D02*
X180946826Y-106048131D01*
X180946826Y-106810036D02*
X181137302Y-106714798D01*
X181518255Y-106714798D01*
X181708731Y-106810036D01*
X181803969Y-106905274D01*
X181899207Y-107095750D01*
X181899207Y-107667179D01*
X181803969Y-107857655D01*
X181708731Y-107952893D01*
X181518255Y-108048131D01*
X181137302Y-108048131D01*
X180946826Y-107952893D01*
X183518255Y-107952893D02*
X183327778Y-108048131D01*
X182946826Y-108048131D01*
X182756350Y-107952893D01*
X182661112Y-107762417D01*
X182661112Y-107000512D01*
X182756350Y-106810036D01*
X182946826Y-106714798D01*
X183327778Y-106714798D01*
X183518255Y-106810036D01*
X183613493Y-107000512D01*
X183613493Y-107190989D01*
X182661112Y-107381465D01*
X185327778Y-107952893D02*
X185137302Y-108048131D01*
X184756350Y-108048131D01*
X184565874Y-107952893D01*
X184470636Y-107857655D01*
X184375397Y-107667179D01*
X184375397Y-107095750D01*
X184470636Y-106905274D01*
X184565874Y-106810036D01*
X184756350Y-106714798D01*
X185137302Y-106714798D01*
X185327778Y-106810036D01*
X186184921Y-108048131D02*
X186184921Y-106048131D01*
X186375397Y-107286227D02*
X186946826Y-108048131D01*
X186946826Y-106714798D02*
X186184921Y-107476703D01*
X187803969Y-108048131D02*
X187803969Y-106714798D01*
X187803969Y-106905274D02*
X187899207Y-106810036D01*
X188089683Y-106714798D01*
X188375397Y-106714798D01*
X188565874Y-106810036D01*
X188661112Y-107000512D01*
X188661112Y-108048131D01*
X188661112Y-107000512D02*
X188756350Y-106810036D01*
X188946826Y-106714798D01*
X189232540Y-106714798D01*
X189423017Y-106810036D01*
X189518255Y-107000512D01*
X189518255Y-108048131D01*
X191327778Y-108048131D02*
X191327778Y-107000512D01*
X191232540Y-106810036D01*
X191042064Y-106714798D01*
X190661112Y-106714798D01*
X190470636Y-106810036D01*
X191327778Y-107952893D02*
X191137302Y-108048131D01*
X190661112Y-108048131D01*
X190470636Y-107952893D01*
X190375397Y-107762417D01*
X190375397Y-107571941D01*
X190470636Y-107381465D01*
X190661112Y-107286227D01*
X191137302Y-107286227D01*
X191327778Y-107190989D01*
X192280159Y-106714798D02*
X192280159Y-108048131D01*
X192280159Y-106905274D02*
X192375397Y-106810036D01*
X192565874Y-106714798D01*
X192851588Y-106714798D01*
X193042064Y-106810036D01*
X193137302Y-107000512D01*
X193137302Y-108048131D01*
X194089683Y-106714798D02*
X194089683Y-108048131D01*
X194089683Y-106905274D02*
X194184921Y-106810036D01*
X194375397Y-106714798D01*
X194661112Y-106714798D01*
X194851588Y-106810036D01*
X194946826Y-107000512D01*
X194946826Y-108048131D01*
X171575476Y-105044761D02*
X171575476Y-103044761D01*
X172337380Y-103044761D01*
X172527857Y-103140000D01*
X172623095Y-103235238D01*
X172718333Y-103425714D01*
X172718333Y-103711428D01*
X172623095Y-103901904D01*
X172527857Y-103997142D01*
X172337380Y-104092380D01*
X171575476Y-104092380D01*
X173575476Y-105044761D02*
X173575476Y-103711428D01*
X173575476Y-103044761D02*
X173480238Y-103140000D01*
X173575476Y-103235238D01*
X173670714Y-103140000D01*
X173575476Y-103044761D01*
X173575476Y-103235238D01*
X175385000Y-104949523D02*
X175194523Y-105044761D01*
X174813571Y-105044761D01*
X174623095Y-104949523D01*
X174527857Y-104854285D01*
X174432619Y-104663809D01*
X174432619Y-104092380D01*
X174527857Y-103901904D01*
X174623095Y-103806666D01*
X174813571Y-103711428D01*
X175194523Y-103711428D01*
X175385000Y-103806666D01*
X176527857Y-105044761D02*
X176337380Y-104949523D01*
X176242142Y-104854285D01*
X176146904Y-104663809D01*
X176146904Y-104092380D01*
X176242142Y-103901904D01*
X176337380Y-103806666D01*
X176527857Y-103711428D01*
X176813571Y-103711428D01*
X177004047Y-103806666D01*
X177099285Y-103901904D01*
X177194523Y-104092380D01*
X177194523Y-104663809D01*
X177099285Y-104854285D01*
X177004047Y-104949523D01*
X176813571Y-105044761D01*
X176527857Y-105044761D01*
X179194523Y-104854285D02*
X179099285Y-104949523D01*
X178813571Y-105044761D01*
X178623095Y-105044761D01*
X178337380Y-104949523D01*
X178146904Y-104759047D01*
X178051666Y-104568571D01*
X177956428Y-104187619D01*
X177956428Y-103901904D01*
X178051666Y-103520952D01*
X178146904Y-103330476D01*
X178337380Y-103140000D01*
X178623095Y-103044761D01*
X178813571Y-103044761D01*
X179099285Y-103140000D01*
X179194523Y-103235238D01*
X180908809Y-105044761D02*
X180908809Y-103997142D01*
X180813571Y-103806666D01*
X180623095Y-103711428D01*
X180242142Y-103711428D01*
X180051666Y-103806666D01*
X180908809Y-104949523D02*
X180718333Y-105044761D01*
X180242142Y-105044761D01*
X180051666Y-104949523D01*
X179956428Y-104759047D01*
X179956428Y-104568571D01*
X180051666Y-104378095D01*
X180242142Y-104282857D01*
X180718333Y-104282857D01*
X180908809Y-104187619D01*
X181861190Y-105044761D02*
X181861190Y-103711428D01*
X181861190Y-104092380D02*
X181956428Y-103901904D01*
X182051666Y-103806666D01*
X182242142Y-103711428D01*
X182432619Y-103711428D01*
X182813571Y-103711428D02*
X183575476Y-103711428D01*
X183099285Y-103044761D02*
X183099285Y-104759047D01*
X183194523Y-104949523D01*
X183385000Y-105044761D01*
X183575476Y-105044761D01*
X185099285Y-103044761D02*
X184718333Y-103044761D01*
X184527857Y-103140000D01*
X184432619Y-103235238D01*
X184242142Y-103520952D01*
X184146904Y-103901904D01*
X184146904Y-104663809D01*
X184242142Y-104854285D01*
X184337380Y-104949523D01*
X184527857Y-105044761D01*
X184908809Y-105044761D01*
X185099285Y-104949523D01*
X185194523Y-104854285D01*
X185289761Y-104663809D01*
X185289761Y-104187619D01*
X185194523Y-103997142D01*
X185099285Y-103901904D01*
X184908809Y-103806666D01*
X184527857Y-103806666D01*
X184337380Y-103901904D01*
X184242142Y-103997142D01*
X184146904Y-104187619D01*
X187004047Y-103711428D02*
X187004047Y-105044761D01*
X186527857Y-102949523D02*
X186051666Y-104378095D01*
X187289761Y-104378095D01*
X189385000Y-103711428D02*
X189861190Y-105044761D01*
X190337380Y-103711428D01*
X192146904Y-105044761D02*
X191004047Y-105044761D01*
X191575476Y-105044761D02*
X191575476Y-103044761D01*
X191385000Y-103330476D01*
X191194523Y-103520952D01*
X191004047Y-103616190D01*
X193004047Y-104854285D02*
X193099285Y-104949523D01*
X193004047Y-105044761D01*
X192908809Y-104949523D01*
X193004047Y-104854285D01*
X193004047Y-105044761D01*
X195004047Y-105044761D02*
X193861190Y-105044761D01*
X194432619Y-105044761D02*
X194432619Y-103044761D01*
X194242142Y-103330476D01*
X194051666Y-103520952D01*
X193861190Y-103616190D01*
D13*
X175384000Y-85378800D02*
X175384000Y-83378800D01*
X178184000Y-83378800D02*
X178184000Y-85378800D01*
X178184000Y-85378800D02*
X175384000Y-85378800D01*
X175384000Y-83378800D02*
X178184000Y-83378800D01*
X154183000Y-63814000D02*
X164403000Y-63814000D01*
X151583000Y-63814000D02*
X151583000Y-62484000D01*
X154183000Y-61154000D02*
X164403000Y-61154000D01*
X164403000Y-63814000D02*
X164403000Y-61154000D01*
X154183000Y-63814000D02*
X154183000Y-61154000D01*
X152913000Y-63814000D02*
X151583000Y-63814000D01*
X178184000Y-80813400D02*
X178184000Y-82813400D01*
X175384000Y-82813400D02*
X175384000Y-80813400D01*
X175384000Y-80813400D02*
X178184000Y-80813400D01*
X178184000Y-82813400D02*
X175384000Y-82813400D01*
X138500000Y-69600000D02*
X138800000Y-69900000D01*
D12*
X138900000Y-67400000D02*
X140000000Y-67400000D01*
X162600000Y-67400000D02*
X162600000Y-70000000D01*
X162600000Y-90000000D02*
X162600000Y-92600000D01*
X162600000Y-92600000D02*
X160000000Y-92600000D01*
D13*
X160700000Y-68500000D02*
X160400000Y-68800000D01*
D12*
X137400000Y-70000000D02*
X137400000Y-68900000D01*
X137400000Y-70000000D02*
X136700000Y-70000000D01*
D13*
X138800000Y-69900000D02*
X139100000Y-69600000D01*
D12*
X137400000Y-92600000D02*
X137400000Y-90000000D01*
D13*
X161200000Y-90200000D02*
X160900000Y-90500000D01*
X160400000Y-68800000D02*
X160700000Y-69100000D01*
X139700000Y-91500000D02*
X140000000Y-91200000D01*
X161500000Y-90500000D02*
X161200000Y-90200000D01*
D12*
X140000000Y-92600000D02*
X137400000Y-92600000D01*
X160000000Y-67400000D02*
X162600000Y-67400000D01*
D13*
X140000000Y-91200000D02*
X139700000Y-90900000D01*
D12*
X138900000Y-67400000D02*
G75*
G03*
X137400000Y-68900000I116790J-1616790D01*
G01*
X99744000Y-73115000D02*
X99744000Y-63915000D01*
X99744000Y-63915000D02*
X101694000Y-63915000D01*
X103344000Y-63915000D02*
X105644000Y-63915000D01*
X99744000Y-73115000D02*
X101694000Y-73115000D01*
X103344000Y-73115000D02*
X105644000Y-73115000D01*
D13*
X106087742Y-75477500D02*
X106562258Y-75477500D01*
X106087742Y-76522500D02*
X106562258Y-76522500D01*
X167666000Y-68710000D02*
X167666000Y-71010000D01*
X169146000Y-61490000D02*
X170006000Y-61490000D01*
X167666000Y-72410000D02*
X167666000Y-73130000D01*
X178616000Y-73130000D02*
X179846000Y-73130000D01*
X179846000Y-73130000D02*
X179846000Y-63310000D01*
X167666000Y-73130000D02*
X170346000Y-73130000D01*
X167666000Y-62860000D02*
X167666000Y-67310000D01*
X172646000Y-73130000D02*
X176316000Y-73130000D01*
X107737258Y-61477500D02*
X107262742Y-61477500D01*
X107737258Y-62522500D02*
X107262742Y-62522500D01*
X129020000Y-60166000D02*
X135140000Y-60166000D01*
X135140000Y-60166000D02*
X135140000Y-63786000D01*
X135140000Y-63786000D02*
X129020000Y-63786000D01*
X129020000Y-63786000D02*
X129020000Y-60166000D01*
X175384000Y-80248000D02*
X175384000Y-78248000D01*
X175384000Y-78248000D02*
X178184000Y-78248000D01*
X178184000Y-80248000D02*
X175384000Y-80248000D01*
X178184000Y-78248000D02*
X178184000Y-80248000D01*
X175384000Y-77682600D02*
X175384000Y-75682600D01*
X178184000Y-75682600D02*
X178184000Y-77682600D01*
X175384000Y-75682600D02*
X178184000Y-75682600D01*
X178184000Y-77682600D02*
X175384000Y-77682600D01*
X103237258Y-76522500D02*
X102762742Y-76522500D01*
X103237258Y-75477500D02*
X102762742Y-75477500D01*
X116500000Y-72190000D02*
X114825000Y-72190000D01*
X116500000Y-72190000D02*
X117150000Y-72190000D01*
X116500000Y-75310000D02*
X115850000Y-75310000D01*
X116500000Y-75310000D02*
X117150000Y-75310000D01*
X197090240Y-52939000D02*
X197090240Y-61569000D01*
X197208335Y-52939000D02*
X197208335Y-61569000D01*
X196465000Y-61569000D02*
X196465000Y-61979000D01*
X192105000Y-61569000D02*
X192105000Y-61979000D01*
X195791195Y-52939000D02*
X195791195Y-61569000D01*
X196465000Y-64079000D02*
X196465000Y-64459000D01*
X198035000Y-52939000D02*
X198035000Y-61569000D01*
X196263575Y-52939000D02*
X196263575Y-61569000D01*
X197562620Y-52939000D02*
X197562620Y-61569000D01*
X195909290Y-52939000D02*
X195909290Y-61569000D01*
X188845000Y-61569000D02*
X188845000Y-61979000D01*
X182795000Y-52939000D02*
X182795000Y-61569000D01*
X198155000Y-65569000D02*
X198155000Y-66679000D01*
X194645000Y-64079000D02*
X194645000Y-64519000D01*
X193925000Y-61569000D02*
X193925000Y-61979000D01*
X197444525Y-52939000D02*
X197444525Y-61569000D01*
X194645000Y-61569000D02*
X194645000Y-61979000D01*
X193925000Y-64079000D02*
X193925000Y-64519000D01*
X187025000Y-64079000D02*
X187025000Y-64519000D01*
X197916905Y-52939000D02*
X197916905Y-61569000D01*
X187025000Y-61569000D02*
X187025000Y-61979000D01*
X196381670Y-52939000D02*
X196381670Y-61569000D01*
X192105000Y-64079000D02*
X192105000Y-64519000D01*
X197680715Y-52939000D02*
X197680715Y-61569000D01*
X197185000Y-61569000D02*
X197185000Y-61979000D01*
X197185000Y-64079000D02*
X197185000Y-64459000D01*
X196499765Y-52939000D02*
X196499765Y-61569000D01*
X183765000Y-61569000D02*
X183765000Y-61979000D01*
X198155000Y-66679000D02*
X196825000Y-66679000D01*
X186305000Y-64079000D02*
X186305000Y-64519000D01*
X184485000Y-64079000D02*
X184485000Y-64519000D01*
X197798810Y-52939000D02*
X197798810Y-61569000D01*
X198155000Y-52939000D02*
X198155000Y-61569000D01*
X195673100Y-52939000D02*
X195673100Y-61569000D01*
X190475000Y-52939000D02*
X190475000Y-61569000D01*
X189565000Y-64079000D02*
X189565000Y-64519000D01*
X187935000Y-52939000D02*
X187935000Y-61569000D01*
X193015000Y-52939000D02*
X193015000Y-61569000D01*
X185395000Y-52939000D02*
X185395000Y-61569000D01*
X191385000Y-61569000D02*
X191385000Y-61979000D01*
X196145480Y-52939000D02*
X196145480Y-61569000D01*
X184485000Y-61569000D02*
X184485000Y-61979000D01*
X191385000Y-64079000D02*
X191385000Y-64519000D01*
X183765000Y-64079000D02*
X183765000Y-64519000D01*
X198155000Y-61569000D02*
X182795000Y-61569000D01*
X188845000Y-64079000D02*
X188845000Y-64519000D01*
X186305000Y-61569000D02*
X186305000Y-61979000D01*
X196972145Y-52939000D02*
X196972145Y-61569000D01*
X189565000Y-61569000D02*
X189565000Y-61979000D01*
X198155000Y-52939000D02*
X182795000Y-52939000D01*
X196027385Y-52939000D02*
X196027385Y-61569000D01*
X196617860Y-52939000D02*
X196617860Y-61569000D01*
X196735955Y-52939000D02*
X196735955Y-61569000D01*
X196854050Y-52939000D02*
X196854050Y-61569000D01*
X197326430Y-52939000D02*
X197326430Y-61569000D01*
X195555000Y-52939000D02*
X195555000Y-61569000D01*
X114124721Y-71010000D02*
X114450279Y-71010000D01*
X114124721Y-69990000D02*
X114450279Y-69990000D01*
M02*
