G04 #@! TF.GenerationSoftware,KiCad,Pcbnew,(6.0.6)*
G04 #@! TF.CreationDate,2022-07-02T23:03:49+02:00*
G04 #@! TF.ProjectId,picocart64_v1,7069636f-6361-4727-9436-345f76312e6b,rev?*
G04 #@! TF.SameCoordinates,Original*
G04 #@! TF.FileFunction,Soldermask,Bot*
G04 #@! TF.FilePolarity,Negative*
%FSLAX46Y46*%
G04 Gerber Fmt 4.6, Leading zero omitted, Abs format (unit mm)*
G04 Created by KiCad (PCBNEW (6.0.6)) date 2022-07-02 23:03:49*
%MOMM*%
%LPD*%
G01*
G04 APERTURE LIST*
G04 Aperture macros list*
%AMRoundRect*
0 Rectangle with rounded corners*
0 $1 Rounding radius*
0 $2 $3 $4 $5 $6 $7 $8 $9 X,Y pos of 4 corners*
0 Add a 4 corners polygon primitive as box body*
4,1,4,$2,$3,$4,$5,$6,$7,$8,$9,$2,$3,0*
0 Add four circle primitives for the rounded corners*
1,1,$1+$1,$2,$3*
1,1,$1+$1,$4,$5*
1,1,$1+$1,$6,$7*
1,1,$1+$1,$8,$9*
0 Add four rect primitives between the rounded corners*
20,1,$1+$1,$2,$3,$4,$5,0*
20,1,$1+$1,$4,$5,$6,$7,0*
20,1,$1+$1,$6,$7,$8,$9,0*
20,1,$1+$1,$8,$9,$2,$3,0*%
G04 Aperture macros list end*
%ADD10C,2.760000*%
%ADD11RoundRect,0.130000X0.850000X-0.850000X0.850000X0.850000X-0.850000X0.850000X-0.850000X-0.850000X0*%
%ADD12O,1.960000X1.960000*%
%ADD13O,2.260000X1.210000*%
%ADD14RoundRect,0.130000X-0.650000X-0.450000X0.650000X-0.450000X0.650000X0.450000X-0.650000X0.450000X0*%
%ADD15C,1.610000*%
%ADD16O,1.610000X1.610000*%
%ADD17RoundRect,0.130000X0.450000X-0.650000X0.450000X0.650000X-0.450000X0.650000X-0.450000X-0.650000X0*%
%ADD18O,1.210000X2.260000*%
%ADD19RoundRect,0.130000X0.650000X0.450000X-0.650000X0.450000X-0.650000X-0.450000X0.650000X-0.450000X0*%
%ADD20RoundRect,0.130000X-0.450000X0.650000X-0.450000X-0.650000X0.450000X-0.650000X0.450000X0.650000X0*%
%ADD21C,0.910000*%
%ADD22O,2.360000X1.160000*%
%ADD23O,1.860000X1.260000*%
%ADD24RoundRect,0.130000X-0.850000X0.850000X-0.850000X-0.850000X0.850000X-0.850000X0.850000X0.850000X0*%
%ADD25C,1.060000*%
G04 APERTURE END LIST*
D10*
X102850000Y-112600000D03*
X197650000Y-112600000D03*
D11*
X152913000Y-62484000D03*
D12*
X155453000Y-62484000D03*
X157993000Y-62484000D03*
X160533000Y-62484000D03*
X163073000Y-62484000D03*
D13*
X137150000Y-71000000D03*
D14*
X135300000Y-71000000D03*
D15*
X139000000Y-71000000D03*
D16*
X139000000Y-73000000D03*
D13*
X137150000Y-73000000D03*
D14*
X135300000Y-73000000D03*
D13*
X137150000Y-75000000D03*
D14*
X135300000Y-75000000D03*
D16*
X139000000Y-75000000D03*
D14*
X135300000Y-77000000D03*
D16*
X139000000Y-77000000D03*
D13*
X137150000Y-77000000D03*
X137150000Y-79000000D03*
D16*
X139000000Y-79000000D03*
D14*
X135300000Y-79000000D03*
X135300000Y-81000000D03*
D13*
X137150000Y-81000000D03*
D16*
X139000000Y-81000000D03*
D14*
X135300000Y-83000000D03*
D16*
X139000000Y-83000000D03*
D13*
X137150000Y-83000000D03*
D16*
X139000000Y-85000000D03*
D13*
X137150000Y-85000000D03*
D14*
X135300000Y-85000000D03*
X135300000Y-87000000D03*
D13*
X137150000Y-87000000D03*
D16*
X139000000Y-87000000D03*
D14*
X135300000Y-89000000D03*
D13*
X137150000Y-89000000D03*
D16*
X139000000Y-89000000D03*
D17*
X141000000Y-94700000D03*
D16*
X141000000Y-91000000D03*
D18*
X141000000Y-92850000D03*
D16*
X143000000Y-91000000D03*
D18*
X143000000Y-92850000D03*
D17*
X143000000Y-94700000D03*
D18*
X145000000Y-92850000D03*
D16*
X145000000Y-91000000D03*
D17*
X145000000Y-94700000D03*
D18*
X147000000Y-92850000D03*
D16*
X147000000Y-91000000D03*
D17*
X147000000Y-94700000D03*
D18*
X149000000Y-92850000D03*
D17*
X149000000Y-94700000D03*
D16*
X149000000Y-91000000D03*
X151000000Y-91000000D03*
D18*
X151000000Y-92850000D03*
D17*
X151000000Y-94700000D03*
D18*
X153000000Y-92850000D03*
D16*
X153000000Y-91000000D03*
D17*
X153000000Y-94700000D03*
X155000000Y-94700000D03*
D16*
X155000000Y-91000000D03*
D18*
X155000000Y-92850000D03*
D16*
X157000000Y-91000000D03*
D18*
X157000000Y-92850000D03*
D17*
X157000000Y-94700000D03*
X159000000Y-94700000D03*
D18*
X159000000Y-92850000D03*
D16*
X159000000Y-91000000D03*
D13*
X162850000Y-89000000D03*
D19*
X164700000Y-89000000D03*
D16*
X161000000Y-89000000D03*
D13*
X162850000Y-87000000D03*
D19*
X164700000Y-87000000D03*
D16*
X161000000Y-87000000D03*
D19*
X164700000Y-85000000D03*
D13*
X162850000Y-85000000D03*
D16*
X161000000Y-85000000D03*
D19*
X164700000Y-83000000D03*
D16*
X161000000Y-83000000D03*
D13*
X162850000Y-83000000D03*
D19*
X164700000Y-81000000D03*
D16*
X161000000Y-81000000D03*
D13*
X162850000Y-81000000D03*
D16*
X161000000Y-79000000D03*
D19*
X164700000Y-79000000D03*
D13*
X162850000Y-79000000D03*
X162850000Y-77000000D03*
D19*
X164700000Y-77000000D03*
D16*
X161000000Y-77000000D03*
X161000000Y-75000000D03*
D19*
X164700000Y-75000000D03*
D13*
X162850000Y-75000000D03*
X162850000Y-73000000D03*
D16*
X161000000Y-73000000D03*
D19*
X164700000Y-73000000D03*
D16*
X161000000Y-71000000D03*
D13*
X162850000Y-71000000D03*
D19*
X164700000Y-71000000D03*
D16*
X159000000Y-69000000D03*
D18*
X159000000Y-67150000D03*
D20*
X159000000Y-65300000D03*
X157000000Y-65300000D03*
D18*
X157000000Y-67150000D03*
D16*
X157000000Y-69000000D03*
D18*
X155000000Y-67150000D03*
D16*
X155000000Y-69000000D03*
D20*
X155000000Y-65300000D03*
X153000000Y-65300000D03*
D18*
X153000000Y-67150000D03*
D16*
X153000000Y-69000000D03*
D20*
X151000000Y-65300000D03*
D16*
X151000000Y-69000000D03*
D18*
X151000000Y-67150000D03*
D16*
X149000000Y-69000000D03*
D20*
X149000000Y-65300000D03*
D18*
X149000000Y-67150000D03*
D16*
X147000000Y-69000000D03*
D18*
X147000000Y-67150000D03*
D20*
X147000000Y-65300000D03*
D18*
X145000000Y-67150000D03*
D16*
X145000000Y-69000000D03*
D20*
X145000000Y-65300000D03*
X143000000Y-65300000D03*
D16*
X143000000Y-69000000D03*
D18*
X143000000Y-67150000D03*
D20*
X141000000Y-65300000D03*
D16*
X141000000Y-69000000D03*
D18*
X141000000Y-67150000D03*
D21*
X106204000Y-71405000D03*
X106204000Y-65625000D03*
D22*
X106704000Y-64195000D03*
D23*
X102524000Y-64195000D03*
D22*
X106704000Y-72835000D03*
D23*
X102524000Y-72835000D03*
D24*
X196825000Y-65569000D03*
D12*
X196825000Y-63029000D03*
X194285000Y-65569000D03*
X194285000Y-63029000D03*
X191745000Y-65569000D03*
X191745000Y-63029000D03*
X189205000Y-65569000D03*
X189205000Y-63029000D03*
X186665000Y-65569000D03*
X186665000Y-63029000D03*
X184125000Y-65569000D03*
X184125000Y-63029000D03*
D25*
X110200000Y-73001800D03*
X110200000Y-72001800D03*
X111400000Y-72001800D03*
X111400000Y-73001800D03*
X102108000Y-105156000D03*
X180250000Y-111350000D03*
X180250000Y-110400000D03*
X177750000Y-111350000D03*
X177750000Y-110400000D03*
X167750000Y-110400000D03*
X167750000Y-111350000D03*
X127750000Y-111350000D03*
X127750000Y-110400000D03*
X125250000Y-110400000D03*
X125250000Y-111350000D03*
X120250000Y-111350000D03*
X120250000Y-110400000D03*
X105476448Y-102095000D03*
X193924102Y-79235000D03*
X105275405Y-91935000D03*
X198000000Y-108000000D03*
X159000000Y-70250000D03*
X122974400Y-67652600D03*
X194326187Y-99555000D03*
X110179000Y-65001800D03*
X159000000Y-71250000D03*
X163335000Y-97650000D03*
X105325666Y-94475000D03*
X194125145Y-89395000D03*
X194175405Y-91935000D03*
X107250000Y-77000000D03*
X111379000Y-65001800D03*
X105526709Y-104635000D03*
X105550000Y-107175000D03*
X129032000Y-66548000D03*
X194225666Y-94475000D03*
X168897600Y-63080600D03*
X120904000Y-64516000D03*
X105074363Y-81775000D03*
X153810000Y-76695000D03*
X143650000Y-81775000D03*
X148095000Y-105905000D03*
X127140000Y-83045000D03*
X105174884Y-86855000D03*
X132588000Y-66548000D03*
X194024624Y-84315000D03*
X105024102Y-79235000D03*
X198000000Y-109000000D03*
X175400000Y-71615000D03*
X194426709Y-104635000D03*
X180500000Y-62172300D03*
X178956000Y-72681800D03*
X166750000Y-68000000D03*
X118364000Y-67056000D03*
X125984000Y-66548000D03*
X194450000Y-107175000D03*
X125870000Y-84950000D03*
X105375927Y-97015000D03*
X125476000Y-61976000D03*
X102000000Y-77000000D03*
X105426187Y-99555000D03*
X193974363Y-81775000D03*
X176365200Y-63893400D03*
X165875000Y-91935000D03*
X102108000Y-106680000D03*
X194376448Y-102095000D03*
X135636000Y-66548000D03*
X105124624Y-84315000D03*
X194275927Y-97015000D03*
X194074884Y-86855000D03*
X105225145Y-89395000D03*
X130950000Y-79235000D03*
X113000000Y-74750000D03*
X174752000Y-66548000D03*
X148323600Y-83756200D03*
X157734000Y-80010000D03*
X138430000Y-96774000D03*
X179324000Y-76745800D03*
X142500000Y-101000000D03*
X150000000Y-87617000D03*
X160241000Y-110259000D03*
X119500000Y-74000000D03*
X140241000Y-110259000D03*
X140241000Y-111259000D03*
X160241000Y-111252000D03*
X139750000Y-97750000D03*
X179362400Y-81775000D03*
X135166400Y-107073400D03*
X159144000Y-85991400D03*
X148069600Y-85940600D03*
X143750000Y-102000000D03*
X152184400Y-87007400D03*
X139000000Y-108000000D03*
X116250000Y-70500000D03*
X155000000Y-70750000D03*
X175250000Y-102000000D03*
X172758400Y-105854200D03*
X170250000Y-106045000D03*
X165240000Y-107987800D03*
X155250000Y-106500000D03*
X152743200Y-107733800D03*
X130302000Y-81000000D03*
X128778000Y-83000000D03*
X145000000Y-105750000D03*
X127508000Y-85000000D03*
X142750000Y-107000000D03*
X126500000Y-87000000D03*
X146444000Y-107733800D03*
X149695200Y-107683000D03*
X152133600Y-105244600D03*
X163970000Y-105143000D03*
X168656000Y-107950000D03*
X171704000Y-107950000D03*
X174028400Y-107886200D03*
X162750800Y-108241800D03*
X153708400Y-98031000D03*
X156502400Y-107733800D03*
X155842000Y-99656600D03*
X158026400Y-99047000D03*
X158940800Y-101434600D03*
X142989600Y-86905800D03*
X134620000Y-92456000D03*
X131661200Y-104177800D03*
X139700000Y-67564000D03*
X139700000Y-61976000D03*
X143650000Y-78117400D03*
X151727200Y-78117400D03*
X183731200Y-81267000D03*
X148018800Y-88429800D03*
X180429200Y-79235000D03*
X141160800Y-99656600D03*
X183223200Y-86093000D03*
X110200000Y-66401800D03*
X111400000Y-70701800D03*
X110200000Y-70701800D03*
X111400000Y-66401800D03*
X175044400Y-63842600D03*
X178244800Y-66331800D03*
X175500000Y-74000000D03*
X185420000Y-70104000D03*
X177178000Y-67601800D03*
X169672000Y-75184000D03*
X171793200Y-65519000D03*
X181394400Y-76695000D03*
X172707600Y-66890600D03*
X186372800Y-80505000D03*
X170574000Y-64706200D03*
G36*
X103442121Y-88520002D02*
G01*
X103488614Y-88573658D01*
X103500000Y-88626000D01*
X103500000Y-109481885D01*
X103504475Y-109497124D01*
X103505865Y-109498329D01*
X103513548Y-109500000D01*
X103520838Y-109500000D01*
X103588959Y-109520002D01*
X103635452Y-109573658D01*
X103645556Y-109643932D01*
X103616062Y-109708512D01*
X103556336Y-109746896D01*
X103539329Y-109750636D01*
X103531018Y-109751869D01*
X103518709Y-109753081D01*
X103503094Y-109753848D01*
X103496912Y-109754000D01*
X100126000Y-109754000D01*
X100057879Y-109733998D01*
X100011386Y-109680342D01*
X100000000Y-109628000D01*
X100000000Y-88626000D01*
X100020002Y-88557879D01*
X100073658Y-88511386D01*
X100126000Y-88500000D01*
X103374000Y-88500000D01*
X103442121Y-88520002D01*
G37*
G36*
X199942121Y-90020002D02*
G01*
X199988614Y-90073658D01*
X200000000Y-90126000D01*
X200000000Y-109628000D01*
X199979998Y-109696121D01*
X199926342Y-109742614D01*
X199874000Y-109754000D01*
X196503088Y-109754000D01*
X196496906Y-109753848D01*
X196481291Y-109753081D01*
X196468982Y-109751869D01*
X196460671Y-109750636D01*
X196396223Y-109720854D01*
X196358108Y-109660956D01*
X196358426Y-109589960D01*
X196397077Y-109530407D01*
X196461790Y-109501203D01*
X196479162Y-109500000D01*
X196481885Y-109500000D01*
X196497124Y-109495525D01*
X196498329Y-109494135D01*
X196500000Y-109486452D01*
X196500000Y-90126000D01*
X196520002Y-90057879D01*
X196573658Y-90011386D01*
X196626000Y-90000000D01*
X199874000Y-90000000D01*
X199942121Y-90020002D01*
G37*
G36*
X182442121Y-113020002D02*
G01*
X182488614Y-113073658D01*
X182500000Y-113126000D01*
X182500000Y-118947810D01*
X182479998Y-119015931D01*
X182463095Y-119036905D01*
X181536905Y-119963095D01*
X181474593Y-119997121D01*
X181447810Y-120000000D01*
X119052190Y-120000000D01*
X118984069Y-119979998D01*
X118963095Y-119963095D01*
X118036905Y-119036905D01*
X118002879Y-118974593D01*
X118000000Y-118947810D01*
X118000000Y-113126000D01*
X118020002Y-113057879D01*
X118073658Y-113011386D01*
X118126000Y-113000000D01*
X182374000Y-113000000D01*
X182442121Y-113020002D01*
G37*
G36*
X199942121Y-109266002D02*
G01*
X199988614Y-109319658D01*
X200000000Y-109372000D01*
X200000000Y-115491742D01*
X199998922Y-115508188D01*
X199985128Y-115612963D01*
X199976615Y-115644735D01*
X199939361Y-115734674D01*
X199922914Y-115763160D01*
X199863651Y-115840393D01*
X199840393Y-115863651D01*
X199763160Y-115922914D01*
X199734674Y-115939361D01*
X199644735Y-115976615D01*
X199612963Y-115985128D01*
X199508188Y-115998922D01*
X199491742Y-116000000D01*
X194508258Y-116000000D01*
X194491812Y-115998922D01*
X194387037Y-115985128D01*
X194355265Y-115976615D01*
X194265326Y-115939361D01*
X194236840Y-115922914D01*
X194159607Y-115863651D01*
X194136349Y-115840393D01*
X194077086Y-115763160D01*
X194060639Y-115734674D01*
X194023385Y-115644735D01*
X194014872Y-115612963D01*
X194001078Y-115508188D01*
X194000000Y-115491742D01*
X194000000Y-109626000D01*
X194020002Y-109557879D01*
X194073658Y-109511386D01*
X194126000Y-109500000D01*
X196481885Y-109500000D01*
X196497124Y-109495525D01*
X196498329Y-109494135D01*
X196500000Y-109486452D01*
X196500000Y-109372000D01*
X196520002Y-109303879D01*
X196573658Y-109257386D01*
X196626000Y-109246000D01*
X199874000Y-109246000D01*
X199942121Y-109266002D01*
G37*
G36*
X103442121Y-109266002D02*
G01*
X103488614Y-109319658D01*
X103500000Y-109372000D01*
X103500000Y-109481885D01*
X103504475Y-109497124D01*
X103505865Y-109498329D01*
X103513548Y-109500000D01*
X106374000Y-109500000D01*
X106442121Y-109520002D01*
X106488614Y-109573658D01*
X106500000Y-109626000D01*
X106500000Y-115491742D01*
X106498922Y-115508188D01*
X106485128Y-115612963D01*
X106476615Y-115644735D01*
X106439361Y-115734674D01*
X106422914Y-115763160D01*
X106363651Y-115840393D01*
X106340393Y-115863651D01*
X106263160Y-115922914D01*
X106234674Y-115939361D01*
X106144735Y-115976615D01*
X106112963Y-115985128D01*
X106008188Y-115998922D01*
X105991742Y-116000000D01*
X100508258Y-116000000D01*
X100491812Y-115998922D01*
X100387037Y-115985128D01*
X100355265Y-115976615D01*
X100265326Y-115939361D01*
X100236840Y-115922914D01*
X100159607Y-115863651D01*
X100136349Y-115840393D01*
X100077086Y-115763160D01*
X100060639Y-115734674D01*
X100023385Y-115644735D01*
X100014872Y-115612963D01*
X100001078Y-115508188D01*
X100000000Y-115491742D01*
X100000000Y-109372000D01*
X100020002Y-109303879D01*
X100073658Y-109257386D01*
X100126000Y-109246000D01*
X103374000Y-109246000D01*
X103442121Y-109266002D01*
G37*
G36*
X182480771Y-112993068D02*
G01*
X182499430Y-112998068D01*
X182500718Y-112999356D01*
X182501000Y-112999356D01*
X182501932Y-113000570D01*
X182506932Y-113019231D01*
X182507000Y-113019749D01*
X182507000Y-118980253D01*
X182506932Y-118980771D01*
X182501932Y-118999432D01*
X182501510Y-118999854D01*
X182501535Y-118999879D01*
X182501535Y-119000915D01*
X182499000Y-119010375D01*
X182498654Y-119011075D01*
X182498167Y-119011709D01*
X182497995Y-119011905D01*
X181518916Y-119990984D01*
X181518502Y-119991302D01*
X181501769Y-120000963D01*
X181501169Y-120000963D01*
X181501169Y-120001000D01*
X181500437Y-120001732D01*
X181491957Y-120006628D01*
X181491219Y-120006879D01*
X181490431Y-120006983D01*
X181490169Y-120007000D01*
X119019749Y-120007000D01*
X119019231Y-120006932D01*
X119000571Y-120001932D01*
X119000146Y-120001507D01*
X119000119Y-120001533D01*
X118999083Y-120001533D01*
X118989625Y-119998999D01*
X118988926Y-119998654D01*
X118988290Y-119998166D01*
X118988093Y-119997993D01*
X118009016Y-119018916D01*
X118008698Y-119018502D01*
X117999037Y-119001769D01*
X117999037Y-119001169D01*
X117999000Y-119001169D01*
X117998268Y-119000437D01*
X117997599Y-118999279D01*
X118002000Y-118999279D01*
X118002183Y-118999355D01*
X119000904Y-119998076D01*
X119001089Y-119998000D01*
X181499279Y-119998000D01*
X181499355Y-119997817D01*
X182498076Y-118999096D01*
X182498000Y-118998914D01*
X182498000Y-113002000D01*
X118002000Y-113002000D01*
X118002000Y-118999279D01*
X117997599Y-118999279D01*
X117993372Y-118991957D01*
X117993121Y-118991219D01*
X117993017Y-118990431D01*
X117993000Y-118990169D01*
X117993000Y-113019749D01*
X117993068Y-113019231D01*
X117998068Y-113000570D01*
X117999356Y-112999282D01*
X117999356Y-112999000D01*
X118000570Y-112998068D01*
X118019231Y-112993068D01*
X118019749Y-112993000D01*
X182480253Y-112993000D01*
X182480771Y-112993068D01*
G37*
G36*
X199980771Y-89993068D02*
G01*
X199999430Y-89998068D01*
X200000718Y-89999356D01*
X200001000Y-89999356D01*
X200001932Y-90000570D01*
X200006932Y-90019231D01*
X200007000Y-90019749D01*
X200007000Y-115495088D01*
X200006996Y-115495219D01*
X200006312Y-115505649D01*
X200006299Y-115505779D01*
X199991186Y-115620576D01*
X199991135Y-115620833D01*
X199985751Y-115640926D01*
X199985667Y-115641173D01*
X199943243Y-115743595D01*
X199943127Y-115743830D01*
X199932727Y-115761842D01*
X199932582Y-115762060D01*
X199865089Y-115850018D01*
X199864916Y-115850214D01*
X199850214Y-115864916D01*
X199850018Y-115865089D01*
X199762060Y-115932582D01*
X199761842Y-115932727D01*
X199743830Y-115943127D01*
X199743595Y-115943243D01*
X199641173Y-115985667D01*
X199640926Y-115985751D01*
X199620833Y-115991135D01*
X199620576Y-115991186D01*
X199505779Y-116006299D01*
X199505649Y-116006312D01*
X199495219Y-116006996D01*
X199495088Y-116007000D01*
X194504912Y-116007000D01*
X194504781Y-116006996D01*
X194494351Y-116006312D01*
X194494221Y-116006299D01*
X194379424Y-115991186D01*
X194379167Y-115991135D01*
X194359074Y-115985751D01*
X194358827Y-115985667D01*
X194256405Y-115943243D01*
X194256170Y-115943127D01*
X194238158Y-115932727D01*
X194237940Y-115932582D01*
X194149982Y-115865089D01*
X194149786Y-115864916D01*
X194135084Y-115850214D01*
X194134911Y-115850018D01*
X194067418Y-115762060D01*
X194067273Y-115761842D01*
X194056873Y-115743830D01*
X194056757Y-115743595D01*
X194014333Y-115641173D01*
X194014249Y-115640926D01*
X194008865Y-115620833D01*
X194008814Y-115620576D01*
X193993701Y-115505779D01*
X193993688Y-115505649D01*
X193993309Y-115499868D01*
X194002000Y-115499868D01*
X194018986Y-115628888D01*
X194068733Y-115748990D01*
X194147874Y-115852126D01*
X194251010Y-115931267D01*
X194371112Y-115981014D01*
X194500132Y-115998000D01*
X199499868Y-115998000D01*
X199628888Y-115981014D01*
X199748990Y-115931267D01*
X199852126Y-115852126D01*
X199931267Y-115748990D01*
X199981014Y-115628888D01*
X199998000Y-115499868D01*
X199998000Y-90002000D01*
X196502000Y-90002000D01*
X196502000Y-109500000D01*
X196501000Y-109501732D01*
X196500000Y-109502000D01*
X194002000Y-109502000D01*
X194002000Y-115499868D01*
X193993309Y-115499868D01*
X193993004Y-115495219D01*
X193993000Y-115495088D01*
X193993000Y-109519749D01*
X193993068Y-109519231D01*
X193998068Y-109500570D01*
X193999356Y-109499282D01*
X193999356Y-109499000D01*
X194000570Y-109498068D01*
X194019231Y-109493068D01*
X194019749Y-109493000D01*
X196344737Y-109493000D01*
X196418967Y-109473110D01*
X196473110Y-109418967D01*
X196493000Y-109344737D01*
X196493000Y-90019749D01*
X196493068Y-90019231D01*
X196498068Y-90000570D01*
X196499356Y-89999282D01*
X196499356Y-89999000D01*
X196500570Y-89998068D01*
X196519231Y-89993068D01*
X196519749Y-89993000D01*
X199980253Y-89993000D01*
X199980771Y-89993068D01*
G37*
G36*
X103480771Y-88493068D02*
G01*
X103499430Y-88498068D01*
X103500718Y-88499356D01*
X103501000Y-88499356D01*
X103501932Y-88500570D01*
X103506932Y-88519231D01*
X103507000Y-88519749D01*
X103507000Y-109344737D01*
X103526890Y-109418967D01*
X103581034Y-109473110D01*
X103655263Y-109493000D01*
X106480253Y-109493000D01*
X106480771Y-109493068D01*
X106499430Y-109498068D01*
X106500718Y-109499356D01*
X106501000Y-109499356D01*
X106501932Y-109500570D01*
X106506932Y-109519231D01*
X106507000Y-109519749D01*
X106507000Y-115495088D01*
X106506996Y-115495219D01*
X106506312Y-115505649D01*
X106506299Y-115505779D01*
X106491186Y-115620576D01*
X106491135Y-115620833D01*
X106485751Y-115640926D01*
X106485667Y-115641173D01*
X106443243Y-115743595D01*
X106443127Y-115743830D01*
X106432727Y-115761842D01*
X106432582Y-115762060D01*
X106365089Y-115850018D01*
X106364916Y-115850214D01*
X106350214Y-115864916D01*
X106350018Y-115865089D01*
X106262060Y-115932582D01*
X106261842Y-115932727D01*
X106243830Y-115943127D01*
X106243595Y-115943243D01*
X106141173Y-115985667D01*
X106140926Y-115985751D01*
X106120833Y-115991135D01*
X106120576Y-115991186D01*
X106005779Y-116006299D01*
X106005649Y-116006312D01*
X105995219Y-116006996D01*
X105995088Y-116007000D01*
X100504912Y-116007000D01*
X100504781Y-116006996D01*
X100494351Y-116006312D01*
X100494221Y-116006299D01*
X100379424Y-115991186D01*
X100379167Y-115991135D01*
X100359074Y-115985751D01*
X100358827Y-115985667D01*
X100256405Y-115943243D01*
X100256170Y-115943127D01*
X100238158Y-115932727D01*
X100237940Y-115932582D01*
X100149982Y-115865089D01*
X100149786Y-115864916D01*
X100135084Y-115850214D01*
X100134911Y-115850018D01*
X100067418Y-115762060D01*
X100067273Y-115761842D01*
X100056873Y-115743830D01*
X100056757Y-115743595D01*
X100014333Y-115641173D01*
X100014249Y-115640926D01*
X100008865Y-115620833D01*
X100008814Y-115620576D01*
X99993701Y-115505779D01*
X99993688Y-115505649D01*
X99993309Y-115499868D01*
X100002000Y-115499868D01*
X100018986Y-115628888D01*
X100068733Y-115748990D01*
X100147874Y-115852126D01*
X100251010Y-115931267D01*
X100371112Y-115981014D01*
X100500132Y-115998000D01*
X105999868Y-115998000D01*
X106128888Y-115981014D01*
X106248990Y-115931267D01*
X106352126Y-115852126D01*
X106431267Y-115748990D01*
X106481014Y-115628888D01*
X106498000Y-115499868D01*
X106498000Y-109502000D01*
X103500000Y-109502000D01*
X103498268Y-109501000D01*
X103498000Y-109500000D01*
X103498000Y-88502000D01*
X100002000Y-88502000D01*
X100002000Y-115499868D01*
X99993309Y-115499868D01*
X99993004Y-115495219D01*
X99993000Y-115495088D01*
X99993000Y-88519749D01*
X99993068Y-88519231D01*
X99998068Y-88500570D01*
X99999356Y-88499282D01*
X99999356Y-88499000D01*
X100000570Y-88498068D01*
X100019231Y-88493068D01*
X100019749Y-88493000D01*
X103480253Y-88493000D01*
X103480771Y-88493068D01*
G37*
G36*
X139900220Y-110657324D02*
G01*
X139977010Y-110716247D01*
X140075763Y-110757152D01*
X140076981Y-110758739D01*
X140076216Y-110760587D01*
X140075763Y-110760848D01*
X139977010Y-110801753D01*
X139891097Y-110867676D01*
X139889114Y-110867937D01*
X139887896Y-110866350D01*
X139888219Y-110864974D01*
X139927289Y-110806830D01*
X139932498Y-110730435D01*
X139898715Y-110661477D01*
X139897573Y-110660310D01*
X139897076Y-110658373D01*
X139898505Y-110656974D01*
X139900220Y-110657324D01*
G37*
G36*
X159897826Y-110655487D02*
G01*
X159977010Y-110716247D01*
X160067314Y-110753652D01*
X160068532Y-110755239D01*
X160067767Y-110757087D01*
X160067314Y-110757348D01*
X159977010Y-110794753D01*
X159887740Y-110863252D01*
X159885757Y-110863513D01*
X159884539Y-110861926D01*
X159884862Y-110860549D01*
X159923362Y-110803257D01*
X159928570Y-110726863D01*
X159894812Y-110657954D01*
X159894948Y-110655958D01*
X159896744Y-110655079D01*
X159897826Y-110655487D01*
G37*
G36*
X140595406Y-110650651D02*
G01*
X140595071Y-110652045D01*
X140555373Y-110709806D01*
X140549366Y-110786144D01*
X140582419Y-110855441D01*
X140585209Y-110858290D01*
X140585706Y-110860227D01*
X140584277Y-110861626D01*
X140582562Y-110861276D01*
X140504990Y-110801753D01*
X140406237Y-110760848D01*
X140405019Y-110759261D01*
X140405784Y-110757413D01*
X140406237Y-110757152D01*
X140504990Y-110716247D01*
X140592205Y-110649325D01*
X140594188Y-110649064D01*
X140595406Y-110650651D01*
G37*
G36*
X160598910Y-110647962D02*
G01*
X160598575Y-110649356D01*
X160559385Y-110706380D01*
X160553377Y-110782718D01*
X160586429Y-110852012D01*
X160587265Y-110852866D01*
X160587762Y-110854803D01*
X160586334Y-110856203D01*
X160584618Y-110855853D01*
X160504990Y-110794753D01*
X160414686Y-110757348D01*
X160413468Y-110755761D01*
X160414233Y-110753913D01*
X160414686Y-110753652D01*
X160504990Y-110716247D01*
X160595709Y-110646636D01*
X160597692Y-110646375D01*
X160598910Y-110647962D01*
G37*
G36*
X159511436Y-93695446D02*
G01*
X159511369Y-93697121D01*
X159504268Y-93711027D01*
X159504011Y-93711412D01*
X159494582Y-93722511D01*
X159461681Y-93791957D01*
X159467891Y-93868279D01*
X159505359Y-93922491D01*
X159505521Y-93924484D01*
X159505130Y-93925041D01*
X159505046Y-93925125D01*
X159523076Y-93943124D01*
X159523595Y-93945055D01*
X159522182Y-93946470D01*
X159520552Y-93946202D01*
X159498970Y-93931781D01*
X159449801Y-93922000D01*
X159251669Y-93922000D01*
X159249937Y-93921000D01*
X159249937Y-93919000D01*
X159250904Y-93918152D01*
X159301490Y-93897199D01*
X159426373Y-93801373D01*
X159508001Y-93694993D01*
X159509849Y-93694228D01*
X159511436Y-93695446D01*
G37*
G36*
X157511436Y-93695446D02*
G01*
X157511369Y-93697121D01*
X157504268Y-93711027D01*
X157504011Y-93711412D01*
X157494582Y-93722511D01*
X157461681Y-93791957D01*
X157467891Y-93868279D01*
X157505359Y-93922491D01*
X157505521Y-93924484D01*
X157505130Y-93925041D01*
X157505046Y-93925125D01*
X157523076Y-93943124D01*
X157523595Y-93945055D01*
X157522182Y-93946470D01*
X157520552Y-93946202D01*
X157498970Y-93931781D01*
X157449801Y-93922000D01*
X157251669Y-93922000D01*
X157249937Y-93921000D01*
X157249937Y-93919000D01*
X157250904Y-93918152D01*
X157301490Y-93897199D01*
X157426373Y-93801373D01*
X157508001Y-93694993D01*
X157509849Y-93694228D01*
X157511436Y-93695446D01*
G37*
G36*
X153511436Y-93695446D02*
G01*
X153511369Y-93697121D01*
X153504268Y-93711027D01*
X153504011Y-93711412D01*
X153494582Y-93722511D01*
X153461681Y-93791957D01*
X153467891Y-93868279D01*
X153505359Y-93922491D01*
X153505521Y-93924484D01*
X153505130Y-93925041D01*
X153505046Y-93925125D01*
X153523076Y-93943124D01*
X153523595Y-93945055D01*
X153522182Y-93946470D01*
X153520552Y-93946202D01*
X153498970Y-93931781D01*
X153449801Y-93922000D01*
X153251669Y-93922000D01*
X153249937Y-93921000D01*
X153249937Y-93919000D01*
X153250904Y-93918152D01*
X153301490Y-93897199D01*
X153426373Y-93801373D01*
X153508001Y-93694993D01*
X153509849Y-93694228D01*
X153511436Y-93695446D01*
G37*
G36*
X145511436Y-93695446D02*
G01*
X145511369Y-93697121D01*
X145504268Y-93711027D01*
X145504011Y-93711412D01*
X145494582Y-93722511D01*
X145461681Y-93791957D01*
X145467891Y-93868279D01*
X145505359Y-93922491D01*
X145505521Y-93924484D01*
X145505130Y-93925041D01*
X145505046Y-93925125D01*
X145523076Y-93943124D01*
X145523595Y-93945055D01*
X145522182Y-93946470D01*
X145520552Y-93946202D01*
X145498970Y-93931781D01*
X145449801Y-93922000D01*
X145251669Y-93922000D01*
X145249937Y-93921000D01*
X145249937Y-93919000D01*
X145250904Y-93918152D01*
X145301490Y-93897199D01*
X145426373Y-93801373D01*
X145508001Y-93694993D01*
X145509849Y-93694228D01*
X145511436Y-93695446D01*
G37*
G36*
X155511436Y-93695446D02*
G01*
X155511369Y-93697121D01*
X155504268Y-93711027D01*
X155504011Y-93711412D01*
X155494582Y-93722511D01*
X155461681Y-93791957D01*
X155467891Y-93868279D01*
X155505359Y-93922491D01*
X155505521Y-93924484D01*
X155505130Y-93925041D01*
X155505046Y-93925125D01*
X155523076Y-93943124D01*
X155523595Y-93945055D01*
X155522182Y-93946470D01*
X155520552Y-93946202D01*
X155498970Y-93931781D01*
X155449801Y-93922000D01*
X155251669Y-93922000D01*
X155249937Y-93921000D01*
X155249937Y-93919000D01*
X155250904Y-93918152D01*
X155301490Y-93897199D01*
X155426373Y-93801373D01*
X155508001Y-93694993D01*
X155509849Y-93694228D01*
X155511436Y-93695446D01*
G37*
G36*
X141511436Y-93695446D02*
G01*
X141511369Y-93697121D01*
X141504268Y-93711027D01*
X141504011Y-93711412D01*
X141494582Y-93722511D01*
X141461681Y-93791957D01*
X141467891Y-93868279D01*
X141505359Y-93922491D01*
X141505521Y-93924484D01*
X141505130Y-93925041D01*
X141505046Y-93925125D01*
X141523076Y-93943124D01*
X141523595Y-93945055D01*
X141522182Y-93946470D01*
X141520552Y-93946202D01*
X141498970Y-93931781D01*
X141449801Y-93922000D01*
X141251669Y-93922000D01*
X141249937Y-93921000D01*
X141249937Y-93919000D01*
X141250904Y-93918152D01*
X141301490Y-93897199D01*
X141426373Y-93801373D01*
X141508001Y-93694993D01*
X141509849Y-93694228D01*
X141511436Y-93695446D01*
G37*
G36*
X143511436Y-93695446D02*
G01*
X143511369Y-93697121D01*
X143504268Y-93711027D01*
X143504011Y-93711412D01*
X143494582Y-93722511D01*
X143461681Y-93791957D01*
X143467891Y-93868279D01*
X143505359Y-93922491D01*
X143505521Y-93924484D01*
X143505130Y-93925041D01*
X143505046Y-93925125D01*
X143523076Y-93943124D01*
X143523595Y-93945055D01*
X143522182Y-93946470D01*
X143520552Y-93946202D01*
X143498970Y-93931781D01*
X143449801Y-93922000D01*
X143251669Y-93922000D01*
X143249937Y-93921000D01*
X143249937Y-93919000D01*
X143250904Y-93918152D01*
X143301490Y-93897199D01*
X143426373Y-93801373D01*
X143508001Y-93694993D01*
X143509849Y-93694228D01*
X143511436Y-93695446D01*
G37*
G36*
X147511436Y-93695446D02*
G01*
X147511369Y-93697121D01*
X147504268Y-93711027D01*
X147504011Y-93711412D01*
X147494582Y-93722511D01*
X147461681Y-93791957D01*
X147467891Y-93868279D01*
X147505359Y-93922491D01*
X147505521Y-93924484D01*
X147505130Y-93925041D01*
X147505046Y-93925125D01*
X147523076Y-93943124D01*
X147523595Y-93945055D01*
X147522182Y-93946470D01*
X147520552Y-93946202D01*
X147498970Y-93931781D01*
X147449801Y-93922000D01*
X147251669Y-93922000D01*
X147249937Y-93921000D01*
X147249937Y-93919000D01*
X147250904Y-93918152D01*
X147301490Y-93897199D01*
X147426373Y-93801373D01*
X147508001Y-93694993D01*
X147509849Y-93694228D01*
X147511436Y-93695446D01*
G37*
G36*
X149511436Y-93695446D02*
G01*
X149511369Y-93697121D01*
X149504268Y-93711027D01*
X149504011Y-93711412D01*
X149494582Y-93722511D01*
X149461681Y-93791957D01*
X149467891Y-93868279D01*
X149505359Y-93922491D01*
X149505521Y-93924484D01*
X149505130Y-93925041D01*
X149505046Y-93925125D01*
X149523076Y-93943124D01*
X149523595Y-93945055D01*
X149522182Y-93946470D01*
X149520552Y-93946202D01*
X149498970Y-93931781D01*
X149449801Y-93922000D01*
X149251669Y-93922000D01*
X149249937Y-93921000D01*
X149249937Y-93919000D01*
X149250904Y-93918152D01*
X149301490Y-93897199D01*
X149426373Y-93801373D01*
X149508001Y-93694993D01*
X149509849Y-93694228D01*
X149511436Y-93695446D01*
G37*
G36*
X151511436Y-93695446D02*
G01*
X151511369Y-93697121D01*
X151504268Y-93711027D01*
X151504011Y-93711412D01*
X151494582Y-93722511D01*
X151461681Y-93791957D01*
X151467891Y-93868279D01*
X151505359Y-93922491D01*
X151505521Y-93924484D01*
X151505130Y-93925041D01*
X151505046Y-93925125D01*
X151523076Y-93943124D01*
X151523595Y-93945055D01*
X151522182Y-93946470D01*
X151520552Y-93946202D01*
X151498970Y-93931781D01*
X151449801Y-93922000D01*
X151251669Y-93922000D01*
X151249937Y-93921000D01*
X151249937Y-93919000D01*
X151250904Y-93918152D01*
X151301490Y-93897199D01*
X151426373Y-93801373D01*
X151508001Y-93694993D01*
X151509849Y-93694228D01*
X151511436Y-93695446D01*
G37*
G36*
X152511374Y-93720242D02*
G01*
X152573627Y-93801373D01*
X152698510Y-93897199D01*
X152749096Y-93918152D01*
X152750314Y-93919739D01*
X152749549Y-93921587D01*
X152748331Y-93922000D01*
X152550199Y-93922000D01*
X152501030Y-93931781D01*
X152479269Y-93946321D01*
X152477273Y-93946452D01*
X152476162Y-93944789D01*
X152476743Y-93943245D01*
X152494737Y-93925219D01*
X152493605Y-93924089D01*
X152493086Y-93922158D01*
X152493760Y-93921119D01*
X152513447Y-93905198D01*
X152540935Y-93833729D01*
X152528977Y-93757902D01*
X152517554Y-93736957D01*
X152508114Y-93722557D01*
X152508001Y-93720560D01*
X152509674Y-93719463D01*
X152511374Y-93720242D01*
G37*
G36*
X150511374Y-93720242D02*
G01*
X150573627Y-93801373D01*
X150698510Y-93897199D01*
X150749096Y-93918152D01*
X150750314Y-93919739D01*
X150749549Y-93921587D01*
X150748331Y-93922000D01*
X150550199Y-93922000D01*
X150501030Y-93931781D01*
X150479269Y-93946321D01*
X150477273Y-93946452D01*
X150476162Y-93944789D01*
X150476743Y-93943245D01*
X150494737Y-93925219D01*
X150493605Y-93924089D01*
X150493086Y-93922158D01*
X150493760Y-93921119D01*
X150513447Y-93905198D01*
X150540935Y-93833729D01*
X150528977Y-93757902D01*
X150517554Y-93736957D01*
X150508114Y-93722557D01*
X150508001Y-93720560D01*
X150509674Y-93719463D01*
X150511374Y-93720242D01*
G37*
G36*
X154511374Y-93720242D02*
G01*
X154573627Y-93801373D01*
X154698510Y-93897199D01*
X154749096Y-93918152D01*
X154750314Y-93919739D01*
X154749549Y-93921587D01*
X154748331Y-93922000D01*
X154550199Y-93922000D01*
X154501030Y-93931781D01*
X154479269Y-93946321D01*
X154477273Y-93946452D01*
X154476162Y-93944789D01*
X154476743Y-93943245D01*
X154494737Y-93925219D01*
X154493605Y-93924089D01*
X154493086Y-93922158D01*
X154493760Y-93921119D01*
X154513447Y-93905198D01*
X154540935Y-93833729D01*
X154528977Y-93757902D01*
X154517554Y-93736957D01*
X154508114Y-93722557D01*
X154508001Y-93720560D01*
X154509674Y-93719463D01*
X154511374Y-93720242D01*
G37*
G36*
X148511374Y-93720242D02*
G01*
X148573627Y-93801373D01*
X148698510Y-93897199D01*
X148749096Y-93918152D01*
X148750314Y-93919739D01*
X148749549Y-93921587D01*
X148748331Y-93922000D01*
X148550199Y-93922000D01*
X148501030Y-93931781D01*
X148479269Y-93946321D01*
X148477273Y-93946452D01*
X148476162Y-93944789D01*
X148476743Y-93943245D01*
X148494737Y-93925219D01*
X148493605Y-93924089D01*
X148493086Y-93922158D01*
X148493760Y-93921119D01*
X148513447Y-93905198D01*
X148540935Y-93833729D01*
X148528977Y-93757902D01*
X148517554Y-93736957D01*
X148508114Y-93722557D01*
X148508001Y-93720560D01*
X148509674Y-93719463D01*
X148511374Y-93720242D01*
G37*
G36*
X156511374Y-93720242D02*
G01*
X156573627Y-93801373D01*
X156698510Y-93897199D01*
X156749096Y-93918152D01*
X156750314Y-93919739D01*
X156749549Y-93921587D01*
X156748331Y-93922000D01*
X156550199Y-93922000D01*
X156501030Y-93931781D01*
X156479269Y-93946321D01*
X156477273Y-93946452D01*
X156476162Y-93944789D01*
X156476743Y-93943245D01*
X156494737Y-93925219D01*
X156493605Y-93924089D01*
X156493086Y-93922158D01*
X156493760Y-93921119D01*
X156513447Y-93905198D01*
X156540935Y-93833729D01*
X156528977Y-93757902D01*
X156517554Y-93736957D01*
X156508114Y-93722557D01*
X156508001Y-93720560D01*
X156509674Y-93719463D01*
X156511374Y-93720242D01*
G37*
G36*
X144511374Y-93720242D02*
G01*
X144573627Y-93801373D01*
X144698510Y-93897199D01*
X144749096Y-93918152D01*
X144750314Y-93919739D01*
X144749549Y-93921587D01*
X144748331Y-93922000D01*
X144550199Y-93922000D01*
X144501030Y-93931781D01*
X144479269Y-93946321D01*
X144477273Y-93946452D01*
X144476162Y-93944789D01*
X144476743Y-93943245D01*
X144494737Y-93925219D01*
X144493605Y-93924089D01*
X144493086Y-93922158D01*
X144493760Y-93921119D01*
X144513447Y-93905198D01*
X144540935Y-93833729D01*
X144528977Y-93757902D01*
X144517554Y-93736957D01*
X144508114Y-93722557D01*
X144508001Y-93720560D01*
X144509674Y-93719463D01*
X144511374Y-93720242D01*
G37*
G36*
X158511374Y-93720242D02*
G01*
X158573627Y-93801373D01*
X158698510Y-93897199D01*
X158749096Y-93918152D01*
X158750314Y-93919739D01*
X158749549Y-93921587D01*
X158748331Y-93922000D01*
X158550199Y-93922000D01*
X158501030Y-93931781D01*
X158479269Y-93946321D01*
X158477273Y-93946452D01*
X158476162Y-93944789D01*
X158476743Y-93943245D01*
X158494737Y-93925219D01*
X158493605Y-93924089D01*
X158493086Y-93922158D01*
X158493760Y-93921119D01*
X158513447Y-93905198D01*
X158540935Y-93833729D01*
X158528977Y-93757902D01*
X158517554Y-93736957D01*
X158508114Y-93722557D01*
X158508001Y-93720560D01*
X158509674Y-93719463D01*
X158511374Y-93720242D01*
G37*
G36*
X142511374Y-93720242D02*
G01*
X142573627Y-93801373D01*
X142698510Y-93897199D01*
X142749096Y-93918152D01*
X142750314Y-93919739D01*
X142749549Y-93921587D01*
X142748331Y-93922000D01*
X142550199Y-93922000D01*
X142501030Y-93931781D01*
X142479269Y-93946321D01*
X142477273Y-93946452D01*
X142476162Y-93944789D01*
X142476743Y-93943245D01*
X142494737Y-93925219D01*
X142493605Y-93924089D01*
X142493086Y-93922158D01*
X142493760Y-93921119D01*
X142513447Y-93905198D01*
X142540935Y-93833729D01*
X142528977Y-93757902D01*
X142517554Y-93736957D01*
X142508114Y-93722557D01*
X142508001Y-93720560D01*
X142509674Y-93719463D01*
X142511374Y-93720242D01*
G37*
G36*
X140511374Y-93720242D02*
G01*
X140573627Y-93801373D01*
X140698510Y-93897199D01*
X140749096Y-93918152D01*
X140750314Y-93919739D01*
X140749549Y-93921587D01*
X140748331Y-93922000D01*
X140550199Y-93922000D01*
X140501030Y-93931781D01*
X140479269Y-93946321D01*
X140477273Y-93946452D01*
X140476162Y-93944789D01*
X140476743Y-93943245D01*
X140494737Y-93925219D01*
X140493605Y-93924089D01*
X140493086Y-93922158D01*
X140493760Y-93921119D01*
X140513447Y-93905198D01*
X140540935Y-93833729D01*
X140528977Y-93757902D01*
X140517554Y-93736957D01*
X140508114Y-93722557D01*
X140508001Y-93720560D01*
X140509674Y-93719463D01*
X140511374Y-93720242D01*
G37*
G36*
X146511374Y-93720242D02*
G01*
X146573627Y-93801373D01*
X146698510Y-93897199D01*
X146749096Y-93918152D01*
X146750314Y-93919739D01*
X146749549Y-93921587D01*
X146748331Y-93922000D01*
X146550199Y-93922000D01*
X146501030Y-93931781D01*
X146479269Y-93946321D01*
X146477273Y-93946452D01*
X146476162Y-93944789D01*
X146476743Y-93943245D01*
X146494737Y-93925219D01*
X146493605Y-93924089D01*
X146493086Y-93922158D01*
X146493760Y-93921119D01*
X146513447Y-93905198D01*
X146540935Y-93833729D01*
X146528977Y-93757902D01*
X146517554Y-93736957D01*
X146508114Y-93722557D01*
X146508001Y-93720560D01*
X146509674Y-93719463D01*
X146511374Y-93720242D01*
G37*
G36*
X146517871Y-91638157D02*
G01*
X146637951Y-91716735D01*
X146774573Y-91767544D01*
X146775848Y-91769085D01*
X146775151Y-91770960D01*
X146774641Y-91771267D01*
X146698510Y-91802801D01*
X146584586Y-91890217D01*
X146582603Y-91890478D01*
X146581385Y-91888891D01*
X146581561Y-91887774D01*
X146614367Y-91818529D01*
X146608159Y-91742207D01*
X146564525Y-91679074D01*
X146540961Y-91662712D01*
X146540008Y-91662179D01*
X146539688Y-91661956D01*
X146515480Y-91641354D01*
X146514809Y-91639470D01*
X146516105Y-91637947D01*
X146517871Y-91638157D01*
G37*
G36*
X156517871Y-91638157D02*
G01*
X156637951Y-91716735D01*
X156774573Y-91767544D01*
X156775848Y-91769085D01*
X156775151Y-91770960D01*
X156774641Y-91771267D01*
X156698510Y-91802801D01*
X156584586Y-91890217D01*
X156582603Y-91890478D01*
X156581385Y-91888891D01*
X156581561Y-91887774D01*
X156614367Y-91818529D01*
X156608159Y-91742207D01*
X156564525Y-91679074D01*
X156540961Y-91662712D01*
X156540008Y-91662179D01*
X156539688Y-91661956D01*
X156515480Y-91641354D01*
X156514809Y-91639470D01*
X156516105Y-91637947D01*
X156517871Y-91638157D01*
G37*
G36*
X158517871Y-91638157D02*
G01*
X158637951Y-91716735D01*
X158774573Y-91767544D01*
X158775848Y-91769085D01*
X158775151Y-91770960D01*
X158774641Y-91771267D01*
X158698510Y-91802801D01*
X158584586Y-91890217D01*
X158582603Y-91890478D01*
X158581385Y-91888891D01*
X158581561Y-91887774D01*
X158614367Y-91818529D01*
X158608159Y-91742207D01*
X158564525Y-91679074D01*
X158540961Y-91662712D01*
X158540008Y-91662179D01*
X158539688Y-91661956D01*
X158515480Y-91641354D01*
X158514809Y-91639470D01*
X158516105Y-91637947D01*
X158517871Y-91638157D01*
G37*
G36*
X154517871Y-91638157D02*
G01*
X154637951Y-91716735D01*
X154774573Y-91767544D01*
X154775848Y-91769085D01*
X154775151Y-91770960D01*
X154774641Y-91771267D01*
X154698510Y-91802801D01*
X154584586Y-91890217D01*
X154582603Y-91890478D01*
X154581385Y-91888891D01*
X154581561Y-91887774D01*
X154614367Y-91818529D01*
X154608159Y-91742207D01*
X154564525Y-91679074D01*
X154540961Y-91662712D01*
X154540008Y-91662179D01*
X154539688Y-91661956D01*
X154515480Y-91641354D01*
X154514809Y-91639470D01*
X154516105Y-91637947D01*
X154517871Y-91638157D01*
G37*
G36*
X152517871Y-91638157D02*
G01*
X152637951Y-91716735D01*
X152774573Y-91767544D01*
X152775848Y-91769085D01*
X152775151Y-91770960D01*
X152774641Y-91771267D01*
X152698510Y-91802801D01*
X152584586Y-91890217D01*
X152582603Y-91890478D01*
X152581385Y-91888891D01*
X152581561Y-91887774D01*
X152614367Y-91818529D01*
X152608159Y-91742207D01*
X152564525Y-91679074D01*
X152540961Y-91662712D01*
X152540008Y-91662179D01*
X152539688Y-91661956D01*
X152515480Y-91641354D01*
X152514809Y-91639470D01*
X152516105Y-91637947D01*
X152517871Y-91638157D01*
G37*
G36*
X150517871Y-91638157D02*
G01*
X150637951Y-91716735D01*
X150774573Y-91767544D01*
X150775848Y-91769085D01*
X150775151Y-91770960D01*
X150774641Y-91771267D01*
X150698510Y-91802801D01*
X150584586Y-91890217D01*
X150582603Y-91890478D01*
X150581385Y-91888891D01*
X150581561Y-91887774D01*
X150614367Y-91818529D01*
X150608159Y-91742207D01*
X150564525Y-91679074D01*
X150540961Y-91662712D01*
X150540008Y-91662179D01*
X150539688Y-91661956D01*
X150515480Y-91641354D01*
X150514809Y-91639470D01*
X150516105Y-91637947D01*
X150517871Y-91638157D01*
G37*
G36*
X148517871Y-91638157D02*
G01*
X148637951Y-91716735D01*
X148774573Y-91767544D01*
X148775848Y-91769085D01*
X148775151Y-91770960D01*
X148774641Y-91771267D01*
X148698510Y-91802801D01*
X148584586Y-91890217D01*
X148582603Y-91890478D01*
X148581385Y-91888891D01*
X148581561Y-91887774D01*
X148614367Y-91818529D01*
X148608159Y-91742207D01*
X148564525Y-91679074D01*
X148540961Y-91662712D01*
X148540008Y-91662179D01*
X148539688Y-91661956D01*
X148515480Y-91641354D01*
X148514809Y-91639470D01*
X148516105Y-91637947D01*
X148517871Y-91638157D01*
G37*
G36*
X144517871Y-91638157D02*
G01*
X144637951Y-91716735D01*
X144774573Y-91767544D01*
X144775848Y-91769085D01*
X144775151Y-91770960D01*
X144774641Y-91771267D01*
X144698510Y-91802801D01*
X144584586Y-91890217D01*
X144582603Y-91890478D01*
X144581385Y-91888891D01*
X144581561Y-91887774D01*
X144614367Y-91818529D01*
X144608159Y-91742207D01*
X144564525Y-91679074D01*
X144540961Y-91662712D01*
X144540008Y-91662179D01*
X144539688Y-91661956D01*
X144515480Y-91641354D01*
X144514809Y-91639470D01*
X144516105Y-91637947D01*
X144517871Y-91638157D01*
G37*
G36*
X142517871Y-91638157D02*
G01*
X142637951Y-91716735D01*
X142774573Y-91767544D01*
X142775848Y-91769085D01*
X142775151Y-91770960D01*
X142774641Y-91771267D01*
X142698510Y-91802801D01*
X142584586Y-91890217D01*
X142582603Y-91890478D01*
X142581385Y-91888891D01*
X142581561Y-91887774D01*
X142614367Y-91818529D01*
X142608159Y-91742207D01*
X142564525Y-91679074D01*
X142540961Y-91662712D01*
X142540008Y-91662179D01*
X142539688Y-91661956D01*
X142515480Y-91641354D01*
X142514809Y-91639470D01*
X142516105Y-91637947D01*
X142517871Y-91638157D01*
G37*
G36*
X140517871Y-91638157D02*
G01*
X140637951Y-91716735D01*
X140774573Y-91767544D01*
X140775848Y-91769085D01*
X140775151Y-91770960D01*
X140774641Y-91771267D01*
X140698510Y-91802801D01*
X140584586Y-91890217D01*
X140582603Y-91890478D01*
X140581385Y-91888891D01*
X140581561Y-91887774D01*
X140614367Y-91818529D01*
X140608159Y-91742207D01*
X140564525Y-91679074D01*
X140540961Y-91662712D01*
X140540008Y-91662179D01*
X140539688Y-91661956D01*
X140515480Y-91641354D01*
X140514809Y-91639470D01*
X140516105Y-91637947D01*
X140517871Y-91638157D01*
G37*
G36*
X143458000Y-91659481D02*
G01*
X143457231Y-91661085D01*
X143437907Y-91676182D01*
X143391660Y-91737556D01*
X143382328Y-91813558D01*
X143411636Y-91882603D01*
X143411392Y-91884588D01*
X143409551Y-91885369D01*
X143408577Y-91884971D01*
X143301490Y-91802801D01*
X143223006Y-91770292D01*
X143221788Y-91768705D01*
X143222553Y-91766857D01*
X143223153Y-91766542D01*
X143331717Y-91731268D01*
X143454976Y-91657791D01*
X143456976Y-91657763D01*
X143458000Y-91659481D01*
G37*
G36*
X159458000Y-91659481D02*
G01*
X159457231Y-91661085D01*
X159437907Y-91676182D01*
X159391660Y-91737556D01*
X159382328Y-91813558D01*
X159411636Y-91882603D01*
X159411392Y-91884588D01*
X159409551Y-91885369D01*
X159408577Y-91884971D01*
X159301490Y-91802801D01*
X159223006Y-91770292D01*
X159221788Y-91768705D01*
X159222553Y-91766857D01*
X159223153Y-91766542D01*
X159331717Y-91731268D01*
X159454976Y-91657791D01*
X159456976Y-91657763D01*
X159458000Y-91659481D01*
G37*
G36*
X157458000Y-91659481D02*
G01*
X157457231Y-91661085D01*
X157437907Y-91676182D01*
X157391660Y-91737556D01*
X157382328Y-91813558D01*
X157411636Y-91882603D01*
X157411392Y-91884588D01*
X157409551Y-91885369D01*
X157408577Y-91884971D01*
X157301490Y-91802801D01*
X157223006Y-91770292D01*
X157221788Y-91768705D01*
X157222553Y-91766857D01*
X157223153Y-91766542D01*
X157331717Y-91731268D01*
X157454976Y-91657791D01*
X157456976Y-91657763D01*
X157458000Y-91659481D01*
G37*
G36*
X145458000Y-91659481D02*
G01*
X145457231Y-91661085D01*
X145437907Y-91676182D01*
X145391660Y-91737556D01*
X145382328Y-91813558D01*
X145411636Y-91882603D01*
X145411392Y-91884588D01*
X145409551Y-91885369D01*
X145408577Y-91884971D01*
X145301490Y-91802801D01*
X145223006Y-91770292D01*
X145221788Y-91768705D01*
X145222553Y-91766857D01*
X145223153Y-91766542D01*
X145331717Y-91731268D01*
X145454976Y-91657791D01*
X145456976Y-91657763D01*
X145458000Y-91659481D01*
G37*
G36*
X153458000Y-91659481D02*
G01*
X153457231Y-91661085D01*
X153437907Y-91676182D01*
X153391660Y-91737556D01*
X153382328Y-91813558D01*
X153411636Y-91882603D01*
X153411392Y-91884588D01*
X153409551Y-91885369D01*
X153408577Y-91884971D01*
X153301490Y-91802801D01*
X153223006Y-91770292D01*
X153221788Y-91768705D01*
X153222553Y-91766857D01*
X153223153Y-91766542D01*
X153331717Y-91731268D01*
X153454976Y-91657791D01*
X153456976Y-91657763D01*
X153458000Y-91659481D01*
G37*
G36*
X155458000Y-91659481D02*
G01*
X155457231Y-91661085D01*
X155437907Y-91676182D01*
X155391660Y-91737556D01*
X155382328Y-91813558D01*
X155411636Y-91882603D01*
X155411392Y-91884588D01*
X155409551Y-91885369D01*
X155408577Y-91884971D01*
X155301490Y-91802801D01*
X155223006Y-91770292D01*
X155221788Y-91768705D01*
X155222553Y-91766857D01*
X155223153Y-91766542D01*
X155331717Y-91731268D01*
X155454976Y-91657791D01*
X155456976Y-91657763D01*
X155458000Y-91659481D01*
G37*
G36*
X141458000Y-91659481D02*
G01*
X141457231Y-91661085D01*
X141437907Y-91676182D01*
X141391660Y-91737556D01*
X141382328Y-91813558D01*
X141411636Y-91882603D01*
X141411392Y-91884588D01*
X141409551Y-91885369D01*
X141408577Y-91884971D01*
X141301490Y-91802801D01*
X141223006Y-91770292D01*
X141221788Y-91768705D01*
X141222553Y-91766857D01*
X141223153Y-91766542D01*
X141331717Y-91731268D01*
X141454976Y-91657791D01*
X141456976Y-91657763D01*
X141458000Y-91659481D01*
G37*
G36*
X147458000Y-91659481D02*
G01*
X147457231Y-91661085D01*
X147437907Y-91676182D01*
X147391660Y-91737556D01*
X147382328Y-91813558D01*
X147411636Y-91882603D01*
X147411392Y-91884588D01*
X147409551Y-91885369D01*
X147408577Y-91884971D01*
X147301490Y-91802801D01*
X147223006Y-91770292D01*
X147221788Y-91768705D01*
X147222553Y-91766857D01*
X147223153Y-91766542D01*
X147331717Y-91731268D01*
X147454976Y-91657791D01*
X147456976Y-91657763D01*
X147458000Y-91659481D01*
G37*
G36*
X149458000Y-91659481D02*
G01*
X149457231Y-91661085D01*
X149437907Y-91676182D01*
X149391660Y-91737556D01*
X149382328Y-91813558D01*
X149411636Y-91882603D01*
X149411392Y-91884588D01*
X149409551Y-91885369D01*
X149408577Y-91884971D01*
X149301490Y-91802801D01*
X149223006Y-91770292D01*
X149221788Y-91768705D01*
X149222553Y-91766857D01*
X149223153Y-91766542D01*
X149331717Y-91731268D01*
X149454976Y-91657791D01*
X149456976Y-91657763D01*
X149458000Y-91659481D01*
G37*
G36*
X151458000Y-91659481D02*
G01*
X151457231Y-91661085D01*
X151437907Y-91676182D01*
X151391660Y-91737556D01*
X151382328Y-91813558D01*
X151411636Y-91882603D01*
X151411392Y-91884588D01*
X151409551Y-91885369D01*
X151408577Y-91884971D01*
X151301490Y-91802801D01*
X151223006Y-91770292D01*
X151221788Y-91768705D01*
X151222553Y-91766857D01*
X151223153Y-91766542D01*
X151331717Y-91731268D01*
X151454976Y-91657791D01*
X151456976Y-91657763D01*
X151458000Y-91659481D01*
G37*
G36*
X163921587Y-89250451D02*
G01*
X163922000Y-89251669D01*
X163922000Y-89449801D01*
X163931781Y-89498970D01*
X163946321Y-89520731D01*
X163946452Y-89522727D01*
X163944789Y-89523838D01*
X163943245Y-89523257D01*
X163925219Y-89505263D01*
X163924089Y-89506395D01*
X163922158Y-89506914D01*
X163921119Y-89506240D01*
X163905198Y-89486553D01*
X163833729Y-89459065D01*
X163757902Y-89471023D01*
X163736957Y-89482446D01*
X163722557Y-89491886D01*
X163720560Y-89491999D01*
X163719463Y-89490326D01*
X163720242Y-89488626D01*
X163801373Y-89426373D01*
X163897199Y-89301490D01*
X163918152Y-89250904D01*
X163919739Y-89249686D01*
X163921587Y-89250451D01*
G37*
G36*
X136081848Y-89250904D02*
G01*
X136102801Y-89301490D01*
X136198627Y-89426373D01*
X136305007Y-89508001D01*
X136305772Y-89509849D01*
X136304554Y-89511436D01*
X136302879Y-89511369D01*
X136288973Y-89504268D01*
X136288588Y-89504011D01*
X136277489Y-89494582D01*
X136208043Y-89461681D01*
X136131721Y-89467891D01*
X136077509Y-89505359D01*
X136075516Y-89505521D01*
X136074959Y-89505130D01*
X136074875Y-89505046D01*
X136056876Y-89523076D01*
X136054945Y-89523595D01*
X136053530Y-89522182D01*
X136053798Y-89520552D01*
X136068219Y-89498970D01*
X136078000Y-89449801D01*
X136078000Y-89251669D01*
X136079000Y-89249937D01*
X136081000Y-89249937D01*
X136081848Y-89250904D01*
G37*
G36*
X161771199Y-89225415D02*
G01*
X161771497Y-89225914D01*
X161802801Y-89301490D01*
X161890036Y-89415177D01*
X161890297Y-89417160D01*
X161888710Y-89418378D01*
X161887593Y-89418202D01*
X161818130Y-89385292D01*
X161741808Y-89391500D01*
X161678671Y-89435136D01*
X161662823Y-89457790D01*
X161658956Y-89464598D01*
X161658731Y-89464917D01*
X161637958Y-89488982D01*
X161636069Y-89489640D01*
X161634555Y-89488333D01*
X161634778Y-89486568D01*
X161714190Y-89367044D01*
X161767779Y-89225969D01*
X161769329Y-89224705D01*
X161771199Y-89225415D01*
G37*
G36*
X138233031Y-89222824D02*
G01*
X138233342Y-89223411D01*
X138271066Y-89336815D01*
X138345404Y-89459560D01*
X138345446Y-89461559D01*
X138343735Y-89462596D01*
X138342126Y-89461838D01*
X138322818Y-89437478D01*
X138261123Y-89391659D01*
X138185058Y-89382859D01*
X138116833Y-89412382D01*
X138114847Y-89412152D01*
X138114052Y-89410316D01*
X138114452Y-89409328D01*
X138197199Y-89301490D01*
X138229596Y-89223277D01*
X138231183Y-89222059D01*
X138233031Y-89222824D01*
G37*
G36*
X161651364Y-88529023D02*
G01*
X161679295Y-88563270D01*
X161741621Y-88608221D01*
X161817804Y-88615959D01*
X161884352Y-88586052D01*
X161886342Y-88586254D01*
X161887162Y-88588078D01*
X161886759Y-88589094D01*
X161802801Y-88698510D01*
X161770690Y-88776033D01*
X161769103Y-88777251D01*
X161767255Y-88776486D01*
X161766953Y-88775926D01*
X161724159Y-88653039D01*
X161648118Y-88531347D01*
X161648048Y-88529348D01*
X161649744Y-88528288D01*
X161651364Y-88529023D01*
G37*
G36*
X138358691Y-88520570D02*
G01*
X138358493Y-88522337D01*
X138280754Y-88642964D01*
X138232671Y-88775070D01*
X138231139Y-88776356D01*
X138229260Y-88775672D01*
X138228944Y-88775151D01*
X138197199Y-88698510D01*
X138109584Y-88584328D01*
X138109323Y-88582345D01*
X138110910Y-88581127D01*
X138112027Y-88581303D01*
X138181032Y-88613996D01*
X138257354Y-88607788D01*
X138320484Y-88564156D01*
X138330924Y-88549008D01*
X138331039Y-88548857D01*
X138355280Y-88519968D01*
X138357159Y-88519284D01*
X138358691Y-88520570D01*
G37*
G36*
X136056755Y-88476743D02*
G01*
X136074781Y-88494737D01*
X136075911Y-88493605D01*
X136077842Y-88493086D01*
X136078881Y-88493760D01*
X136094802Y-88513447D01*
X136166271Y-88540935D01*
X136242098Y-88528977D01*
X136263043Y-88517554D01*
X136277443Y-88508114D01*
X136279440Y-88508001D01*
X136280537Y-88509674D01*
X136279758Y-88511374D01*
X136198627Y-88573627D01*
X136102801Y-88698510D01*
X136081848Y-88749096D01*
X136080261Y-88750314D01*
X136078413Y-88749549D01*
X136078000Y-88748331D01*
X136078000Y-88550199D01*
X136068219Y-88501030D01*
X136053679Y-88479269D01*
X136053548Y-88477273D01*
X136055211Y-88476162D01*
X136056755Y-88476743D01*
G37*
G36*
X163946470Y-88477818D02*
G01*
X163946202Y-88479448D01*
X163931781Y-88501030D01*
X163922000Y-88550199D01*
X163922000Y-88748331D01*
X163921000Y-88750063D01*
X163919000Y-88750063D01*
X163918152Y-88749096D01*
X163897199Y-88698510D01*
X163801373Y-88573627D01*
X163694993Y-88491999D01*
X163694228Y-88490151D01*
X163695446Y-88488564D01*
X163697121Y-88488631D01*
X163711027Y-88495732D01*
X163711412Y-88495989D01*
X163722511Y-88505418D01*
X163791957Y-88538319D01*
X163868279Y-88532109D01*
X163922491Y-88494641D01*
X163924484Y-88494479D01*
X163925041Y-88494870D01*
X163925125Y-88494954D01*
X163943124Y-88476924D01*
X163945055Y-88476405D01*
X163946470Y-88477818D01*
G37*
G36*
X163921587Y-87250451D02*
G01*
X163922000Y-87251669D01*
X163922000Y-87449801D01*
X163931781Y-87498970D01*
X163946321Y-87520731D01*
X163946452Y-87522727D01*
X163944789Y-87523838D01*
X163943245Y-87523257D01*
X163925219Y-87505263D01*
X163924089Y-87506395D01*
X163922158Y-87506914D01*
X163921119Y-87506240D01*
X163905198Y-87486553D01*
X163833729Y-87459065D01*
X163757902Y-87471023D01*
X163736957Y-87482446D01*
X163722557Y-87491886D01*
X163720560Y-87491999D01*
X163719463Y-87490326D01*
X163720242Y-87488626D01*
X163801373Y-87426373D01*
X163897199Y-87301490D01*
X163918152Y-87250904D01*
X163919739Y-87249686D01*
X163921587Y-87250451D01*
G37*
G36*
X136081848Y-87250904D02*
G01*
X136102801Y-87301490D01*
X136198627Y-87426373D01*
X136305007Y-87508001D01*
X136305772Y-87509849D01*
X136304554Y-87511436D01*
X136302879Y-87511369D01*
X136288973Y-87504268D01*
X136288588Y-87504011D01*
X136277489Y-87494582D01*
X136208043Y-87461681D01*
X136131721Y-87467891D01*
X136077509Y-87505359D01*
X136075516Y-87505521D01*
X136074959Y-87505130D01*
X136074875Y-87505046D01*
X136056876Y-87523076D01*
X136054945Y-87523595D01*
X136053530Y-87522182D01*
X136053798Y-87520552D01*
X136068219Y-87498970D01*
X136078000Y-87449801D01*
X136078000Y-87251669D01*
X136079000Y-87249937D01*
X136081000Y-87249937D01*
X136081848Y-87250904D01*
G37*
G36*
X161771199Y-87225415D02*
G01*
X161771497Y-87225914D01*
X161802801Y-87301490D01*
X161890036Y-87415177D01*
X161890297Y-87417160D01*
X161888710Y-87418378D01*
X161887593Y-87418202D01*
X161818130Y-87385292D01*
X161741808Y-87391500D01*
X161678671Y-87435136D01*
X161662823Y-87457790D01*
X161658956Y-87464598D01*
X161658731Y-87464917D01*
X161637958Y-87488982D01*
X161636069Y-87489640D01*
X161634555Y-87488333D01*
X161634778Y-87486568D01*
X161714190Y-87367044D01*
X161767779Y-87225969D01*
X161769329Y-87224705D01*
X161771199Y-87225415D01*
G37*
G36*
X138233031Y-87222824D02*
G01*
X138233342Y-87223411D01*
X138271066Y-87336815D01*
X138345404Y-87459560D01*
X138345446Y-87461559D01*
X138343735Y-87462596D01*
X138342126Y-87461838D01*
X138322818Y-87437478D01*
X138261123Y-87391659D01*
X138185058Y-87382859D01*
X138116833Y-87412382D01*
X138114847Y-87412152D01*
X138114052Y-87410316D01*
X138114452Y-87409328D01*
X138197199Y-87301490D01*
X138229596Y-87223277D01*
X138231183Y-87222059D01*
X138233031Y-87222824D01*
G37*
G36*
X161651364Y-86529023D02*
G01*
X161679295Y-86563270D01*
X161741621Y-86608221D01*
X161817804Y-86615959D01*
X161884352Y-86586052D01*
X161886342Y-86586254D01*
X161887162Y-86588078D01*
X161886759Y-86589094D01*
X161802801Y-86698510D01*
X161770690Y-86776033D01*
X161769103Y-86777251D01*
X161767255Y-86776486D01*
X161766953Y-86775926D01*
X161724159Y-86653039D01*
X161648118Y-86531347D01*
X161648048Y-86529348D01*
X161649744Y-86528288D01*
X161651364Y-86529023D01*
G37*
G36*
X138358691Y-86520570D02*
G01*
X138358493Y-86522337D01*
X138280754Y-86642964D01*
X138232671Y-86775070D01*
X138231139Y-86776356D01*
X138229260Y-86775672D01*
X138228944Y-86775151D01*
X138197199Y-86698510D01*
X138109584Y-86584328D01*
X138109323Y-86582345D01*
X138110910Y-86581127D01*
X138112027Y-86581303D01*
X138181032Y-86613996D01*
X138257354Y-86607788D01*
X138320484Y-86564156D01*
X138330924Y-86549008D01*
X138331039Y-86548857D01*
X138355280Y-86519968D01*
X138357159Y-86519284D01*
X138358691Y-86520570D01*
G37*
G36*
X136056755Y-86476743D02*
G01*
X136074781Y-86494737D01*
X136075911Y-86493605D01*
X136077842Y-86493086D01*
X136078881Y-86493760D01*
X136094802Y-86513447D01*
X136166271Y-86540935D01*
X136242098Y-86528977D01*
X136263043Y-86517554D01*
X136277443Y-86508114D01*
X136279440Y-86508001D01*
X136280537Y-86509674D01*
X136279758Y-86511374D01*
X136198627Y-86573627D01*
X136102801Y-86698510D01*
X136081848Y-86749096D01*
X136080261Y-86750314D01*
X136078413Y-86749549D01*
X136078000Y-86748331D01*
X136078000Y-86550199D01*
X136068219Y-86501030D01*
X136053679Y-86479269D01*
X136053548Y-86477273D01*
X136055211Y-86476162D01*
X136056755Y-86476743D01*
G37*
G36*
X163946470Y-86477818D02*
G01*
X163946202Y-86479448D01*
X163931781Y-86501030D01*
X163922000Y-86550199D01*
X163922000Y-86748331D01*
X163921000Y-86750063D01*
X163919000Y-86750063D01*
X163918152Y-86749096D01*
X163897199Y-86698510D01*
X163801373Y-86573627D01*
X163694993Y-86491999D01*
X163694228Y-86490151D01*
X163695446Y-86488564D01*
X163697121Y-86488631D01*
X163711027Y-86495732D01*
X163711412Y-86495989D01*
X163722511Y-86505418D01*
X163791957Y-86538319D01*
X163868279Y-86532109D01*
X163922491Y-86494641D01*
X163924484Y-86494479D01*
X163925041Y-86494870D01*
X163925125Y-86494954D01*
X163943124Y-86476924D01*
X163945055Y-86476405D01*
X163946470Y-86477818D01*
G37*
G36*
X163921587Y-85250451D02*
G01*
X163922000Y-85251669D01*
X163922000Y-85449801D01*
X163931781Y-85498970D01*
X163946321Y-85520731D01*
X163946452Y-85522727D01*
X163944789Y-85523838D01*
X163943245Y-85523257D01*
X163925219Y-85505263D01*
X163924089Y-85506395D01*
X163922158Y-85506914D01*
X163921119Y-85506240D01*
X163905198Y-85486553D01*
X163833729Y-85459065D01*
X163757902Y-85471023D01*
X163736957Y-85482446D01*
X163722557Y-85491886D01*
X163720560Y-85491999D01*
X163719463Y-85490326D01*
X163720242Y-85488626D01*
X163801373Y-85426373D01*
X163897199Y-85301490D01*
X163918152Y-85250904D01*
X163919739Y-85249686D01*
X163921587Y-85250451D01*
G37*
G36*
X136081848Y-85250904D02*
G01*
X136102801Y-85301490D01*
X136198627Y-85426373D01*
X136305007Y-85508001D01*
X136305772Y-85509849D01*
X136304554Y-85511436D01*
X136302879Y-85511369D01*
X136288973Y-85504268D01*
X136288588Y-85504011D01*
X136277489Y-85494582D01*
X136208043Y-85461681D01*
X136131721Y-85467891D01*
X136077509Y-85505359D01*
X136075516Y-85505521D01*
X136074959Y-85505130D01*
X136074875Y-85505046D01*
X136056876Y-85523076D01*
X136054945Y-85523595D01*
X136053530Y-85522182D01*
X136053798Y-85520552D01*
X136068219Y-85498970D01*
X136078000Y-85449801D01*
X136078000Y-85251669D01*
X136079000Y-85249937D01*
X136081000Y-85249937D01*
X136081848Y-85250904D01*
G37*
G36*
X161771199Y-85225415D02*
G01*
X161771497Y-85225914D01*
X161802801Y-85301490D01*
X161890036Y-85415177D01*
X161890297Y-85417160D01*
X161888710Y-85418378D01*
X161887593Y-85418202D01*
X161818130Y-85385292D01*
X161741808Y-85391500D01*
X161678671Y-85435136D01*
X161662823Y-85457790D01*
X161658956Y-85464598D01*
X161658731Y-85464917D01*
X161637958Y-85488982D01*
X161636069Y-85489640D01*
X161634555Y-85488333D01*
X161634778Y-85486568D01*
X161714190Y-85367044D01*
X161767779Y-85225969D01*
X161769329Y-85224705D01*
X161771199Y-85225415D01*
G37*
G36*
X138233031Y-85222824D02*
G01*
X138233342Y-85223411D01*
X138271066Y-85336815D01*
X138345404Y-85459560D01*
X138345446Y-85461559D01*
X138343735Y-85462596D01*
X138342126Y-85461838D01*
X138322818Y-85437478D01*
X138261123Y-85391659D01*
X138185058Y-85382859D01*
X138116833Y-85412382D01*
X138114847Y-85412152D01*
X138114052Y-85410316D01*
X138114452Y-85409328D01*
X138197199Y-85301490D01*
X138229596Y-85223277D01*
X138231183Y-85222059D01*
X138233031Y-85222824D01*
G37*
G36*
X161651364Y-84529023D02*
G01*
X161679295Y-84563270D01*
X161741621Y-84608221D01*
X161817804Y-84615959D01*
X161884352Y-84586052D01*
X161886342Y-84586254D01*
X161887162Y-84588078D01*
X161886759Y-84589094D01*
X161802801Y-84698510D01*
X161770690Y-84776033D01*
X161769103Y-84777251D01*
X161767255Y-84776486D01*
X161766953Y-84775926D01*
X161724159Y-84653039D01*
X161648118Y-84531347D01*
X161648048Y-84529348D01*
X161649744Y-84528288D01*
X161651364Y-84529023D01*
G37*
G36*
X138358691Y-84520570D02*
G01*
X138358493Y-84522337D01*
X138280754Y-84642964D01*
X138232671Y-84775070D01*
X138231139Y-84776356D01*
X138229260Y-84775672D01*
X138228944Y-84775151D01*
X138197199Y-84698510D01*
X138109584Y-84584328D01*
X138109323Y-84582345D01*
X138110910Y-84581127D01*
X138112027Y-84581303D01*
X138181032Y-84613996D01*
X138257354Y-84607788D01*
X138320484Y-84564156D01*
X138330924Y-84549008D01*
X138331039Y-84548857D01*
X138355280Y-84519968D01*
X138357159Y-84519284D01*
X138358691Y-84520570D01*
G37*
G36*
X136056755Y-84476743D02*
G01*
X136074781Y-84494737D01*
X136075911Y-84493605D01*
X136077842Y-84493086D01*
X136078881Y-84493760D01*
X136094802Y-84513447D01*
X136166271Y-84540935D01*
X136242098Y-84528977D01*
X136263043Y-84517554D01*
X136277443Y-84508114D01*
X136279440Y-84508001D01*
X136280537Y-84509674D01*
X136279758Y-84511374D01*
X136198627Y-84573627D01*
X136102801Y-84698510D01*
X136081848Y-84749096D01*
X136080261Y-84750314D01*
X136078413Y-84749549D01*
X136078000Y-84748331D01*
X136078000Y-84550199D01*
X136068219Y-84501030D01*
X136053679Y-84479269D01*
X136053548Y-84477273D01*
X136055211Y-84476162D01*
X136056755Y-84476743D01*
G37*
G36*
X163946470Y-84477818D02*
G01*
X163946202Y-84479448D01*
X163931781Y-84501030D01*
X163922000Y-84550199D01*
X163922000Y-84748331D01*
X163921000Y-84750063D01*
X163919000Y-84750063D01*
X163918152Y-84749096D01*
X163897199Y-84698510D01*
X163801373Y-84573627D01*
X163694993Y-84491999D01*
X163694228Y-84490151D01*
X163695446Y-84488564D01*
X163697121Y-84488631D01*
X163711027Y-84495732D01*
X163711412Y-84495989D01*
X163722511Y-84505418D01*
X163791957Y-84538319D01*
X163868279Y-84532109D01*
X163922491Y-84494641D01*
X163924484Y-84494479D01*
X163925041Y-84494870D01*
X163925125Y-84494954D01*
X163943124Y-84476924D01*
X163945055Y-84476405D01*
X163946470Y-84477818D01*
G37*
G36*
X163921587Y-83250451D02*
G01*
X163922000Y-83251669D01*
X163922000Y-83449801D01*
X163931781Y-83498970D01*
X163946321Y-83520731D01*
X163946452Y-83522727D01*
X163944789Y-83523838D01*
X163943245Y-83523257D01*
X163925219Y-83505263D01*
X163924089Y-83506395D01*
X163922158Y-83506914D01*
X163921119Y-83506240D01*
X163905198Y-83486553D01*
X163833729Y-83459065D01*
X163757902Y-83471023D01*
X163736957Y-83482446D01*
X163722557Y-83491886D01*
X163720560Y-83491999D01*
X163719463Y-83490326D01*
X163720242Y-83488626D01*
X163801373Y-83426373D01*
X163897199Y-83301490D01*
X163918152Y-83250904D01*
X163919739Y-83249686D01*
X163921587Y-83250451D01*
G37*
G36*
X136081848Y-83250904D02*
G01*
X136102801Y-83301490D01*
X136198627Y-83426373D01*
X136305007Y-83508001D01*
X136305772Y-83509849D01*
X136304554Y-83511436D01*
X136302879Y-83511369D01*
X136288973Y-83504268D01*
X136288588Y-83504011D01*
X136277489Y-83494582D01*
X136208043Y-83461681D01*
X136131721Y-83467891D01*
X136077509Y-83505359D01*
X136075516Y-83505521D01*
X136074959Y-83505130D01*
X136074875Y-83505046D01*
X136056876Y-83523076D01*
X136054945Y-83523595D01*
X136053530Y-83522182D01*
X136053798Y-83520552D01*
X136068219Y-83498970D01*
X136078000Y-83449801D01*
X136078000Y-83251669D01*
X136079000Y-83249937D01*
X136081000Y-83249937D01*
X136081848Y-83250904D01*
G37*
G36*
X161771199Y-83225415D02*
G01*
X161771497Y-83225914D01*
X161802801Y-83301490D01*
X161890036Y-83415177D01*
X161890297Y-83417160D01*
X161888710Y-83418378D01*
X161887593Y-83418202D01*
X161818130Y-83385292D01*
X161741808Y-83391500D01*
X161678671Y-83435136D01*
X161662823Y-83457790D01*
X161658956Y-83464598D01*
X161658731Y-83464917D01*
X161637958Y-83488982D01*
X161636069Y-83489640D01*
X161634555Y-83488333D01*
X161634778Y-83486568D01*
X161714190Y-83367044D01*
X161767779Y-83225969D01*
X161769329Y-83224705D01*
X161771199Y-83225415D01*
G37*
G36*
X138233031Y-83222824D02*
G01*
X138233342Y-83223411D01*
X138271066Y-83336815D01*
X138345404Y-83459560D01*
X138345446Y-83461559D01*
X138343735Y-83462596D01*
X138342126Y-83461838D01*
X138322818Y-83437478D01*
X138261123Y-83391659D01*
X138185058Y-83382859D01*
X138116833Y-83412382D01*
X138114847Y-83412152D01*
X138114052Y-83410316D01*
X138114452Y-83409328D01*
X138197199Y-83301490D01*
X138229596Y-83223277D01*
X138231183Y-83222059D01*
X138233031Y-83222824D01*
G37*
G36*
X161651364Y-82529023D02*
G01*
X161679295Y-82563270D01*
X161741621Y-82608221D01*
X161817804Y-82615959D01*
X161884352Y-82586052D01*
X161886342Y-82586254D01*
X161887162Y-82588078D01*
X161886759Y-82589094D01*
X161802801Y-82698510D01*
X161770690Y-82776033D01*
X161769103Y-82777251D01*
X161767255Y-82776486D01*
X161766953Y-82775926D01*
X161724159Y-82653039D01*
X161648118Y-82531347D01*
X161648048Y-82529348D01*
X161649744Y-82528288D01*
X161651364Y-82529023D01*
G37*
G36*
X138358691Y-82520570D02*
G01*
X138358493Y-82522337D01*
X138280754Y-82642964D01*
X138232671Y-82775070D01*
X138231139Y-82776356D01*
X138229260Y-82775672D01*
X138228944Y-82775151D01*
X138197199Y-82698510D01*
X138109584Y-82584328D01*
X138109323Y-82582345D01*
X138110910Y-82581127D01*
X138112027Y-82581303D01*
X138181032Y-82613996D01*
X138257354Y-82607788D01*
X138320484Y-82564156D01*
X138330924Y-82549008D01*
X138331039Y-82548857D01*
X138355280Y-82519968D01*
X138357159Y-82519284D01*
X138358691Y-82520570D01*
G37*
G36*
X136056755Y-82476743D02*
G01*
X136074781Y-82494737D01*
X136075911Y-82493605D01*
X136077842Y-82493086D01*
X136078881Y-82493760D01*
X136094802Y-82513447D01*
X136166271Y-82540935D01*
X136242098Y-82528977D01*
X136263043Y-82517554D01*
X136277443Y-82508114D01*
X136279440Y-82508001D01*
X136280537Y-82509674D01*
X136279758Y-82511374D01*
X136198627Y-82573627D01*
X136102801Y-82698510D01*
X136081848Y-82749096D01*
X136080261Y-82750314D01*
X136078413Y-82749549D01*
X136078000Y-82748331D01*
X136078000Y-82550199D01*
X136068219Y-82501030D01*
X136053679Y-82479269D01*
X136053548Y-82477273D01*
X136055211Y-82476162D01*
X136056755Y-82476743D01*
G37*
G36*
X163946470Y-82477818D02*
G01*
X163946202Y-82479448D01*
X163931781Y-82501030D01*
X163922000Y-82550199D01*
X163922000Y-82748331D01*
X163921000Y-82750063D01*
X163919000Y-82750063D01*
X163918152Y-82749096D01*
X163897199Y-82698510D01*
X163801373Y-82573627D01*
X163694993Y-82491999D01*
X163694228Y-82490151D01*
X163695446Y-82488564D01*
X163697121Y-82488631D01*
X163711027Y-82495732D01*
X163711412Y-82495989D01*
X163722511Y-82505418D01*
X163791957Y-82538319D01*
X163868279Y-82532109D01*
X163922491Y-82494641D01*
X163924484Y-82494479D01*
X163925041Y-82494870D01*
X163925125Y-82494954D01*
X163943124Y-82476924D01*
X163945055Y-82476405D01*
X163946470Y-82477818D01*
G37*
G36*
X163921587Y-81250451D02*
G01*
X163922000Y-81251669D01*
X163922000Y-81449801D01*
X163931781Y-81498970D01*
X163946321Y-81520731D01*
X163946452Y-81522727D01*
X163944789Y-81523838D01*
X163943245Y-81523257D01*
X163925219Y-81505263D01*
X163924089Y-81506395D01*
X163922158Y-81506914D01*
X163921119Y-81506240D01*
X163905198Y-81486553D01*
X163833729Y-81459065D01*
X163757902Y-81471023D01*
X163736957Y-81482446D01*
X163722557Y-81491886D01*
X163720560Y-81491999D01*
X163719463Y-81490326D01*
X163720242Y-81488626D01*
X163801373Y-81426373D01*
X163897199Y-81301490D01*
X163918152Y-81250904D01*
X163919739Y-81249686D01*
X163921587Y-81250451D01*
G37*
G36*
X136081848Y-81250904D02*
G01*
X136102801Y-81301490D01*
X136198627Y-81426373D01*
X136305007Y-81508001D01*
X136305772Y-81509849D01*
X136304554Y-81511436D01*
X136302879Y-81511369D01*
X136288973Y-81504268D01*
X136288588Y-81504011D01*
X136277489Y-81494582D01*
X136208043Y-81461681D01*
X136131721Y-81467891D01*
X136077509Y-81505359D01*
X136075516Y-81505521D01*
X136074959Y-81505130D01*
X136074875Y-81505046D01*
X136056876Y-81523076D01*
X136054945Y-81523595D01*
X136053530Y-81522182D01*
X136053798Y-81520552D01*
X136068219Y-81498970D01*
X136078000Y-81449801D01*
X136078000Y-81251669D01*
X136079000Y-81249937D01*
X136081000Y-81249937D01*
X136081848Y-81250904D01*
G37*
G36*
X161771199Y-81225415D02*
G01*
X161771497Y-81225914D01*
X161802801Y-81301490D01*
X161890036Y-81415177D01*
X161890297Y-81417160D01*
X161888710Y-81418378D01*
X161887593Y-81418202D01*
X161818130Y-81385292D01*
X161741808Y-81391500D01*
X161678671Y-81435136D01*
X161662823Y-81457790D01*
X161658956Y-81464598D01*
X161658731Y-81464917D01*
X161637958Y-81488982D01*
X161636069Y-81489640D01*
X161634555Y-81488333D01*
X161634778Y-81486568D01*
X161714190Y-81367044D01*
X161767779Y-81225969D01*
X161769329Y-81224705D01*
X161771199Y-81225415D01*
G37*
G36*
X138233031Y-81222824D02*
G01*
X138233342Y-81223411D01*
X138271066Y-81336815D01*
X138345404Y-81459560D01*
X138345446Y-81461559D01*
X138343735Y-81462596D01*
X138342126Y-81461838D01*
X138322818Y-81437478D01*
X138261123Y-81391659D01*
X138185058Y-81382859D01*
X138116833Y-81412382D01*
X138114847Y-81412152D01*
X138114052Y-81410316D01*
X138114452Y-81409328D01*
X138197199Y-81301490D01*
X138229596Y-81223277D01*
X138231183Y-81222059D01*
X138233031Y-81222824D01*
G37*
G36*
X161651364Y-80529023D02*
G01*
X161679295Y-80563270D01*
X161741621Y-80608221D01*
X161817804Y-80615959D01*
X161884352Y-80586052D01*
X161886342Y-80586254D01*
X161887162Y-80588078D01*
X161886759Y-80589094D01*
X161802801Y-80698510D01*
X161770690Y-80776033D01*
X161769103Y-80777251D01*
X161767255Y-80776486D01*
X161766953Y-80775926D01*
X161724159Y-80653039D01*
X161648118Y-80531347D01*
X161648048Y-80529348D01*
X161649744Y-80528288D01*
X161651364Y-80529023D01*
G37*
G36*
X138358691Y-80520570D02*
G01*
X138358493Y-80522337D01*
X138280754Y-80642964D01*
X138232671Y-80775070D01*
X138231139Y-80776356D01*
X138229260Y-80775672D01*
X138228944Y-80775151D01*
X138197199Y-80698510D01*
X138109584Y-80584328D01*
X138109323Y-80582345D01*
X138110910Y-80581127D01*
X138112027Y-80581303D01*
X138181032Y-80613996D01*
X138257354Y-80607788D01*
X138320484Y-80564156D01*
X138330924Y-80549008D01*
X138331039Y-80548857D01*
X138355280Y-80519968D01*
X138357159Y-80519284D01*
X138358691Y-80520570D01*
G37*
G36*
X136056755Y-80476743D02*
G01*
X136074781Y-80494737D01*
X136075911Y-80493605D01*
X136077842Y-80493086D01*
X136078881Y-80493760D01*
X136094802Y-80513447D01*
X136166271Y-80540935D01*
X136242098Y-80528977D01*
X136263043Y-80517554D01*
X136277443Y-80508114D01*
X136279440Y-80508001D01*
X136280537Y-80509674D01*
X136279758Y-80511374D01*
X136198627Y-80573627D01*
X136102801Y-80698510D01*
X136081848Y-80749096D01*
X136080261Y-80750314D01*
X136078413Y-80749549D01*
X136078000Y-80748331D01*
X136078000Y-80550199D01*
X136068219Y-80501030D01*
X136053679Y-80479269D01*
X136053548Y-80477273D01*
X136055211Y-80476162D01*
X136056755Y-80476743D01*
G37*
G36*
X163946470Y-80477818D02*
G01*
X163946202Y-80479448D01*
X163931781Y-80501030D01*
X163922000Y-80550199D01*
X163922000Y-80748331D01*
X163921000Y-80750063D01*
X163919000Y-80750063D01*
X163918152Y-80749096D01*
X163897199Y-80698510D01*
X163801373Y-80573627D01*
X163694993Y-80491999D01*
X163694228Y-80490151D01*
X163695446Y-80488564D01*
X163697121Y-80488631D01*
X163711027Y-80495732D01*
X163711412Y-80495989D01*
X163722511Y-80505418D01*
X163791957Y-80538319D01*
X163868279Y-80532109D01*
X163922491Y-80494641D01*
X163924484Y-80494479D01*
X163925041Y-80494870D01*
X163925125Y-80494954D01*
X163943124Y-80476924D01*
X163945055Y-80476405D01*
X163946470Y-80477818D01*
G37*
G36*
X163921587Y-79250451D02*
G01*
X163922000Y-79251669D01*
X163922000Y-79449801D01*
X163931781Y-79498970D01*
X163946321Y-79520731D01*
X163946452Y-79522727D01*
X163944789Y-79523838D01*
X163943245Y-79523257D01*
X163925219Y-79505263D01*
X163924089Y-79506395D01*
X163922158Y-79506914D01*
X163921119Y-79506240D01*
X163905198Y-79486553D01*
X163833729Y-79459065D01*
X163757902Y-79471023D01*
X163736957Y-79482446D01*
X163722557Y-79491886D01*
X163720560Y-79491999D01*
X163719463Y-79490326D01*
X163720242Y-79488626D01*
X163801373Y-79426373D01*
X163897199Y-79301490D01*
X163918152Y-79250904D01*
X163919739Y-79249686D01*
X163921587Y-79250451D01*
G37*
G36*
X136081848Y-79250904D02*
G01*
X136102801Y-79301490D01*
X136198627Y-79426373D01*
X136305007Y-79508001D01*
X136305772Y-79509849D01*
X136304554Y-79511436D01*
X136302879Y-79511369D01*
X136288973Y-79504268D01*
X136288588Y-79504011D01*
X136277489Y-79494582D01*
X136208043Y-79461681D01*
X136131721Y-79467891D01*
X136077509Y-79505359D01*
X136075516Y-79505521D01*
X136074959Y-79505130D01*
X136074875Y-79505046D01*
X136056876Y-79523076D01*
X136054945Y-79523595D01*
X136053530Y-79522182D01*
X136053798Y-79520552D01*
X136068219Y-79498970D01*
X136078000Y-79449801D01*
X136078000Y-79251669D01*
X136079000Y-79249937D01*
X136081000Y-79249937D01*
X136081848Y-79250904D01*
G37*
G36*
X161771199Y-79225415D02*
G01*
X161771497Y-79225914D01*
X161802801Y-79301490D01*
X161890036Y-79415177D01*
X161890297Y-79417160D01*
X161888710Y-79418378D01*
X161887593Y-79418202D01*
X161818130Y-79385292D01*
X161741808Y-79391500D01*
X161678671Y-79435136D01*
X161662823Y-79457790D01*
X161658956Y-79464598D01*
X161658731Y-79464917D01*
X161637958Y-79488982D01*
X161636069Y-79489640D01*
X161634555Y-79488333D01*
X161634778Y-79486568D01*
X161714190Y-79367044D01*
X161767779Y-79225969D01*
X161769329Y-79224705D01*
X161771199Y-79225415D01*
G37*
G36*
X138233031Y-79222824D02*
G01*
X138233342Y-79223411D01*
X138271066Y-79336815D01*
X138345404Y-79459560D01*
X138345446Y-79461559D01*
X138343735Y-79462596D01*
X138342126Y-79461838D01*
X138322818Y-79437478D01*
X138261123Y-79391659D01*
X138185058Y-79382859D01*
X138116833Y-79412382D01*
X138114847Y-79412152D01*
X138114052Y-79410316D01*
X138114452Y-79409328D01*
X138197199Y-79301490D01*
X138229596Y-79223277D01*
X138231183Y-79222059D01*
X138233031Y-79222824D01*
G37*
G36*
X161651364Y-78529023D02*
G01*
X161679295Y-78563270D01*
X161741621Y-78608221D01*
X161817804Y-78615959D01*
X161884352Y-78586052D01*
X161886342Y-78586254D01*
X161887162Y-78588078D01*
X161886759Y-78589094D01*
X161802801Y-78698510D01*
X161770690Y-78776033D01*
X161769103Y-78777251D01*
X161767255Y-78776486D01*
X161766953Y-78775926D01*
X161724159Y-78653039D01*
X161648118Y-78531347D01*
X161648048Y-78529348D01*
X161649744Y-78528288D01*
X161651364Y-78529023D01*
G37*
G36*
X138358691Y-78520570D02*
G01*
X138358493Y-78522337D01*
X138280754Y-78642964D01*
X138232671Y-78775070D01*
X138231139Y-78776356D01*
X138229260Y-78775672D01*
X138228944Y-78775151D01*
X138197199Y-78698510D01*
X138109584Y-78584328D01*
X138109323Y-78582345D01*
X138110910Y-78581127D01*
X138112027Y-78581303D01*
X138181032Y-78613996D01*
X138257354Y-78607788D01*
X138320484Y-78564156D01*
X138330924Y-78549008D01*
X138331039Y-78548857D01*
X138355280Y-78519968D01*
X138357159Y-78519284D01*
X138358691Y-78520570D01*
G37*
G36*
X136056755Y-78476743D02*
G01*
X136074781Y-78494737D01*
X136075911Y-78493605D01*
X136077842Y-78493086D01*
X136078881Y-78493760D01*
X136094802Y-78513447D01*
X136166271Y-78540935D01*
X136242098Y-78528977D01*
X136263043Y-78517554D01*
X136277443Y-78508114D01*
X136279440Y-78508001D01*
X136280537Y-78509674D01*
X136279758Y-78511374D01*
X136198627Y-78573627D01*
X136102801Y-78698510D01*
X136081848Y-78749096D01*
X136080261Y-78750314D01*
X136078413Y-78749549D01*
X136078000Y-78748331D01*
X136078000Y-78550199D01*
X136068219Y-78501030D01*
X136053679Y-78479269D01*
X136053548Y-78477273D01*
X136055211Y-78476162D01*
X136056755Y-78476743D01*
G37*
G36*
X163946470Y-78477818D02*
G01*
X163946202Y-78479448D01*
X163931781Y-78501030D01*
X163922000Y-78550199D01*
X163922000Y-78748331D01*
X163921000Y-78750063D01*
X163919000Y-78750063D01*
X163918152Y-78749096D01*
X163897199Y-78698510D01*
X163801373Y-78573627D01*
X163694993Y-78491999D01*
X163694228Y-78490151D01*
X163695446Y-78488564D01*
X163697121Y-78488631D01*
X163711027Y-78495732D01*
X163711412Y-78495989D01*
X163722511Y-78505418D01*
X163791957Y-78538319D01*
X163868279Y-78532109D01*
X163922491Y-78494641D01*
X163924484Y-78494479D01*
X163925041Y-78494870D01*
X163925125Y-78494954D01*
X163943124Y-78476924D01*
X163945055Y-78476405D01*
X163946470Y-78477818D01*
G37*
G36*
X163921587Y-77250451D02*
G01*
X163922000Y-77251669D01*
X163922000Y-77449801D01*
X163931781Y-77498970D01*
X163946321Y-77520731D01*
X163946452Y-77522727D01*
X163944789Y-77523838D01*
X163943245Y-77523257D01*
X163925219Y-77505263D01*
X163924089Y-77506395D01*
X163922158Y-77506914D01*
X163921119Y-77506240D01*
X163905198Y-77486553D01*
X163833729Y-77459065D01*
X163757902Y-77471023D01*
X163736957Y-77482446D01*
X163722557Y-77491886D01*
X163720560Y-77491999D01*
X163719463Y-77490326D01*
X163720242Y-77488626D01*
X163801373Y-77426373D01*
X163897199Y-77301490D01*
X163918152Y-77250904D01*
X163919739Y-77249686D01*
X163921587Y-77250451D01*
G37*
G36*
X136081848Y-77250904D02*
G01*
X136102801Y-77301490D01*
X136198627Y-77426373D01*
X136305007Y-77508001D01*
X136305772Y-77509849D01*
X136304554Y-77511436D01*
X136302879Y-77511369D01*
X136288973Y-77504268D01*
X136288588Y-77504011D01*
X136277489Y-77494582D01*
X136208043Y-77461681D01*
X136131721Y-77467891D01*
X136077509Y-77505359D01*
X136075516Y-77505521D01*
X136074959Y-77505130D01*
X136074875Y-77505046D01*
X136056876Y-77523076D01*
X136054945Y-77523595D01*
X136053530Y-77522182D01*
X136053798Y-77520552D01*
X136068219Y-77498970D01*
X136078000Y-77449801D01*
X136078000Y-77251669D01*
X136079000Y-77249937D01*
X136081000Y-77249937D01*
X136081848Y-77250904D01*
G37*
G36*
X161771199Y-77225415D02*
G01*
X161771497Y-77225914D01*
X161802801Y-77301490D01*
X161890036Y-77415177D01*
X161890297Y-77417160D01*
X161888710Y-77418378D01*
X161887593Y-77418202D01*
X161818130Y-77385292D01*
X161741808Y-77391500D01*
X161678671Y-77435136D01*
X161662823Y-77457790D01*
X161658956Y-77464598D01*
X161658731Y-77464917D01*
X161637958Y-77488982D01*
X161636069Y-77489640D01*
X161634555Y-77488333D01*
X161634778Y-77486568D01*
X161714190Y-77367044D01*
X161767779Y-77225969D01*
X161769329Y-77224705D01*
X161771199Y-77225415D01*
G37*
G36*
X138233031Y-77222824D02*
G01*
X138233342Y-77223411D01*
X138271066Y-77336815D01*
X138345404Y-77459560D01*
X138345446Y-77461559D01*
X138343735Y-77462596D01*
X138342126Y-77461838D01*
X138322818Y-77437478D01*
X138261123Y-77391659D01*
X138185058Y-77382859D01*
X138116833Y-77412382D01*
X138114847Y-77412152D01*
X138114052Y-77410316D01*
X138114452Y-77409328D01*
X138197199Y-77301490D01*
X138229596Y-77223277D01*
X138231183Y-77222059D01*
X138233031Y-77222824D01*
G37*
G36*
X161651364Y-76529023D02*
G01*
X161679295Y-76563270D01*
X161741621Y-76608221D01*
X161817804Y-76615959D01*
X161884352Y-76586052D01*
X161886342Y-76586254D01*
X161887162Y-76588078D01*
X161886759Y-76589094D01*
X161802801Y-76698510D01*
X161770690Y-76776033D01*
X161769103Y-76777251D01*
X161767255Y-76776486D01*
X161766953Y-76775926D01*
X161724159Y-76653039D01*
X161648118Y-76531347D01*
X161648048Y-76529348D01*
X161649744Y-76528288D01*
X161651364Y-76529023D01*
G37*
G36*
X138358691Y-76520570D02*
G01*
X138358493Y-76522337D01*
X138280754Y-76642964D01*
X138232671Y-76775070D01*
X138231139Y-76776356D01*
X138229260Y-76775672D01*
X138228944Y-76775151D01*
X138197199Y-76698510D01*
X138109584Y-76584328D01*
X138109323Y-76582345D01*
X138110910Y-76581127D01*
X138112027Y-76581303D01*
X138181032Y-76613996D01*
X138257354Y-76607788D01*
X138320484Y-76564156D01*
X138330924Y-76549008D01*
X138331039Y-76548857D01*
X138355280Y-76519968D01*
X138357159Y-76519284D01*
X138358691Y-76520570D01*
G37*
G36*
X136056755Y-76476743D02*
G01*
X136074781Y-76494737D01*
X136075911Y-76493605D01*
X136077842Y-76493086D01*
X136078881Y-76493760D01*
X136094802Y-76513447D01*
X136166271Y-76540935D01*
X136242098Y-76528977D01*
X136263043Y-76517554D01*
X136277443Y-76508114D01*
X136279440Y-76508001D01*
X136280537Y-76509674D01*
X136279758Y-76511374D01*
X136198627Y-76573627D01*
X136102801Y-76698510D01*
X136081848Y-76749096D01*
X136080261Y-76750314D01*
X136078413Y-76749549D01*
X136078000Y-76748331D01*
X136078000Y-76550199D01*
X136068219Y-76501030D01*
X136053679Y-76479269D01*
X136053548Y-76477273D01*
X136055211Y-76476162D01*
X136056755Y-76476743D01*
G37*
G36*
X163946470Y-76477818D02*
G01*
X163946202Y-76479448D01*
X163931781Y-76501030D01*
X163922000Y-76550199D01*
X163922000Y-76748331D01*
X163921000Y-76750063D01*
X163919000Y-76750063D01*
X163918152Y-76749096D01*
X163897199Y-76698510D01*
X163801373Y-76573627D01*
X163694993Y-76491999D01*
X163694228Y-76490151D01*
X163695446Y-76488564D01*
X163697121Y-76488631D01*
X163711027Y-76495732D01*
X163711412Y-76495989D01*
X163722511Y-76505418D01*
X163791957Y-76538319D01*
X163868279Y-76532109D01*
X163922491Y-76494641D01*
X163924484Y-76494479D01*
X163925041Y-76494870D01*
X163925125Y-76494954D01*
X163943124Y-76476924D01*
X163945055Y-76476405D01*
X163946470Y-76477818D01*
G37*
G36*
X163921587Y-75250451D02*
G01*
X163922000Y-75251669D01*
X163922000Y-75449801D01*
X163931781Y-75498970D01*
X163946321Y-75520731D01*
X163946452Y-75522727D01*
X163944789Y-75523838D01*
X163943245Y-75523257D01*
X163925219Y-75505263D01*
X163924089Y-75506395D01*
X163922158Y-75506914D01*
X163921119Y-75506240D01*
X163905198Y-75486553D01*
X163833729Y-75459065D01*
X163757902Y-75471023D01*
X163736957Y-75482446D01*
X163722557Y-75491886D01*
X163720560Y-75491999D01*
X163719463Y-75490326D01*
X163720242Y-75488626D01*
X163801373Y-75426373D01*
X163897199Y-75301490D01*
X163918152Y-75250904D01*
X163919739Y-75249686D01*
X163921587Y-75250451D01*
G37*
G36*
X136081848Y-75250904D02*
G01*
X136102801Y-75301490D01*
X136198627Y-75426373D01*
X136305007Y-75508001D01*
X136305772Y-75509849D01*
X136304554Y-75511436D01*
X136302879Y-75511369D01*
X136288973Y-75504268D01*
X136288588Y-75504011D01*
X136277489Y-75494582D01*
X136208043Y-75461681D01*
X136131721Y-75467891D01*
X136077509Y-75505359D01*
X136075516Y-75505521D01*
X136074959Y-75505130D01*
X136074875Y-75505046D01*
X136056876Y-75523076D01*
X136054945Y-75523595D01*
X136053530Y-75522182D01*
X136053798Y-75520552D01*
X136068219Y-75498970D01*
X136078000Y-75449801D01*
X136078000Y-75251669D01*
X136079000Y-75249937D01*
X136081000Y-75249937D01*
X136081848Y-75250904D01*
G37*
G36*
X161771199Y-75225415D02*
G01*
X161771497Y-75225914D01*
X161802801Y-75301490D01*
X161890036Y-75415177D01*
X161890297Y-75417160D01*
X161888710Y-75418378D01*
X161887593Y-75418202D01*
X161818130Y-75385292D01*
X161741808Y-75391500D01*
X161678671Y-75435136D01*
X161662823Y-75457790D01*
X161658956Y-75464598D01*
X161658731Y-75464917D01*
X161637958Y-75488982D01*
X161636069Y-75489640D01*
X161634555Y-75488333D01*
X161634778Y-75486568D01*
X161714190Y-75367044D01*
X161767779Y-75225969D01*
X161769329Y-75224705D01*
X161771199Y-75225415D01*
G37*
G36*
X138233031Y-75222824D02*
G01*
X138233342Y-75223411D01*
X138271066Y-75336815D01*
X138345404Y-75459560D01*
X138345446Y-75461559D01*
X138343735Y-75462596D01*
X138342126Y-75461838D01*
X138322818Y-75437478D01*
X138261123Y-75391659D01*
X138185058Y-75382859D01*
X138116833Y-75412382D01*
X138114847Y-75412152D01*
X138114052Y-75410316D01*
X138114452Y-75409328D01*
X138197199Y-75301490D01*
X138229596Y-75223277D01*
X138231183Y-75222059D01*
X138233031Y-75222824D01*
G37*
G36*
X161651364Y-74529023D02*
G01*
X161679295Y-74563270D01*
X161741621Y-74608221D01*
X161817804Y-74615959D01*
X161884352Y-74586052D01*
X161886342Y-74586254D01*
X161887162Y-74588078D01*
X161886759Y-74589094D01*
X161802801Y-74698510D01*
X161770690Y-74776033D01*
X161769103Y-74777251D01*
X161767255Y-74776486D01*
X161766953Y-74775926D01*
X161724159Y-74653039D01*
X161648118Y-74531347D01*
X161648048Y-74529348D01*
X161649744Y-74528288D01*
X161651364Y-74529023D01*
G37*
G36*
X138358691Y-74520570D02*
G01*
X138358493Y-74522337D01*
X138280754Y-74642964D01*
X138232671Y-74775070D01*
X138231139Y-74776356D01*
X138229260Y-74775672D01*
X138228944Y-74775151D01*
X138197199Y-74698510D01*
X138109584Y-74584328D01*
X138109323Y-74582345D01*
X138110910Y-74581127D01*
X138112027Y-74581303D01*
X138181032Y-74613996D01*
X138257354Y-74607788D01*
X138320484Y-74564156D01*
X138330924Y-74549008D01*
X138331039Y-74548857D01*
X138355280Y-74519968D01*
X138357159Y-74519284D01*
X138358691Y-74520570D01*
G37*
G36*
X136056755Y-74476743D02*
G01*
X136074781Y-74494737D01*
X136075911Y-74493605D01*
X136077842Y-74493086D01*
X136078881Y-74493760D01*
X136094802Y-74513447D01*
X136166271Y-74540935D01*
X136242098Y-74528977D01*
X136263043Y-74517554D01*
X136277443Y-74508114D01*
X136279440Y-74508001D01*
X136280537Y-74509674D01*
X136279758Y-74511374D01*
X136198627Y-74573627D01*
X136102801Y-74698510D01*
X136081848Y-74749096D01*
X136080261Y-74750314D01*
X136078413Y-74749549D01*
X136078000Y-74748331D01*
X136078000Y-74550199D01*
X136068219Y-74501030D01*
X136053679Y-74479269D01*
X136053548Y-74477273D01*
X136055211Y-74476162D01*
X136056755Y-74476743D01*
G37*
G36*
X163946470Y-74477818D02*
G01*
X163946202Y-74479448D01*
X163931781Y-74501030D01*
X163922000Y-74550199D01*
X163922000Y-74748331D01*
X163921000Y-74750063D01*
X163919000Y-74750063D01*
X163918152Y-74749096D01*
X163897199Y-74698510D01*
X163801373Y-74573627D01*
X163694993Y-74491999D01*
X163694228Y-74490151D01*
X163695446Y-74488564D01*
X163697121Y-74488631D01*
X163711027Y-74495732D01*
X163711412Y-74495989D01*
X163722511Y-74505418D01*
X163791957Y-74538319D01*
X163868279Y-74532109D01*
X163922491Y-74494641D01*
X163924484Y-74494479D01*
X163925041Y-74494870D01*
X163925125Y-74494954D01*
X163943124Y-74476924D01*
X163945055Y-74476405D01*
X163946470Y-74477818D01*
G37*
G36*
X163921587Y-73250451D02*
G01*
X163922000Y-73251669D01*
X163922000Y-73449801D01*
X163931781Y-73498970D01*
X163946321Y-73520731D01*
X163946452Y-73522727D01*
X163944789Y-73523838D01*
X163943245Y-73523257D01*
X163925219Y-73505263D01*
X163924089Y-73506395D01*
X163922158Y-73506914D01*
X163921119Y-73506240D01*
X163905198Y-73486553D01*
X163833729Y-73459065D01*
X163757902Y-73471023D01*
X163736957Y-73482446D01*
X163722557Y-73491886D01*
X163720560Y-73491999D01*
X163719463Y-73490326D01*
X163720242Y-73488626D01*
X163801373Y-73426373D01*
X163897199Y-73301490D01*
X163918152Y-73250904D01*
X163919739Y-73249686D01*
X163921587Y-73250451D01*
G37*
G36*
X136081848Y-73250904D02*
G01*
X136102801Y-73301490D01*
X136198627Y-73426373D01*
X136305007Y-73508001D01*
X136305772Y-73509849D01*
X136304554Y-73511436D01*
X136302879Y-73511369D01*
X136288973Y-73504268D01*
X136288588Y-73504011D01*
X136277489Y-73494582D01*
X136208043Y-73461681D01*
X136131721Y-73467891D01*
X136077509Y-73505359D01*
X136075516Y-73505521D01*
X136074959Y-73505130D01*
X136074875Y-73505046D01*
X136056876Y-73523076D01*
X136054945Y-73523595D01*
X136053530Y-73522182D01*
X136053798Y-73520552D01*
X136068219Y-73498970D01*
X136078000Y-73449801D01*
X136078000Y-73251669D01*
X136079000Y-73249937D01*
X136081000Y-73249937D01*
X136081848Y-73250904D01*
G37*
G36*
X161771199Y-73225415D02*
G01*
X161771497Y-73225914D01*
X161802801Y-73301490D01*
X161890036Y-73415177D01*
X161890297Y-73417160D01*
X161888710Y-73418378D01*
X161887593Y-73418202D01*
X161818130Y-73385292D01*
X161741808Y-73391500D01*
X161678671Y-73435136D01*
X161662823Y-73457790D01*
X161658956Y-73464598D01*
X161658731Y-73464917D01*
X161637958Y-73488982D01*
X161636069Y-73489640D01*
X161634555Y-73488333D01*
X161634778Y-73486568D01*
X161714190Y-73367044D01*
X161767779Y-73225969D01*
X161769329Y-73224705D01*
X161771199Y-73225415D01*
G37*
G36*
X138233031Y-73222824D02*
G01*
X138233342Y-73223411D01*
X138271066Y-73336815D01*
X138345404Y-73459560D01*
X138345446Y-73461559D01*
X138343735Y-73462596D01*
X138342126Y-73461838D01*
X138322818Y-73437478D01*
X138261123Y-73391659D01*
X138185058Y-73382859D01*
X138116833Y-73412382D01*
X138114847Y-73412152D01*
X138114052Y-73410316D01*
X138114452Y-73409328D01*
X138197199Y-73301490D01*
X138229596Y-73223277D01*
X138231183Y-73222059D01*
X138233031Y-73222824D01*
G37*
G36*
X110937862Y-72747931D02*
G01*
X110937896Y-72749538D01*
X110890008Y-72865148D01*
X110872017Y-73001800D01*
X110890008Y-73138452D01*
X110935697Y-73248754D01*
X110935436Y-73250737D01*
X110933588Y-73251502D01*
X110932189Y-73250635D01*
X110922960Y-73236902D01*
X110865053Y-73186386D01*
X110789910Y-73171644D01*
X110717466Y-73196447D01*
X110676271Y-73243670D01*
X110674903Y-73244139D01*
X110670474Y-73250302D01*
X110670357Y-73250450D01*
X110666973Y-73254329D01*
X110666068Y-73256362D01*
X110665865Y-73256716D01*
X110664478Y-73258647D01*
X110662656Y-73259470D01*
X110661031Y-73258303D01*
X110661006Y-73256715D01*
X110709992Y-73138452D01*
X110727983Y-73001800D01*
X110709992Y-72865148D01*
X110663202Y-72752188D01*
X110663463Y-72750205D01*
X110665311Y-72749440D01*
X110666698Y-72750290D01*
X110677718Y-72766324D01*
X110736153Y-72816233D01*
X110811446Y-72830188D01*
X110883625Y-72804627D01*
X110918915Y-72763308D01*
X110920800Y-72762640D01*
X110921586Y-72762971D01*
X110922951Y-72763930D01*
X110934412Y-72747623D01*
X110936226Y-72746781D01*
X110937862Y-72747931D01*
G37*
G36*
X161651364Y-72529023D02*
G01*
X161679295Y-72563270D01*
X161741621Y-72608221D01*
X161817804Y-72615959D01*
X161884352Y-72586052D01*
X161886342Y-72586254D01*
X161887162Y-72588078D01*
X161886759Y-72589094D01*
X161802801Y-72698510D01*
X161770690Y-72776033D01*
X161769103Y-72777251D01*
X161767255Y-72776486D01*
X161766953Y-72775926D01*
X161724159Y-72653039D01*
X161648118Y-72531347D01*
X161648048Y-72529348D01*
X161649744Y-72528288D01*
X161651364Y-72529023D01*
G37*
G36*
X138358691Y-72520570D02*
G01*
X138358493Y-72522337D01*
X138280754Y-72642964D01*
X138232671Y-72775070D01*
X138231139Y-72776356D01*
X138229260Y-72775672D01*
X138228944Y-72775151D01*
X138197199Y-72698510D01*
X138109584Y-72584328D01*
X138109323Y-72582345D01*
X138110910Y-72581127D01*
X138112027Y-72581303D01*
X138181032Y-72613996D01*
X138257354Y-72607788D01*
X138320484Y-72564156D01*
X138330924Y-72549008D01*
X138331039Y-72548857D01*
X138355280Y-72519968D01*
X138357159Y-72519284D01*
X138358691Y-72520570D01*
G37*
G36*
X136056755Y-72476743D02*
G01*
X136074781Y-72494737D01*
X136075911Y-72493605D01*
X136077842Y-72493086D01*
X136078881Y-72493760D01*
X136094802Y-72513447D01*
X136166271Y-72540935D01*
X136242098Y-72528977D01*
X136263043Y-72517554D01*
X136277443Y-72508114D01*
X136279440Y-72508001D01*
X136280537Y-72509674D01*
X136279758Y-72511374D01*
X136198627Y-72573627D01*
X136102801Y-72698510D01*
X136081848Y-72749096D01*
X136080261Y-72750314D01*
X136078413Y-72749549D01*
X136078000Y-72748331D01*
X136078000Y-72550199D01*
X136068219Y-72501030D01*
X136053679Y-72479269D01*
X136053548Y-72477273D01*
X136055211Y-72476162D01*
X136056755Y-72476743D01*
G37*
G36*
X163946470Y-72477818D02*
G01*
X163946202Y-72479448D01*
X163931781Y-72501030D01*
X163922000Y-72550199D01*
X163922000Y-72748331D01*
X163921000Y-72750063D01*
X163919000Y-72750063D01*
X163918152Y-72749096D01*
X163897199Y-72698510D01*
X163801373Y-72573627D01*
X163694993Y-72491999D01*
X163694228Y-72490151D01*
X163695446Y-72488564D01*
X163697121Y-72488631D01*
X163711027Y-72495732D01*
X163711412Y-72495989D01*
X163722511Y-72505418D01*
X163791957Y-72538319D01*
X163868279Y-72532109D01*
X163922491Y-72494641D01*
X163924484Y-72494479D01*
X163925041Y-72494870D01*
X163925125Y-72494954D01*
X163943124Y-72476924D01*
X163945055Y-72476405D01*
X163946470Y-72477818D01*
G37*
G36*
X109859220Y-72400124D02*
G01*
X109936010Y-72459047D01*
X110034763Y-72499952D01*
X110035981Y-72501539D01*
X110035216Y-72503387D01*
X110034763Y-72503648D01*
X109936010Y-72544553D01*
X109850097Y-72610476D01*
X109848114Y-72610737D01*
X109846896Y-72609150D01*
X109847219Y-72607774D01*
X109886289Y-72549630D01*
X109891498Y-72473235D01*
X109857715Y-72404277D01*
X109856573Y-72403110D01*
X109856076Y-72401173D01*
X109857505Y-72399774D01*
X109859220Y-72400124D01*
G37*
G36*
X111059220Y-72400124D02*
G01*
X111136010Y-72459047D01*
X111234763Y-72499952D01*
X111235981Y-72501539D01*
X111235216Y-72503387D01*
X111234763Y-72503648D01*
X111136010Y-72544553D01*
X111050097Y-72610476D01*
X111048114Y-72610737D01*
X111046896Y-72609150D01*
X111047219Y-72607774D01*
X111086289Y-72549630D01*
X111091498Y-72473235D01*
X111057715Y-72404277D01*
X111056573Y-72403110D01*
X111056076Y-72401173D01*
X111057505Y-72399774D01*
X111059220Y-72400124D01*
G37*
G36*
X111754406Y-72393451D02*
G01*
X111754071Y-72394845D01*
X111714373Y-72452606D01*
X111708366Y-72528944D01*
X111741419Y-72598241D01*
X111744209Y-72601090D01*
X111744706Y-72603027D01*
X111743277Y-72604426D01*
X111741562Y-72604076D01*
X111663990Y-72544553D01*
X111565237Y-72503648D01*
X111564019Y-72502061D01*
X111564784Y-72500213D01*
X111565237Y-72499952D01*
X111663990Y-72459047D01*
X111751205Y-72392125D01*
X111753188Y-72391864D01*
X111754406Y-72393451D01*
G37*
G36*
X110554406Y-72393451D02*
G01*
X110554071Y-72394845D01*
X110514373Y-72452606D01*
X110508366Y-72528944D01*
X110541419Y-72598241D01*
X110544209Y-72601090D01*
X110544706Y-72603027D01*
X110543277Y-72604426D01*
X110541562Y-72604076D01*
X110463990Y-72544553D01*
X110365237Y-72503648D01*
X110364019Y-72502061D01*
X110364784Y-72500213D01*
X110365237Y-72499952D01*
X110463990Y-72459047D01*
X110551205Y-72392125D01*
X110553188Y-72391864D01*
X110554406Y-72393451D01*
G37*
G36*
X110937862Y-71747931D02*
G01*
X110937896Y-71749538D01*
X110890008Y-71865148D01*
X110872017Y-72001800D01*
X110890008Y-72138452D01*
X110935697Y-72248754D01*
X110935436Y-72250737D01*
X110933588Y-72251502D01*
X110932189Y-72250635D01*
X110922960Y-72236902D01*
X110865053Y-72186386D01*
X110789910Y-72171644D01*
X110717466Y-72196447D01*
X110676271Y-72243670D01*
X110674903Y-72244139D01*
X110670474Y-72250302D01*
X110670357Y-72250450D01*
X110666973Y-72254329D01*
X110666068Y-72256362D01*
X110665865Y-72256716D01*
X110664478Y-72258647D01*
X110662656Y-72259470D01*
X110661031Y-72258303D01*
X110661006Y-72256715D01*
X110709992Y-72138452D01*
X110727983Y-72001800D01*
X110709992Y-71865148D01*
X110663202Y-71752188D01*
X110663463Y-71750205D01*
X110665311Y-71749440D01*
X110666698Y-71750290D01*
X110677718Y-71766324D01*
X110736153Y-71816233D01*
X110811446Y-71830188D01*
X110883625Y-71804627D01*
X110918915Y-71763308D01*
X110920800Y-71762640D01*
X110921586Y-71762971D01*
X110922951Y-71763930D01*
X110934412Y-71747623D01*
X110936226Y-71746781D01*
X110937862Y-71747931D01*
G37*
G36*
X163921587Y-71250451D02*
G01*
X163922000Y-71251669D01*
X163922000Y-71449801D01*
X163931781Y-71498970D01*
X163946321Y-71520731D01*
X163946452Y-71522727D01*
X163944789Y-71523838D01*
X163943245Y-71523257D01*
X163925219Y-71505263D01*
X163924089Y-71506395D01*
X163922158Y-71506914D01*
X163921119Y-71506240D01*
X163905198Y-71486553D01*
X163833729Y-71459065D01*
X163757902Y-71471023D01*
X163736957Y-71482446D01*
X163722557Y-71491886D01*
X163720560Y-71491999D01*
X163719463Y-71490326D01*
X163720242Y-71488626D01*
X163801373Y-71426373D01*
X163897199Y-71301490D01*
X163918152Y-71250904D01*
X163919739Y-71249686D01*
X163921587Y-71250451D01*
G37*
G36*
X136081848Y-71250904D02*
G01*
X136102801Y-71301490D01*
X136198627Y-71426373D01*
X136305007Y-71508001D01*
X136305772Y-71509849D01*
X136304554Y-71511436D01*
X136302879Y-71511369D01*
X136288973Y-71504268D01*
X136288588Y-71504011D01*
X136277489Y-71494582D01*
X136208043Y-71461681D01*
X136131721Y-71467891D01*
X136077509Y-71505359D01*
X136075516Y-71505521D01*
X136074959Y-71505130D01*
X136074875Y-71505046D01*
X136056876Y-71523076D01*
X136054945Y-71523595D01*
X136053530Y-71522182D01*
X136053798Y-71520552D01*
X136068219Y-71498970D01*
X136078000Y-71449801D01*
X136078000Y-71251669D01*
X136079000Y-71249937D01*
X136081000Y-71249937D01*
X136081848Y-71250904D01*
G37*
G36*
X110337427Y-71212699D02*
G01*
X110337688Y-71214682D01*
X110336776Y-71215685D01*
X110283798Y-71243736D01*
X110243108Y-71308601D01*
X110240303Y-71385123D01*
X110276122Y-71452773D01*
X110335272Y-71487754D01*
X110336254Y-71489496D01*
X110335236Y-71491217D01*
X110333993Y-71491458D01*
X110200000Y-71473817D01*
X110066650Y-71491373D01*
X110064802Y-71490608D01*
X110064541Y-71488625D01*
X110065435Y-71487632D01*
X110118366Y-71458894D01*
X110158376Y-71393605D01*
X110160382Y-71317058D01*
X110123852Y-71249777D01*
X110066982Y-71216143D01*
X110066000Y-71214401D01*
X110067018Y-71212680D01*
X110068261Y-71212439D01*
X110200000Y-71229783D01*
X110335579Y-71211934D01*
X110337427Y-71212699D01*
G37*
G36*
X111537427Y-71212699D02*
G01*
X111537688Y-71214682D01*
X111536776Y-71215685D01*
X111483798Y-71243736D01*
X111443108Y-71308601D01*
X111440303Y-71385123D01*
X111476122Y-71452773D01*
X111535272Y-71487754D01*
X111536254Y-71489496D01*
X111535236Y-71491217D01*
X111533993Y-71491458D01*
X111400000Y-71473817D01*
X111266650Y-71491373D01*
X111264802Y-71490608D01*
X111264541Y-71488625D01*
X111265435Y-71487632D01*
X111318366Y-71458894D01*
X111358376Y-71393605D01*
X111360382Y-71317058D01*
X111323852Y-71249777D01*
X111266982Y-71216143D01*
X111266000Y-71214401D01*
X111267018Y-71212680D01*
X111268261Y-71212439D01*
X111400000Y-71229783D01*
X111535579Y-71211934D01*
X111537427Y-71212699D01*
G37*
G36*
X161771199Y-71225415D02*
G01*
X161771497Y-71225914D01*
X161802801Y-71301490D01*
X161890036Y-71415177D01*
X161890297Y-71417160D01*
X161888710Y-71418378D01*
X161887593Y-71418202D01*
X161818130Y-71385292D01*
X161741808Y-71391500D01*
X161678671Y-71435136D01*
X161662823Y-71457790D01*
X161658956Y-71464598D01*
X161658731Y-71464917D01*
X161637958Y-71488982D01*
X161636069Y-71489640D01*
X161634555Y-71488333D01*
X161634778Y-71486568D01*
X161714190Y-71367044D01*
X161767779Y-71225969D01*
X161769329Y-71224705D01*
X161771199Y-71225415D01*
G37*
G36*
X138233031Y-71222824D02*
G01*
X138233342Y-71223411D01*
X138271066Y-71336815D01*
X138345404Y-71459560D01*
X138345446Y-71461559D01*
X138343735Y-71462596D01*
X138342126Y-71461838D01*
X138322818Y-71437478D01*
X138261123Y-71391659D01*
X138185058Y-71382859D01*
X138116833Y-71412382D01*
X138114847Y-71412152D01*
X138114052Y-71410316D01*
X138114452Y-71409328D01*
X138197199Y-71301490D01*
X138229596Y-71223277D01*
X138231183Y-71222059D01*
X138233031Y-71222824D01*
G37*
G36*
X110937862Y-70447931D02*
G01*
X110937896Y-70449538D01*
X110890008Y-70565148D01*
X110872017Y-70701800D01*
X110890008Y-70838452D01*
X110935697Y-70948754D01*
X110935436Y-70950737D01*
X110933588Y-70951502D01*
X110932189Y-70950635D01*
X110922960Y-70936902D01*
X110865053Y-70886386D01*
X110789910Y-70871644D01*
X110717466Y-70896447D01*
X110676271Y-70943670D01*
X110674903Y-70944139D01*
X110670474Y-70950302D01*
X110670357Y-70950450D01*
X110666973Y-70954329D01*
X110666068Y-70956362D01*
X110665865Y-70956716D01*
X110664478Y-70958647D01*
X110662656Y-70959470D01*
X110661031Y-70958303D01*
X110661006Y-70956715D01*
X110709992Y-70838452D01*
X110727983Y-70701800D01*
X110709992Y-70565148D01*
X110663202Y-70452188D01*
X110663463Y-70450205D01*
X110665311Y-70449440D01*
X110666698Y-70450290D01*
X110677718Y-70466324D01*
X110736153Y-70516233D01*
X110811446Y-70530188D01*
X110883625Y-70504627D01*
X110918915Y-70463308D01*
X110920800Y-70462640D01*
X110921586Y-70462971D01*
X110922951Y-70463930D01*
X110934412Y-70447623D01*
X110936226Y-70446781D01*
X110937862Y-70447931D01*
G37*
G36*
X158659220Y-70648324D02*
G01*
X158736010Y-70707247D01*
X158834763Y-70748152D01*
X158835981Y-70749739D01*
X158835216Y-70751587D01*
X158834763Y-70751848D01*
X158736010Y-70792753D01*
X158650097Y-70858676D01*
X158648114Y-70858937D01*
X158646896Y-70857350D01*
X158647219Y-70855974D01*
X158686289Y-70797830D01*
X158691498Y-70721435D01*
X158657715Y-70652477D01*
X158656573Y-70651310D01*
X158656076Y-70649373D01*
X158657505Y-70647974D01*
X158659220Y-70648324D01*
G37*
G36*
X159354406Y-70641651D02*
G01*
X159354071Y-70643045D01*
X159314373Y-70700806D01*
X159308366Y-70777144D01*
X159341419Y-70846441D01*
X159344209Y-70849290D01*
X159344706Y-70851227D01*
X159343277Y-70852626D01*
X159341562Y-70852276D01*
X159263990Y-70792753D01*
X159165237Y-70751848D01*
X159164019Y-70750261D01*
X159164784Y-70748413D01*
X159165237Y-70748152D01*
X159263990Y-70707247D01*
X159351205Y-70640325D01*
X159353188Y-70640064D01*
X159354406Y-70641651D01*
G37*
G36*
X161651364Y-70529023D02*
G01*
X161679295Y-70563270D01*
X161741621Y-70608221D01*
X161817804Y-70615959D01*
X161884352Y-70586052D01*
X161886342Y-70586254D01*
X161887162Y-70588078D01*
X161886759Y-70589094D01*
X161802801Y-70698510D01*
X161770690Y-70776033D01*
X161769103Y-70777251D01*
X161767255Y-70776486D01*
X161766953Y-70775926D01*
X161724159Y-70653039D01*
X161648118Y-70531347D01*
X161648048Y-70529348D01*
X161649744Y-70528288D01*
X161651364Y-70529023D01*
G37*
G36*
X138358691Y-70520570D02*
G01*
X138358493Y-70522337D01*
X138280754Y-70642964D01*
X138232671Y-70775070D01*
X138231139Y-70776356D01*
X138229260Y-70775672D01*
X138228944Y-70775151D01*
X138197199Y-70698510D01*
X138109584Y-70584328D01*
X138109323Y-70582345D01*
X138110910Y-70581127D01*
X138112027Y-70581303D01*
X138181032Y-70613996D01*
X138257354Y-70607788D01*
X138320484Y-70564156D01*
X138330924Y-70549008D01*
X138331039Y-70548857D01*
X138355280Y-70519968D01*
X138357159Y-70519284D01*
X138358691Y-70520570D01*
G37*
G36*
X136056755Y-70476743D02*
G01*
X136074781Y-70494737D01*
X136075911Y-70493605D01*
X136077842Y-70493086D01*
X136078881Y-70493760D01*
X136094802Y-70513447D01*
X136166271Y-70540935D01*
X136242098Y-70528977D01*
X136263043Y-70517554D01*
X136277443Y-70508114D01*
X136279440Y-70508001D01*
X136280537Y-70509674D01*
X136279758Y-70511374D01*
X136198627Y-70573627D01*
X136102801Y-70698510D01*
X136081848Y-70749096D01*
X136080261Y-70750314D01*
X136078413Y-70749549D01*
X136078000Y-70748331D01*
X136078000Y-70550199D01*
X136068219Y-70501030D01*
X136053679Y-70479269D01*
X136053548Y-70477273D01*
X136055211Y-70476162D01*
X136056755Y-70476743D01*
G37*
G36*
X163946470Y-70477818D02*
G01*
X163946202Y-70479448D01*
X163931781Y-70501030D01*
X163922000Y-70550199D01*
X163922000Y-70748331D01*
X163921000Y-70750063D01*
X163919000Y-70750063D01*
X163918152Y-70749096D01*
X163897199Y-70698510D01*
X163801373Y-70573627D01*
X163694993Y-70491999D01*
X163694228Y-70490151D01*
X163695446Y-70488564D01*
X163697121Y-70488631D01*
X163711027Y-70495732D01*
X163711412Y-70495989D01*
X163722511Y-70505418D01*
X163791957Y-70538319D01*
X163868279Y-70532109D01*
X163922491Y-70494641D01*
X163924484Y-70494479D01*
X163925041Y-70494870D01*
X163925125Y-70494954D01*
X163943124Y-70476924D01*
X163945055Y-70476405D01*
X163946470Y-70477818D01*
G37*
G36*
X159457998Y-69659482D02*
G01*
X159457229Y-69661086D01*
X159422431Y-69688273D01*
X159376184Y-69749646D01*
X159366848Y-69825681D01*
X159391503Y-69889081D01*
X159422357Y-69933974D01*
X159422514Y-69935968D01*
X159420866Y-69937101D01*
X159419122Y-69936325D01*
X159373340Y-69876660D01*
X159263990Y-69792753D01*
X159215586Y-69772703D01*
X159214368Y-69771116D01*
X159215134Y-69769268D01*
X159215733Y-69768953D01*
X159331717Y-69731268D01*
X159454974Y-69657792D01*
X159456974Y-69657764D01*
X159457998Y-69659482D01*
G37*
G36*
X158517870Y-69638156D02*
G01*
X158637951Y-69716735D01*
X158781550Y-69770139D01*
X158782825Y-69771680D01*
X158782128Y-69773555D01*
X158781618Y-69773862D01*
X158736010Y-69792753D01*
X158626660Y-69876660D01*
X158583694Y-69932654D01*
X158581846Y-69933419D01*
X158580259Y-69932201D01*
X158580471Y-69930286D01*
X158609850Y-69888484D01*
X158636258Y-69816318D01*
X158623092Y-69740885D01*
X158573833Y-69681972D01*
X158561085Y-69673959D01*
X158540010Y-69662181D01*
X158539690Y-69661958D01*
X158515479Y-69641353D01*
X158514808Y-69639469D01*
X158516104Y-69637946D01*
X158517870Y-69638156D01*
G37*
G36*
X155419154Y-68110695D02*
G01*
X155418978Y-68111812D01*
X155386408Y-68180558D01*
X155392616Y-68256879D01*
X155436246Y-68320007D01*
X155440023Y-68322591D01*
X155440169Y-68322701D01*
X155475515Y-68351941D01*
X155476212Y-68353816D01*
X155474937Y-68355357D01*
X155473168Y-68355171D01*
X155352004Y-68278279D01*
X155224478Y-68232869D01*
X155223182Y-68231346D01*
X155223853Y-68229462D01*
X155224384Y-68229137D01*
X155301490Y-68197199D01*
X155415953Y-68109369D01*
X155417936Y-68109108D01*
X155419154Y-68110695D01*
G37*
G36*
X143419154Y-68110695D02*
G01*
X143418978Y-68111812D01*
X143386408Y-68180558D01*
X143392616Y-68256879D01*
X143436246Y-68320007D01*
X143440023Y-68322591D01*
X143440169Y-68322701D01*
X143475515Y-68351941D01*
X143476212Y-68353816D01*
X143474937Y-68355357D01*
X143473168Y-68355171D01*
X143352004Y-68278279D01*
X143224478Y-68232869D01*
X143223182Y-68231346D01*
X143223853Y-68229462D01*
X143224384Y-68229137D01*
X143301490Y-68197199D01*
X143415953Y-68109369D01*
X143417936Y-68109108D01*
X143419154Y-68110695D01*
G37*
G36*
X145419154Y-68110695D02*
G01*
X145418978Y-68111812D01*
X145386408Y-68180558D01*
X145392616Y-68256879D01*
X145436246Y-68320007D01*
X145440023Y-68322591D01*
X145440169Y-68322701D01*
X145475515Y-68351941D01*
X145476212Y-68353816D01*
X145474937Y-68355357D01*
X145473168Y-68355171D01*
X145352004Y-68278279D01*
X145224478Y-68232869D01*
X145223182Y-68231346D01*
X145223853Y-68229462D01*
X145224384Y-68229137D01*
X145301490Y-68197199D01*
X145415953Y-68109369D01*
X145417936Y-68109108D01*
X145419154Y-68110695D01*
G37*
G36*
X147419154Y-68110695D02*
G01*
X147418978Y-68111812D01*
X147386408Y-68180558D01*
X147392616Y-68256879D01*
X147436246Y-68320007D01*
X147440023Y-68322591D01*
X147440169Y-68322701D01*
X147475515Y-68351941D01*
X147476212Y-68353816D01*
X147474937Y-68355357D01*
X147473168Y-68355171D01*
X147352004Y-68278279D01*
X147224478Y-68232869D01*
X147223182Y-68231346D01*
X147223853Y-68229462D01*
X147224384Y-68229137D01*
X147301490Y-68197199D01*
X147415953Y-68109369D01*
X147417936Y-68109108D01*
X147419154Y-68110695D01*
G37*
G36*
X149419154Y-68110695D02*
G01*
X149418978Y-68111812D01*
X149386408Y-68180558D01*
X149392616Y-68256879D01*
X149436246Y-68320007D01*
X149440023Y-68322591D01*
X149440169Y-68322701D01*
X149475515Y-68351941D01*
X149476212Y-68353816D01*
X149474937Y-68355357D01*
X149473168Y-68355171D01*
X149352004Y-68278279D01*
X149224478Y-68232869D01*
X149223182Y-68231346D01*
X149223853Y-68229462D01*
X149224384Y-68229137D01*
X149301490Y-68197199D01*
X149415953Y-68109369D01*
X149417936Y-68109108D01*
X149419154Y-68110695D01*
G37*
G36*
X151419154Y-68110695D02*
G01*
X151418978Y-68111812D01*
X151386408Y-68180558D01*
X151392616Y-68256879D01*
X151436246Y-68320007D01*
X151440023Y-68322591D01*
X151440169Y-68322701D01*
X151475515Y-68351941D01*
X151476212Y-68353816D01*
X151474937Y-68355357D01*
X151473168Y-68355171D01*
X151352004Y-68278279D01*
X151224478Y-68232869D01*
X151223182Y-68231346D01*
X151223853Y-68229462D01*
X151224384Y-68229137D01*
X151301490Y-68197199D01*
X151415953Y-68109369D01*
X151417936Y-68109108D01*
X151419154Y-68110695D01*
G37*
G36*
X153419154Y-68110695D02*
G01*
X153418978Y-68111812D01*
X153386408Y-68180558D01*
X153392616Y-68256879D01*
X153436246Y-68320007D01*
X153440023Y-68322591D01*
X153440169Y-68322701D01*
X153475515Y-68351941D01*
X153476212Y-68353816D01*
X153474937Y-68355357D01*
X153473168Y-68355171D01*
X153352004Y-68278279D01*
X153224478Y-68232869D01*
X153223182Y-68231346D01*
X153223853Y-68229462D01*
X153224384Y-68229137D01*
X153301490Y-68197199D01*
X153415953Y-68109369D01*
X153417936Y-68109108D01*
X153419154Y-68110695D01*
G37*
G36*
X157419154Y-68110695D02*
G01*
X157418978Y-68111812D01*
X157386408Y-68180558D01*
X157392616Y-68256879D01*
X157436246Y-68320007D01*
X157440023Y-68322591D01*
X157440169Y-68322701D01*
X157475515Y-68351941D01*
X157476212Y-68353816D01*
X157474937Y-68355357D01*
X157473168Y-68355171D01*
X157352004Y-68278279D01*
X157224478Y-68232869D01*
X157223182Y-68231346D01*
X157223853Y-68229462D01*
X157224384Y-68229137D01*
X157301490Y-68197199D01*
X157415953Y-68109369D01*
X157417936Y-68109108D01*
X157419154Y-68110695D01*
G37*
G36*
X159419154Y-68110695D02*
G01*
X159418978Y-68111812D01*
X159386408Y-68180558D01*
X159392616Y-68256879D01*
X159436246Y-68320007D01*
X159440023Y-68322591D01*
X159440169Y-68322701D01*
X159475515Y-68351941D01*
X159476212Y-68353816D01*
X159474937Y-68355357D01*
X159473168Y-68355171D01*
X159352004Y-68278279D01*
X159224478Y-68232869D01*
X159223182Y-68231346D01*
X159223853Y-68229462D01*
X159224384Y-68229137D01*
X159301490Y-68197199D01*
X159415953Y-68109369D01*
X159417936Y-68109108D01*
X159419154Y-68110695D01*
G37*
G36*
X141419154Y-68110695D02*
G01*
X141418978Y-68111812D01*
X141386408Y-68180558D01*
X141392616Y-68256879D01*
X141436246Y-68320007D01*
X141440023Y-68322591D01*
X141440169Y-68322701D01*
X141475515Y-68351941D01*
X141476212Y-68353816D01*
X141474937Y-68355357D01*
X141473168Y-68355171D01*
X141352004Y-68278279D01*
X141224478Y-68232869D01*
X141223182Y-68231346D01*
X141223853Y-68229462D01*
X141224384Y-68229137D01*
X141301490Y-68197199D01*
X141415953Y-68109369D01*
X141417936Y-68109108D01*
X141419154Y-68110695D01*
G37*
G36*
X146589896Y-68113857D02*
G01*
X146698510Y-68197199D01*
X146776403Y-68229463D01*
X146777621Y-68231050D01*
X146776856Y-68232898D01*
X146776283Y-68233204D01*
X146658104Y-68273435D01*
X146535882Y-68348627D01*
X146533883Y-68348683D01*
X146532835Y-68346980D01*
X146533581Y-68345365D01*
X146562916Y-68321779D01*
X146608301Y-68259768D01*
X146616571Y-68183643D01*
X146586848Y-68116251D01*
X146587064Y-68114263D01*
X146588894Y-68113456D01*
X146589896Y-68113857D01*
G37*
G36*
X142589896Y-68113857D02*
G01*
X142698510Y-68197199D01*
X142776403Y-68229463D01*
X142777621Y-68231050D01*
X142776856Y-68232898D01*
X142776283Y-68233204D01*
X142658104Y-68273435D01*
X142535882Y-68348627D01*
X142533883Y-68348683D01*
X142532835Y-68346980D01*
X142533581Y-68345365D01*
X142562916Y-68321779D01*
X142608301Y-68259768D01*
X142616571Y-68183643D01*
X142586848Y-68116251D01*
X142587064Y-68114263D01*
X142588894Y-68113456D01*
X142589896Y-68113857D01*
G37*
G36*
X158589896Y-68113857D02*
G01*
X158698510Y-68197199D01*
X158776403Y-68229463D01*
X158777621Y-68231050D01*
X158776856Y-68232898D01*
X158776283Y-68233204D01*
X158658104Y-68273435D01*
X158535882Y-68348627D01*
X158533883Y-68348683D01*
X158532835Y-68346980D01*
X158533581Y-68345365D01*
X158562916Y-68321779D01*
X158608301Y-68259768D01*
X158616571Y-68183643D01*
X158586848Y-68116251D01*
X158587064Y-68114263D01*
X158588894Y-68113456D01*
X158589896Y-68113857D01*
G37*
G36*
X140589896Y-68113857D02*
G01*
X140698510Y-68197199D01*
X140776403Y-68229463D01*
X140777621Y-68231050D01*
X140776856Y-68232898D01*
X140776283Y-68233204D01*
X140658104Y-68273435D01*
X140535882Y-68348627D01*
X140533883Y-68348683D01*
X140532835Y-68346980D01*
X140533581Y-68345365D01*
X140562916Y-68321779D01*
X140608301Y-68259768D01*
X140616571Y-68183643D01*
X140586848Y-68116251D01*
X140587064Y-68114263D01*
X140588894Y-68113456D01*
X140589896Y-68113857D01*
G37*
G36*
X156589896Y-68113857D02*
G01*
X156698510Y-68197199D01*
X156776403Y-68229463D01*
X156777621Y-68231050D01*
X156776856Y-68232898D01*
X156776283Y-68233204D01*
X156658104Y-68273435D01*
X156535882Y-68348627D01*
X156533883Y-68348683D01*
X156532835Y-68346980D01*
X156533581Y-68345365D01*
X156562916Y-68321779D01*
X156608301Y-68259768D01*
X156616571Y-68183643D01*
X156586848Y-68116251D01*
X156587064Y-68114263D01*
X156588894Y-68113456D01*
X156589896Y-68113857D01*
G37*
G36*
X152589896Y-68113857D02*
G01*
X152698510Y-68197199D01*
X152776403Y-68229463D01*
X152777621Y-68231050D01*
X152776856Y-68232898D01*
X152776283Y-68233204D01*
X152658104Y-68273435D01*
X152535882Y-68348627D01*
X152533883Y-68348683D01*
X152532835Y-68346980D01*
X152533581Y-68345365D01*
X152562916Y-68321779D01*
X152608301Y-68259768D01*
X152616571Y-68183643D01*
X152586848Y-68116251D01*
X152587064Y-68114263D01*
X152588894Y-68113456D01*
X152589896Y-68113857D01*
G37*
G36*
X144589896Y-68113857D02*
G01*
X144698510Y-68197199D01*
X144776403Y-68229463D01*
X144777621Y-68231050D01*
X144776856Y-68232898D01*
X144776283Y-68233204D01*
X144658104Y-68273435D01*
X144535882Y-68348627D01*
X144533883Y-68348683D01*
X144532835Y-68346980D01*
X144533581Y-68345365D01*
X144562916Y-68321779D01*
X144608301Y-68259768D01*
X144616571Y-68183643D01*
X144586848Y-68116251D01*
X144587064Y-68114263D01*
X144588894Y-68113456D01*
X144589896Y-68113857D01*
G37*
G36*
X148589896Y-68113857D02*
G01*
X148698510Y-68197199D01*
X148776403Y-68229463D01*
X148777621Y-68231050D01*
X148776856Y-68232898D01*
X148776283Y-68233204D01*
X148658104Y-68273435D01*
X148535882Y-68348627D01*
X148533883Y-68348683D01*
X148532835Y-68346980D01*
X148533581Y-68345365D01*
X148562916Y-68321779D01*
X148608301Y-68259768D01*
X148616571Y-68183643D01*
X148586848Y-68116251D01*
X148587064Y-68114263D01*
X148588894Y-68113456D01*
X148589896Y-68113857D01*
G37*
G36*
X154589896Y-68113857D02*
G01*
X154698510Y-68197199D01*
X154776403Y-68229463D01*
X154777621Y-68231050D01*
X154776856Y-68232898D01*
X154776283Y-68233204D01*
X154658104Y-68273435D01*
X154535882Y-68348627D01*
X154533883Y-68348683D01*
X154532835Y-68346980D01*
X154533581Y-68345365D01*
X154562916Y-68321779D01*
X154608301Y-68259768D01*
X154616571Y-68183643D01*
X154586848Y-68116251D01*
X154587064Y-68114263D01*
X154588894Y-68113456D01*
X154589896Y-68113857D01*
G37*
G36*
X150589896Y-68113857D02*
G01*
X150698510Y-68197199D01*
X150776403Y-68229463D01*
X150777621Y-68231050D01*
X150776856Y-68232898D01*
X150776283Y-68233204D01*
X150658104Y-68273435D01*
X150535882Y-68348627D01*
X150533883Y-68348683D01*
X150532835Y-68346980D01*
X150533581Y-68345365D01*
X150562916Y-68321779D01*
X150608301Y-68259768D01*
X150616571Y-68183643D01*
X150586848Y-68116251D01*
X150587064Y-68114263D01*
X150588894Y-68113456D01*
X150589896Y-68113857D01*
G37*
G36*
X140396358Y-67163657D02*
G01*
X140397000Y-67165126D01*
X140397000Y-67674868D01*
X140417564Y-67831064D01*
X140424215Y-67847122D01*
X140423954Y-67849105D01*
X140422106Y-67849870D01*
X140420728Y-67849033D01*
X140381066Y-67792284D01*
X140311695Y-67759862D01*
X140235406Y-67766469D01*
X140172453Y-67810467D01*
X140165663Y-67819197D01*
X140164477Y-67820848D01*
X140162654Y-67821671D01*
X140161030Y-67820504D01*
X140161005Y-67818916D01*
X140209992Y-67700652D01*
X140227983Y-67564000D01*
X140209992Y-67427348D01*
X140157247Y-67300010D01*
X140120023Y-67251499D01*
X140119915Y-67250679D01*
X140119124Y-67250327D01*
X140086325Y-67207583D01*
X140086064Y-67205600D01*
X140087651Y-67204382D01*
X140089242Y-67204872D01*
X140098068Y-67212735D01*
X140098386Y-67213095D01*
X140122359Y-67247976D01*
X140122409Y-67248612D01*
X140122909Y-67248760D01*
X140181317Y-67298644D01*
X140256610Y-67312599D01*
X140328789Y-67287038D01*
X140378546Y-67228778D01*
X140393049Y-67164685D01*
X140394407Y-67163216D01*
X140396358Y-67163657D01*
G37*
G36*
X110937862Y-66147931D02*
G01*
X110937896Y-66149538D01*
X110890008Y-66265148D01*
X110872017Y-66401800D01*
X110890008Y-66538452D01*
X110935697Y-66648754D01*
X110935436Y-66650737D01*
X110933588Y-66651502D01*
X110932189Y-66650635D01*
X110922960Y-66636902D01*
X110865053Y-66586386D01*
X110789910Y-66571644D01*
X110717466Y-66596447D01*
X110676271Y-66643670D01*
X110674903Y-66644139D01*
X110670474Y-66650302D01*
X110670357Y-66650450D01*
X110666973Y-66654329D01*
X110666068Y-66656362D01*
X110665865Y-66656716D01*
X110664478Y-66658647D01*
X110662656Y-66659470D01*
X110661031Y-66658303D01*
X110661006Y-66656715D01*
X110709992Y-66538452D01*
X110727983Y-66401800D01*
X110709992Y-66265148D01*
X110663202Y-66152188D01*
X110663463Y-66150205D01*
X110665311Y-66149440D01*
X110666698Y-66150290D01*
X110677718Y-66166324D01*
X110736153Y-66216233D01*
X110811446Y-66230188D01*
X110883625Y-66204627D01*
X110918915Y-66163308D01*
X110920800Y-66162640D01*
X110921586Y-66162971D01*
X110922951Y-66163930D01*
X110934412Y-66147623D01*
X110936226Y-66146781D01*
X110937862Y-66147931D01*
G37*
G36*
X148479448Y-66053798D02*
G01*
X148501030Y-66068219D01*
X148550199Y-66078000D01*
X148748331Y-66078000D01*
X148750063Y-66079000D01*
X148750063Y-66081000D01*
X148749096Y-66081848D01*
X148698510Y-66102801D01*
X148573627Y-66198627D01*
X148491999Y-66305007D01*
X148490151Y-66305772D01*
X148488564Y-66304554D01*
X148488631Y-66302879D01*
X148495732Y-66288973D01*
X148495989Y-66288588D01*
X148505418Y-66277489D01*
X148538319Y-66208043D01*
X148532109Y-66131721D01*
X148494641Y-66077509D01*
X148494479Y-66075516D01*
X148494870Y-66074959D01*
X148494954Y-66074875D01*
X148476924Y-66056876D01*
X148476405Y-66054945D01*
X148477818Y-66053530D01*
X148479448Y-66053798D01*
G37*
G36*
X150479448Y-66053798D02*
G01*
X150501030Y-66068219D01*
X150550199Y-66078000D01*
X150748331Y-66078000D01*
X150750063Y-66079000D01*
X150750063Y-66081000D01*
X150749096Y-66081848D01*
X150698510Y-66102801D01*
X150573627Y-66198627D01*
X150491999Y-66305007D01*
X150490151Y-66305772D01*
X150488564Y-66304554D01*
X150488631Y-66302879D01*
X150495732Y-66288973D01*
X150495989Y-66288588D01*
X150505418Y-66277489D01*
X150538319Y-66208043D01*
X150532109Y-66131721D01*
X150494641Y-66077509D01*
X150494479Y-66075516D01*
X150494870Y-66074959D01*
X150494954Y-66074875D01*
X150476924Y-66056876D01*
X150476405Y-66054945D01*
X150477818Y-66053530D01*
X150479448Y-66053798D01*
G37*
G36*
X156479448Y-66053798D02*
G01*
X156501030Y-66068219D01*
X156550199Y-66078000D01*
X156748331Y-66078000D01*
X156750063Y-66079000D01*
X156750063Y-66081000D01*
X156749096Y-66081848D01*
X156698510Y-66102801D01*
X156573627Y-66198627D01*
X156491999Y-66305007D01*
X156490151Y-66305772D01*
X156488564Y-66304554D01*
X156488631Y-66302879D01*
X156495732Y-66288973D01*
X156495989Y-66288588D01*
X156505418Y-66277489D01*
X156538319Y-66208043D01*
X156532109Y-66131721D01*
X156494641Y-66077509D01*
X156494479Y-66075516D01*
X156494870Y-66074959D01*
X156494954Y-66074875D01*
X156476924Y-66056876D01*
X156476405Y-66054945D01*
X156477818Y-66053530D01*
X156479448Y-66053798D01*
G37*
G36*
X152479448Y-66053798D02*
G01*
X152501030Y-66068219D01*
X152550199Y-66078000D01*
X152748331Y-66078000D01*
X152750063Y-66079000D01*
X152750063Y-66081000D01*
X152749096Y-66081848D01*
X152698510Y-66102801D01*
X152573627Y-66198627D01*
X152491999Y-66305007D01*
X152490151Y-66305772D01*
X152488564Y-66304554D01*
X152488631Y-66302879D01*
X152495732Y-66288973D01*
X152495989Y-66288588D01*
X152505418Y-66277489D01*
X152538319Y-66208043D01*
X152532109Y-66131721D01*
X152494641Y-66077509D01*
X152494479Y-66075516D01*
X152494870Y-66074959D01*
X152494954Y-66074875D01*
X152476924Y-66056876D01*
X152476405Y-66054945D01*
X152477818Y-66053530D01*
X152479448Y-66053798D01*
G37*
G36*
X154479448Y-66053798D02*
G01*
X154501030Y-66068219D01*
X154550199Y-66078000D01*
X154748331Y-66078000D01*
X154750063Y-66079000D01*
X154750063Y-66081000D01*
X154749096Y-66081848D01*
X154698510Y-66102801D01*
X154573627Y-66198627D01*
X154491999Y-66305007D01*
X154490151Y-66305772D01*
X154488564Y-66304554D01*
X154488631Y-66302879D01*
X154495732Y-66288973D01*
X154495989Y-66288588D01*
X154505418Y-66277489D01*
X154538319Y-66208043D01*
X154532109Y-66131721D01*
X154494641Y-66077509D01*
X154494479Y-66075516D01*
X154494870Y-66074959D01*
X154494954Y-66074875D01*
X154476924Y-66056876D01*
X154476405Y-66054945D01*
X154477818Y-66053530D01*
X154479448Y-66053798D01*
G37*
G36*
X146479448Y-66053798D02*
G01*
X146501030Y-66068219D01*
X146550199Y-66078000D01*
X146748331Y-66078000D01*
X146750063Y-66079000D01*
X146750063Y-66081000D01*
X146749096Y-66081848D01*
X146698510Y-66102801D01*
X146573627Y-66198627D01*
X146491999Y-66305007D01*
X146490151Y-66305772D01*
X146488564Y-66304554D01*
X146488631Y-66302879D01*
X146495732Y-66288973D01*
X146495989Y-66288588D01*
X146505418Y-66277489D01*
X146538319Y-66208043D01*
X146532109Y-66131721D01*
X146494641Y-66077509D01*
X146494479Y-66075516D01*
X146494870Y-66074959D01*
X146494954Y-66074875D01*
X146476924Y-66056876D01*
X146476405Y-66054945D01*
X146477818Y-66053530D01*
X146479448Y-66053798D01*
G37*
G36*
X144479448Y-66053798D02*
G01*
X144501030Y-66068219D01*
X144550199Y-66078000D01*
X144748331Y-66078000D01*
X144750063Y-66079000D01*
X144750063Y-66081000D01*
X144749096Y-66081848D01*
X144698510Y-66102801D01*
X144573627Y-66198627D01*
X144491999Y-66305007D01*
X144490151Y-66305772D01*
X144488564Y-66304554D01*
X144488631Y-66302879D01*
X144495732Y-66288973D01*
X144495989Y-66288588D01*
X144505418Y-66277489D01*
X144538319Y-66208043D01*
X144532109Y-66131721D01*
X144494641Y-66077509D01*
X144494479Y-66075516D01*
X144494870Y-66074959D01*
X144494954Y-66074875D01*
X144476924Y-66056876D01*
X144476405Y-66054945D01*
X144477818Y-66053530D01*
X144479448Y-66053798D01*
G37*
G36*
X142479448Y-66053798D02*
G01*
X142501030Y-66068219D01*
X142550199Y-66078000D01*
X142748331Y-66078000D01*
X142750063Y-66079000D01*
X142750063Y-66081000D01*
X142749096Y-66081848D01*
X142698510Y-66102801D01*
X142573627Y-66198627D01*
X142491999Y-66305007D01*
X142490151Y-66305772D01*
X142488564Y-66304554D01*
X142488631Y-66302879D01*
X142495732Y-66288973D01*
X142495989Y-66288588D01*
X142505418Y-66277489D01*
X142538319Y-66208043D01*
X142532109Y-66131721D01*
X142494641Y-66077509D01*
X142494479Y-66075516D01*
X142494870Y-66074959D01*
X142494954Y-66074875D01*
X142476924Y-66056876D01*
X142476405Y-66054945D01*
X142477818Y-66053530D01*
X142479448Y-66053798D01*
G37*
G36*
X140479448Y-66053798D02*
G01*
X140501030Y-66068219D01*
X140550199Y-66078000D01*
X140748331Y-66078000D01*
X140750063Y-66079000D01*
X140750063Y-66081000D01*
X140749096Y-66081848D01*
X140698510Y-66102801D01*
X140573627Y-66198627D01*
X140491999Y-66305007D01*
X140490151Y-66305772D01*
X140488564Y-66304554D01*
X140488631Y-66302879D01*
X140495732Y-66288973D01*
X140495989Y-66288588D01*
X140505418Y-66277489D01*
X140538319Y-66208043D01*
X140532109Y-66131721D01*
X140494641Y-66077509D01*
X140494479Y-66075516D01*
X140494870Y-66074959D01*
X140494954Y-66074875D01*
X140476924Y-66056876D01*
X140476405Y-66054945D01*
X140477818Y-66053530D01*
X140479448Y-66053798D01*
G37*
G36*
X158479448Y-66053798D02*
G01*
X158501030Y-66068219D01*
X158550199Y-66078000D01*
X158748331Y-66078000D01*
X158750063Y-66079000D01*
X158750063Y-66081000D01*
X158749096Y-66081848D01*
X158698510Y-66102801D01*
X158573627Y-66198627D01*
X158491999Y-66305007D01*
X158490151Y-66305772D01*
X158488564Y-66304554D01*
X158488631Y-66302879D01*
X158495732Y-66288973D01*
X158495989Y-66288588D01*
X158505418Y-66277489D01*
X158538319Y-66208043D01*
X158532109Y-66131721D01*
X158494641Y-66077509D01*
X158494479Y-66075516D01*
X158494870Y-66074959D01*
X158494954Y-66074875D01*
X158476924Y-66056876D01*
X158476405Y-66054945D01*
X158477818Y-66053530D01*
X158479448Y-66053798D01*
G37*
G36*
X149523838Y-66055211D02*
G01*
X149523257Y-66056755D01*
X149505263Y-66074781D01*
X149506395Y-66075911D01*
X149506914Y-66077842D01*
X149506240Y-66078881D01*
X149486553Y-66094802D01*
X149459065Y-66166271D01*
X149471023Y-66242098D01*
X149482446Y-66263043D01*
X149491886Y-66277443D01*
X149491999Y-66279440D01*
X149490326Y-66280537D01*
X149488626Y-66279758D01*
X149426373Y-66198627D01*
X149301490Y-66102801D01*
X149250904Y-66081848D01*
X149249686Y-66080261D01*
X149250451Y-66078413D01*
X149251669Y-66078000D01*
X149449801Y-66078000D01*
X149498970Y-66068219D01*
X149520731Y-66053679D01*
X149522727Y-66053548D01*
X149523838Y-66055211D01*
G37*
G36*
X151523838Y-66055211D02*
G01*
X151523257Y-66056755D01*
X151505263Y-66074781D01*
X151506395Y-66075911D01*
X151506914Y-66077842D01*
X151506240Y-66078881D01*
X151486553Y-66094802D01*
X151459065Y-66166271D01*
X151471023Y-66242098D01*
X151482446Y-66263043D01*
X151491886Y-66277443D01*
X151491999Y-66279440D01*
X151490326Y-66280537D01*
X151488626Y-66279758D01*
X151426373Y-66198627D01*
X151301490Y-66102801D01*
X151250904Y-66081848D01*
X151249686Y-66080261D01*
X151250451Y-66078413D01*
X151251669Y-66078000D01*
X151449801Y-66078000D01*
X151498970Y-66068219D01*
X151520731Y-66053679D01*
X151522727Y-66053548D01*
X151523838Y-66055211D01*
G37*
G36*
X159523838Y-66055211D02*
G01*
X159523257Y-66056755D01*
X159505263Y-66074781D01*
X159506395Y-66075911D01*
X159506914Y-66077842D01*
X159506240Y-66078881D01*
X159486553Y-66094802D01*
X159459065Y-66166271D01*
X159471023Y-66242098D01*
X159482446Y-66263043D01*
X159491886Y-66277443D01*
X159491999Y-66279440D01*
X159490326Y-66280537D01*
X159488626Y-66279758D01*
X159426373Y-66198627D01*
X159301490Y-66102801D01*
X159250904Y-66081848D01*
X159249686Y-66080261D01*
X159250451Y-66078413D01*
X159251669Y-66078000D01*
X159449801Y-66078000D01*
X159498970Y-66068219D01*
X159520731Y-66053679D01*
X159522727Y-66053548D01*
X159523838Y-66055211D01*
G37*
G36*
X153523838Y-66055211D02*
G01*
X153523257Y-66056755D01*
X153505263Y-66074781D01*
X153506395Y-66075911D01*
X153506914Y-66077842D01*
X153506240Y-66078881D01*
X153486553Y-66094802D01*
X153459065Y-66166271D01*
X153471023Y-66242098D01*
X153482446Y-66263043D01*
X153491886Y-66277443D01*
X153491999Y-66279440D01*
X153490326Y-66280537D01*
X153488626Y-66279758D01*
X153426373Y-66198627D01*
X153301490Y-66102801D01*
X153250904Y-66081848D01*
X153249686Y-66080261D01*
X153250451Y-66078413D01*
X153251669Y-66078000D01*
X153449801Y-66078000D01*
X153498970Y-66068219D01*
X153520731Y-66053679D01*
X153522727Y-66053548D01*
X153523838Y-66055211D01*
G37*
G36*
X155523838Y-66055211D02*
G01*
X155523257Y-66056755D01*
X155505263Y-66074781D01*
X155506395Y-66075911D01*
X155506914Y-66077842D01*
X155506240Y-66078881D01*
X155486553Y-66094802D01*
X155459065Y-66166271D01*
X155471023Y-66242098D01*
X155482446Y-66263043D01*
X155491886Y-66277443D01*
X155491999Y-66279440D01*
X155490326Y-66280537D01*
X155488626Y-66279758D01*
X155426373Y-66198627D01*
X155301490Y-66102801D01*
X155250904Y-66081848D01*
X155249686Y-66080261D01*
X155250451Y-66078413D01*
X155251669Y-66078000D01*
X155449801Y-66078000D01*
X155498970Y-66068219D01*
X155520731Y-66053679D01*
X155522727Y-66053548D01*
X155523838Y-66055211D01*
G37*
G36*
X157523838Y-66055211D02*
G01*
X157523257Y-66056755D01*
X157505263Y-66074781D01*
X157506395Y-66075911D01*
X157506914Y-66077842D01*
X157506240Y-66078881D01*
X157486553Y-66094802D01*
X157459065Y-66166271D01*
X157471023Y-66242098D01*
X157482446Y-66263043D01*
X157491886Y-66277443D01*
X157491999Y-66279440D01*
X157490326Y-66280537D01*
X157488626Y-66279758D01*
X157426373Y-66198627D01*
X157301490Y-66102801D01*
X157250904Y-66081848D01*
X157249686Y-66080261D01*
X157250451Y-66078413D01*
X157251669Y-66078000D01*
X157449801Y-66078000D01*
X157498970Y-66068219D01*
X157520731Y-66053679D01*
X157522727Y-66053548D01*
X157523838Y-66055211D01*
G37*
G36*
X147523838Y-66055211D02*
G01*
X147523257Y-66056755D01*
X147505263Y-66074781D01*
X147506395Y-66075911D01*
X147506914Y-66077842D01*
X147506240Y-66078881D01*
X147486553Y-66094802D01*
X147459065Y-66166271D01*
X147471023Y-66242098D01*
X147482446Y-66263043D01*
X147491886Y-66277443D01*
X147491999Y-66279440D01*
X147490326Y-66280537D01*
X147488626Y-66279758D01*
X147426373Y-66198627D01*
X147301490Y-66102801D01*
X147250904Y-66081848D01*
X147249686Y-66080261D01*
X147250451Y-66078413D01*
X147251669Y-66078000D01*
X147449801Y-66078000D01*
X147498970Y-66068219D01*
X147520731Y-66053679D01*
X147522727Y-66053548D01*
X147523838Y-66055211D01*
G37*
G36*
X145523838Y-66055211D02*
G01*
X145523257Y-66056755D01*
X145505263Y-66074781D01*
X145506395Y-66075911D01*
X145506914Y-66077842D01*
X145506240Y-66078881D01*
X145486553Y-66094802D01*
X145459065Y-66166271D01*
X145471023Y-66242098D01*
X145482446Y-66263043D01*
X145491886Y-66277443D01*
X145491999Y-66279440D01*
X145490326Y-66280537D01*
X145488626Y-66279758D01*
X145426373Y-66198627D01*
X145301490Y-66102801D01*
X145250904Y-66081848D01*
X145249686Y-66080261D01*
X145250451Y-66078413D01*
X145251669Y-66078000D01*
X145449801Y-66078000D01*
X145498970Y-66068219D01*
X145520731Y-66053679D01*
X145522727Y-66053548D01*
X145523838Y-66055211D01*
G37*
G36*
X143523838Y-66055211D02*
G01*
X143523257Y-66056755D01*
X143505263Y-66074781D01*
X143506395Y-66075911D01*
X143506914Y-66077842D01*
X143506240Y-66078881D01*
X143486553Y-66094802D01*
X143459065Y-66166271D01*
X143471023Y-66242098D01*
X143482446Y-66263043D01*
X143491886Y-66277443D01*
X143491999Y-66279440D01*
X143490326Y-66280537D01*
X143488626Y-66279758D01*
X143426373Y-66198627D01*
X143301490Y-66102801D01*
X143250904Y-66081848D01*
X143249686Y-66080261D01*
X143250451Y-66078413D01*
X143251669Y-66078000D01*
X143449801Y-66078000D01*
X143498970Y-66068219D01*
X143520731Y-66053679D01*
X143522727Y-66053548D01*
X143523838Y-66055211D01*
G37*
G36*
X141523838Y-66055211D02*
G01*
X141523257Y-66056755D01*
X141505263Y-66074781D01*
X141506395Y-66075911D01*
X141506914Y-66077842D01*
X141506240Y-66078881D01*
X141486553Y-66094802D01*
X141459065Y-66166271D01*
X141471023Y-66242098D01*
X141482446Y-66263043D01*
X141491886Y-66277443D01*
X141491999Y-66279440D01*
X141490326Y-66280537D01*
X141488626Y-66279758D01*
X141426373Y-66198627D01*
X141301490Y-66102801D01*
X141250904Y-66081848D01*
X141249686Y-66080261D01*
X141250451Y-66078413D01*
X141251669Y-66078000D01*
X141449801Y-66078000D01*
X141498970Y-66068219D01*
X141520731Y-66053679D01*
X141522727Y-66053548D01*
X141523838Y-66055211D01*
G37*
G36*
X110916862Y-64747931D02*
G01*
X110916896Y-64749538D01*
X110869008Y-64865148D01*
X110851017Y-65001800D01*
X110869008Y-65138452D01*
X110914697Y-65248754D01*
X110914436Y-65250737D01*
X110912588Y-65251502D01*
X110911189Y-65250635D01*
X110901960Y-65236902D01*
X110844053Y-65186386D01*
X110768910Y-65171644D01*
X110696466Y-65196447D01*
X110655271Y-65243670D01*
X110653903Y-65244139D01*
X110649474Y-65250302D01*
X110649357Y-65250450D01*
X110645973Y-65254329D01*
X110645068Y-65256362D01*
X110644865Y-65256716D01*
X110643478Y-65258647D01*
X110641656Y-65259470D01*
X110640031Y-65258303D01*
X110640006Y-65256715D01*
X110688992Y-65138452D01*
X110706983Y-65001800D01*
X110688992Y-64865148D01*
X110642202Y-64752188D01*
X110642463Y-64750205D01*
X110644311Y-64749440D01*
X110645698Y-64750290D01*
X110656718Y-64766324D01*
X110715153Y-64816233D01*
X110790446Y-64830188D01*
X110862625Y-64804627D01*
X110897915Y-64763308D01*
X110899800Y-64762640D01*
X110900586Y-64762971D01*
X110901951Y-64763930D01*
X110913412Y-64747623D01*
X110915226Y-64746781D01*
X110916862Y-64747931D01*
G37*
G36*
X175559529Y-63714725D02*
G01*
X175559910Y-63715732D01*
X175560025Y-63716200D01*
X175562291Y-63734927D01*
X175590954Y-63806227D01*
X175651212Y-63853474D01*
X175727022Y-63864262D01*
X175798055Y-63835707D01*
X175847240Y-63770907D01*
X175850452Y-63762670D01*
X175852013Y-63761420D01*
X175853876Y-63762147D01*
X175854298Y-63763658D01*
X175837217Y-63893400D01*
X175853551Y-64017468D01*
X175852786Y-64019316D01*
X175850803Y-64019577D01*
X175849690Y-64018416D01*
X175848390Y-64014864D01*
X175848280Y-64014396D01*
X175847278Y-64005316D01*
X175819363Y-63933721D01*
X175759604Y-63885844D01*
X175683911Y-63874261D01*
X175612584Y-63902070D01*
X175562722Y-63966352D01*
X175558767Y-63976191D01*
X175557193Y-63977425D01*
X175555337Y-63976679D01*
X175554928Y-63975184D01*
X175572383Y-63842600D01*
X175555675Y-63715694D01*
X175556440Y-63713846D01*
X175558423Y-63713585D01*
X175559529Y-63714725D01*
G37*
M02*
