M48
; DRILL file {KiCad (6.0.6)} date Sat 02 Jul 2022 11:03:51 PM CEST
; FORMAT={-:-/ absolute / inch / decimal}
; #@! TF.CreationDate,2022-07-02T23:03:51+02:00
; #@! TF.GenerationSoftware,Kicad,Pcbnew,(6.0.6)
; #@! TF.FileFunction,Plated,1,4,PTH
FMAT,2
INCH
; #@! TA.AperFunction,Plated,PTH,ViaDrill
T1C0.0157
; #@! TA.AperFunction,Plated,PTH,ComponentDrill
T2C0.0197
; #@! TA.AperFunction,Plated,PTH,ComponentDrill
T3C0.0236
; #@! TA.AperFunction,Plated,PTH,ComponentDrill
T4C0.0256
; #@! TA.AperFunction,Plated,PTH,ComponentDrill
T5C0.0315
; #@! TA.AperFunction,Plated,PTH,ComponentDrill
T6C0.0394
; #@! TA.AperFunction,Plated,PTH,ComponentDrill
T7C0.0984
%
G90
G05
T1
X4.0157Y-3.0315
X4.02Y-4.14
X4.02Y-4.2
X4.1348Y-3.1195
X4.1368Y-3.2195
X4.1388Y-3.3195
X4.1407Y-3.4195
X4.1427Y-3.5195
X4.1447Y-3.6195
X4.1467Y-3.7195
X4.1487Y-3.8195
X4.1506Y-3.9195
X4.1526Y-4.0195
X4.1546Y-4.1195
X4.1555Y-4.2195
X4.2224Y-3.0315
X4.3378Y-2.5591
X4.3386Y-2.6142
X4.3386Y-2.7835
X4.3386Y-2.8347
X4.3386Y-2.8741
X4.385Y-2.5591
X4.3858Y-2.6142
X4.3858Y-2.7835
X4.3858Y-2.8347
X4.3858Y-2.8741
X4.4488Y-2.9429
X4.5768Y-2.7756
X4.66Y-2.64
X4.7047Y-2.9134
X4.7343Y-4.3465
X4.7343Y-4.3839
X4.76Y-2.54
X4.8415Y-2.6635
X4.9311Y-4.3465
X4.9311Y-4.3839
X4.94Y-2.44
X4.9555Y-3.3445
X4.96Y-2.62
X4.9803Y-3.4252
X5.0055Y-3.2695
X5.02Y-3.3465
X5.0295Y-4.3465
X5.0295Y-4.3839
X5.07Y-3.2677
X5.08Y-2.62
X5.13Y-3.189
X5.1555Y-3.1195
X5.1835Y-4.1015
X5.22Y-2.62
X5.3Y-3.64
X5.3215Y-4.2155
X5.34Y-2.62
X5.45Y-3.81
X5.4724Y-4.252
X5.5Y-2.44
X5.5Y-2.66
X5.502Y-3.8484
X5.5213Y-4.3409
X5.5213Y-4.3803
X5.5575Y-3.9235
X5.6102Y-3.9764
X5.6201Y-4.2126
X5.6295Y-3.4215
X5.6555Y-3.0755
X5.6555Y-3.2195
X5.6594Y-4.0157
X5.7087Y-4.1634
X5.7655Y-4.2415
X5.8275Y-3.4815
X5.8295Y-3.3835
X5.8305Y-4.1695
X5.8395Y-3.2975
X5.8935Y-4.2395
X5.9055Y-3.4495
X5.9735Y-3.0755
X5.9895Y-4.1435
X5.9915Y-3.4255
X6.0135Y-4.2415
X6.0515Y-3.8595
X6.0555Y-3.0195
X6.1024Y-2.7854
X6.1122Y-4.1929
X6.1355Y-3.9235
X6.1615Y-4.2415
X6.21Y-3.15
X6.2215Y-3.8995
X6.2575Y-3.9935
X6.2598Y-2.7657
X6.2598Y-2.8051
X6.2655Y-3.3855
X6.3087Y-4.3409
X6.3087Y-4.38
X6.4075Y-4.2615
X6.4305Y-3.8445
X6.4555Y-4.1395
X6.5055Y-4.2515
X6.5305Y-3.6195
X6.565Y-2.6772
X6.6043Y-4.3465
X6.6043Y-4.3839
X6.64Y-4.25
X6.6495Y-2.4835
X6.68Y-2.96
X6.7028Y-4.175
X6.7155Y-2.5475
X6.76Y-4.25
X6.7635Y-2.5795
X6.7995Y-2.6335
X6.8015Y-4.1675
X6.8515Y-4.2475
X6.88Y-2.62
X6.8915Y-2.5135
X6.8996Y-4.0157
X6.9055Y-2.8195
X6.9094Y-2.9134
X6.9435Y-2.5155
X6.9755Y-2.6615
X6.998Y-4.3465
X6.998Y-4.3839
X7.0175Y-2.6115
X7.0455Y-2.8615
X7.06Y-3.0215
X7.0615Y-3.2195
X7.0965Y-4.3465
X7.0965Y-4.3839
X7.1035Y-3.1195
X7.1063Y-2.4477
X7.1415Y-3.0195
X7.2135Y-3.3895
X7.2335Y-3.1995
X7.3Y-2.76
X7.3375Y-3.1695
X7.6348Y-3.1195
X7.6368Y-3.2195
X7.6388Y-3.3195
X7.6407Y-3.4195
X7.6427Y-3.5195
X7.6447Y-3.6195
X7.6467Y-3.7195
X7.6487Y-3.8195
X7.6506Y-3.9195
X7.6526Y-4.0195
X7.6546Y-4.1195
X7.6555Y-4.2195
X7.7953Y-4.252
X7.7953Y-4.2913
T3
X5.3386Y-2.7953
X5.3386Y-2.874
X5.3386Y-2.9528
X5.3386Y-3.0315
X5.3386Y-3.1102
X5.3386Y-3.189
X5.3386Y-3.2677
X5.3386Y-3.3465
X5.3386Y-3.4252
X5.3386Y-3.5039
X5.5512Y-2.5827
X5.5512Y-3.7165
X5.6299Y-2.5827
X5.6299Y-3.7165
X5.7087Y-2.5827
X5.7087Y-3.7165
X5.7874Y-2.5827
X5.7874Y-3.7165
X5.8661Y-2.5827
X5.8661Y-3.7165
X5.9449Y-2.5827
X5.9449Y-3.7165
X6.0236Y-2.5827
X6.0236Y-3.7165
X6.1024Y-2.5827
X6.1024Y-3.7165
X6.1811Y-2.5827
X6.1811Y-3.7165
X6.2598Y-2.5827
X6.2598Y-3.7165
X6.4724Y-2.7953
X6.4724Y-2.874
X6.4724Y-2.9528
X6.4724Y-3.0315
X6.4724Y-3.1102
X6.4724Y-3.189
X6.4724Y-3.2677
X6.4724Y-3.3465
X6.4724Y-3.4252
X6.4724Y-3.5039
T5
X5.4724Y-2.7953
X5.4724Y-2.874
X5.4724Y-2.9528
X5.4724Y-3.0315
X5.4724Y-3.1102
X5.4724Y-3.189
X5.4724Y-3.2677
X5.4724Y-3.3465
X5.4724Y-3.4252
X5.4724Y-3.5039
X5.5512Y-2.7165
X5.5512Y-3.5827
X5.6299Y-2.7165
X5.6299Y-3.5827
X5.7087Y-2.7165
X5.7087Y-3.5827
X5.7874Y-2.7165
X5.7874Y-3.5827
X5.8661Y-2.7165
X5.8661Y-3.5827
X5.9449Y-2.7165
X5.9449Y-3.5827
X6.0236Y-2.7165
X6.0236Y-3.5827
X6.1024Y-2.7165
X6.1024Y-3.5827
X6.1811Y-2.7165
X6.1811Y-3.5827
X6.2598Y-2.7165
X6.2598Y-3.5827
X6.3386Y-2.7953
X6.3386Y-2.874
X6.3386Y-2.9528
X6.3386Y-3.0315
X6.3386Y-3.1102
X6.3386Y-3.189
X6.3386Y-3.2677
X6.3386Y-3.3465
X6.3386Y-3.4252
X6.3386Y-3.5039
T6
X6.0202Y-2.46
X6.1202Y-2.46
X6.2202Y-2.46
X6.3202Y-2.46
X6.4202Y-2.46
X7.249Y-2.4815
X7.249Y-2.5815
X7.349Y-2.4815
X7.349Y-2.5815
X7.449Y-2.4815
X7.449Y-2.5815
X7.549Y-2.4815
X7.549Y-2.5815
X7.649Y-2.4815
X7.649Y-2.5815
X7.749Y-2.4815
X7.749Y-2.5815
T7
X4.0492Y-4.4331
X7.7815Y-4.4331
T2
G00X4.2246Y-2.5274
M15
G01X4.1773Y-2.5274
M16
G05
G00X4.2246Y-2.8675
M15
G01X4.1773Y-2.8675
M16
G05
T3
G00X4.0482Y-2.5274
M15
G01X4.0246Y-2.5274
M16
G05
G00X4.0482Y-2.8675
M15
G01X4.0246Y-2.8675
M16
G05
T4
G00X5.4203Y-2.7953
M15
G01X5.3789Y-2.7953
M16
G05
G00X5.4203Y-2.874
M15
G01X5.3789Y-2.874
M16
G05
G00X5.4203Y-2.9528
M15
G01X5.3789Y-2.9528
M16
G05
G00X5.4203Y-3.0315
M15
G01X5.3789Y-3.0315
M16
G05
G00X5.4203Y-3.1102
M15
G01X5.3789Y-3.1102
M16
G05
G00X5.4203Y-3.189
M15
G01X5.3789Y-3.189
M16
G05
G00X5.4203Y-3.2677
M15
G01X5.3789Y-3.2677
M16
G05
G00X5.4203Y-3.3465
M15
G01X5.3789Y-3.3465
M16
G05
G00X5.4203Y-3.4252
M15
G01X5.3789Y-3.4252
M16
G05
G00X5.4203Y-3.5039
M15
G01X5.3789Y-3.5039
M16
G05
G00X5.5512Y-2.6644
M15
G01X5.5512Y-2.623
M16
G05
G00X5.5512Y-3.6348
M15
G01X5.5512Y-3.6762
M16
G05
G00X5.6299Y-2.6644
M15
G01X5.6299Y-2.623
M16
G05
G00X5.6299Y-3.6348
M15
G01X5.6299Y-3.6762
M16
G05
G00X5.7087Y-2.6644
M15
G01X5.7087Y-2.623
M16
G05
G00X5.7087Y-3.6348
M15
G01X5.7087Y-3.6762
M16
G05
G00X5.7874Y-2.6644
M15
G01X5.7874Y-2.623
M16
G05
G00X5.7874Y-3.6348
M15
G01X5.7874Y-3.6762
M16
G05
G00X5.8661Y-2.6644
M15
G01X5.8661Y-2.623
M16
G05
G00X5.8661Y-3.6348
M15
G01X5.8661Y-3.6762
M16
G05
G00X5.9449Y-2.6644
M15
G01X5.9449Y-2.623
M16
G05
G00X5.9449Y-3.6348
M15
G01X5.9449Y-3.6762
M16
G05
G00X6.0236Y-2.6644
M15
G01X6.0236Y-2.623
M16
G05
G00X6.0236Y-3.6348
M15
G01X6.0236Y-3.6762
M16
G05
G00X6.1024Y-2.6644
M15
G01X6.1024Y-2.623
M16
G05
G00X6.1024Y-3.6348
M15
G01X6.1024Y-3.6762
M16
G05
G00X6.1811Y-2.6644
M15
G01X6.1811Y-2.623
M16
G05
G00X6.1811Y-3.6348
M15
G01X6.1811Y-3.6762
M16
G05
G00X6.2598Y-2.6644
M15
G01X6.2598Y-2.623
M16
G05
G00X6.2598Y-3.6348
M15
G01X6.2598Y-3.6762
M16
G05
G00X6.3907Y-2.7953
M15
G01X6.4321Y-2.7953
M16
G05
G00X6.3907Y-2.874
M15
G01X6.4321Y-2.874
M16
G05
G00X6.3907Y-2.9528
M15
G01X6.4321Y-2.9528
M16
G05
G00X6.3907Y-3.0315
M15
G01X6.4321Y-3.0315
M16
G05
G00X6.3907Y-3.1102
M15
G01X6.4321Y-3.1102
M16
G05
G00X6.3907Y-3.189
M15
G01X6.4321Y-3.189
M16
G05
G00X6.3907Y-3.2677
M15
G01X6.4321Y-3.2677
M16
G05
G00X6.3907Y-3.3465
M15
G01X6.4321Y-3.3465
M16
G05
G00X6.3907Y-3.4252
M15
G01X6.4321Y-3.4252
M16
G05
G00X6.3907Y-3.5039
M15
G01X6.4321Y-3.5039
M16
G05
T0
M30
