G04 #@! TF.GenerationSoftware,KiCad,Pcbnew,(6.0.6)*
G04 #@! TF.CreationDate,2022-07-02T23:03:49+02:00*
G04 #@! TF.ProjectId,picocart64_v1,7069636f-6361-4727-9436-345f76312e6b,rev?*
G04 #@! TF.SameCoordinates,Original*
G04 #@! TF.FileFunction,Soldermask,Top*
G04 #@! TF.FilePolarity,Negative*
%FSLAX46Y46*%
G04 Gerber Fmt 4.6, Leading zero omitted, Abs format (unit mm)*
G04 Created by KiCad (PCBNEW (6.0.6)) date 2022-07-02 23:03:49*
%MOMM*%
%LPD*%
G01*
G04 APERTURE LIST*
G04 Aperture macros list*
%AMRoundRect*
0 Rectangle with rounded corners*
0 $1 Rounding radius*
0 $2 $3 $4 $5 $6 $7 $8 $9 X,Y pos of 4 corners*
0 Add a 4 corners polygon primitive as box body*
4,1,4,$2,$3,$4,$5,$6,$7,$8,$9,$2,$3,0*
0 Add four circle primitives for the rounded corners*
1,1,$1+$1,$2,$3*
1,1,$1+$1,$4,$5*
1,1,$1+$1,$6,$7*
1,1,$1+$1,$8,$9*
0 Add four rect primitives between the rounded corners*
20,1,$1+$1,$2,$3,$4,$5,0*
20,1,$1+$1,$4,$5,$6,$7,0*
20,1,$1+$1,$6,$7,$8,$9,0*
20,1,$1+$1,$8,$9,$2,$3,0*%
%AMFreePoly0*
4,1,18,0.570283,0.859363,0.608167,0.822111,1.108167,0.072111,1.129982,0.002184,1.108167,-0.072111,0.608167,-0.822111,0.552009,-0.869143,0.500000,-0.880000,-0.500000,-0.880000,-0.570283,-0.859363,-0.618252,-0.804004,-0.630000,-0.750000,-0.630000,0.750000,-0.609363,0.820283,-0.554004,0.868252,-0.500000,0.880000,0.500000,0.880000,0.570283,0.859363,0.570283,0.859363,$1*%
%AMFreePoly1*
4,1,20,0.570283,0.859363,0.618252,0.804004,0.630000,0.750000,0.630000,-0.750000,0.609363,-0.820283,0.554004,-0.868252,0.500000,-0.880000,-0.650000,-0.880000,-0.720283,-0.859363,-0.768252,-0.804004,-0.778677,-0.731499,-0.758167,-0.677889,-0.306241,0.000000,-0.758167,0.677889,-0.779982,0.747816,-0.760528,0.818436,-0.705983,0.867328,-0.650000,0.880000,0.500000,0.880000,0.570283,0.859363,
0.570283,0.859363,$1*%
G04 Aperture macros list end*
%ADD10C,2.760000*%
%ADD11FreePoly0,0.000000*%
%ADD12FreePoly1,0.000000*%
%ADD13RoundRect,0.130000X0.850000X-0.850000X0.850000X0.850000X-0.850000X0.850000X-0.850000X-0.850000X0*%
%ADD14O,1.960000X1.960000*%
%ADD15RoundRect,0.130000X-1.400000X-0.750000X1.400000X-0.750000X1.400000X0.750000X-1.400000X0.750000X0*%
%ADD16O,2.260000X1.210000*%
%ADD17RoundRect,0.130000X-0.650000X-0.450000X0.650000X-0.450000X0.650000X0.450000X-0.650000X0.450000X0*%
%ADD18C,1.610000*%
%ADD19O,1.610000X1.610000*%
%ADD20RoundRect,0.130000X0.450000X-0.650000X0.450000X0.650000X-0.450000X0.650000X-0.450000X-0.650000X0*%
%ADD21RoundRect,0.130000X-0.750000X1.400000X-0.750000X-1.400000X0.750000X-1.400000X0.750000X1.400000X0*%
%ADD22O,1.210000X2.260000*%
%ADD23RoundRect,0.130000X0.650000X0.450000X-0.650000X0.450000X-0.650000X-0.450000X0.650000X-0.450000X0*%
%ADD24RoundRect,0.130000X-0.450000X0.650000X-0.450000X-0.650000X0.450000X-0.650000X0.450000X0.650000X0*%
%ADD25C,0.910000*%
%ADD26RoundRect,0.130000X-0.875000X0.150000X-0.875000X-0.150000X0.875000X-0.150000X0.875000X0.150000X0*%
%ADD27O,2.360000X1.160000*%
%ADD28O,1.860000X1.260000*%
%ADD29RoundRect,0.330000X-0.200000X-0.275000X0.200000X-0.275000X0.200000X0.275000X-0.200000X0.275000X0*%
%ADD30RoundRect,0.130000X-0.425000X-0.550000X0.425000X-0.550000X0.425000X0.550000X-0.425000X0.550000X0*%
%ADD31RoundRect,0.130000X-0.375000X-0.550000X0.375000X-0.550000X0.375000X0.550000X-0.375000X0.550000X0*%
%ADD32RoundRect,0.130000X-0.600000X-0.500000X0.600000X-0.500000X0.600000X0.500000X-0.600000X0.500000X0*%
%ADD33RoundRect,0.130000X-0.950000X-0.675000X0.950000X-0.675000X0.950000X0.675000X-0.950000X0.675000X0*%
%ADD34RoundRect,0.130000X-0.585000X-0.900000X0.585000X-0.900000X0.585000X0.900000X-0.585000X0.900000X0*%
%ADD35RoundRect,0.130000X-0.775000X-0.675000X0.775000X-0.675000X0.775000X0.675000X-0.775000X0.675000X0*%
%ADD36RoundRect,0.330000X0.200000X0.275000X-0.200000X0.275000X-0.200000X-0.275000X0.200000X-0.275000X0*%
%ADD37RoundRect,0.130000X-1.090000X-0.800000X1.090000X-0.800000X1.090000X0.800000X-1.090000X0.800000X0*%
%ADD38RoundRect,0.280000X-0.587500X-0.150000X0.587500X-0.150000X0.587500X0.150000X-0.587500X0.150000X0*%
%ADD39RoundRect,0.130000X-0.850000X0.850000X-0.850000X-0.850000X0.850000X-0.850000X0.850000X0.850000X0*%
%ADD40RoundRect,0.348750X-0.218750X-0.256250X0.218750X-0.256250X0.218750X0.256250X-0.218750X0.256250X0*%
%ADD41C,1.060000*%
G04 APERTURE END LIST*
D10*
X102850000Y-112600000D03*
X197650000Y-112600000D03*
D11*
X176059000Y-84378800D03*
D12*
X177509000Y-84378800D03*
D13*
X152913000Y-62484000D03*
D14*
X155453000Y-62484000D03*
X157993000Y-62484000D03*
X160533000Y-62484000D03*
X163073000Y-62484000D03*
D11*
X176059000Y-81813400D03*
D12*
X177509000Y-81813400D03*
D15*
X138350000Y-71000000D03*
D16*
X137150000Y-71000000D03*
D17*
X135300000Y-71000000D03*
D18*
X139000000Y-71000000D03*
D15*
X138350000Y-73000000D03*
D19*
X139000000Y-73000000D03*
D16*
X137150000Y-73000000D03*
D17*
X135300000Y-73000000D03*
D16*
X137150000Y-75000000D03*
D17*
X135300000Y-75000000D03*
D19*
X139000000Y-75000000D03*
D15*
X138350000Y-75000000D03*
D17*
X135300000Y-77000000D03*
D19*
X139000000Y-77000000D03*
D15*
X138350000Y-77000000D03*
D16*
X137150000Y-77000000D03*
D15*
X138350000Y-79000000D03*
D16*
X137150000Y-79000000D03*
D19*
X139000000Y-79000000D03*
D17*
X135300000Y-79000000D03*
X135300000Y-81000000D03*
D16*
X137150000Y-81000000D03*
D15*
X138350000Y-81000000D03*
D19*
X139000000Y-81000000D03*
D15*
X138350000Y-83000000D03*
D17*
X135300000Y-83000000D03*
D19*
X139000000Y-83000000D03*
D16*
X137150000Y-83000000D03*
D15*
X138350000Y-85000000D03*
D19*
X139000000Y-85000000D03*
D16*
X137150000Y-85000000D03*
D17*
X135300000Y-85000000D03*
X135300000Y-87000000D03*
D15*
X138350000Y-87000000D03*
D16*
X137150000Y-87000000D03*
D19*
X139000000Y-87000000D03*
D17*
X135300000Y-89000000D03*
D15*
X138350000Y-89000000D03*
D16*
X137150000Y-89000000D03*
D19*
X139000000Y-89000000D03*
D20*
X141000000Y-94700000D03*
D19*
X141000000Y-91000000D03*
D21*
X141000000Y-91650000D03*
D22*
X141000000Y-92850000D03*
D19*
X143000000Y-91000000D03*
D22*
X143000000Y-92850000D03*
D20*
X143000000Y-94700000D03*
D21*
X143000000Y-91650000D03*
D22*
X145000000Y-92850000D03*
D19*
X145000000Y-91000000D03*
D21*
X145000000Y-91650000D03*
D20*
X145000000Y-94700000D03*
D22*
X147000000Y-92850000D03*
D19*
X147000000Y-91000000D03*
D21*
X147000000Y-91650000D03*
D20*
X147000000Y-94700000D03*
D22*
X149000000Y-92850000D03*
D20*
X149000000Y-94700000D03*
D21*
X149000000Y-91650000D03*
D19*
X149000000Y-91000000D03*
X151000000Y-91000000D03*
D22*
X151000000Y-92850000D03*
D21*
X151000000Y-91650000D03*
D20*
X151000000Y-94700000D03*
D22*
X153000000Y-92850000D03*
D19*
X153000000Y-91000000D03*
D20*
X153000000Y-94700000D03*
D21*
X153000000Y-91650000D03*
D20*
X155000000Y-94700000D03*
D19*
X155000000Y-91000000D03*
D22*
X155000000Y-92850000D03*
D21*
X155000000Y-91650000D03*
X157000000Y-91650000D03*
D19*
X157000000Y-91000000D03*
D22*
X157000000Y-92850000D03*
D20*
X157000000Y-94700000D03*
X159000000Y-94700000D03*
D22*
X159000000Y-92850000D03*
D21*
X159000000Y-91650000D03*
D19*
X159000000Y-91000000D03*
D16*
X162850000Y-89000000D03*
D23*
X164700000Y-89000000D03*
D15*
X161650000Y-89000000D03*
D19*
X161000000Y-89000000D03*
D16*
X162850000Y-87000000D03*
D23*
X164700000Y-87000000D03*
D19*
X161000000Y-87000000D03*
D15*
X161650000Y-87000000D03*
D23*
X164700000Y-85000000D03*
D16*
X162850000Y-85000000D03*
D19*
X161000000Y-85000000D03*
D15*
X161650000Y-85000000D03*
D23*
X164700000Y-83000000D03*
D15*
X161650000Y-83000000D03*
D19*
X161000000Y-83000000D03*
D16*
X162850000Y-83000000D03*
D23*
X164700000Y-81000000D03*
D15*
X161650000Y-81000000D03*
D19*
X161000000Y-81000000D03*
D16*
X162850000Y-81000000D03*
D19*
X161000000Y-79000000D03*
D23*
X164700000Y-79000000D03*
D16*
X162850000Y-79000000D03*
D15*
X161650000Y-79000000D03*
X161650000Y-77000000D03*
D16*
X162850000Y-77000000D03*
D23*
X164700000Y-77000000D03*
D19*
X161000000Y-77000000D03*
D15*
X161650000Y-75000000D03*
D19*
X161000000Y-75000000D03*
D23*
X164700000Y-75000000D03*
D16*
X162850000Y-75000000D03*
X162850000Y-73000000D03*
D19*
X161000000Y-73000000D03*
D15*
X161650000Y-73000000D03*
D23*
X164700000Y-73000000D03*
D19*
X161000000Y-71000000D03*
D16*
X162850000Y-71000000D03*
D23*
X164700000Y-71000000D03*
D15*
X161650000Y-71000000D03*
D19*
X159000000Y-69000000D03*
D22*
X159000000Y-67150000D03*
D24*
X159000000Y-65300000D03*
D21*
X159000000Y-68350000D03*
X157000000Y-68350000D03*
D24*
X157000000Y-65300000D03*
D22*
X157000000Y-67150000D03*
D19*
X157000000Y-69000000D03*
D22*
X155000000Y-67150000D03*
D19*
X155000000Y-69000000D03*
D24*
X155000000Y-65300000D03*
D21*
X155000000Y-68350000D03*
X153000000Y-68350000D03*
D24*
X153000000Y-65300000D03*
D22*
X153000000Y-67150000D03*
D19*
X153000000Y-69000000D03*
D24*
X151000000Y-65300000D03*
D19*
X151000000Y-69000000D03*
D22*
X151000000Y-67150000D03*
D21*
X151000000Y-68350000D03*
D19*
X149000000Y-69000000D03*
D21*
X149000000Y-68350000D03*
D24*
X149000000Y-65300000D03*
D22*
X149000000Y-67150000D03*
D19*
X147000000Y-69000000D03*
D21*
X147000000Y-68350000D03*
D22*
X147000000Y-67150000D03*
D24*
X147000000Y-65300000D03*
D21*
X145000000Y-68350000D03*
D22*
X145000000Y-67150000D03*
D19*
X145000000Y-69000000D03*
D24*
X145000000Y-65300000D03*
X143000000Y-65300000D03*
D19*
X143000000Y-69000000D03*
D21*
X143000000Y-68350000D03*
D22*
X143000000Y-67150000D03*
D24*
X141000000Y-65300000D03*
D21*
X141000000Y-68350000D03*
D19*
X141000000Y-69000000D03*
D22*
X141000000Y-67150000D03*
D25*
X106204000Y-71405000D03*
X106204000Y-65625000D03*
D26*
X107544000Y-65165000D03*
X107544000Y-65965000D03*
X107544000Y-67265000D03*
X107544000Y-68265000D03*
X107544000Y-68765000D03*
X107544000Y-69765000D03*
X107544000Y-71065000D03*
X107544000Y-71865000D03*
X107544000Y-71565000D03*
X107544000Y-70765000D03*
X107544000Y-70265000D03*
X107544000Y-69265000D03*
X107544000Y-67765000D03*
X107544000Y-66765000D03*
X107544000Y-66265000D03*
X107544000Y-65465000D03*
D27*
X106704000Y-64195000D03*
D28*
X102524000Y-64195000D03*
D27*
X106704000Y-72835000D03*
D28*
X102524000Y-72835000D03*
D29*
X105500000Y-76000000D03*
X107150000Y-76000000D03*
D30*
X170631000Y-61860000D03*
X171731000Y-61860000D03*
X172831000Y-61860000D03*
X173931000Y-61860000D03*
X175031000Y-61860000D03*
X176131000Y-61860000D03*
X177231000Y-61860000D03*
D31*
X178281000Y-61860000D03*
D32*
X167996000Y-68010000D03*
X167996000Y-71710000D03*
D33*
X177466000Y-72685000D03*
X171496000Y-72685000D03*
D34*
X179491000Y-62210000D03*
D35*
X168171000Y-61985000D03*
D36*
X108325000Y-62000000D03*
X106675000Y-62000000D03*
D37*
X127490000Y-61976000D03*
X136670000Y-61976000D03*
D11*
X176059000Y-79248000D03*
D12*
X177509000Y-79248000D03*
D11*
X176059000Y-76682600D03*
D12*
X177509000Y-76682600D03*
D36*
X103825000Y-76000000D03*
X102175000Y-76000000D03*
D38*
X115562500Y-72800000D03*
X115562500Y-74700000D03*
X117437500Y-73750000D03*
D39*
X196825000Y-65569000D03*
D14*
X196825000Y-63029000D03*
X194285000Y-65569000D03*
X194285000Y-63029000D03*
X191745000Y-65569000D03*
X191745000Y-63029000D03*
X189205000Y-65569000D03*
X189205000Y-63029000D03*
X186665000Y-65569000D03*
X186665000Y-63029000D03*
X184125000Y-65569000D03*
X184125000Y-63029000D03*
D40*
X113500000Y-70500000D03*
X115075000Y-70500000D03*
D41*
X110200000Y-73001800D03*
X110200000Y-72001800D03*
X111400000Y-72001800D03*
X111400000Y-73001800D03*
X102108000Y-105156000D03*
X180250000Y-111350000D03*
X180250000Y-110400000D03*
X177750000Y-111350000D03*
X177750000Y-110400000D03*
X167750000Y-110400000D03*
X167750000Y-111350000D03*
X127750000Y-111350000D03*
X127750000Y-110400000D03*
X125250000Y-110400000D03*
X125250000Y-111350000D03*
X120250000Y-111350000D03*
X120250000Y-110400000D03*
X105476448Y-102095000D03*
X193924102Y-79235000D03*
X105275405Y-91935000D03*
X198000000Y-108000000D03*
X159000000Y-70250000D03*
X122974400Y-67652600D03*
X194326187Y-99555000D03*
X110179000Y-65001800D03*
X159000000Y-71250000D03*
X163335000Y-97650000D03*
X105325666Y-94475000D03*
X194125145Y-89395000D03*
X194175405Y-91935000D03*
X107250000Y-77000000D03*
X111379000Y-65001800D03*
X105526709Y-104635000D03*
X105550000Y-107175000D03*
X129032000Y-66548000D03*
X194225666Y-94475000D03*
X168897600Y-63080600D03*
X120904000Y-64516000D03*
X105074363Y-81775000D03*
X153810000Y-76695000D03*
X143650000Y-81775000D03*
X148095000Y-105905000D03*
X127140000Y-83045000D03*
X105174884Y-86855000D03*
X132588000Y-66548000D03*
X194024624Y-84315000D03*
X105024102Y-79235000D03*
X198000000Y-109000000D03*
X175400000Y-71615000D03*
X194426709Y-104635000D03*
X180500000Y-62172300D03*
X178956000Y-72681800D03*
X166750000Y-68000000D03*
X118364000Y-67056000D03*
X125984000Y-66548000D03*
X194450000Y-107175000D03*
X125870000Y-84950000D03*
X105375927Y-97015000D03*
X125476000Y-61976000D03*
X102000000Y-77000000D03*
X105426187Y-99555000D03*
X193974363Y-81775000D03*
X176365200Y-63893400D03*
X165875000Y-91935000D03*
X102108000Y-106680000D03*
X194376448Y-102095000D03*
X135636000Y-66548000D03*
X105124624Y-84315000D03*
X194275927Y-97015000D03*
X194074884Y-86855000D03*
X105225145Y-89395000D03*
X130950000Y-79235000D03*
X113000000Y-74750000D03*
X174752000Y-66548000D03*
X148323600Y-83756200D03*
X157734000Y-80010000D03*
X138430000Y-96774000D03*
X179324000Y-76745800D03*
X142500000Y-101000000D03*
X150000000Y-87617000D03*
X160241000Y-110259000D03*
X119500000Y-74000000D03*
X140241000Y-110259000D03*
X140241000Y-111259000D03*
X160241000Y-111252000D03*
X139750000Y-97750000D03*
X179362400Y-81775000D03*
X135166400Y-107073400D03*
X159144000Y-85991400D03*
X148069600Y-85940600D03*
X143750000Y-102000000D03*
X152184400Y-87007400D03*
X139000000Y-108000000D03*
X116250000Y-70500000D03*
X155000000Y-70750000D03*
X175250000Y-102000000D03*
X172758400Y-105854200D03*
X170250000Y-106045000D03*
X165240000Y-107987800D03*
X155250000Y-106500000D03*
X152743200Y-107733800D03*
X130302000Y-81000000D03*
X128778000Y-83000000D03*
X145000000Y-105750000D03*
X127508000Y-85000000D03*
X142750000Y-107000000D03*
X126500000Y-87000000D03*
X146444000Y-107733800D03*
X149695200Y-107683000D03*
X152133600Y-105244600D03*
X163970000Y-105143000D03*
X168656000Y-107950000D03*
X171704000Y-107950000D03*
X174028400Y-107886200D03*
X162750800Y-108241800D03*
X153708400Y-98031000D03*
X156502400Y-107733800D03*
X155842000Y-99656600D03*
X158026400Y-99047000D03*
X158940800Y-101434600D03*
X142989600Y-86905800D03*
X134620000Y-92456000D03*
X131661200Y-104177800D03*
X139700000Y-67564000D03*
X139700000Y-61976000D03*
X143650000Y-78117400D03*
X151727200Y-78117400D03*
X183731200Y-81267000D03*
X148018800Y-88429800D03*
X180429200Y-79235000D03*
X141160800Y-99656600D03*
X183223200Y-86093000D03*
X110200000Y-66401800D03*
X111400000Y-70701800D03*
X110200000Y-70701800D03*
X111400000Y-66401800D03*
X175044400Y-63842600D03*
X178244800Y-66331800D03*
X175500000Y-74000000D03*
X185420000Y-70104000D03*
X177178000Y-67601800D03*
X169672000Y-75184000D03*
X171793200Y-65519000D03*
X181394400Y-76695000D03*
X172707600Y-66890600D03*
X186372800Y-80505000D03*
X170574000Y-64706200D03*
G36*
X199942121Y-90020002D02*
G01*
X199988614Y-90073658D01*
X200000000Y-90126000D01*
X200000000Y-109728000D01*
X199979998Y-109796121D01*
X199926342Y-109842614D01*
X199874000Y-109854000D01*
X196503088Y-109854000D01*
X196496906Y-109853848D01*
X196481291Y-109853081D01*
X196468985Y-109851869D01*
X196456574Y-109850028D01*
X196444448Y-109847616D01*
X196432267Y-109844565D01*
X196420435Y-109840976D01*
X196408629Y-109836752D01*
X196397202Y-109832019D01*
X196385859Y-109826654D01*
X196374948Y-109820822D01*
X196364190Y-109814373D01*
X196353921Y-109807511D01*
X196343837Y-109800033D01*
X196334267Y-109792179D01*
X196324975Y-109783756D01*
X196316244Y-109775025D01*
X196307821Y-109765733D01*
X196299967Y-109756163D01*
X196292489Y-109746079D01*
X196285627Y-109735810D01*
X196279178Y-109725052D01*
X196273346Y-109714141D01*
X196267981Y-109702798D01*
X196263248Y-109691371D01*
X196259024Y-109679565D01*
X196255435Y-109667733D01*
X196252650Y-109656614D01*
X196255501Y-109585674D01*
X196296253Y-109527538D01*
X196361966Y-109500663D01*
X196374874Y-109500000D01*
X196481885Y-109500000D01*
X196497124Y-109495525D01*
X196498329Y-109494135D01*
X196500000Y-109486452D01*
X196500000Y-90126000D01*
X196520002Y-90057879D01*
X196573658Y-90011386D01*
X196626000Y-90000000D01*
X199874000Y-90000000D01*
X199942121Y-90020002D01*
G37*
G36*
X103442121Y-88520002D02*
G01*
X103488614Y-88573658D01*
X103500000Y-88626000D01*
X103500000Y-109481885D01*
X103504475Y-109497124D01*
X103505865Y-109498329D01*
X103513548Y-109500000D01*
X103520838Y-109500000D01*
X103588959Y-109520002D01*
X103635452Y-109573658D01*
X103645556Y-109643932D01*
X103616062Y-109708512D01*
X103556336Y-109746896D01*
X103539329Y-109750636D01*
X103531018Y-109751869D01*
X103518709Y-109753081D01*
X103503094Y-109753848D01*
X103496912Y-109754000D01*
X100126000Y-109754000D01*
X100057879Y-109733998D01*
X100011386Y-109680342D01*
X100000000Y-109628000D01*
X100000000Y-88626000D01*
X100020002Y-88557879D01*
X100073658Y-88511386D01*
X100126000Y-88500000D01*
X103374000Y-88500000D01*
X103442121Y-88520002D01*
G37*
G36*
X182442121Y-113020002D02*
G01*
X182488614Y-113073658D01*
X182500000Y-113126000D01*
X182500000Y-118947810D01*
X182479998Y-119015931D01*
X182463095Y-119036905D01*
X181536905Y-119963095D01*
X181474593Y-119997121D01*
X181447810Y-120000000D01*
X119052190Y-120000000D01*
X118984069Y-119979998D01*
X118963095Y-119963095D01*
X118036905Y-119036905D01*
X118002879Y-118974593D01*
X118000000Y-118947810D01*
X118000000Y-113126000D01*
X118020002Y-113057879D01*
X118073658Y-113011386D01*
X118126000Y-113000000D01*
X182374000Y-113000000D01*
X182442121Y-113020002D01*
G37*
G36*
X199942121Y-109266002D02*
G01*
X199988614Y-109319658D01*
X200000000Y-109372000D01*
X200000000Y-115491742D01*
X199998922Y-115508188D01*
X199985128Y-115612963D01*
X199976615Y-115644735D01*
X199939361Y-115734674D01*
X199922914Y-115763160D01*
X199863651Y-115840393D01*
X199840393Y-115863651D01*
X199763160Y-115922914D01*
X199734674Y-115939361D01*
X199644735Y-115976615D01*
X199612963Y-115985128D01*
X199508188Y-115998922D01*
X199491742Y-116000000D01*
X194508258Y-116000000D01*
X194491812Y-115998922D01*
X194387037Y-115985128D01*
X194355265Y-115976615D01*
X194265326Y-115939361D01*
X194236840Y-115922914D01*
X194159607Y-115863651D01*
X194136349Y-115840393D01*
X194077086Y-115763160D01*
X194060639Y-115734674D01*
X194023385Y-115644735D01*
X194014872Y-115612963D01*
X194001078Y-115508188D01*
X194000000Y-115491742D01*
X194000000Y-109626000D01*
X194020002Y-109557879D01*
X194073658Y-109511386D01*
X194126000Y-109500000D01*
X196481885Y-109500000D01*
X196497124Y-109495525D01*
X196498329Y-109494135D01*
X196500000Y-109486452D01*
X196500000Y-109372000D01*
X196520002Y-109303879D01*
X196573658Y-109257386D01*
X196626000Y-109246000D01*
X199874000Y-109246000D01*
X199942121Y-109266002D01*
G37*
G36*
X103442121Y-109266002D02*
G01*
X103488614Y-109319658D01*
X103500000Y-109372000D01*
X103500000Y-109481885D01*
X103504475Y-109497124D01*
X103505865Y-109498329D01*
X103513548Y-109500000D01*
X106374000Y-109500000D01*
X106442121Y-109520002D01*
X106488614Y-109573658D01*
X106500000Y-109626000D01*
X106500000Y-115491742D01*
X106498922Y-115508188D01*
X106485128Y-115612963D01*
X106476615Y-115644735D01*
X106439361Y-115734674D01*
X106422914Y-115763160D01*
X106363651Y-115840393D01*
X106340393Y-115863651D01*
X106263160Y-115922914D01*
X106234674Y-115939361D01*
X106144735Y-115976615D01*
X106112963Y-115985128D01*
X106008188Y-115998922D01*
X105991742Y-116000000D01*
X100508258Y-116000000D01*
X100491812Y-115998922D01*
X100387037Y-115985128D01*
X100355265Y-115976615D01*
X100265326Y-115939361D01*
X100236840Y-115922914D01*
X100159607Y-115863651D01*
X100136349Y-115840393D01*
X100077086Y-115763160D01*
X100060639Y-115734674D01*
X100023385Y-115644735D01*
X100014872Y-115612963D01*
X100001078Y-115508188D01*
X100000000Y-115491742D01*
X100000000Y-109372000D01*
X100020002Y-109303879D01*
X100073658Y-109257386D01*
X100126000Y-109246000D01*
X103374000Y-109246000D01*
X103442121Y-109266002D01*
G37*
G36*
X182480771Y-112993068D02*
G01*
X182499430Y-112998068D01*
X182500718Y-112999356D01*
X182501000Y-112999356D01*
X182501932Y-113000570D01*
X182506932Y-113019231D01*
X182507000Y-113019749D01*
X182507000Y-118980253D01*
X182506932Y-118980771D01*
X182501932Y-118999432D01*
X182501510Y-118999854D01*
X182501535Y-118999879D01*
X182501535Y-119000915D01*
X182499000Y-119010375D01*
X182498654Y-119011075D01*
X182498167Y-119011709D01*
X182497995Y-119011905D01*
X181518916Y-119990984D01*
X181518502Y-119991302D01*
X181501769Y-120000963D01*
X181501169Y-120000963D01*
X181501169Y-120001000D01*
X181500437Y-120001732D01*
X181491957Y-120006628D01*
X181491219Y-120006879D01*
X181490431Y-120006983D01*
X181490169Y-120007000D01*
X119019749Y-120007000D01*
X119019231Y-120006932D01*
X119000571Y-120001932D01*
X119000146Y-120001507D01*
X119000119Y-120001533D01*
X118999083Y-120001533D01*
X118989625Y-119998999D01*
X118988926Y-119998654D01*
X118988290Y-119998166D01*
X118988093Y-119997993D01*
X118009016Y-119018916D01*
X118008698Y-119018502D01*
X117999037Y-119001769D01*
X117999037Y-119001169D01*
X117999000Y-119001169D01*
X117998268Y-119000437D01*
X117997599Y-118999279D01*
X118002000Y-118999279D01*
X118002183Y-118999355D01*
X119000904Y-119998076D01*
X119001089Y-119998000D01*
X181499279Y-119998000D01*
X181499355Y-119997817D01*
X182498076Y-118999096D01*
X182498000Y-118998914D01*
X182498000Y-113002000D01*
X118002000Y-113002000D01*
X118002000Y-118999279D01*
X117997599Y-118999279D01*
X117993372Y-118991957D01*
X117993121Y-118991219D01*
X117993017Y-118990431D01*
X117993000Y-118990169D01*
X117993000Y-113019749D01*
X117993068Y-113019231D01*
X117998068Y-113000570D01*
X117999356Y-112999282D01*
X117999356Y-112999000D01*
X118000570Y-112998068D01*
X118019231Y-112993068D01*
X118019749Y-112993000D01*
X182480253Y-112993000D01*
X182480771Y-112993068D01*
G37*
G36*
X103480771Y-88493068D02*
G01*
X103499430Y-88498068D01*
X103500718Y-88499356D01*
X103501000Y-88499356D01*
X103501932Y-88500570D01*
X103506932Y-88519231D01*
X103507000Y-88519749D01*
X103507000Y-109344737D01*
X103526890Y-109418967D01*
X103581034Y-109473110D01*
X103655263Y-109493000D01*
X106480253Y-109493000D01*
X106480771Y-109493068D01*
X106499430Y-109498068D01*
X106500718Y-109499356D01*
X106501000Y-109499356D01*
X106501932Y-109500570D01*
X106506932Y-109519231D01*
X106507000Y-109519749D01*
X106507000Y-115495088D01*
X106506996Y-115495219D01*
X106506312Y-115505649D01*
X106506299Y-115505779D01*
X106491186Y-115620576D01*
X106491135Y-115620833D01*
X106485751Y-115640926D01*
X106485667Y-115641173D01*
X106443243Y-115743595D01*
X106443127Y-115743830D01*
X106432727Y-115761842D01*
X106432582Y-115762060D01*
X106365089Y-115850018D01*
X106364916Y-115850214D01*
X106350214Y-115864916D01*
X106350018Y-115865089D01*
X106262060Y-115932582D01*
X106261842Y-115932727D01*
X106243830Y-115943127D01*
X106243595Y-115943243D01*
X106141173Y-115985667D01*
X106140926Y-115985751D01*
X106120833Y-115991135D01*
X106120576Y-115991186D01*
X106005779Y-116006299D01*
X106005649Y-116006312D01*
X105995219Y-116006996D01*
X105995088Y-116007000D01*
X100504912Y-116007000D01*
X100504781Y-116006996D01*
X100494351Y-116006312D01*
X100494221Y-116006299D01*
X100379424Y-115991186D01*
X100379167Y-115991135D01*
X100359074Y-115985751D01*
X100358827Y-115985667D01*
X100256405Y-115943243D01*
X100256170Y-115943127D01*
X100238158Y-115932727D01*
X100237940Y-115932582D01*
X100149982Y-115865089D01*
X100149786Y-115864916D01*
X100135084Y-115850214D01*
X100134911Y-115850018D01*
X100067418Y-115762060D01*
X100067273Y-115761842D01*
X100056873Y-115743830D01*
X100056757Y-115743595D01*
X100014333Y-115641173D01*
X100014249Y-115640926D01*
X100008865Y-115620833D01*
X100008814Y-115620576D01*
X99993701Y-115505779D01*
X99993688Y-115505649D01*
X99993309Y-115499868D01*
X100002000Y-115499868D01*
X100018986Y-115628888D01*
X100068733Y-115748990D01*
X100147874Y-115852126D01*
X100251010Y-115931267D01*
X100371112Y-115981014D01*
X100500132Y-115998000D01*
X105999868Y-115998000D01*
X106128888Y-115981014D01*
X106248990Y-115931267D01*
X106352126Y-115852126D01*
X106431267Y-115748990D01*
X106481014Y-115628888D01*
X106498000Y-115499868D01*
X106498000Y-109502000D01*
X103500000Y-109502000D01*
X103498268Y-109501000D01*
X103498000Y-109500000D01*
X103498000Y-88502000D01*
X100002000Y-88502000D01*
X100002000Y-115499868D01*
X99993309Y-115499868D01*
X99993004Y-115495219D01*
X99993000Y-115495088D01*
X99993000Y-88519749D01*
X99993068Y-88519231D01*
X99998068Y-88500570D01*
X99999356Y-88499282D01*
X99999356Y-88499000D01*
X100000570Y-88498068D01*
X100019231Y-88493068D01*
X100019749Y-88493000D01*
X103480253Y-88493000D01*
X103480771Y-88493068D01*
G37*
G36*
X199980771Y-89993068D02*
G01*
X199999430Y-89998068D01*
X200000718Y-89999356D01*
X200001000Y-89999356D01*
X200001932Y-90000570D01*
X200006932Y-90019231D01*
X200007000Y-90019749D01*
X200007000Y-115495088D01*
X200006996Y-115495219D01*
X200006312Y-115505649D01*
X200006299Y-115505779D01*
X199991186Y-115620576D01*
X199991135Y-115620833D01*
X199985751Y-115640926D01*
X199985667Y-115641173D01*
X199943243Y-115743595D01*
X199943127Y-115743830D01*
X199932727Y-115761842D01*
X199932582Y-115762060D01*
X199865089Y-115850018D01*
X199864916Y-115850214D01*
X199850214Y-115864916D01*
X199850018Y-115865089D01*
X199762060Y-115932582D01*
X199761842Y-115932727D01*
X199743830Y-115943127D01*
X199743595Y-115943243D01*
X199641173Y-115985667D01*
X199640926Y-115985751D01*
X199620833Y-115991135D01*
X199620576Y-115991186D01*
X199505779Y-116006299D01*
X199505649Y-116006312D01*
X199495219Y-116006996D01*
X199495088Y-116007000D01*
X194504912Y-116007000D01*
X194504781Y-116006996D01*
X194494351Y-116006312D01*
X194494221Y-116006299D01*
X194379424Y-115991186D01*
X194379167Y-115991135D01*
X194359074Y-115985751D01*
X194358827Y-115985667D01*
X194256405Y-115943243D01*
X194256170Y-115943127D01*
X194238158Y-115932727D01*
X194237940Y-115932582D01*
X194149982Y-115865089D01*
X194149786Y-115864916D01*
X194135084Y-115850214D01*
X194134911Y-115850018D01*
X194067418Y-115762060D01*
X194067273Y-115761842D01*
X194056873Y-115743830D01*
X194056757Y-115743595D01*
X194014333Y-115641173D01*
X194014249Y-115640926D01*
X194008865Y-115620833D01*
X194008814Y-115620576D01*
X193993701Y-115505779D01*
X193993688Y-115505649D01*
X193993309Y-115499868D01*
X194002000Y-115499868D01*
X194018986Y-115628888D01*
X194068733Y-115748990D01*
X194147874Y-115852126D01*
X194251010Y-115931267D01*
X194371112Y-115981014D01*
X194500132Y-115998000D01*
X199499868Y-115998000D01*
X199628888Y-115981014D01*
X199748990Y-115931267D01*
X199852126Y-115852126D01*
X199931267Y-115748990D01*
X199981014Y-115628888D01*
X199998000Y-115499868D01*
X199998000Y-90002000D01*
X196502000Y-90002000D01*
X196502000Y-109500000D01*
X196501000Y-109501732D01*
X196500000Y-109502000D01*
X194002000Y-109502000D01*
X194002000Y-115499868D01*
X193993309Y-115499868D01*
X193993004Y-115495219D01*
X193993000Y-115495088D01*
X193993000Y-109519749D01*
X193993068Y-109519231D01*
X193998068Y-109500570D01*
X193999356Y-109499282D01*
X193999356Y-109499000D01*
X194000570Y-109498068D01*
X194019231Y-109493068D01*
X194019749Y-109493000D01*
X196344737Y-109493000D01*
X196418967Y-109473110D01*
X196473110Y-109418967D01*
X196493000Y-109344737D01*
X196493000Y-90019749D01*
X196493068Y-90019231D01*
X196498068Y-90000570D01*
X196499356Y-89999282D01*
X196499356Y-89999000D01*
X196500570Y-89998068D01*
X196519231Y-89993068D01*
X196519749Y-89993000D01*
X199980253Y-89993000D01*
X199980771Y-89993068D01*
G37*
G36*
X139900220Y-110657324D02*
G01*
X139977010Y-110716247D01*
X140075763Y-110757152D01*
X140076981Y-110758739D01*
X140076216Y-110760587D01*
X140075763Y-110760848D01*
X139977010Y-110801753D01*
X139891097Y-110867676D01*
X139889114Y-110867937D01*
X139887896Y-110866350D01*
X139888219Y-110864974D01*
X139927289Y-110806830D01*
X139932498Y-110730435D01*
X139898715Y-110661477D01*
X139897573Y-110660310D01*
X139897076Y-110658373D01*
X139898505Y-110656974D01*
X139900220Y-110657324D01*
G37*
G36*
X159897826Y-110655487D02*
G01*
X159977010Y-110716247D01*
X160067314Y-110753652D01*
X160068532Y-110755239D01*
X160067767Y-110757087D01*
X160067314Y-110757348D01*
X159977010Y-110794753D01*
X159887740Y-110863252D01*
X159885757Y-110863513D01*
X159884539Y-110861926D01*
X159884862Y-110860549D01*
X159923362Y-110803257D01*
X159928570Y-110726863D01*
X159894812Y-110657954D01*
X159894948Y-110655958D01*
X159896744Y-110655079D01*
X159897826Y-110655487D01*
G37*
G36*
X140595406Y-110650651D02*
G01*
X140595071Y-110652045D01*
X140555373Y-110709806D01*
X140549366Y-110786144D01*
X140582419Y-110855441D01*
X140585209Y-110858290D01*
X140585706Y-110860227D01*
X140584277Y-110861626D01*
X140582562Y-110861276D01*
X140504990Y-110801753D01*
X140406237Y-110760848D01*
X140405019Y-110759261D01*
X140405784Y-110757413D01*
X140406237Y-110757152D01*
X140504990Y-110716247D01*
X140592205Y-110649325D01*
X140594188Y-110649064D01*
X140595406Y-110650651D01*
G37*
G36*
X160598910Y-110647962D02*
G01*
X160598575Y-110649356D01*
X160559385Y-110706380D01*
X160553377Y-110782718D01*
X160586429Y-110852012D01*
X160587265Y-110852866D01*
X160587762Y-110854803D01*
X160586334Y-110856203D01*
X160584618Y-110855853D01*
X160504990Y-110794753D01*
X160414686Y-110757348D01*
X160413468Y-110755761D01*
X160414233Y-110753913D01*
X160414686Y-110753652D01*
X160504990Y-110716247D01*
X160595709Y-110646636D01*
X160597692Y-110646375D01*
X160598910Y-110647962D01*
G37*
G36*
X145511436Y-93695446D02*
G01*
X145511369Y-93697121D01*
X145504268Y-93711027D01*
X145504011Y-93711412D01*
X145494582Y-93722511D01*
X145461681Y-93791957D01*
X145467891Y-93868279D01*
X145505359Y-93922491D01*
X145505521Y-93924484D01*
X145505130Y-93925041D01*
X145505046Y-93925125D01*
X145523076Y-93943124D01*
X145523595Y-93945055D01*
X145522182Y-93946470D01*
X145520552Y-93946202D01*
X145498970Y-93931781D01*
X145449801Y-93922000D01*
X145251669Y-93922000D01*
X145249937Y-93921000D01*
X145249937Y-93919000D01*
X145250904Y-93918152D01*
X145301490Y-93897199D01*
X145426373Y-93801373D01*
X145508001Y-93694993D01*
X145509849Y-93694228D01*
X145511436Y-93695446D01*
G37*
G36*
X153511436Y-93695446D02*
G01*
X153511369Y-93697121D01*
X153504268Y-93711027D01*
X153504011Y-93711412D01*
X153494582Y-93722511D01*
X153461681Y-93791957D01*
X153467891Y-93868279D01*
X153505359Y-93922491D01*
X153505521Y-93924484D01*
X153505130Y-93925041D01*
X153505046Y-93925125D01*
X153523076Y-93943124D01*
X153523595Y-93945055D01*
X153522182Y-93946470D01*
X153520552Y-93946202D01*
X153498970Y-93931781D01*
X153449801Y-93922000D01*
X153251669Y-93922000D01*
X153249937Y-93921000D01*
X153249937Y-93919000D01*
X153250904Y-93918152D01*
X153301490Y-93897199D01*
X153426373Y-93801373D01*
X153508001Y-93694993D01*
X153509849Y-93694228D01*
X153511436Y-93695446D01*
G37*
G36*
X157511436Y-93695446D02*
G01*
X157511369Y-93697121D01*
X157504268Y-93711027D01*
X157504011Y-93711412D01*
X157494582Y-93722511D01*
X157461681Y-93791957D01*
X157467891Y-93868279D01*
X157505359Y-93922491D01*
X157505521Y-93924484D01*
X157505130Y-93925041D01*
X157505046Y-93925125D01*
X157523076Y-93943124D01*
X157523595Y-93945055D01*
X157522182Y-93946470D01*
X157520552Y-93946202D01*
X157498970Y-93931781D01*
X157449801Y-93922000D01*
X157251669Y-93922000D01*
X157249937Y-93921000D01*
X157249937Y-93919000D01*
X157250904Y-93918152D01*
X157301490Y-93897199D01*
X157426373Y-93801373D01*
X157508001Y-93694993D01*
X157509849Y-93694228D01*
X157511436Y-93695446D01*
G37*
G36*
X155511436Y-93695446D02*
G01*
X155511369Y-93697121D01*
X155504268Y-93711027D01*
X155504011Y-93711412D01*
X155494582Y-93722511D01*
X155461681Y-93791957D01*
X155467891Y-93868279D01*
X155505359Y-93922491D01*
X155505521Y-93924484D01*
X155505130Y-93925041D01*
X155505046Y-93925125D01*
X155523076Y-93943124D01*
X155523595Y-93945055D01*
X155522182Y-93946470D01*
X155520552Y-93946202D01*
X155498970Y-93931781D01*
X155449801Y-93922000D01*
X155251669Y-93922000D01*
X155249937Y-93921000D01*
X155249937Y-93919000D01*
X155250904Y-93918152D01*
X155301490Y-93897199D01*
X155426373Y-93801373D01*
X155508001Y-93694993D01*
X155509849Y-93694228D01*
X155511436Y-93695446D01*
G37*
G36*
X159511436Y-93695446D02*
G01*
X159511369Y-93697121D01*
X159504268Y-93711027D01*
X159504011Y-93711412D01*
X159494582Y-93722511D01*
X159461681Y-93791957D01*
X159467891Y-93868279D01*
X159505359Y-93922491D01*
X159505521Y-93924484D01*
X159505130Y-93925041D01*
X159505046Y-93925125D01*
X159523076Y-93943124D01*
X159523595Y-93945055D01*
X159522182Y-93946470D01*
X159520552Y-93946202D01*
X159498970Y-93931781D01*
X159449801Y-93922000D01*
X159251669Y-93922000D01*
X159249937Y-93921000D01*
X159249937Y-93919000D01*
X159250904Y-93918152D01*
X159301490Y-93897199D01*
X159426373Y-93801373D01*
X159508001Y-93694993D01*
X159509849Y-93694228D01*
X159511436Y-93695446D01*
G37*
G36*
X149511436Y-93695446D02*
G01*
X149511369Y-93697121D01*
X149504268Y-93711027D01*
X149504011Y-93711412D01*
X149494582Y-93722511D01*
X149461681Y-93791957D01*
X149467891Y-93868279D01*
X149505359Y-93922491D01*
X149505521Y-93924484D01*
X149505130Y-93925041D01*
X149505046Y-93925125D01*
X149523076Y-93943124D01*
X149523595Y-93945055D01*
X149522182Y-93946470D01*
X149520552Y-93946202D01*
X149498970Y-93931781D01*
X149449801Y-93922000D01*
X149251669Y-93922000D01*
X149249937Y-93921000D01*
X149249937Y-93919000D01*
X149250904Y-93918152D01*
X149301490Y-93897199D01*
X149426373Y-93801373D01*
X149508001Y-93694993D01*
X149509849Y-93694228D01*
X149511436Y-93695446D01*
G37*
G36*
X141511436Y-93695446D02*
G01*
X141511369Y-93697121D01*
X141504268Y-93711027D01*
X141504011Y-93711412D01*
X141494582Y-93722511D01*
X141461681Y-93791957D01*
X141467891Y-93868279D01*
X141505359Y-93922491D01*
X141505521Y-93924484D01*
X141505130Y-93925041D01*
X141505046Y-93925125D01*
X141523076Y-93943124D01*
X141523595Y-93945055D01*
X141522182Y-93946470D01*
X141520552Y-93946202D01*
X141498970Y-93931781D01*
X141449801Y-93922000D01*
X141251669Y-93922000D01*
X141249937Y-93921000D01*
X141249937Y-93919000D01*
X141250904Y-93918152D01*
X141301490Y-93897199D01*
X141426373Y-93801373D01*
X141508001Y-93694993D01*
X141509849Y-93694228D01*
X141511436Y-93695446D01*
G37*
G36*
X143511436Y-93695446D02*
G01*
X143511369Y-93697121D01*
X143504268Y-93711027D01*
X143504011Y-93711412D01*
X143494582Y-93722511D01*
X143461681Y-93791957D01*
X143467891Y-93868279D01*
X143505359Y-93922491D01*
X143505521Y-93924484D01*
X143505130Y-93925041D01*
X143505046Y-93925125D01*
X143523076Y-93943124D01*
X143523595Y-93945055D01*
X143522182Y-93946470D01*
X143520552Y-93946202D01*
X143498970Y-93931781D01*
X143449801Y-93922000D01*
X143251669Y-93922000D01*
X143249937Y-93921000D01*
X143249937Y-93919000D01*
X143250904Y-93918152D01*
X143301490Y-93897199D01*
X143426373Y-93801373D01*
X143508001Y-93694993D01*
X143509849Y-93694228D01*
X143511436Y-93695446D01*
G37*
G36*
X147511436Y-93695446D02*
G01*
X147511369Y-93697121D01*
X147504268Y-93711027D01*
X147504011Y-93711412D01*
X147494582Y-93722511D01*
X147461681Y-93791957D01*
X147467891Y-93868279D01*
X147505359Y-93922491D01*
X147505521Y-93924484D01*
X147505130Y-93925041D01*
X147505046Y-93925125D01*
X147523076Y-93943124D01*
X147523595Y-93945055D01*
X147522182Y-93946470D01*
X147520552Y-93946202D01*
X147498970Y-93931781D01*
X147449801Y-93922000D01*
X147251669Y-93922000D01*
X147249937Y-93921000D01*
X147249937Y-93919000D01*
X147250904Y-93918152D01*
X147301490Y-93897199D01*
X147426373Y-93801373D01*
X147508001Y-93694993D01*
X147509849Y-93694228D01*
X147511436Y-93695446D01*
G37*
G36*
X151511436Y-93695446D02*
G01*
X151511369Y-93697121D01*
X151504268Y-93711027D01*
X151504011Y-93711412D01*
X151494582Y-93722511D01*
X151461681Y-93791957D01*
X151467891Y-93868279D01*
X151505359Y-93922491D01*
X151505521Y-93924484D01*
X151505130Y-93925041D01*
X151505046Y-93925125D01*
X151523076Y-93943124D01*
X151523595Y-93945055D01*
X151522182Y-93946470D01*
X151520552Y-93946202D01*
X151498970Y-93931781D01*
X151449801Y-93922000D01*
X151251669Y-93922000D01*
X151249937Y-93921000D01*
X151249937Y-93919000D01*
X151250904Y-93918152D01*
X151301490Y-93897199D01*
X151426373Y-93801373D01*
X151508001Y-93694993D01*
X151509849Y-93694228D01*
X151511436Y-93695446D01*
G37*
G36*
X156511374Y-93720242D02*
G01*
X156573627Y-93801373D01*
X156698510Y-93897199D01*
X156749096Y-93918152D01*
X156750314Y-93919739D01*
X156749549Y-93921587D01*
X156748331Y-93922000D01*
X156550199Y-93922000D01*
X156501030Y-93931781D01*
X156479269Y-93946321D01*
X156477273Y-93946452D01*
X156476162Y-93944789D01*
X156476743Y-93943245D01*
X156494737Y-93925219D01*
X156493605Y-93924089D01*
X156493086Y-93922158D01*
X156493760Y-93921119D01*
X156513447Y-93905198D01*
X156540935Y-93833729D01*
X156528977Y-93757902D01*
X156517554Y-93736957D01*
X156508114Y-93722557D01*
X156508001Y-93720560D01*
X156509674Y-93719463D01*
X156511374Y-93720242D01*
G37*
G36*
X148511374Y-93720242D02*
G01*
X148573627Y-93801373D01*
X148698510Y-93897199D01*
X148749096Y-93918152D01*
X148750314Y-93919739D01*
X148749549Y-93921587D01*
X148748331Y-93922000D01*
X148550199Y-93922000D01*
X148501030Y-93931781D01*
X148479269Y-93946321D01*
X148477273Y-93946452D01*
X148476162Y-93944789D01*
X148476743Y-93943245D01*
X148494737Y-93925219D01*
X148493605Y-93924089D01*
X148493086Y-93922158D01*
X148493760Y-93921119D01*
X148513447Y-93905198D01*
X148540935Y-93833729D01*
X148528977Y-93757902D01*
X148517554Y-93736957D01*
X148508114Y-93722557D01*
X148508001Y-93720560D01*
X148509674Y-93719463D01*
X148511374Y-93720242D01*
G37*
G36*
X150511374Y-93720242D02*
G01*
X150573627Y-93801373D01*
X150698510Y-93897199D01*
X150749096Y-93918152D01*
X150750314Y-93919739D01*
X150749549Y-93921587D01*
X150748331Y-93922000D01*
X150550199Y-93922000D01*
X150501030Y-93931781D01*
X150479269Y-93946321D01*
X150477273Y-93946452D01*
X150476162Y-93944789D01*
X150476743Y-93943245D01*
X150494737Y-93925219D01*
X150493605Y-93924089D01*
X150493086Y-93922158D01*
X150493760Y-93921119D01*
X150513447Y-93905198D01*
X150540935Y-93833729D01*
X150528977Y-93757902D01*
X150517554Y-93736957D01*
X150508114Y-93722557D01*
X150508001Y-93720560D01*
X150509674Y-93719463D01*
X150511374Y-93720242D01*
G37*
G36*
X154511374Y-93720242D02*
G01*
X154573627Y-93801373D01*
X154698510Y-93897199D01*
X154749096Y-93918152D01*
X154750314Y-93919739D01*
X154749549Y-93921587D01*
X154748331Y-93922000D01*
X154550199Y-93922000D01*
X154501030Y-93931781D01*
X154479269Y-93946321D01*
X154477273Y-93946452D01*
X154476162Y-93944789D01*
X154476743Y-93943245D01*
X154494737Y-93925219D01*
X154493605Y-93924089D01*
X154493086Y-93922158D01*
X154493760Y-93921119D01*
X154513447Y-93905198D01*
X154540935Y-93833729D01*
X154528977Y-93757902D01*
X154517554Y-93736957D01*
X154508114Y-93722557D01*
X154508001Y-93720560D01*
X154509674Y-93719463D01*
X154511374Y-93720242D01*
G37*
G36*
X152511374Y-93720242D02*
G01*
X152573627Y-93801373D01*
X152698510Y-93897199D01*
X152749096Y-93918152D01*
X152750314Y-93919739D01*
X152749549Y-93921587D01*
X152748331Y-93922000D01*
X152550199Y-93922000D01*
X152501030Y-93931781D01*
X152479269Y-93946321D01*
X152477273Y-93946452D01*
X152476162Y-93944789D01*
X152476743Y-93943245D01*
X152494737Y-93925219D01*
X152493605Y-93924089D01*
X152493086Y-93922158D01*
X152493760Y-93921119D01*
X152513447Y-93905198D01*
X152540935Y-93833729D01*
X152528977Y-93757902D01*
X152517554Y-93736957D01*
X152508114Y-93722557D01*
X152508001Y-93720560D01*
X152509674Y-93719463D01*
X152511374Y-93720242D01*
G37*
G36*
X158511374Y-93720242D02*
G01*
X158573627Y-93801373D01*
X158698510Y-93897199D01*
X158749096Y-93918152D01*
X158750314Y-93919739D01*
X158749549Y-93921587D01*
X158748331Y-93922000D01*
X158550199Y-93922000D01*
X158501030Y-93931781D01*
X158479269Y-93946321D01*
X158477273Y-93946452D01*
X158476162Y-93944789D01*
X158476743Y-93943245D01*
X158494737Y-93925219D01*
X158493605Y-93924089D01*
X158493086Y-93922158D01*
X158493760Y-93921119D01*
X158513447Y-93905198D01*
X158540935Y-93833729D01*
X158528977Y-93757902D01*
X158517554Y-93736957D01*
X158508114Y-93722557D01*
X158508001Y-93720560D01*
X158509674Y-93719463D01*
X158511374Y-93720242D01*
G37*
G36*
X146511374Y-93720242D02*
G01*
X146573627Y-93801373D01*
X146698510Y-93897199D01*
X146749096Y-93918152D01*
X146750314Y-93919739D01*
X146749549Y-93921587D01*
X146748331Y-93922000D01*
X146550199Y-93922000D01*
X146501030Y-93931781D01*
X146479269Y-93946321D01*
X146477273Y-93946452D01*
X146476162Y-93944789D01*
X146476743Y-93943245D01*
X146494737Y-93925219D01*
X146493605Y-93924089D01*
X146493086Y-93922158D01*
X146493760Y-93921119D01*
X146513447Y-93905198D01*
X146540935Y-93833729D01*
X146528977Y-93757902D01*
X146517554Y-93736957D01*
X146508114Y-93722557D01*
X146508001Y-93720560D01*
X146509674Y-93719463D01*
X146511374Y-93720242D01*
G37*
G36*
X142511374Y-93720242D02*
G01*
X142573627Y-93801373D01*
X142698510Y-93897199D01*
X142749096Y-93918152D01*
X142750314Y-93919739D01*
X142749549Y-93921587D01*
X142748331Y-93922000D01*
X142550199Y-93922000D01*
X142501030Y-93931781D01*
X142479269Y-93946321D01*
X142477273Y-93946452D01*
X142476162Y-93944789D01*
X142476743Y-93943245D01*
X142494737Y-93925219D01*
X142493605Y-93924089D01*
X142493086Y-93922158D01*
X142493760Y-93921119D01*
X142513447Y-93905198D01*
X142540935Y-93833729D01*
X142528977Y-93757902D01*
X142517554Y-93736957D01*
X142508114Y-93722557D01*
X142508001Y-93720560D01*
X142509674Y-93719463D01*
X142511374Y-93720242D01*
G37*
G36*
X144511374Y-93720242D02*
G01*
X144573627Y-93801373D01*
X144698510Y-93897199D01*
X144749096Y-93918152D01*
X144750314Y-93919739D01*
X144749549Y-93921587D01*
X144748331Y-93922000D01*
X144550199Y-93922000D01*
X144501030Y-93931781D01*
X144479269Y-93946321D01*
X144477273Y-93946452D01*
X144476162Y-93944789D01*
X144476743Y-93943245D01*
X144494737Y-93925219D01*
X144493605Y-93924089D01*
X144493086Y-93922158D01*
X144493760Y-93921119D01*
X144513447Y-93905198D01*
X144540935Y-93833729D01*
X144528977Y-93757902D01*
X144517554Y-93736957D01*
X144508114Y-93722557D01*
X144508001Y-93720560D01*
X144509674Y-93719463D01*
X144511374Y-93720242D01*
G37*
G36*
X140511374Y-93720242D02*
G01*
X140573627Y-93801373D01*
X140698510Y-93897199D01*
X140749096Y-93918152D01*
X140750314Y-93919739D01*
X140749549Y-93921587D01*
X140748331Y-93922000D01*
X140550199Y-93922000D01*
X140501030Y-93931781D01*
X140479269Y-93946321D01*
X140477273Y-93946452D01*
X140476162Y-93944789D01*
X140476743Y-93943245D01*
X140494737Y-93925219D01*
X140493605Y-93924089D01*
X140493086Y-93922158D01*
X140493760Y-93921119D01*
X140513447Y-93905198D01*
X140540935Y-93833729D01*
X140528977Y-93757902D01*
X140517554Y-93736957D01*
X140508114Y-93722557D01*
X140508001Y-93720560D01*
X140509674Y-93719463D01*
X140511374Y-93720242D01*
G37*
G36*
X149872784Y-90204648D02*
G01*
X149912939Y-90254325D01*
X149984403Y-90281830D01*
X150060046Y-90269918D01*
X150119723Y-90221680D01*
X150125800Y-90211132D01*
X150127531Y-90210130D01*
X150129264Y-90211128D01*
X150129495Y-90212520D01*
X150122000Y-90250199D01*
X150122000Y-93049801D01*
X150130733Y-93093705D01*
X150130090Y-93095599D01*
X150128128Y-93095989D01*
X150127216Y-93095352D01*
X150087061Y-93045675D01*
X150015597Y-93018170D01*
X149939954Y-93030082D01*
X149880277Y-93078320D01*
X149874200Y-93088868D01*
X149872469Y-93089870D01*
X149870736Y-93088872D01*
X149870505Y-93087480D01*
X149878000Y-93049801D01*
X149878000Y-90250199D01*
X149869267Y-90206295D01*
X149869910Y-90204401D01*
X149871872Y-90204011D01*
X149872784Y-90204648D01*
G37*
G36*
X153872784Y-90204648D02*
G01*
X153912939Y-90254325D01*
X153984403Y-90281830D01*
X154060046Y-90269918D01*
X154119723Y-90221680D01*
X154125800Y-90211132D01*
X154127531Y-90210130D01*
X154129264Y-90211128D01*
X154129495Y-90212520D01*
X154122000Y-90250199D01*
X154122000Y-93049801D01*
X154130733Y-93093705D01*
X154130090Y-93095599D01*
X154128128Y-93095989D01*
X154127216Y-93095352D01*
X154087061Y-93045675D01*
X154015597Y-93018170D01*
X153939954Y-93030082D01*
X153880277Y-93078320D01*
X153874200Y-93088868D01*
X153872469Y-93089870D01*
X153870736Y-93088872D01*
X153870505Y-93087480D01*
X153878000Y-93049801D01*
X153878000Y-90250199D01*
X153869267Y-90206295D01*
X153869910Y-90204401D01*
X153871872Y-90204011D01*
X153872784Y-90204648D01*
G37*
G36*
X151872784Y-90204648D02*
G01*
X151912939Y-90254325D01*
X151984403Y-90281830D01*
X152060046Y-90269918D01*
X152119723Y-90221680D01*
X152125800Y-90211132D01*
X152127531Y-90210130D01*
X152129264Y-90211128D01*
X152129495Y-90212520D01*
X152122000Y-90250199D01*
X152122000Y-93049801D01*
X152130733Y-93093705D01*
X152130090Y-93095599D01*
X152128128Y-93095989D01*
X152127216Y-93095352D01*
X152087061Y-93045675D01*
X152015597Y-93018170D01*
X151939954Y-93030082D01*
X151880277Y-93078320D01*
X151874200Y-93088868D01*
X151872469Y-93089870D01*
X151870736Y-93088872D01*
X151870505Y-93087480D01*
X151878000Y-93049801D01*
X151878000Y-90250199D01*
X151869267Y-90206295D01*
X151869910Y-90204401D01*
X151871872Y-90204011D01*
X151872784Y-90204648D01*
G37*
G36*
X143872784Y-90204648D02*
G01*
X143912939Y-90254325D01*
X143984403Y-90281830D01*
X144060046Y-90269918D01*
X144119723Y-90221680D01*
X144125800Y-90211132D01*
X144127531Y-90210130D01*
X144129264Y-90211128D01*
X144129495Y-90212520D01*
X144122000Y-90250199D01*
X144122000Y-93049801D01*
X144130733Y-93093705D01*
X144130090Y-93095599D01*
X144128128Y-93095989D01*
X144127216Y-93095352D01*
X144087061Y-93045675D01*
X144015597Y-93018170D01*
X143939954Y-93030082D01*
X143880277Y-93078320D01*
X143874200Y-93088868D01*
X143872469Y-93089870D01*
X143870736Y-93088872D01*
X143870505Y-93087480D01*
X143878000Y-93049801D01*
X143878000Y-90250199D01*
X143869267Y-90206295D01*
X143869910Y-90204401D01*
X143871872Y-90204011D01*
X143872784Y-90204648D01*
G37*
G36*
X147872784Y-90204648D02*
G01*
X147912939Y-90254325D01*
X147984403Y-90281830D01*
X148060046Y-90269918D01*
X148119723Y-90221680D01*
X148125800Y-90211132D01*
X148127531Y-90210130D01*
X148129264Y-90211128D01*
X148129495Y-90212520D01*
X148122000Y-90250199D01*
X148122000Y-93049801D01*
X148130733Y-93093705D01*
X148130090Y-93095599D01*
X148128128Y-93095989D01*
X148127216Y-93095352D01*
X148087061Y-93045675D01*
X148015597Y-93018170D01*
X147939954Y-93030082D01*
X147880277Y-93078320D01*
X147874200Y-93088868D01*
X147872469Y-93089870D01*
X147870736Y-93088872D01*
X147870505Y-93087480D01*
X147878000Y-93049801D01*
X147878000Y-90250199D01*
X147869267Y-90206295D01*
X147869910Y-90204401D01*
X147871872Y-90204011D01*
X147872784Y-90204648D01*
G37*
G36*
X141872784Y-90204648D02*
G01*
X141912939Y-90254325D01*
X141984403Y-90281830D01*
X142060046Y-90269918D01*
X142119723Y-90221680D01*
X142125800Y-90211132D01*
X142127531Y-90210130D01*
X142129264Y-90211128D01*
X142129495Y-90212520D01*
X142122000Y-90250199D01*
X142122000Y-93049801D01*
X142130733Y-93093705D01*
X142130090Y-93095599D01*
X142128128Y-93095989D01*
X142127216Y-93095352D01*
X142087061Y-93045675D01*
X142015597Y-93018170D01*
X141939954Y-93030082D01*
X141880277Y-93078320D01*
X141874200Y-93088868D01*
X141872469Y-93089870D01*
X141870736Y-93088872D01*
X141870505Y-93087480D01*
X141878000Y-93049801D01*
X141878000Y-90250199D01*
X141869267Y-90206295D01*
X141869910Y-90204401D01*
X141871872Y-90204011D01*
X141872784Y-90204648D01*
G37*
G36*
X145872784Y-90204648D02*
G01*
X145912939Y-90254325D01*
X145984403Y-90281830D01*
X146060046Y-90269918D01*
X146119723Y-90221680D01*
X146125800Y-90211132D01*
X146127531Y-90210130D01*
X146129264Y-90211128D01*
X146129495Y-90212520D01*
X146122000Y-90250199D01*
X146122000Y-93049801D01*
X146130733Y-93093705D01*
X146130090Y-93095599D01*
X146128128Y-93095989D01*
X146127216Y-93095352D01*
X146087061Y-93045675D01*
X146015597Y-93018170D01*
X145939954Y-93030082D01*
X145880277Y-93078320D01*
X145874200Y-93088868D01*
X145872469Y-93089870D01*
X145870736Y-93088872D01*
X145870505Y-93087480D01*
X145878000Y-93049801D01*
X145878000Y-90250199D01*
X145869267Y-90206295D01*
X145869910Y-90204401D01*
X145871872Y-90204011D01*
X145872784Y-90204648D01*
G37*
G36*
X157872784Y-90204648D02*
G01*
X157912939Y-90254325D01*
X157984403Y-90281830D01*
X158060046Y-90269918D01*
X158119723Y-90221680D01*
X158125800Y-90211132D01*
X158127531Y-90210130D01*
X158129264Y-90211128D01*
X158129495Y-90212520D01*
X158122000Y-90250199D01*
X158122000Y-93049801D01*
X158130733Y-93093705D01*
X158130090Y-93095599D01*
X158128128Y-93095989D01*
X158127216Y-93095352D01*
X158087061Y-93045675D01*
X158015597Y-93018170D01*
X157939954Y-93030082D01*
X157880277Y-93078320D01*
X157874200Y-93088868D01*
X157872469Y-93089870D01*
X157870736Y-93088872D01*
X157870505Y-93087480D01*
X157878000Y-93049801D01*
X157878000Y-90250199D01*
X157869267Y-90206295D01*
X157869910Y-90204401D01*
X157871872Y-90204011D01*
X157872784Y-90204648D01*
G37*
G36*
X155872784Y-90204648D02*
G01*
X155912939Y-90254325D01*
X155984403Y-90281830D01*
X156060046Y-90269918D01*
X156119723Y-90221680D01*
X156125800Y-90211132D01*
X156127531Y-90210130D01*
X156129264Y-90211128D01*
X156129495Y-90212520D01*
X156122000Y-90250199D01*
X156122000Y-93049801D01*
X156130733Y-93093705D01*
X156130090Y-93095599D01*
X156128128Y-93095989D01*
X156127216Y-93095352D01*
X156087061Y-93045675D01*
X156015597Y-93018170D01*
X155939954Y-93030082D01*
X155880277Y-93078320D01*
X155874200Y-93088868D01*
X155872469Y-93089870D01*
X155870736Y-93088872D01*
X155870505Y-93087480D01*
X155878000Y-93049801D01*
X155878000Y-90250199D01*
X155869267Y-90206295D01*
X155869910Y-90204401D01*
X155871872Y-90204011D01*
X155872784Y-90204648D01*
G37*
G36*
X163921587Y-89250451D02*
G01*
X163922000Y-89251669D01*
X163922000Y-89449801D01*
X163931781Y-89498970D01*
X163946321Y-89520731D01*
X163946452Y-89522727D01*
X163944789Y-89523838D01*
X163943245Y-89523257D01*
X163925219Y-89505263D01*
X163924089Y-89506395D01*
X163922158Y-89506914D01*
X163921119Y-89506240D01*
X163905198Y-89486553D01*
X163833729Y-89459065D01*
X163757902Y-89471023D01*
X163736957Y-89482446D01*
X163722557Y-89491886D01*
X163720560Y-89491999D01*
X163719463Y-89490326D01*
X163720242Y-89488626D01*
X163801373Y-89426373D01*
X163897199Y-89301490D01*
X163918152Y-89250904D01*
X163919739Y-89249686D01*
X163921587Y-89250451D01*
G37*
G36*
X136081848Y-89250904D02*
G01*
X136102801Y-89301490D01*
X136198627Y-89426373D01*
X136305007Y-89508001D01*
X136305772Y-89509849D01*
X136304554Y-89511436D01*
X136302879Y-89511369D01*
X136288973Y-89504268D01*
X136288588Y-89504011D01*
X136277489Y-89494582D01*
X136208043Y-89461681D01*
X136131721Y-89467891D01*
X136077509Y-89505359D01*
X136075516Y-89505521D01*
X136074959Y-89505130D01*
X136074875Y-89505046D01*
X136056876Y-89523076D01*
X136054945Y-89523595D01*
X136053530Y-89522182D01*
X136053798Y-89520552D01*
X136068219Y-89498970D01*
X136078000Y-89449801D01*
X136078000Y-89251669D01*
X136079000Y-89249937D01*
X136081000Y-89249937D01*
X136081848Y-89250904D01*
G37*
G36*
X136056755Y-88476743D02*
G01*
X136074781Y-88494737D01*
X136075911Y-88493605D01*
X136077842Y-88493086D01*
X136078881Y-88493760D01*
X136094802Y-88513447D01*
X136166271Y-88540935D01*
X136242098Y-88528977D01*
X136263043Y-88517554D01*
X136277443Y-88508114D01*
X136279440Y-88508001D01*
X136280537Y-88509674D01*
X136279758Y-88511374D01*
X136198627Y-88573627D01*
X136102801Y-88698510D01*
X136081848Y-88749096D01*
X136080261Y-88750314D01*
X136078413Y-88749549D01*
X136078000Y-88748331D01*
X136078000Y-88550199D01*
X136068219Y-88501030D01*
X136053679Y-88479269D01*
X136053548Y-88477273D01*
X136055211Y-88476162D01*
X136056755Y-88476743D01*
G37*
G36*
X163946470Y-88477818D02*
G01*
X163946202Y-88479448D01*
X163931781Y-88501030D01*
X163922000Y-88550199D01*
X163922000Y-88748331D01*
X163921000Y-88750063D01*
X163919000Y-88750063D01*
X163918152Y-88749096D01*
X163897199Y-88698510D01*
X163801373Y-88573627D01*
X163694993Y-88491999D01*
X163694228Y-88490151D01*
X163695446Y-88488564D01*
X163697121Y-88488631D01*
X163711027Y-88495732D01*
X163711412Y-88495989D01*
X163722511Y-88505418D01*
X163791957Y-88538319D01*
X163868279Y-88532109D01*
X163922491Y-88494641D01*
X163924484Y-88494479D01*
X163925041Y-88494870D01*
X163925125Y-88494954D01*
X163943124Y-88476924D01*
X163945055Y-88476405D01*
X163946470Y-88477818D01*
G37*
G36*
X163095599Y-87869910D02*
G01*
X163095989Y-87871872D01*
X163095352Y-87872784D01*
X163045675Y-87912939D01*
X163018170Y-87984403D01*
X163030082Y-88060046D01*
X163078320Y-88119723D01*
X163088868Y-88125800D01*
X163089870Y-88127531D01*
X163088872Y-88129264D01*
X163087480Y-88129495D01*
X163049801Y-88122000D01*
X160250199Y-88122000D01*
X160206295Y-88130733D01*
X160204401Y-88130090D01*
X160204011Y-88128128D01*
X160204648Y-88127216D01*
X160254325Y-88087061D01*
X160281830Y-88015597D01*
X160269918Y-87939954D01*
X160221680Y-87880277D01*
X160211132Y-87874200D01*
X160210130Y-87872469D01*
X160211128Y-87870736D01*
X160212520Y-87870505D01*
X160250199Y-87878000D01*
X163049801Y-87878000D01*
X163093705Y-87869267D01*
X163095599Y-87869910D01*
G37*
G36*
X139795599Y-87869910D02*
G01*
X139795989Y-87871872D01*
X139795352Y-87872784D01*
X139745675Y-87912939D01*
X139718170Y-87984403D01*
X139730082Y-88060046D01*
X139778320Y-88119723D01*
X139788868Y-88125800D01*
X139789870Y-88127531D01*
X139788872Y-88129264D01*
X139787480Y-88129495D01*
X139749801Y-88122000D01*
X136950199Y-88122000D01*
X136906295Y-88130733D01*
X136904401Y-88130090D01*
X136904011Y-88128128D01*
X136904648Y-88127216D01*
X136954325Y-88087061D01*
X136981830Y-88015597D01*
X136969918Y-87939954D01*
X136921680Y-87880277D01*
X136911132Y-87874200D01*
X136910130Y-87872469D01*
X136911128Y-87870736D01*
X136912520Y-87870505D01*
X136950199Y-87878000D01*
X139749801Y-87878000D01*
X139793705Y-87869267D01*
X139795599Y-87869910D01*
G37*
G36*
X163921587Y-87250451D02*
G01*
X163922000Y-87251669D01*
X163922000Y-87449801D01*
X163931781Y-87498970D01*
X163946321Y-87520731D01*
X163946452Y-87522727D01*
X163944789Y-87523838D01*
X163943245Y-87523257D01*
X163925219Y-87505263D01*
X163924089Y-87506395D01*
X163922158Y-87506914D01*
X163921119Y-87506240D01*
X163905198Y-87486553D01*
X163833729Y-87459065D01*
X163757902Y-87471023D01*
X163736957Y-87482446D01*
X163722557Y-87491886D01*
X163720560Y-87491999D01*
X163719463Y-87490326D01*
X163720242Y-87488626D01*
X163801373Y-87426373D01*
X163897199Y-87301490D01*
X163918152Y-87250904D01*
X163919739Y-87249686D01*
X163921587Y-87250451D01*
G37*
G36*
X136081848Y-87250904D02*
G01*
X136102801Y-87301490D01*
X136198627Y-87426373D01*
X136305007Y-87508001D01*
X136305772Y-87509849D01*
X136304554Y-87511436D01*
X136302879Y-87511369D01*
X136288973Y-87504268D01*
X136288588Y-87504011D01*
X136277489Y-87494582D01*
X136208043Y-87461681D01*
X136131721Y-87467891D01*
X136077509Y-87505359D01*
X136075516Y-87505521D01*
X136074959Y-87505130D01*
X136074875Y-87505046D01*
X136056876Y-87523076D01*
X136054945Y-87523595D01*
X136053530Y-87522182D01*
X136053798Y-87520552D01*
X136068219Y-87498970D01*
X136078000Y-87449801D01*
X136078000Y-87251669D01*
X136079000Y-87249937D01*
X136081000Y-87249937D01*
X136081848Y-87250904D01*
G37*
G36*
X136056755Y-86476743D02*
G01*
X136074781Y-86494737D01*
X136075911Y-86493605D01*
X136077842Y-86493086D01*
X136078881Y-86493760D01*
X136094802Y-86513447D01*
X136166271Y-86540935D01*
X136242098Y-86528977D01*
X136263043Y-86517554D01*
X136277443Y-86508114D01*
X136279440Y-86508001D01*
X136280537Y-86509674D01*
X136279758Y-86511374D01*
X136198627Y-86573627D01*
X136102801Y-86698510D01*
X136081848Y-86749096D01*
X136080261Y-86750314D01*
X136078413Y-86749549D01*
X136078000Y-86748331D01*
X136078000Y-86550199D01*
X136068219Y-86501030D01*
X136053679Y-86479269D01*
X136053548Y-86477273D01*
X136055211Y-86476162D01*
X136056755Y-86476743D01*
G37*
G36*
X163946470Y-86477818D02*
G01*
X163946202Y-86479448D01*
X163931781Y-86501030D01*
X163922000Y-86550199D01*
X163922000Y-86748331D01*
X163921000Y-86750063D01*
X163919000Y-86750063D01*
X163918152Y-86749096D01*
X163897199Y-86698510D01*
X163801373Y-86573627D01*
X163694993Y-86491999D01*
X163694228Y-86490151D01*
X163695446Y-86488564D01*
X163697121Y-86488631D01*
X163711027Y-86495732D01*
X163711412Y-86495989D01*
X163722511Y-86505418D01*
X163791957Y-86538319D01*
X163868279Y-86532109D01*
X163922491Y-86494641D01*
X163924484Y-86494479D01*
X163925041Y-86494870D01*
X163925125Y-86494954D01*
X163943124Y-86476924D01*
X163945055Y-86476405D01*
X163946470Y-86477818D01*
G37*
G36*
X139795599Y-85869910D02*
G01*
X139795989Y-85871872D01*
X139795352Y-85872784D01*
X139745675Y-85912939D01*
X139718170Y-85984403D01*
X139730082Y-86060046D01*
X139778320Y-86119723D01*
X139788868Y-86125800D01*
X139789870Y-86127531D01*
X139788872Y-86129264D01*
X139787480Y-86129495D01*
X139749801Y-86122000D01*
X136950199Y-86122000D01*
X136906295Y-86130733D01*
X136904401Y-86130090D01*
X136904011Y-86128128D01*
X136904648Y-86127216D01*
X136954325Y-86087061D01*
X136981830Y-86015597D01*
X136969918Y-85939954D01*
X136921680Y-85880277D01*
X136911132Y-85874200D01*
X136910130Y-85872469D01*
X136911128Y-85870736D01*
X136912520Y-85870505D01*
X136950199Y-85878000D01*
X139749801Y-85878000D01*
X139793705Y-85869267D01*
X139795599Y-85869910D01*
G37*
G36*
X163095599Y-85869910D02*
G01*
X163095989Y-85871872D01*
X163095352Y-85872784D01*
X163045675Y-85912939D01*
X163018170Y-85984403D01*
X163030082Y-86060046D01*
X163078320Y-86119723D01*
X163088868Y-86125800D01*
X163089870Y-86127531D01*
X163088872Y-86129264D01*
X163087480Y-86129495D01*
X163049801Y-86122000D01*
X160250199Y-86122000D01*
X160206295Y-86130733D01*
X160204401Y-86130090D01*
X160204011Y-86128128D01*
X160204648Y-86127216D01*
X160254325Y-86087061D01*
X160281830Y-86015597D01*
X160269918Y-85939954D01*
X160221680Y-85880277D01*
X160211132Y-85874200D01*
X160210130Y-85872469D01*
X160211128Y-85870736D01*
X160212520Y-85870505D01*
X160250199Y-85878000D01*
X163049801Y-85878000D01*
X163093705Y-85869267D01*
X163095599Y-85869910D01*
G37*
G36*
X163921587Y-85250451D02*
G01*
X163922000Y-85251669D01*
X163922000Y-85449801D01*
X163931781Y-85498970D01*
X163946321Y-85520731D01*
X163946452Y-85522727D01*
X163944789Y-85523838D01*
X163943245Y-85523257D01*
X163925219Y-85505263D01*
X163924089Y-85506395D01*
X163922158Y-85506914D01*
X163921119Y-85506240D01*
X163905198Y-85486553D01*
X163833729Y-85459065D01*
X163757902Y-85471023D01*
X163736957Y-85482446D01*
X163722557Y-85491886D01*
X163720560Y-85491999D01*
X163719463Y-85490326D01*
X163720242Y-85488626D01*
X163801373Y-85426373D01*
X163897199Y-85301490D01*
X163918152Y-85250904D01*
X163919739Y-85249686D01*
X163921587Y-85250451D01*
G37*
G36*
X136081848Y-85250904D02*
G01*
X136102801Y-85301490D01*
X136198627Y-85426373D01*
X136305007Y-85508001D01*
X136305772Y-85509849D01*
X136304554Y-85511436D01*
X136302879Y-85511369D01*
X136288973Y-85504268D01*
X136288588Y-85504011D01*
X136277489Y-85494582D01*
X136208043Y-85461681D01*
X136131721Y-85467891D01*
X136077509Y-85505359D01*
X136075516Y-85505521D01*
X136074959Y-85505130D01*
X136074875Y-85505046D01*
X136056876Y-85523076D01*
X136054945Y-85523595D01*
X136053530Y-85522182D01*
X136053798Y-85520552D01*
X136068219Y-85498970D01*
X136078000Y-85449801D01*
X136078000Y-85251669D01*
X136079000Y-85249937D01*
X136081000Y-85249937D01*
X136081848Y-85250904D01*
G37*
G36*
X136056755Y-84476743D02*
G01*
X136074781Y-84494737D01*
X136075911Y-84493605D01*
X136077842Y-84493086D01*
X136078881Y-84493760D01*
X136094802Y-84513447D01*
X136166271Y-84540935D01*
X136242098Y-84528977D01*
X136263043Y-84517554D01*
X136277443Y-84508114D01*
X136279440Y-84508001D01*
X136280537Y-84509674D01*
X136279758Y-84511374D01*
X136198627Y-84573627D01*
X136102801Y-84698510D01*
X136081848Y-84749096D01*
X136080261Y-84750314D01*
X136078413Y-84749549D01*
X136078000Y-84748331D01*
X136078000Y-84550199D01*
X136068219Y-84501030D01*
X136053679Y-84479269D01*
X136053548Y-84477273D01*
X136055211Y-84476162D01*
X136056755Y-84476743D01*
G37*
G36*
X163946470Y-84477818D02*
G01*
X163946202Y-84479448D01*
X163931781Y-84501030D01*
X163922000Y-84550199D01*
X163922000Y-84748331D01*
X163921000Y-84750063D01*
X163919000Y-84750063D01*
X163918152Y-84749096D01*
X163897199Y-84698510D01*
X163801373Y-84573627D01*
X163694993Y-84491999D01*
X163694228Y-84490151D01*
X163695446Y-84488564D01*
X163697121Y-84488631D01*
X163711027Y-84495732D01*
X163711412Y-84495989D01*
X163722511Y-84505418D01*
X163791957Y-84538319D01*
X163868279Y-84532109D01*
X163922491Y-84494641D01*
X163924484Y-84494479D01*
X163925041Y-84494870D01*
X163925125Y-84494954D01*
X163943124Y-84476924D01*
X163945055Y-84476405D01*
X163946470Y-84477818D01*
G37*
G36*
X139795599Y-83869910D02*
G01*
X139795989Y-83871872D01*
X139795352Y-83872784D01*
X139745675Y-83912939D01*
X139718170Y-83984403D01*
X139730082Y-84060046D01*
X139778320Y-84119723D01*
X139788868Y-84125800D01*
X139789870Y-84127531D01*
X139788872Y-84129264D01*
X139787480Y-84129495D01*
X139749801Y-84122000D01*
X136950199Y-84122000D01*
X136906295Y-84130733D01*
X136904401Y-84130090D01*
X136904011Y-84128128D01*
X136904648Y-84127216D01*
X136954325Y-84087061D01*
X136981830Y-84015597D01*
X136969918Y-83939954D01*
X136921680Y-83880277D01*
X136911132Y-83874200D01*
X136910130Y-83872469D01*
X136911128Y-83870736D01*
X136912520Y-83870505D01*
X136950199Y-83878000D01*
X139749801Y-83878000D01*
X139793705Y-83869267D01*
X139795599Y-83869910D01*
G37*
G36*
X163095599Y-83869910D02*
G01*
X163095989Y-83871872D01*
X163095352Y-83872784D01*
X163045675Y-83912939D01*
X163018170Y-83984403D01*
X163030082Y-84060046D01*
X163078320Y-84119723D01*
X163088868Y-84125800D01*
X163089870Y-84127531D01*
X163088872Y-84129264D01*
X163087480Y-84129495D01*
X163049801Y-84122000D01*
X160250199Y-84122000D01*
X160206295Y-84130733D01*
X160204401Y-84130090D01*
X160204011Y-84128128D01*
X160204648Y-84127216D01*
X160254325Y-84087061D01*
X160281830Y-84015597D01*
X160269918Y-83939954D01*
X160221680Y-83880277D01*
X160211132Y-83874200D01*
X160210130Y-83872469D01*
X160211128Y-83870736D01*
X160212520Y-83870505D01*
X160250199Y-83878000D01*
X163049801Y-83878000D01*
X163093705Y-83869267D01*
X163095599Y-83869910D01*
G37*
G36*
X163921587Y-83250451D02*
G01*
X163922000Y-83251669D01*
X163922000Y-83449801D01*
X163931781Y-83498970D01*
X163946321Y-83520731D01*
X163946452Y-83522727D01*
X163944789Y-83523838D01*
X163943245Y-83523257D01*
X163925219Y-83505263D01*
X163924089Y-83506395D01*
X163922158Y-83506914D01*
X163921119Y-83506240D01*
X163905198Y-83486553D01*
X163833729Y-83459065D01*
X163757902Y-83471023D01*
X163736957Y-83482446D01*
X163722557Y-83491886D01*
X163720560Y-83491999D01*
X163719463Y-83490326D01*
X163720242Y-83488626D01*
X163801373Y-83426373D01*
X163897199Y-83301490D01*
X163918152Y-83250904D01*
X163919739Y-83249686D01*
X163921587Y-83250451D01*
G37*
G36*
X136081848Y-83250904D02*
G01*
X136102801Y-83301490D01*
X136198627Y-83426373D01*
X136305007Y-83508001D01*
X136305772Y-83509849D01*
X136304554Y-83511436D01*
X136302879Y-83511369D01*
X136288973Y-83504268D01*
X136288588Y-83504011D01*
X136277489Y-83494582D01*
X136208043Y-83461681D01*
X136131721Y-83467891D01*
X136077509Y-83505359D01*
X136075516Y-83505521D01*
X136074959Y-83505130D01*
X136074875Y-83505046D01*
X136056876Y-83523076D01*
X136054945Y-83523595D01*
X136053530Y-83522182D01*
X136053798Y-83520552D01*
X136068219Y-83498970D01*
X136078000Y-83449801D01*
X136078000Y-83251669D01*
X136079000Y-83249937D01*
X136081000Y-83249937D01*
X136081848Y-83250904D01*
G37*
G36*
X136056755Y-82476743D02*
G01*
X136074781Y-82494737D01*
X136075911Y-82493605D01*
X136077842Y-82493086D01*
X136078881Y-82493760D01*
X136094802Y-82513447D01*
X136166271Y-82540935D01*
X136242098Y-82528977D01*
X136263043Y-82517554D01*
X136277443Y-82508114D01*
X136279440Y-82508001D01*
X136280537Y-82509674D01*
X136279758Y-82511374D01*
X136198627Y-82573627D01*
X136102801Y-82698510D01*
X136081848Y-82749096D01*
X136080261Y-82750314D01*
X136078413Y-82749549D01*
X136078000Y-82748331D01*
X136078000Y-82550199D01*
X136068219Y-82501030D01*
X136053679Y-82479269D01*
X136053548Y-82477273D01*
X136055211Y-82476162D01*
X136056755Y-82476743D01*
G37*
G36*
X163946470Y-82477818D02*
G01*
X163946202Y-82479448D01*
X163931781Y-82501030D01*
X163922000Y-82550199D01*
X163922000Y-82748331D01*
X163921000Y-82750063D01*
X163919000Y-82750063D01*
X163918152Y-82749096D01*
X163897199Y-82698510D01*
X163801373Y-82573627D01*
X163694993Y-82491999D01*
X163694228Y-82490151D01*
X163695446Y-82488564D01*
X163697121Y-82488631D01*
X163711027Y-82495732D01*
X163711412Y-82495989D01*
X163722511Y-82505418D01*
X163791957Y-82538319D01*
X163868279Y-82532109D01*
X163922491Y-82494641D01*
X163924484Y-82494479D01*
X163925041Y-82494870D01*
X163925125Y-82494954D01*
X163943124Y-82476924D01*
X163945055Y-82476405D01*
X163946470Y-82477818D01*
G37*
G36*
X139795599Y-81869910D02*
G01*
X139795989Y-81871872D01*
X139795352Y-81872784D01*
X139745675Y-81912939D01*
X139718170Y-81984403D01*
X139730082Y-82060046D01*
X139778320Y-82119723D01*
X139788868Y-82125800D01*
X139789870Y-82127531D01*
X139788872Y-82129264D01*
X139787480Y-82129495D01*
X139749801Y-82122000D01*
X136950199Y-82122000D01*
X136906295Y-82130733D01*
X136904401Y-82130090D01*
X136904011Y-82128128D01*
X136904648Y-82127216D01*
X136954325Y-82087061D01*
X136981830Y-82015597D01*
X136969918Y-81939954D01*
X136921680Y-81880277D01*
X136911132Y-81874200D01*
X136910130Y-81872469D01*
X136911128Y-81870736D01*
X136912520Y-81870505D01*
X136950199Y-81878000D01*
X139749801Y-81878000D01*
X139793705Y-81869267D01*
X139795599Y-81869910D01*
G37*
G36*
X163095599Y-81869910D02*
G01*
X163095989Y-81871872D01*
X163095352Y-81872784D01*
X163045675Y-81912939D01*
X163018170Y-81984403D01*
X163030082Y-82060046D01*
X163078320Y-82119723D01*
X163088868Y-82125800D01*
X163089870Y-82127531D01*
X163088872Y-82129264D01*
X163087480Y-82129495D01*
X163049801Y-82122000D01*
X160250199Y-82122000D01*
X160206295Y-82130733D01*
X160204401Y-82130090D01*
X160204011Y-82128128D01*
X160204648Y-82127216D01*
X160254325Y-82087061D01*
X160281830Y-82015597D01*
X160269918Y-81939954D01*
X160221680Y-81880277D01*
X160211132Y-81874200D01*
X160210130Y-81872469D01*
X160211128Y-81870736D01*
X160212520Y-81870505D01*
X160250199Y-81878000D01*
X163049801Y-81878000D01*
X163093705Y-81869267D01*
X163095599Y-81869910D01*
G37*
G36*
X163921587Y-81250451D02*
G01*
X163922000Y-81251669D01*
X163922000Y-81449801D01*
X163931781Y-81498970D01*
X163946321Y-81520731D01*
X163946452Y-81522727D01*
X163944789Y-81523838D01*
X163943245Y-81523257D01*
X163925219Y-81505263D01*
X163924089Y-81506395D01*
X163922158Y-81506914D01*
X163921119Y-81506240D01*
X163905198Y-81486553D01*
X163833729Y-81459065D01*
X163757902Y-81471023D01*
X163736957Y-81482446D01*
X163722557Y-81491886D01*
X163720560Y-81491999D01*
X163719463Y-81490326D01*
X163720242Y-81488626D01*
X163801373Y-81426373D01*
X163897199Y-81301490D01*
X163918152Y-81250904D01*
X163919739Y-81249686D01*
X163921587Y-81250451D01*
G37*
G36*
X136081848Y-81250904D02*
G01*
X136102801Y-81301490D01*
X136198627Y-81426373D01*
X136305007Y-81508001D01*
X136305772Y-81509849D01*
X136304554Y-81511436D01*
X136302879Y-81511369D01*
X136288973Y-81504268D01*
X136288588Y-81504011D01*
X136277489Y-81494582D01*
X136208043Y-81461681D01*
X136131721Y-81467891D01*
X136077509Y-81505359D01*
X136075516Y-81505521D01*
X136074959Y-81505130D01*
X136074875Y-81505046D01*
X136056876Y-81523076D01*
X136054945Y-81523595D01*
X136053530Y-81522182D01*
X136053798Y-81520552D01*
X136068219Y-81498970D01*
X136078000Y-81449801D01*
X136078000Y-81251669D01*
X136079000Y-81249937D01*
X136081000Y-81249937D01*
X136081848Y-81250904D01*
G37*
G36*
X136056755Y-80476743D02*
G01*
X136074781Y-80494737D01*
X136075911Y-80493605D01*
X136077842Y-80493086D01*
X136078881Y-80493760D01*
X136094802Y-80513447D01*
X136166271Y-80540935D01*
X136242098Y-80528977D01*
X136263043Y-80517554D01*
X136277443Y-80508114D01*
X136279440Y-80508001D01*
X136280537Y-80509674D01*
X136279758Y-80511374D01*
X136198627Y-80573627D01*
X136102801Y-80698510D01*
X136081848Y-80749096D01*
X136080261Y-80750314D01*
X136078413Y-80749549D01*
X136078000Y-80748331D01*
X136078000Y-80550199D01*
X136068219Y-80501030D01*
X136053679Y-80479269D01*
X136053548Y-80477273D01*
X136055211Y-80476162D01*
X136056755Y-80476743D01*
G37*
G36*
X163946470Y-80477818D02*
G01*
X163946202Y-80479448D01*
X163931781Y-80501030D01*
X163922000Y-80550199D01*
X163922000Y-80748331D01*
X163921000Y-80750063D01*
X163919000Y-80750063D01*
X163918152Y-80749096D01*
X163897199Y-80698510D01*
X163801373Y-80573627D01*
X163694993Y-80491999D01*
X163694228Y-80490151D01*
X163695446Y-80488564D01*
X163697121Y-80488631D01*
X163711027Y-80495732D01*
X163711412Y-80495989D01*
X163722511Y-80505418D01*
X163791957Y-80538319D01*
X163868279Y-80532109D01*
X163922491Y-80494641D01*
X163924484Y-80494479D01*
X163925041Y-80494870D01*
X163925125Y-80494954D01*
X163943124Y-80476924D01*
X163945055Y-80476405D01*
X163946470Y-80477818D01*
G37*
G36*
X139795599Y-79869910D02*
G01*
X139795989Y-79871872D01*
X139795352Y-79872784D01*
X139745675Y-79912939D01*
X139718170Y-79984403D01*
X139730082Y-80060046D01*
X139778320Y-80119723D01*
X139788868Y-80125800D01*
X139789870Y-80127531D01*
X139788872Y-80129264D01*
X139787480Y-80129495D01*
X139749801Y-80122000D01*
X136950199Y-80122000D01*
X136906295Y-80130733D01*
X136904401Y-80130090D01*
X136904011Y-80128128D01*
X136904648Y-80127216D01*
X136954325Y-80087061D01*
X136981830Y-80015597D01*
X136969918Y-79939954D01*
X136921680Y-79880277D01*
X136911132Y-79874200D01*
X136910130Y-79872469D01*
X136911128Y-79870736D01*
X136912520Y-79870505D01*
X136950199Y-79878000D01*
X139749801Y-79878000D01*
X139793705Y-79869267D01*
X139795599Y-79869910D01*
G37*
G36*
X163095599Y-79869910D02*
G01*
X163095989Y-79871872D01*
X163095352Y-79872784D01*
X163045675Y-79912939D01*
X163018170Y-79984403D01*
X163030082Y-80060046D01*
X163078320Y-80119723D01*
X163088868Y-80125800D01*
X163089870Y-80127531D01*
X163088872Y-80129264D01*
X163087480Y-80129495D01*
X163049801Y-80122000D01*
X160250199Y-80122000D01*
X160206295Y-80130733D01*
X160204401Y-80130090D01*
X160204011Y-80128128D01*
X160204648Y-80127216D01*
X160254325Y-80087061D01*
X160281830Y-80015597D01*
X160269918Y-79939954D01*
X160221680Y-79880277D01*
X160211132Y-79874200D01*
X160210130Y-79872469D01*
X160211128Y-79870736D01*
X160212520Y-79870505D01*
X160250199Y-79878000D01*
X163049801Y-79878000D01*
X163093705Y-79869267D01*
X163095599Y-79869910D01*
G37*
G36*
X163921587Y-79250451D02*
G01*
X163922000Y-79251669D01*
X163922000Y-79449801D01*
X163931781Y-79498970D01*
X163946321Y-79520731D01*
X163946452Y-79522727D01*
X163944789Y-79523838D01*
X163943245Y-79523257D01*
X163925219Y-79505263D01*
X163924089Y-79506395D01*
X163922158Y-79506914D01*
X163921119Y-79506240D01*
X163905198Y-79486553D01*
X163833729Y-79459065D01*
X163757902Y-79471023D01*
X163736957Y-79482446D01*
X163722557Y-79491886D01*
X163720560Y-79491999D01*
X163719463Y-79490326D01*
X163720242Y-79488626D01*
X163801373Y-79426373D01*
X163897199Y-79301490D01*
X163918152Y-79250904D01*
X163919739Y-79249686D01*
X163921587Y-79250451D01*
G37*
G36*
X136081848Y-79250904D02*
G01*
X136102801Y-79301490D01*
X136198627Y-79426373D01*
X136305007Y-79508001D01*
X136305772Y-79509849D01*
X136304554Y-79511436D01*
X136302879Y-79511369D01*
X136288973Y-79504268D01*
X136288588Y-79504011D01*
X136277489Y-79494582D01*
X136208043Y-79461681D01*
X136131721Y-79467891D01*
X136077509Y-79505359D01*
X136075516Y-79505521D01*
X136074959Y-79505130D01*
X136074875Y-79505046D01*
X136056876Y-79523076D01*
X136054945Y-79523595D01*
X136053530Y-79522182D01*
X136053798Y-79520552D01*
X136068219Y-79498970D01*
X136078000Y-79449801D01*
X136078000Y-79251669D01*
X136079000Y-79249937D01*
X136081000Y-79249937D01*
X136081848Y-79250904D01*
G37*
G36*
X136056755Y-78476743D02*
G01*
X136074781Y-78494737D01*
X136075911Y-78493605D01*
X136077842Y-78493086D01*
X136078881Y-78493760D01*
X136094802Y-78513447D01*
X136166271Y-78540935D01*
X136242098Y-78528977D01*
X136263043Y-78517554D01*
X136277443Y-78508114D01*
X136279440Y-78508001D01*
X136280537Y-78509674D01*
X136279758Y-78511374D01*
X136198627Y-78573627D01*
X136102801Y-78698510D01*
X136081848Y-78749096D01*
X136080261Y-78750314D01*
X136078413Y-78749549D01*
X136078000Y-78748331D01*
X136078000Y-78550199D01*
X136068219Y-78501030D01*
X136053679Y-78479269D01*
X136053548Y-78477273D01*
X136055211Y-78476162D01*
X136056755Y-78476743D01*
G37*
G36*
X163946470Y-78477818D02*
G01*
X163946202Y-78479448D01*
X163931781Y-78501030D01*
X163922000Y-78550199D01*
X163922000Y-78748331D01*
X163921000Y-78750063D01*
X163919000Y-78750063D01*
X163918152Y-78749096D01*
X163897199Y-78698510D01*
X163801373Y-78573627D01*
X163694993Y-78491999D01*
X163694228Y-78490151D01*
X163695446Y-78488564D01*
X163697121Y-78488631D01*
X163711027Y-78495732D01*
X163711412Y-78495989D01*
X163722511Y-78505418D01*
X163791957Y-78538319D01*
X163868279Y-78532109D01*
X163922491Y-78494641D01*
X163924484Y-78494479D01*
X163925041Y-78494870D01*
X163925125Y-78494954D01*
X163943124Y-78476924D01*
X163945055Y-78476405D01*
X163946470Y-78477818D01*
G37*
G36*
X139795599Y-77869910D02*
G01*
X139795989Y-77871872D01*
X139795352Y-77872784D01*
X139745675Y-77912939D01*
X139718170Y-77984403D01*
X139730082Y-78060046D01*
X139778320Y-78119723D01*
X139788868Y-78125800D01*
X139789870Y-78127531D01*
X139788872Y-78129264D01*
X139787480Y-78129495D01*
X139749801Y-78122000D01*
X136950199Y-78122000D01*
X136906295Y-78130733D01*
X136904401Y-78130090D01*
X136904011Y-78128128D01*
X136904648Y-78127216D01*
X136954325Y-78087061D01*
X136981830Y-78015597D01*
X136969918Y-77939954D01*
X136921680Y-77880277D01*
X136911132Y-77874200D01*
X136910130Y-77872469D01*
X136911128Y-77870736D01*
X136912520Y-77870505D01*
X136950199Y-77878000D01*
X139749801Y-77878000D01*
X139793705Y-77869267D01*
X139795599Y-77869910D01*
G37*
G36*
X163095599Y-77869910D02*
G01*
X163095989Y-77871872D01*
X163095352Y-77872784D01*
X163045675Y-77912939D01*
X163018170Y-77984403D01*
X163030082Y-78060046D01*
X163078320Y-78119723D01*
X163088868Y-78125800D01*
X163089870Y-78127531D01*
X163088872Y-78129264D01*
X163087480Y-78129495D01*
X163049801Y-78122000D01*
X160250199Y-78122000D01*
X160206295Y-78130733D01*
X160204401Y-78130090D01*
X160204011Y-78128128D01*
X160204648Y-78127216D01*
X160254325Y-78087061D01*
X160281830Y-78015597D01*
X160269918Y-77939954D01*
X160221680Y-77880277D01*
X160211132Y-77874200D01*
X160210130Y-77872469D01*
X160211128Y-77870736D01*
X160212520Y-77870505D01*
X160250199Y-77878000D01*
X163049801Y-77878000D01*
X163093705Y-77869267D01*
X163095599Y-77869910D01*
G37*
G36*
X163921587Y-77250451D02*
G01*
X163922000Y-77251669D01*
X163922000Y-77449801D01*
X163931781Y-77498970D01*
X163946321Y-77520731D01*
X163946452Y-77522727D01*
X163944789Y-77523838D01*
X163943245Y-77523257D01*
X163925219Y-77505263D01*
X163924089Y-77506395D01*
X163922158Y-77506914D01*
X163921119Y-77506240D01*
X163905198Y-77486553D01*
X163833729Y-77459065D01*
X163757902Y-77471023D01*
X163736957Y-77482446D01*
X163722557Y-77491886D01*
X163720560Y-77491999D01*
X163719463Y-77490326D01*
X163720242Y-77488626D01*
X163801373Y-77426373D01*
X163897199Y-77301490D01*
X163918152Y-77250904D01*
X163919739Y-77249686D01*
X163921587Y-77250451D01*
G37*
G36*
X136081848Y-77250904D02*
G01*
X136102801Y-77301490D01*
X136198627Y-77426373D01*
X136305007Y-77508001D01*
X136305772Y-77509849D01*
X136304554Y-77511436D01*
X136302879Y-77511369D01*
X136288973Y-77504268D01*
X136288588Y-77504011D01*
X136277489Y-77494582D01*
X136208043Y-77461681D01*
X136131721Y-77467891D01*
X136077509Y-77505359D01*
X136075516Y-77505521D01*
X136074959Y-77505130D01*
X136074875Y-77505046D01*
X136056876Y-77523076D01*
X136054945Y-77523595D01*
X136053530Y-77522182D01*
X136053798Y-77520552D01*
X136068219Y-77498970D01*
X136078000Y-77449801D01*
X136078000Y-77251669D01*
X136079000Y-77249937D01*
X136081000Y-77249937D01*
X136081848Y-77250904D01*
G37*
G36*
X102544790Y-76553305D02*
G01*
X102545635Y-76555117D01*
X102544842Y-76556543D01*
X102517969Y-76576683D01*
X102470499Y-76637114D01*
X102459622Y-76713064D01*
X102468111Y-76747695D01*
X102485736Y-76794339D01*
X102485413Y-76796313D01*
X102483542Y-76797020D01*
X102482017Y-76795811D01*
X102457247Y-76736010D01*
X102373339Y-76626658D01*
X102347181Y-76606587D01*
X102346415Y-76604739D01*
X102347633Y-76603152D01*
X102348398Y-76603000D01*
X102374868Y-76603000D01*
X102459843Y-76591813D01*
X102542798Y-76553130D01*
X102544790Y-76553305D01*
G37*
G36*
X136056755Y-76476743D02*
G01*
X136074781Y-76494737D01*
X136075911Y-76493605D01*
X136077842Y-76493086D01*
X136078881Y-76493760D01*
X136094802Y-76513447D01*
X136166271Y-76540935D01*
X136242098Y-76528977D01*
X136263043Y-76517554D01*
X136277443Y-76508114D01*
X136279440Y-76508001D01*
X136280537Y-76509674D01*
X136279758Y-76511374D01*
X136198627Y-76573627D01*
X136102801Y-76698510D01*
X136081848Y-76749096D01*
X136080261Y-76750314D01*
X136078413Y-76749549D01*
X136078000Y-76748331D01*
X136078000Y-76550199D01*
X136068219Y-76501030D01*
X136053679Y-76479269D01*
X136053548Y-76477273D01*
X136055211Y-76476162D01*
X136056755Y-76476743D01*
G37*
G36*
X163946470Y-76477818D02*
G01*
X163946202Y-76479448D01*
X163931781Y-76501030D01*
X163922000Y-76550199D01*
X163922000Y-76748331D01*
X163921000Y-76750063D01*
X163919000Y-76750063D01*
X163918152Y-76749096D01*
X163897199Y-76698510D01*
X163801373Y-76573627D01*
X163694993Y-76491999D01*
X163694228Y-76490151D01*
X163695446Y-76488564D01*
X163697121Y-76488631D01*
X163711027Y-76495732D01*
X163711412Y-76495989D01*
X163722511Y-76505418D01*
X163791957Y-76538319D01*
X163868279Y-76532109D01*
X163922491Y-76494641D01*
X163924484Y-76494479D01*
X163925041Y-76494870D01*
X163925125Y-76494954D01*
X163943124Y-76476924D01*
X163945055Y-76476405D01*
X163946470Y-76477818D01*
G37*
G36*
X139795599Y-75869910D02*
G01*
X139795989Y-75871872D01*
X139795352Y-75872784D01*
X139745675Y-75912939D01*
X139718170Y-75984403D01*
X139730082Y-76060046D01*
X139778320Y-76119723D01*
X139788868Y-76125800D01*
X139789870Y-76127531D01*
X139788872Y-76129264D01*
X139787480Y-76129495D01*
X139749801Y-76122000D01*
X136950199Y-76122000D01*
X136906295Y-76130733D01*
X136904401Y-76130090D01*
X136904011Y-76128128D01*
X136904648Y-76127216D01*
X136954325Y-76087061D01*
X136981830Y-76015597D01*
X136969918Y-75939954D01*
X136921680Y-75880277D01*
X136911132Y-75874200D01*
X136910130Y-75872469D01*
X136911128Y-75870736D01*
X136912520Y-75870505D01*
X136950199Y-75878000D01*
X139749801Y-75878000D01*
X139793705Y-75869267D01*
X139795599Y-75869910D01*
G37*
G36*
X163095599Y-75869910D02*
G01*
X163095989Y-75871872D01*
X163095352Y-75872784D01*
X163045675Y-75912939D01*
X163018170Y-75984403D01*
X163030082Y-76060046D01*
X163078320Y-76119723D01*
X163088868Y-76125800D01*
X163089870Y-76127531D01*
X163088872Y-76129264D01*
X163087480Y-76129495D01*
X163049801Y-76122000D01*
X160250199Y-76122000D01*
X160206295Y-76130733D01*
X160204401Y-76130090D01*
X160204011Y-76128128D01*
X160204648Y-76127216D01*
X160254325Y-76087061D01*
X160281830Y-76015597D01*
X160269918Y-75939954D01*
X160221680Y-75880277D01*
X160211132Y-75874200D01*
X160210130Y-75872469D01*
X160211128Y-75870736D01*
X160212520Y-75870505D01*
X160250199Y-75878000D01*
X163049801Y-75878000D01*
X163093705Y-75869267D01*
X163095599Y-75869910D01*
G37*
G36*
X163921587Y-75250451D02*
G01*
X163922000Y-75251669D01*
X163922000Y-75449801D01*
X163931781Y-75498970D01*
X163946321Y-75520731D01*
X163946452Y-75522727D01*
X163944789Y-75523838D01*
X163943245Y-75523257D01*
X163925219Y-75505263D01*
X163924089Y-75506395D01*
X163922158Y-75506914D01*
X163921119Y-75506240D01*
X163905198Y-75486553D01*
X163833729Y-75459065D01*
X163757902Y-75471023D01*
X163736957Y-75482446D01*
X163722557Y-75491886D01*
X163720560Y-75491999D01*
X163719463Y-75490326D01*
X163720242Y-75488626D01*
X163801373Y-75426373D01*
X163897199Y-75301490D01*
X163918152Y-75250904D01*
X163919739Y-75249686D01*
X163921587Y-75250451D01*
G37*
G36*
X136081848Y-75250904D02*
G01*
X136102801Y-75301490D01*
X136198627Y-75426373D01*
X136305007Y-75508001D01*
X136305772Y-75509849D01*
X136304554Y-75511436D01*
X136302879Y-75511369D01*
X136288973Y-75504268D01*
X136288588Y-75504011D01*
X136277489Y-75494582D01*
X136208043Y-75461681D01*
X136131721Y-75467891D01*
X136077509Y-75505359D01*
X136075516Y-75505521D01*
X136074959Y-75505130D01*
X136074875Y-75505046D01*
X136056876Y-75523076D01*
X136054945Y-75523595D01*
X136053530Y-75522182D01*
X136053798Y-75520552D01*
X136068219Y-75498970D01*
X136078000Y-75449801D01*
X136078000Y-75251669D01*
X136079000Y-75249937D01*
X136081000Y-75249937D01*
X136081848Y-75250904D01*
G37*
G36*
X136056755Y-74476743D02*
G01*
X136074781Y-74494737D01*
X136075911Y-74493605D01*
X136077842Y-74493086D01*
X136078881Y-74493760D01*
X136094802Y-74513447D01*
X136166271Y-74540935D01*
X136242098Y-74528977D01*
X136263043Y-74517554D01*
X136277443Y-74508114D01*
X136279440Y-74508001D01*
X136280537Y-74509674D01*
X136279758Y-74511374D01*
X136198627Y-74573627D01*
X136102801Y-74698510D01*
X136081848Y-74749096D01*
X136080261Y-74750314D01*
X136078413Y-74749549D01*
X136078000Y-74748331D01*
X136078000Y-74550199D01*
X136068219Y-74501030D01*
X136053679Y-74479269D01*
X136053548Y-74477273D01*
X136055211Y-74476162D01*
X136056755Y-74476743D01*
G37*
G36*
X163946470Y-74477818D02*
G01*
X163946202Y-74479448D01*
X163931781Y-74501030D01*
X163922000Y-74550199D01*
X163922000Y-74748331D01*
X163921000Y-74750063D01*
X163919000Y-74750063D01*
X163918152Y-74749096D01*
X163897199Y-74698510D01*
X163801373Y-74573627D01*
X163694993Y-74491999D01*
X163694228Y-74490151D01*
X163695446Y-74488564D01*
X163697121Y-74488631D01*
X163711027Y-74495732D01*
X163711412Y-74495989D01*
X163722511Y-74505418D01*
X163791957Y-74538319D01*
X163868279Y-74532109D01*
X163922491Y-74494641D01*
X163924484Y-74494479D01*
X163925041Y-74494870D01*
X163925125Y-74494954D01*
X163943124Y-74476924D01*
X163945055Y-74476405D01*
X163946470Y-74477818D01*
G37*
G36*
X139795599Y-73869910D02*
G01*
X139795989Y-73871872D01*
X139795352Y-73872784D01*
X139745675Y-73912939D01*
X139718170Y-73984403D01*
X139730082Y-74060046D01*
X139778320Y-74119723D01*
X139788868Y-74125800D01*
X139789870Y-74127531D01*
X139788872Y-74129264D01*
X139787480Y-74129495D01*
X139749801Y-74122000D01*
X136950199Y-74122000D01*
X136906295Y-74130733D01*
X136904401Y-74130090D01*
X136904011Y-74128128D01*
X136904648Y-74127216D01*
X136954325Y-74087061D01*
X136981830Y-74015597D01*
X136969918Y-73939954D01*
X136921680Y-73880277D01*
X136911132Y-73874200D01*
X136910130Y-73872469D01*
X136911128Y-73870736D01*
X136912520Y-73870505D01*
X136950199Y-73878000D01*
X139749801Y-73878000D01*
X139793705Y-73869267D01*
X139795599Y-73869910D01*
G37*
G36*
X163095599Y-73869910D02*
G01*
X163095989Y-73871872D01*
X163095352Y-73872784D01*
X163045675Y-73912939D01*
X163018170Y-73984403D01*
X163030082Y-74060046D01*
X163078320Y-74119723D01*
X163088868Y-74125800D01*
X163089870Y-74127531D01*
X163088872Y-74129264D01*
X163087480Y-74129495D01*
X163049801Y-74122000D01*
X160250199Y-74122000D01*
X160206295Y-74130733D01*
X160204401Y-74130090D01*
X160204011Y-74128128D01*
X160204648Y-74127216D01*
X160254325Y-74087061D01*
X160281830Y-74015597D01*
X160269918Y-73939954D01*
X160221680Y-73880277D01*
X160211132Y-73874200D01*
X160210130Y-73872469D01*
X160211128Y-73870736D01*
X160212520Y-73870505D01*
X160250199Y-73878000D01*
X163049801Y-73878000D01*
X163093705Y-73869267D01*
X163095599Y-73869910D01*
G37*
G36*
X163921587Y-73250451D02*
G01*
X163922000Y-73251669D01*
X163922000Y-73449801D01*
X163931781Y-73498970D01*
X163946321Y-73520731D01*
X163946452Y-73522727D01*
X163944789Y-73523838D01*
X163943245Y-73523257D01*
X163925219Y-73505263D01*
X163924089Y-73506395D01*
X163922158Y-73506914D01*
X163921119Y-73506240D01*
X163905198Y-73486553D01*
X163833729Y-73459065D01*
X163757902Y-73471023D01*
X163736957Y-73482446D01*
X163722557Y-73491886D01*
X163720560Y-73491999D01*
X163719463Y-73490326D01*
X163720242Y-73488626D01*
X163801373Y-73426373D01*
X163897199Y-73301490D01*
X163918152Y-73250904D01*
X163919739Y-73249686D01*
X163921587Y-73250451D01*
G37*
G36*
X136081848Y-73250904D02*
G01*
X136102801Y-73301490D01*
X136198627Y-73426373D01*
X136305007Y-73508001D01*
X136305772Y-73509849D01*
X136304554Y-73511436D01*
X136302879Y-73511369D01*
X136288973Y-73504268D01*
X136288588Y-73504011D01*
X136277489Y-73494582D01*
X136208043Y-73461681D01*
X136131721Y-73467891D01*
X136077509Y-73505359D01*
X136075516Y-73505521D01*
X136074959Y-73505130D01*
X136074875Y-73505046D01*
X136056876Y-73523076D01*
X136054945Y-73523595D01*
X136053530Y-73522182D01*
X136053798Y-73520552D01*
X136068219Y-73498970D01*
X136078000Y-73449801D01*
X136078000Y-73251669D01*
X136079000Y-73249937D01*
X136081000Y-73249937D01*
X136081848Y-73250904D01*
G37*
G36*
X178547587Y-73009432D02*
G01*
X178582660Y-73055140D01*
X178692010Y-73139047D01*
X178786113Y-73178026D01*
X178787331Y-73179613D01*
X178786566Y-73181461D01*
X178784840Y-73181809D01*
X178745167Y-73171401D01*
X178745110Y-73171620D01*
X178743703Y-73173042D01*
X178742708Y-73173058D01*
X178692124Y-73160915D01*
X178618705Y-73182665D01*
X178565985Y-73238222D01*
X178547938Y-73309285D01*
X178546543Y-73310718D01*
X178544604Y-73310226D01*
X178544000Y-73308793D01*
X178544000Y-73010650D01*
X178545000Y-73008918D01*
X178547000Y-73008918D01*
X178547587Y-73009432D01*
G37*
G36*
X110937862Y-72747931D02*
G01*
X110937896Y-72749538D01*
X110890008Y-72865148D01*
X110872017Y-73001800D01*
X110890008Y-73138452D01*
X110935697Y-73248754D01*
X110935436Y-73250737D01*
X110933588Y-73251502D01*
X110932189Y-73250635D01*
X110922960Y-73236902D01*
X110865053Y-73186386D01*
X110789910Y-73171644D01*
X110717466Y-73196447D01*
X110676271Y-73243670D01*
X110674903Y-73244139D01*
X110670474Y-73250302D01*
X110670357Y-73250450D01*
X110666973Y-73254329D01*
X110666068Y-73256362D01*
X110665865Y-73256716D01*
X110664478Y-73258647D01*
X110662656Y-73259470D01*
X110661031Y-73258303D01*
X110661006Y-73256715D01*
X110709992Y-73138452D01*
X110727983Y-73001800D01*
X110709992Y-72865148D01*
X110663202Y-72752188D01*
X110663463Y-72750205D01*
X110665311Y-72749440D01*
X110666698Y-72750290D01*
X110677718Y-72766324D01*
X110736153Y-72816233D01*
X110811446Y-72830188D01*
X110883625Y-72804627D01*
X110918915Y-72763308D01*
X110920800Y-72762640D01*
X110921586Y-72762971D01*
X110922951Y-72763930D01*
X110934412Y-72747623D01*
X110936226Y-72746781D01*
X110937862Y-72747931D01*
G37*
G36*
X136056755Y-72476743D02*
G01*
X136074781Y-72494737D01*
X136075911Y-72493605D01*
X136077842Y-72493086D01*
X136078881Y-72493760D01*
X136094802Y-72513447D01*
X136166271Y-72540935D01*
X136242098Y-72528977D01*
X136263043Y-72517554D01*
X136277443Y-72508114D01*
X136279440Y-72508001D01*
X136280537Y-72509674D01*
X136279758Y-72511374D01*
X136198627Y-72573627D01*
X136102801Y-72698510D01*
X136081848Y-72749096D01*
X136080261Y-72750314D01*
X136078413Y-72749549D01*
X136078000Y-72748331D01*
X136078000Y-72550199D01*
X136068219Y-72501030D01*
X136053679Y-72479269D01*
X136053548Y-72477273D01*
X136055211Y-72476162D01*
X136056755Y-72476743D01*
G37*
G36*
X163946470Y-72477818D02*
G01*
X163946202Y-72479448D01*
X163931781Y-72501030D01*
X163922000Y-72550199D01*
X163922000Y-72748331D01*
X163921000Y-72750063D01*
X163919000Y-72750063D01*
X163918152Y-72749096D01*
X163897199Y-72698510D01*
X163801373Y-72573627D01*
X163694993Y-72491999D01*
X163694228Y-72490151D01*
X163695446Y-72488564D01*
X163697121Y-72488631D01*
X163711027Y-72495732D01*
X163711412Y-72495989D01*
X163722511Y-72505418D01*
X163791957Y-72538319D01*
X163868279Y-72532109D01*
X163922491Y-72494641D01*
X163924484Y-72494479D01*
X163925041Y-72494870D01*
X163925125Y-72494954D01*
X163943124Y-72476924D01*
X163945055Y-72476405D01*
X163946470Y-72477818D01*
G37*
G36*
X109859220Y-72400124D02*
G01*
X109936010Y-72459047D01*
X110034763Y-72499952D01*
X110035981Y-72501539D01*
X110035216Y-72503387D01*
X110034763Y-72503648D01*
X109936010Y-72544553D01*
X109850097Y-72610476D01*
X109848114Y-72610737D01*
X109846896Y-72609150D01*
X109847219Y-72607774D01*
X109886289Y-72549630D01*
X109891498Y-72473235D01*
X109857715Y-72404277D01*
X109856573Y-72403110D01*
X109856076Y-72401173D01*
X109857505Y-72399774D01*
X109859220Y-72400124D01*
G37*
G36*
X111059220Y-72400124D02*
G01*
X111136010Y-72459047D01*
X111234763Y-72499952D01*
X111235981Y-72501539D01*
X111235216Y-72503387D01*
X111234763Y-72503648D01*
X111136010Y-72544553D01*
X111050097Y-72610476D01*
X111048114Y-72610737D01*
X111046896Y-72609150D01*
X111047219Y-72607774D01*
X111086289Y-72549630D01*
X111091498Y-72473235D01*
X111057715Y-72404277D01*
X111056573Y-72403110D01*
X111056076Y-72401173D01*
X111057505Y-72399774D01*
X111059220Y-72400124D01*
G37*
G36*
X110554406Y-72393451D02*
G01*
X110554071Y-72394845D01*
X110514373Y-72452606D01*
X110508366Y-72528944D01*
X110541419Y-72598241D01*
X110544209Y-72601090D01*
X110544706Y-72603027D01*
X110543277Y-72604426D01*
X110541562Y-72604076D01*
X110463990Y-72544553D01*
X110365237Y-72503648D01*
X110364019Y-72502061D01*
X110364784Y-72500213D01*
X110365237Y-72499952D01*
X110463990Y-72459047D01*
X110551205Y-72392125D01*
X110553188Y-72391864D01*
X110554406Y-72393451D01*
G37*
G36*
X111754406Y-72393451D02*
G01*
X111754071Y-72394845D01*
X111714373Y-72452606D01*
X111708366Y-72528944D01*
X111741419Y-72598241D01*
X111744209Y-72601090D01*
X111744706Y-72603027D01*
X111743277Y-72604426D01*
X111741562Y-72604076D01*
X111663990Y-72544553D01*
X111565237Y-72503648D01*
X111564019Y-72502061D01*
X111564784Y-72500213D01*
X111565237Y-72499952D01*
X111663990Y-72459047D01*
X111751205Y-72392125D01*
X111753188Y-72391864D01*
X111754406Y-72393451D01*
G37*
G36*
X106551063Y-72064392D02*
G01*
X106578518Y-72105482D01*
X106620030Y-72133219D01*
X106669199Y-72143000D01*
X107788277Y-72143000D01*
X107790009Y-72144000D01*
X107790009Y-72146000D01*
X107788795Y-72146932D01*
X107714316Y-72166889D01*
X107660172Y-72221033D01*
X107640353Y-72294998D01*
X107660196Y-72369055D01*
X107687949Y-72402335D01*
X107688290Y-72404306D01*
X107686754Y-72405587D01*
X107685195Y-72405203D01*
X107592990Y-72334451D01*
X107453593Y-72276712D01*
X107303868Y-72257000D01*
X106407778Y-72257000D01*
X106406046Y-72256000D01*
X106406046Y-72254000D01*
X106407260Y-72253068D01*
X106481744Y-72233110D01*
X106535887Y-72178967D01*
X106555721Y-72104945D01*
X106547444Y-72065918D01*
X106548062Y-72064016D01*
X106550019Y-72063601D01*
X106551063Y-72064392D01*
G37*
G36*
X178547932Y-72055792D02*
G01*
X178567889Y-72130272D01*
X178622033Y-72184415D01*
X178696022Y-72204241D01*
X178764093Y-72187710D01*
X178770718Y-72184290D01*
X178771168Y-72184122D01*
X178790344Y-72179518D01*
X178792262Y-72180086D01*
X178792729Y-72182031D01*
X178791576Y-72183311D01*
X178692010Y-72224553D01*
X178582660Y-72308460D01*
X178547587Y-72354168D01*
X178545739Y-72354933D01*
X178544152Y-72353715D01*
X178544000Y-72352950D01*
X178544000Y-72056310D01*
X178545000Y-72054578D01*
X178547000Y-72054578D01*
X178547932Y-72055792D01*
G37*
G36*
X110937862Y-71747931D02*
G01*
X110937896Y-71749538D01*
X110890008Y-71865148D01*
X110872017Y-72001800D01*
X110890008Y-72138452D01*
X110935697Y-72248754D01*
X110935436Y-72250737D01*
X110933588Y-72251502D01*
X110932189Y-72250635D01*
X110922960Y-72236902D01*
X110865053Y-72186386D01*
X110789910Y-72171644D01*
X110717466Y-72196447D01*
X110676271Y-72243670D01*
X110674903Y-72244139D01*
X110670474Y-72250302D01*
X110670357Y-72250450D01*
X110666973Y-72254329D01*
X110666068Y-72256362D01*
X110665865Y-72256716D01*
X110664478Y-72258647D01*
X110662656Y-72259470D01*
X110661031Y-72258303D01*
X110661006Y-72256715D01*
X110709992Y-72138452D01*
X110727983Y-72001800D01*
X110709992Y-71865148D01*
X110663202Y-71752188D01*
X110663463Y-71750205D01*
X110665311Y-71749440D01*
X110666698Y-71750290D01*
X110677718Y-71766324D01*
X110736153Y-71816233D01*
X110811446Y-71830188D01*
X110883625Y-71804627D01*
X110918915Y-71763308D01*
X110920800Y-71762640D01*
X110921586Y-71762971D01*
X110922951Y-71763930D01*
X110934412Y-71747623D01*
X110936226Y-71746781D01*
X110937862Y-71747931D01*
G37*
G36*
X139795599Y-71869910D02*
G01*
X139795989Y-71871872D01*
X139795352Y-71872784D01*
X139745675Y-71912939D01*
X139718170Y-71984403D01*
X139730082Y-72060046D01*
X139778320Y-72119723D01*
X139788868Y-72125800D01*
X139789870Y-72127531D01*
X139788872Y-72129264D01*
X139787480Y-72129495D01*
X139749801Y-72122000D01*
X136950199Y-72122000D01*
X136906295Y-72130733D01*
X136904401Y-72130090D01*
X136904011Y-72128128D01*
X136904648Y-72127216D01*
X136954325Y-72087061D01*
X136981830Y-72015597D01*
X136969918Y-71939954D01*
X136921680Y-71880277D01*
X136911132Y-71874200D01*
X136910130Y-71872469D01*
X136911128Y-71870736D01*
X136912520Y-71870505D01*
X136950199Y-71878000D01*
X139749801Y-71878000D01*
X139793705Y-71869267D01*
X139795599Y-71869910D01*
G37*
G36*
X163095599Y-71869910D02*
G01*
X163095989Y-71871872D01*
X163095352Y-71872784D01*
X163045675Y-71912939D01*
X163018170Y-71984403D01*
X163030082Y-72060046D01*
X163078320Y-72119723D01*
X163088868Y-72125800D01*
X163089870Y-72127531D01*
X163088872Y-72129264D01*
X163087480Y-72129495D01*
X163049801Y-72122000D01*
X160250199Y-72122000D01*
X160206295Y-72130733D01*
X160204401Y-72130090D01*
X160204011Y-72128128D01*
X160204648Y-72127216D01*
X160254325Y-72087061D01*
X160281830Y-72015597D01*
X160269918Y-71939954D01*
X160221680Y-71880277D01*
X160211132Y-71874200D01*
X160210130Y-71872469D01*
X160211128Y-71870736D01*
X160212520Y-71870505D01*
X160250199Y-71878000D01*
X163049801Y-71878000D01*
X163093705Y-71869267D01*
X163095599Y-71869910D01*
G37*
G36*
X106540904Y-71705455D02*
G01*
X106541000Y-71706068D01*
X106541000Y-71977610D01*
X106540000Y-71979342D01*
X106538000Y-71979342D01*
X106537068Y-71978128D01*
X106517111Y-71903649D01*
X106462968Y-71849505D01*
X106388935Y-71829668D01*
X106332185Y-71840956D01*
X106322196Y-71845093D01*
X106321692Y-71845228D01*
X106297454Y-71848419D01*
X106295606Y-71847654D01*
X106295345Y-71845671D01*
X106296667Y-71844506D01*
X106383903Y-71820722D01*
X106493347Y-71753524D01*
X106537517Y-71704726D01*
X106539421Y-71704113D01*
X106540904Y-71705455D01*
G37*
G36*
X163921587Y-71250451D02*
G01*
X163922000Y-71251669D01*
X163922000Y-71449801D01*
X163931781Y-71498970D01*
X163946321Y-71520731D01*
X163946452Y-71522727D01*
X163944789Y-71523838D01*
X163943245Y-71523257D01*
X163925219Y-71505263D01*
X163924089Y-71506395D01*
X163922158Y-71506914D01*
X163921119Y-71506240D01*
X163905198Y-71486553D01*
X163833729Y-71459065D01*
X163757902Y-71471023D01*
X163736957Y-71482446D01*
X163722557Y-71491886D01*
X163720560Y-71491999D01*
X163719463Y-71490326D01*
X163720242Y-71488626D01*
X163801373Y-71426373D01*
X163897199Y-71301490D01*
X163918152Y-71250904D01*
X163919739Y-71249686D01*
X163921587Y-71250451D01*
G37*
G36*
X136081848Y-71250904D02*
G01*
X136102801Y-71301490D01*
X136198627Y-71426373D01*
X136305007Y-71508001D01*
X136305772Y-71509849D01*
X136304554Y-71511436D01*
X136302879Y-71511369D01*
X136288973Y-71504268D01*
X136288588Y-71504011D01*
X136277489Y-71494582D01*
X136208043Y-71461681D01*
X136131721Y-71467891D01*
X136077509Y-71505359D01*
X136075516Y-71505521D01*
X136074959Y-71505130D01*
X136074875Y-71505046D01*
X136056876Y-71523076D01*
X136054945Y-71523595D01*
X136053530Y-71522182D01*
X136053798Y-71520552D01*
X136068219Y-71498970D01*
X136078000Y-71449801D01*
X136078000Y-71251669D01*
X136079000Y-71249937D01*
X136081000Y-71249937D01*
X136081848Y-71250904D01*
G37*
G36*
X110337427Y-71212699D02*
G01*
X110337688Y-71214682D01*
X110336776Y-71215685D01*
X110283798Y-71243736D01*
X110243108Y-71308601D01*
X110240303Y-71385123D01*
X110276122Y-71452773D01*
X110335272Y-71487754D01*
X110336254Y-71489496D01*
X110335236Y-71491217D01*
X110333993Y-71491458D01*
X110200000Y-71473817D01*
X110066650Y-71491373D01*
X110064802Y-71490608D01*
X110064541Y-71488625D01*
X110065435Y-71487632D01*
X110118366Y-71458894D01*
X110158376Y-71393605D01*
X110160382Y-71317058D01*
X110123852Y-71249777D01*
X110066982Y-71216143D01*
X110066000Y-71214401D01*
X110067018Y-71212680D01*
X110068261Y-71212439D01*
X110200000Y-71229783D01*
X110335579Y-71211934D01*
X110337427Y-71212699D01*
G37*
G36*
X111537427Y-71212699D02*
G01*
X111537688Y-71214682D01*
X111536776Y-71215685D01*
X111483798Y-71243736D01*
X111443108Y-71308601D01*
X111440303Y-71385123D01*
X111476122Y-71452773D01*
X111535272Y-71487754D01*
X111536254Y-71489496D01*
X111535236Y-71491217D01*
X111533993Y-71491458D01*
X111400000Y-71473817D01*
X111266650Y-71491373D01*
X111264802Y-71490608D01*
X111264541Y-71488625D01*
X111265435Y-71487632D01*
X111318366Y-71458894D01*
X111358376Y-71393605D01*
X111360382Y-71317058D01*
X111323852Y-71249777D01*
X111266982Y-71216143D01*
X111266000Y-71214401D01*
X111267018Y-71212680D01*
X111268261Y-71212439D01*
X111400000Y-71229783D01*
X111535579Y-71211934D01*
X111537427Y-71212699D01*
G37*
G36*
X106540319Y-70830886D02*
G01*
X106541000Y-70832390D01*
X106541000Y-71103786D01*
X106540000Y-71105518D01*
X106538000Y-71105518D01*
X106537485Y-71105092D01*
X106501777Y-71063651D01*
X106394004Y-70993795D01*
X106301449Y-70966116D01*
X106300076Y-70964662D01*
X106300649Y-70962746D01*
X106302283Y-70962217D01*
X106321692Y-70964772D01*
X106322196Y-70964907D01*
X106332125Y-70969019D01*
X106408314Y-70979048D01*
X106479058Y-70949743D01*
X106525713Y-70888938D01*
X106537038Y-70832000D01*
X106538357Y-70830496D01*
X106540319Y-70830886D01*
G37*
G36*
X110937862Y-70447931D02*
G01*
X110937896Y-70449538D01*
X110890008Y-70565148D01*
X110872017Y-70701800D01*
X110890008Y-70838452D01*
X110935697Y-70948754D01*
X110935436Y-70950737D01*
X110933588Y-70951502D01*
X110932189Y-70950635D01*
X110922960Y-70936902D01*
X110865053Y-70886386D01*
X110789910Y-70871644D01*
X110717466Y-70896447D01*
X110676271Y-70943670D01*
X110674903Y-70944139D01*
X110670474Y-70950302D01*
X110670357Y-70950450D01*
X110666973Y-70954329D01*
X110666068Y-70956362D01*
X110665865Y-70956716D01*
X110664478Y-70958647D01*
X110662656Y-70959470D01*
X110661031Y-70958303D01*
X110661006Y-70956715D01*
X110709992Y-70838452D01*
X110727983Y-70701800D01*
X110709992Y-70565148D01*
X110663202Y-70452188D01*
X110663463Y-70450205D01*
X110665311Y-70449440D01*
X110666698Y-70450290D01*
X110677718Y-70466324D01*
X110736153Y-70516233D01*
X110811446Y-70530188D01*
X110883625Y-70504627D01*
X110918915Y-70463308D01*
X110920800Y-70462640D01*
X110921586Y-70462971D01*
X110922951Y-70463930D01*
X110934412Y-70447623D01*
X110936226Y-70446781D01*
X110937862Y-70447931D01*
G37*
G36*
X115590679Y-70063488D02*
G01*
X115599913Y-70075808D01*
X115600186Y-70076306D01*
X115607377Y-70095488D01*
X115652055Y-70158008D01*
X115721763Y-70189702D01*
X115798066Y-70182288D01*
X115843475Y-70155191D01*
X115862528Y-70138570D01*
X115864491Y-70138185D01*
X115865806Y-70139692D01*
X115865430Y-70141295D01*
X115792753Y-70236010D01*
X115740008Y-70363348D01*
X115722017Y-70500000D01*
X115740008Y-70636652D01*
X115792753Y-70763990D01*
X115861911Y-70854119D01*
X115862172Y-70856102D01*
X115860585Y-70857320D01*
X115858978Y-70856816D01*
X115846425Y-70845394D01*
X115778141Y-70810149D01*
X115701651Y-70813757D01*
X115637150Y-70855165D01*
X115607978Y-70902909D01*
X115600186Y-70923693D01*
X115599913Y-70924190D01*
X115590853Y-70936279D01*
X115589014Y-70937066D01*
X115587414Y-70935866D01*
X115587456Y-70934202D01*
X115626031Y-70855286D01*
X115640500Y-70756105D01*
X115640500Y-70243897D01*
X115625857Y-70144131D01*
X115587284Y-70065569D01*
X115587418Y-70063574D01*
X115589213Y-70062693D01*
X115590679Y-70063488D01*
G37*
G36*
X158659220Y-70648324D02*
G01*
X158736010Y-70707247D01*
X158834763Y-70748152D01*
X158835981Y-70749739D01*
X158835216Y-70751587D01*
X158834763Y-70751848D01*
X158736010Y-70792753D01*
X158650097Y-70858676D01*
X158648114Y-70858937D01*
X158646896Y-70857350D01*
X158647219Y-70855974D01*
X158686289Y-70797830D01*
X158691498Y-70721435D01*
X158657715Y-70652477D01*
X158656573Y-70651310D01*
X158656076Y-70649373D01*
X158657505Y-70647974D01*
X158659220Y-70648324D01*
G37*
G36*
X159354406Y-70641651D02*
G01*
X159354071Y-70643045D01*
X159314373Y-70700806D01*
X159308366Y-70777144D01*
X159341419Y-70846441D01*
X159344209Y-70849290D01*
X159344706Y-70851227D01*
X159343277Y-70852626D01*
X159341562Y-70852276D01*
X159263990Y-70792753D01*
X159165237Y-70751848D01*
X159164019Y-70750261D01*
X159164784Y-70748413D01*
X159165237Y-70748152D01*
X159263990Y-70707247D01*
X159351205Y-70640325D01*
X159353188Y-70640064D01*
X159354406Y-70641651D01*
G37*
G36*
X136056755Y-70476743D02*
G01*
X136074781Y-70494737D01*
X136075911Y-70493605D01*
X136077842Y-70493086D01*
X136078881Y-70493760D01*
X136094802Y-70513447D01*
X136166271Y-70540935D01*
X136242098Y-70528977D01*
X136263043Y-70517554D01*
X136277443Y-70508114D01*
X136279440Y-70508001D01*
X136280537Y-70509674D01*
X136279758Y-70511374D01*
X136198627Y-70573627D01*
X136102801Y-70698510D01*
X136081848Y-70749096D01*
X136080261Y-70750314D01*
X136078413Y-70749549D01*
X136078000Y-70748331D01*
X136078000Y-70550199D01*
X136068219Y-70501030D01*
X136053679Y-70479269D01*
X136053548Y-70477273D01*
X136055211Y-70476162D01*
X136056755Y-70476743D01*
G37*
G36*
X163946470Y-70477818D02*
G01*
X163946202Y-70479448D01*
X163931781Y-70501030D01*
X163922000Y-70550199D01*
X163922000Y-70748331D01*
X163921000Y-70750063D01*
X163919000Y-70750063D01*
X163918152Y-70749096D01*
X163897199Y-70698510D01*
X163801373Y-70573627D01*
X163694993Y-70491999D01*
X163694228Y-70490151D01*
X163695446Y-70488564D01*
X163697121Y-70488631D01*
X163711027Y-70495732D01*
X163711412Y-70495989D01*
X163722511Y-70505418D01*
X163791957Y-70538319D01*
X163868279Y-70532109D01*
X163922491Y-70494641D01*
X163924484Y-70494479D01*
X163925041Y-70494870D01*
X163925125Y-70494954D01*
X163943124Y-70476924D01*
X163945055Y-70476405D01*
X163946470Y-70477818D01*
G37*
G36*
X158623307Y-69879000D02*
G01*
X158623307Y-69881000D01*
X158623162Y-69881218D01*
X158542753Y-69986010D01*
X158503229Y-70081430D01*
X158501642Y-70082648D01*
X158499794Y-70081883D01*
X158499393Y-70080446D01*
X158507432Y-70007623D01*
X158476655Y-69937508D01*
X158414877Y-69892128D01*
X158360836Y-69881966D01*
X158359319Y-69880663D01*
X158359689Y-69878697D01*
X158361206Y-69878000D01*
X158621575Y-69878000D01*
X158623307Y-69879000D01*
G37*
G36*
X159640258Y-69879000D02*
G01*
X159640258Y-69881000D01*
X159639044Y-69881932D01*
X159564565Y-69901889D01*
X159510421Y-69956033D01*
X159490579Y-70030083D01*
X159499093Y-70076700D01*
X159498421Y-70078583D01*
X159496453Y-70078943D01*
X159495278Y-70077824D01*
X159457247Y-69986010D01*
X159376838Y-69881218D01*
X159376577Y-69879235D01*
X159378164Y-69878017D01*
X159378425Y-69878000D01*
X159638526Y-69878000D01*
X159640258Y-69879000D01*
G37*
G36*
X151872784Y-66904648D02*
G01*
X151912939Y-66954325D01*
X151984403Y-66981830D01*
X152060046Y-66969918D01*
X152119723Y-66921680D01*
X152125800Y-66911132D01*
X152127531Y-66910130D01*
X152129264Y-66911128D01*
X152129495Y-66912520D01*
X152122000Y-66950199D01*
X152122000Y-69749801D01*
X152130733Y-69793705D01*
X152130090Y-69795599D01*
X152128128Y-69795989D01*
X152127216Y-69795352D01*
X152087061Y-69745675D01*
X152015597Y-69718170D01*
X151939954Y-69730082D01*
X151880277Y-69778320D01*
X151874200Y-69788868D01*
X151872469Y-69789870D01*
X151870736Y-69788872D01*
X151870505Y-69787480D01*
X151878000Y-69749801D01*
X151878000Y-66950199D01*
X151869267Y-66906295D01*
X151869910Y-66904401D01*
X151871872Y-66904011D01*
X151872784Y-66904648D01*
G37*
G36*
X157872784Y-66904648D02*
G01*
X157912939Y-66954325D01*
X157984403Y-66981830D01*
X158060046Y-66969918D01*
X158119723Y-66921680D01*
X158125800Y-66911132D01*
X158127531Y-66910130D01*
X158129264Y-66911128D01*
X158129495Y-66912520D01*
X158122000Y-66950199D01*
X158122000Y-69749801D01*
X158130733Y-69793705D01*
X158130090Y-69795599D01*
X158128128Y-69795989D01*
X158127216Y-69795352D01*
X158087061Y-69745675D01*
X158015597Y-69718170D01*
X157939954Y-69730082D01*
X157880277Y-69778320D01*
X157874200Y-69788868D01*
X157872469Y-69789870D01*
X157870736Y-69788872D01*
X157870505Y-69787480D01*
X157878000Y-69749801D01*
X157878000Y-66950199D01*
X157869267Y-66906295D01*
X157869910Y-66904401D01*
X157871872Y-66904011D01*
X157872784Y-66904648D01*
G37*
G36*
X155872784Y-66904648D02*
G01*
X155912939Y-66954325D01*
X155984403Y-66981830D01*
X156060046Y-66969918D01*
X156119723Y-66921680D01*
X156125800Y-66911132D01*
X156127531Y-66910130D01*
X156129264Y-66911128D01*
X156129495Y-66912520D01*
X156122000Y-66950199D01*
X156122000Y-69749801D01*
X156130733Y-69793705D01*
X156130090Y-69795599D01*
X156128128Y-69795989D01*
X156127216Y-69795352D01*
X156087061Y-69745675D01*
X156015597Y-69718170D01*
X155939954Y-69730082D01*
X155880277Y-69778320D01*
X155874200Y-69788868D01*
X155872469Y-69789870D01*
X155870736Y-69788872D01*
X155870505Y-69787480D01*
X155878000Y-69749801D01*
X155878000Y-66950199D01*
X155869267Y-66906295D01*
X155869910Y-66904401D01*
X155871872Y-66904011D01*
X155872784Y-66904648D01*
G37*
G36*
X153872784Y-66904648D02*
G01*
X153912939Y-66954325D01*
X153984403Y-66981830D01*
X154060046Y-66969918D01*
X154119723Y-66921680D01*
X154125800Y-66911132D01*
X154127531Y-66910130D01*
X154129264Y-66911128D01*
X154129495Y-66912520D01*
X154122000Y-66950199D01*
X154122000Y-69749801D01*
X154130733Y-69793705D01*
X154130090Y-69795599D01*
X154128128Y-69795989D01*
X154127216Y-69795352D01*
X154087061Y-69745675D01*
X154015597Y-69718170D01*
X153939954Y-69730082D01*
X153880277Y-69778320D01*
X153874200Y-69788868D01*
X153872469Y-69789870D01*
X153870736Y-69788872D01*
X153870505Y-69787480D01*
X153878000Y-69749801D01*
X153878000Y-66950199D01*
X153869267Y-66906295D01*
X153869910Y-66904401D01*
X153871872Y-66904011D01*
X153872784Y-66904648D01*
G37*
G36*
X149872784Y-66904648D02*
G01*
X149912939Y-66954325D01*
X149984403Y-66981830D01*
X150060046Y-66969918D01*
X150119723Y-66921680D01*
X150125800Y-66911132D01*
X150127531Y-66910130D01*
X150129264Y-66911128D01*
X150129495Y-66912520D01*
X150122000Y-66950199D01*
X150122000Y-69749801D01*
X150130733Y-69793705D01*
X150130090Y-69795599D01*
X150128128Y-69795989D01*
X150127216Y-69795352D01*
X150087061Y-69745675D01*
X150015597Y-69718170D01*
X149939954Y-69730082D01*
X149880277Y-69778320D01*
X149874200Y-69788868D01*
X149872469Y-69789870D01*
X149870736Y-69788872D01*
X149870505Y-69787480D01*
X149878000Y-69749801D01*
X149878000Y-66950199D01*
X149869267Y-66906295D01*
X149869910Y-66904401D01*
X149871872Y-66904011D01*
X149872784Y-66904648D01*
G37*
G36*
X147872784Y-66904648D02*
G01*
X147912939Y-66954325D01*
X147984403Y-66981830D01*
X148060046Y-66969918D01*
X148119723Y-66921680D01*
X148125800Y-66911132D01*
X148127531Y-66910130D01*
X148129264Y-66911128D01*
X148129495Y-66912520D01*
X148122000Y-66950199D01*
X148122000Y-69749801D01*
X148130733Y-69793705D01*
X148130090Y-69795599D01*
X148128128Y-69795989D01*
X148127216Y-69795352D01*
X148087061Y-69745675D01*
X148015597Y-69718170D01*
X147939954Y-69730082D01*
X147880277Y-69778320D01*
X147874200Y-69788868D01*
X147872469Y-69789870D01*
X147870736Y-69788872D01*
X147870505Y-69787480D01*
X147878000Y-69749801D01*
X147878000Y-66950199D01*
X147869267Y-66906295D01*
X147869910Y-66904401D01*
X147871872Y-66904011D01*
X147872784Y-66904648D01*
G37*
G36*
X145872784Y-66904648D02*
G01*
X145912939Y-66954325D01*
X145984403Y-66981830D01*
X146060046Y-66969918D01*
X146119723Y-66921680D01*
X146125800Y-66911132D01*
X146127531Y-66910130D01*
X146129264Y-66911128D01*
X146129495Y-66912520D01*
X146122000Y-66950199D01*
X146122000Y-69749801D01*
X146130733Y-69793705D01*
X146130090Y-69795599D01*
X146128128Y-69795989D01*
X146127216Y-69795352D01*
X146087061Y-69745675D01*
X146015597Y-69718170D01*
X145939954Y-69730082D01*
X145880277Y-69778320D01*
X145874200Y-69788868D01*
X145872469Y-69789870D01*
X145870736Y-69788872D01*
X145870505Y-69787480D01*
X145878000Y-69749801D01*
X145878000Y-66950199D01*
X145869267Y-66906295D01*
X145869910Y-66904401D01*
X145871872Y-66904011D01*
X145872784Y-66904648D01*
G37*
G36*
X143872784Y-66904648D02*
G01*
X143912939Y-66954325D01*
X143984403Y-66981830D01*
X144060046Y-66969918D01*
X144119723Y-66921680D01*
X144125800Y-66911132D01*
X144127531Y-66910130D01*
X144129264Y-66911128D01*
X144129495Y-66912520D01*
X144122000Y-66950199D01*
X144122000Y-69749801D01*
X144130733Y-69793705D01*
X144130090Y-69795599D01*
X144128128Y-69795989D01*
X144127216Y-69795352D01*
X144087061Y-69745675D01*
X144015597Y-69718170D01*
X143939954Y-69730082D01*
X143880277Y-69778320D01*
X143874200Y-69788868D01*
X143872469Y-69789870D01*
X143870736Y-69788872D01*
X143870505Y-69787480D01*
X143878000Y-69749801D01*
X143878000Y-66950199D01*
X143869267Y-66906295D01*
X143869910Y-66904401D01*
X143871872Y-66904011D01*
X143872784Y-66904648D01*
G37*
G36*
X141872784Y-66904648D02*
G01*
X141912939Y-66954325D01*
X141984403Y-66981830D01*
X142060046Y-66969918D01*
X142119723Y-66921680D01*
X142125800Y-66911132D01*
X142127531Y-66910130D01*
X142129264Y-66911128D01*
X142129495Y-66912520D01*
X142122000Y-66950199D01*
X142122000Y-69749801D01*
X142130733Y-69793705D01*
X142130090Y-69795599D01*
X142128128Y-69795989D01*
X142127216Y-69795352D01*
X142087061Y-69745675D01*
X142015597Y-69718170D01*
X141939954Y-69730082D01*
X141880277Y-69778320D01*
X141874200Y-69788868D01*
X141872469Y-69789870D01*
X141870736Y-69788872D01*
X141870505Y-69787480D01*
X141878000Y-69749801D01*
X141878000Y-66950199D01*
X141869267Y-66906295D01*
X141869910Y-66904401D01*
X141871872Y-66904011D01*
X141872784Y-66904648D01*
G37*
G36*
X167267218Y-68104755D02*
G01*
X167268000Y-68106342D01*
X167268000Y-68509801D01*
X167273694Y-68538425D01*
X167273051Y-68540319D01*
X167271089Y-68540709D01*
X167269904Y-68539627D01*
X167259693Y-68516639D01*
X167258562Y-68517141D01*
X167256573Y-68516930D01*
X167255892Y-68516052D01*
X167241443Y-68479738D01*
X167181354Y-68432275D01*
X167105493Y-68421201D01*
X167056176Y-68435995D01*
X167033026Y-68447638D01*
X167031029Y-68447523D01*
X167030130Y-68445736D01*
X167030909Y-68444264D01*
X167123340Y-68373340D01*
X167207247Y-68263990D01*
X167259992Y-68136652D01*
X167264017Y-68106081D01*
X167265235Y-68104494D01*
X167267218Y-68104755D01*
G37*
G36*
X140121848Y-67879052D02*
G01*
X140122000Y-67879817D01*
X140122000Y-68183851D01*
X140121000Y-68185583D01*
X140119000Y-68185583D01*
X140118068Y-68184369D01*
X140098110Y-68109885D01*
X140043966Y-68055742D01*
X139969971Y-68035915D01*
X139903294Y-68051738D01*
X139880056Y-68063425D01*
X139879603Y-68063588D01*
X139862932Y-68067406D01*
X139861021Y-68066817D01*
X139860574Y-68064868D01*
X139861721Y-68063608D01*
X139963990Y-68021247D01*
X140073340Y-67937340D01*
X140118413Y-67878599D01*
X140120261Y-67877834D01*
X140121848Y-67879052D01*
G37*
G36*
X167273309Y-67480193D02*
G01*
X167273656Y-67481763D01*
X167268000Y-67510199D01*
X167268000Y-67893658D01*
X167267000Y-67895390D01*
X167265000Y-67895390D01*
X167264017Y-67893919D01*
X167259992Y-67863348D01*
X167207247Y-67736010D01*
X167123340Y-67626660D01*
X167035515Y-67559270D01*
X167034750Y-67557422D01*
X167035968Y-67555835D01*
X167037669Y-67555915D01*
X167058212Y-67566792D01*
X167133118Y-67583947D01*
X167206307Y-67561431D01*
X167258592Y-67505166D01*
X167263070Y-67495936D01*
X167269865Y-67480564D01*
X167271480Y-67479385D01*
X167273309Y-67480193D01*
G37*
G36*
X140121194Y-66957111D02*
G01*
X140122000Y-66958716D01*
X140122000Y-67248183D01*
X140121000Y-67249915D01*
X140119000Y-67249915D01*
X140118413Y-67249401D01*
X140073340Y-67190660D01*
X139963990Y-67106753D01*
X139867144Y-67066638D01*
X139865926Y-67065051D01*
X139866691Y-67063203D01*
X139868396Y-67062850D01*
X139890030Y-67068284D01*
X139890479Y-67068456D01*
X139901275Y-67074172D01*
X139976181Y-67091326D01*
X140049370Y-67068810D01*
X140101549Y-67012659D01*
X140117783Y-66960454D01*
X140118013Y-66958484D01*
X140119207Y-66956880D01*
X140121194Y-66957111D01*
G37*
G36*
X110937862Y-66147931D02*
G01*
X110937896Y-66149538D01*
X110890008Y-66265148D01*
X110872017Y-66401800D01*
X110890008Y-66538452D01*
X110935697Y-66648754D01*
X110935436Y-66650737D01*
X110933588Y-66651502D01*
X110932189Y-66650635D01*
X110922960Y-66636902D01*
X110865053Y-66586386D01*
X110789910Y-66571644D01*
X110717466Y-66596447D01*
X110676271Y-66643670D01*
X110674903Y-66644139D01*
X110670474Y-66650302D01*
X110670357Y-66650450D01*
X110666973Y-66654329D01*
X110666068Y-66656362D01*
X110665865Y-66656716D01*
X110664478Y-66658647D01*
X110662656Y-66659470D01*
X110661031Y-66658303D01*
X110661006Y-66656715D01*
X110709992Y-66538452D01*
X110727983Y-66401800D01*
X110709992Y-66265148D01*
X110663202Y-66152188D01*
X110663463Y-66150205D01*
X110665311Y-66149440D01*
X110666698Y-66150290D01*
X110677718Y-66166324D01*
X110736153Y-66216233D01*
X110811446Y-66230188D01*
X110883625Y-66204627D01*
X110918915Y-66163308D01*
X110920800Y-66162640D01*
X110921586Y-66162971D01*
X110922951Y-66163930D01*
X110934412Y-66147623D01*
X110936226Y-66146781D01*
X110937862Y-66147931D01*
G37*
G36*
X148479448Y-66053798D02*
G01*
X148501030Y-66068219D01*
X148550199Y-66078000D01*
X148748331Y-66078000D01*
X148750063Y-66079000D01*
X148750063Y-66081000D01*
X148749096Y-66081848D01*
X148698510Y-66102801D01*
X148573627Y-66198627D01*
X148491999Y-66305007D01*
X148490151Y-66305772D01*
X148488564Y-66304554D01*
X148488631Y-66302879D01*
X148495732Y-66288973D01*
X148495989Y-66288588D01*
X148505418Y-66277489D01*
X148538319Y-66208043D01*
X148532109Y-66131721D01*
X148494641Y-66077509D01*
X148494479Y-66075516D01*
X148494870Y-66074959D01*
X148494954Y-66074875D01*
X148476924Y-66056876D01*
X148476405Y-66054945D01*
X148477818Y-66053530D01*
X148479448Y-66053798D01*
G37*
G36*
X150479448Y-66053798D02*
G01*
X150501030Y-66068219D01*
X150550199Y-66078000D01*
X150748331Y-66078000D01*
X150750063Y-66079000D01*
X150750063Y-66081000D01*
X150749096Y-66081848D01*
X150698510Y-66102801D01*
X150573627Y-66198627D01*
X150491999Y-66305007D01*
X150490151Y-66305772D01*
X150488564Y-66304554D01*
X150488631Y-66302879D01*
X150495732Y-66288973D01*
X150495989Y-66288588D01*
X150505418Y-66277489D01*
X150538319Y-66208043D01*
X150532109Y-66131721D01*
X150494641Y-66077509D01*
X150494479Y-66075516D01*
X150494870Y-66074959D01*
X150494954Y-66074875D01*
X150476924Y-66056876D01*
X150476405Y-66054945D01*
X150477818Y-66053530D01*
X150479448Y-66053798D01*
G37*
G36*
X158479448Y-66053798D02*
G01*
X158501030Y-66068219D01*
X158550199Y-66078000D01*
X158748331Y-66078000D01*
X158750063Y-66079000D01*
X158750063Y-66081000D01*
X158749096Y-66081848D01*
X158698510Y-66102801D01*
X158573627Y-66198627D01*
X158491999Y-66305007D01*
X158490151Y-66305772D01*
X158488564Y-66304554D01*
X158488631Y-66302879D01*
X158495732Y-66288973D01*
X158495989Y-66288588D01*
X158505418Y-66277489D01*
X158538319Y-66208043D01*
X158532109Y-66131721D01*
X158494641Y-66077509D01*
X158494479Y-66075516D01*
X158494870Y-66074959D01*
X158494954Y-66074875D01*
X158476924Y-66056876D01*
X158476405Y-66054945D01*
X158477818Y-66053530D01*
X158479448Y-66053798D01*
G37*
G36*
X152479448Y-66053798D02*
G01*
X152501030Y-66068219D01*
X152550199Y-66078000D01*
X152748331Y-66078000D01*
X152750063Y-66079000D01*
X152750063Y-66081000D01*
X152749096Y-66081848D01*
X152698510Y-66102801D01*
X152573627Y-66198627D01*
X152491999Y-66305007D01*
X152490151Y-66305772D01*
X152488564Y-66304554D01*
X152488631Y-66302879D01*
X152495732Y-66288973D01*
X152495989Y-66288588D01*
X152505418Y-66277489D01*
X152538319Y-66208043D01*
X152532109Y-66131721D01*
X152494641Y-66077509D01*
X152494479Y-66075516D01*
X152494870Y-66074959D01*
X152494954Y-66074875D01*
X152476924Y-66056876D01*
X152476405Y-66054945D01*
X152477818Y-66053530D01*
X152479448Y-66053798D01*
G37*
G36*
X154479448Y-66053798D02*
G01*
X154501030Y-66068219D01*
X154550199Y-66078000D01*
X154748331Y-66078000D01*
X154750063Y-66079000D01*
X154750063Y-66081000D01*
X154749096Y-66081848D01*
X154698510Y-66102801D01*
X154573627Y-66198627D01*
X154491999Y-66305007D01*
X154490151Y-66305772D01*
X154488564Y-66304554D01*
X154488631Y-66302879D01*
X154495732Y-66288973D01*
X154495989Y-66288588D01*
X154505418Y-66277489D01*
X154538319Y-66208043D01*
X154532109Y-66131721D01*
X154494641Y-66077509D01*
X154494479Y-66075516D01*
X154494870Y-66074959D01*
X154494954Y-66074875D01*
X154476924Y-66056876D01*
X154476405Y-66054945D01*
X154477818Y-66053530D01*
X154479448Y-66053798D01*
G37*
G36*
X156479448Y-66053798D02*
G01*
X156501030Y-66068219D01*
X156550199Y-66078000D01*
X156748331Y-66078000D01*
X156750063Y-66079000D01*
X156750063Y-66081000D01*
X156749096Y-66081848D01*
X156698510Y-66102801D01*
X156573627Y-66198627D01*
X156491999Y-66305007D01*
X156490151Y-66305772D01*
X156488564Y-66304554D01*
X156488631Y-66302879D01*
X156495732Y-66288973D01*
X156495989Y-66288588D01*
X156505418Y-66277489D01*
X156538319Y-66208043D01*
X156532109Y-66131721D01*
X156494641Y-66077509D01*
X156494479Y-66075516D01*
X156494870Y-66074959D01*
X156494954Y-66074875D01*
X156476924Y-66056876D01*
X156476405Y-66054945D01*
X156477818Y-66053530D01*
X156479448Y-66053798D01*
G37*
G36*
X144479448Y-66053798D02*
G01*
X144501030Y-66068219D01*
X144550199Y-66078000D01*
X144748331Y-66078000D01*
X144750063Y-66079000D01*
X144750063Y-66081000D01*
X144749096Y-66081848D01*
X144698510Y-66102801D01*
X144573627Y-66198627D01*
X144491999Y-66305007D01*
X144490151Y-66305772D01*
X144488564Y-66304554D01*
X144488631Y-66302879D01*
X144495732Y-66288973D01*
X144495989Y-66288588D01*
X144505418Y-66277489D01*
X144538319Y-66208043D01*
X144532109Y-66131721D01*
X144494641Y-66077509D01*
X144494479Y-66075516D01*
X144494870Y-66074959D01*
X144494954Y-66074875D01*
X144476924Y-66056876D01*
X144476405Y-66054945D01*
X144477818Y-66053530D01*
X144479448Y-66053798D01*
G37*
G36*
X142479448Y-66053798D02*
G01*
X142501030Y-66068219D01*
X142550199Y-66078000D01*
X142748331Y-66078000D01*
X142750063Y-66079000D01*
X142750063Y-66081000D01*
X142749096Y-66081848D01*
X142698510Y-66102801D01*
X142573627Y-66198627D01*
X142491999Y-66305007D01*
X142490151Y-66305772D01*
X142488564Y-66304554D01*
X142488631Y-66302879D01*
X142495732Y-66288973D01*
X142495989Y-66288588D01*
X142505418Y-66277489D01*
X142538319Y-66208043D01*
X142532109Y-66131721D01*
X142494641Y-66077509D01*
X142494479Y-66075516D01*
X142494870Y-66074959D01*
X142494954Y-66074875D01*
X142476924Y-66056876D01*
X142476405Y-66054945D01*
X142477818Y-66053530D01*
X142479448Y-66053798D01*
G37*
G36*
X140479448Y-66053798D02*
G01*
X140501030Y-66068219D01*
X140550199Y-66078000D01*
X140748331Y-66078000D01*
X140750063Y-66079000D01*
X140750063Y-66081000D01*
X140749096Y-66081848D01*
X140698510Y-66102801D01*
X140573627Y-66198627D01*
X140491999Y-66305007D01*
X140490151Y-66305772D01*
X140488564Y-66304554D01*
X140488631Y-66302879D01*
X140495732Y-66288973D01*
X140495989Y-66288588D01*
X140505418Y-66277489D01*
X140538319Y-66208043D01*
X140532109Y-66131721D01*
X140494641Y-66077509D01*
X140494479Y-66075516D01*
X140494870Y-66074959D01*
X140494954Y-66074875D01*
X140476924Y-66056876D01*
X140476405Y-66054945D01*
X140477818Y-66053530D01*
X140479448Y-66053798D01*
G37*
G36*
X146479448Y-66053798D02*
G01*
X146501030Y-66068219D01*
X146550199Y-66078000D01*
X146748331Y-66078000D01*
X146750063Y-66079000D01*
X146750063Y-66081000D01*
X146749096Y-66081848D01*
X146698510Y-66102801D01*
X146573627Y-66198627D01*
X146491999Y-66305007D01*
X146490151Y-66305772D01*
X146488564Y-66304554D01*
X146488631Y-66302879D01*
X146495732Y-66288973D01*
X146495989Y-66288588D01*
X146505418Y-66277489D01*
X146538319Y-66208043D01*
X146532109Y-66131721D01*
X146494641Y-66077509D01*
X146494479Y-66075516D01*
X146494870Y-66074959D01*
X146494954Y-66074875D01*
X146476924Y-66056876D01*
X146476405Y-66054945D01*
X146477818Y-66053530D01*
X146479448Y-66053798D01*
G37*
G36*
X149523838Y-66055211D02*
G01*
X149523257Y-66056755D01*
X149505263Y-66074781D01*
X149506395Y-66075911D01*
X149506914Y-66077842D01*
X149506240Y-66078881D01*
X149486553Y-66094802D01*
X149459065Y-66166271D01*
X149471023Y-66242098D01*
X149482446Y-66263043D01*
X149491886Y-66277443D01*
X149491999Y-66279440D01*
X149490326Y-66280537D01*
X149488626Y-66279758D01*
X149426373Y-66198627D01*
X149301490Y-66102801D01*
X149250904Y-66081848D01*
X149249686Y-66080261D01*
X149250451Y-66078413D01*
X149251669Y-66078000D01*
X149449801Y-66078000D01*
X149498970Y-66068219D01*
X149520731Y-66053679D01*
X149522727Y-66053548D01*
X149523838Y-66055211D01*
G37*
G36*
X151523838Y-66055211D02*
G01*
X151523257Y-66056755D01*
X151505263Y-66074781D01*
X151506395Y-66075911D01*
X151506914Y-66077842D01*
X151506240Y-66078881D01*
X151486553Y-66094802D01*
X151459065Y-66166271D01*
X151471023Y-66242098D01*
X151482446Y-66263043D01*
X151491886Y-66277443D01*
X151491999Y-66279440D01*
X151490326Y-66280537D01*
X151488626Y-66279758D01*
X151426373Y-66198627D01*
X151301490Y-66102801D01*
X151250904Y-66081848D01*
X151249686Y-66080261D01*
X151250451Y-66078413D01*
X151251669Y-66078000D01*
X151449801Y-66078000D01*
X151498970Y-66068219D01*
X151520731Y-66053679D01*
X151522727Y-66053548D01*
X151523838Y-66055211D01*
G37*
G36*
X157523838Y-66055211D02*
G01*
X157523257Y-66056755D01*
X157505263Y-66074781D01*
X157506395Y-66075911D01*
X157506914Y-66077842D01*
X157506240Y-66078881D01*
X157486553Y-66094802D01*
X157459065Y-66166271D01*
X157471023Y-66242098D01*
X157482446Y-66263043D01*
X157491886Y-66277443D01*
X157491999Y-66279440D01*
X157490326Y-66280537D01*
X157488626Y-66279758D01*
X157426373Y-66198627D01*
X157301490Y-66102801D01*
X157250904Y-66081848D01*
X157249686Y-66080261D01*
X157250451Y-66078413D01*
X157251669Y-66078000D01*
X157449801Y-66078000D01*
X157498970Y-66068219D01*
X157520731Y-66053679D01*
X157522727Y-66053548D01*
X157523838Y-66055211D01*
G37*
G36*
X155523838Y-66055211D02*
G01*
X155523257Y-66056755D01*
X155505263Y-66074781D01*
X155506395Y-66075911D01*
X155506914Y-66077842D01*
X155506240Y-66078881D01*
X155486553Y-66094802D01*
X155459065Y-66166271D01*
X155471023Y-66242098D01*
X155482446Y-66263043D01*
X155491886Y-66277443D01*
X155491999Y-66279440D01*
X155490326Y-66280537D01*
X155488626Y-66279758D01*
X155426373Y-66198627D01*
X155301490Y-66102801D01*
X155250904Y-66081848D01*
X155249686Y-66080261D01*
X155250451Y-66078413D01*
X155251669Y-66078000D01*
X155449801Y-66078000D01*
X155498970Y-66068219D01*
X155520731Y-66053679D01*
X155522727Y-66053548D01*
X155523838Y-66055211D01*
G37*
G36*
X153523838Y-66055211D02*
G01*
X153523257Y-66056755D01*
X153505263Y-66074781D01*
X153506395Y-66075911D01*
X153506914Y-66077842D01*
X153506240Y-66078881D01*
X153486553Y-66094802D01*
X153459065Y-66166271D01*
X153471023Y-66242098D01*
X153482446Y-66263043D01*
X153491886Y-66277443D01*
X153491999Y-66279440D01*
X153490326Y-66280537D01*
X153488626Y-66279758D01*
X153426373Y-66198627D01*
X153301490Y-66102801D01*
X153250904Y-66081848D01*
X153249686Y-66080261D01*
X153250451Y-66078413D01*
X153251669Y-66078000D01*
X153449801Y-66078000D01*
X153498970Y-66068219D01*
X153520731Y-66053679D01*
X153522727Y-66053548D01*
X153523838Y-66055211D01*
G37*
G36*
X159523838Y-66055211D02*
G01*
X159523257Y-66056755D01*
X159505263Y-66074781D01*
X159506395Y-66075911D01*
X159506914Y-66077842D01*
X159506240Y-66078881D01*
X159486553Y-66094802D01*
X159459065Y-66166271D01*
X159471023Y-66242098D01*
X159482446Y-66263043D01*
X159491886Y-66277443D01*
X159491999Y-66279440D01*
X159490326Y-66280537D01*
X159488626Y-66279758D01*
X159426373Y-66198627D01*
X159301490Y-66102801D01*
X159250904Y-66081848D01*
X159249686Y-66080261D01*
X159250451Y-66078413D01*
X159251669Y-66078000D01*
X159449801Y-66078000D01*
X159498970Y-66068219D01*
X159520731Y-66053679D01*
X159522727Y-66053548D01*
X159523838Y-66055211D01*
G37*
G36*
X143523838Y-66055211D02*
G01*
X143523257Y-66056755D01*
X143505263Y-66074781D01*
X143506395Y-66075911D01*
X143506914Y-66077842D01*
X143506240Y-66078881D01*
X143486553Y-66094802D01*
X143459065Y-66166271D01*
X143471023Y-66242098D01*
X143482446Y-66263043D01*
X143491886Y-66277443D01*
X143491999Y-66279440D01*
X143490326Y-66280537D01*
X143488626Y-66279758D01*
X143426373Y-66198627D01*
X143301490Y-66102801D01*
X143250904Y-66081848D01*
X143249686Y-66080261D01*
X143250451Y-66078413D01*
X143251669Y-66078000D01*
X143449801Y-66078000D01*
X143498970Y-66068219D01*
X143520731Y-66053679D01*
X143522727Y-66053548D01*
X143523838Y-66055211D01*
G37*
G36*
X147523838Y-66055211D02*
G01*
X147523257Y-66056755D01*
X147505263Y-66074781D01*
X147506395Y-66075911D01*
X147506914Y-66077842D01*
X147506240Y-66078881D01*
X147486553Y-66094802D01*
X147459065Y-66166271D01*
X147471023Y-66242098D01*
X147482446Y-66263043D01*
X147491886Y-66277443D01*
X147491999Y-66279440D01*
X147490326Y-66280537D01*
X147488626Y-66279758D01*
X147426373Y-66198627D01*
X147301490Y-66102801D01*
X147250904Y-66081848D01*
X147249686Y-66080261D01*
X147250451Y-66078413D01*
X147251669Y-66078000D01*
X147449801Y-66078000D01*
X147498970Y-66068219D01*
X147520731Y-66053679D01*
X147522727Y-66053548D01*
X147523838Y-66055211D01*
G37*
G36*
X145523838Y-66055211D02*
G01*
X145523257Y-66056755D01*
X145505263Y-66074781D01*
X145506395Y-66075911D01*
X145506914Y-66077842D01*
X145506240Y-66078881D01*
X145486553Y-66094802D01*
X145459065Y-66166271D01*
X145471023Y-66242098D01*
X145482446Y-66263043D01*
X145491886Y-66277443D01*
X145491999Y-66279440D01*
X145490326Y-66280537D01*
X145488626Y-66279758D01*
X145426373Y-66198627D01*
X145301490Y-66102801D01*
X145250904Y-66081848D01*
X145249686Y-66080261D01*
X145250451Y-66078413D01*
X145251669Y-66078000D01*
X145449801Y-66078000D01*
X145498970Y-66068219D01*
X145520731Y-66053679D01*
X145522727Y-66053548D01*
X145523838Y-66055211D01*
G37*
G36*
X141523838Y-66055211D02*
G01*
X141523257Y-66056755D01*
X141505263Y-66074781D01*
X141506395Y-66075911D01*
X141506914Y-66077842D01*
X141506240Y-66078881D01*
X141486553Y-66094802D01*
X141459065Y-66166271D01*
X141471023Y-66242098D01*
X141482446Y-66263043D01*
X141491886Y-66277443D01*
X141491999Y-66279440D01*
X141490326Y-66280537D01*
X141488626Y-66279758D01*
X141426373Y-66198627D01*
X141301490Y-66102801D01*
X141250904Y-66081848D01*
X141249686Y-66080261D01*
X141250451Y-66078413D01*
X141251669Y-66078000D01*
X141449801Y-66078000D01*
X141498970Y-66068219D01*
X141520731Y-66053679D01*
X141522727Y-66053548D01*
X141523838Y-66055211D01*
G37*
G36*
X106540904Y-65925455D02*
G01*
X106541000Y-65926068D01*
X106541000Y-66197613D01*
X106540000Y-66199345D01*
X106538000Y-66199345D01*
X106537068Y-66198131D01*
X106517110Y-66123648D01*
X106462966Y-66069505D01*
X106388933Y-66049668D01*
X106332182Y-66060956D01*
X106322192Y-66065094D01*
X106321688Y-66065229D01*
X106297452Y-66068420D01*
X106295604Y-66067655D01*
X106295343Y-66065672D01*
X106296665Y-66064507D01*
X106383903Y-66040723D01*
X106493347Y-65973524D01*
X106537517Y-65924726D01*
X106539421Y-65924113D01*
X106540904Y-65925455D01*
G37*
G36*
X106540319Y-65050882D02*
G01*
X106541000Y-65052386D01*
X106541000Y-65323786D01*
X106540000Y-65325518D01*
X106538000Y-65325518D01*
X106537485Y-65325092D01*
X106501777Y-65283651D01*
X106394004Y-65213795D01*
X106301447Y-65186115D01*
X106300074Y-65184661D01*
X106300647Y-65182745D01*
X106302281Y-65182216D01*
X106321688Y-65184771D01*
X106322192Y-65184906D01*
X106332122Y-65189019D01*
X106408311Y-65199049D01*
X106479055Y-65169745D01*
X106525712Y-65108939D01*
X106537038Y-65051996D01*
X106538357Y-65050492D01*
X106540319Y-65050882D01*
G37*
G36*
X110916862Y-64747931D02*
G01*
X110916896Y-64749538D01*
X110869008Y-64865148D01*
X110851017Y-65001800D01*
X110869008Y-65138452D01*
X110914697Y-65248754D01*
X110914436Y-65250737D01*
X110912588Y-65251502D01*
X110911189Y-65250635D01*
X110901960Y-65236902D01*
X110844053Y-65186386D01*
X110768910Y-65171644D01*
X110696466Y-65196447D01*
X110655271Y-65243670D01*
X110653903Y-65244139D01*
X110649474Y-65250302D01*
X110649357Y-65250450D01*
X110645973Y-65254329D01*
X110645068Y-65256362D01*
X110644865Y-65256716D01*
X110643478Y-65258647D01*
X110641656Y-65259470D01*
X110640031Y-65258303D01*
X110640006Y-65256715D01*
X110688992Y-65138452D01*
X110706983Y-65001800D01*
X110688992Y-64865148D01*
X110642202Y-64752188D01*
X110642463Y-64750205D01*
X110644311Y-64749440D01*
X110645698Y-64750290D01*
X110656718Y-64766324D01*
X110715153Y-64816233D01*
X110790446Y-64830188D01*
X110862625Y-64804627D01*
X110897915Y-64763308D01*
X110899800Y-64762640D01*
X110900586Y-64762971D01*
X110901951Y-64763930D01*
X110913412Y-64747623D01*
X110915226Y-64746781D01*
X110916862Y-64747931D01*
G37*
G36*
X107692404Y-64623048D02*
G01*
X107691873Y-64624685D01*
X107683967Y-64633030D01*
X107647359Y-64700593D01*
X107649431Y-64777139D01*
X107689496Y-64842393D01*
X107756957Y-64878945D01*
X107791465Y-64883014D01*
X107793068Y-64884210D01*
X107792834Y-64886196D01*
X107791231Y-64887000D01*
X106669199Y-64887000D01*
X106620030Y-64896781D01*
X106578518Y-64924518D01*
X106550781Y-64966030D01*
X106547605Y-64981993D01*
X106546286Y-64983497D01*
X106544324Y-64983107D01*
X106543667Y-64981295D01*
X106554900Y-64909152D01*
X106527273Y-64837738D01*
X106467592Y-64789667D01*
X106407410Y-64776957D01*
X106405922Y-64775621D01*
X106406335Y-64773664D01*
X106407823Y-64773000D01*
X107303868Y-64773000D01*
X107453593Y-64753288D01*
X107592990Y-64695549D01*
X107689203Y-64621722D01*
X107691186Y-64621461D01*
X107692404Y-64623048D01*
G37*
G36*
X175559529Y-63714725D02*
G01*
X175559910Y-63715732D01*
X175560025Y-63716200D01*
X175562291Y-63734927D01*
X175590954Y-63806227D01*
X175651212Y-63853474D01*
X175727022Y-63864262D01*
X175798055Y-63835707D01*
X175847240Y-63770907D01*
X175850452Y-63762670D01*
X175852013Y-63761420D01*
X175853876Y-63762147D01*
X175854298Y-63763658D01*
X175837217Y-63893400D01*
X175853551Y-64017468D01*
X175852786Y-64019316D01*
X175850803Y-64019577D01*
X175849690Y-64018416D01*
X175848390Y-64014864D01*
X175848280Y-64014396D01*
X175847278Y-64005316D01*
X175819363Y-63933721D01*
X175759604Y-63885844D01*
X175683911Y-63874261D01*
X175612584Y-63902070D01*
X175562722Y-63966352D01*
X175558767Y-63976191D01*
X175557193Y-63977425D01*
X175555337Y-63976679D01*
X175554928Y-63975184D01*
X175572383Y-63842600D01*
X175555675Y-63715694D01*
X175556440Y-63713846D01*
X175558423Y-63713585D01*
X175559529Y-63714725D01*
G37*
G36*
X168459982Y-62789000D02*
G01*
X168459982Y-62791000D01*
X168459837Y-62791218D01*
X168440353Y-62816610D01*
X168387608Y-62943948D01*
X168385713Y-62958341D01*
X168384495Y-62959928D01*
X168382513Y-62959667D01*
X168381747Y-62958341D01*
X168371879Y-62883389D01*
X168325264Y-62822638D01*
X168254330Y-62793256D01*
X168235095Y-62791996D01*
X168233432Y-62790885D01*
X168233563Y-62788889D01*
X168235226Y-62788000D01*
X168458250Y-62788000D01*
X168459982Y-62789000D01*
G37*
G36*
X180207218Y-62607454D02*
G01*
X180236010Y-62629547D01*
X180363348Y-62682292D01*
X180387008Y-62685407D01*
X180388595Y-62686625D01*
X180388334Y-62688608D01*
X180386757Y-62689390D01*
X180316965Y-62689755D01*
X180250850Y-62728390D01*
X180212844Y-62795024D01*
X180207984Y-62832697D01*
X180206770Y-62834287D01*
X180204787Y-62834031D01*
X180204000Y-62832441D01*
X180204000Y-62609041D01*
X180205000Y-62607309D01*
X180207000Y-62607309D01*
X180207218Y-62607454D01*
G37*
G36*
X126271137Y-61768833D02*
G01*
X126272000Y-61770478D01*
X126272000Y-62183902D01*
X126271000Y-62185634D01*
X126269000Y-62185634D01*
X126268068Y-62184420D01*
X126248111Y-62109941D01*
X126193968Y-62055797D01*
X126120002Y-62035978D01*
X126046037Y-62055797D01*
X125991750Y-62110084D01*
X125989273Y-62115174D01*
X125987616Y-62116294D01*
X125985818Y-62115419D01*
X125985627Y-62113534D01*
X125985992Y-62112652D01*
X126003983Y-61976000D01*
X125985992Y-61839348D01*
X125982339Y-61830528D01*
X125982600Y-61828545D01*
X125984448Y-61827780D01*
X125985811Y-61828596D01*
X126026305Y-61884950D01*
X126096095Y-61916462D01*
X126172289Y-61908857D01*
X126234473Y-61864174D01*
X126266063Y-61794210D01*
X126268007Y-61770316D01*
X126269144Y-61768671D01*
X126271137Y-61768833D01*
G37*
G36*
X180207932Y-61512102D02*
G01*
X180227889Y-61586582D01*
X180282033Y-61640725D01*
X180356145Y-61660584D01*
X180357697Y-61660400D01*
X180359534Y-61661189D01*
X180359770Y-61663175D01*
X180358697Y-61664234D01*
X180236010Y-61715053D01*
X180207218Y-61737146D01*
X180205235Y-61737407D01*
X180204017Y-61735820D01*
X180204000Y-61735559D01*
X180204000Y-61512620D01*
X180205000Y-61510888D01*
X180207000Y-61510888D01*
X180207932Y-61512102D01*
G37*
M02*
