G04 #@! TF.GenerationSoftware,KiCad,Pcbnew,(6.0.6)*
G04 #@! TF.CreationDate,2022-07-02T23:03:49+02:00*
G04 #@! TF.ProjectId,picocart64_v1,7069636f-6361-4727-9436-345f76312e6b,rev?*
G04 #@! TF.SameCoordinates,Original*
G04 #@! TF.FileFunction,Legend,Bot*
G04 #@! TF.FilePolarity,Positive*
%FSLAX46Y46*%
G04 Gerber Fmt 4.6, Leading zero omitted, Abs format (unit mm)*
G04 Created by KiCad (PCBNEW (6.0.6)) date 2022-07-02 23:03:49*
%MOMM*%
%LPD*%
G01*
G04 APERTURE LIST*
%ADD10C,0.150000*%
%ADD11C,0.300000*%
G04 APERTURE END LIST*
D10*
X191770000Y-67945000D02*
X191770000Y-66675000D01*
X190500000Y-64135000D02*
X189865000Y-63500000D01*
X189230000Y-67945000D02*
X189230000Y-66675000D01*
X190500000Y-73660000D02*
X190500000Y-64135000D01*
X187960000Y-64135000D02*
X187325000Y-63500000D01*
X185420000Y-64135000D02*
X184785000Y-63500000D01*
X193040000Y-73660000D02*
X193040000Y-64135000D01*
X185420000Y-73660000D02*
X185420000Y-64135000D01*
X186690000Y-67945000D02*
X186690000Y-66675000D01*
X193040000Y-64135000D02*
X192405000Y-63500000D01*
X177800000Y-64135000D02*
X177800000Y-62865000D01*
X151765000Y-64135000D02*
X163195000Y-64135000D01*
X164465000Y-64135000D02*
X164465000Y-62865000D01*
X184150000Y-67945000D02*
X184150000Y-66675000D01*
X187960000Y-73660000D02*
X187960000Y-64135000D01*
X163195000Y-64135000D02*
X164465000Y-64135000D01*
X167005000Y-64135000D02*
X177800000Y-64135000D01*
D11*
X170142857Y-109678571D02*
X170857142Y-109678571D01*
X170928571Y-110392857D01*
X170857142Y-110321428D01*
X170714285Y-110250000D01*
X170357142Y-110250000D01*
X170214285Y-110321428D01*
X170142857Y-110392857D01*
X170071428Y-110535714D01*
X170071428Y-110892857D01*
X170142857Y-111035714D01*
X170214285Y-111107142D01*
X170357142Y-111178571D01*
X170714285Y-111178571D01*
X170857142Y-111107142D01*
X170928571Y-111035714D01*
X158285714Y-111178571D02*
X159142857Y-111178571D01*
X158714285Y-111178571D02*
X158714285Y-109678571D01*
X158857142Y-109892857D01*
X159000000Y-110035714D01*
X159142857Y-110107142D01*
X157357142Y-109678571D02*
X157214285Y-109678571D01*
X157071428Y-109750000D01*
X157000000Y-109821428D01*
X156928571Y-109964285D01*
X156857142Y-110250000D01*
X156857142Y-110607142D01*
X156928571Y-110892857D01*
X157000000Y-111035714D01*
X157071428Y-111107142D01*
X157214285Y-111178571D01*
X157357142Y-111178571D01*
X157500000Y-111107142D01*
X157571428Y-111035714D01*
X157642857Y-110892857D01*
X157714285Y-110607142D01*
X157714285Y-110250000D01*
X157642857Y-109964285D01*
X157571428Y-109821428D01*
X157500000Y-109750000D01*
X157357142Y-109678571D01*
X145785714Y-111178571D02*
X146642857Y-111178571D01*
X146214285Y-111178571D02*
X146214285Y-109678571D01*
X146357142Y-109892857D01*
X146500000Y-110035714D01*
X146642857Y-110107142D01*
X144428571Y-109678571D02*
X145142857Y-109678571D01*
X145214285Y-110392857D01*
X145142857Y-110321428D01*
X145000000Y-110250000D01*
X144642857Y-110250000D01*
X144500000Y-110321428D01*
X144428571Y-110392857D01*
X144357142Y-110535714D01*
X144357142Y-110892857D01*
X144428571Y-111035714D01*
X144500000Y-111107142D01*
X144642857Y-111178571D01*
X145000000Y-111178571D01*
X145142857Y-111107142D01*
X145214285Y-111035714D01*
X134142857Y-109821428D02*
X134071428Y-109750000D01*
X133928571Y-109678571D01*
X133571428Y-109678571D01*
X133428571Y-109750000D01*
X133357142Y-109821428D01*
X133285714Y-109964285D01*
X133285714Y-110107142D01*
X133357142Y-110321428D01*
X134214285Y-111178571D01*
X133285714Y-111178571D01*
X132357142Y-109678571D02*
X132214285Y-109678571D01*
X132071428Y-109750000D01*
X132000000Y-109821428D01*
X131928571Y-109964285D01*
X131857142Y-110250000D01*
X131857142Y-110607142D01*
X131928571Y-110892857D01*
X132000000Y-111035714D01*
X132071428Y-111107142D01*
X132214285Y-111178571D01*
X132357142Y-111178571D01*
X132500000Y-111107142D01*
X132571428Y-111035714D01*
X132642857Y-110892857D01*
X132714285Y-110607142D01*
X132714285Y-110250000D01*
X132642857Y-109964285D01*
X132571428Y-109821428D01*
X132500000Y-109750000D01*
X132357142Y-109678571D01*
X121642857Y-109821428D02*
X121571428Y-109750000D01*
X121428571Y-109678571D01*
X121071428Y-109678571D01*
X120928571Y-109750000D01*
X120857142Y-109821428D01*
X120785714Y-109964285D01*
X120785714Y-110107142D01*
X120857142Y-110321428D01*
X121714285Y-111178571D01*
X120785714Y-111178571D01*
X119428571Y-109678571D02*
X120142857Y-109678571D01*
X120214285Y-110392857D01*
X120142857Y-110321428D01*
X120000000Y-110250000D01*
X119642857Y-110250000D01*
X119500000Y-110321428D01*
X119428571Y-110392857D01*
X119357142Y-110535714D01*
X119357142Y-110892857D01*
X119428571Y-111035714D01*
X119500000Y-111107142D01*
X119642857Y-111178571D01*
X120000000Y-111178571D01*
X120142857Y-111107142D01*
X120214285Y-111035714D01*
D10*
X196921428Y-68280595D02*
X196921428Y-69042500D01*
X197302380Y-68661547D02*
X196540476Y-68661547D01*
X196302380Y-69423452D02*
X196302380Y-70042500D01*
X196683333Y-69709166D01*
X196683333Y-69852023D01*
X196730952Y-69947261D01*
X196778571Y-69994880D01*
X196873809Y-70042500D01*
X197111904Y-70042500D01*
X197207142Y-69994880D01*
X197254761Y-69947261D01*
X197302380Y-69852023D01*
X197302380Y-69566309D01*
X197254761Y-69471071D01*
X197207142Y-69423452D01*
X196302380Y-70328214D02*
X197302380Y-70661547D01*
X196302380Y-70994880D01*
X196302380Y-71232976D02*
X196302380Y-71852023D01*
X196683333Y-71518690D01*
X196683333Y-71661547D01*
X196730952Y-71756785D01*
X196778571Y-71804404D01*
X196873809Y-71852023D01*
X197111904Y-71852023D01*
X197207142Y-71804404D01*
X197254761Y-71756785D01*
X197302380Y-71661547D01*
X197302380Y-71375833D01*
X197254761Y-71280595D01*
X197207142Y-71232976D01*
X186237619Y-68211924D02*
X186190000Y-68259543D01*
X186142380Y-68354781D01*
X186142380Y-68592876D01*
X186190000Y-68688114D01*
X186237619Y-68735733D01*
X186332857Y-68783352D01*
X186428095Y-68783352D01*
X186570952Y-68735733D01*
X187142380Y-68164305D01*
X187142380Y-68783352D01*
X187047142Y-69211924D02*
X187094761Y-69259543D01*
X187142380Y-69211924D01*
X187094761Y-69164305D01*
X187047142Y-69211924D01*
X187142380Y-69211924D01*
X187094761Y-70402400D02*
X187142380Y-70545257D01*
X187142380Y-70783352D01*
X187094761Y-70878590D01*
X187047142Y-70926209D01*
X186951904Y-70973828D01*
X186856666Y-70973828D01*
X186761428Y-70926209D01*
X186713809Y-70878590D01*
X186666190Y-70783352D01*
X186618571Y-70592876D01*
X186570952Y-70497638D01*
X186523333Y-70450019D01*
X186428095Y-70402400D01*
X186332857Y-70402400D01*
X186237619Y-70450019D01*
X186190000Y-70497638D01*
X186142380Y-70592876D01*
X186142380Y-70830971D01*
X186190000Y-70973828D01*
X187142380Y-71402400D02*
X186142380Y-71402400D01*
X186142380Y-72069067D02*
X186142380Y-72259543D01*
X186190000Y-72354781D01*
X186285238Y-72450019D01*
X186475714Y-72497638D01*
X186809047Y-72497638D01*
X186999523Y-72450019D01*
X187094761Y-72354781D01*
X187142380Y-72259543D01*
X187142380Y-72069067D01*
X187094761Y-71973828D01*
X186999523Y-71878590D01*
X186809047Y-71830971D01*
X186475714Y-71830971D01*
X186285238Y-71878590D01*
X186190000Y-71973828D01*
X186142380Y-72069067D01*
X186142380Y-73116686D02*
X186142380Y-73211924D01*
X186190000Y-73307162D01*
X186237619Y-73354781D01*
X186332857Y-73402400D01*
X186523333Y-73450019D01*
X186761428Y-73450019D01*
X186951904Y-73402400D01*
X187047142Y-73354781D01*
X187094761Y-73307162D01*
X187142380Y-73211924D01*
X187142380Y-73116686D01*
X187094761Y-73021448D01*
X187047142Y-72973828D01*
X186951904Y-72926209D01*
X186761428Y-72878590D01*
X186523333Y-72878590D01*
X186332857Y-72926209D01*
X186237619Y-72973828D01*
X186190000Y-73021448D01*
X186142380Y-73116686D01*
X173124761Y-65057976D02*
X173172380Y-65200833D01*
X173172380Y-65438928D01*
X173124761Y-65534166D01*
X173077142Y-65581785D01*
X172981904Y-65629404D01*
X172886666Y-65629404D01*
X172791428Y-65581785D01*
X172743809Y-65534166D01*
X172696190Y-65438928D01*
X172648571Y-65248452D01*
X172600952Y-65153214D01*
X172553333Y-65105595D01*
X172458095Y-65057976D01*
X172362857Y-65057976D01*
X172267619Y-65105595D01*
X172220000Y-65153214D01*
X172172380Y-65248452D01*
X172172380Y-65486547D01*
X172220000Y-65629404D01*
X172172380Y-65962738D02*
X173172380Y-66200833D01*
X172458095Y-66391309D01*
X173172380Y-66581785D01*
X172172380Y-66819880D01*
X173077142Y-67772261D02*
X173124761Y-67724642D01*
X173172380Y-67581785D01*
X173172380Y-67486547D01*
X173124761Y-67343690D01*
X173029523Y-67248452D01*
X172934285Y-67200833D01*
X172743809Y-67153214D01*
X172600952Y-67153214D01*
X172410476Y-67200833D01*
X172315238Y-67248452D01*
X172220000Y-67343690D01*
X172172380Y-67486547D01*
X172172380Y-67581785D01*
X172220000Y-67724642D01*
X172267619Y-67772261D01*
X173172380Y-68677023D02*
X173172380Y-68200833D01*
X172172380Y-68200833D01*
X173172380Y-69010357D02*
X172172380Y-69010357D01*
X173172380Y-69581785D02*
X172600952Y-69153214D01*
X172172380Y-69581785D02*
X172743809Y-69010357D01*
X191555714Y-68647717D02*
X192222380Y-68647717D01*
X191174761Y-68409622D02*
X191889047Y-68171527D01*
X191889047Y-68790574D01*
X192127142Y-69171527D02*
X192174761Y-69219146D01*
X192222380Y-69171527D01*
X192174761Y-69123908D01*
X192127142Y-69171527D01*
X192222380Y-69171527D01*
X192174761Y-70362003D02*
X192222380Y-70504860D01*
X192222380Y-70742955D01*
X192174761Y-70838193D01*
X192127142Y-70885812D01*
X192031904Y-70933431D01*
X191936666Y-70933431D01*
X191841428Y-70885812D01*
X191793809Y-70838193D01*
X191746190Y-70742955D01*
X191698571Y-70552479D01*
X191650952Y-70457241D01*
X191603333Y-70409622D01*
X191508095Y-70362003D01*
X191412857Y-70362003D01*
X191317619Y-70409622D01*
X191270000Y-70457241D01*
X191222380Y-70552479D01*
X191222380Y-70790574D01*
X191270000Y-70933431D01*
X192127142Y-71933431D02*
X192174761Y-71885812D01*
X192222380Y-71742955D01*
X192222380Y-71647717D01*
X192174761Y-71504860D01*
X192079523Y-71409622D01*
X191984285Y-71362003D01*
X191793809Y-71314384D01*
X191650952Y-71314384D01*
X191460476Y-71362003D01*
X191365238Y-71409622D01*
X191270000Y-71504860D01*
X191222380Y-71647717D01*
X191222380Y-71742955D01*
X191270000Y-71885812D01*
X191317619Y-71933431D01*
X192222380Y-72838193D02*
X192222380Y-72362003D01*
X191222380Y-72362003D01*
X192222380Y-73171527D02*
X191222380Y-73171527D01*
X192222380Y-73742955D02*
X191650952Y-73314384D01*
X191222380Y-73742955D02*
X191793809Y-73171527D01*
X177300000Y-65629404D02*
X177252380Y-65534166D01*
X177252380Y-65391309D01*
X177300000Y-65248452D01*
X177395238Y-65153214D01*
X177490476Y-65105595D01*
X177680952Y-65057976D01*
X177823809Y-65057976D01*
X178014285Y-65105595D01*
X178109523Y-65153214D01*
X178204761Y-65248452D01*
X178252380Y-65391309D01*
X178252380Y-65486547D01*
X178204761Y-65629404D01*
X178157142Y-65677023D01*
X177823809Y-65677023D01*
X177823809Y-65486547D01*
X178252380Y-66105595D02*
X177252380Y-66105595D01*
X178252380Y-66677023D01*
X177252380Y-66677023D01*
X178252380Y-67153214D02*
X177252380Y-67153214D01*
X177252380Y-67391309D01*
X177300000Y-67534166D01*
X177395238Y-67629404D01*
X177490476Y-67677023D01*
X177680952Y-67724642D01*
X177823809Y-67724642D01*
X178014285Y-67677023D01*
X178109523Y-67629404D01*
X178204761Y-67534166D01*
X178252380Y-67391309D01*
X178252380Y-67153214D01*
X193810000Y-68821237D02*
X193762380Y-68725999D01*
X193762380Y-68583142D01*
X193810000Y-68440285D01*
X193905238Y-68345047D01*
X194000476Y-68297428D01*
X194190952Y-68249809D01*
X194333809Y-68249809D01*
X194524285Y-68297428D01*
X194619523Y-68345047D01*
X194714761Y-68440285D01*
X194762380Y-68583142D01*
X194762380Y-68678380D01*
X194714761Y-68821237D01*
X194667142Y-68868856D01*
X194333809Y-68868856D01*
X194333809Y-68678380D01*
X194762380Y-69297428D02*
X193762380Y-69297428D01*
X194762380Y-69868856D01*
X193762380Y-69868856D01*
X194762380Y-70345047D02*
X193762380Y-70345047D01*
X193762380Y-70583142D01*
X193810000Y-70725999D01*
X193905238Y-70821237D01*
X194000476Y-70868856D01*
X194190952Y-70916475D01*
X194333809Y-70916475D01*
X194524285Y-70868856D01*
X194619523Y-70821237D01*
X194714761Y-70725999D01*
X194762380Y-70583142D01*
X194762380Y-70345047D01*
X188682380Y-68144106D02*
X188682380Y-68763153D01*
X189063333Y-68429820D01*
X189063333Y-68572677D01*
X189110952Y-68667915D01*
X189158571Y-68715534D01*
X189253809Y-68763153D01*
X189491904Y-68763153D01*
X189587142Y-68715534D01*
X189634761Y-68667915D01*
X189682380Y-68572677D01*
X189682380Y-68286963D01*
X189634761Y-68191725D01*
X189587142Y-68144106D01*
X189587142Y-69191725D02*
X189634761Y-69239344D01*
X189682380Y-69191725D01*
X189634761Y-69144106D01*
X189587142Y-69191725D01*
X189682380Y-69191725D01*
X189634761Y-70382201D02*
X189682380Y-70525058D01*
X189682380Y-70763153D01*
X189634761Y-70858391D01*
X189587142Y-70906010D01*
X189491904Y-70953629D01*
X189396666Y-70953629D01*
X189301428Y-70906010D01*
X189253809Y-70858391D01*
X189206190Y-70763153D01*
X189158571Y-70572677D01*
X189110952Y-70477439D01*
X189063333Y-70429820D01*
X188968095Y-70382201D01*
X188872857Y-70382201D01*
X188777619Y-70429820D01*
X188730000Y-70477439D01*
X188682380Y-70572677D01*
X188682380Y-70810772D01*
X188730000Y-70953629D01*
X189682380Y-71382201D02*
X188682380Y-71382201D01*
X188682380Y-72048868D02*
X188682380Y-72239344D01*
X188730000Y-72334582D01*
X188825238Y-72429820D01*
X189015714Y-72477439D01*
X189349047Y-72477439D01*
X189539523Y-72429820D01*
X189634761Y-72334582D01*
X189682380Y-72239344D01*
X189682380Y-72048868D01*
X189634761Y-71953629D01*
X189539523Y-71858391D01*
X189349047Y-71810772D01*
X189015714Y-71810772D01*
X188825238Y-71858391D01*
X188730000Y-71953629D01*
X188682380Y-72048868D01*
X189682380Y-73429820D02*
X189682380Y-72858391D01*
X189682380Y-73144106D02*
X188682380Y-73144106D01*
X188825238Y-73048868D01*
X188920476Y-72953629D01*
X188968095Y-72858391D01*
X187412380Y-75054946D02*
X187412380Y-74864470D01*
X187460000Y-74769232D01*
X187507619Y-74721613D01*
X187650476Y-74626375D01*
X187840952Y-74578756D01*
X188221904Y-74578756D01*
X188317142Y-74626375D01*
X188364761Y-74673994D01*
X188412380Y-74769232D01*
X188412380Y-74959708D01*
X188364761Y-75054946D01*
X188317142Y-75102565D01*
X188221904Y-75150184D01*
X187983809Y-75150184D01*
X187888571Y-75102565D01*
X187840952Y-75054946D01*
X187793333Y-74959708D01*
X187793333Y-74769232D01*
X187840952Y-74673994D01*
X187888571Y-74626375D01*
X187983809Y-74578756D01*
X188317142Y-75578756D02*
X188364761Y-75626375D01*
X188412380Y-75578756D01*
X188364761Y-75531137D01*
X188317142Y-75578756D01*
X188412380Y-75578756D01*
X188364761Y-76769232D02*
X188412380Y-76912089D01*
X188412380Y-77150184D01*
X188364761Y-77245422D01*
X188317142Y-77293041D01*
X188221904Y-77340660D01*
X188126666Y-77340660D01*
X188031428Y-77293041D01*
X187983809Y-77245422D01*
X187936190Y-77150184D01*
X187888571Y-76959708D01*
X187840952Y-76864470D01*
X187793333Y-76816851D01*
X187698095Y-76769232D01*
X187602857Y-76769232D01*
X187507619Y-76816851D01*
X187460000Y-76864470D01*
X187412380Y-76959708D01*
X187412380Y-77197803D01*
X187460000Y-77340660D01*
X188412380Y-77769232D02*
X187412380Y-77769232D01*
X187412380Y-78435899D02*
X187412380Y-78626375D01*
X187460000Y-78721613D01*
X187555238Y-78816851D01*
X187745714Y-78864470D01*
X188079047Y-78864470D01*
X188269523Y-78816851D01*
X188364761Y-78721613D01*
X188412380Y-78626375D01*
X188412380Y-78435899D01*
X188364761Y-78340660D01*
X188269523Y-78245422D01*
X188079047Y-78197803D01*
X187745714Y-78197803D01*
X187555238Y-78245422D01*
X187460000Y-78340660D01*
X187412380Y-78435899D01*
X187412380Y-79197803D02*
X187412380Y-79816851D01*
X187793333Y-79483518D01*
X187793333Y-79626375D01*
X187840952Y-79721613D01*
X187888571Y-79769232D01*
X187983809Y-79816851D01*
X188221904Y-79816851D01*
X188317142Y-79769232D01*
X188364761Y-79721613D01*
X188412380Y-79626375D01*
X188412380Y-79340660D01*
X188364761Y-79245422D01*
X188317142Y-79197803D01*
X189952380Y-74510938D02*
X189952380Y-75177604D01*
X190952380Y-74749033D01*
X190857142Y-75558557D02*
X190904761Y-75606176D01*
X190952380Y-75558557D01*
X190904761Y-75510938D01*
X190857142Y-75558557D01*
X190952380Y-75558557D01*
X189670000Y-76558557D02*
X189670000Y-77558557D01*
X190857142Y-77368081D02*
X190904761Y-77320461D01*
X190952380Y-77177604D01*
X190952380Y-77082366D01*
X190904761Y-76939509D01*
X190809523Y-76844271D01*
X190714285Y-76796652D01*
X190523809Y-76749033D01*
X190380952Y-76749033D01*
X190190476Y-76796652D01*
X190095238Y-76844271D01*
X190000000Y-76939509D01*
X189952380Y-77082366D01*
X189952380Y-77177604D01*
X190000000Y-77320461D01*
X190047619Y-77368081D01*
X189670000Y-77558557D02*
X189670000Y-78510938D01*
X190904761Y-77749033D02*
X190952380Y-77891890D01*
X190952380Y-78129985D01*
X190904761Y-78225223D01*
X190857142Y-78272842D01*
X190761904Y-78320461D01*
X190666666Y-78320461D01*
X190571428Y-78272842D01*
X190523809Y-78225223D01*
X190476190Y-78129985D01*
X190428571Y-77939509D01*
X190380952Y-77844271D01*
X190333333Y-77796652D01*
X190238095Y-77749033D01*
X190142857Y-77749033D01*
X190047619Y-77796652D01*
X190000000Y-77844271D01*
X189952380Y-77939509D01*
X189952380Y-78177604D01*
X190000000Y-78320461D01*
X189670000Y-78510938D02*
X189670000Y-79463319D01*
X189952380Y-78939509D02*
X189952380Y-79034747D01*
X190000000Y-79129985D01*
X190047619Y-79177604D01*
X190142857Y-79225223D01*
X190333333Y-79272842D01*
X190571428Y-79272842D01*
X190761904Y-79225223D01*
X190857142Y-79177604D01*
X190904761Y-79129985D01*
X190952380Y-79034747D01*
X190952380Y-78939509D01*
X190904761Y-78844271D01*
X190857142Y-78796652D01*
X190761904Y-78749033D01*
X190571428Y-78701414D01*
X190333333Y-78701414D01*
X190142857Y-78749033D01*
X190047619Y-78796652D01*
X190000000Y-78844271D01*
X189952380Y-78939509D01*
X184872380Y-75106785D02*
X184872380Y-74630595D01*
X185348571Y-74582976D01*
X185300952Y-74630595D01*
X185253333Y-74725833D01*
X185253333Y-74963928D01*
X185300952Y-75059166D01*
X185348571Y-75106785D01*
X185443809Y-75154404D01*
X185681904Y-75154404D01*
X185777142Y-75106785D01*
X185824761Y-75059166D01*
X185872380Y-74963928D01*
X185872380Y-74725833D01*
X185824761Y-74630595D01*
X185777142Y-74582976D01*
X185777142Y-75582976D02*
X185824761Y-75630595D01*
X185872380Y-75582976D01*
X185824761Y-75535357D01*
X185777142Y-75582976D01*
X185872380Y-75582976D01*
X185824761Y-76773452D02*
X185872380Y-76916309D01*
X185872380Y-77154404D01*
X185824761Y-77249642D01*
X185777142Y-77297261D01*
X185681904Y-77344880D01*
X185586666Y-77344880D01*
X185491428Y-77297261D01*
X185443809Y-77249642D01*
X185396190Y-77154404D01*
X185348571Y-76963928D01*
X185300952Y-76868690D01*
X185253333Y-76821071D01*
X185158095Y-76773452D01*
X185062857Y-76773452D01*
X184967619Y-76821071D01*
X184920000Y-76868690D01*
X184872380Y-76963928D01*
X184872380Y-77202023D01*
X184920000Y-77344880D01*
X185872380Y-77773452D02*
X184872380Y-77773452D01*
X184872380Y-78440119D02*
X184872380Y-78630595D01*
X184920000Y-78725833D01*
X185015238Y-78821071D01*
X185205714Y-78868690D01*
X185539047Y-78868690D01*
X185729523Y-78821071D01*
X185824761Y-78725833D01*
X185872380Y-78630595D01*
X185872380Y-78440119D01*
X185824761Y-78344880D01*
X185729523Y-78249642D01*
X185539047Y-78202023D01*
X185205714Y-78202023D01*
X185015238Y-78249642D01*
X184920000Y-78344880D01*
X184872380Y-78440119D01*
X184967619Y-79249642D02*
X184920000Y-79297261D01*
X184872380Y-79392500D01*
X184872380Y-79630595D01*
X184920000Y-79725833D01*
X184967619Y-79773452D01*
X185062857Y-79821071D01*
X185158095Y-79821071D01*
X185300952Y-79773452D01*
X185872380Y-79202023D01*
X185872380Y-79821071D01*
X167711428Y-65105595D02*
X167711428Y-65867500D01*
X168092380Y-65486547D02*
X167330476Y-65486547D01*
X167092380Y-66248452D02*
X167092380Y-66867500D01*
X167473333Y-66534166D01*
X167473333Y-66677023D01*
X167520952Y-66772261D01*
X167568571Y-66819880D01*
X167663809Y-66867500D01*
X167901904Y-66867500D01*
X167997142Y-66819880D01*
X168044761Y-66772261D01*
X168092380Y-66677023D01*
X168092380Y-66391309D01*
X168044761Y-66296071D01*
X167997142Y-66248452D01*
X167092380Y-67153214D02*
X168092380Y-67486547D01*
X167092380Y-67819880D01*
X167092380Y-68057976D02*
X167092380Y-68677023D01*
X167473333Y-68343690D01*
X167473333Y-68486547D01*
X167520952Y-68581785D01*
X167568571Y-68629404D01*
X167663809Y-68677023D01*
X167901904Y-68677023D01*
X167997142Y-68629404D01*
X168044761Y-68581785D01*
X168092380Y-68486547D01*
X168092380Y-68200833D01*
X168044761Y-68105595D01*
X167997142Y-68057976D01*
X169350000Y-64867500D02*
X169350000Y-65867500D01*
X170632380Y-65677023D02*
X170156190Y-65343690D01*
X170632380Y-65105595D02*
X169632380Y-65105595D01*
X169632380Y-65486547D01*
X169680000Y-65581785D01*
X169727619Y-65629404D01*
X169822857Y-65677023D01*
X169965714Y-65677023D01*
X170060952Y-65629404D01*
X170108571Y-65581785D01*
X170156190Y-65486547D01*
X170156190Y-65105595D01*
X169350000Y-65867500D02*
X169350000Y-66819880D01*
X170584761Y-66057976D02*
X170632380Y-66200833D01*
X170632380Y-66438928D01*
X170584761Y-66534166D01*
X170537142Y-66581785D01*
X170441904Y-66629404D01*
X170346666Y-66629404D01*
X170251428Y-66581785D01*
X170203809Y-66534166D01*
X170156190Y-66438928D01*
X170108571Y-66248452D01*
X170060952Y-66153214D01*
X170013333Y-66105595D01*
X169918095Y-66057976D01*
X169822857Y-66057976D01*
X169727619Y-66105595D01*
X169680000Y-66153214D01*
X169632380Y-66248452D01*
X169632380Y-66486547D01*
X169680000Y-66629404D01*
X169350000Y-66819880D02*
X169350000Y-67581785D01*
X169632380Y-66915119D02*
X169632380Y-67486547D01*
X170632380Y-67200833D02*
X169632380Y-67200833D01*
D11*
X179571428Y-111178571D02*
X180428571Y-111178571D01*
X180000000Y-111178571D02*
X180000000Y-109678571D01*
X180142857Y-109892857D01*
X180285714Y-110035714D01*
X180428571Y-110107142D01*
D10*
X175664761Y-65057976D02*
X175712380Y-65200833D01*
X175712380Y-65438928D01*
X175664761Y-65534166D01*
X175617142Y-65581785D01*
X175521904Y-65629404D01*
X175426666Y-65629404D01*
X175331428Y-65581785D01*
X175283809Y-65534166D01*
X175236190Y-65438928D01*
X175188571Y-65248452D01*
X175140952Y-65153214D01*
X175093333Y-65105595D01*
X174998095Y-65057976D01*
X174902857Y-65057976D01*
X174807619Y-65105595D01*
X174760000Y-65153214D01*
X174712380Y-65248452D01*
X174712380Y-65486547D01*
X174760000Y-65629404D01*
X174712380Y-65962738D02*
X175712380Y-66200833D01*
X174998095Y-66391309D01*
X175712380Y-66581785D01*
X174712380Y-66819880D01*
X175712380Y-67200833D02*
X174712380Y-67200833D01*
X174712380Y-67438928D01*
X174760000Y-67581785D01*
X174855238Y-67677023D01*
X174950476Y-67724642D01*
X175140952Y-67772261D01*
X175283809Y-67772261D01*
X175474285Y-67724642D01*
X175569523Y-67677023D01*
X175664761Y-67581785D01*
X175712380Y-67438928D01*
X175712380Y-67200833D01*
X175712380Y-68200833D02*
X174712380Y-68200833D01*
X174712380Y-68867500D02*
X174712380Y-69057976D01*
X174760000Y-69153214D01*
X174855238Y-69248452D01*
X175045714Y-69296071D01*
X175379047Y-69296071D01*
X175569523Y-69248452D01*
X175664761Y-69153214D01*
X175712380Y-69057976D01*
X175712380Y-68867500D01*
X175664761Y-68772261D01*
X175569523Y-68677023D01*
X175379047Y-68629404D01*
X175045714Y-68629404D01*
X174855238Y-68677023D01*
X174760000Y-68772261D01*
X174712380Y-68867500D01*
X184602380Y-68787572D02*
X184602380Y-68216144D01*
X184602380Y-68501858D02*
X183602380Y-68501858D01*
X183745238Y-68406620D01*
X183840476Y-68311382D01*
X183888095Y-68216144D01*
X184507142Y-69216144D02*
X184554761Y-69263763D01*
X184602380Y-69216144D01*
X184554761Y-69168525D01*
X184507142Y-69216144D01*
X184602380Y-69216144D01*
X183320000Y-70216144D02*
X183320000Y-71168525D01*
X184554761Y-70406620D02*
X184602380Y-70549477D01*
X184602380Y-70787572D01*
X184554761Y-70882810D01*
X184507142Y-70930429D01*
X184411904Y-70978048D01*
X184316666Y-70978048D01*
X184221428Y-70930429D01*
X184173809Y-70882810D01*
X184126190Y-70787572D01*
X184078571Y-70597096D01*
X184030952Y-70501858D01*
X183983333Y-70454239D01*
X183888095Y-70406620D01*
X183792857Y-70406620D01*
X183697619Y-70454239D01*
X183650000Y-70501858D01*
X183602380Y-70597096D01*
X183602380Y-70835191D01*
X183650000Y-70978048D01*
X183320000Y-71168525D02*
X183320000Y-72120906D01*
X184554761Y-71359001D02*
X184602380Y-71501858D01*
X184602380Y-71739953D01*
X184554761Y-71835191D01*
X184507142Y-71882810D01*
X184411904Y-71930429D01*
X184316666Y-71930429D01*
X184221428Y-71882810D01*
X184173809Y-71835191D01*
X184126190Y-71739953D01*
X184078571Y-71549477D01*
X184030952Y-71454239D01*
X183983333Y-71406620D01*
X183888095Y-71359001D01*
X183792857Y-71359001D01*
X183697619Y-71406620D01*
X183650000Y-71454239D01*
X183602380Y-71549477D01*
X183602380Y-71787572D01*
X183650000Y-71930429D01*
X192920952Y-74728835D02*
X192873333Y-74633597D01*
X192825714Y-74585978D01*
X192730476Y-74538359D01*
X192682857Y-74538359D01*
X192587619Y-74585978D01*
X192540000Y-74633597D01*
X192492380Y-74728835D01*
X192492380Y-74919311D01*
X192540000Y-75014549D01*
X192587619Y-75062168D01*
X192682857Y-75109787D01*
X192730476Y-75109787D01*
X192825714Y-75062168D01*
X192873333Y-75014549D01*
X192920952Y-74919311D01*
X192920952Y-74728835D01*
X192968571Y-74633597D01*
X193016190Y-74585978D01*
X193111428Y-74538359D01*
X193301904Y-74538359D01*
X193397142Y-74585978D01*
X193444761Y-74633597D01*
X193492380Y-74728835D01*
X193492380Y-74919311D01*
X193444761Y-75014549D01*
X193397142Y-75062168D01*
X193301904Y-75109787D01*
X193111428Y-75109787D01*
X193016190Y-75062168D01*
X192968571Y-75014549D01*
X192920952Y-74919311D01*
X193397142Y-75538359D02*
X193444761Y-75585978D01*
X193492380Y-75538359D01*
X193444761Y-75490740D01*
X193397142Y-75538359D01*
X193492380Y-75538359D01*
X193492380Y-76776454D02*
X192492380Y-76776454D01*
X193492380Y-77347883D01*
X192492380Y-77347883D01*
X192444761Y-78538359D02*
X193730476Y-77681216D01*
X193397142Y-79443121D02*
X193444761Y-79395502D01*
X193492380Y-79252644D01*
X193492380Y-79157406D01*
X193444761Y-79014549D01*
X193349523Y-78919311D01*
X193254285Y-78871692D01*
X193063809Y-78824073D01*
X192920952Y-78824073D01*
X192730476Y-78871692D01*
X192635238Y-78919311D01*
X192540000Y-79014549D01*
X192492380Y-79157406D01*
X192492380Y-79252644D01*
X192540000Y-79395502D01*
X192587619Y-79443121D01*
D11*
X190674285Y-107045142D02*
X191340952Y-107045142D01*
X191340952Y-108092761D02*
X191340952Y-106092761D01*
X190388571Y-106092761D01*
X189626666Y-108092761D02*
X189626666Y-106759428D01*
X189626666Y-107140380D02*
X189531428Y-106949904D01*
X189436190Y-106854666D01*
X189245714Y-106759428D01*
X189055238Y-106759428D01*
X188102857Y-108092761D02*
X188293333Y-107997523D01*
X188388571Y-107902285D01*
X188483809Y-107711809D01*
X188483809Y-107140380D01*
X188388571Y-106949904D01*
X188293333Y-106854666D01*
X188102857Y-106759428D01*
X187817142Y-106759428D01*
X187626666Y-106854666D01*
X187531428Y-106949904D01*
X187436190Y-107140380D01*
X187436190Y-107711809D01*
X187531428Y-107902285D01*
X187626666Y-107997523D01*
X187817142Y-108092761D01*
X188102857Y-108092761D01*
X186579047Y-106759428D02*
X186579047Y-108092761D01*
X186579047Y-106949904D02*
X186483809Y-106854666D01*
X186293333Y-106759428D01*
X186007619Y-106759428D01*
X185817142Y-106854666D01*
X185721904Y-107045142D01*
X185721904Y-108092761D01*
X185055238Y-106759428D02*
X184293333Y-106759428D01*
X184769523Y-106092761D02*
X184769523Y-107807047D01*
X184674285Y-107997523D01*
X184483809Y-108092761D01*
X184293333Y-108092761D01*
X179723732Y-102504761D02*
X179723732Y-100504761D01*
X178866589Y-102504761D02*
X178866589Y-101457142D01*
X178961827Y-101266666D01*
X179152303Y-101171428D01*
X179438018Y-101171428D01*
X179628494Y-101266666D01*
X179723732Y-101361904D01*
X178199923Y-101171428D02*
X177438018Y-101171428D01*
X177914208Y-100504761D02*
X177914208Y-102219047D01*
X177818970Y-102409523D01*
X177628494Y-102504761D01*
X177438018Y-102504761D01*
X177057065Y-101171428D02*
X176295161Y-101171428D01*
X176771351Y-100504761D02*
X176771351Y-102219047D01*
X176676113Y-102409523D01*
X176485637Y-102504761D01*
X176295161Y-102504761D01*
X175628494Y-101171428D02*
X175628494Y-103171428D01*
X175628494Y-101266666D02*
X175438018Y-101171428D01*
X175057065Y-101171428D01*
X174866589Y-101266666D01*
X174771351Y-101361904D01*
X174676113Y-101552380D01*
X174676113Y-102123809D01*
X174771351Y-102314285D01*
X174866589Y-102409523D01*
X175057065Y-102504761D01*
X175438018Y-102504761D01*
X175628494Y-102409523D01*
X173914208Y-102409523D02*
X173723732Y-102504761D01*
X173342780Y-102504761D01*
X173152303Y-102409523D01*
X173057065Y-102219047D01*
X173057065Y-102123809D01*
X173152303Y-101933333D01*
X173342780Y-101838095D01*
X173628494Y-101838095D01*
X173818970Y-101742857D01*
X173914208Y-101552380D01*
X173914208Y-101457142D01*
X173818970Y-101266666D01*
X173628494Y-101171428D01*
X173342780Y-101171428D01*
X173152303Y-101266666D01*
X172199923Y-102314285D02*
X172104684Y-102409523D01*
X172199923Y-102504761D01*
X172295161Y-102409523D01*
X172199923Y-102314285D01*
X172199923Y-102504761D01*
X172199923Y-101266666D02*
X172104684Y-101361904D01*
X172199923Y-101457142D01*
X172295161Y-101361904D01*
X172199923Y-101266666D01*
X172199923Y-101457142D01*
X169818970Y-100409523D02*
X171533256Y-102980952D01*
X167723732Y-100409523D02*
X169438018Y-102980952D01*
X166199923Y-101171428D02*
X166199923Y-102790476D01*
X166295161Y-102980952D01*
X166390399Y-103076190D01*
X166580875Y-103171428D01*
X166866589Y-103171428D01*
X167057065Y-103076190D01*
X166199923Y-102409523D02*
X166390399Y-102504761D01*
X166771351Y-102504761D01*
X166961827Y-102409523D01*
X167057065Y-102314285D01*
X167152303Y-102123809D01*
X167152303Y-101552380D01*
X167057065Y-101361904D01*
X166961827Y-101266666D01*
X166771351Y-101171428D01*
X166390399Y-101171428D01*
X166199923Y-101266666D01*
X165247542Y-102504761D02*
X165247542Y-101171428D01*
X165247542Y-100504761D02*
X165342780Y-100600000D01*
X165247542Y-100695238D01*
X165152303Y-100600000D01*
X165247542Y-100504761D01*
X165247542Y-100695238D01*
X164580875Y-101171428D02*
X163818970Y-101171428D01*
X164295161Y-100504761D02*
X164295161Y-102219047D01*
X164199923Y-102409523D01*
X164009446Y-102504761D01*
X163818970Y-102504761D01*
X163152303Y-102504761D02*
X163152303Y-100504761D01*
X162295161Y-102504761D02*
X162295161Y-101457142D01*
X162390399Y-101266666D01*
X162580875Y-101171428D01*
X162866589Y-101171428D01*
X163057065Y-101266666D01*
X163152303Y-101361904D01*
X160485637Y-101171428D02*
X160485637Y-102504761D01*
X161342780Y-101171428D02*
X161342780Y-102219047D01*
X161247542Y-102409523D01*
X161057065Y-102504761D01*
X160771351Y-102504761D01*
X160580875Y-102409523D01*
X160485637Y-102314285D01*
X159533256Y-102504761D02*
X159533256Y-100504761D01*
X159533256Y-101266666D02*
X159342780Y-101171428D01*
X158961827Y-101171428D01*
X158771351Y-101266666D01*
X158676113Y-101361904D01*
X158580875Y-101552380D01*
X158580875Y-102123809D01*
X158676113Y-102314285D01*
X158771351Y-102409523D01*
X158961827Y-102504761D01*
X159342780Y-102504761D01*
X159533256Y-102409523D01*
X157723732Y-102314285D02*
X157628494Y-102409523D01*
X157723732Y-102504761D01*
X157818970Y-102409523D01*
X157723732Y-102314285D01*
X157723732Y-102504761D01*
X155914208Y-102409523D02*
X156104684Y-102504761D01*
X156485637Y-102504761D01*
X156676113Y-102409523D01*
X156771351Y-102314285D01*
X156866589Y-102123809D01*
X156866589Y-101552380D01*
X156771351Y-101361904D01*
X156676113Y-101266666D01*
X156485637Y-101171428D01*
X156104684Y-101171428D01*
X155914208Y-101266666D01*
X154771351Y-102504761D02*
X154961827Y-102409523D01*
X155057065Y-102314285D01*
X155152303Y-102123809D01*
X155152303Y-101552380D01*
X155057065Y-101361904D01*
X154961827Y-101266666D01*
X154771351Y-101171428D01*
X154485637Y-101171428D01*
X154295161Y-101266666D01*
X154199923Y-101361904D01*
X154104684Y-101552380D01*
X154104684Y-102123809D01*
X154199923Y-102314285D01*
X154295161Y-102409523D01*
X154485637Y-102504761D01*
X154771351Y-102504761D01*
X153247542Y-102504761D02*
X153247542Y-101171428D01*
X153247542Y-101361904D02*
X153152303Y-101266666D01*
X152961827Y-101171428D01*
X152676113Y-101171428D01*
X152485637Y-101266666D01*
X152390399Y-101457142D01*
X152390399Y-102504761D01*
X152390399Y-101457142D02*
X152295161Y-101266666D01*
X152104684Y-101171428D01*
X151818970Y-101171428D01*
X151628494Y-101266666D01*
X151533256Y-101457142D01*
X151533256Y-102504761D01*
X149152303Y-100409523D02*
X150866589Y-102980952D01*
X148485637Y-102504761D02*
X148485637Y-100504761D01*
X148295161Y-101742857D02*
X147723732Y-102504761D01*
X147723732Y-101171428D02*
X148485637Y-101933333D01*
X146866589Y-102504761D02*
X146866589Y-100504761D01*
X146866589Y-101266666D02*
X146676113Y-101171428D01*
X146295161Y-101171428D01*
X146104684Y-101266666D01*
X146009446Y-101361904D01*
X145914208Y-101552380D01*
X145914208Y-102123809D01*
X146009446Y-102314285D01*
X146104684Y-102409523D01*
X146295161Y-102504761D01*
X146676113Y-102504761D01*
X146866589Y-102409523D01*
X144295161Y-102409523D02*
X144485637Y-102504761D01*
X144866589Y-102504761D01*
X145057065Y-102409523D01*
X145152303Y-102219047D01*
X145152303Y-101457142D01*
X145057065Y-101266666D01*
X144866589Y-101171428D01*
X144485637Y-101171428D01*
X144295161Y-101266666D01*
X144199923Y-101457142D01*
X144199923Y-101647619D01*
X145152303Y-101838095D01*
X142485637Y-102409523D02*
X142676113Y-102504761D01*
X143057065Y-102504761D01*
X143247542Y-102409523D01*
X143342780Y-102314285D01*
X143438018Y-102123809D01*
X143438018Y-101552380D01*
X143342780Y-101361904D01*
X143247542Y-101266666D01*
X143057065Y-101171428D01*
X142676113Y-101171428D01*
X142485637Y-101266666D01*
X141628494Y-102504761D02*
X141628494Y-100504761D01*
X141438018Y-101742857D02*
X140866589Y-102504761D01*
X140866589Y-101171428D02*
X141628494Y-101933333D01*
X140009446Y-102504761D02*
X140009446Y-101171428D01*
X140009446Y-101361904D02*
X139914208Y-101266666D01*
X139723732Y-101171428D01*
X139438018Y-101171428D01*
X139247542Y-101266666D01*
X139152303Y-101457142D01*
X139152303Y-102504761D01*
X139152303Y-101457142D02*
X139057065Y-101266666D01*
X138866589Y-101171428D01*
X138580875Y-101171428D01*
X138390399Y-101266666D01*
X138295161Y-101457142D01*
X138295161Y-102504761D01*
X136485637Y-102504761D02*
X136485637Y-101457142D01*
X136580875Y-101266666D01*
X136771351Y-101171428D01*
X137152303Y-101171428D01*
X137342780Y-101266666D01*
X136485637Y-102409523D02*
X136676113Y-102504761D01*
X137152303Y-102504761D01*
X137342780Y-102409523D01*
X137438018Y-102219047D01*
X137438018Y-102028571D01*
X137342780Y-101838095D01*
X137152303Y-101742857D01*
X136676113Y-101742857D01*
X136485637Y-101647619D01*
X135533256Y-101171428D02*
X135533256Y-102504761D01*
X135533256Y-101361904D02*
X135438018Y-101266666D01*
X135247542Y-101171428D01*
X134961827Y-101171428D01*
X134771351Y-101266666D01*
X134676113Y-101457142D01*
X134676113Y-102504761D01*
X133723732Y-101171428D02*
X133723732Y-102504761D01*
X133723732Y-101361904D02*
X133628494Y-101266666D01*
X133438018Y-101171428D01*
X133152303Y-101171428D01*
X132961827Y-101266666D01*
X132866589Y-101457142D01*
X132866589Y-102504761D01*
X130485637Y-100409523D02*
X132199923Y-102980952D01*
X129818970Y-102504761D02*
X129818970Y-100504761D01*
X129057065Y-100504761D01*
X128866589Y-100600000D01*
X128771351Y-100695238D01*
X128676113Y-100885714D01*
X128676113Y-101171428D01*
X128771351Y-101361904D01*
X128866589Y-101457142D01*
X129057065Y-101552380D01*
X129818970Y-101552380D01*
X127818970Y-102504761D02*
X127818970Y-101171428D01*
X127818970Y-100504761D02*
X127914208Y-100600000D01*
X127818970Y-100695238D01*
X127723732Y-100600000D01*
X127818970Y-100504761D01*
X127818970Y-100695238D01*
X126009446Y-102409523D02*
X126199923Y-102504761D01*
X126580875Y-102504761D01*
X126771351Y-102409523D01*
X126866589Y-102314285D01*
X126961827Y-102123809D01*
X126961827Y-101552380D01*
X126866589Y-101361904D01*
X126771351Y-101266666D01*
X126580875Y-101171428D01*
X126199923Y-101171428D01*
X126009446Y-101266666D01*
X124866589Y-102504761D02*
X125057065Y-102409523D01*
X125152303Y-102314285D01*
X125247542Y-102123809D01*
X125247542Y-101552380D01*
X125152303Y-101361904D01*
X125057065Y-101266666D01*
X124866589Y-101171428D01*
X124580875Y-101171428D01*
X124390399Y-101266666D01*
X124295161Y-101361904D01*
X124199923Y-101552380D01*
X124199923Y-102123809D01*
X124295161Y-102314285D01*
X124390399Y-102409523D01*
X124580875Y-102504761D01*
X124866589Y-102504761D01*
X122199923Y-102314285D02*
X122295161Y-102409523D01*
X122580875Y-102504761D01*
X122771351Y-102504761D01*
X123057065Y-102409523D01*
X123247542Y-102219047D01*
X123342780Y-102028571D01*
X123438018Y-101647619D01*
X123438018Y-101361904D01*
X123342780Y-100980952D01*
X123247542Y-100790476D01*
X123057065Y-100600000D01*
X122771351Y-100504761D01*
X122580875Y-100504761D01*
X122295161Y-100600000D01*
X122199923Y-100695238D01*
X120485637Y-102504761D02*
X120485637Y-101457142D01*
X120580875Y-101266666D01*
X120771351Y-101171428D01*
X121152303Y-101171428D01*
X121342780Y-101266666D01*
X120485637Y-102409523D02*
X120676113Y-102504761D01*
X121152303Y-102504761D01*
X121342780Y-102409523D01*
X121438018Y-102219047D01*
X121438018Y-102028571D01*
X121342780Y-101838095D01*
X121152303Y-101742857D01*
X120676113Y-101742857D01*
X120485637Y-101647619D01*
X119533256Y-102504761D02*
X119533256Y-101171428D01*
X119533256Y-101552380D02*
X119438018Y-101361904D01*
X119342780Y-101266666D01*
X119152303Y-101171428D01*
X118961827Y-101171428D01*
X118580875Y-101171428D02*
X117818970Y-101171428D01*
X118295161Y-100504761D02*
X118295161Y-102219047D01*
X118199923Y-102409523D01*
X118009446Y-102504761D01*
X117818970Y-102504761D01*
X116295161Y-100504761D02*
X116676113Y-100504761D01*
X116866589Y-100600000D01*
X116961827Y-100695238D01*
X117152303Y-100980952D01*
X117247542Y-101361904D01*
X117247542Y-102123809D01*
X117152303Y-102314285D01*
X117057065Y-102409523D01*
X116866589Y-102504761D01*
X116485637Y-102504761D01*
X116295161Y-102409523D01*
X116199923Y-102314285D01*
X116104684Y-102123809D01*
X116104684Y-101647619D01*
X116199923Y-101457142D01*
X116295161Y-101361904D01*
X116485637Y-101266666D01*
X116866589Y-101266666D01*
X117057065Y-101361904D01*
X117152303Y-101457142D01*
X117247542Y-101647619D01*
X114390399Y-101171428D02*
X114390399Y-102504761D01*
X114866589Y-100409523D02*
X115342780Y-101838095D01*
X114104684Y-101838095D01*
X133034523Y-69580238D02*
X132939285Y-69485000D01*
X132748809Y-69389761D01*
X132272619Y-69389761D01*
X132082142Y-69485000D01*
X131986904Y-69580238D01*
X131891666Y-69770714D01*
X131891666Y-69961190D01*
X131986904Y-70246904D01*
X133129761Y-71389761D01*
X131891666Y-71389761D01*
X130653571Y-69389761D02*
X130463095Y-69389761D01*
X130272619Y-69485000D01*
X130177380Y-69580238D01*
X130082142Y-69770714D01*
X129986904Y-70151666D01*
X129986904Y-70627857D01*
X130082142Y-71008809D01*
X130177380Y-71199285D01*
X130272619Y-71294523D01*
X130463095Y-71389761D01*
X130653571Y-71389761D01*
X130844047Y-71294523D01*
X130939285Y-71199285D01*
X131034523Y-71008809D01*
X131129761Y-70627857D01*
X131129761Y-70151666D01*
X131034523Y-69770714D01*
X130939285Y-69580238D01*
X130844047Y-69485000D01*
X130653571Y-69389761D01*
X129225000Y-69580238D02*
X129129761Y-69485000D01*
X128939285Y-69389761D01*
X128463095Y-69389761D01*
X128272619Y-69485000D01*
X128177380Y-69580238D01*
X128082142Y-69770714D01*
X128082142Y-69961190D01*
X128177380Y-70246904D01*
X129320238Y-71389761D01*
X128082142Y-71389761D01*
X127320238Y-69580238D02*
X127225000Y-69485000D01*
X127034523Y-69389761D01*
X126558333Y-69389761D01*
X126367857Y-69485000D01*
X126272619Y-69580238D01*
X126177380Y-69770714D01*
X126177380Y-69961190D01*
X126272619Y-70246904D01*
X127415476Y-71389761D01*
X126177380Y-71389761D01*
X125320238Y-70627857D02*
X123796428Y-70627857D01*
X122463095Y-69389761D02*
X122272619Y-69389761D01*
X122082142Y-69485000D01*
X121986904Y-69580238D01*
X121891666Y-69770714D01*
X121796428Y-70151666D01*
X121796428Y-70627857D01*
X121891666Y-71008809D01*
X121986904Y-71199285D01*
X122082142Y-71294523D01*
X122272619Y-71389761D01*
X122463095Y-71389761D01*
X122653571Y-71294523D01*
X122748809Y-71199285D01*
X122844047Y-71008809D01*
X122939285Y-70627857D01*
X122939285Y-70151666D01*
X122844047Y-69770714D01*
X122748809Y-69580238D01*
X122653571Y-69485000D01*
X122463095Y-69389761D01*
X121129761Y-69389761D02*
X119796428Y-69389761D01*
X120653571Y-71389761D01*
X119034523Y-70627857D02*
X117510714Y-70627857D01*
X116177380Y-69389761D02*
X115986904Y-69389761D01*
X115796428Y-69485000D01*
X115701190Y-69580238D01*
X115605952Y-69770714D01*
X115510714Y-70151666D01*
X115510714Y-70627857D01*
X115605952Y-71008809D01*
X115701190Y-71199285D01*
X115796428Y-71294523D01*
X115986904Y-71389761D01*
X116177380Y-71389761D01*
X116367857Y-71294523D01*
X116463095Y-71199285D01*
X116558333Y-71008809D01*
X116653571Y-70627857D01*
X116653571Y-70151666D01*
X116558333Y-69770714D01*
X116463095Y-69580238D01*
X116367857Y-69485000D01*
X116177380Y-69389761D01*
X114748809Y-69580238D02*
X114653571Y-69485000D01*
X114463095Y-69389761D01*
X113986904Y-69389761D01*
X113796428Y-69485000D01*
X113701190Y-69580238D01*
X113605952Y-69770714D01*
X113605952Y-69961190D01*
X113701190Y-70246904D01*
X114844047Y-71389761D01*
X113605952Y-71389761D01*
X136979600Y-67579761D02*
X136979600Y-65579761D01*
X136217696Y-65579761D01*
X136027219Y-65675000D01*
X135931981Y-65770238D01*
X135836743Y-65960714D01*
X135836743Y-66246428D01*
X135931981Y-66436904D01*
X136027219Y-66532142D01*
X136217696Y-66627380D01*
X136979600Y-66627380D01*
X134979600Y-67579761D02*
X134979600Y-66246428D01*
X134979600Y-65579761D02*
X135074838Y-65675000D01*
X134979600Y-65770238D01*
X134884362Y-65675000D01*
X134979600Y-65579761D01*
X134979600Y-65770238D01*
X133170077Y-67484523D02*
X133360553Y-67579761D01*
X133741505Y-67579761D01*
X133931981Y-67484523D01*
X134027219Y-67389285D01*
X134122457Y-67198809D01*
X134122457Y-66627380D01*
X134027219Y-66436904D01*
X133931981Y-66341666D01*
X133741505Y-66246428D01*
X133360553Y-66246428D01*
X133170077Y-66341666D01*
X132027219Y-67579761D02*
X132217696Y-67484523D01*
X132312934Y-67389285D01*
X132408172Y-67198809D01*
X132408172Y-66627380D01*
X132312934Y-66436904D01*
X132217696Y-66341666D01*
X132027219Y-66246428D01*
X131741505Y-66246428D01*
X131551029Y-66341666D01*
X131455791Y-66436904D01*
X131360553Y-66627380D01*
X131360553Y-67198809D01*
X131455791Y-67389285D01*
X131551029Y-67484523D01*
X131741505Y-67579761D01*
X132027219Y-67579761D01*
X129360553Y-67389285D02*
X129455791Y-67484523D01*
X129741505Y-67579761D01*
X129931981Y-67579761D01*
X130217696Y-67484523D01*
X130408172Y-67294047D01*
X130503410Y-67103571D01*
X130598648Y-66722619D01*
X130598648Y-66436904D01*
X130503410Y-66055952D01*
X130408172Y-65865476D01*
X130217696Y-65675000D01*
X129931981Y-65579761D01*
X129741505Y-65579761D01*
X129455791Y-65675000D01*
X129360553Y-65770238D01*
X127646267Y-67579761D02*
X127646267Y-66532142D01*
X127741505Y-66341666D01*
X127931981Y-66246428D01*
X128312934Y-66246428D01*
X128503410Y-66341666D01*
X127646267Y-67484523D02*
X127836743Y-67579761D01*
X128312934Y-67579761D01*
X128503410Y-67484523D01*
X128598648Y-67294047D01*
X128598648Y-67103571D01*
X128503410Y-66913095D01*
X128312934Y-66817857D01*
X127836743Y-66817857D01*
X127646267Y-66722619D01*
X126693886Y-67579761D02*
X126693886Y-66246428D01*
X126693886Y-66627380D02*
X126598648Y-66436904D01*
X126503410Y-66341666D01*
X126312934Y-66246428D01*
X126122457Y-66246428D01*
X125741505Y-66246428D02*
X124979600Y-66246428D01*
X125455791Y-65579761D02*
X125455791Y-67294047D01*
X125360553Y-67484523D01*
X125170077Y-67579761D01*
X124979600Y-67579761D01*
X123455791Y-65579761D02*
X123836743Y-65579761D01*
X124027219Y-65675000D01*
X124122457Y-65770238D01*
X124312934Y-66055952D01*
X124408172Y-66436904D01*
X124408172Y-67198809D01*
X124312934Y-67389285D01*
X124217696Y-67484523D01*
X124027219Y-67579761D01*
X123646267Y-67579761D01*
X123455791Y-67484523D01*
X123360553Y-67389285D01*
X123265315Y-67198809D01*
X123265315Y-66722619D01*
X123360553Y-66532142D01*
X123455791Y-66436904D01*
X123646267Y-66341666D01*
X124027219Y-66341666D01*
X124217696Y-66436904D01*
X124312934Y-66532142D01*
X124408172Y-66722619D01*
X121551029Y-66246428D02*
X121551029Y-67579761D01*
X122027219Y-65484523D02*
X122503410Y-66913095D01*
X121265315Y-66913095D01*
X119170077Y-66246428D02*
X118693886Y-67579761D01*
X118217696Y-66246428D01*
X116408172Y-67579761D02*
X117551029Y-67579761D01*
X116979600Y-67579761D02*
X116979600Y-65579761D01*
X117170077Y-65865476D01*
X117360553Y-66055952D01*
X117551029Y-66151190D01*
X115551029Y-67389285D02*
X115455791Y-67484523D01*
X115551029Y-67579761D01*
X115646267Y-67484523D01*
X115551029Y-67389285D01*
X115551029Y-67579761D01*
X113551029Y-67579761D02*
X114693886Y-67579761D01*
X114122457Y-67579761D02*
X114122457Y-65579761D01*
X114312934Y-65865476D01*
X114503410Y-66055952D01*
X114693886Y-66151190D01*
M02*
