G04 #@! TF.GenerationSoftware,KiCad,Pcbnew,(6.0.5)*
G04 #@! TF.CreationDate,2022-06-22T00:44:10+02:00*
G04 #@! TF.ProjectId,picocart64_v1,7069636f-6361-4727-9436-345f76312e6b,rev?*
G04 #@! TF.SameCoordinates,Original*
G04 #@! TF.FileFunction,Copper,L1,Top*
G04 #@! TF.FilePolarity,Positive*
%FSLAX46Y46*%
G04 Gerber Fmt 4.6, Leading zero omitted, Abs format (unit mm)*
G04 Created by KiCad (PCBNEW (6.0.5)) date 2022-06-22 00:44:10*
%MOMM*%
%LPD*%
G01*
G04 APERTURE LIST*
G04 Aperture macros list*
%AMRoundRect*
0 Rectangle with rounded corners*
0 $1 Rounding radius*
0 $2 $3 $4 $5 $6 $7 $8 $9 X,Y pos of 4 corners*
0 Add a 4 corners polygon primitive as box body*
4,1,4,$2,$3,$4,$5,$6,$7,$8,$9,$2,$3,0*
0 Add four circle primitives for the rounded corners*
1,1,$1+$1,$2,$3*
1,1,$1+$1,$4,$5*
1,1,$1+$1,$6,$7*
1,1,$1+$1,$8,$9*
0 Add four rect primitives between the rounded corners*
20,1,$1+$1,$2,$3,$4,$5,0*
20,1,$1+$1,$4,$5,$6,$7,0*
20,1,$1+$1,$6,$7,$8,$9,0*
20,1,$1+$1,$8,$9,$2,$3,0*%
%AMFreePoly0*
4,1,6,1.000000,0.000000,0.500000,-0.750000,-0.500000,-0.750000,-0.500000,0.750000,0.500000,0.750000,1.000000,0.000000,1.000000,0.000000,$1*%
%AMFreePoly1*
4,1,6,0.500000,-0.750000,-0.650000,-0.750000,-0.150000,0.000000,-0.650000,0.750000,0.500000,0.750000,0.500000,-0.750000,0.500000,-0.750000,$1*%
G04 Aperture macros list end*
G04 #@! TA.AperFunction,ComponentPad*
%ADD10C,1.350000*%
G04 #@! TD*
G04 #@! TA.AperFunction,ComponentPad*
%ADD11R,1.300000X0.900000*%
G04 #@! TD*
G04 #@! TA.AperFunction,ComponentPad*
%ADD12O,2.000000X0.950000*%
G04 #@! TD*
G04 #@! TA.AperFunction,SMDPad,CuDef*
%ADD13R,2.800000X1.500000*%
G04 #@! TD*
G04 #@! TA.AperFunction,ComponentPad*
%ADD14O,1.350000X1.350000*%
G04 #@! TD*
G04 #@! TA.AperFunction,SMDPad,CuDef*
%ADD15R,1.500000X2.800000*%
G04 #@! TD*
G04 #@! TA.AperFunction,ComponentPad*
%ADD16R,0.900000X1.300000*%
G04 #@! TD*
G04 #@! TA.AperFunction,ComponentPad*
%ADD17O,0.950000X2.000000*%
G04 #@! TD*
G04 #@! TA.AperFunction,ComponentPad*
%ADD18C,2.500000*%
G04 #@! TD*
G04 #@! TA.AperFunction,SMDPad,CuDef*
%ADD19FreePoly0,0.000000*%
G04 #@! TD*
G04 #@! TA.AperFunction,SMDPad,CuDef*
%ADD20FreePoly1,0.000000*%
G04 #@! TD*
G04 #@! TA.AperFunction,ComponentPad*
%ADD21R,1.700000X1.700000*%
G04 #@! TD*
G04 #@! TA.AperFunction,ComponentPad*
%ADD22O,1.700000X1.700000*%
G04 #@! TD*
G04 #@! TA.AperFunction,SMDPad,CuDef*
%ADD23R,1.750000X0.300000*%
G04 #@! TD*
G04 #@! TA.AperFunction,ComponentPad*
%ADD24O,2.100000X0.900000*%
G04 #@! TD*
G04 #@! TA.AperFunction,ComponentPad*
%ADD25O,1.600000X1.000000*%
G04 #@! TD*
G04 #@! TA.AperFunction,SMDPad,CuDef*
%ADD26RoundRect,0.200000X-0.200000X-0.275000X0.200000X-0.275000X0.200000X0.275000X-0.200000X0.275000X0*%
G04 #@! TD*
G04 #@! TA.AperFunction,SMDPad,CuDef*
%ADD27R,0.850000X1.100000*%
G04 #@! TD*
G04 #@! TA.AperFunction,SMDPad,CuDef*
%ADD28R,0.750000X1.100000*%
G04 #@! TD*
G04 #@! TA.AperFunction,SMDPad,CuDef*
%ADD29R,1.200000X1.000000*%
G04 #@! TD*
G04 #@! TA.AperFunction,SMDPad,CuDef*
%ADD30R,1.900000X1.350000*%
G04 #@! TD*
G04 #@! TA.AperFunction,SMDPad,CuDef*
%ADD31R,1.170000X1.800000*%
G04 #@! TD*
G04 #@! TA.AperFunction,SMDPad,CuDef*
%ADD32R,1.550000X1.350000*%
G04 #@! TD*
G04 #@! TA.AperFunction,SMDPad,CuDef*
%ADD33RoundRect,0.200000X0.200000X0.275000X-0.200000X0.275000X-0.200000X-0.275000X0.200000X-0.275000X0*%
G04 #@! TD*
G04 #@! TA.AperFunction,SMDPad,CuDef*
%ADD34R,2.180000X1.600000*%
G04 #@! TD*
G04 #@! TA.AperFunction,SMDPad,CuDef*
%ADD35RoundRect,0.150000X-0.587500X-0.150000X0.587500X-0.150000X0.587500X0.150000X-0.587500X0.150000X0*%
G04 #@! TD*
G04 #@! TA.AperFunction,SMDPad,CuDef*
%ADD36RoundRect,0.218750X-0.218750X-0.256250X0.218750X-0.256250X0.218750X0.256250X-0.218750X0.256250X0*%
G04 #@! TD*
G04 #@! TA.AperFunction,SMDPad,CuDef*
%ADD37R,1.500000X7.000000*%
G04 #@! TD*
G04 #@! TA.AperFunction,ViaPad*
%ADD38C,0.800000*%
G04 #@! TD*
G04 #@! TA.AperFunction,Conductor*
%ADD39C,0.200000*%
G04 #@! TD*
G04 #@! TA.AperFunction,Conductor*
%ADD40C,0.203200*%
G04 #@! TD*
G04 #@! TA.AperFunction,Conductor*
%ADD41C,1.000000*%
G04 #@! TD*
G04 #@! TA.AperFunction,Conductor*
%ADD42C,0.406400*%
G04 #@! TD*
G04 #@! TA.AperFunction,Conductor*
%ADD43C,0.400000*%
G04 #@! TD*
G04 #@! TA.AperFunction,Conductor*
%ADD44C,1.016000*%
G04 #@! TD*
G04 #@! TA.AperFunction,Conductor*
%ADD45C,0.800000*%
G04 #@! TD*
G04 APERTURE END LIST*
D10*
X139000000Y-71000000D03*
D11*
X135300000Y-71000000D03*
D12*
X137150000Y-71000000D03*
D13*
X138350000Y-71000000D03*
X138350000Y-73000000D03*
D14*
X139000000Y-73000000D03*
D12*
X137150000Y-73000000D03*
D11*
X135300000Y-73000000D03*
D12*
X137150000Y-75000000D03*
D13*
X138350000Y-75000000D03*
D14*
X139000000Y-75000000D03*
D11*
X135300000Y-75000000D03*
D14*
X139000000Y-77000000D03*
D13*
X138350000Y-77000000D03*
D12*
X137150000Y-77000000D03*
D11*
X135300000Y-77000000D03*
X135300000Y-79000000D03*
D13*
X138350000Y-79000000D03*
D12*
X137150000Y-79000000D03*
D14*
X139000000Y-79000000D03*
X139000000Y-81000000D03*
D11*
X135300000Y-81000000D03*
D12*
X137150000Y-81000000D03*
D13*
X138350000Y-81000000D03*
D12*
X137150000Y-83000000D03*
D13*
X138350000Y-83000000D03*
D14*
X139000000Y-83000000D03*
D11*
X135300000Y-83000000D03*
D14*
X139000000Y-85000000D03*
D12*
X137150000Y-85000000D03*
D13*
X138350000Y-85000000D03*
D11*
X135300000Y-85000000D03*
D12*
X137150000Y-87000000D03*
D11*
X135300000Y-87000000D03*
D14*
X139000000Y-87000000D03*
D13*
X138350000Y-87000000D03*
D14*
X139000000Y-89000000D03*
D13*
X138350000Y-89000000D03*
D12*
X137150000Y-89000000D03*
D11*
X135300000Y-89000000D03*
D15*
X141000000Y-91650000D03*
D16*
X141000000Y-94700000D03*
D14*
X141000000Y-91000000D03*
D17*
X141000000Y-92850000D03*
D14*
X143000000Y-91000000D03*
D15*
X143000000Y-91650000D03*
D17*
X143000000Y-92850000D03*
D16*
X143000000Y-94700000D03*
D14*
X145000000Y-91000000D03*
D15*
X145000000Y-91650000D03*
D16*
X145000000Y-94700000D03*
D17*
X145000000Y-92850000D03*
D16*
X147000000Y-94700000D03*
D14*
X147000000Y-91000000D03*
D17*
X147000000Y-92850000D03*
D15*
X147000000Y-91650000D03*
D16*
X149000000Y-94700000D03*
D14*
X149000000Y-91000000D03*
D15*
X149000000Y-91650000D03*
D17*
X149000000Y-92850000D03*
D15*
X151000000Y-91650000D03*
D14*
X151000000Y-91000000D03*
D16*
X151000000Y-94700000D03*
D17*
X151000000Y-92850000D03*
D14*
X153000000Y-91000000D03*
D15*
X153000000Y-91650000D03*
D16*
X153000000Y-94700000D03*
D17*
X153000000Y-92850000D03*
D16*
X155000000Y-94700000D03*
D17*
X155000000Y-92850000D03*
D14*
X155000000Y-91000000D03*
D15*
X155000000Y-91650000D03*
D17*
X157000000Y-92850000D03*
D15*
X157000000Y-91650000D03*
D16*
X157000000Y-94700000D03*
D14*
X157000000Y-91000000D03*
D15*
X159000000Y-91650000D03*
D16*
X159000000Y-94700000D03*
D14*
X159000000Y-91000000D03*
D17*
X159000000Y-92850000D03*
D14*
X161000000Y-89000000D03*
D13*
X161650000Y-89000000D03*
D11*
X164700000Y-89000000D03*
D12*
X162850000Y-89000000D03*
D14*
X161000000Y-87000000D03*
D11*
X164700000Y-87000000D03*
D13*
X161650000Y-87000000D03*
D12*
X162850000Y-87000000D03*
D14*
X161000000Y-85000000D03*
D11*
X164700000Y-85000000D03*
D12*
X162850000Y-85000000D03*
D13*
X161650000Y-85000000D03*
X161650000Y-83000000D03*
D14*
X161000000Y-83000000D03*
D11*
X164700000Y-83000000D03*
D12*
X162850000Y-83000000D03*
D11*
X164700000Y-81000000D03*
D14*
X161000000Y-81000000D03*
D13*
X161650000Y-81000000D03*
D12*
X162850000Y-81000000D03*
D11*
X164700000Y-79000000D03*
D13*
X161650000Y-79000000D03*
D12*
X162850000Y-79000000D03*
D14*
X161000000Y-79000000D03*
X161000000Y-77000000D03*
D13*
X161650000Y-77000000D03*
D11*
X164700000Y-77000000D03*
D12*
X162850000Y-77000000D03*
D14*
X161000000Y-75000000D03*
D11*
X164700000Y-75000000D03*
D13*
X161650000Y-75000000D03*
D12*
X162850000Y-75000000D03*
D14*
X161000000Y-73000000D03*
D11*
X164700000Y-73000000D03*
D13*
X161650000Y-73000000D03*
D12*
X162850000Y-73000000D03*
D11*
X164700000Y-71000000D03*
D12*
X162850000Y-71000000D03*
D14*
X161000000Y-71000000D03*
D13*
X161650000Y-71000000D03*
D16*
X159000000Y-65300000D03*
D15*
X159000000Y-68350000D03*
D14*
X159000000Y-69000000D03*
D17*
X159000000Y-67150000D03*
X157000000Y-67150000D03*
D16*
X157000000Y-65300000D03*
D15*
X157000000Y-68350000D03*
D14*
X157000000Y-69000000D03*
X155000000Y-69000000D03*
D15*
X155000000Y-68350000D03*
D16*
X155000000Y-65300000D03*
D17*
X155000000Y-67150000D03*
D14*
X153000000Y-69000000D03*
D17*
X153000000Y-67150000D03*
D16*
X153000000Y-65300000D03*
D15*
X153000000Y-68350000D03*
X151000000Y-68350000D03*
D16*
X151000000Y-65300000D03*
D14*
X151000000Y-69000000D03*
D17*
X151000000Y-67150000D03*
X149000000Y-67150000D03*
D15*
X149000000Y-68350000D03*
D14*
X149000000Y-69000000D03*
D16*
X149000000Y-65300000D03*
D14*
X147000000Y-69000000D03*
D15*
X147000000Y-68350000D03*
D17*
X147000000Y-67150000D03*
D16*
X147000000Y-65300000D03*
X145000000Y-65300000D03*
D17*
X145000000Y-67150000D03*
D15*
X145000000Y-68350000D03*
D14*
X145000000Y-69000000D03*
D16*
X143000000Y-65300000D03*
D14*
X143000000Y-69000000D03*
D15*
X143000000Y-68350000D03*
D17*
X143000000Y-67150000D03*
D16*
X141000000Y-65300000D03*
D15*
X141000000Y-68350000D03*
D17*
X141000000Y-67150000D03*
D14*
X141000000Y-69000000D03*
D18*
X102850000Y-112600000D03*
X197650000Y-112600000D03*
D19*
X176059000Y-84378800D03*
D20*
X177509000Y-84378800D03*
D21*
X152913000Y-62484000D03*
D22*
X155453000Y-62484000D03*
X157993000Y-62484000D03*
X160533000Y-62484000D03*
X163073000Y-62484000D03*
D19*
X176059000Y-81813400D03*
D20*
X177509000Y-81813400D03*
D23*
X107544000Y-65165000D03*
X107544000Y-65965000D03*
X107544000Y-67265000D03*
X107544000Y-68265000D03*
X107544000Y-68765000D03*
X107544000Y-69765000D03*
X107544000Y-71065000D03*
X107544000Y-71865000D03*
X107544000Y-71565000D03*
X107544000Y-70765000D03*
X107544000Y-70265000D03*
X107544000Y-69265000D03*
X107544000Y-67765000D03*
X107544000Y-66765000D03*
X107544000Y-66265000D03*
X107544000Y-65465000D03*
D24*
X106704000Y-64195000D03*
D25*
X102524000Y-64195000D03*
D24*
X106704000Y-72835000D03*
D25*
X102524000Y-72835000D03*
D26*
X105500000Y-76000000D03*
X107150000Y-76000000D03*
D27*
X170631000Y-61860000D03*
X171731000Y-61860000D03*
X172831000Y-61860000D03*
X173931000Y-61860000D03*
X175031000Y-61860000D03*
X176131000Y-61860000D03*
X177231000Y-61860000D03*
D28*
X178281000Y-61860000D03*
D29*
X167996000Y-68010000D03*
X167996000Y-71710000D03*
D30*
X177466000Y-72685000D03*
X171496000Y-72685000D03*
D31*
X179491000Y-62210000D03*
D32*
X168171000Y-61985000D03*
D33*
X108325000Y-62000000D03*
X106675000Y-62000000D03*
D34*
X127490000Y-61976000D03*
X136670000Y-61976000D03*
D19*
X176059000Y-79248000D03*
D20*
X177509000Y-79248000D03*
D19*
X176059000Y-76682600D03*
D20*
X177509000Y-76682600D03*
D33*
X103825000Y-76000000D03*
X102175000Y-76000000D03*
D35*
X115562500Y-72800000D03*
X115562500Y-74700000D03*
X117437500Y-73750000D03*
D21*
X196825000Y-65569000D03*
D22*
X196825000Y-63029000D03*
X194285000Y-65569000D03*
X194285000Y-63029000D03*
X191745000Y-65569000D03*
X191745000Y-63029000D03*
X189205000Y-65569000D03*
X189205000Y-63029000D03*
X186665000Y-65569000D03*
X186665000Y-63029000D03*
X184125000Y-65569000D03*
X184125000Y-63029000D03*
D36*
X113500000Y-70500000D03*
X115075000Y-70500000D03*
D37*
X180241000Y-116332000D03*
X177741000Y-116332000D03*
X175241000Y-116332000D03*
X172741000Y-116332000D03*
X170241000Y-116332000D03*
X167741000Y-116332000D03*
X165241000Y-116332000D03*
X162741000Y-116332000D03*
X160241000Y-116332000D03*
X157741000Y-116332000D03*
X155241000Y-116332000D03*
X152741000Y-116332000D03*
X150241000Y-116332000D03*
X147741000Y-116332000D03*
X145241000Y-116332000D03*
X142741000Y-116332000D03*
X140241000Y-116332000D03*
X137741000Y-116332000D03*
X135241000Y-116332000D03*
X132741000Y-116332000D03*
X130241000Y-116332000D03*
X127741000Y-116332000D03*
X125241000Y-116332000D03*
X122741000Y-116332000D03*
X120241000Y-116332000D03*
D38*
X110200000Y-73001800D03*
X110200000Y-72001800D03*
X111400000Y-72001800D03*
X111400000Y-73001800D03*
X102108000Y-105156000D03*
X180250000Y-111350000D03*
X180250000Y-110400000D03*
X177750000Y-111350000D03*
X177750000Y-110400000D03*
X167750000Y-110400000D03*
X167750000Y-111350000D03*
X127750000Y-111350000D03*
X127750000Y-110400000D03*
X125250000Y-110400000D03*
X125250000Y-111350000D03*
X120250000Y-111350000D03*
X120250000Y-110400000D03*
X198000000Y-108000000D03*
X159000000Y-70250000D03*
X122428000Y-68072000D03*
X110179000Y-65001800D03*
X159000000Y-71250000D03*
X107250000Y-77000000D03*
X111379000Y-65001800D03*
X129032000Y-66548000D03*
X168148000Y-60960000D03*
X120904000Y-64516000D03*
X132588000Y-66548000D03*
X198000000Y-109000000D03*
X180500000Y-62172300D03*
X177500000Y-71000000D03*
X166750000Y-68000000D03*
X118364000Y-67056000D03*
X125984000Y-66548000D03*
X125476000Y-61976000D03*
X102000000Y-77000000D03*
X176500000Y-63250000D03*
X102108000Y-106680000D03*
X135636000Y-66548000D03*
X113000000Y-74750000D03*
X174752000Y-66548000D03*
X148500000Y-83750000D03*
X157734000Y-80010000D03*
X138430000Y-96774000D03*
X179324000Y-77724000D03*
X142500000Y-101000000D03*
X150500000Y-89250000D03*
X160241000Y-110259000D03*
X119500000Y-74000000D03*
X140241000Y-110259000D03*
X140241000Y-111259000D03*
X160241000Y-111252000D03*
X139750000Y-97750000D03*
X179000000Y-81750000D03*
X135250000Y-110250000D03*
X158250000Y-86000000D03*
X149352000Y-86106000D03*
X143750000Y-102000000D03*
X152750000Y-88000000D03*
X139000000Y-108000000D03*
X116250000Y-70500000D03*
X155000000Y-70750000D03*
X132080000Y-71000000D03*
X175250000Y-102000000D03*
X172500000Y-103500000D03*
X133604000Y-73000000D03*
X170250000Y-106045000D03*
X132080000Y-75000000D03*
X165250000Y-107000000D03*
X133604000Y-77000000D03*
X155250000Y-106500000D03*
X131826000Y-78994000D03*
X152250000Y-107750000D03*
X130302000Y-81000000D03*
X128778000Y-83000000D03*
X145000000Y-105750000D03*
X127508000Y-85000000D03*
X142750000Y-107000000D03*
X126500000Y-87000000D03*
X146250000Y-108204000D03*
X149750000Y-107250000D03*
X153500000Y-106500000D03*
X163750000Y-105750000D03*
X168656000Y-107950000D03*
X171704000Y-107950000D03*
X174498000Y-107950000D03*
X162750000Y-109500000D03*
X154432000Y-98044000D03*
X156750000Y-107500000D03*
X155448000Y-99060000D03*
X156972000Y-99568000D03*
X157750000Y-100500000D03*
X146500000Y-85000000D03*
X134620000Y-92456000D03*
X131500000Y-107250000D03*
X147000000Y-71500000D03*
X145000000Y-71250000D03*
X142750000Y-70750000D03*
X139700000Y-67564000D03*
X139700000Y-61976000D03*
X133096000Y-91694000D03*
X147000000Y-82500000D03*
X130250000Y-109500000D03*
X153500000Y-80500000D03*
X180000000Y-84250000D03*
X110200000Y-66401800D03*
X111400000Y-70701800D03*
X110200000Y-70701800D03*
X111400000Y-66401800D03*
X167132000Y-76250000D03*
X175006000Y-63250000D03*
X177800000Y-66040000D03*
X175500000Y-74000000D03*
X185420000Y-70104000D03*
X176276000Y-67564000D03*
X169672000Y-75184000D03*
X170688000Y-65024000D03*
X180340000Y-79756000D03*
X172212000Y-66040000D03*
X169164000Y-78232000D03*
X181864000Y-82296000D03*
X169672000Y-64008000D03*
D39*
X149000000Y-69000000D02*
X149000000Y-65600000D01*
X151000000Y-69000000D02*
X151000000Y-65600000D01*
D40*
X108748200Y-68751800D02*
X119248200Y-68751800D01*
X119248200Y-68751800D02*
X124500000Y-63500000D01*
X151000000Y-64640000D02*
X151000000Y-65600000D01*
X124500000Y-63500000D02*
X149860000Y-63500000D01*
X149860000Y-63500000D02*
X151000000Y-64640000D01*
X139000000Y-89000000D02*
X135600000Y-89000000D01*
X147000000Y-69000000D02*
X147000000Y-65600000D01*
X145000000Y-69000000D02*
X145000000Y-65600000D01*
X143000000Y-69000000D02*
X143000000Y-65600000D01*
X141000000Y-69000000D02*
X141000000Y-65600000D01*
X155000000Y-67150000D02*
X155000000Y-65600000D01*
X157000000Y-67150000D02*
X157000000Y-65600000D01*
X159000000Y-67150000D02*
X159000000Y-65600000D01*
X161650000Y-85000000D02*
X164400000Y-85000000D01*
X162850000Y-87000000D02*
X164400000Y-87000000D01*
X164400000Y-89000000D02*
X162850000Y-89000000D01*
X150500000Y-89250000D02*
X161400000Y-89250000D01*
X161650000Y-81000000D02*
X166090000Y-81000000D01*
X166090000Y-81000000D02*
X166878000Y-81788000D01*
X166878000Y-81788000D02*
X176059000Y-81788000D01*
X176059000Y-81788000D02*
X176059000Y-80989000D01*
X176059000Y-80989000D02*
X176548000Y-80500000D01*
X176548000Y-80500000D02*
X179000000Y-80500000D01*
X179000000Y-80500000D02*
X179744000Y-79756000D01*
X179744000Y-79756000D02*
X180340000Y-79756000D01*
X161650000Y-83000000D02*
X166312000Y-83000000D01*
X166312000Y-83000000D02*
X167386000Y-84074000D01*
X167386000Y-84074000D02*
X176059000Y-84074000D01*
X176059000Y-84074000D02*
X176059000Y-83529000D01*
X176059000Y-83529000D02*
X176588000Y-83000000D01*
X176588000Y-83000000D02*
X181160000Y-83000000D01*
X181160000Y-83000000D02*
X181864000Y-82296000D01*
X168148000Y-60960000D02*
X168148000Y-61962000D01*
X168148000Y-61962000D02*
X168171000Y-61985000D01*
D39*
X149000000Y-67150000D02*
X149000000Y-64672000D01*
X149000000Y-64672000D02*
X148336000Y-64008000D01*
X148336000Y-64008000D02*
X124992000Y-64008000D01*
X124992000Y-64008000D02*
X119735000Y-69265000D01*
X119735000Y-69265000D02*
X107544000Y-69265000D01*
D40*
X134620000Y-92456000D02*
X134620000Y-96630000D01*
X134620000Y-96630000D02*
X131500000Y-99750000D01*
X131500000Y-99750000D02*
X131500000Y-107250000D01*
X133096000Y-91694000D02*
X133096000Y-96154000D01*
X133096000Y-96154000D02*
X130250000Y-99000000D01*
X130250000Y-99000000D02*
X130250000Y-109500000D01*
X131826000Y-78994000D02*
X131832000Y-79000000D01*
X131832000Y-79000000D02*
X138350000Y-79000000D01*
X130302000Y-81000000D02*
X138350000Y-81000000D01*
X128778000Y-83000000D02*
X138350000Y-83000000D01*
X127508000Y-85000000D02*
X138350000Y-85000000D01*
X138430000Y-96774000D02*
X136976000Y-96774000D01*
X136976000Y-96774000D02*
X132741000Y-101009000D01*
X132741000Y-101009000D02*
X132741000Y-116332000D01*
X154432000Y-98044000D02*
X153000000Y-96612000D01*
X153000000Y-96612000D02*
X153000000Y-91650000D01*
X155448000Y-99060000D02*
X155448000Y-96198000D01*
X155448000Y-96198000D02*
X155000000Y-95750000D01*
X155000000Y-95750000D02*
X155000000Y-91650000D01*
X156972000Y-99568000D02*
X157000000Y-99540000D01*
X157000000Y-99540000D02*
X157000000Y-91650000D01*
X138350000Y-77000000D02*
X133604000Y-77000000D01*
X132080000Y-75000000D02*
X138350000Y-75000000D01*
X138350000Y-73000000D02*
X133604000Y-73000000D01*
X132080000Y-71000000D02*
X138350000Y-71000000D01*
X167132000Y-76250000D02*
X166382000Y-77000000D01*
X169164000Y-78232000D02*
X168916000Y-78232000D01*
X168916000Y-78232000D02*
X168148000Y-79000000D01*
X169672000Y-75184000D02*
X169488000Y-75000000D01*
X169488000Y-75000000D02*
X161650000Y-75000000D01*
X175500000Y-74000000D02*
X169151000Y-74000000D01*
X169151000Y-74000000D02*
X168151000Y-73000000D01*
X168151000Y-73000000D02*
X161650000Y-73000000D01*
X161650000Y-71000000D02*
X167012000Y-71000000D01*
X167012000Y-71000000D02*
X167722000Y-71710000D01*
X167722000Y-71710000D02*
X167996000Y-71710000D01*
D41*
X127750000Y-116000000D02*
X127750000Y-110250000D01*
D40*
X109000000Y-62000000D02*
X110179000Y-63179000D01*
X102175000Y-76825000D02*
X102000000Y-77000000D01*
X107150000Y-76900000D02*
X107250000Y-77000000D01*
X176131000Y-62881000D02*
X176131000Y-61860000D01*
D42*
X159000000Y-68350000D02*
X159000000Y-68500000D01*
D40*
X107150000Y-76000000D02*
X107150000Y-76900000D01*
D43*
X171496000Y-72685000D02*
X177466000Y-72685000D01*
D41*
X167750000Y-116000000D02*
X167750000Y-110250000D01*
D44*
X159000000Y-68500000D02*
X159000000Y-71250000D01*
D40*
X166750000Y-68000000D02*
X167986000Y-68000000D01*
D41*
X180250000Y-116000000D02*
X180250000Y-110250000D01*
D40*
X177466000Y-71034000D02*
X177500000Y-71000000D01*
D41*
X177750000Y-116000000D02*
X177750000Y-110250000D01*
D40*
X177466000Y-72685000D02*
X177466000Y-71034000D01*
D41*
X125250000Y-116000000D02*
X125250000Y-110250000D01*
D40*
X110179000Y-63179000D02*
X110179000Y-65001800D01*
X180500000Y-62172300D02*
X180462300Y-62210000D01*
X167986000Y-68000000D02*
X167996000Y-68010000D01*
X102175000Y-76000000D02*
X102175000Y-76825000D01*
X176500000Y-63250000D02*
X176131000Y-62881000D01*
D41*
X120250000Y-116000000D02*
X120250000Y-110250000D01*
D40*
X180462300Y-62210000D02*
X179491000Y-62210000D01*
X127490000Y-61976000D02*
X125476000Y-61976000D01*
X108325000Y-62000000D02*
X109000000Y-62000000D01*
D43*
X174752000Y-66548000D02*
X173931000Y-65727000D01*
D42*
X115562500Y-74700000D02*
X113050000Y-74700000D01*
X113050000Y-74700000D02*
X113000000Y-74750000D01*
D43*
X173931000Y-65727000D02*
X173931000Y-61860000D01*
D41*
X153000000Y-62571000D02*
X152913000Y-62484000D01*
X153000000Y-68350000D02*
X153000000Y-62571000D01*
D40*
X178350000Y-76750000D02*
X177509000Y-76750000D01*
X179324000Y-77724000D02*
X178350000Y-76750000D01*
X157240000Y-80010000D02*
X155250000Y-82000000D01*
X149000000Y-83750000D02*
X148500000Y-83750000D01*
X155250000Y-82000000D02*
X150750000Y-82000000D01*
X157734000Y-80010000D02*
X157240000Y-80010000D01*
X150750000Y-82000000D02*
X149000000Y-83750000D01*
X137741000Y-105759000D02*
X142500000Y-101000000D01*
X161400000Y-89250000D02*
X161650000Y-89000000D01*
X137741000Y-116332000D02*
X137741000Y-105759000D01*
D44*
X160241000Y-110259000D02*
X160241000Y-116332000D01*
X140241000Y-109759000D02*
X140241000Y-116332000D01*
D42*
X119250000Y-73750000D02*
X119500000Y-74000000D01*
X117437500Y-73750000D02*
X119250000Y-73750000D01*
D40*
X139750000Y-97750000D02*
X135250000Y-102250000D01*
X179000000Y-81750000D02*
X178962000Y-81788000D01*
X178962000Y-81788000D02*
X177509000Y-81788000D01*
X149352000Y-86106000D02*
X149458000Y-86000000D01*
X135250000Y-102250000D02*
X135250000Y-110250000D01*
X149458000Y-86000000D02*
X158250000Y-86000000D01*
X153750000Y-87000000D02*
X161650000Y-87000000D01*
X139000000Y-108000000D02*
X139000000Y-106750000D01*
X139000000Y-106750000D02*
X143750000Y-102000000D01*
X152750000Y-88000000D02*
X153750000Y-87000000D01*
D42*
X155000000Y-68350000D02*
X155000000Y-70750000D01*
X115562500Y-70987500D02*
X115562500Y-72800000D01*
X116250000Y-70500000D02*
X115075000Y-70500000D01*
X115075000Y-70500000D02*
X115562500Y-70987500D01*
D40*
X107544000Y-67265000D02*
X105600400Y-67265000D01*
X103825000Y-69040400D02*
X103825000Y-76000000D01*
X105600400Y-67265000D02*
X103825000Y-69040400D01*
X107544000Y-70265000D02*
X105735000Y-70265000D01*
X105000000Y-71000000D02*
X105735000Y-70265000D01*
X105500000Y-76000000D02*
X105000000Y-75500000D01*
X105000000Y-75500000D02*
X105000000Y-71000000D01*
X106704000Y-64195000D02*
X106704000Y-62029000D01*
X106704000Y-62029000D02*
X106675000Y-62000000D01*
X107650000Y-68751800D02*
X108748200Y-68751800D01*
X108748200Y-68751800D02*
X108850000Y-68751800D01*
X109100000Y-68501800D02*
X109100000Y-68001800D01*
X108850000Y-68751800D02*
X109100000Y-68501800D01*
X109100000Y-68001800D02*
X108850000Y-67751800D01*
X108850000Y-67751800D02*
X107650000Y-67751800D01*
X105800000Y-69001800D02*
X106050000Y-69251800D01*
X105800000Y-68551800D02*
X105800000Y-69001800D01*
X106050000Y-69251800D02*
X107650000Y-69251800D01*
X107650000Y-68251800D02*
X106100000Y-68251800D01*
X106100000Y-68251800D02*
X105800000Y-68551800D01*
X175241000Y-102009000D02*
X175241000Y-116332000D01*
X175250000Y-102000000D02*
X175241000Y-102009000D01*
X172741000Y-103741000D02*
X172741000Y-116332000D01*
X172500000Y-103500000D02*
X172741000Y-103741000D01*
X170241000Y-106054000D02*
X170241000Y-116332000D01*
X170250000Y-106045000D02*
X170241000Y-106054000D01*
X165250000Y-107000000D02*
X165241000Y-107009000D01*
X165241000Y-107009000D02*
X165241000Y-116332000D01*
X155250000Y-106500000D02*
X155241000Y-106509000D01*
X155241000Y-106509000D02*
X155241000Y-116332000D01*
X152741000Y-108241000D02*
X152741000Y-116332000D01*
X152250000Y-107750000D02*
X152741000Y-108241000D01*
X145241000Y-105991000D02*
X145241000Y-116332000D01*
X145000000Y-105750000D02*
X145241000Y-105991000D01*
X142741000Y-107009000D02*
X142741000Y-116332000D01*
X142750000Y-107000000D02*
X142741000Y-107009000D01*
X126500000Y-87000000D02*
X138350000Y-87000000D01*
X146250000Y-102500000D02*
X138350000Y-94600000D01*
X138350000Y-94600000D02*
X138350000Y-89000000D01*
X146250000Y-108204000D02*
X146250000Y-102500000D01*
X141000000Y-95750000D02*
X149750000Y-104500000D01*
X149750000Y-104500000D02*
X149750000Y-107250000D01*
X141000000Y-91650000D02*
X141000000Y-95750000D01*
X143000000Y-95000000D02*
X153500000Y-105500000D01*
X153500000Y-105500000D02*
X153500000Y-106500000D01*
X143000000Y-91650000D02*
X143000000Y-95000000D01*
X145000000Y-91650000D02*
X145000000Y-95250000D01*
X145000000Y-95250000D02*
X155500000Y-105750000D01*
X155500000Y-105750000D02*
X163750000Y-105750000D01*
X168656000Y-106656000D02*
X166000000Y-104000000D01*
X168656000Y-107950000D02*
X168656000Y-106656000D01*
X155000000Y-104000000D02*
X147000000Y-96000000D01*
X147000000Y-96000000D02*
X147000000Y-91650000D01*
X166000000Y-104000000D02*
X155000000Y-104000000D01*
X171704000Y-107950000D02*
X171704000Y-104704000D01*
X149000000Y-96250000D02*
X149000000Y-91650000D01*
X155750000Y-103000000D02*
X149000000Y-96250000D01*
X171704000Y-104704000D02*
X170000000Y-103000000D01*
X170000000Y-103000000D02*
X155750000Y-103000000D01*
X151000000Y-96250000D02*
X151000000Y-91650000D01*
X174498000Y-107950000D02*
X174500000Y-107948000D01*
X174500000Y-107948000D02*
X174500000Y-103500000D01*
X156250000Y-101500000D02*
X151000000Y-96250000D01*
X174500000Y-103500000D02*
X172500000Y-101500000D01*
X172500000Y-101500000D02*
X156250000Y-101500000D01*
X162750000Y-109500000D02*
X162741000Y-109509000D01*
X162741000Y-109509000D02*
X162741000Y-116332000D01*
X156750000Y-107500000D02*
X157741000Y-108491000D01*
X157741000Y-108491000D02*
X157741000Y-116332000D01*
X157750000Y-100500000D02*
X159000000Y-99250000D01*
X159000000Y-99250000D02*
X159000000Y-91650000D01*
X146500000Y-85000000D02*
X161650000Y-85000000D01*
X147000000Y-68350000D02*
X147000000Y-71500000D01*
X145000000Y-68350000D02*
X145000000Y-71250000D01*
X143000000Y-70500000D02*
X142750000Y-70750000D01*
X143000000Y-68350000D02*
X143000000Y-70500000D01*
X139700000Y-67564000D02*
X140214000Y-67564000D01*
X136670000Y-61976000D02*
X139700000Y-61976000D01*
X140214000Y-67564000D02*
X141000000Y-68350000D01*
X149000000Y-80500000D02*
X153500000Y-80500000D01*
X180000000Y-84250000D02*
X179922000Y-84328000D01*
X147000000Y-82500000D02*
X149000000Y-80500000D01*
X179922000Y-84328000D02*
X177509000Y-84328000D01*
D45*
X113500000Y-70500000D02*
X111601800Y-70500000D01*
X111601800Y-70500000D02*
X111400000Y-70701800D01*
D40*
X164750000Y-77000000D02*
X175809000Y-77000000D01*
X175006000Y-63250000D02*
X175031000Y-63225000D01*
X161650000Y-77000000D02*
X164750000Y-77000000D01*
X175809000Y-77000000D02*
X176059000Y-76750000D01*
X175031000Y-63225000D02*
X175031000Y-61860000D01*
X177800000Y-66040000D02*
X177800000Y-64516000D01*
X178281000Y-64035000D02*
X178281000Y-61860000D01*
X189205000Y-65253000D02*
X189205000Y-65569000D01*
X177800000Y-64516000D02*
X178281000Y-64035000D01*
X177800000Y-66040000D02*
X182626000Y-61214000D01*
X187960000Y-64008000D02*
X189205000Y-65253000D01*
X182626000Y-61214000D02*
X187198000Y-61214000D01*
X187960000Y-61976000D02*
X187960000Y-64008000D01*
X187198000Y-61214000D02*
X187960000Y-61976000D01*
X185420000Y-70104000D02*
X169602000Y-70104000D01*
X169602000Y-70104000D02*
X167996000Y-71710000D01*
X176276000Y-64974000D02*
X177231000Y-64019000D01*
X185346000Y-64250000D02*
X186665000Y-65569000D01*
X176276000Y-67564000D02*
X176276000Y-64974000D01*
X177231000Y-64019000D02*
X177231000Y-61860000D01*
X176276000Y-67564000D02*
X179324000Y-67564000D01*
X182638000Y-64250000D02*
X185346000Y-64250000D01*
X179324000Y-67564000D02*
X182638000Y-64250000D01*
X187194193Y-63558193D02*
X186665000Y-63029000D01*
X180340000Y-79756000D02*
X184404000Y-79756000D01*
X170688000Y-65024000D02*
X171731000Y-63981000D01*
X184404000Y-79756000D02*
X187960000Y-76200000D01*
X187960000Y-64898058D02*
X187075302Y-64013360D01*
X187075302Y-63677084D02*
X187194193Y-63558193D01*
X187075302Y-64013360D02*
X187075302Y-63677084D01*
X187960000Y-76200000D02*
X187960000Y-64898058D01*
X171731000Y-63981000D02*
X171731000Y-61860000D01*
X161650000Y-79000000D02*
X166364000Y-79000000D01*
X172831000Y-64405000D02*
X172831000Y-61860000D01*
X172212000Y-65024000D02*
X172831000Y-64405000D01*
X166364000Y-79000000D02*
X175811000Y-79000000D01*
X173736000Y-68580000D02*
X181114000Y-68580000D01*
X172212000Y-67056000D02*
X173736000Y-68580000D01*
X172212000Y-66040000D02*
X172212000Y-67056000D01*
X181114000Y-68580000D02*
X184125000Y-65569000D01*
X172212000Y-66040000D02*
X172212000Y-65024000D01*
X175811000Y-79000000D02*
X176059000Y-79248000D01*
X169672000Y-64008000D02*
X170631000Y-63049000D01*
X170631000Y-63049000D02*
X170631000Y-61860000D01*
G04 #@! TA.AperFunction,Conductor*
G36*
X103459191Y-88518907D02*
G01*
X103495155Y-88568407D01*
X103500000Y-88599000D01*
X103500000Y-109500000D01*
X106200500Y-109500000D01*
X106258691Y-109518907D01*
X106294655Y-109568407D01*
X106299500Y-109599000D01*
X106299500Y-115465983D01*
X106296982Y-115488169D01*
X106294344Y-115499641D01*
X106296739Y-115510227D01*
X106295587Y-115524697D01*
X106287294Y-115577063D01*
X106277725Y-115606518D01*
X106249419Y-115662071D01*
X106231215Y-115687128D01*
X106187128Y-115731215D01*
X106162068Y-115749421D01*
X106106521Y-115777723D01*
X106077065Y-115787294D01*
X106024499Y-115795619D01*
X106010609Y-115796701D01*
X106000359Y-115794344D01*
X105989487Y-115796804D01*
X105989207Y-115796867D01*
X105988359Y-115797059D01*
X105966512Y-115799500D01*
X100534017Y-115799500D01*
X100511831Y-115796982D01*
X100511224Y-115796842D01*
X100511222Y-115796842D01*
X100500359Y-115794344D01*
X100489773Y-115796739D01*
X100475303Y-115795587D01*
X100422937Y-115787294D01*
X100393482Y-115777725D01*
X100337929Y-115749419D01*
X100312872Y-115731215D01*
X100268785Y-115687128D01*
X100250581Y-115662071D01*
X100222275Y-115606518D01*
X100212706Y-115577065D01*
X100205281Y-115530185D01*
X100204738Y-115504672D01*
X100205655Y-115500718D01*
X100205656Y-115500000D01*
X100203096Y-115488776D01*
X100202980Y-115488266D01*
X100200500Y-115466248D01*
X100200500Y-88599000D01*
X100219407Y-88540809D01*
X100268907Y-88504845D01*
X100299500Y-88500000D01*
X103401000Y-88500000D01*
X103459191Y-88518907D01*
G37*
G04 #@! TD.AperFunction*
G04 #@! TA.AperFunction,Conductor*
G36*
X199758691Y-90018907D02*
G01*
X199794655Y-90068407D01*
X199799500Y-90099000D01*
X199799500Y-115465983D01*
X199796982Y-115488169D01*
X199794344Y-115499641D01*
X199796739Y-115510227D01*
X199795587Y-115524697D01*
X199787294Y-115577063D01*
X199777725Y-115606518D01*
X199749419Y-115662071D01*
X199731215Y-115687128D01*
X199687128Y-115731215D01*
X199662068Y-115749421D01*
X199606521Y-115777723D01*
X199577065Y-115787294D01*
X199524499Y-115795619D01*
X199510609Y-115796701D01*
X199500359Y-115794344D01*
X199489487Y-115796804D01*
X199489207Y-115796867D01*
X199488359Y-115797059D01*
X199466512Y-115799500D01*
X194534017Y-115799500D01*
X194511831Y-115796982D01*
X194511224Y-115796842D01*
X194511222Y-115796842D01*
X194500359Y-115794344D01*
X194489773Y-115796739D01*
X194475303Y-115795587D01*
X194422937Y-115787294D01*
X194393482Y-115777725D01*
X194337929Y-115749419D01*
X194312872Y-115731215D01*
X194268785Y-115687128D01*
X194250581Y-115662071D01*
X194222275Y-115606518D01*
X194212706Y-115577065D01*
X194205281Y-115530185D01*
X194204738Y-115504672D01*
X194205655Y-115500718D01*
X194205656Y-115500000D01*
X194203096Y-115488776D01*
X194202980Y-115488266D01*
X194200500Y-115466248D01*
X194200500Y-109599000D01*
X194219407Y-109540809D01*
X194268907Y-109504845D01*
X194299500Y-109500000D01*
X196500000Y-109500000D01*
X196500000Y-90099000D01*
X196518907Y-90040809D01*
X196568407Y-90004845D01*
X196599000Y-90000000D01*
X199700500Y-90000000D01*
X199758691Y-90018907D01*
G37*
G04 #@! TD.AperFunction*
G04 #@! TA.AperFunction,Conductor*
G36*
X112460097Y-70092702D02*
G01*
X112526892Y-70105988D01*
X112562580Y-70120770D01*
X112610939Y-70153082D01*
X112638254Y-70180397D01*
X112670566Y-70228756D01*
X112685348Y-70264444D01*
X112698634Y-70331239D01*
X112700536Y-70350552D01*
X112700536Y-70942048D01*
X112698634Y-70961361D01*
X112685348Y-71028156D01*
X112670566Y-71063844D01*
X112638254Y-71112203D01*
X112610939Y-71139518D01*
X112562580Y-71171830D01*
X112526892Y-71186612D01*
X112460097Y-71199898D01*
X112440784Y-71201800D01*
X107610288Y-71201800D01*
X107590975Y-71199898D01*
X107524180Y-71186612D01*
X107488492Y-71171830D01*
X107440133Y-71139518D01*
X107412818Y-71112203D01*
X107380506Y-71063844D01*
X107365724Y-71028156D01*
X107352438Y-70961361D01*
X107350536Y-70942048D01*
X107350536Y-70861552D01*
X107352438Y-70842239D01*
X107365724Y-70775444D01*
X107380506Y-70739756D01*
X107412818Y-70691397D01*
X107440133Y-70664082D01*
X107487872Y-70632184D01*
X107542873Y-70615500D01*
X108438748Y-70615500D01*
X108497231Y-70603867D01*
X108497586Y-70605654D01*
X108516943Y-70601800D01*
X109550536Y-70601800D01*
X109550536Y-70346940D01*
X109551013Y-70342098D01*
X109551365Y-70342133D01*
X109552438Y-70331239D01*
X109565724Y-70264444D01*
X109580506Y-70228756D01*
X109612818Y-70180397D01*
X109640133Y-70153082D01*
X109688492Y-70120770D01*
X109724180Y-70105988D01*
X109790975Y-70092702D01*
X109810288Y-70090800D01*
X112440784Y-70090800D01*
X112460097Y-70092702D01*
G37*
G04 #@! TD.AperFunction*
G04 #@! TA.AperFunction,Conductor*
G36*
X111759561Y-65803702D02*
G01*
X111826356Y-65816988D01*
X111862044Y-65831770D01*
X111910403Y-65864082D01*
X111937718Y-65891397D01*
X111970030Y-65939756D01*
X111984812Y-65975444D01*
X111998098Y-66042239D01*
X112000000Y-66061552D01*
X112000000Y-66726048D01*
X111998098Y-66745361D01*
X111984812Y-66812156D01*
X111970030Y-66847844D01*
X111937718Y-66896203D01*
X111910403Y-66923518D01*
X111862044Y-66955830D01*
X111826356Y-66970612D01*
X111759561Y-66983898D01*
X111740248Y-66985800D01*
X109859752Y-66985800D01*
X109840439Y-66983898D01*
X109773644Y-66970612D01*
X109737956Y-66955830D01*
X109689597Y-66923518D01*
X109662282Y-66896203D01*
X109629970Y-66847844D01*
X109615188Y-66812156D01*
X109601902Y-66745361D01*
X109600000Y-66726048D01*
X109600000Y-66401800D01*
X107454866Y-66401800D01*
X107435553Y-66399898D01*
X107368758Y-66386612D01*
X107333070Y-66371830D01*
X107284711Y-66339518D01*
X107257396Y-66312203D01*
X107225084Y-66263844D01*
X107210302Y-66228156D01*
X107197016Y-66161361D01*
X107195114Y-66142048D01*
X107195114Y-66061552D01*
X107197016Y-66042239D01*
X107210302Y-65975444D01*
X107225084Y-65939756D01*
X107257396Y-65891397D01*
X107284711Y-65864082D01*
X107332450Y-65832184D01*
X107387451Y-65815500D01*
X108438748Y-65815500D01*
X108497231Y-65803867D01*
X108497586Y-65805654D01*
X108516943Y-65801800D01*
X111740248Y-65801800D01*
X111759561Y-65803702D01*
G37*
G04 #@! TD.AperFunction*
G04 #@! TA.AperFunction,Conductor*
G36*
X111759561Y-71403702D02*
G01*
X111826356Y-71416988D01*
X111862044Y-71431770D01*
X111910403Y-71464082D01*
X111937718Y-71491397D01*
X111970030Y-71539756D01*
X111984812Y-71575444D01*
X111998098Y-71642239D01*
X112000000Y-71661552D01*
X112000000Y-73342048D01*
X111998098Y-73361361D01*
X111984812Y-73428156D01*
X111970030Y-73463844D01*
X111937718Y-73512203D01*
X111910403Y-73539518D01*
X111862044Y-73571830D01*
X111826356Y-73586612D01*
X111759561Y-73599898D01*
X111740248Y-73601800D01*
X109459752Y-73601800D01*
X109440439Y-73599898D01*
X109373644Y-73586612D01*
X109337956Y-73571830D01*
X109289597Y-73539518D01*
X109262282Y-73512203D01*
X109229970Y-73463844D01*
X109215188Y-73428156D01*
X109201902Y-73361361D01*
X109200000Y-73342048D01*
X109200000Y-72001800D01*
X107054866Y-72001800D01*
X107035553Y-71999898D01*
X106968758Y-71986612D01*
X106933070Y-71971830D01*
X106884711Y-71939518D01*
X106857396Y-71912203D01*
X106825084Y-71863844D01*
X106810302Y-71828156D01*
X106797016Y-71761361D01*
X106795114Y-71742048D01*
X106795114Y-71661552D01*
X106797016Y-71642239D01*
X106810302Y-71575444D01*
X106825084Y-71539756D01*
X106857396Y-71491397D01*
X106884711Y-71464082D01*
X106932450Y-71432184D01*
X106987451Y-71415500D01*
X108438748Y-71415500D01*
X108497231Y-71403867D01*
X108497586Y-71405654D01*
X108516943Y-71401800D01*
X111740248Y-71401800D01*
X111759561Y-71403702D01*
G37*
G04 #@! TD.AperFunction*
G04 #@! TA.AperFunction,Conductor*
G36*
X111759406Y-64402059D02*
G01*
X111826236Y-64415314D01*
X111861943Y-64430083D01*
X111876711Y-64439942D01*
X111910337Y-64462390D01*
X111937669Y-64489705D01*
X111970006Y-64538075D01*
X111984800Y-64573775D01*
X111998096Y-64640593D01*
X112000000Y-64659914D01*
X112000000Y-65340339D01*
X111998099Y-65359649D01*
X111984818Y-65426432D01*
X111970044Y-65462110D01*
X111937743Y-65510466D01*
X111910441Y-65537777D01*
X111862101Y-65570092D01*
X111826429Y-65584880D01*
X111759644Y-65598187D01*
X111740345Y-65600094D01*
X109496795Y-65600901D01*
X107259844Y-65601706D01*
X107240526Y-65599810D01*
X107186448Y-65589072D01*
X107173712Y-65586543D01*
X107138014Y-65571768D01*
X107089634Y-65539457D01*
X107062311Y-65512144D01*
X107029984Y-65463777D01*
X107015196Y-65428084D01*
X107001903Y-65361275D01*
X107000000Y-65341956D01*
X107000000Y-65261552D01*
X107001902Y-65242239D01*
X107015188Y-65175444D01*
X107029970Y-65139756D01*
X107062282Y-65091397D01*
X107089597Y-65064082D01*
X107137956Y-65031770D01*
X107173644Y-65016988D01*
X107240439Y-65003702D01*
X107259752Y-65001800D01*
X109200000Y-65001800D01*
X109200000Y-64661385D01*
X109201901Y-64642078D01*
X109215177Y-64575311D01*
X109229946Y-64539638D01*
X109239314Y-64525610D01*
X109262234Y-64491289D01*
X109289528Y-64463977D01*
X109337856Y-64431658D01*
X109373521Y-64416865D01*
X109440282Y-64403546D01*
X109459587Y-64401633D01*
X111323869Y-64400435D01*
X111740085Y-64400167D01*
X111759406Y-64402059D01*
G37*
G04 #@! TD.AperFunction*
M02*
